<?xml version="1.0" encoding="UTF-8"?>
<svg width="200px" height="200px" viewBox="0 0 200 200" version="1.1" xmlns="http://www.w3.org/2000/svg" xmlns:xlink="http://www.w3.org/1999/xlink">
    <!-- Generator: Sketch 54.1 (76490) - https://sketchapp.com -->
    <title>brown</title>
    <desc>Created with Sketch.</desc>
    <g id="brown" stroke="none" stroke-width="1" fill="none" fill-rule="evenodd">
        <g id="brown_BGD" transform="translate(0.000000, 0.000000)">
            <g id="brown" transform="translate(0.000000, 21.000000)">
                <g id="g10" transform="translate(99.951336, 79.419953) scale(-1, 1) rotate(-180.000000) translate(-99.951336, -79.419953) translate(0.000000, 0.101221)" fill-rule="nonzero">
                    <g id="g12">
                        <path d="M196.348414,141.468804 C192.661406,142.902576 188.830166,144.272308 184.959411,145.541018 L177.952112,147.837466 C177.952112,147.837466 177.952112,147.72496 177.952112,147.721262 C177.615178,147.819169 177.137125,147.957563 177.137125,147.957563 C173.828706,148.917174 170.392794,149.832989 166.922624,150.680677 L165.025397,151.144327 L165.025397,151.174887 L163.845446,151.433184 L160.310653,152.297612 L160.310653,152.201067 C156.475325,153.033378 152.591724,153.793475 148.751918,154.451772 C148.751918,154.451772 147.824619,154.610799 147.316785,154.698196 C147.316785,154.698974 147.316785,154.729339 147.316785,154.729339 C147.316785,154.729339 146.515617,154.848658 145.924863,154.936833 C144.230459,155.228025 142.505495,155.52311 142.505495,155.52311 C142.505495,155.52311 142.505495,155.443889 142.505495,155.441748 C138.615666,156.017904 134.648366,156.527101 130.702284,156.944424 C130.702284,156.944424 129.940629,157.025008 129.611481,157.060045 L129.611481,157.101115 C129.611481,157.101115 128.582965,157.188512 127.625106,157.269874 C126.214303,157.419558 124.797272,157.569436 124.797272,157.569436 C124.797272,157.569436 124.797272,157.511626 124.797272,157.510069 C124.794157,157.510069 124.720386,157.516882 124.720386,157.516882 C120.785009,157.85148 116.731871,158.112307 112.670946,158.291578 L107.092163,158.537806 L107.092163,152.363597 L100.677564,158.593281 L98.5025766,158.588025 C93.6282215,158.575762 88.7038421,158.445154 83.8666646,158.200288 L81.6903143,158.090118 L73.1246697,148.819656 L64.7565921,156.618974 L62.2767868,156.308901 C54.6964463,155.359607 47.1873468,154.109193 39.9581499,152.593281 L35.711532,151.703938 L35.711532,145.433962 L28.4077852,149.903646 L26.1927001,149.310751 C18.3401066,147.207393 10.6843014,144.739656 3.43902668,141.976639 L0,140.664522 L0,77.344037 L7.43225286,80.5008252 C13.7243014,83.172942 20.8531382,85.5727473 28.6222864,87.6321146 L30.4171282,88.1078323 L35.711532,95.1768346 L35.711532,89.4709467 L42.0942082,90.7367374 C45.8479794,91.4808736 49.7475413,92.1590245 53.683113,92.7511412 C53.683113,92.7511412 55.2490497,92.9876376 56.5901689,93.1890974 C58.0868112,93.3814089 59.5842321,93.5729417 59.5842321,93.5729417 C63.287979,94.0486594 67.0789278,94.459949 70.852553,94.7968833 L75.7222365,95.2299733 L75.7222365,101.527394 L81.8925527,95.5875402 L84.1884164,95.693039 C89.0146936,95.9151314 93.9474429,96.0305572 98.8492433,96.0367859 L101.157954,96.0397056 L109.317564,104.72934 L117.598245,95.5312871 L119.774012,95.392893 C123.959705,95.1266156 128.151043,94.7754721 132.231822,94.3482215 L134.693914,94.0899247 C134.693914,94.0899247 135.222965,94.596202 135.727101,95.0789271 C136.088172,94.6522604 136.7708,93.8442799 136.7708,93.8442799 L138.831724,93.5805329 C143.077174,93.0361047 147.294206,92.3953262 151.364084,91.6755208 L153.927977,91.2223821 L160.310653,96.9551314 L160.310653,89.9643773 L164.425495,88.9921146 C168.145008,88.1132825 171.785494,87.1456913 175.247295,86.1162022 C175.247295,86.1162022 177.898195,85.3280757 179.929339,84.7244748 C179.930117,84.722139 179.9453,84.6721147 179.9453,84.6721147 L182.512112,83.778684 C185.946078,82.5837449 189.227635,81.3021877 192.267051,79.9717742 L199.75474,76.690801 L199.75474,140.144425 L196.348414,141.468804" id="path14" fill="#231F20"></path>
                        <path d="M56.6956677,137.408658 C56.6956677,134.982965 56.6956677,132.888561 56.6956677,130.89771 C56.0075898,130.8035 55.9034536,130.788318 55.1388794,130.683403 C55.1388794,133.109875 55.1388794,135.204084 55.1388794,137.195714 C55.8267626,137.290118 55.9308988,137.304327 56.6956677,137.408658 L56.6956677,137.408658 Z M62.6312393,153.481067 C55.1281738,152.541505 47.6967385,151.304716 40.543454,149.80496 L38.5609723,149.388999 L38.5609723,92.9413115 L41.5400476,93.5326497 C45.4191716,94.3013115 49.1904611,94.9586351 53.0688065,95.5417981 L55.1920181,95.8617981 C55.1920181,95.8617981 55.1920181,112.549292 55.1920181,116.000581 C55.7940619,116.084863 55.8717261,116.096153 56.5376142,116.189778 C56.5376142,111.967686 56.5376142,96.0716278 56.5376142,96.0716278 L59.348709,96.4326983 C62.827249,96.8790243 66.4025288,97.2613114 70.6000956,97.6352287 L72.8722123,97.8374671 L72.8722123,121.917661 C72.8722123,121.917661 70.01557,123.929924 68.3219448,125.122527 C70.0755214,126.823938 72.8722123,129.537126 72.8722123,129.537126 L72.8722123,145.158731 L63.7882222,153.625495 L62.6312393,153.481067 L62.6312393,153.481067 Z" id="path16" fill="#FFFFFF"></path>
                        <path d="M20.8099265,129.971773 C20.8099265,127.533233 20.8099265,125.883598 20.8099265,124.311432 C20.257907,124.13372 20.1105591,124.085836 19.411873,123.860824 C19.411873,126.299364 19.411873,127.948999 19.411873,129.521165 C19.9637951,129.698878 20.1113377,129.746761 20.8099265,129.971773 Z M20.8622866,109.409048 C20.8622866,106.792406 20.8622866,104.834839 20.8622866,103.187735 C20.3141601,103.006713 20.1629192,102.956688 19.464272,102.725642 C19.464272,105.34209 19.464272,107.299462 19.464272,108.946761 C20.0132355,109.127783 20.1636978,109.177807 20.8622866,109.409048 Z M36.4437947,125.816639 L36.4437947,141.645155 L27.9639896,146.83406 L26.9300237,146.557271 C19.1708414,144.479023 11.6086615,142.041846 4.45467629,139.31367 L2.84982961,138.7017 L2.84982961,81.6502169 L6.31865678,83.1233069 C12.7338002,85.8485623 19.9927976,88.2927472 27.8923594,90.3869564 L28.7293423,90.6088542 L37.4479796,102.247978 L37.4479796,118.479608 C37.4479796,118.479608 34.1306074,119.92681 32.3417997,120.70754 C33.9883203,122.759121 36.4437947,125.816639 36.4437947,125.816639 L36.4437947,125.816639 Z" id="path18" fill="#FFFFFF"></path>
                        <path d="M195.314837,138.812649 C191.676297,140.227344 187.894497,141.579753 184.07221,142.832503 L180.800969,143.904425 C180.800969,143.904425 180.800969,136.724473 180.800969,134.336736 C179.52564,138.586858 177.6471,144.842624 177.6471,144.842624 L176.343353,145.221018 C173.073864,146.168172 169.676687,147.074254 166.246808,147.912794 L163.160288,148.667636 L163.160288,92.2189758 L165.080872,91.7652532 C168.852745,90.874353 172.54637,89.8921632 176.059168,88.8476863 L179.263256,87.8960562 C179.263256,87.8960562 179.263256,94.6896327 179.263256,96.7275888 C180.453718,92.8066157 182.25148,86.8870051 182.25148,86.8870051 L183.448949,86.4698762 C186.952404,85.2506061 190.304229,83.9429663 193.410409,82.5821877 L196.905105,81.0510929 L196.905105,138.194644 L195.314837,138.812649" id="path20" fill="#FFFFFF"></path>
                        <path d="M148.586079,151.588901 L145.670264,152.089339 C145.670264,152.089339 145.670264,114.882333 145.670264,109.980533 C144.932746,110.071043 144.839899,110.082333 144.166614,110.163696 C144.166614,114.129632 144.1635,152.304424 144.1635,152.304424 L142.038147,152.622089 C138.245641,153.187733 134.830362,153.619461 130.615666,154.065008 L127.860045,154.356979 C127.860045,154.356979 127.860045,117.045836 127.860045,112.126713 C127.196299,112.209632 127.122527,112.218781 126.515423,112.294498 C126.515423,116.249729 126.515423,154.523402 126.515423,154.523402 L124.232406,154.717271 C120.661797,155.020337 117.057126,155.245544 112.545204,155.443889 L109.941603,155.559509 L109.941603,108.296056 L118.93917,98.3013114 L119.954255,98.2366885 C124.179267,97.9690486 128.409535,97.6140122 132.529048,97.1822847 L133.677661,97.0621874 C133.677661,97.0621874 135.245155,98.5611654 135.947637,99.2325036 C136.77625,98.2526496 138.231821,96.5300219 138.231821,96.5300219 L139.193573,96.4068102 C143.483987,95.8571266 147.745592,95.2095353 151.860434,94.4821388 L153.05693,94.2707519 L162.175373,102.460922 L162.175373,148.881164 L160.214887,149.310751 C156.143451,150.202624 152.448074,150.926906 148.586079,151.588901" id="path22" fill="#FFFFFF"></path>
                        <path d="M92.1588298,140.501797 C92.1588298,136.471432 92.1588298,117.178781 92.1588298,113.438051 C91.4594624,113.409048 91.3765427,113.405934 90.6551802,113.377126 C90.6551802,117.406712 90.6551802,136.700143 90.6551802,140.441067 C91.3553262,140.469096 91.4372727,140.472989 92.1588298,140.501797 L92.1588298,140.501797 Z M98.5086107,155.738001 C93.6799977,155.726711 88.8025282,155.597466 84.0105088,155.354157 L82.9956184,155.302575 L74.0550833,145.626858 L74.0550833,107.088854 L82.9864699,98.4912871 L84.0576135,98.5399489 C88.9257399,98.7639878 93.9018955,98.8805815 98.8461289,98.8866155 L99.9233065,98.8881727 L108.724863,108.261019 L108.724863,146.804473 L99.5240851,155.740337 L98.5086107,155.738001 L98.5086107,155.738001 Z" id="path24" fill="#FFFFFF"></path>
                        <path d="M52.8872006,139.419364 L58.9039401,140.255568 L58.9039401,128.709875 L52.8872006,127.873671 L52.8872006,139.419364 Z M52.8872006,98.0352287 L52.8872006,118.192892 L58.9039401,119.029097 L58.9039401,98.8729902 C62.6530398,99.3549367 66.4807769,99.7714817 70.3787817,100.118732 L70.3787817,120.623841 L64.4266651,124.816347 L70.3787817,130.592114 L70.3787817,144.074741 L62.9413123,151.006712 C55.4520667,150.068707 48.1436484,148.850215 41.0549868,147.364084 L41.0549868,95.9780025 C44.8877848,96.7382944 48.8354246,97.4255937 52.8872006,98.0352287 L52.8872006,98.0352287 Z" id="path26" fill="#4D180C"></path>
                        <path d="M17.1763305,110.813039 L23.1215566,112.807004 L23.1215566,101.332942 L17.1763305,99.3389756 L17.1763305,110.813039 Z M17.1763305,131.394839 L23.1215566,133.388026 L23.1215566,122.487783 L17.1763305,120.493817 L17.1763305,131.394839 Z M27.253138,92.7976619 L34.9537704,103.078927 L34.9537704,116.847296 L28.3562037,119.726128 L33.9495855,126.693914 L33.9495855,140.247782 L27.5746952,144.149096 C19.8345494,142.075325 12.4067734,139.677855 5.34329914,136.983744 L5.34329914,85.4191706 C11.8611579,88.1878323 19.214345,90.6660805 27.253138,92.7976619 L27.253138,92.7976619 Z" id="path28" fill="#4D180C"></path>
                        <path d="M176.769047,91.2383432 L176.769047,113.524669 L184.268609,88.824718 C187.845056,87.5803384 191.232307,86.2584893 194.411285,84.8659833 L194.411285,136.48895 C190.800579,137.892746 187.093329,139.218683 183.295567,140.463062 L183.295567,117.361944 L175.648657,142.82569 C172.376833,143.7744 169.042721,144.662381 165.653913,145.490215 L165.653913,94.1917251 C169.503451,93.2825281 173.213232,92.2958614 176.769047,91.2383432" id="path30" fill="#4D180C"></path>
                        <path d="M132.789096,99.6628686 L136.140532,102.868319 L139.510459,98.8805815 C143.884571,98.3201922 148.150653,97.6702652 152.294303,96.9381971 L159.681942,103.572358 L159.681942,146.87513 C155.801845,147.72496 151.85732,148.49732 147.848755,149.185203 L147.848755,107.2181 L141.976444,107.92428 L141.973719,150.124181 C138.080775,150.705008 134.135082,151.208171 130.140532,151.630945 L130.140532,109.347345 L124.268221,110.053525 L124.268221,152.192502 C120.365544,152.524765 116.418683,152.777222 112.435423,152.953573 L112.435423,109.252357 L120.111335,100.725448 C124.415763,100.452552 128.645058,100.096737 132.789096,99.6628686" id="path32" fill="#4D180C"></path>
                        <path d="M88.3815063,142.865982 L94.3982458,143.089437 L94.3982458,111.032795 L88.3815063,110.810703 L88.3815063,142.865982 Z M98.8430146,101.379851 L106.230849,109.247686 L106.230849,145.750069 L98.5146447,153.244765 C93.6724064,153.232502 88.8770781,153.104035 84.1366402,152.864035 L76.5485139,144.650897 L76.5485139,108.149292 L83.9427716,101.030849 C88.8291949,101.256056 93.8016522,101.373817 98.8430146,101.379851 L98.8430146,101.379851 Z" id="path34" fill="#4D180C"></path>
                        <path d="M161.687393,43.4489527 C161.695568,43.6210208 161.709193,43.7956193 161.709193,43.9635999 C161.709193,46.3363492 160.936444,48.2660815 160.109193,49.6741593 C160.490118,49.7629185 160.841067,49.954062 161.0653,50.2822372 C161.241845,50.5415073 161.332356,50.843989 161.336054,51.1480279 L161.831626,51.1708016 C161.515324,52.1006313 160.889144,52.9321641 160.219363,53.6171276 C159.526614,54.5648648 158.682234,55.3350838 157.960288,55.899366 C162.314351,62.3332345 157.07367,67.2920664 157.07367,67.2920664 C157.802624,68.8922611 157.195325,70.4932342 156.150069,71.8691953 C155.488658,73.7033558 154.263938,75.2138181 153.403013,76.121458 C153.553475,76.344329 153.654497,76.5981489 153.676493,76.8718229 C153.701018,77.1599007 153.712113,77.4419445 153.712113,77.7171757 C153.712113,81.6266646 151.437077,84.228903 150.237271,85.3294383 C150.239802,85.4055453 150.253232,85.4869078 150.253232,85.5622363 C150.253232,88.0449613 149.145106,89.9065671 148.456055,90.8309466 C148.460921,90.9054965 148.49732,90.9821875 148.49732,91.0559588 C148.49732,91.906567 148.208463,92.6978079 147.896833,93.3115305 C148.159218,93.7683675 148.259461,94.1749855 148.282235,94.303258 C148.299753,94.3976619 148.307928,94.4928444 148.307928,94.5876375 C148.307928,94.6144989 148.307928,94.6401923 148.30676,94.6660804 C148.267247,95.4559587 147.908123,96.2275402 147.480483,96.8918711 C147.590264,97.1122117 147.704327,97.3358613 147.704327,97.5797543 C147.704327,97.7418954 147.679412,97.9044258 147.628415,98.0624793 C146.931967,100.224426 145.245155,101.843696 144.276201,102.63591 C144.274449,103.352795 144.274449,104.155326 144.274449,104.230654 C144.245836,106.231433 143.515325,107.947248 142.0944,109.326129 C138.361846,112.949097 131.023841,112.841262 130.712989,112.83445 L130.712211,112.83445 C123.378683,112.83445 119.928172,109.740533 118.886031,108.581214 C117.100338,107.995131 116.009535,106.939949 115.416639,105.913769 C115.248659,105.982868 115.076202,106.047491 114.889146,106.055861 C113.611092,106.106664 112.471822,106.006421 111.537515,105.865107 C111.541992,105.91299 111.564766,105.958537 111.564766,106.005642 C111.564766,106.336348 111.460824,106.664718 111.259365,106.938391 C110.93625,107.379267 110.407978,107.621798 109.862966,107.578391 C107.817808,107.413525 106.362041,107.003014 105.280387,106.521846 C104.989194,106.797078 104.617418,106.972649 104.213136,106.972649 C102.733817,106.972649 101.240679,106.253623 100.298002,105.694012 C99.3607761,106.254207 97.8767859,106.972649 96.3984404,106.972649 C95.9939635,106.972649 95.6214088,106.797078 95.3309952,106.521846 C94.2485621,107.003014 92.7927957,107.413525 90.7478323,107.578391 C90.2028201,107.621798 89.6745476,107.379267 89.3514333,106.938391 C89.1491949,106.663939 89.0458372,106.336348 89.0458372,106.005642 C89.0458372,105.958537 89.0686109,105.91299 89.0732824,105.865107 C88.1381973,106.006421 86.9995112,106.106664 85.7216524,106.055861 C85.535375,106.047491 85.3627229,105.982868 85.1939638,105.913769 C84.6010684,106.939949 83.5102656,107.995131 81.7239882,108.581214 C80.6808739,109.741116 77.2264701,112.835034 69.8649131,112.835034 C69.5869569,112.841262 62.247979,112.949097 58.5163976,109.32535 C57.0956677,107.947248 56.3649621,106.231433 56.3367383,104.230654 C56.3367383,104.155326 56.3359597,103.352795 56.3351811,102.63591 C55.3654487,101.843696 53.6792201,100.224426 52.982967,98.0624793 C52.9319695,97.9044258 52.9070546,97.7418954 52.9070546,97.5797543 C52.9070546,97.3358613 53.0209232,97.1122117 53.1305096,96.8918711 C52.7024804,96.2275402 52.343551,95.4559587 52.3042323,94.6660804 C52.3026751,94.6401923 52.3018965,94.6144989 52.3018965,94.5876375 C52.3018965,94.4928444 52.3110449,94.3968833 52.3277846,94.3028687 C52.3513369,94.1749855 52.4523588,93.7675889 52.7139646,93.3115305 C52.4021398,92.6978079 52.1132834,91.906567 52.1132834,91.0559588 C52.1132834,90.9821875 52.149877,90.9054965 52.1543539,90.8309466 C51.4656921,89.9065671 50.357371,88.0449613 50.357371,85.5622363 C50.357371,85.4876864 50.3709963,85.4055453 50.3741107,85.3294383 C49.1745,84.228903 46.898685,81.6266646 46.898685,77.7171757 C46.898685,77.4411659 46.9097798,77.1599007 46.9335268,76.8718229 C46.9555219,76.6026258 47.0588796,76.3480273 47.2116777,76.1253509 C46.2098285,75.0699738 44.7106558,73.1986356 44.1847191,70.9469569 C43.6023347,69.8111905 43.3856923,68.5699253 43.9375171,67.3269083 C43.8874928,67.2661784 43.8364953,67.2099253 43.7870549,67.1476382 C42.8399016,66.2810689 38.2263737,61.581507 42.382286,55.6862273 C42.1457897,55.4925534 41.9026754,55.2745485 41.6570306,55.0409719 C40.6421401,54.3211665 38.9598044,52.9169816 38.3655465,51.1708016 L39.2768847,51.1291471 C39.2852545,50.8313369 39.3726511,50.5362518 39.5453031,50.2822372 C39.7481255,49.9842323 40.0583932,49.8041837 40.3982472,49.7058868 C39.4259844,47.584427 37.7397557,43.3317751 38.0295854,39.8616048 C38.0295854,39.8616048 38.6991718,40.6752301 39.7527971,41.8092447 C39.8349382,41.7646705 39.9110452,41.7126997 40.0013615,41.6815561 C40.5934783,41.4785391 41.2504126,41.6449625 41.6737702,42.106471 C41.6928457,42.1271036 43.3325537,43.8769819 46.1960086,45.641848 C46.9455949,43.602724 48.4949866,40.6440866 51.4450595,39.5904613 C51.9528941,39.4094394 52.5115315,39.5182472 52.9327481,39.8419455 C53.8220911,38.826471 55.1768356,37.6116779 56.3285631,37.9680769 C56.3018964,37.8631621 56.2843782,37.7590258 56.2843782,37.654111 C56.2843782,37.5423835 56.2974195,37.4290988 56.3170789,37.3113373 C56.3201932,37.2967387 56.33304,37.2142083 56.33304,37.0763981 C56.33304,36.5800477 56.1635022,35.378296 54.7163003,34.1938678 C54.3406312,33.8859359 54.1376142,33.4335758 54.1376142,32.9732352 C54.1376142,32.7365442 54.1909476,32.4984907 54.3011179,32.2752303 C54.6257894,31.6175175 55.3617504,31.2708508 56.0755217,31.439026 C56.5489037,31.5507535 57.1427723,31.7985394 57.7485144,32.1724566 C57.8094389,32.072408 57.855765,31.9643788 57.9394633,31.8783447 C58.3223343,31.4814591 58.8850594,31.3142571 59.4224803,31.435717 C59.4224803,31.435717 59.6982953,31.4989773 59.8170301,31.5254493 C59.8672491,30.9843301 59.921945,30.3865686 59.921945,30.3865686 C60.0001931,29.5301209 60.7519206,28.8945978 61.6103148,28.959026 L63.2225775,29.0808752 C63.5122125,29.1028703 63.7903634,29.2048654 64.0268597,29.3759603 C64.0268597,29.3759603 64.887395,29.9976635 65.7479302,30.6195613 C65.1966894,28.9917268 64.0282222,25.540632 64.0282222,25.540632 C63.9719692,25.3755711 63.9447186,25.2054495 63.9447186,25.0351332 C63.9447186,24.7721648 64.0108986,24.5107536 64.1401444,24.2756198 L65.0364947,22.6468121 C65.2864217,22.1913376 65.7455945,21.8886613 66.2625774,21.8378583 C66.7795604,21.7870554 67.2887574,21.9945493 67.623356,22.3920189 C67.623356,22.3920189 68.6950834,23.6661795 69.7510445,24.9218485 C69.7919204,24.5625298 69.8034046,24.2201454 69.9077355,23.8211186 C70.0671515,23.214598 70.5742075,22.7653522 71.1937695,22.6688072 C71.8141101,22.5730408 72.4350347,22.8589775 72.771969,23.3886126 C72.9323583,23.6426271 73.7276867,24.7326514 74.8198521,24.5290505 C75.0479787,24.0881746 75.2036964,23.7860821 75.4948886,23.2247196 C74.7157159,22.1623352 72.84866,19.6165445 72.84866,19.6165445 C72.645059,19.3391917 72.5438425,19.0115616 72.5438425,18.6846127 C72.5438425,18.3501309 72.6495359,18.0155908 72.8617013,17.7344813 C73.2805821,17.1796005 74.0147913,16.9644959 74.6670541,17.2060531 C74.6670541,17.2060531 75.9684653,17.6879606 77.2570297,18.1652939 C77.234256,17.7337222 77.2029178,17.1384521 77.2029178,17.1384521 C77.2015552,17.1110847 77.2007767,17.0830361 77.2007767,17.0555713 C77.2007767,16.5037271 77.4904117,15.9891188 77.9678813,15.7031626 C78.4687085,15.4038147 79.0950832,15.4053329 79.5939639,15.7076395 C79.5939639,15.7076395 79.7594141,15.8082332 79.7938666,15.829294 C80.3114335,13.0425106 81.346762,7.47560079 81.346762,7.47560079 C81.3703143,7.35028692 81.4082705,7.22878814 81.4608252,7.11320663 L82.7151318,4.34534296 C83.0236476,3.66347436 83.7701196,3.29249627 84.5000465,3.45833568 C84.5000465,3.45833568 85.1978568,3.61716779 85.7960076,3.75297314 C85.7313847,3.36465198 85.6402898,2.80914835 85.6402898,2.80914835 C85.6264699,2.72369823 85.6188786,2.63807293 85.6188786,2.55299264 C85.6188786,2.18203401 85.7504601,1.82017903 85.9937691,1.53345592 C86.2933312,1.17997272 86.7326499,0.976961533 87.1955209,0.976961533 L88.0910927,0.976961533 C88.2172241,0.976961533 88.3106547,1.06371579 88.4293895,1.09238148 C88.541117,0.756615066 88.7219443,0.446320183 89.0359102,0.245666174 C89.6198518,-0.124923987 90.377808,-0.071852261 90.9053019,0.376443786 C90.9053019,0.376443786 91.963404,1.27805739 92.8132337,2.00175177 C94.1452045,1.1486462 96.6080754,0.0101125253 100.316494,0.0101125253 C104.024718,0.0101125253 106.487783,1.1486462 107.820922,2.00175177 C108.669389,1.27805739 109.72827,0.376443786 109.72827,0.376443786 C110.254985,-0.071852261 111.012941,-0.124923987 111.596688,0.245666174 C111.910849,0.446320183 112.09226,0.756615066 112.203987,1.09238148 C112.322917,1.06371579 112.416348,0.976961533 112.542479,0.976961533 L113.437077,0.976961533 C113.900143,0.976961533 114.339462,1.17997272 114.638829,1.53345592 C114.882917,1.82017903 115.01372,2.18203401 115.01372,2.55299264 C115.01372,2.63807293 115.006907,2.72369823 114.992503,2.80914835 C114.992503,2.80914835 114.901214,3.36465198 114.837564,3.75297314 C115.435715,3.61716779 116.133525,3.45833568 116.133525,3.45833568 C116.864036,3.29249627 117.609924,3.66347436 117.91844,4.34534296 L119.172746,7.11320663 C119.225301,7.22878814 119.263257,7.35028692 119.285836,7.47560079 C119.285836,7.47560079 120.32136,13.0425106 120.8399,15.829294 C120.873184,15.8082332 121.039802,15.7076395 121.039802,15.7076395 C121.539267,15.4053329 122.164863,15.4038147 122.665496,15.7031626 C123.14316,15.9891188 123.4326,16.5037271 123.4326,17.0555713 C123.4326,17.0830361 123.431822,17.1110847 123.430459,17.1384521 C123.430459,17.1384521 123.399121,17.7337222 123.377515,18.1652939 C124.664912,17.6879606 125.966323,17.2060531 125.966323,17.2060531 C126.618586,16.9644959 127.35299,17.1796005 127.77187,17.7344813 C127.984036,18.0155908 128.090508,18.3501309 128.090508,18.6846127 C128.090508,19.0115616 127.988318,19.3391917 127.784717,19.6165445 C127.784717,19.6165445 125.917661,22.1623352 125.138683,23.2247196 C125.429875,23.7860821 125.585398,24.0881746 125.813719,24.5290505 C126.90608,24.7326514 127.701213,23.6426271 127.862381,23.3886126 C128.197564,22.8589775 128.819461,22.5730408 129.439607,22.6688072 C130.059364,22.7653522 130.567004,23.214598 130.725058,23.8211186 C130.830167,24.2201454 130.841457,24.5625298 130.881749,24.9218485 C131.938294,23.6661795 133.010216,22.3920189 133.010216,22.3920189 C133.34462,21.9945493 133.853233,21.7870554 134.370994,21.8378583 C134.888561,21.8886613 135.346955,22.1921162 135.59805,22.6475907 L136.493233,24.2756198 C136.622673,24.5107536 136.68788,24.7721648 136.68788,25.0351332 C136.68788,25.2054495 136.660629,25.3755711 136.604376,25.540632 C136.604376,25.540632 135.436882,28.9917268 134.886615,30.6187827 C135.746371,29.9976635 136.606712,29.3759603 136.606712,29.3759603 C136.842235,29.2048654 137.121359,29.1028703 137.410799,29.0808752 L139.023257,28.959026 C139.880678,28.8945978 140.633378,29.5301209 140.711432,30.3865686 C140.711432,30.3865686 140.766323,30.9843301 140.815958,31.5254493 C140.934303,31.4989773 141.210313,31.435717 141.210313,31.435717 C141.748707,31.3142571 142.311043,31.4800965 142.69333,31.8783447 C142.777223,31.9643788 142.824133,32.072408 142.884279,32.1724566 C143.490994,31.7985394 144.083889,31.5507535 144.557466,31.439026 C145.271237,31.2708508 146.007782,31.6175175 146.332259,32.2752303 C146.442624,32.4984907 146.494984,32.7365442 146.494984,32.9732352 C146.494984,33.4335758 146.292746,33.8859359 145.917466,34.1938678 C144.469291,35.3775174 144.300532,36.5800477 144.300532,37.0763981 C144.300532,37.2142083 144.313962,37.2967387 144.315714,37.3113373 C144.336152,37.4290988 144.34822,37.5423835 144.34822,37.654111 C144.34822,37.7987338 144.327004,37.9416049 144.272892,38.0873956 C144.272892,38.0873956 144.222867,38.2236487 144.158829,38.3961061 C145.318147,37.9112399 146.692551,38.963892 147.610118,39.8913859 C148.038926,39.5250598 148.632016,39.399707 149.165738,39.5904613 C152.115033,40.6440866 153.665203,43.602724 154.414789,45.641848 C157.278244,43.8769819 158.917952,42.1271036 158.936833,42.106471 C159.237952,41.7796583 159.657417,41.609342 160.086225,41.6054491 C161.348901,39.933819 162.167587,38.6211183 162.167587,38.6211183 C162.289436,40.0729917 162.061894,41.776544 161.687393,43.4489527" id="path36" fill="#231F20"></path>
                        <path d="M102.186664,96.3583431 L102.857808,95.2589757 L105.678829,97.2142068 L107.425593,96.2366886 L109.978391,97.7021873 L111.859073,95.6253017 C114.277175,96.6030146 115.217515,97.3358613 115.217515,97.3358613 C115.352017,96.3583431 115.083598,95.5038419 115.083598,95.5038419 C118.038537,95.9918224 118.978878,96.8469076 118.978878,96.8469076 C119.24788,95.0158614 118.038537,94.0381485 118.038537,94.0381485 C119.6508,93.916494 121.263257,95.0158614 121.263257,95.0158614 C120.725836,93.550168 120.188221,92.8173213 120.188221,92.8173213 C121.531481,92.6948882 123.009437,93.550168 123.009437,93.550168 L122.741019,91.5957155 L124.756201,92.9389758 L125.831043,90.007589 C124.353087,88.9084163 125.428318,88.5420902 125.428318,88.5420902 L127.039802,88.9084163 L128.786761,87.3210684 L125.831043,87.4429175 L124.6217,86.2218957 C123.368172,89.5196085 119.6508,87.1986353 119.6508,87.1986353 C119.24788,89.8450586 116.560776,87.687589 116.560776,87.687589 L115.217515,88.9084163 L114.142479,87.3210684 L113.336834,88.6645233 C112.664912,87.9316766 110.515812,86.4659832 110.515812,86.4659832 L110.784231,88.0541097 L109.575277,87.9316766 C108.634353,86.5884163 107.022674,85.7331365 107.022674,85.7331365 L106.888367,88.4204357 C105.813915,86.7100708 103.664231,85.4892436 103.664231,85.4892436 C101.380046,83.7796573 102.589389,81.3370296 102.589389,81.3370296 C102.589389,81.3370296 102.186664,80.1154238 101.782771,80.8482705 C101.380046,81.5811172 101.514353,82.0698763 101.514353,82.0698763 C101.514353,82.0698763 101.114742,80.8597547 100.316494,79.523307 L100.316494,79.5052048 C100.314937,79.5081245 100.313185,79.5110442 100.310849,79.5141586 C100.308513,79.5110442 100.306956,79.5081245 100.305594,79.5052048 L100.305594,79.523307 C99.5073454,80.8597547 99.1077347,82.0698763 99.1077347,82.0698763 C99.1077347,82.0698763 99.2414574,81.5811172 98.8385377,80.8482705 C98.435618,80.1154238 98.0326983,81.3370296 98.0326983,81.3370296 C98.0326983,81.3370296 99.2414574,83.7796573 96.9578565,85.4892436 C96.9578565,85.4892436 94.8079782,86.7100708 93.7339149,88.4204357 L93.5994137,85.7331365 C93.5994137,85.7331365 91.9869563,86.5884163 91.0468104,87.9316766 L89.8380513,88.0541097 L90.1062751,86.4659832 C90.1062751,86.4659832 87.9571754,87.9316766 87.2852533,88.6645233 L86.4794139,87.3210684 L85.4045721,88.9084163 L84.0605332,87.687589 C84.0605332,87.687589 81.3742072,89.8450586 80.9712875,87.1986353 C80.9712875,87.1986353 77.2539153,89.5196085 76.0003874,86.2218957 L74.7910444,87.4429175 L71.8362999,87.3210684 L73.5822853,88.9084163 L75.1939641,88.5420902 C75.1939641,88.5420902 76.2688059,88.9084163 74.7910444,90.007589 L75.8658862,92.9389758 L77.8810686,91.5957155 L77.6118715,93.550168 C77.6118715,93.550168 79.0896331,92.6948882 80.4338666,92.8173213 C80.4338666,92.8173213 79.8964457,93.550168 79.3588301,95.0158614 C79.3588301,95.0158614 80.9712875,93.916494 82.5827717,94.0381485 C82.5827717,94.0381485 81.3742072,95.0158614 81.6432096,96.8469076 C81.6432096,96.8469076 82.5827717,95.9918224 85.5384893,95.5038419 C85.5384893,95.5038419 85.2700709,96.3583431 85.4045721,97.3358613 C85.4045721,97.3358613 86.3449127,96.6030146 88.7630148,95.6253017 L90.6438907,97.7021873 L93.196494,96.2366886 L94.943258,97.2142068 L97.7635012,95.2589757 L98.435618,96.3583431 L100.310849,94.896348 L102.186664,96.3583431 Z M120.871822,101.122333 C120.871822,101.122333 121.677467,100.022966 123.020727,99.2903138 C123.020727,99.2903138 123.82715,102.34316 125.169827,103.442333 C125.169827,103.442333 125.438829,102.465594 125.97625,101.732552 C125.97625,101.732552 127.454011,104.297613 130.543452,105.15192 C130.543452,105.15192 130.543452,104.17518 130.812454,103.564766 C130.812454,103.564766 133.230751,104.419073 133.633671,104.907832 C133.633671,104.907832 133.768172,102.83192 136.320775,102.587248 C136.320775,102.587248 135.917077,101.122333 135.380629,100.755813 C135.380629,100.755813 136.992113,100.267053 138.201456,101.366226 C138.201456,101.366226 139.410994,96.3583431 135.380629,93.7940609 L134.57479,95.7485134 L131.887296,92.8173213 C131.887296,92.8173213 132.155714,91.3510439 134.172065,91.1069564 C134.172065,91.1069564 131.215568,89.641263 127.72243,93.3053018 L127.319705,95.2589757 L125.97625,94.526129 L125.707247,96.7246691 L123.961262,95.8701679 L122.349583,96.8469076 C122.349583,96.8469076 122.376055,96.829584 122.415569,96.8036959 C122.429973,96.7945475 122.441262,96.7877348 122.454304,96.7785864 C122.504522,96.7466642 122.565447,96.7071509 122.633768,96.6621874 C122.761651,96.5792677 122.858975,96.5163966 122.937807,96.4646205 C122.988999,96.4321144 123.033574,96.4023334 123.072308,96.3772239 C123.236591,96.2707519 123.197077,96.2966399 123.072308,96.3772239 C123.037467,96.3999976 122.992503,96.4297786 122.937807,96.4646205 C122.842235,96.5269076 122.732649,96.5975645 122.633768,96.6621874 C122.58063,96.6964453 122.516591,96.7382944 122.454304,96.7785864 C122.440484,96.7877348 122.427053,96.7961046 122.415569,96.8036959 C122.392016,96.8196569 122.374498,96.8309465 122.349583,96.8469076 C120.468707,98.068708 120.602625,99.1678807 120.871822,101.122333 Z M139.679218,95.6253017 C139.679218,95.6253017 140.88895,94.1605816 142.634741,94.2830147 L140.081943,93.0614089 L140.88895,91.8398031 L139.544717,90.8628688 C139.544717,90.8628688 141.425203,89.8861291 141.560094,89.1530878 C141.560094,89.1530878 139.544717,89.0308494 138.336152,87.8092435 C138.336152,87.8092435 136.858196,87.1986353 135.648853,88.4204357 C135.648853,88.4204357 135.380629,88.7867618 133.499948,89.1530878 C133.499948,89.1530878 135.917077,90.2524552 136.992113,90.3741097 L135.582089,91.2291948 C136.791432,91.5957155 137.530118,92.8173213 138.336152,95.0158614 L139.679218,95.6253017 Z M143.306079,81.5811172 L143.03805,80.6043775 C143.03805,80.6043775 141.425203,83.4131366 140.081943,84.1459833 L139.141992,85.9772241 C139.141992,85.9772241 140.485836,87.1986353 141.291675,87.4429175 L140.619559,85.8555696 L143.172357,83.9018957 L142.097515,83.2907035 L143.306079,81.5811172 Z M130.275228,76.3299251 C131.887296,75.8409713 133.096834,78.2834044 132.827831,76.573818 C132.558634,74.8642317 130.409729,74.6201441 130.409729,74.6201441 L128.797077,73.6424312 L131.484571,73.7648643 L130.409729,72.7881247 L133.230751,72.9095846 L134.036396,73.5209714 L134.440289,72.665497 L136.052551,74.1308011 L137.933233,74.0089519 L135.783549,71.688952 L138.067539,71.688952 L136.455276,70.2232586 L137.664035,68.7575652 L135.111237,68.3910445 C134.036396,66.5592197 133.230751,66.1928937 130.946955,66.3143536 L132.29041,67.0470056 L131.35007,68.2690007 L132.694109,68.1471516 L132.424912,69.3679788 L135.514157,69.246519 C135.514157,70.1008255 133.096834,70.8336722 133.096834,70.8336722 L133.096834,71.9328449 C130.678148,69.8567379 128.260824,71.5665189 128.260824,71.5665189 C127.454011,72.2993656 127.051092,72.9095846 124.498294,72.9095846 C125.169827,73.8874921 125.573525,75.9634044 125.573525,75.9634044 L126.379364,75.1081246 L126.513865,76.451385 L127.991627,76.3299251 L127.991627,74.9864701 C130.275228,74.9864701 130.275228,76.3299251 130.275228,76.3299251 L130.275228,76.3299251 Z M137.843306,49.5015073 C137.843306,49.5015073 135.75007,49.8275413 135.077953,50.8044756 C134.406031,51.7812153 134.943257,48.2396095 134.943257,48.2396095 L132.525349,47.1404368 L132.391238,44.8204368 C132.391238,44.8204368 131.31659,42.0114831 127.958148,40.1794637 L127.555228,38.3474443 L126.211189,39.446617 C126.211189,39.446617 123.524668,37.1258385 124.196785,35.537712 L121.105788,36.6370794 L121.241262,34.4387339 L119.628221,34.80506 L119.762333,33.2175174 C119.762333,33.2175174 118.822381,32.6067145 117.881846,32.7299262 C117.881846,32.7299262 118.687686,29.6761063 112.239024,25.4016539 C112.239024,25.4016539 115.463744,27.8440869 114.120678,36.0264711 C114.120678,36.0264711 113.31406,44.4531376 113.985983,48.1173711 C113.985983,48.1173711 113.7199,51.2675413 113.475228,54.1524074 C113.306275,54.7575655 113.213622,55.3997066 113.324571,55.9342078 C113.320873,55.9739159 113.317175,56.0161543 113.31406,56.0556677 L113.342868,56.0694876 C113.294401,56.2133319 112.586469,58.1317747 110.257905,58.1317747 C110.257905,58.1317747 108.511141,56.9111421 106.764961,58.3766409 C106.764961,58.3766409 107.571579,59.4760082 106.227735,60.3301201 C106.227735,60.3301201 104.884474,61.307833 106.764961,61.5519206 C108.377418,61.6735751 109.988902,62.0404851 111.735861,64.2390252 C111.735861,64.2390252 113.885545,68.0249131 115.363501,68.0249131 C116.841457,68.0249131 115.900338,67.1696334 117.244182,67.536154 C117.244182,67.536154 117.244182,66.8033073 116.438343,66.5592197 C116.438343,66.5592197 116.572065,65.8263731 118.855666,66.4367867 C118.855666,66.4367867 121.408269,66.6806796 122.617807,65.8263731 C122.617807,65.8263731 124.095569,64.2390252 123.961262,63.6280276 C123.961262,63.6280276 121.005544,65.0935264 119.527588,64.7272003 C119.527588,64.7272003 116.572065,66.0706553 114.557661,65.2151809 C114.557661,65.2151809 112.407004,65.7041346 112.542479,64.4823342 L113.482625,64.2390252 C113.482625,64.2390252 112.407004,63.0166408 111.602138,62.4070057 C111.602138,62.4070057 113.348124,63.3831614 115.094498,63.2617016 L114.42316,62.5288549 C114.42316,62.5288549 115.631725,62.8951809 116.169146,62.5288549 C116.169146,62.5288549 117.781603,62.1623342 118.319024,62.4070057 L118.721944,61.7962028 C118.721944,61.7962028 119.662284,62.6503147 119.393866,63.6280276 C119.393866,63.6280276 119.930508,62.6503147 121.677467,62.0404851 C121.677467,62.0404851 121.694985,62.0223829 121.718537,61.997468 C122.063647,61.8051566 123.656834,61.0129425 125.674352,61.5519206 L127.689145,62.7733318 C127.689145,62.7733318 125.539267,63.6280276 125.405544,64.6053512 C125.405544,64.6053512 129.435909,63.9534777 130.957856,63.9534777 C130.957856,63.9534777 129.883598,65.0121638 129.704328,65.3376139 C129.704328,65.3376139 132.570118,64.5234047 133.555228,64.5234047 L134.361651,66.1518232 L135.705106,65.5815069 L136.555909,67.4143049 C136.555909,67.4143049 138.033476,65.2151809 136.690216,63.8726991 C136.690216,63.8726991 138.168172,63.0166408 136.555909,60.2086603 L137.361554,59.4760082 L136.824133,58.6205338 C136.824133,58.6205338 135.077953,58.9872491 133.46569,58.1317747 C133.46569,58.1317747 137.764473,58.0101202 137.899559,55.9336239 C137.899559,55.9336239 136.018293,56.1782954 135.346177,55.6895363 C135.346177,55.6895363 137.361554,54.1021884 137.361554,53.2469086 C137.361554,52.3926021 134.664522,52.1477359 138.694108,50.2754245 L138.783646,48.7283686 C138.336152,49.2986849 137.843306,49.5015073 137.843306,49.5015073 L137.843306,49.5015073 Z M108.781895,22.0757172 C108.863842,21.3938681 108.867735,20.5516297 108.840289,19.7594156 C109.218294,19.6387343 109.697126,19.2813231 109.830849,18.2541893 C109.828318,18.2666467 109.829486,18.2785202 109.827151,18.2915811 L109.836104,18.2329728 C109.835326,18.2423158 109.831433,18.2460531 109.830849,18.2541893 C109.879511,17.9663256 109.904425,17.6798244 109.904425,17.4000969 C109.904425,16.4056444 109.631725,15.4904132 109.337418,14.784058 C109.56243,12.3789583 108.657126,10.2468124 108.657126,10.2468124 C106.686907,7.07215554 103.73119,8.21160077 103.73119,8.21160077 C101.330411,8.53566889 101.928757,8.37644748 100.316494,8.37956183 L100.316494,8.37956183 C100.31007,8.37956183 100.305594,8.37956183 100.29956,8.37956183 C100.293525,8.37956183 100.288854,8.37956183 100.28282,8.37956183 L100.28282,8.37956183 C98.6711411,8.37644748 99.2694866,8.53566889 96.8681241,8.21160077 C96.8681241,8.21160077 93.9126011,7.07215554 91.9421875,10.2468124 C91.9421875,10.2468124 91.0253992,12.4102771 91.2687082,14.836749 C90.897516,15.7389777 90.5724552,16.9695178 90.7972727,18.2338098 C90.9218469,19.2508414 91.3833554,19.6173231 91.7596084,19.7489046 C91.7315792,20.5442331 91.7354722,21.3907537 91.8176133,22.0757172 C89.5118226,23.5215566 89.0762022,24.9537707 89.0762022,24.9537707 C93.0170293,22.2666661 96.1520171,22.1041357 96.1520171,22.1041357 C98.0326983,21.981508 97.4950827,22.9590262 97.4950827,22.9590262 C95.3461777,22.9590262 94.4050585,24.1802427 94.4050585,24.1802427 C97.0923577,23.813722 95.2116765,26.3785881 95.2116765,26.3785881 C93.4647179,27.5999993 91.5840366,30.6117754 91.5840366,30.6117754 C89.3004357,35.3751816 92.3449125,38.7943543 92.3449125,38.7943543 C93.5544502,40.6265683 95.88282,39.3642813 95.88282,39.3642813 C96.9539635,38.8780526 98.8239391,38.4727971 100.29956,38.4698774 C101.77518,38.4727971 103.645156,38.8780526 104.716494,39.3642813 C104.716494,39.3642813 107.045447,40.6265683 108.254012,38.7943543 C108.254012,38.7943543 111.299462,35.3751816 109.015861,30.6117754 C109.015861,30.6117754 107.134401,27.5999993 105.388221,26.3785881 C105.388221,26.3785881 103.506956,23.813722 106.194255,24.1802427 C106.194255,24.1802427 105.253915,22.9590262 103.104036,22.9590262 C103.104036,22.9590262 102.566615,21.981508 104.447491,22.1041357 C104.447491,22.1041357 107.582284,22.2666661 111.522917,24.9537707 C111.522917,24.9537707 111.087491,23.5215566 108.781895,22.0757172 Z M87.2852533,56.0556677 C87.4510927,55.4545972 87.3202898,54.6898283 87.1110441,53.9949378 C86.8702655,51.1542566 86.6133312,48.1173711 86.6133312,48.1173711 C87.2852533,44.4531376 86.4794139,36.0264711 86.4794139,36.0264711 C85.1355696,27.8440869 88.3600951,25.4016539 88.3600951,25.4016539 C81.9116281,29.6761063 82.7172729,32.7299262 82.7172729,32.7299262 C81.7771269,32.6067145 80.8365917,33.2175174 80.8365917,33.2175174 L80.9712875,34.80506 L79.3588301,34.4387339 L79.4933313,36.6370794 L76.4033071,35.537712 C77.0754239,37.1258385 74.3881247,39.446617 74.3881247,39.446617 L73.0448644,38.3474443 L72.6419447,40.1794637 C69.2827233,42.0114831 68.2086601,44.8204368 68.2086601,44.8204368 L68.0741589,47.1404368 L65.6558621,48.2396095 C65.6558621,48.2396095 66.193283,51.7812153 65.5213609,50.8044756 C64.8502174,49.8275413 63.9098767,49.8275413 63.9098767,49.8275413 C63.9098767,49.8275413 62.9687575,49.5427725 62.9687575,49.0540134 L63.23776,51.1708016 C65.2529424,52.7589281 63.23776,52.3926021 63.23776,53.2469086 C63.23776,54.1021884 65.2529424,55.6895363 65.2529424,55.6895363 C64.5810203,56.1782954 62.7003391,55.9336239 62.7003391,55.9336239 C62.8348403,58.0101202 67.1338183,58.1317747 67.1338183,58.1317747 C65.5213609,58.9872491 63.7751809,58.6205338 63.7751809,58.6205338 L63.23776,59.4760082 L64.0435994,60.2086603 C62.4319206,63.0166408 63.9098767,63.8726991 63.9098767,63.8726991 C62.5658379,65.2151809 64.0435994,67.4143049 64.0435994,67.4143049 L64.8949862,65.5815069 L66.2382465,66.1518232 L67.0440859,64.5234047 C68.0291954,64.5234047 70.8957647,65.3376139 70.8957647,65.3376139 C70.7164946,65.0121638 69.6414581,63.9534777 69.6414581,63.9534777 C71.1641831,63.9534777 75.1939641,64.6053512 75.1939641,64.6053512 C75.0600468,63.6280276 72.9103631,62.7733318 72.9103631,62.7733318 L74.9255456,61.5519206 C77.2091465,60.941507 78.9559104,62.0404851 78.9559104,62.0404851 C80.7022851,62.6503147 81.2395114,63.6280276 81.2395114,63.6280276 C80.9712875,62.6503147 81.9116281,61.7962028 81.9116281,61.7962028 L82.3143532,62.4070057 C82.8517741,62.1623342 84.4642315,62.5288549 84.4642315,62.5288549 C85.0016524,62.8951809 86.2104115,62.5288549 86.2104115,62.5288549 L85.5384893,63.2617016 C87.2852533,63.3831614 89.0320172,62.4070057 89.0320172,62.4070057 C88.2255939,63.0166408 87.1515307,64.2390252 87.1515307,64.2390252 L88.0910927,64.4823342 C88.2255939,65.7041346 86.0764942,65.2151809 86.0764942,65.2151809 C84.0605332,66.0706553 81.1050101,64.7272003 81.1050101,64.7272003 C79.6272486,65.0935264 76.6717256,63.6280276 76.6717256,63.6280276 C76.5378083,64.2390252 78.0155698,65.8263731 78.0155698,65.8263731 C79.2243289,66.6806796 81.7771269,66.4367867 81.7771269,66.4367867 C84.0605332,65.8263731 84.195813,66.5592197 84.195813,66.5592197 C83.3893896,66.8033073 83.3893896,67.536154 83.3893896,67.536154 C84.7326499,67.1696334 83.7923093,68.0249131 85.2700709,68.0249131 C86.7478324,68.0249131 88.8977107,64.2390252 88.8977107,64.2390252 C90.6438907,62.0404851 92.2559588,61.6735751 93.8676376,61.5519206 C95.6145961,61.307833 94.4050585,60.3301201 94.4050585,60.3301201 C93.0617982,59.4760082 93.8676376,58.3766409 93.8676376,58.3766409 C92.1216522,56.9111421 90.3746936,58.1317747 90.3746936,58.1317747 C87.9571754,58.1317747 87.2852533,56.0556677 87.2852533,56.0556677 L87.2852533,56.0556677 Z M62.7003391,74.0089519 L64.5810203,74.1308011 L66.193283,72.665497 L66.5963974,73.5209714 L67.4020421,72.9095846 L70.2238425,72.7881247 L69.1488061,73.7648643 L71.8362999,73.6424312 L70.2238425,74.6201441 C70.2238425,74.6201441 68.0741589,74.8642317 67.8049618,76.573818 C67.5365433,78.2834044 68.746081,75.8409713 70.3577598,76.3299251 C70.3577598,76.3299251 70.3577598,74.9864701 72.6419447,74.9864701 L72.6419447,76.3299251 L74.1197062,76.451385 L74.2542074,75.1081246 L75.0600468,75.9634044 C75.0600468,75.9634044 75.4631611,73.8874921 76.1348886,72.9095846 C73.5822853,72.9095846 73.1793656,72.2993656 72.3735262,71.5665189 C72.3735262,71.5665189 69.9556187,69.8567379 67.5365433,71.9328449 L67.5365433,70.8336722 C67.5365433,70.8336722 65.1186358,70.1008255 65.1186358,69.246519 L68.2086601,69.3679788 L67.9402416,68.1471516 L69.2827233,68.2690007 L68.3431613,67.0470056 L69.6864216,66.3143536 C67.4020421,66.1928937 66.5963974,66.5592197 65.5213609,68.3910445 L62.9687575,68.7575652 L64.1781006,70.2232586 L62.5658379,71.688952 L64.8502174,71.688952 L62.7003391,74.0089519 Z M59.0726993,89.1530878 C59.2073951,89.8861291 61.0878817,90.8628688 61.0878817,90.8628688 L59.744816,91.8398031 L60.5504608,93.0614089 L57.998636,94.2830147 C59.744816,94.1605816 60.9541591,95.6253017 60.9541591,95.6253017 L62.2974194,95.0158614 C63.1032588,92.8173213 63.8421395,91.5957155 65.0516772,91.2291948 L63.6406797,90.3741097 C64.7155215,90.2524552 67.1338183,89.1530878 67.1338183,89.1530878 C65.2529424,88.7867618 64.9847186,88.4204357 64.9847186,88.4204357 C63.7751809,87.1986353 62.2974194,87.8092435 62.2974194,87.8092435 C61.0878817,89.0308494 59.0726993,89.1530878 59.0726993,89.1530878 L59.0726993,89.1530878 Z M60.5504608,84.1459833 C59.2073951,83.4131366 57.5949377,80.6043775 57.5949377,80.6043775 L57.3265192,81.5811172 L58.5360569,83.2907035 L57.4612151,83.9018957 L60.0132345,85.8555696 L59.3418963,87.4429175 C60.1475411,87.1986353 61.490996,85.9772241 61.490996,85.9772241 L60.5504608,84.1459833 Z M62.4319206,101.366226 C63.6406797,100.267053 65.2529424,100.755813 65.2529424,100.755813 C64.7155215,101.122333 64.3126018,102.587248 64.3126018,102.587248 C66.8653998,102.83192 66.9991224,104.907832 66.9991224,104.907832 C67.4020421,104.419073 69.8209228,103.564766 69.8209228,103.564766 C70.0893413,104.17518 70.0893413,105.15192 70.0893413,105.15192 C73.1793656,104.297613 74.6571271,101.732552 74.6571271,101.732552 C75.1939641,102.465594 75.4631611,103.442333 75.4631611,103.442333 C76.8062268,102.34316 77.6118715,99.2903138 77.6118715,99.2903138 C78.9559104,100.022966 79.7625284,101.122333 79.7625284,101.122333 C80.0309469,99.1678807 80.1654481,98.068708 78.2847669,96.8469076 C78.2680272,96.8363966 78.2573216,96.8288054 78.2407766,96.8188784 C78.13411,96.7497786 77.8423338,96.5598029 77.6424311,96.4297786 C77.6118715,96.4099246 77.5838423,96.3916278 77.5618472,96.3772239 C77.4370784,96.2966399 77.396981,96.2707519 77.5618472,96.3772239 C77.5861781,96.3931849 77.6126501,96.4107032 77.6424311,96.4297786 C77.7664214,96.5101679 77.9571757,96.6341582 78.2407766,96.8188784 C78.2664701,96.8348394 78.2847669,96.8469076 78.2847669,96.8469076 L76.6717256,95.8701679 L74.9255456,96.7246691 L74.6571271,94.526129 L73.3132828,95.2589757 L72.9103631,93.3053018 C69.4180031,89.641263 66.4624801,91.1069564 66.4624801,91.1069564 C68.4768839,91.3510439 68.746081,92.8173213 68.746081,92.8173213 L66.0587818,95.7485134 L65.2529424,93.7940609 C61.2225775,96.3583431 62.4319206,101.366226 62.4319206,101.366226 L62.4319206,101.366226 Z M100.294304,102.220727 C99.6229659,103.198246 98.6818467,103.442333 97.4732822,103.686421 C97.4732822,103.686421 97.8762019,101.732552 97.8762019,101.243793 C97.8762019,101.243793 95.1894867,104.297613 92.233185,104.419073 C92.233185,104.419073 93.039803,102.40389 92.770606,101.915131 C92.770606,101.915131 91.0246206,102.587248 87.531482,102.953574 L88.0690976,101.854401 C88.0690976,101.854401 85.7847181,102.83192 83.5011171,102.83192 C83.5011171,102.83192 83.2328933,104.419073 81.7541585,105.15192 C81.7541585,105.15192 81.6204359,103.931092 81.2175162,103.564766 C81.2175162,103.564766 80.4116768,108.327978 71.0067136,109.303939 C71.0067136,109.303939 60.7966895,109.792893 59.9910447,104.052747 C59.9910447,104.052747 59.588125,102.465594 59.7218477,101.122333 C59.7218477,101.122333 57.1700229,99.4119683 56.7671032,98.3127956 C56.7671032,98.3127956 57.8411664,98.435034 59.1852053,98.435034 C59.1852053,98.435034 57.0355217,97.4580998 55.4230643,94.6493407 C55.4230643,94.6493407 56.2296823,93.916494 56.9010205,93.916494 C56.9010205,93.916494 54.7519208,91.8398031 55.2893417,90.3741097 C55.2893417,90.3741097 52.8712396,87.1986353 53.8115802,84.0233556 C53.8115802,84.0233556 50.094208,81.7035503 49.9157165,77.4693898 C49.9157165,77.4693898 51.5272007,76.1672 50.8110936,75.3529908 C50.8110936,75.3529908 45.6169332,70.9559106 47.5871521,66.8844752 C47.5871521,66.8844752 41.8545975,60.6966408 47.0489526,55.3230156 C47.0489526,55.3230156 45.4374685,54.9977602 43.8250111,52.5551325 C43.8250111,52.5551325 45.2580037,52.8805826 48.3032591,53.3695364 C48.3032591,53.3695364 43.4670549,50.60068 42.3920184,46.6927482 C42.3920184,46.6927482 47.5871521,51.4148892 49.378101,51.7409233 C49.378101,51.7409233 48.8408747,46.0412641 52.0648162,44.5757653 C52.0648162,44.5757653 54.0646215,45.5159113 55.7126993,45.3160086 C55.1632103,45.4386363 54.7519208,45.471921 54.7519208,45.471921 C53.139658,47.5881253 55.0203393,49.0540134 55.0203393,49.0540134 L52.333624,49.7866654 L53.9453028,51.6597554 L52.1543539,51.2523588 L53.2291957,52.9619451 L50.0046703,52.3102663 L52.333624,53.8573223 C50.2736727,57.032602 51.7963977,59.4760082 51.7963977,59.4760082 C49.8259842,59.6385387 47.8555706,58.7431615 47.8555706,58.7431615 C48.7511423,60.0459352 51.1690498,60.6154729 51.1690498,60.6154729 C50.1839404,61.2667625 47.138685,60.941507 47.138685,60.941507 C48.4827238,61.7549376 50.6318236,61.9184413 50.6318236,61.9184413 C50.3634051,63.057906 51.616933,64.7682709 51.616933,64.7682709 C50.5426751,65.9890981 48.4827238,65.9890981 48.4827238,65.9890981 C48.7511423,67.2099253 50.094208,67.942772 50.094208,67.942772 C49.7362518,68.3501686 48.9304124,68.5948401 48.9304124,68.5948401 C50.0046703,70.5487087 52.423551,71.1999982 52.423551,71.1999982 C51.616933,71.7701199 50.0046703,71.6075895 50.0046703,71.6075895 C51.9748892,72.8284167 53.677079,72.5029666 53.677079,72.5029666 C53.2291957,72.8284167 52.0648162,73.2358133 52.0648162,73.2358133 C53.5873466,73.7298278 54.7388794,73.6225772 55.4154731,73.4631612 C55.8808745,73.9791709 56.3863733,74.2530395 56.3863733,74.2530395 C57.4612151,77.184037 60.4167381,76.9403387 60.4167381,76.9403387 C57.8639402,75.7185383 57.7296336,73.5209714 57.7296336,73.5209714 C55.7142565,72.421604 56.5208745,70.1008255 56.5208745,70.1008255 C55.7142565,70.2232586 52.7595121,69.1238912 52.7595121,69.1238912 C54.7739159,69.1238912 56.1179548,68.2690007 56.1179548,68.2690007 C53.6990741,68.5136723 52.0873953,67.2920664 52.0873953,67.2920664 C53.6990741,67.2920664 55.8487577,66.4367867 55.8487577,66.4367867 C52.3558138,62.1623342 56.1179548,59.8423343 56.1179548,59.8423343 C54.6401933,56.5446215 57.7296336,55.4452541 57.7296336,55.4452541 C59.744816,53.6134293 57.4612151,51.7812153 57.4612151,51.7812153 L60.1475411,51.4148892 C59.0726993,50.6822372 58.4015557,48.9724562 58.9389766,49.2165438 C59.4763975,49.4612153 60.8196578,49.8275413 60.8196578,49.8275413 L60.1475411,48.1173711 L62.1629182,47.751629 L60.5504608,44.8204368 L60.4167381,46.5300232 C57.5988307,44.075522 58.8850594,42.4609235 59.7021883,41.2772739 C60.8646213,42.6639405 61.8946943,42.6211182 61.8946943,42.6211182 C60.4167381,41.6449625 61.7599985,40.5459844 61.7599985,40.5459844 C64.7155215,42.7443298 64.4465191,41.0337703 64.4465191,41.0337703 C60.9541591,38.8354248 63.23776,37.4921645 63.23776,37.4921645 C64.8502174,38.8354248 65.6558621,37.9811183 65.6558621,37.9811183 C63.7751809,36.2705587 63.7751809,34.0722133 63.7751809,34.0722133 C65.1186358,36.0264711 67.2681248,36.7595125 67.2681248,36.7595125 C70.2238425,33.2175174 75.8658862,28.943065 75.8658862,28.943065 C74.7910444,27.2334786 77.8810686,27.9663253 77.8810686,27.9663253 C82.9864699,25.2792208 83.2548884,16.8828998 83.9268106,16.0278341 L83.2548884,14.6846128 L85.1355696,14.4399412 L84.8671512,12.4863841 L85.941409,13.4635714 L85.6729906,11.2652065 C87.0168348,12.8525739 88.4940124,13.7077953 88.4940124,13.7077953 C88.3600951,12.6078829 89.7033554,11.7531871 89.7033554,11.7531871 C88.4940124,9.67746934 89.0320172,8.45566889 89.0320172,8.45566889 C89.7033554,11.8758343 90.5091948,10.0437954 90.5091948,10.0437954 C89.7033554,9.3109876 88.8977107,7.23486113 88.8977107,7.23486113 C89.8380513,8.45566889 91.5840366,9.0660825 91.5840366,9.0660825 C94.4050585,5.89095849 98.0326983,6.74588791 100.316494,6.74588791 C102.600095,6.74588791 106.227735,5.89095849 109.048562,9.0660825 C109.048562,9.0660825 110.79552,8.45566889 111.735861,7.23486113 C111.735861,7.23486113 110.929438,9.3109876 110.123404,10.0437954 C110.123404,10.0437954 110.929438,11.8758343 111.602138,8.45566889 C111.602138,8.45566889 112.138781,9.67746934 110.929438,11.7531871 C110.929438,11.7531871 112.273282,12.6078829 112.138781,13.7077953 C112.138781,13.7077953 113.616542,12.8525739 114.960386,11.2652065 L114.691579,13.4635714 L115.766226,12.4863841 L115.497223,14.4399412 L117.37771,14.6846128 L116.706761,16.0278341 C117.37771,16.8828998 117.647102,25.2792208 122.752503,27.9663253 C122.752503,27.9663253 125.841749,27.2334786 124.766907,28.943065 C124.766907,28.943065 130.409729,33.2175174 133.365057,36.7595125 C133.365057,36.7595125 135.514157,36.0264711 136.858196,34.0722133 C136.858196,34.0722133 136.858196,36.2705587 134.97771,37.9811183 C134.97771,37.9811183 135.783549,38.8354248 137.394838,37.4921645 C137.394838,37.4921645 139.679218,38.8354248 136.186274,41.0337703 C136.186274,41.0337703 135.917077,42.7443298 138.8726,40.5459844 C138.8726,40.5459844 140.216639,41.6449625 138.739072,42.6211182 C138.739072,42.6211182 139.768366,42.6639405 140.931189,41.2772739 C141.748707,42.4609235 143.033962,44.075522 140.216639,46.5300232 L140.081943,44.8204368 L138.469875,47.751629 L140.485836,48.1173711 L139.813719,49.8275413 C139.813719,49.8275413 141.156979,49.4612153 141.694595,49.2165438 C142.231821,48.9724562 141.560094,50.6822372 140.485836,51.4148892 L143.172357,51.7812153 C143.172357,51.7812153 140.88895,53.6134293 142.903159,55.4452541 C142.903159,55.4452541 145.993184,56.5446215 144.515422,59.8423343 C144.515422,59.8423343 148.277563,62.1623342 144.783841,66.4367867 C144.783841,66.4367867 146.933524,67.2920664 148.545787,67.2920664 C148.545787,67.2920664 146.933524,68.5136723 144.515422,68.2690007 C144.515422,68.2690007 145.858877,69.1238912 147.874838,69.1238912 C147.874838,69.1238912 144.918537,70.2232586 144.112697,70.1008255 C144.112697,70.1008255 144.918537,72.421604 142.903159,73.5209714 C142.903159,73.5209714 142.769437,75.7185383 140.216639,76.9403387 C140.216639,76.9403387 143.172357,77.184037 144.246614,74.2530395 C144.246614,74.2530395 144.749583,73.9809227 145.214206,73.4670541 C145.893135,73.6241344 147.036493,73.7263242 148.545787,73.2358133 C148.545787,73.2358133 147.382186,72.8284167 146.933524,72.5029666 C146.933524,72.5029666 148.635714,72.8284167 150.605933,71.6075895 C150.605933,71.6075895 148.99367,71.7701199 148.188025,71.1999982 C148.188025,71.1999982 150.605933,70.5487087 151.680386,68.5948401 C151.680386,68.5948401 150.874546,68.3501686 150.516201,67.942772 C150.516201,67.942772 151.859656,67.2099253 152.128658,65.9890981 C152.128658,65.9890981 150.068901,65.9890981 148.99367,64.7682709 C148.99367,64.7682709 150.248171,63.057906 149.978974,61.9184413 C149.978974,61.9184413 152.128658,61.7549376 153.471918,60.941507 C153.471918,60.941507 150.426858,61.2667625 149.441553,60.6154729 C149.441553,60.6154729 151.859656,60.0459352 152.755033,58.7431615 C152.755033,58.7431615 150.784619,59.6385387 148.8144,59.4760082 C148.8144,59.4760082 150.337709,57.032602 148.277563,53.8573223 L150.605933,52.3102663 L147.382186,52.9619451 L148.456055,51.2523588 L146.6653,51.6597554 L148.277563,49.7866654 L145.590264,49.0540134 C145.590264,49.0540134 147.47114,47.5881253 145.858877,45.471921 C145.858877,45.471921 145.447393,45.4386363 144.897904,45.3160086 C146.545787,45.5159113 148.545787,44.5757653 148.545787,44.5757653 C151.769923,46.0412641 151.233281,51.7409233 151.233281,51.7409233 C153.024035,51.4148892 158.218779,46.6927482 158.218779,46.6927482 C157.144327,50.60068 152.308317,53.3695364 152.308317,53.3695364 C155.352794,52.8805826 156.785592,52.5551325 156.785592,52.5551325 C155.173913,54.9977602 153.560872,55.3230156 153.560872,55.3230156 C158.756006,60.6966408 153.024035,66.8844752 153.024035,66.8844752 C154.994449,70.9559106 149.79951,75.3529908 149.79951,75.3529908 C149.083403,76.1672 150.694887,77.4693898 150.694887,77.4693898 C150.516201,81.7035503 146.799996,84.0233556 146.799996,84.0233556 C147.739364,87.1986353 145.321262,90.3741097 145.321262,90.3741097 C145.858877,91.8398031 143.709777,93.916494 143.709777,93.916494 C144.380921,93.916494 145.187539,94.6493407 145.187539,94.6493407 C143.575082,97.4580998 141.425203,98.435034 141.425203,98.435034 C142.769437,98.435034 143.8435,98.3127956 143.8435,98.3127956 C143.440775,99.4119683 140.88895,101.122333 140.88895,101.122333 C141.022478,102.465594 140.619559,104.052747 140.619559,104.052747 C139.813719,109.792893 129.603111,109.303939 129.603111,109.303939 C120.199705,108.327978 119.393866,103.564766 119.393866,103.564766 C118.990167,103.931092 118.855666,105.15192 118.855666,105.15192 C117.37771,104.419073 117.109681,102.83192 117.109681,102.83192 C114.825885,102.83192 112.542479,101.854401 112.542479,101.854401 L113.079705,102.953574 C109.586177,102.587248 107.839997,101.915131 107.839997,101.915131 C107.571579,102.40389 108.377418,104.419073 108.377418,104.419073 C105.42209,104.297613 102.735375,101.243793 102.735375,101.243793 C102.735375,101.732552 103.138294,103.686421 103.138294,103.686421 C101.928757,103.442333 100.988416,103.198246 100.316494,102.220727 L100.294304,102.220727 L100.294304,102.220727 Z" id="path38" fill="#861810"></path>
                        <path d="M113.336834,88.6645233 L114.142479,87.3210684 L115.217515,88.9084163 L116.560776,87.687589 C116.560776,87.687589 119.24788,89.8450586 119.6508,87.1986353 C119.6508,87.1986353 123.368172,89.5196085 124.6217,86.2218957 L125.831043,87.4429175 L128.786761,87.3210684 L127.039802,88.9084163 L125.428318,88.5420902 C125.428318,88.5420902 124.353087,88.9084163 125.831043,90.007589 L124.756201,92.9389758 L122.741019,91.5957155 L123.009437,93.550168 C123.009437,93.550168 121.531481,92.6948882 120.188221,92.8173213 C120.188221,92.8173213 120.725836,93.550168 121.263257,95.0158614 C121.263257,95.0158614 119.6508,93.916494 118.038537,94.0381485 C118.038537,94.0381485 119.24788,95.0158614 118.978878,96.8469076 C118.978878,96.8469076 118.038537,95.9918224 115.083598,95.5038419 C115.083598,95.5038419 115.352017,96.3583431 115.217515,97.3358613 C115.217515,97.3358613 114.277175,96.6030146 111.859073,95.6253017 L109.978391,97.7021873 L107.425593,96.2366886 L105.678829,97.2142068 L102.857808,95.2589757 L102.186664,96.3583431 L100.310849,94.896348 L98.435618,96.3583431 L97.7635012,95.2589757 L94.943258,97.2142068 L93.196494,96.2366886 L90.6438907,97.7021873 L88.7630148,95.6253017 C86.3449127,96.6030146 85.4045721,97.3358613 85.4045721,97.3358613 C85.2700709,96.3583431 85.5384893,95.5038419 85.5384893,95.5038419 C82.5827717,95.9918224 81.6432096,96.8469076 81.6432096,96.8469076 C81.3742072,95.0158614 82.5827717,94.0381485 82.5827717,94.0381485 C80.9712875,93.916494 79.3588301,95.0158614 79.3588301,95.0158614 C79.8964457,93.550168 80.4338666,92.8173213 80.4338666,92.8173213 C79.0896331,92.6948882 77.6118715,93.550168 77.6118715,93.550168 L77.8810686,91.5957155 L75.8658862,92.9389758 L74.7910444,90.007589 C76.2688059,88.9084163 75.1939641,88.5420902 75.1939641,88.5420902 L73.5822853,88.9084163 L71.8362999,87.3210684 L74.7910444,87.4429175 L76.0003874,86.2218957 C77.2539153,89.5196085 80.9712875,87.1986353 80.9712875,87.1986353 C81.3742072,89.8450586 84.0605332,87.687589 84.0605332,87.687589 L85.4045721,88.9084163 L86.4794139,87.3210684 L87.2852533,88.6645233 C87.9571754,87.9316766 90.1062751,86.4659832 90.1062751,86.4659832 L89.8380513,88.0541097 L91.0468104,87.9316766 C91.9869563,86.5884163 93.5994137,85.7331365 93.5994137,85.7331365 L93.7339149,88.4204357 C94.8079782,86.7100708 96.9578565,85.4892436 96.9578565,85.4892436 C99.2414574,83.7796573 98.0326983,81.3370296 98.0326983,81.3370296 C98.0326983,81.3370296 98.435618,80.1154238 98.8385377,80.8482705 C99.2414574,81.5811172 99.1077347,82.0698763 99.1077347,82.0698763 C99.1077347,82.0698763 99.5073454,80.8597547 100.305594,79.523307 L100.305594,79.5052048 C100.306956,79.5081245 100.308513,79.5110442 100.310849,79.5141586 C100.313185,79.5110442 100.314937,79.5081245 100.316494,79.5052048 L100.316494,79.523307 C101.114742,80.8597547 101.514353,82.0698763 101.514353,82.0698763 C101.514353,82.0698763 101.380046,81.5811172 101.782771,80.8482705 C102.186664,80.1154238 102.589389,81.3370296 102.589389,81.3370296 C102.589389,81.3370296 101.380046,83.7796573 103.664231,85.4892436 C103.664231,85.4892436 105.813915,86.7100708 106.888367,88.4204357 L107.022674,85.7331365 C107.022674,85.7331365 108.634353,86.5884163 109.575277,87.9316766 L110.784231,88.0541097 L110.515812,86.4659832 C110.515812,86.4659832 112.664912,87.9316766 113.336834,88.6645233" id="path40" fill="#4D180C"></path>
                        <path d="M86.4794139,36.0264711 C86.4794139,36.0264711 87.2852533,44.4531376 86.6133312,48.1173711 C86.6133312,48.1173711 86.8702655,51.1542566 87.1110441,53.9949378 C86.8101195,52.9977602 86.3449127,52.1477359 86.3449127,52.1477359 C85.5384893,51.2934294 83.2548884,50.5605827 83.2548884,50.5605827 C83.6578081,51.5373223 83.5238909,52.8805826 83.5238909,52.8805826 C82.8517741,52.7589281 81.1050101,53.2469086 81.1050101,53.2469086 C82.9864699,53.8573223 84.3297303,55.3230156 84.3297303,55.3230156 C83.3893896,54.9574682 81.9116281,55.2007772 81.9116281,55.2007772 C82.449049,55.2007772 83.5238909,56.7885144 83.5238909,56.7885144 L82.449049,56.4221884 L82.9864699,57.6439888 C82.5827717,57.7654487 81.9116281,58.7431615 81.9116281,58.7431615 C80.7022851,58.2540131 80.1654481,58.1317747 80.1654481,58.1317747 C79.7625284,58.7431615 77.8810686,58.8646214 77.8810686,58.8646214 C78.9559104,59.7200958 79.2243289,59.8423343 79.2243289,59.8423343 C78.8214092,60.8190739 78.0155698,60.3301201 78.0155698,60.3301201 C77.8810686,60.941507 78.9559104,62.0404851 78.9559104,62.0404851 C78.9559104,62.0404851 77.2091465,60.941507 74.9255456,61.5519206 L72.9103631,62.7733318 C72.9103631,62.7733318 75.0600468,63.6280276 75.1939641,64.6053512 C75.1939641,64.6053512 71.1641831,63.9534777 69.6414581,63.9534777 C69.6414581,63.9534777 70.7164946,65.0121638 70.8957647,65.3376139 C70.8957647,65.3376139 68.0291954,64.5234047 67.0440859,64.5234047 L66.2382465,66.1518232 L64.8949862,65.5815069 L64.0435994,67.4143049 C64.0435994,67.4143049 62.5658379,65.2151809 63.9098767,63.8726991 C63.9098767,63.8726991 62.4319206,63.0166408 64.0435994,60.2086603 L63.23776,59.4760082 L63.7751809,58.6205338 C63.7751809,58.6205338 65.5213609,58.9872491 67.1338183,58.1317747 C67.1338183,58.1317747 62.8348403,58.0101202 62.7003391,55.9336239 C62.7003391,55.9336239 64.5810203,56.1782954 65.2529424,55.6895363 C65.2529424,55.6895363 63.23776,54.1021884 63.23776,53.2469086 C63.23776,52.3926021 65.2529424,52.7589281 63.23776,51.1708016 L62.9687575,49.0540134 C62.9687575,49.5427725 63.9098767,49.8275413 63.9098767,49.8275413 C63.9098767,49.8275413 64.8502174,49.8275413 65.5213609,50.8044756 C66.193283,51.7812153 65.6558621,48.2396095 65.6558621,48.2396095 L68.0741589,47.1404368 L68.2086601,44.8204368 C68.2086601,44.8204368 69.2827233,42.0114831 72.6419447,40.1794637 L73.0448644,38.3474443 L74.3881247,39.446617 C74.3881247,39.446617 77.0754239,37.1258385 76.4033071,35.537712 L79.4933313,36.6370794 L79.3588301,34.4387339 L80.9712875,34.80506 L80.8365917,33.2175174 C80.8365917,33.2175174 81.7771269,32.6067145 82.7172729,32.7299262 C82.7172729,32.7299262 81.9116281,29.6761063 88.3600951,25.4016539 C88.3600951,25.4016539 85.1355696,27.8440869 86.4794139,36.0264711" id="path42" fill="#4D180C"></path>
                        <path d="M137.361554,53.2469086 C137.361554,54.1021884 135.346177,55.6895363 135.346177,55.6895363 C136.018293,56.1782954 137.899559,55.9336239 137.899559,55.9336239 C137.764473,58.0101202 133.46569,58.1317747 133.46569,58.1317747 C135.077953,58.9872491 136.824133,58.6205338 136.824133,58.6205338 L137.361554,59.4760082 L136.555909,60.2086603 C138.168172,63.0166408 136.690216,63.8726991 136.690216,63.8726991 C138.033476,65.2151809 136.555909,67.4143049 136.555909,67.4143049 L135.705106,65.5815069 L134.361651,66.1518232 L133.555228,64.5234047 C132.570118,64.5234047 129.704328,65.3376139 129.704328,65.3376139 C129.883598,65.0121638 130.957856,63.9534777 130.957856,63.9534777 C129.435909,63.9534777 125.405544,64.6053512 125.405544,64.6053512 C125.539267,63.6280276 127.689145,62.7733318 127.689145,62.7733318 L125.674352,61.5519206 C123.656834,61.0129425 122.063647,61.8051566 121.718537,61.997468 C121.905593,61.7979547 122.737126,60.8737698 122.617807,60.3301201 C122.617807,60.3301201 121.811384,60.8190739 121.408269,59.8423343 C121.408269,59.8423343 121.677467,59.7200958 122.752503,58.8646214 C122.752503,58.8646214 120.871822,58.7431615 120.468707,58.1317747 C120.468707,58.1317747 119.930508,58.2540131 118.721944,58.7431615 C118.721944,58.7431615 118.050021,57.7654487 117.647102,57.6439888 L118.184328,56.4221884 L117.109681,56.7885144 C117.109681,56.7885144 118.184328,55.2007772 118.721944,55.2007772 C118.721944,55.2007772 117.244182,54.9574682 116.303841,55.3230156 C116.303841,55.3230156 117.647102,53.8573223 119.527588,53.2469086 C119.527588,53.2469086 117.781603,52.7589281 117.109681,52.8805826 C117.109681,52.8805826 116.974985,51.5373223 117.37771,50.5605827 C117.37771,50.5605827 115.094498,51.2934294 114.288659,52.1477359 C114.288659,52.1477359 113.771676,53.0888551 113.475228,54.1524074 C113.7199,51.2675413 113.985983,48.1173711 113.985983,48.1173711 C113.31406,44.4531376 114.120678,36.0264711 114.120678,36.0264711 C115.463744,27.8440869 112.239024,25.4016539 112.239024,25.4016539 C118.687686,29.6761063 117.881846,32.7299262 117.881846,32.7299262 C118.822381,32.6067145 119.762333,33.2175174 119.762333,33.2175174 L119.628221,34.80506 L121.241262,34.4387339 L121.105788,36.6370794 L124.196785,35.537712 C123.524668,37.1258385 126.211189,39.446617 126.211189,39.446617 L127.555228,38.3474443 L127.958148,40.1794637 C131.31659,42.0114831 132.391238,44.8204368 132.391238,44.8204368 L132.525349,47.1404368 L134.943257,48.2396095 C134.943257,48.2396095 134.406031,51.7812153 135.077953,50.8044756 C135.75007,49.8275413 137.843306,49.5015073 137.843306,49.5015073 C137.843306,49.5015073 138.336152,49.2986849 138.783646,48.7283686 L138.694108,50.2754245 C134.664522,52.1477359 137.361554,52.3926021 137.361554,53.2469086" id="path44" fill="#4D180C"></path>
                        <path d="M152.755033,58.7431615 C151.859656,60.0459352 149.441553,60.6154729 149.441553,60.6154729 C150.426858,61.2667625 153.471918,60.941507 153.471918,60.941507 C152.128658,61.7549376 149.978974,61.9184413 149.978974,61.9184413 C150.248171,63.057906 148.99367,64.7682709 148.99367,64.7682709 C150.068901,65.9890981 152.128658,65.9890981 152.128658,65.9890981 C151.859656,67.2099253 150.516201,67.942772 150.516201,67.942772 C150.874546,68.3501686 151.680386,68.5948401 151.680386,68.5948401 C150.605933,70.5487087 148.188025,71.1999982 148.188025,71.1999982 C148.99367,71.7701199 150.605933,71.6075895 150.605933,71.6075895 C148.635714,72.8284167 146.933524,72.5029666 146.933524,72.5029666 C147.382186,72.8284167 148.545787,73.2358133 148.545787,73.2358133 C147.036493,73.7263242 145.893135,73.6241344 145.214206,73.4670541 C145.739169,72.8875894 146.215276,71.9998036 145.858877,70.8336722 C145.858877,70.8336722 148.949096,70.3451077 150.291967,68.7575652 C150.291967,68.7575652 149.486128,68.7575652 148.680483,68.3910445 C148.680483,68.3910445 150.291967,67.4143049 150.561359,66.5592197 C150.561359,66.5592197 148.008755,66.5592197 146.933524,65.460047 C146.933524,65.460047 149.621018,62.1623342 146.530799,59.3535752 C146.530799,59.3535752 147.874838,56.2997553 144.380921,54.4687091 C144.380921,54.4687091 142.769437,53.1254488 145.455957,51.1708016 L142.903159,50.3157165 C142.903159,50.3157165 143.978196,48.9724562 143.440775,47.5069574 L141.560094,47.751629 C141.560094,47.751629 142.948902,46.7085146 143.563792,44.8718237 C143.705884,44.9397556 143.850313,44.9997069 143.995325,45.0530402 C144.309485,45.168466 144.621116,45.2537215 144.897904,45.3160086 C145.447393,45.4386363 145.858877,45.471921 145.858877,45.471921 C147.47114,47.5881253 145.590264,49.0540134 145.590264,49.0540134 L148.277563,49.7866654 L146.6653,51.6597554 L148.456055,51.2523588 L147.382186,52.9619451 L150.605933,52.3102663 L148.277563,53.8573223 C150.337709,57.032602 148.8144,59.4760082 148.8144,59.4760082 C150.784619,59.6385387 152.755033,58.7431615 152.755033,58.7431615" id="path46" fill="#4D180C"></path>
                        <path d="M57.7296336,50.3157165 L55.1768356,51.1708016 C57.8639402,53.1254488 56.2518721,54.4687091 56.2518721,54.4687091 C52.7595121,56.2997553 54.1027724,59.3535752 54.1027724,59.3535752 C51.0125535,62.1623342 53.6990741,65.460047 53.6990741,65.460047 C52.6248162,66.5592197 50.0722129,66.5592197 50.0722129,66.5592197 C50.3406313,67.4143049 51.9528941,68.3910445 51.9528941,68.3910445 C51.1472493,68.7575652 50.3406313,68.7575652 50.3406313,68.7575652 C51.6844756,70.3451077 54.7739159,70.8336722 54.7739159,70.8336722 C54.4188794,71.9976624 54.8916775,72.8838911 55.4154731,73.4631612 C54.7388794,73.6225772 53.5873466,73.7298278 52.0648162,73.2358133 C52.0648162,73.2358133 53.2291957,72.8284167 53.677079,72.5029666 C53.677079,72.5029666 51.9748892,72.8284167 50.0046703,71.6075895 C50.0046703,71.6075895 51.616933,71.7701199 52.423551,71.1999982 C52.423551,71.1999982 50.0046703,70.5487087 48.9304124,68.5948401 C48.9304124,68.5948401 49.7362518,68.3501686 50.094208,67.942772 C50.094208,67.942772 48.7511423,67.2099253 48.4827238,65.9890981 C48.4827238,65.9890981 50.5426751,65.9890981 51.616933,64.7682709 C51.616933,64.7682709 50.3634051,63.057906 50.6318236,61.9184413 C50.6318236,61.9184413 48.4827238,61.7549376 47.138685,60.941507 C47.138685,60.941507 50.1839404,61.2667625 51.1690498,60.6154729 C51.1690498,60.6154729 48.7511423,60.0459352 47.8555706,58.7431615 C47.8555706,58.7431615 49.8259842,59.6385387 51.7963977,59.4760082 C51.7963977,59.4760082 50.2736727,57.032602 52.333624,53.8573223 L50.0046703,52.3102663 L53.2291957,52.9619451 L52.1543539,51.2523588 L53.9453028,51.6597554 L52.333624,49.7866654 L55.0203393,49.0540134 C55.0203393,49.0540134 53.139658,47.5881253 54.7519208,45.471921 C54.7519208,45.471921 55.1632103,45.4386363 55.7126993,45.3160086 C55.9894877,45.2537215 56.3018964,45.168466 56.6150837,45.0530402 C56.7671032,44.9975658 56.9175655,44.9337215 57.0658867,44.8630646 C57.6794146,46.7048164 59.0726993,47.751629 59.0726993,47.751629 L57.192018,47.5069574 C56.6545971,48.9724562 57.7296336,50.3157165 57.7296336,50.3157165" id="path48" fill="#4D180C"></path>
                        <path d="M104.178878,36.6370794 C104.178878,36.6370794 101.760776,36.2705587 100.28282,36.2705587 L100.28282,36.2715319 C98.801944,36.2767874 96.4210195,36.6370794 96.4210195,36.6370794 C94.226567,37.0036 93.3749855,35.5789772 93.3749855,35.5789772 C93.3302166,37.8584905 95.3461777,37.6145976 95.3461777,37.6145976 C96.2820414,37.37051 97.3545474,37.0582959 100.28282,37.0557655 L100.28282,37.0549869 C103.238538,37.0549869 104.313379,37.3697314 105.253915,37.6145976 C105.253915,37.6145976 107.269097,37.8584905 107.224134,35.5789772 C107.224134,35.5789772 106.373525,37.0036 104.178878,36.6370794 L104.178878,36.6370794 Z M105.746567,38.4278336 C105.746567,38.4278336 103.641652,37.6145976 100.28282,37.6245246 L100.28282,37.6253032 C96.9440365,37.6206317 94.8529417,38.4278336 94.8529417,38.4278336 C91.1363481,37.5324565 92.7935743,31.8736732 92.7935743,31.8736732 C92.8377592,35.9854006 97.4950827,34.927493 97.4950827,34.927493 C98.1588297,34.5656439 99.3477347,34.4416536 100.28282,34.4395125 L100.28282,34.4387339 C101.22316,34.4387339 102.43192,34.5609724 103.104036,34.927493 C103.104036,34.927493 107.761554,35.9854006 107.806713,31.8736732 C107.806713,31.8736732 109.462771,37.5324565 105.746567,38.4278336 L105.746567,38.4278336 Z" id="path50" fill="#4D180C"></path>
                        <path d="M143.03805,80.6043775 C143.03805,80.6043775 141.425203,83.4131366 140.081943,84.1459833 L139.141992,85.9772241 C139.141992,85.9772241 140.485836,87.1986353 141.291675,87.4429175 L140.619559,85.8555696 L143.172357,83.9018957 L142.097515,83.2907035 L143.306079,81.5811172 L143.03805,80.6043775 Z M138.336152,87.8092435 C138.336152,87.8092435 136.858196,87.1986353 135.648853,88.4204357 C135.648853,88.4204357 135.380629,88.7867618 133.499948,89.1530878 C133.499948,89.1530878 135.917077,90.2524552 136.992113,90.3741097 L135.582089,91.2291948 C136.791432,91.5957155 137.530118,92.8173213 138.336152,95.0158614 L139.679218,95.6253017 C139.679218,95.6253017 140.88895,94.1605816 142.634741,94.2830147 L140.081943,93.0614089 L140.88895,91.8398031 L139.544717,90.8628688 C139.544717,90.8628688 141.425203,89.8861291 141.560094,89.1530878 C141.560094,89.1530878 139.544717,89.0308494 138.336152,87.8092435 Z M137.664035,68.7575652 L135.111237,68.3910445 C134.036396,66.5592197 133.230751,66.1928937 130.946955,66.3143536 L132.29041,67.0470056 L131.35007,68.2690007 L132.694109,68.1471516 L132.424912,69.3679788 L135.514157,69.246519 C135.514157,70.1008255 133.096834,70.8336722 133.096834,70.8336722 L133.096834,71.9328449 C130.678148,69.8567379 128.260824,71.5665189 128.260824,71.5665189 C127.454011,72.2993656 127.051092,72.9095846 124.498294,72.9095846 C125.169827,73.8874921 125.573525,75.9634044 125.573525,75.9634044 L126.379364,75.1081246 L126.513865,76.451385 L127.991627,76.3299251 L127.991627,74.9864701 C130.275228,74.9864701 130.275228,76.3299251 130.275228,76.3299251 C131.887296,75.8409713 133.096834,78.2834044 132.827831,76.573818 C132.558634,74.8642317 130.409729,74.6201441 130.409729,74.6201441 L128.797077,73.6424312 L131.484571,73.7648643 L130.409729,72.7881247 L133.230751,72.9095846 L134.036396,73.5209714 L134.440289,72.665497 L136.052551,74.1308011 L137.933233,74.0089519 L135.783549,71.688952 L138.067539,71.688952 L136.455276,70.2232586 L137.664035,68.7575652 Z M122.349583,96.8469076 C120.468707,98.068708 120.602625,99.1678807 120.871822,101.122333 C120.871822,101.122333 121.677467,100.022966 123.020727,99.2903138 C123.020727,99.2903138 123.82715,102.34316 125.169827,103.442333 C125.169827,103.442333 125.438829,102.465594 125.97625,101.732552 C125.97625,101.732552 127.454011,104.297613 130.543452,105.15192 C130.543452,105.15192 130.543452,104.17518 130.812454,103.564766 C130.812454,103.564766 133.230751,104.419073 133.633671,104.907832 C133.633671,104.907832 133.768172,102.83192 136.320775,102.587248 C136.320775,102.587248 135.917077,101.122333 135.380629,100.755813 C135.380629,100.755813 136.992113,100.267053 138.201456,101.366226 C138.201456,101.366226 139.410994,96.3583431 135.380629,93.7940609 L134.57479,95.7485134 L131.887296,92.8173213 C131.887296,92.8173213 132.155714,91.3510439 134.172065,91.1069564 C134.172065,91.1069564 131.215568,89.641263 127.72243,93.3053018 L127.319705,95.2589757 L125.97625,94.526129 L125.707247,96.7246691 L123.961262,95.8701679 L122.349583,96.8469076 Z M122.633768,96.6621874 C122.761651,96.5792677 122.858975,96.5163966 122.937807,96.4646205 C122.842235,96.5269076 122.732649,96.5975645 122.633768,96.6621874 Z M119.527588,64.7272003 C119.527588,64.7272003 116.572065,66.0706553 114.557661,65.2151809 C114.557661,65.2151809 112.407004,65.7041346 112.542479,64.4823342 L113.482625,64.2390252 C113.482625,64.2390252 112.407004,63.0166408 111.602138,62.4070057 C111.602138,62.4070057 113.348124,63.3831614 115.094498,63.2617016 L114.42316,62.5288549 C114.42316,62.5288549 115.631725,62.8951809 116.169146,62.5288549 C116.169146,62.5288549 117.781603,62.1623342 118.319024,62.4070057 L118.721944,61.7962028 C118.721944,61.7962028 119.662284,62.6503147 119.393866,63.6280276 C119.393866,63.6280276 119.930508,62.6503147 121.677467,62.0404851 C121.677467,62.0404851 121.694985,62.0223829 121.718537,61.997468 C121.905593,61.7979547 122.737126,60.8737698 122.617807,60.3301201 C122.617807,60.3301201 121.811384,60.8190739 121.408269,59.8423343 C121.408269,59.8423343 121.677467,59.7200958 122.752503,58.8646214 C122.752503,58.8646214 120.871822,58.7431615 120.468707,58.1317747 C120.468707,58.1317747 119.930508,58.2540131 118.721944,58.7431615 C118.721944,58.7431615 118.050021,57.7654487 117.647102,57.6439888 L118.184328,56.4221884 L117.109681,56.7885144 C117.109681,56.7885144 118.184328,55.2007772 118.721944,55.2007772 C118.721944,55.2007772 117.244182,54.9574682 116.303841,55.3230156 C116.303841,55.3230156 117.647102,53.8573223 119.527588,53.2469086 C119.527588,53.2469086 117.781603,52.7589281 117.109681,52.8805826 C117.109681,52.8805826 116.974985,51.5373223 117.37771,50.5605827 C117.37771,50.5605827 115.094498,51.2934294 114.288659,52.1477359 C114.288659,52.1477359 113.771676,53.0888551 113.475228,54.1524074 C113.306275,54.7575655 113.213622,55.3997066 113.324571,55.9342078 C113.320873,55.9739159 113.317175,56.0161543 113.31406,56.0556677 L113.342868,56.0694876 C113.294401,56.2133319 112.586469,58.1317747 110.257905,58.1317747 C110.257905,58.1317747 108.511141,56.9111421 106.764961,58.3766409 C106.764961,58.3766409 107.571579,59.4760082 106.227735,60.3301201 C106.227735,60.3301201 104.884474,61.307833 106.764961,61.5519206 C108.377418,61.6735751 109.988902,62.0404851 111.735861,64.2390252 C111.735861,64.2390252 113.885545,68.0249131 115.363501,68.0249131 C116.841457,68.0249131 115.900338,67.1696334 117.244182,67.536154 C117.244182,67.536154 117.244182,66.8033073 116.438343,66.5592197 C116.438343,66.5592197 116.572065,65.8263731 118.855666,66.4367867 C118.855666,66.4367867 121.408269,66.6806796 122.617807,65.8263731 C122.617807,65.8263731 124.095569,64.2390252 123.961262,63.6280276 C123.961262,63.6280276 121.005544,65.0935264 119.527588,64.7272003 L119.527588,64.7272003 Z M108.781895,22.0757172 C108.863842,21.3938681 108.867735,20.5516297 108.840289,19.7594156 C109.218294,19.6387343 109.697126,19.2813231 109.830849,18.2541893 C109.828318,18.2666467 109.829486,18.2785202 109.827151,18.2915811 L109.836104,18.2329728 C109.835326,18.2423158 109.831433,18.2460531 109.830849,18.2541893 C109.879511,17.9663256 109.904425,17.6798244 109.904425,17.4000969 C109.904425,16.4056444 109.631725,15.4904132 109.337418,14.784058 C109.56243,12.3789583 108.657126,10.2468124 108.657126,10.2468124 C106.686907,7.07215554 103.73119,8.21160077 103.73119,8.21160077 C101.330411,8.53566889 101.928757,8.37644748 100.316494,8.37956183 C100.31007,8.37956183 100.305594,8.37956183 100.29956,8.37956183 C100.293525,8.37956183 100.288854,8.37956183 100.28282,8.37956183 C98.6711411,8.37644748 99.2694866,8.53566889 96.8681241,8.21160077 C96.8681241,8.21160077 93.9126011,7.07215554 91.9421875,10.2468124 C91.9421875,10.2468124 91.0253992,12.4102771 91.2687082,14.836749 C90.897516,15.7389777 90.5724552,16.9695178 90.7972727,18.2338098 C90.9218469,19.2508414 91.3833554,19.6173231 91.7596084,19.7489046 C91.7315792,20.5442331 91.7354722,21.3907537 91.8176133,22.0757172 C89.5118226,23.5215566 89.0762022,24.9537707 89.0762022,24.9537707 C93.0170293,22.2666661 96.1520171,22.1041357 96.1520171,22.1041357 C98.0326983,21.981508 97.4950827,22.9590262 97.4950827,22.9590262 C95.3461777,22.9590262 94.4050585,24.1802427 94.4050585,24.1802427 C97.0923577,23.813722 95.2116765,26.3785881 95.2116765,26.3785881 C93.4647179,27.5999993 91.5840366,30.6117754 91.5840366,30.6117754 C89.3004357,35.3751816 92.3449125,38.7943543 92.3449125,38.7943543 C93.5544502,40.6265683 95.88282,39.3642813 95.88282,39.3642813 C96.9539635,38.8780526 98.8239391,38.4727971 100.29956,38.4698774 C101.77518,38.4727971 103.645156,38.8780526 104.716494,39.3642813 C104.716494,39.3642813 107.045447,40.6265683 108.254012,38.7943543 C108.254012,38.7943543 111.299462,35.3751816 109.015861,30.6117754 C109.015861,30.6117754 107.134401,27.5999993 105.388221,26.3785881 C105.388221,26.3785881 103.506956,23.813722 106.194255,24.1802427 C106.194255,24.1802427 105.253915,22.9590262 103.104036,22.9590262 C103.104036,22.9590262 102.566615,21.981508 104.447491,22.1041357 C104.447491,22.1041357 107.582284,22.2666661 111.522917,24.9537707 C111.522917,24.9537707 111.087491,23.5215566 108.781895,22.0757172 Z M87.2852533,56.0556677 C87.4510927,55.4545972 87.3202898,54.6898283 87.1110441,53.9949378 C86.8101195,52.9977602 86.3449127,52.1477359 86.3449127,52.1477359 C85.5384893,51.2934294 83.2548884,50.5605827 83.2548884,50.5605827 C83.6578081,51.5373223 83.5238909,52.8805826 83.5238909,52.8805826 C82.8517741,52.7589281 81.1050101,53.2469086 81.1050101,53.2469086 C82.9864699,53.8573223 84.3297303,55.3230156 84.3297303,55.3230156 C83.3893896,54.9574682 81.9116281,55.2007772 81.9116281,55.2007772 C82.449049,55.2007772 83.5238909,56.7885144 83.5238909,56.7885144 L82.449049,56.4221884 L82.9864699,57.6439888 C82.5827717,57.7654487 81.9116281,58.7431615 81.9116281,58.7431615 C80.7022851,58.2540131 80.1654481,58.1317747 80.1654481,58.1317747 C79.7625284,58.7431615 77.8810686,58.8646214 77.8810686,58.8646214 C78.9559104,59.7200958 79.2243289,59.8423343 79.2243289,59.8423343 C78.8214092,60.8190739 78.0155698,60.3301201 78.0155698,60.3301201 C77.8810686,60.941507 78.9559104,62.0404851 78.9559104,62.0404851 C80.7022851,62.6503147 81.2395114,63.6280276 81.2395114,63.6280276 C80.9712875,62.6503147 81.9116281,61.7962028 81.9116281,61.7962028 L82.3143532,62.4070057 C82.8517741,62.1623342 84.4642315,62.5288549 84.4642315,62.5288549 C85.0016524,62.8951809 86.2104115,62.5288549 86.2104115,62.5288549 L85.5384893,63.2617016 C87.2852533,63.3831614 89.0320172,62.4070057 89.0320172,62.4070057 C88.2255939,63.0166408 87.1515307,64.2390252 87.1515307,64.2390252 L88.0910927,64.4823342 C88.2255939,65.7041346 86.0764942,65.2151809 86.0764942,65.2151809 C84.0605332,66.0706553 81.1050101,64.7272003 81.1050101,64.7272003 C79.6272486,65.0935264 76.6717256,63.6280276 76.6717256,63.6280276 C76.5378083,64.2390252 78.0155698,65.8263731 78.0155698,65.8263731 C79.2243289,66.6806796 81.7771269,66.4367867 81.7771269,66.4367867 C84.0605332,65.8263731 84.195813,66.5592197 84.195813,66.5592197 C83.3893896,66.8033073 83.3893896,67.536154 83.3893896,67.536154 C84.7326499,67.1696334 83.7923093,68.0249131 85.2700709,68.0249131 C86.7478324,68.0249131 88.8977107,64.2390252 88.8977107,64.2390252 C90.6438907,62.0404851 92.2559588,61.6735751 93.8676376,61.5519206 C95.6145961,61.307833 94.4050585,60.3301201 94.4050585,60.3301201 C93.0617982,59.4760082 93.8676376,58.3766409 93.8676376,58.3766409 C92.1216522,56.9111421 90.3746936,58.1317747 90.3746936,58.1317747 C87.9571754,58.1317747 87.2852533,56.0556677 87.2852533,56.0556677 L87.2852533,56.0556677 Z M72.3735262,71.5665189 C72.3735262,71.5665189 69.9556187,69.8567379 67.5365433,71.9328449 L67.5365433,70.8336722 C67.5365433,70.8336722 65.1186358,70.1008255 65.1186358,69.246519 L68.2086601,69.3679788 L67.9402416,68.1471516 L69.2827233,68.2690007 L68.3431613,67.0470056 L69.6864216,66.3143536 C67.4020421,66.1928937 66.5963974,66.5592197 65.5213609,68.3910445 L62.9687575,68.7575652 L64.1781006,70.2232586 L62.5658379,71.688952 L64.8502174,71.688952 L62.7003391,74.0089519 L64.5810203,74.1308011 L66.193283,72.665497 L66.5963974,73.5209714 L67.4020421,72.9095846 L70.2238425,72.7881247 L69.1488061,73.7648643 L71.8362999,73.6424312 L70.2238425,74.6201441 C70.2238425,74.6201441 68.0741589,74.8642317 67.8049618,76.573818 C67.5365433,78.2834044 68.746081,75.8409713 70.3577598,76.3299251 C70.3577598,76.3299251 70.3577598,74.9864701 72.6419447,74.9864701 L72.6419447,76.3299251 L74.1197062,76.451385 L74.2542074,75.1081246 L75.0600468,75.9634044 C75.0600468,75.9634044 75.4631611,73.8874921 76.1348886,72.9095846 C73.5822853,72.9095846 73.1793656,72.2993656 72.3735262,71.5665189 L72.3735262,71.5665189 Z M59.0726993,89.1530878 C59.2073951,89.8861291 61.0878817,90.8628688 61.0878817,90.8628688 L59.744816,91.8398031 L60.5504608,93.0614089 L57.998636,94.2830147 C59.744816,94.1605816 60.9541591,95.6253017 60.9541591,95.6253017 L62.2974194,95.0158614 C63.1032588,92.8173213 63.8421395,91.5957155 65.0516772,91.2291948 L63.6406797,90.3741097 C64.7155215,90.2524552 67.1338183,89.1530878 67.1338183,89.1530878 C65.2529424,88.7867618 64.9847186,88.4204357 64.9847186,88.4204357 C63.7751809,87.1986353 62.2974194,87.8092435 62.2974194,87.8092435 C61.0878817,89.0308494 59.0726993,89.1530878 59.0726993,89.1530878 L59.0726993,89.1530878 Z M60.5504608,84.1459833 C59.2073951,83.4131366 57.5949377,80.6043775 57.5949377,80.6043775 L57.3265192,81.5811172 L58.5360569,83.2907035 L57.4612151,83.9018957 L60.0132345,85.8555696 L59.3418963,87.4429175 C60.1475411,87.1986353 61.490996,85.9772241 61.490996,85.9772241 L60.5504608,84.1459833 Z M62.4319206,101.366226 C63.6406797,100.267053 65.2529424,100.755813 65.2529424,100.755813 C64.7155215,101.122333 64.3126018,102.587248 64.3126018,102.587248 C66.8653998,102.83192 66.9991224,104.907832 66.9991224,104.907832 C67.4020421,104.419073 69.8209228,103.564766 69.8209228,103.564766 C70.0893413,104.17518 70.0893413,105.15192 70.0893413,105.15192 C73.1793656,104.297613 74.6571271,101.732552 74.6571271,101.732552 C75.1939641,102.465594 75.4631611,103.442333 75.4631611,103.442333 C76.8062268,102.34316 77.6118715,99.2903138 77.6118715,99.2903138 C78.9559104,100.022966 79.7625284,101.122333 79.7625284,101.122333 C80.0309469,99.1678807 80.1654481,98.068708 78.2847669,96.8469076 L76.6717256,95.8701679 L74.9255456,96.7246691 L74.6571271,94.526129 L73.3132828,95.2589757 L72.9103631,93.3053018 C69.4180031,89.641263 66.4624801,91.1069564 66.4624801,91.1069564 C68.4768839,91.3510439 68.746081,92.8173213 68.746081,92.8173213 L66.0587818,95.7485134 L65.2529424,93.7940609 C61.2225775,96.3583431 62.4319206,101.366226 62.4319206,101.366226 L62.4319206,101.366226 Z" id="path52" fill="#231F20"></path>
                        <path d="M85.7847181,58.1568842 C84.1745964,58.1568842 82.8428203,59.2848647 82.5987327,60.4389279 C82.5728447,60.3242807 82.5539639,60.2065192 82.5555211,60.0862272 C82.5607765,59.2309474 84.0011658,57.8405825 85.7847181,57.8405825 C87.5688543,57.8405825 89.054207,59.3132832 89.0146936,60.0862272 C89.0094382,60.2065192 88.9971754,60.3242807 88.9712873,60.4389279 C88.7266158,59.2848647 87.3956183,58.1568842 85.7847181,58.1568842" id="path54" fill="#FFFFFF"></path>
                        <path d="M118.055861,60.0862272 C118.056834,60.2065192 118.037564,60.3242807 118.011871,60.4389279 C117.767783,59.2848647 116.436785,58.1568842 114.825885,58.1568842 C113.21518,58.1568842 111.883404,59.2848647 111.640095,60.4389279 C111.613428,60.3242807 111.602138,60.2065192 111.59591,60.0862272 C111.556396,59.3132832 113.041749,57.8405825 114.825885,57.8405825 C116.609243,57.8405825 118.050021,59.2309474 118.055861,60.0862272" id="path56" fill="#FFFFFF"></path>
                        <path d="M105.253915,37.6145976 C104.313379,37.3697314 103.238538,37.0549869 100.28282,37.0549869 L100.28282,37.0557655 C97.3545474,37.0582959 96.2820414,37.37051 95.3461777,37.6145976 C95.3461777,37.6145976 93.3302166,37.8584905 93.3749855,35.5789772 C93.3749855,35.5789772 94.226567,37.0036 96.4210195,36.6370794 C96.4210195,36.6370794 98.801944,36.2767874 100.28282,36.2715319 L100.28282,36.2705587 C101.760776,36.2705587 104.178878,36.6370794 104.178878,36.6370794 C106.373525,37.0036 107.224134,35.5789772 107.224134,35.5789772 C107.269097,37.8584905 105.253915,37.6145976 105.253915,37.6145976" id="path58" fill="#FFFFFF"></path>
                        <path d="M84.2065186,60.7780033 L84.2962509,60.6557649 C84.2962509,60.6557649 85.3703142,61.144524 85.7740125,60.3711907 L86.3108494,60.3711907 C86.0424309,61.1855946 84.9675891,61.4705581 84.2065186,60.7780033" id="path60" fill="#D71941"></path>
                        <path d="M114.29917,60.3711907 L114.837564,60.3711907 C115.240289,61.144524 116.315131,60.6557649 116.315131,60.6557649 L116.404085,60.7780033 C115.643209,61.4705581 114.568172,61.1855946 114.29917,60.3711907" id="path62" fill="#D71941"></path>
                        <path d="M98.0478808,28.8391234 C99.1182457,29.3095856 99.4178077,30.759318 98.7168832,32.0759116 C98.5177591,32.4500235 98.2577104,32.7721646 97.9641825,33.0320186 C98.0722117,32.892262 98.1732336,32.7410211 98.2592676,32.578296 C98.8916764,31.3903642 98.6209221,30.0819457 97.6548881,29.6570309 C96.6886594,29.2328946 95.3932823,29.8516781 94.7608735,31.0398046 C94.6125524,31.3181501 94.5152288,31.6029189 94.4636473,31.882043 C94.4515791,31.3999019 94.5716765,30.875717 94.8406789,30.3708022 C95.5408249,29.0542085 96.9775158,28.3676879 98.0478808,28.8391234" id="path64" fill="#D71941"></path>
                        <path d="M98.3846204,16.9378098 C98.4371752,16.95453 98.4871995,16.9742283 98.5442311,16.9847198 C98.9298272,17.0571091 99.2710437,16.9825787 99.5795596,16.8426079 C99.6541094,16.8669388 99.7294379,16.8926322 99.8123576,16.9292064 C99.9824793,17.5069971 100.144426,18.0583937 100.238051,18.3752988 C100.287297,18.5442526 100.319608,18.6520677 100.319608,18.6520677 C100.319608,18.6520677 100.567199,17.8043597 100.827248,16.914238 C100.901798,16.8828998 100.971676,16.8572064 101.03844,16.8359898 C101.351628,16.9796979 101.69771,17.0584716 102.089341,16.9847198 C102.143258,16.9749874 102.189584,16.9558925 102.239803,16.9407684 C104.104328,17.020749 104.716494,19.9307051 104.716494,20.9644764 C103.2181,19.9139654 100.640192,20.1121163 100.28282,20.1455956 C100.255375,20.14871 100.238051,20.1502671 100.238051,20.1502671 L100.238051,20.1389776 C99.6731849,20.0940141 97.2961533,19.9739168 95.88282,20.9644764 C95.88282,19.9258389 96.5002409,16.9917076 98.3846204,16.9378098" id="path66" fill="#D71941"></path>
                        <path d="M102.552017,28.8391234 C103.622576,28.3676879 105.058294,29.0542085 105.759219,30.3708022 C106.028416,30.875717 106.148513,31.3999019 106.135861,31.882043 C106.08389,31.6029189 105.986761,31.3181501 105.83844,31.0398046 C105.205837,29.8516781 103.910654,29.2328946 102.944426,29.6570309 C101.978197,30.0819457 101.708221,31.3903642 102.340046,32.578296 C102.426859,32.7410211 102.527102,32.892262 102.635715,33.0320186 C102.342966,32.7721646 102.081555,32.4500235 101.882236,32.0759116 C101.181506,30.759318 101.481652,29.3095856 102.552017,28.8391234" id="path68" fill="#D71941"></path>
                        <path d="M104.246031,10.9292065 C104.246031,10.9292065 102.365156,11.203698 100.28282,11.203698 L100.28282,11.2029389 C98.2143041,11.2000386 96.3534769,10.9292065 96.3534769,10.9292065 C94.2705573,10.7157175 93.263258,11.8758343 93.263258,11.8758343 C94.0356181,9.89095839 96.5549368,10.2877078 96.5549368,10.2877078 C97.9618467,10.5720873 100.007005,10.5127005 100.28282,10.5037272 L100.28282,10.502209 C100.28282,10.502209 102.533136,10.5934401 104.045156,10.2877078 C104.045156,10.2877078 106.563501,9.89095839 107.335861,11.8758343 C107.335861,11.8758343 106.328756,10.7157175 104.246031,10.9292065" id="path70" fill="#D71941"></path>
                        <path d="M108.16136,18.2944813 C107.731384,17.2327392 106.7599,15.4569728 105.162041,14.7848171 C105.162041,14.7848171 105.024231,17.2439898 102.769632,14.6221116 C102.769632,14.6221116 102.177321,17.4340044 100.432698,14.7622381 C100.432698,14.7622381 100.393963,14.483114 100.316494,14.7483987 C100.23883,14.483114 100.199706,14.7622381 100.199706,14.7622381 C98.455472,17.4340044 97.8631606,14.6221116 97.8631606,14.6221116 C95.6093407,17.2439898 95.4725037,14.7848171 95.4725037,14.7848171 C93.8736716,15.4569728 92.9014089,17.2327392 92.4718225,18.2944813 C92.0424308,19.3565153 91.887297,18.0993085 91.887297,18.0993085 C91.5240853,16.0485057 92.9126984,14.0482722 92.9126984,14.0482722 C94.7807276,12.381917 95.2108979,12.2818488 96.0044745,13.2706761 C98.0395109,12.5037272 98.1816034,13.6379169 98.1816034,13.6379169 C99.3029659,12.7363111 100.069876,13.3144717 100.316494,13.738822 C100.562723,13.3144717 101.330411,12.7363111 102.450995,13.6379169 C102.450995,13.6379169 102.594061,12.5037272 104.628124,13.2706761 C105.42209,12.2818488 105.852065,12.381917 107.720484,14.0482722 C107.720484,14.0482722 109.109486,16.0485057 108.745496,18.0993085 C108.745496,18.0993085 108.591141,19.3565153 108.16136,18.2944813" id="path72" fill="#FFFFFF"></path>
                    </g>
                </g>
            </g>
        </g>
    </g>
</svg>