<?xml version="1.0" encoding="UTF-8"?>
<svg width="200px" height="200px" viewBox="0 0 200 200" version="1.1" xmlns="http://www.w3.org/2000/svg" xmlns:xlink="http://www.w3.org/1999/xlink">
    <!-- Generator: Sketch 54.1 (76490) - https://sketchapp.com -->
    <title>campbell</title>
    <desc>Created with Sketch.</desc>
    <g id="campbell" stroke="none" stroke-width="1" fill="none" fill-rule="evenodd">
        <g id="campbell_BGD">
            <g id="campbell" transform="translate(0.000000, 26.000000)">
                <g id="g10" transform="translate(99.999998, 73.726669) scale(-1, 1) rotate(-180.000000) translate(-99.999998, -73.726669) translate(0.000000, 0.393337)" fill-rule="nonzero">
                    <g id="g12">
                        <path d="M199.750662,98.5126642 C199.735995,98.5686642 199.654662,98.6726642 199.549328,98.7926642 C199.667328,99.1666642 199.677328,99.6433308 199.549328,100.252664 C199.955995,100.731331 200.103995,101.444664 199.789995,102.609997 C199.475995,103.775997 198.105328,105.386664 197.643328,105.907997 C197.652662,105.903331 197.661328,105.900664 197.670662,105.896664 C197.674662,105.894664 197.645995,105.933331 197.605995,105.984664 L197.644662,105.949331 C197.644662,105.949331 198.271328,106.841331 198.189995,107.339997 C198.123328,107.750664 197.221328,108.113331 196.907328,108.227331 C196.775328,108.601331 196.594662,108.969331 196.344662,109.258664 C195.867995,109.809331 194.556662,110.903331 193.758662,111.231331 C192.959329,111.558664 192.045329,112.167331 189.291329,112.787997 C186.118662,113.502664 180.542662,113.584664 178.227996,113.586664 C178.137996,113.735997 177.413329,114.916664 176.305329,115.935997 C175.709996,116.48333 174.851329,117.058664 174.231329,117.254664 C174.080662,117.301997 173.941996,117.338664 173.809996,117.367997 C173.811329,117.369997 173.813329,117.37133 173.814662,117.37333 C174.092662,117.841997 173.577996,119.197997 172.666662,119.658664 C173.258662,118.943997 173.006662,118.20933 172.814662,117.771997 C172.668662,118.36333 172.359329,119.28733 171.635329,120.065997 C171.134662,120.603997 170.845996,120.848664 170.481996,121.107997 C170.828662,120.68933 170.751329,120.43333 170.970662,119.963997 C171.273329,119.45533 170.571329,119.203997 170.803996,118.698664 C170.310662,119.61533 170.108662,120.57133 168.566662,121.249997 C167.351996,121.509997 166.751996,121.619997 165.699996,121.713997 C166.687996,121.383997 167.762662,120.876664 168.209329,120.395997 C168.327329,120.17533 169.055996,119.15733 169.001329,119.155997 C168.110662,120.11333 166.562663,120.45733 164.707329,120.57133 C165.607996,120.230664 166.305996,119.867997 166.697329,119.50933 C166.921329,119.30333 166.844662,119.086664 166.866662,118.849997 C166.722662,119.204664 166.365996,119.308664 165.502663,119.298664 C165.061329,119.292664 164.486663,119.331997 163.741996,119.205997 C165.665996,118.96733 165.555329,118.245997 165.711996,117.973997 C165.256663,118.102664 165.035996,118.531997 164.552663,118.500664 C163.917329,118.45733 163.481329,118.295997 162.907329,118.085997 C163.382663,118.082664 163.797996,118.082664 164.159996,117.96533 C164.565329,117.73933 164.569996,117.404664 164.703329,117.205997 C164.439329,117.344664 164.245996,117.579997 163.773329,117.589997 C163.212663,117.51933 162.923329,117.50133 162.411329,117.287997 C163.941329,117.35933 163.499996,116.419997 164.015329,116.33733 C164.017996,116.335997 163.965996,116.291997 163.891329,116.305997 C163.739329,116.333997 163.583996,116.65533 163.188663,116.716664 C162.799329,116.777997 162.172663,116.58133 161.890663,116.38333 C162.235996,116.468664 162.730663,116.375997 162.943329,116.163997 C163.102663,116.003997 163.143996,115.763997 163.123996,115.399997 C163.045329,115.325997 162.977329,115.263997 162.916663,115.20733 C162.040663,116.29133 160.382663,117.147997 157.303329,115.822664 C156.930663,115.66133 155.673329,114.529997 155.673329,114.529997 C155.673329,114.529997 155.815329,113.783997 156.016663,113.069331 C155.663996,112.772664 155.360663,112.498664 155.360663,112.498664 C155.360663,112.498664 155.639996,111.442664 155.900663,110.641997 C156.051996,110.176664 156.489329,109.608664 157.112663,109.322664 C157.239329,109.264664 157.383996,109.230664 157.539329,109.211997 C145.383996,99.1373309 138.212663,94.7226643 132.237997,94.7826643 C129.103997,94.813331 126.226664,96.3306643 124.532664,98.5466642 C122.912664,100.665331 121.65733,102.134664 119.709997,103.237997 C117.819997,104.508664 114.57533,104.523331 114.300664,104.540664 C112.346664,104.671331 111.393997,104.834664 107.947997,106.561331 C104.913997,108.081331 102.417997,109.460664 100.506664,110.977997 C100.484664,111.465997 100.463331,111.773331 100.454664,111.841331 C100.387331,112.339997 99.8846642,112.981331 99.4279975,113.600664 C98.9773309,114.21333 98.7773309,115.163997 97.8486642,115.22933 C97.5806642,115.248664 97.1833309,114.937997 96.9566642,114.73933 C96.7713309,114.937997 96.5846643,115.132664 96.3926643,115.318664 C96.3366643,115.923997 96.1699976,116.823997 95.6806643,117.314664 C95.6806643,117.314664 95.9233309,116.428664 95.7813309,115.86933 C95.7559976,115.891997 95.7293309,115.914664 95.7026643,115.936664 C95.5779976,116.469997 95.1779976,118.02533 94.5826643,118.727997 C94.5826643,118.727997 94.663331,117.753997 94.321331,117.13733 C94.321331,117.13733 94.1606643,119.08533 92.657331,120.66133 C92.657331,120.66133 93.0679977,118.864664 92.3046644,118.60533 C92.3046644,118.60533 91.901331,121.906664 90.2733311,123.406664 C90.2733311,123.406664 91.2706644,120.628664 89.9559978,119.931997 C89.9559978,119.931997 89.7346644,121.220664 89.1286644,122.21733 C89.1286644,122.21733 89.4259978,120.197997 88.7173311,120.074664 C88.7173311,120.074664 88.8053311,123.75933 85.9646645,124.898664 C85.9646645,124.898664 87.4799978,122.391997 86.2346645,120.849997 C86.2346645,120.849997 86.1073312,124.76333 83.4626646,126.701997 C83.4626646,126.701997 85.2719979,122.20933 83.8639979,121.046664 C83.8639979,121.046664 83.7159979,125.218664 80.8213313,126.222664 C80.8213313,126.222664 83.1133313,123.011997 80.605998,120.908664 C80.605998,120.908664 81.1113313,122.71533 79.3046647,124.004664 C79.3046647,124.004664 80.2713313,121.795997 78.1546647,120.509997 C78.1546647,120.509997 79.725998,123.64733 75.7279981,125.343997 C75.7279981,125.343997 77.6486647,124.063997 76.0833314,120.45333 C76.0833314,120.45333 75.9379981,121.813997 73.4386648,122.784664 C73.4386648,122.784664 75.1993315,119.87333 74.1866648,118.677997 C74.1866648,118.677997 72.8686648,120.383997 71.6346649,120.28133 C71.6346649,120.28133 72.8739982,119.468664 72.5526649,117.63333 C72.4126649,117.756664 72.2333315,117.89333 71.9633315,117.935997 C71.4726649,118.012664 70.6059982,118.149997 70.2499982,117.899997 C70.6853316,118.007997 71.3853315,117.50533 71.6539982,117.237997 C71.8359982,117.054664 71.8973315,116.790664 71.8893315,116.402664 C71.8179982,116.337997 71.7486649,116.27733 71.6753315,116.21133 C71.6693315,116.214664 71.6666649,116.218664 71.6593315,116.219997 C71.5406649,116.242664 71.4199982,116.491997 71.1126649,116.539997 C70.8099982,116.58733 70.3226649,116.434664 70.1026649,116.280664 C70.3713316,116.34733 70.7559982,116.27533 70.9219982,116.10933 C71.0226649,116.008664 71.0633316,115.866664 71.0673316,115.66533 C71.0133316,115.616664 70.9546649,115.564664 70.8999982,115.514664 C70.7253316,115.738664 70.2773316,116.165997 69.5666649,115.864664 C68.8739983,115.57133 68.8173316,114.708664 68.1653316,114.186664 C67.5139983,113.66533 66.666665,113.241997 66.5039317,112.492664 C66.4723983,112.347331 66.5051983,112.053997 66.5729317,111.635331 C64.1252651,109.481331 61.2189985,107.025997 57.8054652,104.439997 C55.3955986,102.959331 52.4317987,101.081997 49.2903321,98.6646642 C48.7835988,98.3273309 48.2307321,97.9359976 47.6663988,97.5206642 C44.9137989,98.6419975 38.3700657,100.919997 33.9169325,100.508664 C25.1989327,99.7006642 19.3413995,98.1053309 14.351333,101.857997 C13.557533,102.455331 13.219533,103.097331 13.0424663,103.419331 C13.0424663,103.419331 12.278933,102.623331 12.4494664,101.565331 C9.58413309,101.783331 5.64583319,107.677997 5.13958654,108.927331 C5.08177321,109.797331 5.09869987,110.739997 5.24895987,111.743331 C5.24895987,111.743331 3.07083326,109.467331 3.15260659,105.755331 C3.18958659,104.103997 3.63801991,102.763997 4.09244656,101.912664 C3.69479324,102.349997 3.25598659,102.845331 2.87838659,103.355331 C2.19296661,104.281997 1.25286664,106.063331 1.13281331,106.775997 C1.13281331,106.775997 0.653645984,100.657331 5.64088653,96.9953309 C7.36299982,95.7313309 8.95079978,95.1146643 10.2382664,94.8286643 C7.17813315,94.6286643 5.10416654,95.3933309 5.10416654,95.3933309 C5.10416654,95.3933309 8.42446646,92.7906643 12.7499997,92.953331 C14.660933,93.0259977 16.3927329,94.1219976 18.0281329,94.7146643 C21.1924661,95.8639976 27.551066,96.9306642 34.4710658,95.8806643 C38.4416657,95.277331 41.2434656,94.0926643 42.6447989,93.3866643 C42.0229323,92.5866644 41.3020656,91.3586644 41.0789323,90.8726644 C37.7721324,83.6619979 35.2083325,75.2079981 33.8236658,73.0679982 C33.1069992,71.9593315 30.2625326,69.3213316 28.4153326,67.5293316 C24.0491994,63.2937318 20.1718662,59.1549319 18.3145995,58.5689985 C16.1557329,57.8867319 16.0765329,57.3749986 15.5286663,55.3431986 C15.5286663,55.3431986 14.841133,52.1960654 13.7679997,49.3471321 C12.701533,46.5177322 5.38619987,30.5476659 5.2838532,30.3249992 C4.1377599,29.9101326 2.74505326,29.1965993 2.18645995,28.071066 C1.63151329,26.9549327 2.02395995,24.9343994 1.81744662,23.9739327 C1.59609329,22.9460661 1.26848663,22.3007994 0.584895985,21.6010661 C0.0067708665,21.0111995 -0.636718651,19.6640662 1.3067733,17.5481996 C1.78723996,17.0247329 2.09192661,16.3515329 2.30885328,15.6405996 C2.44140661,15.012533 2.7151066,13.6166663 3.09869992,11.1614664 C3.26145992,10.1184664 3.39192658,9.64659976 7.49739981,9.72706642 C8.67006645,9.75133309 8.99633311,10.1184664 8.99633311,10.1184664 C8.99633311,10.1184664 8.99919978,10.1393331 9.00259977,10.1687331 C9.26586644,10.0577997 9.61953309,9.91873309 9.81873309,9.89059975 C11.400533,9.66533309 13.1666663,9.86666642 13.410933,10.2577997 C13.715133,10.7447997 13.826533,12.0905997 13.5257997,13.190133 C13.1744663,14.4752663 11.1901331,17.0867329 10.7234664,17.9387996 C10.3835997,18.5577995 10.3971331,19.9257995 10.1054664,21.8991995 C9.92633309,23.1088661 10.4333331,24.4591327 10.7455997,25.7585994 C11.0468664,27.009866 11.5775997,28.2525993 12.0382664,29.5077993 C12.5103997,30.3437326 12.9611997,31.2681992 13.3163997,32.2499992 C13.856533,33.7403325 20.3666662,46.6210655 23.2671994,49.4791988 C25.2755327,51.4569987 41.382799,62.8692651 41.382799,62.8692651 C41.382799,62.8692651 42.4583323,62.2833318 43.6312656,62.5763318 C47.2359322,63.4773317 50.2809987,64.2377317 52.8749987,64.9525984 C53.5286653,64.4200651 54.271332,63.5645984 54.983332,62.1830651 C55.6335986,60.4057318 57.3059986,56.0859319 59.0793985,53.5580653 C61.3520651,50.3163987 63.3864651,47.2148655 63.2695318,45.3645989 C63.1525984,43.5137989 62.6965984,42.1791989 63.4244651,40.9565323 C64.1525984,39.7330657 67.8153316,38.8822657 72.1066649,37.1861991 C73.6393315,36.5815324 76.0119981,35.4049324 78.429998,34.1427325 L73.5399982,29.6999993 C72.6666649,29.4499993 70.0993316,28.6653326 69.1613316,27.8249993 C68.620665,27.339866 68.090665,26.5077993 67.646665,25.679666 C66.135665,24.8419327 64.5309984,24.5312661 63.5882651,23.7591327 C62.1809984,22.6088661 62.4505318,21.2877328 62.9971318,20.6822661 C63.8479317,19.7403328 64.736465,18.2734662 65.058865,17.4244662 C65.3893317,16.5541996 65.3747317,15.0390663 65.5637984,14.2976663 C65.689865,13.801533 66.3041983,12.700533 66.6369983,12.2181997 C66.886665,11.8554664 67.3259983,11.389333 67.8899983,11.1705997 C68.6453316,10.8749997 70.8759982,10.2989331 71.1366649,10.2572664 C71.6459982,10.1765331 71.7486649,10.3177331 71.7813315,10.4569997 C71.7999982,10.5403331 71.8513315,10.7603997 71.8866649,11.0976664 C72.3619982,10.8184664 72.8006648,9.95439975 73.2073315,9.77473309 C73.6153315,9.59453309 75.5393314,9.22266644 75.5393314,9.22266644 C76.7846647,8.83593311 77.9839981,12.1517997 75.4393314,15.104933 C73.9513315,16.8293996 74.0133315,17.8606662 74.0759981,18.9549329 C74.1346648,19.9629995 74.1753315,21.9343995 75.1153315,23.2069994 C75.3846648,23.3606661 75.6726648,23.5364661 75.9833314,23.7455994 C76.6833314,24.2161327 82.2013313,28.664066 84.8893312,30.6588659 C85.7033312,30.2075326 86.3606645,29.8393326 86.7773312,29.6054659 C86.8766645,28.9869993 87.0706645,28.3715993 87.4113311,27.8307326 C87.7046645,27.3645993 88.2633311,27.057266 88.8413311,26.853666 C88.8266644,26.2981993 88.8239978,25.3997327 88.9273311,24.7265327 C89.0726644,23.7721327 90.0613311,21.6517995 91.7666644,21.6353995 C93.0586643,21.6231995 93.391331,21.9817995 96.4506643,23.6549327 C98.2046642,24.6140661 99.0499975,25.1973994 100.209331,25.738266 C101.073997,26.1393327 102.111331,26.5155993 103.828664,27.0039327 C104.522664,27.2013327 105.591331,27.5703326 106.557997,27.7877326 C107.158664,27.9231993 107.164664,28.544266 107.164664,28.544266 C107.164664,28.544266 107.087331,29.2278659 106.143997,29.7559993 C106.072664,29.8093993 105.989331,29.8640659 105.899997,29.9174659 C106.103997,30.0793992 106.362664,30.3229326 106.347331,30.5151326 C106.322664,30.8325326 104.224664,32.8536658 101.357997,32.4140659 C98.4906642,31.9734659 94.723331,31.7377325 94.043331,31.9895992 C93.581331,32.1596659 93.237331,32.2781325 93.001331,32.3549325 C92.5606644,32.6231992 91.9226644,33.5046658 91.2466644,34.1114658 C90.9813311,34.3494658 90.5313311,34.6020658 90.0773311,34.8229325 C91.2219977,35.8593991 92.2746644,36.8445324 92.7539977,37.2942657 C93.055331,37.2377324 93.361331,37.2043991 93.6659977,37.2013324 C95.9146643,37.1718657 100.018664,41.6953323 100.342664,42.8229323 C100.654664,43.9088656 100.490664,44.4817989 100.498664,44.4947989 C103.333331,49.2200654 108.745331,56.4200653 110.392664,58.4057319 C110.537331,58.5807319 110.680664,58.7807319 110.835997,59.0260652 C111.527331,59.3059985 113.548664,60.1465985 115.123997,61.0137985 C115.674664,60.6023318 116.564664,60.1375318 118.016664,59.7096652 C120.74533,58.9062652 129.147997,56.4856653 132.873997,55.2122653 C135.545997,54.3007986 138.152663,53.2585987 140.20733,52.4231987 C140.20733,52.4231987 140.28733,52.3372654 140.40733,52.2312654 C140.40333,52.229932 140.399996,52.229932 140.395996,52.229932 C141.625996,51.1614654 148.00533,45.7221322 149.817996,44.6882655 C151.40333,43.7846656 154.316663,41.936199 157.873996,39.7364657 C158.651329,39.255199 158.691996,39.1848657 159.345329,38.683599 C159.381329,38.2708657 159.473329,37.8419324 159.657329,37.4005324 C160.082663,36.3741991 160.811329,35.8471324 161.561996,35.5867324 C161.569996,35.5789324 161.575329,35.5736658 161.575329,35.5736658 C161.575329,35.5736658 162.378663,33.9278658 162.659996,33.2963325 C164.089329,30.0963326 166.569996,30.0585992 169.714662,32.0841325 C171.519329,33.2465992 173.144662,33.6596658 174.444662,34.1054658 C175.464662,34.4565325 178.163996,35.1666658 180.040662,35.5619991 C181.010662,35.7655991 182.170662,36.0833324 182.628662,36.6583324 C183.195995,37.3684657 182.411995,38.123199 181.557995,38.755199 C181.485995,38.7994657 181.403329,38.8450657 181.316662,38.8927324 C180.987995,39.8289323 179.934662,40.387999 179.301996,40.649199 C177.538662,41.374999 174.735996,40.8528656 174.720662,40.859399 C174.297329,41.0338656 172.851329,41.304199 171.362662,41.1674656 C168.259329,40.882799 169.027996,40.481799 167.181996,40.678399 C166.473329,40.7539323 164.341329,42.9395989 163.985996,43.3080656 C162.597329,44.7819989 159.919996,47.5833321 158.026663,49.2950654 C155.784663,51.3210654 149.99733,56.0533986 148.30933,57.3749986 C148.000663,58.1002652 147.490663,58.9257985 146.57133,59.8523318 C145.595996,60.8346651 144.593996,61.4734651 143.693996,61.6658651 C142.954663,61.8241985 142.125996,61.7252651 142.125996,61.7252651 C142.125996,61.7252651 140.610663,63.1913984 138.453997,64.3588651 C137.160663,65.0593984 135.195997,66.1439983 134.223997,66.598465 C132.82533,67.3413316 132.287997,67.5859983 131.48133,68.050665 C131.027997,68.3113316 130.723997,68.5739983 130.517997,68.8253316 C136.178663,72.0299982 141.473996,75.5233314 144.342663,77.8899981 C150.15733,82.6859979 155.054663,89.5099978 162.067329,93.9939977 C162.810663,93.4459977 164.265329,93.0486643 165.542663,93.039331 C168.381996,93.0166643 173.501996,94.001331 175.577329,94.7039976 C176.629996,95.069331 178.783996,95.165331 180.016662,95.189331 C180.065329,95.1679976 180.109329,95.147331 180.143329,95.1259976 C180.437995,94.9379976 181.459329,94.725331 182.277329,94.2499976 C182.986662,93.839331 184.598662,93.323331 185.148662,93.0639977 C185.627329,92.839331 187.190662,92.2326644 188.531995,92.381331 C189.304662,92.4666644 189.815329,92.643331 190.431995,92.9426643 C191.203995,93.3179977 191.868662,94.2159976 192.614662,94.6546643 C193.401328,95.1166643 194.064662,95.2026643 194.890662,95.265331 C195.715995,95.3286643 197.705995,94.507331 198.483328,94.533331 C198.873995,94.5466643 199.507995,94.975331 199.623328,95.271331 C199.825328,95.7966643 199.492662,96.2786643 199.437995,96.4819976 C199.424662,96.5306643 199.362662,96.6153309 199.277328,96.7153309 C199.576662,96.8699976 199.861995,97.1119976 199.934662,97.3013309 C200.137328,97.8279976 199.805995,98.3086642 199.750662,98.5126642 Z M94.2319976,52.3450654 C92.005331,48.8887988 88.2999978,44.5455989 87.6013311,43.7330656 C86.5973312,43.5533989 84.3973312,43.0046656 82.4346646,40.420599 C82.3253313,40.2773323 82.2293313,40.1401323 82.1279979,39.999199 C81.3086646,40.5307323 80.597998,40.9760656 80.1973313,41.2013323 L79.6226647,41.5606656 C77.2626647,42.9231989 75.2239981,43.9825322 73.5246648,45.5825322 C72.4919982,46.5572655 71.0666649,50.7981987 70.7526649,52.3658654 C70.6239982,53.107532 70.7693316,55.235132 70.4339982,57.7755319 C70.0846649,60.1536652 69.7979983,61.9401318 69.5546649,63.2677318 C69.2146649,64.0593984 68.9533316,64.8575317 68.6686649,65.608065 C70.2426649,64.8359317 72.2099982,63.7989317 75.3086648,62.4991984 C75.4199981,62.4877318 82.7686646,59.4062652 98.2199975,59.3536652 C97.2966642,57.5658652 95.7779976,54.7468653 94.2319976,52.3450654 L94.2319976,52.3450654 Z" id="path14" fill="#231F20"></path>
                        <path d="M170.833996,110.039331 C170.177996,109.973331 169.569329,110.304664 169.221329,110.510664 C168.336662,111.033997 168.431996,112.216664 168.551329,112.833331 C168.627329,112.768664 168.707329,112.701331 168.795329,112.629997 C169.265329,112.243331 170.101329,111.635997 170.731996,111.438664 C170.739329,111.169331 170.762662,110.799331 170.801996,110.710664 C170.898662,110.489997 171.098662,110.300664 171.327329,110.183331 C171.177996,110.110664 171.013996,110.057331 170.833996,110.039331" id="path16" fill="#FFFFFF"></path>
                        <path d="M99.6393308,112.036664 C99.5553308,112.463331 99.3139975,112.753331 98.9239975,113.372664 C98.4793309,114.075997 98.4013309,114.64333 97.7993309,114.77333 C97.6313309,114.80933 97.2826642,114.588664 97.1719976,114.52933 C97.2606642,114.52733 97.5819976,114.610664 97.7586642,114.43133 C98.3866642,113.795997 97.1966642,107.784664 96.0566643,107.409997 C91.4366644,105.891331 71.3919982,107.637997 70.1046649,109.022664 C69.2406649,109.951331 69.6973316,114.968664 70.1326649,115.20533 C70.3253316,115.30933 70.4059982,115.09133 70.4059982,115.09133 L70.5766649,115.237997 C70.5766649,115.237997 70.2513316,115.685997 69.8433316,115.506664 C69.1879983,115.217997 69.1433316,114.31733 68.4919983,113.795997 C67.8399983,113.274664 67.5093316,113.173997 67.334665,112.573997 C67.1639983,111.987997 68.9646649,106.171331 68.116665,100.355997 C67.432665,95.6639976 64.7119984,92.487331 65.0377317,92.047331 C65.3577984,91.6146644 93.019331,86.6979978 93.335331,86.9153312 C94.8999976,87.9906645 97.7833309,94.295331 98.6633309,98.8893309 C99.4819975,103.171997 99.7446642,111.513331 99.6393308,112.036664 L99.6393308,112.036664 Z M91.1286644,99.0419975 L91.0353311,98.9779975 L90.9219977,98.9673309 L90.5466644,98.9306642 C90.3906644,98.9179975 90.2626644,98.9033309 90.1959977,98.8813309 C90.1253311,98.8566642 90.1366644,98.8539975 90.1226644,98.8373309 C90.0486644,98.7379975 89.9113311,98.2726642 89.8193311,97.7219976 C89.7193311,97.1626642 89.6333311,96.4906643 89.5519978,95.8493309 L89.3046644,93.9179977 C89.1079978,92.4046644 88.7026644,90.9533311 87.5999978,90.0239977 C86.7439978,89.3113311 85.6959979,89.0626644 84.7153312,89.0626644 C84.4459979,89.0626644 84.1819979,89.0819978 83.9246646,89.1139978 C82.3446646,89.3146644 81.1793313,89.8099978 80.4266647,90.7406644 C79.865998,91.4319977 79.6186647,92.351331 79.619998,93.4619977 C79.619998,93.781331 79.6446647,94.123331 79.6833313,94.4779976 C79.641998,94.4826643 79.6013313,94.485331 79.5593313,94.4906643 C77.7573314,94.7159976 76.3299981,95.4819976 75.3973314,96.7759976 C74.6466648,97.8093309 74.2639981,98.9953309 74.2653315,100.281997 C74.2653315,100.577331 74.2853315,100.878664 74.3253315,101.183997 C74.5299981,102.817997 75.2639981,104.207331 76.4893314,105.272664 C77.5179981,106.176664 78.7333314,106.645997 80.063998,106.642664 C80.3226647,106.642664 80.5873313,106.625997 80.8553313,106.589997 C81.905998,106.457331 82.9313313,106.050664 83.9199979,105.389331 C83.9673312,105.439331 84.0153312,105.490664 84.0646646,105.542664 C84.2679979,105.740664 84.4059979,105.929331 84.7833312,105.959331 C84.7946645,105.959331 84.8233312,105.959331 84.8606645,105.954664 C85.0259979,105.935331 85.2759979,105.862664 85.4139979,105.578664 C85.4799979,105.390664 85.4646645,105.313331 85.4719979,105.154664 C85.4719979,105.071331 85.4686645,104.977331 85.4626645,104.861997 L85.2959979,102.287331 L85.2673312,101.938664 C85.2473312,101.790664 85.2053312,101.629997 85.0806645,101.483331 C84.9586645,101.332664 84.7426645,101.249997 84.5733312,101.256664 C84.5353312,101.256664 84.5039979,101.259331 84.4699979,101.263331 C84.0839979,101.317331 83.9059979,101.652664 83.8506646,101.900664 C83.7179979,102.439331 83.4186646,103.093997 82.9426646,103.845997 C82.5033313,104.527331 81.9606646,104.876664 81.193998,104.981997 C81.075998,104.997331 80.9626646,105.003997 80.8553313,105.003997 C80.435998,105.003331 80.0873313,104.900664 79.7673313,104.692664 C79.345998,104.418664 78.981998,104.008664 78.675998,103.433331 C78.3753314,102.866664 78.161998,102.145331 78.0486647,101.263997 C77.9986647,100.872664 77.9739981,100.502664 77.9739981,100.153331 C77.9739981,99.1533309 78.173998,98.3279975 78.555998,97.6526642 C78.933998,96.9973309 79.3753313,96.5806643 79.9166647,96.3479976 L80.2306647,98.8059975 C80.291998,99.2753309 80.3226647,99.6133308 80.3213313,99.8366642 C80.3193313,100.139997 80.2733313,100.169997 80.2726647,100.171331 C80.273998,100.181997 80.147998,100.247331 79.871998,100.325331 L79.467998,100.449997 L79.3826647,100.560664 C79.2653314,100.715997 79.2406647,100.869997 79.237998,101.007331 C79.253998,101.239997 79.289998,101.525997 79.6786647,101.699997 L79.787998,101.737997 L79.9013313,101.717997 C80.535998,101.603331 81.257998,101.495331 81.965998,101.404664 C82.6893313,101.311997 83.4153312,101.235331 84.1266646,101.177997 L84.2406646,101.167997 L84.3359979,101.104664 C84.5806646,100.925997 84.6093312,100.705331 84.6139979,100.538664 C84.6066646,100.331997 84.5606646,100.120664 84.3373312,99.9293308 L84.2186646,99.8366642 L84.0679979,99.8346642 L83.7019979,99.8333308 C83.5119979,99.8346642 83.3826646,99.8253308 83.3306646,99.8113308 C83.2786646,99.7926642 83.3073313,99.8093308 83.2779979,99.7786642 C83.2146646,99.7166642 83.0906646,99.2986642 82.9906646,98.4526642 L82.7899979,96.8773309 C83.0533313,97.0846642 83.3206646,97.3326642 83.5946646,97.6353309 C83.7539979,97.8059976 83.9359979,97.9773309 84.2546646,97.9893309 C84.2759979,97.9893309 84.3119979,97.9879976 84.3359979,97.9839976 C84.4746646,97.9666642 84.6393312,97.9139976 84.7713312,97.7786642 C84.9046645,97.6426642 84.9559979,97.4533309 84.9526645,97.3073309 C84.9526645,97.2639976 84.9493312,97.2313309 84.9453312,97.1926642 C84.8913312,96.8386642 84.6899979,96.5759976 84.4119979,96.2826643 C84.1293312,95.9919976 83.7459979,95.6806643 83.2519979,95.3333309 C83.0246646,95.171331 82.7859979,95.0346643 82.5399979,94.9166643 L82.5166646,94.7366643 C82.4686646,94.3619976 82.4426646,93.9986643 82.4426646,93.6546643 C82.4413313,92.8386643 82.5939979,92.143331 82.9153313,91.657331 C83.2393313,91.1746644 83.7119979,90.8493311 84.5433312,90.7353311 C84.6926645,90.7166644 84.8333312,90.7073311 84.9679979,90.7073311 C85.7539979,90.7159977 86.2753312,90.9953311 86.7086645,91.543331 C87.1353312,92.0946644 87.4333311,92.9519977 87.5713311,94.0419976 L87.8299978,96.0699976 C87.9319978,96.8593309 88.0393311,97.7726642 88.0379978,98.4119975 C88.0426645,98.7473309 87.9953311,99.0179975 87.9633311,99.0726642 C87.9273311,99.1566642 87.8513311,99.2393309 87.4919978,99.3499975 L87.0619978,99.4699975 L86.9806645,99.5533308 C86.8253312,99.7119975 86.7786645,99.8993308 86.7773312,100.063331 C86.7799978,100.304664 86.8846645,100.653331 87.3119978,100.752664 L87.3886645,100.765997 L87.4659978,100.749997 C88.0033311,100.649331 88.6093311,100.555997 89.2346644,100.475997 C89.9093311,100.389997 90.3366644,100.351331 90.9366644,100.307331 L91.0753311,100.296664 L91.1833311,100.208664 C91.3846644,100.035997 91.4299977,99.8333308 91.433331,99.6499975 C91.4306644,99.4493308 91.3666644,99.2119975 91.1286644,99.0419975 L91.1286644,99.0419975 Z" id="path18" fill="#FFFFFF"></path>
                        <path d="M64.2749984,91.493331 C63.7195317,91.9479977 62.9515318,91.9259977 62.5593984,91.4466644 C62.2853984,91.1106644 62.2736651,90.6413311 62.4789318,90.2326644 C61.4020651,89.5766644 60.8645985,89.6013311 59.8815318,89.7253311 C58.8551985,89.8559978 58.0815319,89.5219978 56.9736652,89.0173311 C55.8655986,88.5119978 55.006532,88.8093311 55.006532,88.8093311 L55.7515319,88.3086645 C57.3278652,88.1493311 58.2687319,88.8826644 58.2687319,88.8826644 C58.2687319,88.8826644 58.0364652,87.5386645 56.7171986,87.2946645 L57.1931986,86.6833312 C59.1973985,86.8299978 60.3129985,87.7626645 60.3129985,87.7626645 C59.9221318,86.4593312 59.3439985,85.6206645 56.6559986,85.5226645 L56.1674653,85.1193312 C56.1674653,85.1193312 58.2627319,84.4293312 60.4557318,85.9379979 C61.8439985,86.8933312 62.8809984,89.2419978 63.0453318,89.6286644 C63.5757984,89.3146644 64.2241984,89.3753311 64.5731984,89.8033311 C64.964865,90.2833311 64.8315317,91.0399977 64.2749984,91.493331" id="path20" fill="#FFFFFF"></path>
                        <path d="M93.7906643,85.7093312 C93.141331,86.0153312 92.401331,85.8073312 92.137331,85.2473312 C91.9546644,84.8566645 92.0559977,84.4006646 92.3499977,84.0553312 C91.959331,83.7299979 90.6126644,82.6659979 89.1319978,82.0773313 C87.9393311,81.6026646 84.9453312,81.131998 84.9453312,81.131998 L86.2319978,80.4966647 C87.5033311,80.5133313 89.3766644,81.2953313 89.3766644,81.2953313 C89.0179978,80.023998 87.2506645,79.571998 87.2506645,79.571998 L87.7966645,79.0466647 C89.7639978,79.5066647 91.4906644,81.367998 91.4906644,81.367998 C91.4906644,81.367998 91.3686644,78.9246647 88.2199978,77.6786647 C88.2146645,77.6759981 88.2199978,77.0266647 88.2199978,77.0266647 C88.4499978,77.1153314 90.3739977,77.5539981 91.625331,79.3893313 C92.7439977,81.0306646 93.015331,83.2406646 93.0526643,83.6013312 C93.643331,83.4266646 94.2559976,83.6433312 94.4906643,84.1419979 C94.7539976,84.7033312 94.4406643,85.4046645 93.7906643,85.7093312" id="path22" fill="#FFFFFF"></path>
                        <path d="M197.781328,99.9413308 C197.742662,99.9506642 197.705328,99.9599975 197.673995,99.9679975 C197.533995,99.7879975 197.323995,99.5626642 197.077995,99.3453308 C197.352662,99.4186642 197.592662,99.5079975 197.835995,99.6079975 C197.831328,99.7073308 197.811328,99.8199975 197.781328,99.9413308" id="path24" fill="#FFFFFF"></path>
                        <path d="M191.535995,99.8106642 C190.975329,100.115997 190.319329,100.469997 189.691995,100.790664 C189.469329,100.515331 189.315329,100.242664 189.211995,99.9699975 C189.243995,99.8719975 189.311329,99.7866642 189.373329,99.7199975 C190.054662,99.6206642 190.668662,99.5366642 191.233995,99.4653308 C191.371329,99.5633308 191.457329,99.7106642 191.535995,99.8106642" id="path26" fill="#FFFFFF"></path>
                        <path d="M191.619995,99.4240899 C191.785329,99.4022525 191.949995,99.3796622 192.105329,99.3593308 C192.171329,99.3721321 192.239329,99.3826742 192.319329,99.3841802 C192.101329,99.5189694 191.838662,99.68162 191.551329,99.8593308 C191.507329,99.6703248 191.552662,99.5272525 191.619995,99.4240899" id="path28" fill="#FFFFFF"></path>
                        <path d="M187.187329,100.055997 C187.746662,99.9659975 188.272662,99.8846642 188.769329,99.8099975 C188.860662,99.8459975 188.935995,99.8959975 188.998662,99.9526642 C189.105995,100.261331 189.269329,100.569997 189.515329,100.880664 C188.835995,101.224664 188.211995,101.515331 187.807329,101.646664 C187.520662,101.280664 187.270662,100.767331 187.069329,100.214664 C187.102662,100.154664 187.145995,100.101331 187.187329,100.055997" id="path30" fill="#FFFFFF"></path>
                        <path d="M184.914662,100.430664 C185.511329,100.329331 186.073995,100.235997 186.611995,100.147997 C186.751995,100.209331 186.849995,100.308664 186.930662,100.400664 C187.117995,100.890664 187.344662,101.345331 187.605329,101.701997 C187.569329,101.709997 187.531329,101.719331 187.501995,101.721331 C187.032662,101.765331 186.305329,101.924664 185.567995,101.934664 C185.269995,101.546664 185.019995,101.049331 184.825995,100.528664 C184.849995,100.489997 184.879995,100.457331 184.914662,100.430664" id="path32" fill="#FFFFFF"></path>
                        <path d="M184.639329,100.586664 C184.819329,101.071997 185.048662,101.539331 185.322662,101.930664 C184.772662,101.909331 184.231995,101.788664 183.802662,101.451997 C183.523995,101.233997 183.342662,100.984664 183.236662,100.719997 C183.664662,100.644664 184.081329,100.572664 184.481995,100.503997 C184.535329,100.517997 184.585995,100.542664 184.639329,100.586664" id="path34" fill="#FFFFFF"></path>
                        <path d="M184.230662,100.349331 C183.888662,100.407331 183.537329,100.468664 183.177329,100.531331 C183.078662,100.158664 183.111329,99.7613308 183.230662,99.3726642 C183.231329,99.3713308 183.227329,99.3706642 183.226662,99.3693308 C183.259329,99.3053309 183.295329,99.2433309 183.337329,99.1866642 C183.523995,98.9339975 183.789995,98.7053309 184.161329,98.4726642 C184.186662,98.8906642 184.283329,99.4299975 184.446662,99.9946642 C184.416662,100.169331 184.322662,100.279997 184.230662,100.349331" id="path36" fill="#FFFFFF"></path>
                        <path d="M186.451995,99.9759975 C185.934662,100.060664 185.396662,100.150664 184.825995,100.247331 C184.773329,100.208664 184.725995,100.159997 184.684662,100.109331 C184.479995,99.4506642 184.359995,98.8033309 184.348662,98.3593309 C184.367995,98.3486642 184.381995,98.3379975 184.401329,98.3279975 C184.885995,98.0579975 185.612662,97.8633309 186.320662,97.8199976 C186.353329,98.3126642 186.486662,99.0319975 186.707995,99.7586642 C186.640662,99.8573308 186.535995,99.9259975 186.451995,99.9759975" id="path38" fill="#FFFFFF"></path>
                        <path d="M187.022662,99.8833308 C186.984662,99.8606642 186.952662,99.8293308 186.923995,99.7926642 C186.689995,99.0499975 186.545995,98.3026642 186.515329,97.8113309 C187.249995,97.7926642 188.075329,97.8726642 188.769329,98.0699975 C188.779995,98.5219975 188.779995,98.9866642 188.868662,99.4573308 C188.809329,99.5299975 188.730662,99.5859975 188.660662,99.6273308 C188.146662,99.7053308 187.603995,99.7899975 187.022662,99.8833308" id="path40" fill="#FFFFFF"></path>
                        <path d="M191.005329,99.2966642 C190.454662,99.3673308 189.855329,99.4506642 189.199329,99.5473308 C189.137995,99.5079975 189.089995,99.4439975 189.053329,99.3773308 C188.981329,98.9653309 188.975995,98.5513309 188.965329,98.1286642 C189.049329,98.1573309 189.132662,98.1859975 189.211995,98.2173309 C189.854662,98.4766642 190.559995,98.8299975 191.231995,99.0879975 C191.188662,99.1979975 191.087995,99.2599975 191.005329,99.2966642" id="path42" fill="#FFFFFF"></path>
                        <path d="M196.628662,98.9879975 C196.819995,98.9373309 197.175995,98.8486642 197.522662,98.7639975 C197.667328,98.9399975 197.789328,99.1319975 197.825328,99.3933308 C197.497995,99.2626642 197.160662,99.1486642 196.735995,99.0686642 C196.699328,99.0426642 196.665328,99.0139975 196.628662,98.9879975" id="path44" fill="#FFFFFF"></path>
                        <path d="M92.0799977,117.508664 C91.8026644,117.633997 91.4519977,117.779997 91.0459977,117.935997 C88.5753311,118.707997 84.8306645,119.421997 81.3686646,119.597997 C79.1733314,119.709997 77.3459981,119.27333 75.8933314,118.65333 C75.8913314,118.651997 75.8893314,118.650664 75.8873314,118.64933 C73.7439982,117.290664 72.6059982,116.238664 70.4819982,114.225997 C70.2166649,112.982664 70.2613316,110.299997 70.7393316,109.967331 C72.2419982,108.924664 90.9106644,106.797331 95.4859976,108.321997 C96.6106643,108.696664 97.1199976,112.401331 97.2319976,113.354664 C95.6606643,115.17333 94.6186643,116.366664 92.0799977,117.508664" id="path46" fill="#F46F1B"></path>
                        <path d="M198.969995,99.3059975 L198.785995,99.4726642 C198.630662,99.5506642 198.433328,99.6053308 198.309995,99.4973308 C198.274662,99.4673308 198.248662,99.4439975 198.227995,99.4179975 L198.164662,99.2226642 C198.161995,99.1819975 198.159995,99.1346642 198.159995,99.0739975 C198.159995,98.8613309 198.171328,98.6159975 198.171328,98.6159975 C198.171328,98.6159975 198.159328,98.6133309 198.141995,98.6119975 C198.319328,98.5686642 198.437995,98.5406642 198.437995,98.5406642 C198.437995,98.5406642 198.159995,98.5239975 197.791995,98.5219975 L197.263995,98.4613309 L197.322662,98.5286642 C197.080662,98.5373309 196.833328,98.5533309 196.617995,98.5859975 C196.416662,98.6166642 196.215328,98.6439975 196.016662,98.6679975 C195.933328,98.6373309 195.849995,98.6113309 195.765328,98.5946642 C195.046662,98.4513309 194.028662,98.6779975 193.387995,98.8846642 C192.978662,98.8953309 192.499995,98.8773309 191.955995,98.7799975 C191.122662,98.6299975 190.226662,98.0379975 189.535329,97.8139976 C188.783329,97.5713309 187.803995,97.3286642 186.825329,97.4106642 C186.305329,97.4533309 185.299329,97.5333309 184.295329,98.0379975 C182.302662,99.0406642 182.302662,99.8286642 182.302662,99.8286642 C182.197995,100.458664 182.389995,100.891997 182.725995,101.389331 C183.345329,102.305331 184.333995,102.714664 185.916662,102.682664 C186.766662,102.665331 187.363329,102.461997 188.056662,102.284664 C188.791995,102.098664 189.740662,101.501331 190.296662,101.202664 C190.852662,100.903331 192.647329,99.8653308 193.449995,99.6679975 C194.253328,99.4699975 195.009328,99.2719975 195.877328,99.6179975 C196.745328,99.9633308 197.380662,100.793331 197.537995,101.177997 C197.694662,101.563997 197.885328,102.107331 197.893328,102.725331 C197.902662,103.343997 197.609328,104.394664 197.537328,104.575331 C197.461995,104.755331 196.989328,106.008664 196.989328,106.008664 C196.989328,106.008664 198.072662,104.372664 198.291328,102.828664 C198.504662,101.313997 198.109328,100.701997 197.915328,100.357997 L198.027328,100.454664 C198.027328,100.454664 198.602662,100.617997 198.858662,100.857331 C199.280662,101.247997 199.197328,101.669997 199.257328,102.215997 C199.412662,103.618664 198.069328,105.378664 197.627328,105.913997 C194.771328,107.106664 192.229995,107.843997 190.145329,108.461331 C192.553329,108.296664 194.349995,107.609331 197.335995,106.329331 C197.335995,106.329331 197.341995,106.322664 197.347328,106.315997 C197.348662,106.317997 197.351328,106.320664 197.352662,106.322664 C196.846662,106.713331 193.937328,108.873997 191.061329,109.300664 C189.559329,109.523997 188.517995,108.784664 189.684662,107.918664 C190.537995,107.403331 193.069995,106.916664 196.976662,105.971331 C196.801328,105.980664 196.210662,105.979331 196.042662,105.990664 C191.262662,106.282664 189.234662,107.043331 188.511329,107.811331 C188.045995,107.985331 187.038662,108.322664 185.883995,108.461331 C183.967329,108.691331 181.425995,109.451997 181.425995,109.451997 C181.425995,109.451997 183.517995,109.007997 186.080662,109.007997 C186.923329,109.007997 187.829329,108.760664 188.169995,108.658664 C188.219329,109.251997 188.807329,109.728664 189.085329,109.815331 C189.635329,109.986664 190.422662,109.714664 191.214662,109.623331 C192.053995,109.525997 193.485995,108.911997 194.342662,108.452664 C195.323995,107.926664 196.981995,106.653331 197.359328,106.331331 C197.506662,106.508664 197.900662,107.020664 197.791995,107.308664 C197.690662,107.575997 197.171328,107.988664 196.927995,108.171997 C197.215328,107.323997 197.251995,106.467997 197.251995,106.467997 C197.251995,106.467997 196.754662,107.641997 195.910662,108.410664 C195.392662,108.883331 194.413995,109.896664 193.671328,110.304664 C192.928662,110.712664 190.639329,111.481331 189.833329,111.808664 C189.025995,112.134664 186.277329,112.604664 184.590662,112.766664 C183.972662,112.825331 177.173329,113.580664 177.173329,113.580664 C177.173329,113.580664 177.567996,113.586664 178.225996,113.586664 C178.119329,113.728664 177.277329,114.815997 175.888662,115.676664 C175.155996,116.129997 174.193996,116.519997 173.261329,116.67533 C172.950662,116.726664 172.731996,116.761997 172.577996,116.783997 C173.757329,115.811997 174.290662,115.149997 174.290662,115.149997 C174.290662,115.149997 171.447329,116.839997 170.153329,117.28533 C168.479329,117.858664 166.967996,117.580664 165.704663,116.852664 C164.616663,116.22533 163.539329,114.767997 163.363996,114.524664 C163.749329,113.798664 163.849996,113.149997 163.849996,113.149997 C163.849996,113.149997 162.251329,116.996664 157.450663,114.93333 C156.966663,114.72533 156.894663,114.50133 156.647996,114.300664 C156.511329,114.189997 156.908663,113.308664 157.047996,112.944664 C157.179996,112.603331 157.246663,112.011997 158.079329,111.940664 C158.707329,111.887997 159.731996,112.073997 160.225329,112.309331 C161.433329,112.887997 161.491996,112.801331 161.515329,112.137997 L161.573996,112.143331 C161.573996,112.143331 160.483996,110.969331 158.711996,109.249331 C158.565329,109.107997 158.415329,108.963331 158.260663,108.813997 C158.243329,108.797997 158.227329,108.782664 158.209996,108.766664 C158.209329,108.765997 158.209329,108.765331 158.209329,108.765331 C155.231996,105.913331 150.65333,101.849997 146.037996,99.0033309 C140.042663,95.307331 136.392663,93.511331 132.28733,93.4139977 C130.967997,93.3826643 127.888663,93.8866643 125.444664,95.9393309 C122.389997,98.5053309 121.66533,101.543331 119.058664,102.716664 C116.451997,103.889331 114.887997,103.530664 113.348664,103.775331 C112.561997,103.899997 111.511997,103.863331 107.409997,105.925997 C104.752664,107.262664 102.519997,108.561331 100.539331,110.146664 C100.625997,107.667997 100.684664,102.981997 100.226664,99.4273308 C99.7319975,95.5813309 96.4833309,87.5453311 94.603331,85.5699979 C95.1526643,85.0613312 95.5439976,84.3406646 95.301331,83.8233312 C95.0706643,83.3326646 94.3319976,83.1546646 93.6226643,83.2146646 C93.659331,82.7573313 93.7566643,80.829998 92.9199977,79.3073314 C91.345331,76.4393314 87.6173311,76.3426648 87.6173311,76.3426648 C87.6173311,76.3426648 87.6773311,78.0013314 87.6819978,78.003998 C89.1319978,78.6393314 89.4259978,79.029998 89.4259978,79.029998 C89.4259978,79.029998 89.0019978,78.7046647 87.6259978,78.4033314 L86.3633312,79.779998 C86.3633312,79.779998 86.9086645,79.8366647 87.3893311,80.1953313 C87.3893311,80.1953313 87.0139978,80.015998 86.1186645,80.007998 L83.6586646,81.375998 C83.6586646,81.375998 87.2593312,81.987998 88.3826645,82.3539979 C89.4539978,82.7026646 90.7853311,83.3619979 91.8006644,84.3893312 C91.6646644,84.7346645 91.6546644,85.1113312 91.813331,85.4486645 C91.819331,85.4619979 91.829331,85.4713312 91.8359977,85.4846645 C86.0426645,86.3593312 71.0593316,89.0079978 65.283865,90.2159977 C65.359665,89.7693311 65.3171984,89.3419978 65.0843984,89.0786644 C64.7039317,88.6473311 63.9413984,88.7733311 63.2882651,89.1059978 C63.1718651,88.5526645 62.7247318,86.7993312 61.5533985,85.6293312 C59.2390652,83.3166646 55.1122653,84.9779979 55.1122653,84.9779979 L56.5041986,85.9539979 C57.2669319,85.9379979 57.7799319,86.2379978 57.7799319,86.2379978 C57.4804652,86.1273312 56.8757986,86.2146645 56.8757986,86.2146645 L55.9309986,87.5179978 C56.2898653,87.5506645 56.5989319,87.7953311 56.5989319,87.7953311 C56.3875319,87.7106645 55.6796653,87.8046645 55.5549319,87.8359978 L53.6499987,89.3426644 C53.6499987,89.3426644 55.5419319,88.9059978 56.2879986,89.2093311 C57.0749986,89.5299978 57.5807319,89.9193311 59.1083319,90.1526644 C60.3023318,90.3346644 60.7713318,89.6159978 62.0460651,90.5299977 C61.9549318,90.9606644 62.0382651,91.3999977 62.3252651,91.725331 C62.6083318,92.045331 63.0255318,92.1839977 63.4569984,92.153331 C64.4580651,94.0506643 66.5973983,97.5966642 67.090665,101.023331 C67.6799983,105.119997 67.092665,108.672664 66.730665,110.726664 C64.4109317,108.623997 61.4458651,106.077331 57.8531319,103.409997 C56.6208653,102.495331 54.8679986,101.370664 53.269532,100.410664 L47.6804655,96.4373309 C44.8013322,94.1779976 42.8367323,92.4886644 40.7950656,87.3946645 C39.5247323,84.2266646 38.0484657,79.233998 36.2117324,75.3673314 C38.221599,77.4819981 40.405199,79.779998 40.405199,79.779998 C40.405199,79.779998 40.1497323,77.5186647 32.9710658,70.6026649 C32.1387992,69.7259983 31.1106659,68.6933316 29.9793993,67.5293316 C25.259666,62.6705984 21.9749995,58.3158652 18.4611995,57.2989319 C16.6632663,56.7781319 16.7017996,52.8020653 14.8577996,48.6387988 C13.0554663,44.5684656 7.24819982,31.3931992 6.98826649,30.8041992 C7.00026649,30.8072659 7.00859982,30.8077992 7.00859982,30.8077992 C7.00859982,30.8077992 6.99999982,30.8041992 6.98486649,30.7968659 C6.98179983,30.7903326 6.97606649,30.7760659 6.97606649,30.7760659 L6.90393316,30.7572659 C6.46536651,30.5351326 4.72031322,29.5815326 3.52213325,27.9083326 C2.8544266,26.976066 2.8401066,25.709666 2.72161327,24.794266 C2.7539066,24.0859327 2.84687326,22.4739328 3.04869992,21.8223995 C3.04869992,21.8223995 2.6679666,22.5468661 2.38437327,23.2603994 C2.17629995,22.5085994 1.92812662,21.8919328 1.58359329,21.5234661 C0.712759982,20.5924662 0.834113312,19.5177328 2.26796661,18.0046662 C3.67864657,16.5151329 3.53541991,13.282533 4.19114656,11.719533 C4.58853989,11.4486664 4.94947988,11.6236664 5.20025987,11.846333 C5.81927319,12.3958664 6.82653316,13.548933 7.85106647,13.2200663 C8.85313311,12.8984663 9.03726644,11.6999997 9.04273311,10.8905997 C9.17966644,10.8494664 9.3101331,10.8125331 9.40339976,10.8020664 C9.69659976,10.7708664 9.77813309,11.2591331 10.1689997,11.9434664 C10.6484664,12.7819997 11.1140664,13.3158663 11.7981997,13.343733 C12.5804664,13.3770663 13.219533,12.4517997 13.219533,12.4517997 C13.2916663,14.0468663 10.8244664,16.5963329 10.2017997,17.6783996 C9.84346642,18.2994662 9.74559976,19.9908662 9.49346643,21.6921995 C9.2927331,23.0476661 9.89373309,24.4460661 10.1921997,25.615866 C10.4129997,26.4843993 10.6403331,27.1361993 10.8155997,27.5781326 C9.90599975,26.283866 9.1591331,25.4817994 9.1591331,25.4817994 C9.1591331,25.4817994 11.5335997,29.3801993 12.3517997,32.2755325 C13.1708663,35.1705991 20.3997328,48.4681988 22.6153328,50.5541987 C24.5859327,52.4088654 40.1122657,63.6523317 40.1122657,63.6523317 C39.6013323,63.9681984 38.9450657,64.8841317 38.645599,65.3275984 C39.4575323,64.3119984 42.0137989,63.5736651 42.9468656,63.6523317 C44.1197989,63.7499984 49.4635321,65.052865 56.6315319,67.3333317 C60.2939985,68.4979983 63.1575318,69.4639983 65.1705984,71.3166649 C65.7833317,71.9606649 66.3393317,72.6459982 66.810665,73.3546648 C67.666665,74.8166648 68.2319983,76.6899981 68.4919983,79.1926647 C68.7439983,82.4213313 66.992665,86.6226645 66.992665,86.6226645 C66.992665,86.6226645 70.7679982,83.7199979 69.9346649,74.9626648 C69.7986649,73.5313315 70.1673316,72.1599982 73.0013315,69.1359983 C73.1226648,69.0079983 73.3266648,68.7899983 73.5753315,68.5273316 C76.7986647,65.967465 80.8306646,64.1770651 83.6093312,63.5528651 C86.9519978,62.8007984 94.7366643,62.0937318 98.7986642,62.1731984 C98.7899975,62.3497318 98.7879975,62.5260651 98.8026642,62.7005318 C98.9566642,64.6296651 99.8846642,67.2199983 99.8846642,67.2199983 C99.8846642,67.2199983 97.5553309,66.3393317 95.4033309,66.2239317 C85.8139979,65.7083317 79.8953313,68.3439983 79.8953313,68.3439983 C87.6659978,66.3893317 93.5139977,67.0713317 95.5986643,67.4619983 C97.6846642,67.852665 99.1866642,68.9026649 101.073997,72.6773315 C101.856664,74.2406648 104.071331,78.4766647 104.071331,78.4766647 C104.071331,78.4766647 102.670664,74.6966648 102.475331,72.7906648 C102.279997,70.3473316 100.275331,66.2903317 99.6546642,62.6166651 C99.3753308,60.9557318 100.226664,59.0898652 100.226664,59.0898652 C100.035331,59.3132652 99.8253308,59.5859318 99.6259975,59.8905985 C99.0753309,58.8901319 95.7299976,52.8372653 94.8826643,51.628932 C91.3639977,46.6114655 87.4866645,42.6367323 87.4866645,42.6367323 L87.4866645,42.6744656 C86.4566645,42.4635323 85.9846645,42.7338656 83.7633312,40.6158657 C82.0566646,38.989599 80.7786646,36.6145991 80.4293313,34.2075325 C80.1846647,32.5293992 82.0313313,32.8520658 82.0313313,32.8520658 C82.0313313,32.8520658 79.581998,31.6431992 79.537998,33.7773325 L74.4506648,29.2882659 C74.4506648,29.2882659 70.8153316,28.2395993 69.8073316,27.4569993 C68.7359983,26.627066 66.4989317,23.1848661 66.4989317,23.1848661 C66.4989317,23.1848661 66.8173317,24.0195327 67.302665,25.0103994 C66.370865,24.1653327 64.9257984,24.1817994 64.0333317,23.2882661 C62.8554651,22.1119994 63.2864651,21.2096661 64.0872651,20.4973995 C64.8879984,19.7882662 65.729665,17.9096662 65.995865,17.0181996 C66.2101317,16.2994663 66.139065,14.9864663 66.5127317,14.1835996 C66.7433317,13.687533 67.2293317,12.841133 67.5599983,12.9166663 C68.2839983,13.083333 69.6313316,15.072933 70.5379982,14.8861996 C71.8086649,14.6257996 71.9139982,12.891133 71.9319982,12.0715997 C72.2799982,11.7546664 72.6613315,11.2773331 73.0706648,11.3984664 C73.5033315,11.5267997 73.5219982,12.0098664 73.7366648,12.4132664 C74.3733315,13.612733 75.1133315,13.6536663 75.4513314,13.5872663 C75.8839981,13.4999997 76.2379981,12.8723997 76.4846648,12.2103997 C76.4126648,12.6934663 76.2373314,13.3103997 76.0626648,13.6062663 C75.5706648,14.4387996 74.9886648,15.1197996 74.2313315,16.0971329 C73.4733315,17.0736662 73.5753315,17.9569996 73.6046648,18.7572662 C73.6339982,19.5567995 73.6859982,20.7031328 73.8246648,21.3736661 C73.9073315,21.7681995 74.1459981,22.4166661 74.2853315,22.7793994 C73.3786648,22.3640661 72.8706648,22.3059994 72.8706648,22.3059994 C72.8706648,22.3059994 83.3859979,30.4681992 85.6259979,32.1127325 C87.6413311,33.5905992 91.0739977,36.9291991 91.743331,37.5853991 C91.2193311,37.7851324 90.7319977,38.0489324 90.3226644,38.3520657 C90.3226644,38.3520657 92.091331,37.7559991 93.463331,37.8289324 C94.889331,37.8398657 99.4233308,41.826799 99.7346642,43.4843989 C99.9513308,44.7799322 99.4693308,45.9565322 98.8619975,46.6283988 C98.8619975,46.6283988 99.6426642,46.1861988 100.029997,45.3601322 C102.348664,49.2643321 109.908664,59.5559985 113.323997,64.0103984 C112.800664,62.8958651 112.382664,62.0125318 112.035997,61.2976651 C112.493331,61.4408651 115.057997,62.3184651 117.95133,64.8575317 C120.492664,67.1379983 123.164664,73.4919982 123.164664,73.4919982 C123.164664,73.4919982 121.70333,69.4026649 122.610664,68.3439983 C123.161997,67.700665 124.137997,67.8159983 125.017997,68.1159983 C125.599997,68.386665 126.193997,68.6746649 126.793997,68.9733316 C126.844663,69.0053316 126.87933,69.0273316 126.87933,69.0273316 C126.87933,69.0273316 126.85533,69.0113316 126.81533,68.9846649 C133.303997,72.2253315 140.570663,76.9573314 143.170663,78.9326647 C146.581996,81.525998 153.641329,88.6573311 155.942663,91.0533311 C157.819329,93.0066643 159.341996,94.2519976 160.499329,95.047331 C160.498663,95.0479976 160.498663,95.0479976 160.497996,95.0479976 C161.323996,95.6153309 161.963996,95.9533309 162.409329,96.1513309 C160.163996,97.8239976 160.241996,100.841997 160.241996,100.841997 C160.241996,100.841997 161.628663,95.8573309 169.243329,96.0993309 C171.120662,96.1586643 172.815329,96.6719976 173.820662,96.8433309 C174.261329,96.9186642 175.419996,97.2879976 176.175329,97.3966642 C177.197329,97.5513309 178.569329,97.5533309 179.501996,97.5326642 C179.236662,97.6493309 178.977996,97.8026642 178.799996,98.0273309 C178.781996,98.0506642 178.766662,98.0733309 178.750662,98.0953309 C178.261996,98.2226642 177.192662,98.4253309 175.689329,98.2813309 C173.392662,98.0599975 172.113329,98.0106642 172.113329,98.0106642 C172.113329,98.0106642 173.390662,98.3799975 175.126662,98.6366642 C176.495996,98.8379975 177.507329,99.0393309 178.368662,99.0919975 C178.361996,99.1979975 178.361329,99.3073309 178.369329,99.4219975 C178.451329,100.646664 180.056662,101.185331 180.056662,101.185331 C180.056662,101.185331 179.317329,100.710664 179.283996,100.511997 C179.250662,100.313997 179.101329,99.5559975 179.329329,99.0079975 C179.622662,98.3019975 180.369995,97.9046642 180.851329,97.6586642 C181.332662,97.4139976 182.493995,96.9933309 183.117995,96.6626643 C183.743995,96.3306643 184.774662,96.0793309 185.373329,95.8773309 C185.822662,95.7253309 187.265329,95.2586643 188.495995,95.3739976 C189.224662,95.4413309 189.633995,95.5606643 190.308662,95.8219976 C191.355995,96.2273309 191.801995,96.9633309 192.692662,97.3579976 C193.519328,97.7239976 194.063328,97.7966642 194.974662,97.8159976 C195.972662,97.8379976 196.993328,97.4533309 197.490662,97.3799976 C197.987328,97.3073309 198.474662,97.2193309 198.787328,97.2619976 C199.099995,97.3033309 199.449995,97.4853309 199.461995,98.0846642 C199.469328,98.4839975 199.169995,99.0039975 198.969995,99.3059975 L198.969995,99.3059975 Z M10.1718664,17.0098662 C10.1718664,17.0098662 9.96799975,17.2473996 9.44919976,17.3958662 C8.94273311,17.5424662 8.19013313,17.1215996 8.15466646,17.1010662 C8.20153313,16.9296662 8.25133313,16.7703329 8.30313313,16.6411329 C8.48153312,16.1991996 9.00806644,15.5359329 9.26846643,14.8705996 L9.2687331,14.8705996 C9.2687331,14.8705996 9.4583331,14.4916663 9.49319976,13.7382663 C9.51586643,13.240333 9.18306644,12.253933 9.18306644,12.253933 C9.21326644,13.2390663 8.83699978,14.1458663 8.63753312,14.5546663 C8.37059979,15.0241996 8.06406647,15.5390663 7.8499998,15.8319996 C7.64373314,16.1140663 7.46773315,16.6028663 7.33099982,17.1739329 C7.15599982,17.3367329 6.5023465,17.8653329 5.40077986,17.8215996 C4.48853989,17.7851329 3.99479323,17.4934662 3.99479323,17.4934662 C3.99479323,17.4934662 5.17473987,18.4617329 7.03773316,18.0559995 C7.08513316,18.0455995 7.12159982,18.0351329 7.16513315,18.0247329 C7.08333316,18.5502662 7.03333316,19.0905995 7.02239982,19.5729328 C6.98799983,21.1041995 7.05726649,22.1583328 7.44866648,22.1583328 C7.83933314,22.1588661 7.77633314,19.0989329 7.77633314,19.0989329 C7.77633314,19.0989329 7.85106647,18.5293995 7.97266647,17.9036662 C8.14166646,17.9213329 8.42706646,17.9187329 8.91513311,17.8411329 C9.72919976,17.7109329 10.1718664,17.0098662 10.1718664,17.0098662 L10.1718664,17.0098662 Z M21.6393328,56.4929986 C20.5145995,55.7577986 19.5531328,55.104932 19.0312662,54.2356653 C18.3263329,53.0598653 17.5265329,49.1517988 16.5549329,49.4135321 C16.5179996,49.4239321 16.5718663,50.2239321 17.0575329,51.834132 C17.6734662,53.8749987 17.5703329,54.9921986 18.4122662,55.7351319 C19.0671995,56.3119986 19.8267995,56.4531319 20.8695328,57.0710652 C21.8343995,57.6405986 23.5796661,59.1263319 23.5927327,59.1062652 C24.0085994,58.4708652 22.7640661,57.2273319 21.6393328,56.4929986 Z M44.1689989,87.7786645 C44.1689989,87.7786645 44.8929989,92.1819977 49.7471321,94.0846643 C53.906532,95.7153309 56.8625319,93.6766643 56.8625319,93.6766643 C56.8625319,93.6766643 47.9648655,94.317331 44.1689989,87.7786645 Z M71.7119982,14.348933 C71.7119982,14.348933 71.3499982,16.0241996 70.6939982,16.7976662 C70.0739982,17.5293996 69.6993316,18.1632662 70.1833316,19.3848662 C70.5546649,20.3241995 72.0139982,21.2695328 72.0139982,21.2695328 C72.0139982,21.2695328 70.9399982,19.1908662 71.0446649,18.0281329 C71.1259982,17.1171996 72.6653315,15.282533 71.7119982,14.348933 L71.7119982,14.348933 Z M97.9206642,52.2473987 C97.0426642,50.8398654 95.8799976,49.0671988 94.853331,47.9244655 C93.5499977,46.4752655 92.465331,45.8236655 92.465331,45.8236655 C96.9779976,50.7708654 100.666664,58.5689985 100.666664,58.5689985 L101.269331,57.8848652 L97.9206642,52.2473987 Z M120.977997,79.577998 C120.977997,79.577998 118.277997,86.5939978 112.442664,87.5819978 C112.442664,87.5819978 116.437997,89.3433311 122.184664,86.2273312 C122.184664,86.2273312 116.966664,87.6846645 116.648664,86.9639978 C116.48733,86.6006645 120.04933,86.1653312 120.977997,79.577998 Z M141.231996,81.0506646 C139.191997,79.6126647 134.95933,77.1079981 134.763997,78.083998 C134.56733,79.059998 137.36933,80.4193313 139.61933,81.881998 C141.573996,83.1526646 147.862663,88.0559978 152.263996,89.9906644 C152.263996,89.9906644 144.212663,83.1526646 141.231996,81.0506646 L141.231996,81.0506646 Z M160.840663,114.022664 C160.847329,114.01933 160.856663,114.015997 160.863329,114.011997 C158.598663,113.188664 158.021996,113.48333 157.373996,114.081997 L157.283996,114.111997 C158.103329,114.426664 161.405996,115.116664 162.791996,112.923331 C162.791996,112.923331 162.159996,113.625997 160.840663,114.022664 Z M170.013329,107.219331 C168.427996,107.330664 167.605996,108.421331 167.429329,109.348664 C167.855996,108.790664 168.409996,107.651997 170.357329,107.663997 C171.691996,107.676664 172.959329,108.377331 173.998662,109.585331 C172.959329,107.847331 171.331996,107.239997 170.013329,107.219331 L170.013329,107.219331 Z M175.062662,112.345997 C174.769996,111.997331 173.793996,110.929331 173.002662,110.454664 C172.138662,109.935997 171.348662,109.575997 171.025996,109.561331 C169.825329,109.506664 169.169329,109.975997 168.815329,110.347331 C168.051996,111.148664 168.307996,112.299331 168.505329,112.871997 C167.547996,113.681997 167.352662,113.892664 165.290663,113.522664 C167.657329,114.361997 168.270662,113.93333 168.754662,113.767997 C169.450662,113.530664 169.976662,112.799331 170.930662,112.418664 C171.885996,112.037997 172.713996,112.124664 173.737996,112.292664 C174.762662,112.461997 175.089996,112.746664 175.690662,112.975997 C175.723329,112.987997 175.573996,112.701331 175.062662,112.345997 L175.062662,112.345997 Z" id="path48" fill="#F46F1B"></path>
                        <path d="M88.0426645,28.0489326 C88.7486644,27.3341326 91.753331,26.6093993 92.1759977,26.6809993 C92.1759977,26.6809993 92.059331,26.6437327 91.881331,26.600266 C91.887331,26.599466 91.8946644,26.5989327 91.8946644,26.5989327 C91.8946644,26.5989327 90.3266644,26.2169327 90.3213311,25.1543994 C90.3193311,24.5611994 90.8206644,23.4629994 92.6986643,23.5585994 C93.9619977,23.6236661 95.0926643,24.5151327 96.4046643,25.348466 C97.7159976,26.1809993 100.328664,27.180466 102.825997,27.797666 C103.008664,27.8419326 103.400664,28.0013326 103.466664,28.1757993 C103.540664,28.3671993 103.497997,28.7603993 103.493331,29.1882659 C103.489331,29.6895993 103.707331,30.6249992 104.231997,30.5169326 C104.591997,30.4413992 104.897997,30.3554659 105.158664,30.2625326 C104.670664,30.7005326 103.973331,31.0898659 103.336664,31.2351326 C101.177997,31.7260659 99.8339975,31.0625326 97.6086642,30.5846659 C95.2919976,30.0867326 95.1559976,30.1041992 94.015331,30.3197992 C92.8886643,30.5333326 92.1806644,31.1236659 92.6259977,31.1908659 C93.071331,31.2577992 93.3299977,31.1049326 94.1759976,30.8979326 C95.6046643,30.5476659 98.5766642,31.4817992 98.5766642,31.4817992 C98.5766642,31.4817992 95.2666643,31.1517992 94.293331,31.3229326 C93.5806643,31.4491992 92.837331,31.9713325 92.487331,32.2429992 C91.947331,32.6296659 91.9926644,32.6536659 91.1713311,33.5351325 C90.7206644,34.0181991 90.1786644,34.2812658 89.7613311,34.4226658 C90.2746644,33.7181992 90.5153311,32.9569992 90.5153311,32.9569992 L89.1473311,33.9882658 C88.4186645,33.3398658 87.7046645,32.7234658 87.1239978,32.2551992 C87.2619978,30.8528659 87.5573311,28.539866 88.0426645,28.0489326" id="path50" fill="#F46F1B"></path>
                        <path d="M85.9919979,31.4413992 C86.2126645,31.3236659 86.4286645,31.2096659 86.6353312,31.1015326 C86.6559978,31.0911326 86.6753312,31.0749992 86.6946645,31.0567992 C86.7046645,31.3841325 86.7319978,31.6947992 86.7666645,31.9744659 C86.5126645,31.7793992 86.2939978,31.6241992 86.1306645,31.5281325 C86.0906645,31.5039325 86.0426645,31.4744659 85.9919979,31.4413992" id="path52" fill="#F46F1B"></path>
                        <path d="M78.9473314,40.8236656 C78.687998,40.9565323 78.435998,41.0781323 78.1926647,41.1901323 C75.0966648,42.6054656 72.8539982,43.7877322 71.6939982,45.3692655 C71.4713315,45.6731989 70.1293316,50.2017987 69.7339983,50.6132654 C69.3853316,50.9760654 68.5019983,51.703132 67.7779983,52.017732 C66.7473317,52.463532 65.6429984,53.8450653 65.6429984,53.8450653 C65.6429984,53.8450653 66.798665,53.0476653 68.1613316,52.8020653 C69.6706649,52.529932 67.6733316,59.1783985 67.1839983,60.8827985 C66.5903317,62.9491984 65.8153317,65.052865 63.8265317,65.8697984 C62.0401318,66.4799317 60.0869985,66.398465 58.2679985,65.4427317 C57.6533986,65.1197984 56.8890652,64.6875317 56.5546653,64.2955984 C56.4575319,64.1817984 58.9307319,57.4778652 60.6999985,54.6947986 C63.1541984,50.8325321 64.4593984,48.5103988 64.4036651,45.6640655 C64.3473984,42.8184656 64.2455984,42.1848656 65.931265,41.417999 C67.6179983,40.6505323 73.8299982,38.317199 77.0166647,36.4629991 C77.6293314,36.1062658 78.4793314,35.6171991 79.4466647,35.0671991 L79.7793313,35.3692658 C80.0586647,36.4213324 80.6146647,37.7338657 81.6106646,39.250799 C80.427998,39.9643323 79.3826647,40.572399 78.9473314,40.8236656 L78.9473314,40.8236656 Z M70.2139982,41.3325323 C68.3239983,42.1479323 66.043465,42.6041989 65.7177317,43.4513322 C65.3801984,44.3281322 65.5549317,45.1700655 65.5549317,46.2533988 C65.5549317,47.5234655 64.8913984,49.2937321 64.9359317,49.2833321 C66.890665,48.7950654 66.3439983,45.1491989 67.0859983,44.0046656 C67.8679983,42.7994656 74.0586648,41.495599 74.0259981,39.5408657 C74.0259981,39.5091323 72.1859982,40.4830657 70.2139982,41.3325323 L70.2139982,41.3325323 Z" id="path54" fill="#F46F1B"></path>
                        <path d="M178.636662,40.245599 C178.499996,40.2760657 178.367996,40.2963323 178.233329,40.3229323 C176.694662,40.4934657 175.404662,40.2065323 174.859329,40.0520657 C174.687329,39.9635323 174.446662,39.8229323 174.213329,39.6341323 C173.855329,39.3450657 173.473329,38.8289324 173.473329,38.8289324 C173.473329,38.8289324 173.653996,39.632799 174.199996,40.184399 C173.438662,40.4643323 171.950662,40.4304657 170.687996,40.3333323 C169.076662,40.0807323 168.009329,39.7968657 167.045329,39.856799 C165.815329,39.934399 164.769996,41.386199 164.449329,41.8789323 C163.734663,42.6166656 160.307996,46.1431988 157.878663,48.4557321 C155.693329,50.5325321 150.474663,54.200532 148.609996,55.5208653 C148.57733,55.210932 148.543996,54.9017986 148.51133,54.591932 C148.484663,54.6210653 148.452663,54.6562653 148.427996,54.6830653 C147.985996,54.9981986 148.24533,55.6387986 147.84733,56.6171986 C147.628663,57.1575319 146.953996,58.1648652 146.501996,58.6609319 C145.52733,59.7317985 144.875996,60.2812652 144.036663,60.7382651 C143.322663,61.1289318 141.699996,60.7546651 141.49333,60.7825318 C141.326663,60.8054651 140.85733,61.2312651 140.72133,61.3445318 C140.114663,61.8510651 139.078663,62.8203318 137.40333,63.6491984 C134.21333,65.2265317 130.576663,65.7291984 129.130663,65.4661317 C126.51533,65.0919317 123.38733,63.1927318 126.11333,60.8463318 C132.884663,55.011732 144.12133,52.399732 144.12133,52.399732 C144.12133,52.399732 142.49333,52.2148654 141.891996,52.3184654 C141.893996,52.315132 141.895996,52.3111987 141.898663,52.3080654 C144.243996,49.9408654 148.349996,45.9296655 151.508663,45.3445322 C152.76133,45.1132655 154.463329,45.8653322 154.463329,45.8653322 L159.939329,41.4127323 C160.281329,42.0619989 160.637329,42.4569989 160.637329,42.4569989 C160.637329,42.4569989 159.960663,39.3333324 160.593996,37.8905991 C161.314663,36.2465991 163.761329,35.5177324 164.220663,35.4890658 C164.220663,35.4890658 163.789329,35.3796658 163.184663,35.3614658 C163.315329,35.1028658 163.683329,34.3867325 163.945996,33.9786658 C164.289329,33.4421992 164.481996,32.8028658 166.498663,32.7234658 C168.516662,32.6453325 169.632662,34.1497325 171.093996,34.9539325 C172.938662,35.9695324 175.751996,36.3911324 177.045329,36.3841324 C177.094662,36.3841324 178.931996,36.3979324 179.057329,37.1210657 C179.121996,37.3315324 179.011996,37.7208657 178.973329,38.1778657 C178.930662,38.7135324 178.861996,39.1692657 179.355996,39.4635323 C179.604662,39.611999 180.299329,39.380999 180.902662,39.0997324 C180.604662,39.5684657 179.505996,40.0520657 178.636662,40.245599 L178.636662,40.245599 Z M140.330663,57.1197986 C140.330663,57.1197986 139.670663,57.1913986 139.704663,58.4135319 C139.733997,59.4140652 140.500663,59.8445318 140.500663,59.8445318 C140.500663,59.8445318 140.134663,59.2981985 140.123996,58.2312652 C140.11333,57.1822652 140.330663,57.1197986 140.330663,57.1197986 L140.330663,57.1197986 Z" id="path56" fill="#F46F1B"></path>
                        <path d="M43.3517989,97.9153309 C40.6770656,98.8799975 36.9864657,99.9233308 33.9221325,99.7253308 C26.0603993,99.2199975 18.7916662,96.8206642 13.251333,101.807331 C13.251333,101.807331 13.016933,100.660664 14.1976663,98.8253309 C14.6536663,98.1153309 15.5325329,97.5093309 15.5325329,97.5093309 C13.338533,98.5066642 13.0416663,99.4239975 12.6525997,100.235331 C8.28619979,101.132664 5.86692652,105.856664 5.36536653,107.007997 C5.55129986,105.144664 6.56223984,103.303997 6.56223984,103.303997 C6.56223984,103.303997 5.26067987,104.738664 4.75937321,105.949997 C4.23645989,107.215997 4.31927323,108.270664 4.33463322,108.421997 C3.60625324,103.069997 5.89166652,99.8666642 5.89166652,99.8666642 C4.46770655,99.8506642 3.37005325,101.375997 3.37005325,101.375997 C3.37343992,101.124664 3.8486999,99.1646642 6.27577984,97.4753309 C9.63099976,95.1406643 12.2864664,94.7679976 13.424733,94.7166643 C13.424733,94.7166643 12.2562664,94.0139976 10.3291997,93.9926643 C10.3291997,93.9926643 10.6210664,93.903331 11.0151331,93.8319977 C11.438533,93.7559977 12.3356664,93.7079977 13.282533,93.8126643 C15.2770663,94.033331 16.1674663,94.963331 17.6979329,95.6006643 C20.1093995,96.6039976 28.2651326,97.8639976 34.6575325,96.8633309 C36.6351324,96.5533309 38.4229324,96.0833309 39.9117323,95.6026643 C41.0882656,95.3359976 44.0281322,94.7786643 44.6677322,95.7213309 C45.1195322,96.3879976 44.1299322,97.3233309 43.3517989,97.9153309 Z M9.09506644,99.0906642 C8.0163998,100.135331 7.24166649,102.317997 7.24166649,102.317997 C7.24166649,102.317997 8.61719978,100.530664 9.73046642,99.5479975 C10.7807331,98.6213309 12.721333,97.8513309 12.721333,97.8513309 C12.721333,97.8513309 10.1981997,98.0226642 9.09506644,99.0906642 L9.09506644,99.0906642 Z" id="path58" fill="#F46F1B"></path>
                        <path d="M90.9046644,99.8653308 C90.3006644,99.9099975 89.8606644,99.9493308 89.1793311,100.036664 C88.5459978,100.117997 87.9319978,100.211997 87.3839978,100.315997 C87.2159978,100.287331 87.1619978,99.9973308 87.2939978,99.8653308 L87.6119978,99.7753308 C88.0093311,99.6586642 88.2553311,99.5113308 88.3693311,99.2499975 C88.6013311,98.7419975 88.4246645,97.2306642 88.2686645,96.0139976 L88.0106645,93.985331 C87.6953311,91.519331 86.6133312,90.0253311 84.4873312,90.2966644 C82.2553313,90.5819977 81.801998,92.5146644 82.0706646,94.725331 C81.5373313,94.5366643 80.967998,94.439331 80.3713313,94.439331 C80.3673313,94.439331 80.3633313,94.439331 80.3586647,94.439331 C80.281998,94.439331 80.2033313,94.4439976 80.125998,94.4466643 C79.953998,92.9039977 80.153998,91.779331 80.7706646,91.0193311 C81.425998,90.2093311 82.4553313,89.7486644 83.9806646,89.5533311 C85.0999979,89.4099978 86.3559978,89.5626644 87.3166645,90.3633311 C88.2759978,91.1639977 88.6779978,92.497331 88.8659978,93.9746643 L89.1133311,95.9059976 C89.2759978,97.1886642 89.4593311,98.6159975 89.7493311,99.0739975 C89.8953311,99.3179975 90.1953311,99.3459975 90.5119977,99.3719975 L90.8793311,99.4073308 C91.0239977,99.5033308 91.0253311,99.7679975 90.9046644,99.8653308" id="path60" fill="#F46F1B"></path>
                        <path d="M80.933998,96.1306643 C81.373998,96.1299976 81.8293313,96.2626643 82.3013313,96.5399976 L82.5526646,98.5086642 C82.7726646,100.228664 82.9259979,100.274664 83.7019979,100.274664 L84.0646646,100.277331 C84.1926646,100.375997 84.2119979,100.654664 84.0906646,100.736664 C83.3726646,100.795331 82.6406646,100.872664 81.909998,100.965331 C81.195998,101.056664 80.4673313,101.165997 79.8233313,101.281997 C79.6846647,101.232664 79.633998,100.959331 79.731998,100.831997 L80.0026647,100.747997 C80.747998,100.519997 80.8906646,100.469331 80.669998,98.7486642 L80.3453313,96.2053309 C80.4406647,96.1833309 80.537998,96.1633309 80.6393313,96.1493309 C80.737998,96.1366643 80.835998,96.1306643 80.933998,96.1306643" id="path62" fill="#F46F1B"></path>
                        <path d="M83.9699979,104.814664 C84.1046646,104.943331 84.2453312,105.085997 84.3926646,105.244664 C84.5679979,105.437331 84.7046645,105.528664 84.8033312,105.515331 C84.9106645,105.502664 84.9793312,105.466664 85.0059979,105.407331 C85.0299979,105.348664 85.0359979,105.176664 85.0219979,104.890664 L84.8553312,102.322664 L84.8286645,101.993997 C84.8013312,101.775997 84.7006645,101.678664 84.5253312,101.701331 C84.4106646,101.715997 84.3293312,101.817997 84.2806646,102.007331 C84.1299979,102.610664 83.8099979,103.303331 83.3173313,104.081997 C82.8253313,104.859997 82.1366646,105.307331 81.249998,105.420664 C80.5946647,105.503997 80.0193313,105.384664 79.525998,105.063331 C79.031998,104.741997 78.6186647,104.267331 78.2853314,103.640664 C77.9526647,103.013331 77.7279981,102.240664 77.6099981,101.319997 C77.4086647,99.7466642 77.5959981,98.4506642 78.171998,97.4339976 C78.7473314,96.4166643 79.5513313,95.8413309 80.5833313,95.7093309 C81.703998,95.5666643 82.8179979,96.1106643 83.9246646,97.3406642 C84.0586646,97.4906642 84.1773312,97.5586642 84.2806646,97.5453309 C84.4546646,97.5219976 84.5299979,97.4246642 84.5073312,97.2499976 C84.4606646,96.8893309 83.9573312,96.3713309 82.9973313,95.6946643 C82.0366646,95.0186643 80.9093313,94.7639976 79.6153313,94.929331 C77.9006647,95.1486643 76.6139981,95.8506643 75.7559981,97.0353309 C74.8979981,98.2199975 74.5666648,99.5846642 74.7639981,101.127331 C74.9606648,102.665997 75.6326648,103.937331 76.7806647,104.939997 C77.9293314,105.943331 79.267998,106.347331 80.7993313,106.151331 C81.8766646,106.013997 82.9346646,105.569331 83.9699979,104.814664" id="path64" fill="#F46F1B"></path>
                        <path d="M157.957329,39.936199 L157.878663,39.962999 L153.064663,42.9270656 L152.991996,42.9148656 C151.460663,42.6609323 149.985996,41.4786656 148.484663,39.298199 C136.798663,22.3059994 123.82733,13.690133 109.930664,13.690133 C98.5906642,13.690133 88.7346644,18.3210662 80.6393313,27.4549326 L80.517998,27.5919326 L78.6586647,26.1557327 C78.6586647,26.1557327 76.2353314,23.9708661 75.9419981,23.7741994 C75.6306648,23.5658661 75.3426648,23.3893327 75.0739981,23.2364661 C74.1339981,21.9643328 74.0926648,19.9916662 74.0346648,18.9851329 C73.9713315,17.8893329 73.9099982,16.8593996 75.3973314,15.134133 C77.9426647,12.1827997 76.7426647,8.86666645 75.4973314,9.25466644 C75.4973314,9.25466644 73.7766648,9.75519976 73.3693315,9.93539975 C72.9619982,10.1166664 72.2753315,11.0879997 71.7999982,11.365333 C71.7639982,11.0281331 71.6093315,10.6817997 71.5906649,10.5984664 C71.5586649,10.4596664 71.3673315,10.4132664 70.8586649,10.4934664 C70.5973316,10.5364664 68.7546649,11.0338664 67.998665,11.3307331 C67.4353316,11.548933 67.0273317,11.9804664 66.7779983,12.341933 C66.4439983,12.825533 65.8229317,13.9395997 65.6965984,14.4348663 C65.5077984,15.1757996 65.5393317,16.5976663 65.2085984,17.4695329 C64.886465,18.3163995 64.2460651,19.5625328 63.3947984,20.5033995 C62.8486651,21.1093995 62.2671984,22.3520661 63.6736651,23.5025994 C64.6158651,24.2741994 66.243465,24.5825327 67.7539983,25.4213327 C68.198665,26.2481993 68.7479983,27.2043993 69.2886649,27.688266 C70.2259982,28.528666 72.9153315,29.2525993 73.7879982,29.5013326 L75.1486648,30.6875326 L76.9619981,32.2221325 L76.6313314,32.5528659 C68.610665,44.1140656 64.5442651,59.6413985 64.5442651,78.703998 C64.5442651,90.3439977 66.1273317,100.455331 69.2499983,108.758664 C72.3393315,116.998664 76.7093314,123.572664 82.2386646,128.293997 C87.7019978,132.951997 94.5619976,135.313997 102.628664,135.313997 C113.542664,135.313997 122.723997,130.88933 129.91533,122.161997 C136.655997,113.962664 141.56733,106.330664 144.511996,99.4773308 L144.602663,99.2639975 L146.588663,100.575997 L146.522663,100.725997 C146.51533,100.743331 146.506663,100.761331 146.49933,100.778664 L149.178663,102.669997 L151.80733,104.691997 C151.817996,104.520664 151.82533,104.425331 151.82533,104.425331 L154.058663,106.190664 L152.089996,136.002663 C151.69733,141.102663 151.233996,142.442663 150.87333,143.042663 C150.21533,144.117996 148.954663,144.661996 147.12133,144.661996 C145.408663,144.661996 143.593996,143.190663 141.41133,140.032663 C140.119996,138.22133 138.777997,136.434663 137.425997,134.713997 C123.295997,142.24133 109.233331,146.062663 95.6253309,146.062663 C75.7559981,146.062663 59.0770652,138.59533 46.0528655,123.867997 C33.0661325,109.181997 26.480466,91.6186644 26.480466,71.6653315 C26.480466,51.6275987 33.0234658,34.4960658 45.9270655,20.7499995 C58.8541985,6.98126649 76.6819981,0 98.9179975,0 C115.748664,0 129.96733,5.20181987 141.179996,15.4617329 C152.57533,25.8911327 158.115329,33.4023325 158.115329,38.423199 L157.957329,39.936199" id="path66" fill="#000000"></path>
                        <path d="M152.995996,42.5117323 C151.59533,42.2546656 150.222663,41.1367323 148.805996,39.077599 C137.041997,21.9739328 123.962664,13.3007997 109.930664,13.3007997 C98.5326642,13.3007997 88.6253311,17.9375329 80.4746647,27.0663993 C80.273998,26.911466 79.4766647,26.2955993 79.231998,26.1067993 C87.6979978,16.5775996 98.0226642,11.7356664 109.930664,11.7356664 C124.50933,11.7356664 138.021997,20.6361995 150.09533,38.1908657 C151.36533,40.0359323 152.58333,41.0117323 153.617329,41.0117323 C155.400663,41.0117323 156.161329,40.2377323 156.161329,38.423199 C156.161329,34.0442658 150.675996,26.802866 139.85933,16.9043996 C129.020663,6.98439983 115.24533,1.95442662 98.9179975,1.95442662 C77.2453314,1.95442662 59.8955985,8.72919978 47.3517988,22.0893328 C34.7997325,35.4596658 28.4359326,52.140132 28.4359326,71.6653315 C28.4359326,91.1266644 34.8554658,108.254664 47.5169321,122.572664 C60.1536652,136.861997 76.3393314,144.107996 95.6253309,144.107996 C109.222664,144.107996 123.27333,140.215996 137.387997,132.541997 C137.387997,132.541997 137.779997,132.328663 137.963997,132.228663 C138.111997,132.413997 138.37333,132.740663 138.37333,132.74133 C139.842663,134.580663 141.403996,136.656663 143.01133,138.90933 C145.29533,142.21333 146.566663,142.70733 147.12133,142.70733 C148.22733,142.70733 148.92733,142.479996 149.201996,142.029996 C149.361996,141.763996 149.771996,140.631996 150.13933,135.86333 C150.13933,135.86333 152.11733,105.907331 152.163996,105.189997 C152.55733,105.499997 153.533996,106.271331 153.657329,106.368664 C153.584663,107.461997 151.701996,135.97533 151.701996,135.97533 C151.316663,140.990663 150.878663,142.27933 150.540663,142.840663 C149.95933,143.79133 148.80933,144.27333 147.12133,144.27333 C145.54733,144.27333 143.834663,142.85533 141.729996,139.80933 C140.402663,137.946663 139.024663,136.10933 137.636663,134.34733 L137.535997,134.21933 L137.392663,134.29533 C123.26933,141.84533 109.217331,145.67333 95.6253309,145.67333 C75.8713314,145.67333 59.2916652,138.249997 46.3445322,123.610664 C33.4215992,108.997331 26.8697993,91.5206644 26.8697993,71.6653315 C26.8697993,51.7291987 33.3765325,34.6882658 46.2117322,21.0161328 C59.0603985,7.32939982 76.7933314,0.389322657 98.9179975,0.389322657 C115.648664,0.389322657 129.77933,5.55729319 140.916663,15.7486663 C152.227996,26.101066 157.726663,33.5177325 157.726663,38.423199 C157.726663,38.423199 157.609329,39.550799 157.595329,39.680999 C157.442663,39.7747323 153.137996,42.4252656 152.995996,42.5117323" id="path68" fill="#F46F1B"></path>
                        <path d="M102.628664,135.70333 C113.66533,135.70333 122.946664,131.23133 130.21533,122.40933 C136.911997,114.263997 141.804663,106.673997 144.771996,99.8413308 C145.039996,100.018664 145.885996,100.578664 146.09533,100.715997 C143.06333,107.613331 138.133997,115.243997 131.423997,123.403997 C123.842664,132.604663 114.154664,137.26933 102.628664,137.26933 C94.083331,137.26933 86.7959978,134.749997 80.969998,129.780663 C75.1866648,124.841997 70.6273316,118.000664 67.4193316,109.445997 C64.2145984,100.921331 62.5895984,90.5779977 62.5895984,78.703998 C62.5895984,59.2091319 66.7873317,43.3054656 75.0526648,31.4158659 C75.2946648,31.6367325 76.0439981,32.3163992 76.2206648,32.4770659 C68.2179983,44.0885322 64.1549317,59.6375318 64.1549317,78.703998 C64.1549317,90.3906644 65.746065,100.548664 68.8846649,108.895331 C71.9979982,117.197997 76.4059981,123.82533 81.9866646,128.589997 C87.5213311,133.309997 94.4666643,135.70333 102.628664,135.70333" id="path70" fill="#F46F1B"></path>
                        <path d="M157.864663,27.2617327 L157.864663,29.6778659 L157.007996,29.6778659 L157.007996,30.1700659 L159.312663,30.1700659 L159.312663,29.6778659 L158.453996,29.6778659 L158.453996,27.2617327 L157.864663,27.2617327 Z M159.680663,27.2617327 L159.680663,30.1700659 L160.563329,30.1700659 L161.085329,28.1853993 L161.597329,30.1700659 L162.483996,30.1700659 L162.483996,27.2617327 L161.939996,27.2617327 L161.935996,29.5515326 L161.366663,27.2617327 L160.799996,27.2617327 L160.228663,29.5515326 L160.224663,27.2617327 L159.680663,27.2617327 L159.680663,27.2617327 Z" id="path72" fill="#231F20"></path>
                    </g>
                </g>
            </g>
        </g>
    </g>
</svg>