<?xml version="1.0" encoding="UTF-8"?>
<svg width="200px" height="200px" viewBox="0 0 200 200" version="1.1" xmlns="http://www.w3.org/2000/svg" xmlns:xlink="http://www.w3.org/1999/xlink">
    <!-- Generator: Sketch 54.1 (76490) - https://sketchapp.com -->
    <title>charleston-so</title>
    <desc>Created with Sketch.</desc>
    <g id="charleston-so" stroke="none" stroke-width="1" fill="none" fill-rule="evenodd">
        <g id="charleston-so_BGL" fill="#23437C">
            <g id="charleston-so" transform="translate(0.000000, 9.000000)">
                <g id="g10" transform="translate(100.000000, 91.201304) scale(-1, 1) rotate(-180.000000) translate(-100.000000, -91.201304) translate(0.000000, 0.701304)" fill-rule="nonzero">
                    <g id="g12" transform="translate(0.000000, 0.194805)">
                        <path d="M177.673156,19.4799346 C177.206056,19.3950428 176.53939,18.507164 176.142203,18.2108221 C175.766013,17.9296965 175.588307,17.6170991 175.355623,17.2041554 C175.153242,16.8446533 174.937442,16.2498264 175.11861,15.8307139 C175.232247,15.5669044 175.344801,15.4502377 175.491987,15.2430732 C175.601944,15.088939 175.679866,14.8266663 175.796316,14.6348265 L176.540688,14.6242637 C176.750645,14.7186144 177.326835,15.4681598 177.662983,15.7567312 C178.449779,16.4311901 177.973589,16.1032247 178.344801,17.1199346 C178.743069,18.2108221 178.134844,19.5636359 177.673156,19.4799346 L177.673156,19.4799346 Z M143.535711,23.9632029 C144.24675,23.3038955 145.031815,22.7045449 145.737875,22.0140687 C146.485061,21.2838306 147.043719,20.4328999 147.966879,19.9655839 C149.077269,19.4034844 150.002161,19.4441554 151.286143,19.3839606 C151.867529,19.3569043 152.330299,19.3346748 152.846749,19.2595017 C153.458005,19.1709735 153.851944,18.9904541 154.433546,18.8175536 C155.58636,18.4740255 156.847182,18.9961251 157.783979,18.1565363 C158.28939,17.703939 158.557355,17.5640905 159.233113,17.9220775 C159.725537,18.1830948 159.748697,18.338571 160.395883,18.0480515 C161.292637,17.3089173 162.110386,16.0506273 163.248048,17.8846316 C164.060818,17.9199563 164.320342,16.9104325 165.114498,16.9298697 C165.877485,16.9488957 166.307139,17.5686576 167.206922,17.2807571 C167.533546,17.1764281 167.792636,16.8918178 168.083762,16.8166662 C168.507788,16.707597 168.98939,16.8703459 169.398697,16.9467745 C170.008654,17.0611035 170.393719,17.1857139 170.730515,17.7528134 C171.522074,19.0857571 173.499563,19.6372722 172.572939,22.4370124 C172.286143,23.3036791 171.916662,22.6404756 171.324671,22.5287873 C170.594368,22.3904756 170.786792,23.0071423 170.463632,23.3967527 C170.144584,23.7813847 169.652377,23.7445882 169.156489,23.8530297 C168.593719,23.9761899 168.485927,24.1653674 168.135277,24.590692 C167.839606,24.9497829 167.503675,25.5768392 167.081381,25.677705 C166.575104,25.7989171 166.014282,25.2541119 165.570992,25.3004323 C165.044152,25.3551942 164.639173,25.8727266 164.251727,26.1945881 C163.724238,26.6326833 163.196966,26.596969 162.550862,26.4941552 C162.029866,26.4110383 161.558438,26.0201292 161.03939,26.1168825 C160.405407,26.2348478 160.546966,26.7318175 160.25584,27.168614 C159.474238,28.3404755 158.235277,27.6396097 157.084412,27.7021638 C157.034195,28.4285707 155.88268,28.6850642 155.280516,28.3374452 C154.905624,28.120995 154.978784,27.9071422 154.496749,27.8800859 C154.061901,27.8558435 153.811035,28.1043283 153.614065,28.4448045 C153.245234,29.081601 153.254975,30.0138521 152.247399,29.6296529 C151.826187,29.4694798 151.745667,29.2528131 151.224888,29.2783542 C150.879866,29.2952374 150.437009,29.4404755 150.136576,29.6261897 C149.627702,29.9409083 149.606706,30.2844148 148.95649,30.2712114 C148.433113,30.2601724 148.044152,29.9822503 147.51255,29.9564928 C146.30649,29.8978348 146.240473,31.1601724 145.184196,31.3406919 C144.668395,31.42922 144.177918,31.27251 143.780732,30.9790036 C143.209737,30.5567092 143.376403,30.2428564 142.714499,30.5086572 C142.186144,30.720562 141.914715,31.0606053 141.282897,30.9034624 C140.815364,30.7872287 140.274672,30.4770555 140.024455,30.0822503 L140.024455,29.453246 C140.130516,27.9255404 140.252377,27.8805188 141.141338,26.6874452 C141.486793,26.2235924 141.676836,25.8768392 141.991555,25.3945881 C142.300213,24.9222937 143.13333,24.3357137 143.535711,23.9632029 L143.535711,23.9632029 Z M107.769261,44.8900422 L105.420127,46.2326828 C133.777486,57.9781371 148.375537,66.5354962 162.80584,78.9525954 L166.161901,78.9525954 C152.067312,64.5220763 130.253676,54.2867952 107.769261,44.8900422 L107.769261,44.8900422 Z M93.191989,51.0495658 L106.696534,51.0495658 C104.424889,49.9192628 102.168179,48.8067087 99.9441533,47.7190464 C97.7201274,48.8067087 95.4638504,49.9192628 93.191989,51.0495658 L93.191989,51.0495658 Z M92.1190453,44.8900422 C69.6346303,54.2867952 47.8214274,64.5220763 33.7266225,78.9525954 L37.0826831,78.9525954 C51.5129857,66.5354962 66.1110373,57.9781371 94.4683959,46.2326828 L92.1190453,44.8900422 Z M71.3699116,62.3002149 C56.9348471,70.057574 44.1768387,77.6956691 37.8790034,83.3575737 L63.7595222,83.3575737 L66.7333317,85.9696948 L66.7333317,66.1904745 L71.3699116,62.3002149 Z M72.039825,136.045018 L68.5370113,133.229867 L68.5370113,130.13333 L49.0523797,130.13333 L49.0523797,136.045018 L72.039825,136.045018 Z M20.5088307,100.613634 L20.5088307,161.766663 L36.2435056,173.924238 L60.8787864,173.924238 L76.3465349,162.010818 L76.3465349,141.463416 L54.1976177,141.463416 L54.1976177,158.578784 L43.6339816,158.578784 L43.6339816,104.289391 L54.2132021,104.289391 L54.2132021,124.714499 L76.5140674,124.714499 L76.5140674,101.772508 L61.7179638,88.7761883 L36.7471852,88.7761883 L20.5088307,100.613634 Z M81.764933,136.909737 L87.4209935,141.455841 L112.212768,141.455841 L126.947832,129.248698 L126.947832,114.742421 L105.41688,114.742421 L105.41688,125.851079 L94.8458851,125.851079 L94.8458851,107.799997 L111.896534,106.609954 L111.919045,106.638309 L111.96017,106.606058 L112.191123,106.42359 L127.524023,93.9170972 L127.524023,68.7168814 L112.925755,56.467964 L86.7497814,56.467964 L72.1517298,68.7166649 L72.1517298,83.4831148 L94.8038937,83.4831148 L94.8038937,71.3183965 L105.543071,71.3183965 L105.543071,90.1961016 L88.0722922,91.6742401 L88.0712099,91.6725085 L88.0686125,91.6744566 L80.2125521,97.8093049 L81.9328984,99.3201274 L81.9328984,130.13333 L73.9556259,130.13333 L73.9556259,130.633114 L80.688959,136.045018 L81.764933,136.909737 Z M161.62965,83.0222923 C155.120126,77.3179634 142.321425,69.6976173 127.928135,61.9833318 L132.941988,66.1904745 L132.941988,85.8751061 L136.544369,83.0222923 L161.62965,83.0222923 Z M123.077053,173.924238 L145.813416,173.924238 L145.813416,104.121426 L156.216879,104.121426 L156.216879,173.924238 L179.006056,173.924238 L179.006056,100.598049 L164.072507,88.4402575 L138.4303,88.4402575 L132.941988,92.7863613 L132.941988,95.0523786 L123.077053,104.030517 L123.077053,109.323807 L132.365798,109.323807 L132.365798,131.79675 L123.077053,139.491988 L123.077053,173.924238 Z M170.617095,86.7822489 L184.424238,98.0222919 L184.424238,179.342636 L117.658439,179.342636 L117.658439,143.981165 L114.165365,146.874888 L85.5132013,146.874888 L81.764933,143.862118 L81.764933,164.676836 L62.7235915,179.343069 L34.394155,179.343069 L15.0907139,164.427485 L15.0907139,97.8582227 L30.2499992,86.8069242 C16.432965,86.3813831 9.46538937,88.5413398 0,95.5640669 C23.2372289,67.3402581 55.4837648,51.0909078 83.8112533,39.9798691 C76.1391756,36.3666658 69.6316,33.3958866 65.3175308,31.4666659 L67.666665,22.2378782 C75.9080068,25.7770556 87.1647164,29.4298694 99.9441533,33.9781377 C112.723807,29.4298694 123.980516,25.7770556 132.222075,22.2378782 L134.571209,31.4666659 C130.256707,33.3958866 123.749564,36.3666658 116.076837,39.9798691 C144.404542,51.0909078 176.651294,67.3402581 199.888523,95.5640669 C190.649995,88.709738 183.787658,86.4891753 170.617095,86.7822489 L170.617095,86.7822489 Z M65.2203447,25.8454539 C64.2883101,28.0610383 63.984414,29.8396096 63.45844,32.0536789 C63.2874443,32.7733758 62.3231586,35.8560597 62.2835482,36.8359298 C62.230085,38.1707783 62.0731586,40.2409081 62.6192625,41.4504319 C62.8504313,41.9616873 63.7255395,43.0872284 64.2134183,43.3800855 C64.6328988,43.6318171 65.7393923,43.3800855 66.4787862,43.3800855 C67.1497819,43.8833322 66.7305178,45.0580075 66.2467516,46.0857131 L64.4651499,46.2322499 C62.0318166,46.1487001 60.6898253,41.5341981 60.7733751,39.8562761 C60.906492,37.1911246 62.1222928,35.7562762 62.0318166,33.2285706 C61.7803015,26.1811682 56.6837648,22.0987007 53.1458861,18.6721207 C49.7383104,15.3720992 42.1536786,12.8600213 37.267748,13.0259953 C33.1385273,13.166688 26.3757569,14.7710386 24.2781379,21.3991553 C24.2781379,16.7006489 28.8086573,7.89155824 32.0805187,4.78744577 C35.4365792,1.76711251 41.2255401,0.00524214273 45.4545443,0.0216450211 C50.8738083,0.08920108 57.6937215,1.553961 61.9307344,5.4980951 C63.3744573,7.13634181 64.3348469,8.3519262 65.2238079,9.86082226 C66.5268382,12.0731815 66.4119031,14.1487442 66.4149334,16.6290472 C66.4181802,19.444848 66.3116867,23.249783 65.2203447,25.8454539 L65.2203447,25.8454539 Z M162.620559,13.0259953 C157.734628,12.8600213 150.150213,15.3720992 146.742637,18.6721207 C143.204758,22.0987007 138.108222,26.1811682 137.85649,33.2285706 C137.766014,35.7562762 138.982031,37.1911246 139.115148,39.8562761 C139.198698,41.5341981 137.85649,46.1487001 135.423373,46.2322499 L133.641772,46.0857131 C133.158005,45.0580075 132.738741,43.8833322 133.409737,43.3800855 C134.149131,43.3800855 135.255624,43.6318171 135.674888,43.3800855 C136.162767,43.0872284 137.038092,41.9616873 137.269044,41.4504319 C137.815365,40.2409081 137.658438,38.1707783 137.604975,36.8359298 C137.565148,35.8560597 136.601295,32.7733758 136.430083,32.0536789 C135.904109,29.8396096 135.60043,28.0610383 134.668178,25.8454539 C133.577053,23.249783 133.470559,19.444848 133.47359,16.6290472 C133.47662,14.1487442 133.361685,12.0731815 134.664715,9.86082226 C135.553676,8.3519262 136.514066,7.13634181 137.958005,5.4980951 C142.194802,1.553961 149.014715,0.08920108 154.434195,0.0216450211 C158.662983,0.00524214273 164.451727,1.76711251 167.807788,4.78744577 C171.080082,7.89155824 175.610385,16.7006489 175.610385,21.3991553 C173.512766,14.7710386 166.750212,13.166688 162.620559,13.0259953 L162.620559,13.0259953 Z M29.1580079,17.7528134 C29.4950209,17.1857139 29.8796529,17.0611035 30.4900425,16.9467745 C30.8991334,16.8703459 31.3809516,16.707597 31.8047611,16.8166662 C32.0958866,16.8918178 32.355194,17.1764281 32.6818174,17.2807571 C33.5813844,17.5686576 34.0110381,16.9488957 34.7740251,16.9298697 C35.5679645,16.9104325 35.8279212,17.9199563 36.6402588,17.8846316 C37.7781376,16.0506273 38.5961029,17.3089173 39.4924233,18.0480515 C40.1398258,18.338571 40.162986,18.1830948 40.6551938,17.9220775 C41.3311678,17.5640905 41.5989167,17.703939 42.1045444,18.1565363 C43.0413409,18.9961251 44.3023798,18.4740255 45.4549772,18.8175536 C46.0365789,18.9904541 46.4305183,19.1709735 47.0415573,19.2595017 C47.5584404,19.3346748 48.0209945,19.3569043 48.6023797,19.3839606 C49.8865788,19.4441554 50.8112541,19.4034844 51.9216437,19.9655839 C52.8448039,20.4328999 53.4036783,21.2838306 54.1504315,22.0140687 C54.8567086,22.7045449 55.6415571,23.3038955 56.352596,23.9632029 C56.7551934,24.3357137 57.5885267,24.9222937 57.8969682,25.3945881 C58.2116869,25.8768392 58.4017301,26.2235924 58.7474011,26.6874452 C59.6359292,27.8805188 59.7580072,27.9255404 59.8640678,29.453246 L59.8640678,30.0822503 C59.6138513,30.4770555 59.0729422,30.7872287 58.6056262,30.9034624 C57.9738081,31.0606053 57.7021631,30.720562 57.1740245,30.5086572 C56.5119033,30.2428564 56.67857,30.5567092 56.1077908,30.9790036 C55.7108211,31.27251 55.2201285,31.42922 54.7045441,31.3406919 C53.6480506,31.1601724 53.5822497,29.8978348 52.3761892,29.9564928 C51.844371,29.9822503 51.45541,30.2601724 50.9320334,30.2712114 C50.2816005,30.2844148 50.2606048,29.9409083 49.7519468,29.6261897 C49.4517304,29.4404755 49.0086568,29.2952374 48.6638516,29.2783542 C48.1428559,29.2528131 48.0623365,29.4694798 47.6413408,29.6296529 C46.6333322,30.0138521 46.6432889,29.081601 46.2744577,28.4448045 C46.0772716,28.1043283 45.8266222,27.8558435 45.3917738,27.8800859 C44.9097391,27.9071422 44.9831158,28.120995 44.6077911,28.3374452 C44.0058431,28.6850642 42.8545444,28.4285707 42.803895,27.7021638 C41.6532457,27.6396097 40.4140683,28.3404755 39.632683,27.168614 C39.3417739,26.7318175 39.4831159,26.2348478 38.8493497,26.1168825 C38.3300856,26.0201292 37.8586571,26.4110383 37.3376614,26.4941552 C36.6915575,26.596969 36.1642848,26.6326833 35.6370121,26.1945881 C35.2493498,25.8727266 34.8443714,25.3551942 34.3177481,25.3004323 C33.8740251,25.2541119 33.3134191,25.7989171 32.8073585,25.677705 C32.3848477,25.5768392 32.0489169,24.9497829 31.7530295,24.590692 C31.4028131,24.1653674 31.2948044,23.9761899 30.7322503,23.8530297 C30.2361464,23.7445882 29.7437222,23.7813847 29.4251075,23.3967527 C29.1019473,23.0071423 29.2941551,22.3904756 28.5636356,22.5287873 C27.9718608,22.6404756 27.6023803,23.3036791 27.3155837,22.4370124 C26.3891768,19.6372722 28.3664495,19.0857571 29.1580079,17.7528134 L29.1580079,17.7528134 Z M23.7463198,18.2108221 C23.3491336,18.507164 22.682467,19.3950428 22.2153674,19.4799346 C21.7536791,19.5636359 21.1455839,18.2108221 21.543809,17.1199346 C21.9147181,16.1032247 21.4388956,16.4311901 22.2255406,15.7567312 C22.5619042,15.4681598 23.1380947,14.7186144 23.3480514,14.6242637 L24.0924236,14.6348265 C24.2086574,14.8266663 24.286363,15.088939 24.3965362,15.2430732 C24.5439388,15.4502377 24.65606,15.5669044 24.7699128,15.8307139 C24.9510816,16.2498264 24.7352808,16.8446533 24.5328998,17.2041554 C24.3002158,17.6170991 24.1225102,17.9296965 23.7463198,18.2108221 L23.7463198,18.2108221 Z" id="path14"></path>
                    </g>
                </g>
            </g>
        </g>
    </g>
</svg>