<?xml version="1.0" encoding="UTF-8"?>
<svg width="200px" height="200px" viewBox="0 0 200 200" version="1.1" xmlns="http://www.w3.org/2000/svg" xmlns:xlink="http://www.w3.org/1999/xlink">
    <!-- Generator: Sketch 54.1 (76490) - https://sketchapp.com -->
    <title>duquesne</title>
    <desc>Created with Sketch.</desc>
    <g id="duquesne" stroke="none" stroke-width="1" fill="none" fill-rule="evenodd">
        <g id="duquesne_BGL" transform="translate(-0.000000, 0.000000)">
            <g id="duquesne" transform="translate(11.000000, 0.000000)">
                <g id="g10" transform="translate(89.446437, 99.763571) scale(-1, 1) rotate(-180.000000) translate(-89.446437, -99.763571) translate(0.000000, 0.148135)" fill-rule="nonzero">
                    <g id="g12">
                        <path d="M171.326455,125.308061 L158.535722,71.9794525 L161.03808,48.5253844 C126.160397,41.0460684 115.930938,12.2931031 115.930938,12.2931031 C86.8930894,35.3879546 31.7662326,29.4589039 6.38668985,9.7822359 C6.38668985,9.7822359 1.10360192,48.8572927 31.746308,71.1438851 L35.1418447,83.1947767 L21.033967,83.3680303 C27.9979131,121.085354 46.8395105,126.01181 46.8395105,126.01181 C46.8395105,126.01181 48.8681771,131.632139 49.3455104,132.468994 C44.47234,135.168701 40.7380852,138.459661 36.9022791,144.46514 C32.4646647,151.413532 31.1020794,159.042056 30.6485271,164.062975 C30.4135025,166.667575 32.4010345,190.354365 32.4010345,190.354365 C32.4010345,190.354365 42.5190869,182.447175 62.4608219,182.447175 L127.743866,182.456836 C150.501182,182.456836 180.809063,162.262168 171.326455,125.308061 L171.326455,125.308061 Z M101.877456,13.1200615 L101.585443,15.4307317 L101.574945,15.4307317 L100.613209,13.1200615 L100.199077,13.1200615 L99.2795463,15.4307317 L99.2690484,15.4307317 L98.9344009,13.1200615 L97.8987504,13.1200615 L98.5787576,17.1343274 L99.6034817,17.1343274 L100.416748,14.9886882 L101.277148,17.1343274 L102.313227,17.1343274 L102.919106,13.1200615 L101.877456,13.1200615 Z M97.7614207,16.2501546 L96.9010209,16.2501546 L96.9010209,13.1200615 L95.8593716,13.1200615 L95.8593716,16.2501546 L94.9989719,16.2501546 L94.9989719,17.1343274 L97.7614207,17.1343274 L97.7614207,16.2501546 Z M127.743652,188.01512 L62.4603934,188.005674 C41.4393024,188.005674 27.5651423,199.057835 27.5651423,199.057835 C27.5651423,199.057835 26.3745942,184.869934 25.9056163,178.601032 C25.4668468,172.740682 25.216611,165.469399 25.1244865,163.562321 C24.2298079,145.070991 38.5363102,132.935512 42.3174843,130.155726 C35.7151589,126.898259 16.1649743,113.003623 14.3816373,77.8913281 L27.8370167,77.726018 L26.9183428,74.4651153 C-10.7294804,45.6223672 2.11188287,0 2.11188287,0 C2.11188287,0 45.4773537,31.0707847 91.7705447,17.0604317 L91.7705447,10.790284 L106.832039,10.8015981 C113.517277,7.35541922 118.127999,4.65337197 118.127999,4.65337197 C118.127999,4.65337197 136.103198,42.6577346 167.083373,44.1455255 L164.15253,71.6151262 L176.698598,123.923965 C187.387822,165.580822 152.798295,188.01512 127.743652,188.01512 L127.743652,188.01512 Z" id="path14" fill="#FFFFFF"></path>
                        <path d="M48.6757869,102.196207 C49.5981029,103.893748 50.6251837,105.472996 51.6417665,106.486326 C52.8595235,107.700604 55.0158789,109.037468 57.1499531,110.157069 C59.1616945,111.212906 60.8000104,111.895401 60.8222917,111.904633 L63.0589882,112.828222 L63.9007489,116.166628 C63.9849463,116.32335 64.0603599,116.493383 64.124847,116.678015 C64.4774909,117.688125 65.0248817,119.085532 65.8023694,120.637085 C67.3899097,123.803739 69.7832179,127.299082 73.1333351,129.537209 C76.431177,131.740127 81.1194558,132.645039 84.9833276,132.976732 L73.1318354,88.7118403 C71.0536787,84.9159339 69.6763106,82.997478 68.2721623,81.6187488 C66.7964567,80.1698166 65.1317889,79.1446792 61.9288566,77.2414662 C59.497199,75.7959689 55.8137197,74.7397018 52.4346797,74.0211396 L60.3291044,102.052795 L48.6757869,102.196207 Z M45.7657248,68.076202 C45.7657248,68.076202 57.9141577,69.2546268 64.3808673,73.0979793 C70.7935877,76.9091285 72.9726529,78.3005243 77.6264385,86.9097455 L91.2788571,137.900397 C91.2788571,137.900397 78.3981417,138.843738 70.4666529,133.545227 C61.8748674,127.805532 58.9909429,116.358559 58.9909429,116.358559 C58.9909429,116.358559 51.7139664,113.35335 48.2511574,109.901375 C44.3170139,105.979232 41.2826908,97.4694112 41.2826908,97.4694112 L53.9992961,97.3129033 L45.7657248,68.076202 L45.7657248,68.076202 Z" id="path16" fill="#FFFFFF"></path>
                        <path d="M152.793368,130.044518 L139.16473,73.2347358 L140.447617,61.2381604 C132.076716,59.1032986 115.395545,48.8572927 109.415167,36.4253291 C103.353805,39.1132284 90.3903915,43.3483873 67.4582533,44.3698749 C50.5112064,45.1242901 38.0075586,42.0332059 30.0413625,38.9902119 C31.7484504,43.1596761 34.2407388,48.0547873 38.4249039,51.9352809 C58.6487969,70.6900337 105.524086,56.7155337 105.524086,56.7155337 C109.748957,67.1848156 121.282299,69.8950424 121.282299,69.8950424 L123.340102,85.0101822 L133.804586,127.144506 C138.521573,149.117654 114.448591,146.1191 114.448591,146.1191 L102.276377,146.172772 L101.909379,146.174275 L70.4638678,146.312964 C62.0751846,146.350105 57.5538011,147.686111 53.0122787,154.797022 C50.9771848,157.983427 50.0910759,161.945503 49.7433596,165.318473 C52.8856612,164.330047 57.0055533,163.281079 60.614476,163.281079 L127.745152,163.290311 C142.000664,163.290311 158.238781,151.264753 152.793368,130.044518 L152.793368,130.044518 Z M89.7980097,85.1164529 C94.4500814,86.7367066 99.4732219,87.6167145 104.740171,87.6167145 C109.532143,87.6167145 114.260485,86.888706 118.551986,85.4803498 L116.915813,73.4573677 C113.690599,72.3145812 111.919667,71.3450482 109.218277,69.2421749 C106.409124,67.0557878 104.117795,64.668667 103.044009,62.5164154 C103.044009,62.5164154 95.7363962,64.7695706 84.4974246,65.9587299 L89.7980097,85.1164529 Z M98.4302872,118.985916 L104.449229,141.345932 L114.444949,141.301921 C117.663306,141.303638 126.694504,140.611698 128.048948,138.252057 C129.626419,135.505118 130.195877,132.068815 129.146087,128.33388 L127.45271,121.483601 L127.021439,121.299613 C121.614589,118.997724 115.634211,117.725695 109.302475,117.725695 C105.584717,117.725695 101.905308,118.163874 98.4302872,118.985916 L98.4302872,118.985916 Z M96.9580095,113.456186 C100.99349,112.468834 105.250283,111.949288 109.532572,111.949288 C115.225007,111.949288 120.673206,112.867296 125.742623,114.565911 L119.940923,91.0978876 C115.08425,92.5949101 109.817086,93.3931217 104.509646,93.3931217 C100.020613,93.3931217 95.6832639,92.8222652 91.5638002,91.7477495 L96.9580095,113.456186 Z M127.744938,168.10749 L60.6142618,168.098044 C54.3521542,168.098044 44.861191,172.241316 44.861191,172.241316 C44.861191,172.241316 43.6237236,160.560977 48.963301,152.200365 C54.6910866,143.23197 61.087096,141.537219 70.4426577,141.495999 L97.942456,141.374486 L78.0013637,66.4817109 C59.5436897,67.5074923 44.639021,64.9743834 35.0259393,55.3415277 C24.2861538,44.5796255 22.4961538,29.8711057 22.4961538,29.8711057 C22.4961538,29.8711057 37.5518638,40.8796849 67.244653,39.5569894 C99.4637952,38.1222265 110.919366,30.2302794 110.919366,30.2302794 C110.919366,30.2302794 117.935181,40.5825561 123.807152,46.014603 C133.114723,54.624683 145.644294,57.8525237 145.644294,57.8525237 L144.033402,72.9195732 L157.458294,128.88155 C163.901865,153.993013 144.212509,168.10749 127.744938,168.10749 L127.744938,168.10749 Z" id="path18" fill="#FFFFFF"></path>
                        <path d="M52.4346797,74.0211396 C55.8137197,74.7397018 59.497199,75.7959689 61.9288566,77.2414662 C65.1317889,79.1446792 66.7964567,80.1698166 68.2721623,81.6187488 C69.6763106,82.997478 71.0536787,84.9159339 73.1318354,88.7118403 L84.9833276,132.976732 C81.1194558,132.645039 76.431177,131.740127 73.1333351,129.537209 C69.7832179,127.299082 67.3899097,123.803739 65.8023694,120.637085 C65.0248817,119.085532 64.4774909,117.688125 64.124847,116.678015 C64.0603599,116.493383 63.9849463,116.32335 63.9007489,116.166628 L63.0589882,112.828222 L60.8222917,111.904633 C60.8000104,111.895401 59.1616945,111.212906 57.1499531,110.157069 C55.0158789,109.037468 52.8595235,107.700604 51.6417665,106.486326 C50.6251837,105.472996 49.5981029,103.893748 48.6757869,102.196207 L60.3291044,102.052795 L52.4346797,74.0211396" id="path20" fill="#D41042"></path>
                        <path d="M127.745152,163.290311 L60.614476,163.281079 C57.0055533,163.281079 52.8856612,164.330047 49.7433596,165.318473 C50.0910759,161.945503 50.9771848,157.983427 53.0122787,154.797022 C57.5538011,147.686111 62.0751846,146.350105 70.4638678,146.312964 L101.909379,146.174275 L102.276377,146.172772 L114.448591,146.1191 C114.448591,146.1191 138.521573,149.117654 133.804586,127.144506 L123.340102,85.0101822 L121.282299,69.8950424 C121.282299,69.8950424 109.748957,67.1848156 105.524086,56.7155337 C105.524086,56.7155337 58.6487969,70.6900337 38.4249039,51.9352809 C34.2407388,48.0547873 31.7484504,43.1596761 30.0413625,38.9902119 C38.0075586,42.0332059 50.5112064,45.1242901 67.4582533,44.3698749 C90.3903915,43.3483873 103.353805,39.1132284 109.415167,36.4253291 C115.395545,48.8572927 132.076716,59.1032986 140.447617,61.2381604 L139.16473,73.2347358 L152.793368,130.044518 C158.238781,151.264753 142.000664,163.290311 127.745152,163.290311" id="path22" fill="#D41042"></path>
                        <path d="M127.45271,121.483601 L129.146087,128.33388 C130.195877,132.068815 129.626419,135.505118 128.048948,138.252057 C126.694504,140.611698 117.663306,141.303638 114.444949,141.301921 L104.449229,141.345932 L98.4302872,118.985916 C101.905308,118.163874 105.584717,117.725695 109.302475,117.725695 C115.634211,117.725695 121.614589,118.997724 127.021439,121.299613 L127.45271,121.483601" id="path24" fill="#0E2B58"></path>
                        <path d="M109.218277,69.2421749 C111.919667,71.3450482 113.690599,72.3145812 116.915813,73.4573677 L118.551986,85.4803498 C114.260485,86.888706 109.532143,87.6167145 104.740171,87.6167145 C99.4732219,87.6167145 94.4500814,86.7367066 89.7980097,85.1164529 L84.4974246,65.9587299 C95.7363962,64.7695706 103.044009,62.5164154 103.044009,62.5164154 C104.117795,64.668667 106.409124,67.0557878 109.218277,69.2421749" id="path26" fill="#0E2B58"></path>
                        <path d="M119.940923,91.0978876 L125.742623,114.565911 C120.673206,112.867296 115.225007,111.949288 109.532572,111.949288 C105.250283,111.949288 100.99349,112.468834 96.9580095,113.456186 L91.5638002,91.7477495 C95.6832639,92.8222652 100.020613,93.3931217 104.509646,93.3931217 C109.817086,93.3931217 115.08425,92.5949101 119.940923,91.0978876" id="path28" fill="#0E2B58"></path>
                        <path d="M157.458294,128.88155 L144.033402,72.9195732 L145.644294,57.8525237 C145.644294,57.8525237 133.114723,54.624683 123.807152,46.014603 C117.935181,40.5825561 110.919366,30.2302794 110.919366,30.2302794 C110.919366,30.2302794 99.4637952,38.1222265 67.244653,39.5569894 C37.5518638,40.8796849 22.4961538,29.8711057 22.4961538,29.8711057 C22.4961538,29.8711057 24.2861538,44.5796255 35.0259393,55.3415277 C44.639021,64.9743834 59.5436897,67.5074923 78.0013637,66.4817109 L97.942456,141.374486 L70.4426577,141.495999 C61.087096,141.537219 54.6910866,143.23197 48.963301,152.200365 C43.6237236,160.560977 44.861191,172.241316 44.861191,172.241316 C44.861191,172.241316 54.3521542,168.098044 60.6142618,168.098044 L127.744938,168.10749 C144.212509,168.10749 163.901865,153.993013 157.458294,128.88155 L157.458294,128.88155 Z M48.2511574,109.901375 C51.7139664,113.35335 58.9909429,116.358559 58.9909429,116.358559 C58.9909429,116.358559 61.8748674,127.805532 70.4666529,133.545227 C78.3981417,138.843738 91.2788571,137.900397 91.2788571,137.900397 L77.6264385,86.9097455 C72.9726529,78.3005243 70.7935877,76.9091285 64.3808673,73.0979793 C57.9141577,69.2546268 45.7657248,68.076202 45.7657248,68.076202 L53.9992961,97.3129033 L41.2826908,97.4694112 C41.2826908,97.4694112 44.3170139,105.979232 48.2511574,109.901375 Z M127.743866,182.456836 L62.4608219,182.447175 C42.5190869,182.447175 32.4010345,190.354365 32.4010345,190.354365 C32.4010345,190.354365 30.4135025,166.667575 30.6485271,164.062975 C31.1020794,159.042056 32.4646647,151.413532 36.9022791,144.46514 C40.7380852,138.459661 44.47234,135.168701 49.3455104,132.468994 C48.8681771,131.632139 46.8395105,126.01181 46.8395105,126.01181 C46.8395105,126.01181 27.9979131,121.085354 21.033967,83.3680303 L35.1418447,83.1947767 L31.746308,71.1438851 C1.10360192,48.8572927 6.38668985,9.7822359 6.38668985,9.7822359 C31.7662326,29.4589039 86.8930894,35.3879546 115.930938,12.2931031 C115.930938,12.2931031 126.160397,41.0460684 161.03808,48.5253844 L158.535722,71.9794525 L171.326455,125.308061 C180.809063,162.262168 150.501182,182.456836 127.743866,182.456836 L127.743866,182.456836 Z" id="path30" fill="#0E2B58"></path>
                        <polyline id="path32" fill="#0E2B58" points="94.9989719 16.2501546 95.8593716 16.2501546 95.8593716 13.1200615 96.9010209 13.1200615 96.9010209 16.2501546 97.7614207 16.2501546 97.7614207 17.1343274 94.9989719 17.1343274 94.9989719 16.2501546"></polyline>
                        <polyline id="path34" fill="#0E2B58" points="101.277148 17.1343274 100.416748 14.9886882 99.6034817 17.1343274 98.5787576 17.1343274 97.8987504 13.1200615 98.9344009 13.1200615 99.2690484 15.4307317 99.2795463 15.4307317 100.199077 13.1200615 100.613209 13.1200615 101.574945 15.4307317 101.585443 15.4307317 101.877456 13.1200615 102.919106 13.1200615 102.313227 17.1343274 101.277148 17.1343274"></polyline>
                    </g>
                </g>
            </g>
        </g>
    </g>
</svg>