<?xml version="1.0" encoding="UTF-8"?>
<svg width="200px" height="200px" viewBox="0 0 200 200" version="1.1" xmlns="http://www.w3.org/2000/svg" xmlns:xlink="http://www.w3.org/1999/xlink">
    <!-- Generator: Sketch 54.1 (76490) - https://sketchapp.com -->
    <title>georgetown</title>
    <desc>Created with Sketch.</desc>
    <g id="georgetown" stroke="none" stroke-width="1" fill="none" fill-rule="evenodd">
        <g id="georgetown_BGL">
            <g id="georgetown" transform="translate(0.000000, 10.000000)">
                <g id="g10" transform="translate(99.873255, 90.504438) scale(-1, 1) rotate(-180.000000) translate(-99.873255, -90.504438) translate(0.000000, 0.263629)" fill-rule="nonzero">
                    <g id="g12">
                        <path d="M103.032697,111.107729 L87.6112526,74.6190095 L87.6112526,61.8373622 L97.0836985,68.196703 C97.1300356,68.2260059 101.614193,71.1961452 107.049934,71.1961452 L131.050947,71.1961452 L131.050947,60.6954611 C122.978958,51.0448656 111.468692,45.5402777 99.1662333,45.5402777 C75.7790602,45.5402777 56.7530531,65.4792379 56.7530531,89.9916834 C56.7530531,114.504433 75.7790602,134.445624 99.1662333,134.445624 C115.112798,134.445624 130.443596,125.002785 138.423317,111.116854 L103.032697,111.107729 Z M99.1662333,140.503926 C72.3946243,140.503926 50.6931293,117.889984 50.6931293,89.9916834 C50.6931293,62.094802 72.3946243,39.4799483 99.1662333,39.4799483 C114.532823,39.4799483 128.230162,46.9324196 137.111277,58.5571595 L137.111277,77.2544467 L107.049934,77.2544467 C99.5270951,77.2544467 93.6707708,73.2026344 93.6707708,73.2026344 L93.6707708,73.3900108 L107.049934,105.049427 L147.777943,105.06058 C140.98859,125.597969 120.903419,140.503926 99.1662333,140.503926 L99.1662333,140.503926 Z" id="path14" fill="#CBBEA9"></path>
                        <path d="M178.758931,89.9916834 L178.758931,11.9098603 C178.758931,11.9098603 165.752087,17.7946764 157.760199,17.7946764 C147.724204,17.7946764 129.85551,6.05948781 99.1662333,6.05948781 C47.7460064,6.05948781 6.05790606,38.9060573 6.05790606,89.9916834 C6.05790606,140.73916 47.7460064,173.924457 99.1662333,173.924457 C151.210136,173.924457 174.140427,136.00608 174.140427,136.00608 L147.777943,105.06058 L184.031428,105.068692 C184.031428,105.068692 178.758931,99.6966262 178.758931,89.9916834 Z M160.900376,111.122938 L181.584786,135.402785 L179.323696,139.140174 C179.065141,139.567043 172.85779,149.700376 159.879337,159.754622 C147.965522,168.982505 127.762734,179.983772 99.1662333,179.983772 C72.2742694,179.983772 47.4805565,171.310515 29.3548282,155.561973 C10.4249427,139.114825 0,115.827627 0,89.9916834 C0,64.0264623 10.426565,40.6947518 29.3627369,24.2878574 C47.4421281,8.62681854 72.2314811,0 99.1662333,0 C119.66641,0 134.519642,4.92079075 145.36172,8.51314554 C150.580478,10.2428388 155.084407,11.7351581 157.760199,11.7351581 C164.738145,11.7351581 177.171098,5.97710505 184.813177,2.52970336 L184.817232,89.9916834 C184.817232,96.9003778 188.27376,100.728413 188.419767,100.888819 C188.543468,101.018299 198.232695,111.086436 198.232695,111.086436 L160.900376,111.122938 L160.900376,111.122938 Z" id="path16" fill="#CBBEA9"></path>
                        <polyline id="path18" fill="#0F2752" points="187.750566 18.0117613 189.771351 18.0117613 189.771351 11.9098603 190.501389 11.9098603 190.501389 18.0117613 192.632695 18.0117613 192.632695 18.7436244 187.750566 18.7436244 187.750566 18.0117613"></polyline>
                        <polyline id="path20" fill="#0F2752" points="198.289475 18.7436244 196.53637 13.184385 194.782251 18.7436244 193.607093 18.7436244 193.607093 11.9098603 194.340173 11.9098603 194.340173 17.7146764 196.171351 11.9098603 196.903417 11.9098603 198.732568 17.7146764 198.732568 11.9098603 199.466662 11.9098603 199.466662 18.7436244 198.289475 18.7436244"></polyline>
                        <path d="M107.049934,105.049427 L93.6707708,73.3900108 L93.6707708,73.2026344 C93.6707708,73.2026344 99.5270951,77.2544467 107.049934,77.2544467 L137.111277,77.2544467 L137.111277,58.5571595 C128.230162,46.9324196 114.532823,39.4799483 99.1662333,39.4799483 C72.3946243,39.4799483 50.6931293,62.094802 50.6931293,89.9916834 C50.6931293,117.889984 72.3946243,140.503926 99.1662333,140.503926 C120.903419,140.503926 140.98859,125.597969 147.777943,105.06058 L174.140427,136.00608 C174.140427,136.00608 151.210136,173.924457 99.1662333,173.924457 C47.7460064,173.924457 6.05790606,140.73916 6.05790606,89.9916834 C6.05790606,38.9060573 47.7460064,6.05948781 99.1662333,6.05948781 C129.85551,6.05948781 147.724204,17.7946764 157.760199,17.7946764 C165.752087,17.7946764 178.758931,11.9098603 178.758931,11.9098603 L178.758931,89.9916834 C178.758931,99.6966262 184.031428,105.068692 184.031428,105.068692 L147.777943,105.06058 L107.049934,105.049427" id="path22" fill="#0F2752"></path>
                    </g>
                </g>
            </g>
        </g>
    </g>
</svg>