<?xml version="1.0" encoding="UTF-8"?>
<svg width="200px" height="200px" viewBox="0 0 200 200" version="1.1" xmlns="http://www.w3.org/2000/svg" xmlns:xlink="http://www.w3.org/1999/xlink">
    <!-- Generator: Sketch 54.1 (76490) - https://sketchapp.com -->
    <title>gardner-webb</title>
    <desc>Created with Sketch.</desc>
    <g id="gardner-webb" stroke="none" stroke-width="1" fill="none" fill-rule="evenodd">
        <g id="gardner-webb_BGD">
            <g id="gardner-webb" transform="translate(0.000000, 40.000000)">
                <g id="g10" transform="translate(100.000000, 60.262342) scale(-1, 1) rotate(-180.000000) translate(-100.000000, -60.262342) translate(0.000000, 0.762342)" fill-rule="nonzero">
                    <g id="g12">
                        <path d="M15.6256485,47.6254441 C15.8336485,47.4182176 15.8336485,46.7513474 15.6256485,46.5428996 C15.4179335,46.335266 14.7509411,46.335266 14.543104,46.5428996 C14.3350633,46.7509403 14.3350633,47.4178105 14.543104,47.6258512 C14.7517554,47.8338919 15.41602,47.8342991 15.6256485,47.6254441" id="path14" fill="#231F20"></path>
                        <path d="M62.9475811,98.1557227 C76.1469701,113.046308 95.4353157,121.903305 115.410888,117.185951 C131.00702,113.502694 141.325594,102.500964 154.644678,93.8857992 C156.929869,92.4075295 158.932922,90.4586237 161.85282,90.443153 C162.191141,87.5517535 160.480403,85.0731785 160.224322,82.3006595 C165.845899,79.1088021 170.402846,74.7712958 173.902896,69.1704817 C175.447935,66.6980136 176.726306,64.2389806 177.68427,61.5210163 C178.615772,58.8775558 177.394805,55.8257492 179.359181,53.3948078 C183.372209,55.6763345 187.498011,58.332823 192.366,56.9823904 C194.554703,56.3745533 194.544524,53.9851386 196.135975,52.6839681 C197.153379,51.8526196 198.334041,51.507785 199.715415,51.7663091 C199.978825,49.0316527 197.276738,47.3420853 195.150326,46.2322635 C192.886306,45.0511948 189.891497,45.2734849 188.315924,47.6950624 C185.43226,44.7254951 181.767324,42.8897699 178.055161,41.3858514 C177.209563,41.0434595 175.608342,41.1497191 175.074194,40.8435613 C171.845288,38.9944418 169.536484,35.9015564 166.331192,33.852905 C167.757757,33.2038669 168.739741,34.4696175 169.999385,34.6361314 C172.394907,34.9529152 174.769665,33.2910322 176.809359,34.1165589 C179.388494,35.1617294 181.400911,37.4982586 184.278876,38.1887828 C187.190224,38.8869201 191.02656,38.4163655 191.344932,35.05262 C191.584321,32.5185946 192.321217,30.5270221 193.131395,28.1291392 C193.65455,26.5836533 192.99053,24.9050375 192.168545,23.8441521 C190.262794,21.3838977 189.837349,18.3388901 187.413329,16.4600912 C182.307985,12.5036536 175.957248,12.2218419 170.182591,10.4448242 C160.624118,7.50253416 150.781879,5.35051386 141.089462,6.98267667 C131.419844,-1.12611498 116.024425,-2.81774649 105.669616,5.35417798 C101.044679,5.17907366 96.3680383,3.51304215 91.8558756,5.42127213 C86.5396416,7.6698624 82.8975043,11.7935875 78.2603543,15.3608546 C77.2869192,16.1098825 75.5126699,14.9475009 75.3701762,13.8727732 C75.1674281,12.3387274 76.1001508,9.94817278 75.2834587,9.41317025 C73.4652399,8.22151633 71.3563341,11.9157249 69.109413,11.2048445 C64.1070722,9.62275803 59.0452911,10.0343611 54.0291081,9.08620842 C52.5699732,8.81009647 51.7068689,5.4982594 50.9158257,5.83857492 C48.1795408,7.01398456 48.3350624,11.9592872 44.5756732,12.5101676 C40.9025944,13.0488343 37.1688947,11.2256486 33.6802027,13.2153483 C28.0799993,16.4087121 22.1194498,14.3234602 16.1291395,14.9667579 C10.7054654,15.5497604 7.7789311,20.2849868 6.61292604,26.0087525 C6.29390315,27.5758568 3.04278059,27.7695667 1.51192668,29.4351138 C-0.825538911,31.9788287 -0.169052006,35.3363452 1.56265849,37.8435003 C2.72916838,39.5326199 5.32742989,39.824569 5.999837,41.3292611 C7.35942984,44.3721108 5.3454248,48.4335866 8.36690055,51.3591845 C8.96598451,50.5823906 9.41744506,49.7070725 9.99539924,48.9164364 C11.0618623,53.1358765 14.9783609,54.8938409 17.9161726,57.6981156 C18.6614143,58.4097695 19.1113278,59.639286 20.173516,60.3159272 C17.8748494,61.0047822 16.6453736,62.9618305 17.4122337,65.1704818 C17.9904728,66.836436 19.0842947,68.3708889 20.6445593,69.1432044 C21.9452819,69.7872756 23.5714193,70.3690568 24.3870935,71.1706852 C28.8053326,75.5114485 33.4933325,78.9797436 38.4941263,82.3006595 C37.6531288,90.1687509 45.9973525,92.4559773 50.9801514,96.7079874 C51.7178613,97.3378093 51.7805585,99.0208627 52.7792353,99.1947049 C55.452823,99.6608626 56.3533828,95.6474276 55.870533,93.320303 C55.1877849,90.0299214 51.7426959,88.6285983 50.7957239,85.5307867 C50.7322125,85.3219317 51.2154695,84.9400488 51.4735865,85.1989801 C55.6348078,89.3675296 59.0261563,93.7323132 62.9475811,98.1557227" id="path16" fill="#231F20"></path>
                        <path d="M23.4312869,62.3438152 C29.2170985,62.8873267 29.0678873,69.2124156 31.2729152,73.2856979 C31.3672053,73.4599473 32.2094648,73.4416267 32.2706557,73.2950618 C32.6296175,72.4384715 31.1917753,70.6174028 31.7934241,70.8962832 C34.6172002,72.2072247 37.3614647,73.7713976 40.1631746,75.7284459 C40.8692102,76.2214739 41.7058514,76.3281406 42.5652916,76.1937894 C39.8636937,73.0996419 35.4452917,72.5728226 32.9080908,69.187581 C31.4856786,67.2891586 30.1172104,65.2075302 30.8673784,62.7924666 C31.0259127,62.2827465 31.8272969,61.8536371 32.3514699,62.0433572 C32.8646506,62.228599 32.9082536,63.1739424 33.2922943,63.443459 C38.4847217,67.0921103 42.4093628,71.2964868 47.8941464,74.0873264 C50.7680394,75.5493111 54.1768943,76.0557742 57.1790316,74.8645274 C59.1478866,74.082848 59.3233573,71.8807107 58.6780647,70.1512451 C58.1015762,68.6070212 56.7031029,67.6816268 55.1861564,66.829922 C57.4285991,63.8945531 59.2517034,60.7218305 61.7978611,57.9631538 C65.2502783,54.2224923 69.0882425,51.1503295 72.2853926,47.2879377 C65.9537897,49.1611184 63.1120595,55.7349604 57.2144515,58.2636118 C56.8378612,58.4252403 56.4348077,58.1182683 56.4946551,57.8967924 C56.6452912,57.3382174 56.9327212,56.6285991 57.31094,56.380253 C61.0601511,53.914706 65.4570976,51.5814745 66.0995403,46.8702278 C66.1349602,46.6121108 65.5861561,46.2668691 65.4542477,46.5205077 C63.8106854,49.6749097 61.6313471,52.1058511 58.8502784,54.2090572 C58.2526194,50.9203041 60.8683954,47.7390319 59.1849349,44.4755205 C59.1271232,44.3631541 58.7147059,44.438065 58.4431538,44.438065 C58.7334336,51.0583193 56.7389299,58.4716525 50.8954695,61.5246804 C45.162747,64.5194895 40.0559786,57.6024413 34.770849,55.1511437 C33.967877,54.7778103 32.9861773,54.3609147 31.9801315,54.6161818 C34.2757447,57.1167416 38.8026453,57.5279375 39.5887217,60.4592351 C39.8643451,61.4864107 36.5931797,62.6858 35.4298617,60.9974539 C35.2259737,60.7014743 36.3837548,60.3973522 36.8656276,59.9088026 C32.3855056,58.5095151 27.9106354,61.5873776 23.4305134,59.9088026 C25.9352665,58.613739 28.5752257,59.2435609 31.134045,58.2021359 C31.229475,58.163052 31.2345641,57.5885991 31.1315209,57.5417797 C30.148844,57.0955711 28.5461163,58.097912 28.0901774,56.9844261 C26.7210579,53.6415254 22.4241419,53.317047 19.6194194,51.1413728 C18.3740657,50.1752659 18.2923151,51.3530776 17.730768,52.5805585 C16.8326917,51.4609656 16.0887528,52.67379 15.6951446,53.3948078 C14.8808953,52.5805585 14.066646,51.7663091 13.2523966,50.9520598 C13.9524475,50.4240191 15.4147579,50.3515509 14.3874195,49.4184212 C13.8511549,48.9310929 13.2819539,49.6541463 12.8452719,50.1378105 C11.2406308,48.2609657 10.5492924,45.5641719 12.9449768,44.7218309 C14.5548699,44.1563348 16.0166917,46.0319581 17.4670734,47.0917037 C18.0960403,47.5513474 18.5636229,45.9350625 19.3816993,45.7746553 C21.9737399,45.2685994 25.0400808,43.4536376 26.8032563,45.5026961 C27.8007118,46.66178 28.5115922,48.4694135 29.197353,50.110126 C29.4360502,50.6813219 30.0696583,51.3274287 30.6968746,50.867785 C32.1404165,49.8100751 31.7248643,46.78921 32.7081926,46.9626451 C36.7147065,47.6681922 37.6249965,52.7808638 40.9946046,55.354706 C44.5190829,58.0466143 50.2949606,59.8086499 52.9616272,55.3180648 C58.5921614,45.8353169 53.8666653,35.7387065 52.108701,25.6789001 C51.2309402,20.6558366 51.4288028,14.0364373 57.6423395,13.1884373 C67.2549602,11.877048 73.9871737,20.1078061 77.1061558,28.1782792 C77.6040693,29.4651596 77.4754179,30.8726303 77.8914993,32.2523758 C78.5563339,34.457363 76.6501762,36.6013222 77.3447309,38.6801822 C77.4196418,38.9052 78.2994382,37.9139736 78.7187767,38.4007726 C81.2360285,41.3215257 82.5323135,45.5128742 81.2421354,49.3235611 C80.6697181,48.7393372 80.0480387,48.2377596 79.206512,48.1021871 C79.4658504,50.5766908 81.4143491,52.2646297 81.9444254,54.6414236 C82.4647308,56.9762836 82.2575043,59.3608128 81.4587257,61.4648331 C79.4739929,66.6947566 76.5695655,71.8176063 71.6677845,74.6023391 C70.9113468,75.0322628 71.3958252,71.1206089 70.1585733,72.110329 C68.9135861,73.1065631 70.9895148,76.2450872 70.2342985,77.5837131 C69.5185733,78.8527207 67.316436,81.7253924 65.1810671,79.6384713 C64.7393368,79.2069191 65.2388788,80.313484 64.9571485,80.6721608 C65.5959271,80.8346036 65.1330264,81.7310921 65.7713978,81.8935348 C65.0516014,82.7204051 64.8451892,83.6787765 64.9571485,84.7434076 C67.6042731,83.9857485 68.3688533,81.0796926 70.6691076,79.8815247 C72.4791839,78.938624 74.4545528,78.6353161 76.3134841,79.1890057 C78.7354688,79.9104306 81.2620845,80.9913466 82.4435603,83.5313974 C82.615774,83.902288 82.3564356,84.2487511 82.050685,84.2805068 C80.421372,84.447835 78.8059013,84.4486493 77.1765884,84.2800997 C76.8712449,84.2487511 76.8232042,83.755316 76.6774536,83.6071226 C76.1632551,83.0843745 75.2500745,83.8322625 74.8637131,84.1143999 C71.8945529,86.2819317 68.9770975,89.4436619 65.4151638,87.8839673 C62.5058509,86.6104813 61.4192351,83.4316519 58.7969451,81.5613211 C58.2497695,81.1717028 57.3838154,80.6798962 56.9115507,81.1725171 C56.4185228,81.6871226 57.2010164,82.1931786 57.5894133,82.7362829 C57.8247314,83.0656468 57.5275304,83.4259521 57.2144515,83.4695145 C46.5205077,84.9644762 36.7121416,80.0761303 29.234727,72.828904 C28.8540247,72.4600491 29.7059331,71.3416776 29.0688644,71.0245275 C26.2757449,69.6354181 23.2199485,69.1900237 21.0621878,66.7635607 C20.4742183,66.1023902 20.0036636,65.2433571 19.866259,64.3712961 C19.52403,62.2001002 21.9499231,62.2045786 23.4312869,62.3438152" id="path18" fill="#FFFFFF"></path>
                        <path d="M51.9393371,70.131296 C53.137505,69.8589296 54.3381157,71.5839168 54.9638663,70.7370975 C55.6905838,69.7534843 53.2694134,69.814553 53.2922124,68.8688023 C53.3044261,68.374553 54.0498714,67.7321103 54.747276,68.1103291 C56.2532301,68.9266141 59.1173522,71.0746038 57.0544515,72.2316521 C54.3515508,73.7477844 50.4834593,72.5927717 48.265037,70.0869194 C49.4868181,69.3830008 50.6454949,70.42524 51.9393371,70.131296" id="path20" fill="#FFFFFF"></path>
                        <path d="M50.4297188,65.5442223 C50.9915509,66.6744004 51.6144516,68.390838 50.2676832,68.7360797 C47.7072762,69.3927718 45.8027469,67.3005581 43.7866656,66.0156726 C44.7169454,65.2893622 44.2967928,63.4003038 44.986462,63.4524157 C46.844579,63.5932809 49.3048334,63.2826447 50.4297188,65.5442223" id="path22" fill="#FFFFFF"></path>
                        <path d="M18.1229512,55.0644261 C17.3355721,54.7769961 16.8212515,54.1418816 16.1022693,53.8019325 C17.2945339,53.2429503 17.6809767,53.4587264 18.1378927,52.1734338 C18.6550631,53.0768435 19.5200402,53.8976068 19.2752769,55.0049859 C19.1036738,55.7809655 18.5808036,55.2317543 18.1229512,55.0644261" id="path24" fill="#FFFFFF"></path>
                        <path d="M39.6892407,46.08692 C40.1895562,46.7309912 40.7885995,46.3865637 41.3439175,46.4736884 C41.3146046,44.7987775 39.8921924,43.9926707 38.8026453,43.3970473 C36.9502281,42.3845282 35.7038973,45.9252915 34.1893935,44.9750625 C32.8221875,44.1176579 34.6489966,40.428742 36.4499126,40.5251084 C37.0955716,40.5593069 37.5303807,41.99206 38.441485,41.4921109 C39.4309608,40.9490066 40.0022382,39.7341059 40.9925689,39.2622484 C43.0680905,38.2738718 44.9941973,41.4461058 46.3397444,40.3940957 C48.9795408,38.3299736 51.5163346,38.7781364 53.4591335,40.8655461 C54.3214236,41.7917547 54.3853422,43.6417292 53.7551132,44.2031541 C52.8883447,44.9746554 51.3599987,45.417607 49.8996425,45.6907877 C47.8900751,46.0665637 47.5961311,42.4606605 45.995724,43.8269709 C44.6330778,44.9905332 41.7062585,45.4456986 42.5074799,46.6479378 C43.2443755,47.7532812 44.8476325,45.9961312 46.2815256,45.372009 C47.128752,45.0035612 47.9653932,46.4211693 49.1725179,45.8597444 C49.5804568,45.6696172 49.2388792,46.9569454 49.564986,47.164579 C51.1157239,48.1518563 51.6706348,45.9525688 53.163561,45.7612202 C53.4001004,45.7315001 53.8666653,46.194808 53.8780648,46.4769454 C53.9574541,48.474299 53.7982684,51.4145534 52.2516017,51.6795916 C50.0075306,52.0639173 49.1818817,48.278065 46.3617291,51.0831539 C44.7771999,52.6591335 43.5216274,49.1757749 41.3439175,48.9164364 C41.3842229,49.7946044 40.4144519,50.3678359 40.1512458,50.3328232 C38.1167217,50.0584211 36.7958057,48.020355 35.8732612,46.3470726 C35.2967727,45.3015765 37.3715207,45.2889556 38.0870016,44.438065 C38.6301059,44.9811694 39.2045181,45.463205 39.6892407,46.08692" id="path26" fill="#FFFFFF"></path>
                        <path d="M28.2016481,42.5160295 C28.6777805,41.2905842 32.129302,40.7181669 32.4193783,41.6989303 C33.0063707,43.6848844 31.166045,45.930177 30.3516328,48.1021871 C29.0968339,46.3902278 27.479979,44.3745536 28.2016481,42.5160295" id="path28" fill="#FFFFFF"></path>
                        <path d="M20.4918875,41.4741974 C22.4279689,42.0592356 24.7795617,40.8663603 26.2803861,42.8095664 C24.9228696,43.7329251 23.3713582,42.6373526 22.3116941,43.0640193 C21.0658519,43.566004 19.5011089,44.4938411 18.0543914,43.7972508 C17.8217197,43.6848844 16.9093533,44.5805587 16.6288037,44.3126706 C15.7865848,43.5094137 14.1900454,43.0615765 14.2744831,42.0120091 C14.3334755,41.2787776 15.4236739,40.6380448 16.1022693,39.9597751 C17.1655568,41.806004 18.9266967,41.0015257 20.4918875,41.4741974" id="path30" fill="#FFFFFF"></path>
                        <path d="M10.4282949,36.683195 C10.8527224,37.2506454 12.0368852,37.4236734 11.8490786,37.8427268 C10.9726613,39.798513 8.50556722,39.6482026 6.79356726,39.2896072 C3.75938108,38.6528235 1.25985951,35.2940449 2.05693226,32.2784725 C2.89297092,29.1146659 6.49632554,27.8282334 9.5478878,28.7010273 C17.5090479,30.9780348 25.0615363,34.825363 33.5493121,33.1459737 C35.8732612,32.6863707 39.6544316,33.036905 40.5297496,30.188783 C36.8377802,31.107989 32.0766608,33.1843249 28.7231341,31.0030323 C31.4079178,29.3654547 35.1625437,29.8649967 37.2727522,27.3389103 C34.508905,27.3172512 32.1895564,28.8729153 29.52004,29.2519077 C27.1808237,29.5853835 24.8563861,30.8010578 22.688773,29.9940959 C20.0321216,29.004783 17.0432566,28.6268899 14.8808953,26.5246609 C17.7407833,21.8842132 21.8632463,17.1859131 27.5017601,16.3465441 C27.64918,18.2094652 25.2431546,18.482198 25.1564777,20.0162031 C25.125007,20.5773023 26.0192563,20.5443659 26.1821062,20.34003 C32.3118567,12.6354806 42.15206,14.2514398 50.3006603,16.3465441 C49.3182685,21.9398671 50.8588282,27.6990935 50.9129758,33.0446811 C50.9215254,33.8756226 47.6262584,33.0987473 45.8564874,33.9257396 C39.8431746,36.7344113 34.2148388,40.4115613 27.4974446,40.664915 C20.7541165,40.9188794 13.9945849,38.5275105 9.10990308,33.5149508 C8.90760283,33.3072358 8.36722625,33.4457803 7.95977588,33.4457803 C7.96278861,35.1401111 9.58143487,35.5513477 10.4282949,36.683195" id="path32" fill="#FFFFFF"></path>
                        <path d="M42.9996936,28.9906151 C42.6801007,29.3667168 41.8271745,29.7832461 42.2493628,30.0380247 C43.0456987,30.5189204 44.2308386,30.0922537 44.9620345,29.3304827 C45.1004569,29.1859128 45.0080396,28.8314293 45.0080396,28.5602843 C44.3053424,28.5773021 43.5318055,28.3655973 42.9996936,28.9906151" id="path34" fill="#231F20"></path>
                        <path d="M74.7375045,42.4085486 C74.0690058,43.4328742 73.0996419,44.1901261 72.8232043,45.2852915 C72.6990313,45.7775052 73.5413722,45.773434 73.8735859,45.587378 C75.1031024,44.8985231 75.5122627,43.4662585 76.3566393,42.4024417 C78.2147563,46.40692 76.4181151,50.5371998 76.3566393,54.6161818 C76.6281915,54.6161818 77.0556724,54.6776577 77.0919065,54.5852404 C78.6459013,50.5880903 79.0982169,46.1679378 77.8503797,42.0360295 C77.8047818,41.8845791 76.9412703,42.207429 76.8105833,41.5788285 C76.6701253,40.901373 76.763764,40.2309201 76.763764,39.5526504 C75.3099218,39.748396 75.3933823,41.4037649 74.7375045,42.4085486" id="path36" fill="#231F20"></path>
                        <path d="M20.5345135,48.056182 C20.6728544,47.9177596 20.6728544,47.4723652 20.5345135,47.3339428 C20.3961318,47.1955204 19.9510224,47.1955204 19.8125186,47.3339428 C19.6741369,47.4723652 19.6741369,47.9177596 19.8125186,48.0557749 C19.9516738,48.1950115 20.3958468,48.1946044 20.5345135,48.056182" id="path38" fill="#231F20"></path>
                        <path d="M24.2565287,49.7351642 C24.1092717,50.119897 24.3433683,50.4032557 24.6619027,50.5164364 C24.9055261,50.6023397 25.3128136,50.6324669 25.4003047,50.5013728 C25.597638,50.204986 25.4661368,49.7310929 25.4661368,49.3235611 C25.0233887,49.3528741 24.4836228,49.1411693 24.2565287,49.7351642" id="path40" fill="#231F20"></path>
                        <path d="M27.5119382,53.0161819 C27.193526,53.1297697 26.9589815,53.4123142 27.1064014,53.7974541 C27.3334955,54.3910419 27.8732614,54.1797442 28.3160095,54.2090572 C28.3160095,53.8015254 28.4478364,53.3276323 28.2501774,53.0312455 C28.1620349,52.8997442 27.7550731,52.9298715 27.5119382,53.0161819" id="path42" fill="#231F20"></path>
                        <path d="M34.0077752,50.9781158 C33.75605,50.900355 33.3546251,50.864528 33.2673376,50.9956221 C33.0698007,51.2920089 33.0627982,51.8957748 33.2708389,52.1042226 C33.4785132,52.3118562 34.0152663,52.1734338 34.4228795,52.1734338 C34.3936073,51.7304822 34.6161009,51.1645789 34.0077752,50.9781158" id="path44" fill="#231F20"></path>
                        <path d="M36.4585029,52.9876832 C36.1870322,52.9876832 35.9155614,52.9876832 35.6442536,52.9876832 C35.673363,53.4306348 35.4362129,54.0250368 36.0610678,54.1667162 C36.4899736,54.264019 37.0597853,54.4024414 37.2468184,53.7941971 C37.3240907,53.542187 37.364966,53.1721106 37.226625,53.0340954 C37.0874698,52.8948587 36.7298108,52.9876832 36.4585029,52.9876832" id="path46" fill="#231F20"></path>
                        <path d="M66.2204564,44.0407114 C66.0942477,44.5707877 66.0132299,45.1985739 66.2611688,45.6093627 C66.4211688,45.8739938 66.8738915,45.5666146 66.950838,45.2425434 C67.0770467,44.7124671 67.1580645,44.0846808 66.9101256,43.673892 C66.7501256,43.409261 66.29781,43.7170473 66.2204564,44.0407114" id="path48" fill="#231F20"></path>
                        <path d="M80.486512,70.7672247 C82.3307867,70.3723138 81.5246799,73.4575045 82.8706341,74.5652908 C81.4249344,75.310736 79.9812703,74.5070719 78.9089039,73.9480898 C77.1248836,73.0178099 79.4959777,70.9793366 80.486512,70.7672247" id="path50" fill="#FFFFFF"></path>
                        <path d="M86.6210665,53.4424414 C88.0997433,50.7541972 90.8409138,54.672365 92.2345015,56.2446805 C90.6235092,57.2995406 88.1823897,58.391856 86.6703286,56.9192861 C85.8190309,56.0903803 86.0136365,54.5473778 86.6210665,53.4424414" id="path52" fill="#FFFFFF"></path>
                        <path d="M85.7262065,28.9486405 C87.0721607,29.358615 89.0483438,29.2996227 89.4456975,29.9826557 C90.3755703,31.5806201 87.7260029,32.905363 86.3914482,33.5609152 C84.6465119,34.4187269 83.8505831,31.3380959 84.2137384,29.8101163 C84.3354686,29.2975463 84.8598452,28.684783 85.7262065,28.9486405" id="path54" fill="#FFFFFF"></path>
                        <path d="M69.8951636,14.2859233 C69.7371993,13.9484577 69.7148074,13.4322643 69.9065631,13.1302592 C70.8344003,11.6711244 72.5850364,11.6693738 73.9427971,10.6870226 C74.2697182,10.4505239 74.690278,10.7892924 74.6450872,11.0388191 C74.2961813,12.9669208 74.7053416,15.8692719 72.6648328,16.1291395 C71.6649346,16.2557146 70.428497,15.4219233 69.8951636,14.2859233" id="path56" fill="#FFFFFF"></path>
                        <path d="M52.4103804,9.37848323 C53.2409147,10.6854348 53.9338409,11.6941676 52.2955712,12.1163966 C51.3144008,12.3692618 49.7074797,12.9066663 49.2653423,11.7940353 C48.6709403,10.2994399 50.1178613,8.86640181 50.707785,7.38980134 C51.2948588,8.03338402 51.9067672,8.5861779 52.4103804,9.37848323" id="path58" fill="#FFFFFF"></path>
                        <path d="M15.568366,22.3568849 C13.9494348,24.4804472 11.8538419,27.582208 8.77402523,25.7104116 C9.01223387,19.889628 15.8762744,15.0132108 21.3948901,16.7536688 C19.5572514,18.7172311 17.3161522,20.0647323 15.568366,22.3568849" id="path60" fill="#FFFFFF"></path>
                        <path d="M74.3776063,105.005188 C70.9549092,102.962644 57.2799986,88.3741454 55.6751131,85.3019826 C55.2227976,84.4360284 58.1483955,84.294349 59.1503293,84.6432549 C60.7442224,85.1985729 61.2698204,87.8513973 62.9972503,88.6513973 C69.1370975,91.494756 71.8713468,97.8068169 77.6411177,101.332517 C78.0620846,101.589819 78.5563339,102.114196 79.2069191,101.843865 C80.2011176,101.430226 78.7985731,101.028802 79.206512,100.62127 C75.4003035,97.7530764 72.3358761,94.1809646 69.4355199,90.443153 C71.506156,89.3109392 72.8667666,87.0383693 74.847021,86.2717536 C77.2262576,85.3508376 80.1188784,86.3279368 82.8344,85.783204 C84.2792854,85.4933312 83.9336366,83.4357231 83.4963847,82.3788275 C82.5384203,80.0647308 78.7924662,79.4951634 78.5856469,77.7510413 C78.2782678,75.1564358 82.0287002,76.1050363 84.4991327,76.6009141 C84.6770462,75.1051381 83.4349089,73.4603544 83.6913974,72.6627972 C85.2429495,67.8359271 88.9078858,63.8530264 90.4626949,58.7680392 C90.8543489,57.4860037 93.4611681,57.8381665 93.9631529,56.8956729 C94.7489035,55.4210673 91.5366898,54.567734 91.6600486,53.006818 C92.1982674,46.194808 90.4802013,39.6197446 89.7205067,32.9998567 C89.5833056,31.8058007 92.6078348,31.0818924 91.9930766,29.4664624 C91.429616,27.9840807 88.8940436,29.0381672 87.9299724,27.9926711 C84.8105831,24.6106864 82.5058504,20.7356738 79.206512,17.5679181 C84.9078859,17.0193991 90.6088527,16.5350021 96.3057482,15.9394194 C93.1855447,21.8654447 90.7680384,31.891704 98.5233563,36.2854749 C99.3591833,36.7592052 99.9206082,38.7814749 101.26127,39.4015664 C102.958165,40.1865435 104.578114,39.0103196 106.07674,37.9241517 C107.226053,39.5388082 109.638267,39.7293425 110.290888,41.3341465 C112.794297,47.4915001 111.980048,48.7128741 119.10473,55.4304312 C116.752363,56.0492607 114.496079,54.2632048 112.212923,55.1026958 C110.794094,55.6254439 109.11959,55.6791844 108.112364,57.0589299 C110.388191,57.6158764 112.342389,55.7272251 114.611295,56.3045279 C118.748089,57.356538 122.567732,58.9956219 126.788394,58.0490571 C127.248038,57.9460545 128.175875,58.23837 128.468597,57.4660545 C130.46188,61.6590315 129.017808,66.7436116 127.936892,71.2785733 C126.718775,76.3924663 123.480506,80.2796926 121.140353,84.7434076 C124.679895,82.7081913 125.892312,78.8808123 128.061473,75.7866648 C129.126104,76.6746037 127.69791,78.3963339 128.928241,78.9198962 C129.413941,79.1267156 129.421676,78.0828479 129.495366,77.7758759 C129.899233,76.0806088 128.903814,74.2391839 129.093127,72.5540949 C129.275111,70.9365886 129.773432,69.3203036 130.234704,67.6828482 C131.334348,63.7777083 130.328343,60.0236117 130.911345,56.2446805 C132.513788,57.0076322 132.11562,60.0272759 134.126816,59.6714489 C134.522134,59.6014234 133.843457,58.4643242 133.586969,57.9623395 C132.909106,56.637963 131.627478,55.3632556 131.21506,54.1093116 C130.78188,52.7885992 130.748903,50.9162328 131.31847,49.3235611 C132.929462,51.2394898 135.141778,52.8036628 136.002846,55.0990317 C140.848444,68.0118049 148.488139,79.689769 158.188698,89.2217789 C148.942083,95.7174531 140.279691,101.979845 130.435824,108.662796 C122.472465,114.069412 113.779946,116.240201 104.876537,115.728038 C89.626868,114.851906 86.2664609,112.100964 74.3776063,105.005188" id="path62" fill="#C4122E"></path>
                        <path d="M124.712872,49.0125179 C126.164679,50.3967417 127.887223,51.220355 129.202236,52.6546552 C129.413941,52.8850877 129.331702,53.8279885 128.937605,53.6582175 C122.985849,51.0912964 119.861575,45.6785739 116.332618,40.3155206 C116.129056,40.0060244 116.37618,39.1361212 116.510124,39.2833782 C119.414145,42.4757241 121.523865,45.9737393 124.712872,49.0125179" id="path64" fill="#C4122E"></path>
                        <path d="M127.313992,37.951022 C127.664526,42.318574 132.627376,46.4712457 128.875722,50.1378105 C123.981676,47.1466655 120.819946,42.3922636 117.476231,37.9241517 C118.999285,33.984732 118.549819,29.656956 120.235315,25.6720604 C120.30819,25.499521 119.803356,25.0885693 119.568852,25.3533632 C115.897402,29.4985845 118.061269,37.5478871 111.737402,38.9724978 C108.812211,39.6315105 106.809972,36.9481517 105.339438,34.6186251 C105.139539,34.3031035 105.083763,33.5551747 105.674094,33.5222791 C108.288242,33.3753071 110.628801,31.8937804 112.065544,29.7041825 C116.879386,22.3670631 121.186765,14.0340353 118.210684,5.38137391 C117.996536,4.76095662 117.741269,3.82490372 116.661982,4.13280397 C119.725188,12.3126714 115.56071,20.5854041 111.194297,27.6377398 C109.775468,29.9296888 107.656384,32.1758771 104.865137,32.0317956 C104.371702,32.0060246 104.167326,30.9521417 103.9316,30.2245692 C103.860761,30.0050883 103.320913,30.2916634 103.280201,30.6031952 C103.208954,31.1471137 102.95328,31.8172816 103.633992,32.2244063 C102.807122,32.9444877 101.825137,33.2845183 100.804069,32.9726608 C99.9743486,32.7189814 99.3534835,32.0863503 98.7293614,31.4279483 C97.8222876,30.4708796 99.2659517,28.7393377 97.5271222,28.1531596 C97.2661553,29.635012 98.0694123,31.2121315 97.1199976,32.631531 C95.4104811,31.1108389 93.4155702,27.6657092 95.3453411,26.5815769 C96.8052902,25.7608136 98.1687507,24.3643353 99.1556209,22.8605389 C100.372109,24.5879281 97.712364,27.1434497 100.376995,28.5602843 C100.119285,25.9204879 100.571193,23.3115516 102.465952,21.2811801 C102.710226,21.0198875 103.125494,21.3301572 103.176791,21.6472666 C103.521219,23.7870732 100.811804,25.8187067 101.931397,27.0310019 C102.950837,28.1351647 103.798064,25.4513174 104.448242,24.0819129 C105.244578,24.7865643 104.465341,25.9737398 104.970583,26.3811902 C105.779946,27.0351545 106.081626,28.3901062 106.409768,28.2980146 C109.631753,27.3926507 112.369259,22.4826457 109.806002,19.9499232 C108.006511,18.1723761 105.759183,21.3740453 104.855366,23.6747882 C103.942593,22.5954193 105.056893,20.8578112 103.947071,20.160773 C101.772618,18.7958061 100.646919,21.4098315 99.5627456,23.2676635 C98.5477838,21.0535974 100.787784,18.3813532 98.3413716,16.7536688 C103.831448,4.8692925 118.610073,-1.4095104 130.897096,3.35591646 C134.890989,4.90536375 138.441523,7.04276827 140.942897,10.7456893 C143.547274,14.6014449 144.160811,18.8730784 146.493228,22.7940554 C147.278571,24.1127729 148.383915,25.1782589 149.700556,26.021292 C157.933838,31.2880196 166.676433,34.1858923 172.57852,42.1919582 C177.759588,49.2201514 178.009156,58.8779629 173.032057,66.2746039 C168.754805,72.6310414 164.233685,78.3491075 157.589411,81.4868173 C157.038164,81.74697 158.387782,79.5423899 157.692413,79.2728733 C155.799284,78.5396418 156.170174,82.997657 155.715823,82.6381659 C147.398266,76.0667665 141.911447,67.0835607 139.028597,56.9502276 C138.940251,56.6404057 140.311854,57.3447314 140.555722,57.9261054 C141.556841,60.3167415 142.763966,62.3096168 144.78819,63.9368941 C145.091905,64.1811689 145.551141,63.7781155 145.476638,63.6144513 C144.669716,61.8361308 143.160912,60.4742987 142.310836,58.6874286 C145.567834,58.4578102 148.359895,60.8773522 151.674704,60.3159272 C148.253635,57.3463599 143.443457,57.513281 139.897401,54.580762 C136.56305,51.824528 134.09221,48.5948079 132.228801,44.7979633 C129.704628,39.6536173 130.571803,34.1739635 129.481931,28.6009967 C128.82931,25.2612716 125.194501,22.3185338 121.584526,24.1550732 C121.473381,24.2113378 121.547478,24.6250172 121.547478,24.8961622 C124.53618,24.3086813 126.934959,26.5820655 127.582287,29.3912257 C128.249564,32.2873885 127.077045,35.0001416 127.313992,37.951022" id="path66" fill="#FFFFFF"></path>
                        <path d="M98.0559772,20.4657908 C97.4957736,21.8829511 97.2962826,23.5286305 95.8754175,24.4530884 C95.5322114,24.6761928 95.1043233,24.3032666 95.1739416,24.1148086 C95.9385218,22.0470631 95.6633055,19.2081827 97.6533309,18.2318571 C98.1194886,18.0026866 98.4480383,19.4740758 98.0559772,20.4657908" id="path68" fill="#FFFFFF"></path>
                        <path d="M100.699845,9.77514479 C99.8603537,11.0114603 98.8824403,12.4678674 97.8418296,12.7552567 C92.3839163,14.2632058 87.0375551,17.1720708 81.2421354,15.5322948 C86.2139419,9.54263589 94.9459518,4.99985738 102.819743,7.38980134 C102.118674,8.18560794 101.34758,8.82235092 100.699845,9.77514479" id="path70" fill="#FFFFFF"></path>
                        <path d="M106.961422,9.87069695 C107.428801,9.00922115 108.165697,8.32985221 108.519488,7.38980134 C105.430226,7.42684969 104.23613,11.9715417 105.126104,14.2026256 C106.326715,17.2108698 110.143509,14.7456892 111.239081,12.6151244 C112.271549,10.6060862 112.533331,8.51130768 112.133941,6.17730264 C112.079387,5.85815761 111.553381,5.57520597 111.477249,5.79786245 C110.438267,8.8379438 110.768038,13.9371803 106.889361,13.9533839 C104.937198,13.9619742 106.154908,11.3563763 106.961422,9.87069695" id="path72" fill="#231F20"></path>
                        <path d="M125.298317,12.7320099 C125.15216,12.9885391 125.030429,13.2396536 124.841524,13.5214653 C124.613534,13.8621065 124.93272,14.2538012 125.208343,14.2404475 C127.06361,14.1512465 126.674399,11.8982185 127.054653,10.5904934 C127.497198,9.06837636 126.395111,6.81567413 124.804475,6.16842733 C125.243356,8.40761302 126.681727,10.3128343 125.298317,12.7320099" id="path74" fill="#231F20"></path>
                        <path d="M107.673483,21.2099333 C108.04356,20.6680911 108.670532,20.6998875 108.824425,20.9021878 C110.354399,22.9190427 107.841626,25.3667169 106.483865,26.9317856 C105.015366,25.3043861 106.520913,22.8975872 107.673483,21.2099333" id="path76" fill="#FFFFFF"></path>
                        <path d="M150.046205,7.81312958 C154.511955,7.75857487 159.021268,8.79833057 163.074194,10.6467987 C156.968953,11.2374552 150.835213,12.2792465 144.771905,11.9441829 C143.645391,11.8815264 143.62992,9.49667152 142.310836,8.61117536 C144.798368,7.46658506 147.4459,7.84447818 150.046205,7.81312958" id="path78" fill="#FFFFFF"></path>
                        <path d="M156.178317,12.5154195 C166.302693,11.4610481 177.124474,11.9995112 185.707069,18.5978214 C185.782794,18.6559995 184.738112,18.5653736 184.287833,18.8558977 C184.158774,18.9390733 184.186458,19.4915822 184.273583,19.5228901 C186.902794,20.4645288 189.078469,22.1997348 190.203354,24.5597958 C190.816077,25.8450884 192.029308,28.7845285 190.436636,28.496325 C188.517044,28.1490069 187.372209,24.917292 184.651802,24.8961622 C184.651802,25.3036126 184.526815,25.9012309 184.714092,26.0149408 C187.509817,27.7165998 190.479385,30.0361112 189.926102,32.9580043 C188.493838,40.5251084 180.908291,34.2449254 176.456789,32.7923045 C174.140657,32.036559 171.585543,33.4755004 169.20997,32.5561315 C168.085085,32.1208745 167.036332,31.5416582 165.95908,30.940213 C162.871446,29.2161214 162.249767,25.2315515 159.002948,23.6747882 C158.917044,25.5157246 160.956332,26.9915515 160.630632,28.0247932 C160.087121,29.7506354 158.039691,26.6622283 156.556943,26.1267373 C156.168139,25.9868085 155.887223,26.215979 155.774449,26.534839 C155.541981,27.1951138 156.468597,27.3042232 156.489767,27.7492105 C156.502795,28.0252817 156.113177,28.3382792 155.768342,28.1184726 C152.299233,25.9139739 148.644068,24.2129256 146.833991,20.3966204 C145.917961,18.464366 144.910734,15.5758571 145.635416,14.7068902 C147.841625,12.0623305 152.475518,12.9009259 156.178317,12.5154195" id="path80" fill="#FFFFFF"></path>
                        <path d="M163.486205,30.9983911 C163.887629,31.4284369 164.464932,31.7569865 164.614347,32.250788 C164.678266,32.4604165 164.203151,32.839531 163.933227,32.5843045 C162.935772,31.6396124 161.602846,31.4577091 160.631446,30.5959076 C161.433075,29.9880705 162.264423,29.6908288 163.486205,30.9983911" id="path82" fill="#FFFFFF"></path>
                        <path d="M185.423303,47.3538919 C187.267171,48.5536884 188.995008,50.4175051 191.107985,49.9016781 C191.484575,49.809668 190.835619,48.9461565 190.351547,48.5093118 C192.648952,46.224121 196.517043,47.7777087 197.405797,50.2367417 C197.511242,50.5286501 196.095669,50.8075305 195.28712,51.0941463 C193.685898,51.661271 194.335262,54.2648332 192.747476,54.9064617 C188.466153,56.6367416 184.168138,54.4920088 180.580555,52.1734338 C181.404168,51.4023397 181.933431,50.5042227 181.801929,49.3235611 C180.314296,49.8149606 179.70483,51.3070725 178.544932,52.1734338 C177.641929,49.329668 178.043354,46.0506859 176.102184,43.6238157 C179.504525,42.3344519 182.614143,45.5275307 185.423303,47.3538919" id="path84" fill="#FFFFFF"></path>
                        <path d="M157.393584,83.9739419 C157.782795,83.8102778 158.335263,84.0981149 158.595823,83.5220335 C159.589614,84.6355195 160.839894,86.5709902 159.817197,88.0004049 C158.730988,86.9141963 157.460352,85.9961302 156.67053,84.6774534 C156.620454,84.594807 157.062999,84.1131786 157.393584,83.9739419" id="path86" fill="#FFFFFF"></path>
                        <path d="M103.62015,34.6947981 C105.75959,34.7624215 104.077351,37.3528744 102.374756,37.7694036 C100.96244,38.1149711 99.9564352,36.2964266 99.9006591,35.4584826 C99.7711934,33.5202027 102.561626,34.6609253 103.62015,34.6947981" id="path88" fill="#FFFFFF"></path>
                        <path d="M49.0731794,86.3735347 C49.8426451,89.9440181 55.9352658,92.6961809 53.150533,96.1428984 C51.04407,91.8737891 45.7998971,91.5008629 42.6772508,88.2980131 C41.4200499,87.0082421 39.830798,84.8175042 40.5356122,83.8119063 C41.9313984,81.8210667 45.0560803,85.0654432 47.8672762,84.9156213 C48.317556,84.8916009 48.9115509,85.6227968 49.0731794,86.3735347" id="path90" fill="#FFFFFF"></path>
                        <path d="M81.58697,102.748089 C81.3573517,102.591346 81.0914992,102.475316 80.8101761,102.286817 C80.4698199,102.058827 80.0386748,102.443153 80.111143,102.620252 C81.3927715,105.767326 84.8382676,106.218827 87.468293,107.743509 C90.7301758,109.633789 93.9802521,111.617707 97.9342469,111.613648 C92.5654939,108.436028 87.0522116,106.483051 81.58697,102.748089" id="path92" fill="#231F20"></path>
                        <path d="M121.038572,55.939337 C121.717249,55.939337 122.395926,55.939337 123.074195,55.939337 C122.16875,55.7874795 121.761218,54.9129757 121.144832,54.3894134 C120.301269,53.6736882 116.985239,49.4497698 116.463305,48.35664 C115.408038,46.1488029 113.891091,44.170177 113.506766,41.6899735 C113.069107,41.8055969 112.723051,41.3707878 112.285392,41.4864112 C114.095061,47.0933322 117.604475,51.8831539 121.649259,56.1428994" id="path94" fill="#C4122E"></path>
                        <path d="M124.906256,55.32865 C124.706358,55.3917543 124.606613,55.2289045 124.725086,55.1682429 C125.5316,54.7582684 126.490786,55.0106856 127.349004,54.717963 C124.990124,53.4180139 122.934552,51.7565381 121.135061,49.7457494 C119.991447,48.4681922 118.665849,47.4288029 117.849157,45.9281413 C116.935977,44.2491592 115.905951,42.7326198 115.219946,40.9205079 C115.143407,40.7177598 114.558369,41.2140448 114.117453,41.0792865 C115.7773,46.1243754 118.632465,50.5213219 122.762745,53.9932811 C123.305849,54.4496678 123.883559,55.1242734 124.514195,55.1983701 C124.881422,55.2415253 125.313381,54.985851 125.720506,55.32865" id="path96" fill="#FFFFFF"></path>
                        <path d="M95.8876312,104.440506 L95.962135,105.063407 L97.1269187,105.517351 L99.8884453,101.770583 L98.6743996,100.682746 C97.6590306,101.570277 96.7527711,102.147173 95.9560281,102.41384 C95.1592852,102.679692 94.3841198,102.66585 93.6317534,102.37272 C92.6717534,101.998165 92.0920079,101.304425 91.893331,100.291499 C91.6942471,99.2781655 91.8917025,98.0103792 92.4856974,96.4873258 C93.0703285,94.9874785 93.7661045,93.9427966 94.5730256,93.352873 C95.3799467,92.7629493 96.2609645,92.654247 97.2148576,93.026359 C97.9794378,93.3243743 98.5127711,93.7506338 98.8156718,94.3059518 C99.1181655,94.8608628 99.1446286,95.4585218 98.8950611,96.0985218 C98.721626,96.5431019 98.4789797,96.8187253 98.1675294,96.9262062 C97.856079,97.03328 97.4212698,96.9884963 96.8631019,96.7910408 L96.301677,98.2314479 L102.017707,100.460456 L102.579539,99.0200484 C102.068191,98.6841706 101.766919,98.3633563 101.674908,98.0580128 C101.582084,97.7518551 101.662695,97.2730764 101.917148,96.6212698 L103.192669,93.3500231 L101.352873,92.6322623 L100.468598,93.4550613 C100.072466,92.8431529 99.6209644,92.3326186 99.1145013,91.9234583 C98.6084454,91.514298 97.999794,91.1710919 97.2885472,90.89384 C95.5936872,90.2326695 94.0022368,90.3035092 92.5150104,91.106359 C91.0273769,91.9088018 89.8967916,93.3027966 89.1224405,95.2883437 C88.3993871,97.1436108 88.3961301,98.8885471 89.1138909,100.523967 C89.8316517,102.158573 91.0998451,103.331092 92.9196923,104.04071 C93.3760791,104.21903 93.8422368,104.341168 94.3181656,104.407122 C94.7945014,104.473076 95.3176567,104.484476 95.8876312,104.440506" id="path98" fill="#FFFFFF"></path>
                        <path d="M95.8876312,104.440506 L96.291906,104.392058 L96.337504,104.77272 L96.9840179,105.025137 L99.3412698,101.827173 L98.4024403,100.985646 L98.6743996,100.682746 L98.9422876,100.98931 C97.9016769,101.897198 96.961219,102.505443 96.0850867,102.799794 C95.6685981,102.938623 95.2496668,103.010684 94.8339925,103.010684 C94.3755702,103.010684 93.9224404,102.923153 93.4839671,102.751753 C92.9506338,102.544527 92.5023895,102.237555 92.1644761,101.832466 C91.8261555,101.427784 91.6034583,100.931906 91.4935346,100.370074 C91.4381657,100.087529 91.4112954,99.7911425 91.4112954,99.4809135 C91.4117025,98.555112 91.6494634,97.5120586 92.1062572,96.3395396 C92.7083946,94.7993869 93.4310409,93.6871223 94.3328221,93.0243234 C94.8836618,92.6192343 95.5000485,92.4018298 96.1404556,92.4034582 C96.5443233,92.4030511 96.9538907,92.4873259 97.363051,92.6469188 C98.1878856,92.9673259 98.8148576,93.4526185 99.1731273,94.1109391 C99.3689543,94.4692088 99.4719568,94.85842 99.4711426,95.2569951 C99.4711426,95.5851376 99.4027456,95.9169442 99.2745013,96.246308 C99.1743487,96.5015752 99.0497685,96.7238653 98.8889543,96.9074785 C98.7285472,97.0906846 98.5278347,97.2331782 98.300252,97.310939 C98.1394378,97.3659009 97.9688525,97.3899212 97.7921604,97.3899212 C97.4672749,97.389107 97.1179619,97.3121604 96.7275294,97.1749594 L96.8631019,96.7910408 L97.2425421,96.9392342 L96.8289034,98.0002011 L101.786461,99.9332291 L102.200506,98.8722622 L102.579539,99.0200484 L102.356028,99.3604046 C102.081626,99.1800484 101.85445,98.9984708 101.673687,98.806308 C101.493331,98.6145522 101.355723,98.4085472 101.28529,98.1756718 C101.246206,98.0474276 101.230735,97.9138907 101.230735,97.7758754 C101.232364,97.3980637 101.342288,96.9783182 101.538115,96.4734836 L102.665443,93.5812699 L101.442847,93.1045269 L100.39043,94.0836618 L100.126613,93.6765371 C99.7508372,93.0959773 99.3282418,92.6192343 98.858827,92.2397941 C98.3902265,91.8615753 97.8194378,91.5375041 97.1407609,91.272873 C96.4156719,90.9903285 95.7227457,90.8535346 95.0562826,90.8535346 C94.2461045,90.8539417 93.4709391,91.05384 92.7083946,91.4646288 C91.3221351,92.2137382 90.2534329,93.5136872 89.5018807,95.4365371 C89.1546034,96.3269187 88.9852395,97.1786235 88.9848324,97.9969441 C88.9852395,98.8107863 89.1505321,99.5940942 89.4868171,100.360303 C90.1646797,101.89557 91.3298705,102.979336 93.0674786,103.661677 C93.4949595,103.828191 93.9301758,103.942186 94.3743488,104.004069 C94.6402012,104.04071 94.9251885,104.059438 95.2289035,104.059438 C95.4300231,104.059438 95.638878,104.051295 95.8562826,104.034603 L96.2454938,104.004476 L96.291906,104.392058 L95.8876312,104.440506 L95.9189798,104.84641 C95.6820332,104.86473 95.4520078,104.873687 95.2289035,104.873687 C94.8913971,104.873687 94.5693615,104.852924 94.2623895,104.810583 C93.7542979,104.739743 93.2567916,104.609463 92.7719061,104.42015 C90.8702267,103.682847 89.4982166,102.421982 88.7409647,100.687631 C88.3615245,99.8237125 88.170583,98.9223385 88.1709902,97.9969441 C88.170583,97.0650357 88.3647815,96.1107355 88.7434075,95.1405574 C89.5401504,93.0923132 90.7330257,91.6038654 92.3216262,90.7480893 C93.1908374,90.2782675 94.1097177,90.038471 95.0562826,90.0392853 C95.8355192,90.0388782 96.6310408,90.2000995 97.4363334,90.5143998 C98.1805573,90.8046797 98.8266642,91.1674277 99.3705828,91.6067153 C99.9136871,92.0455957 100.393687,92.5903285 100.810176,93.2335855 L100.468598,93.4550613 L100.190939,93.157046 L101.262491,92.1599977 L103.719896,93.1183692 L102.296588,96.7690561 C102.119081,97.2197431 102.042949,97.5694632 102.044985,97.7758754 C102.044578,97.8507864 102.053534,97.9053411 102.064527,97.9395395 C102.085697,98.0124149 102.145137,98.1198958 102.266868,98.2485472 C102.387377,98.3776057 102.566511,98.5245777 102.803051,98.6796922 L103.078674,98.8608627 L102.249361,100.987682 L95.7744505,98.4626947 L96.6269696,96.2760281 L96.9986744,96.4071223 C97.3312953,96.5255956 97.6016261,96.5764861 97.7921604,96.5756719 C97.8963843,96.5756719 97.9761808,96.5614225 98.0352138,96.5410663 C98.1190815,96.5113462 98.1952138,96.4624912 98.277453,96.3696668 C98.3588779,96.2776566 98.4423385,96.1396414 98.5156209,95.9507355 C98.6129237,95.7011681 98.6568932,95.4719569 98.6568932,95.2569951 C98.6564861,94.995621 98.5937889,94.7509391 98.4582164,94.5009646 C98.2110917,94.048649 97.771397,93.6814226 97.0670714,93.4053921 C96.7381146,93.2775549 96.4311426,93.2177076 96.1404556,93.2177076 C95.6808119,93.218929 95.2517025,93.3630511 94.8136363,93.6814226 C94.1015753,94.1988781 93.4322623,95.1755701 92.8647305,96.6351121 C92.4315499,97.7441197 92.2247305,98.6971986 92.2255448,99.4809135 C92.2255448,99.743509 92.2483437,99.9869695 92.2927203,100.212924 C92.3818806,100.663611 92.5483946,101.021066 92.7894124,101.310532 C93.0312445,101.599183 93.352873,101.826359 93.7795396,101.99328 C94.130074,102.130074 94.4785727,102.196028 94.8339925,102.196435 C95.1564353,102.196028 95.485392,102.141066 95.8273767,102.027478 C96.5443233,101.78931 97.4163843,101.243356 98.4065115,100.376181 L98.6776566,100.138827 L100.436028,101.714399 L97.2694123,106.010379 L95.5867661,105.354094 L95.4837635,104.488547 L95.8876312,104.440506 L95.9189798,104.84641 L95.8876312,104.440506" id="path100" fill="#231F20"></path>
                        <path d="M104.60417,105.763661 L104.730379,107.381168 L110.029107,106.967122 L109.906155,105.397249 L109.811295,105.404578 C109.614654,105.420048 109.450583,105.381779 109.319081,105.290175 C109.18758,105.198165 109.115926,105.076028 109.104119,104.92417 C109.090684,104.758878 109.093534,104.572008 109.112669,104.36356 C109.131397,104.154298 109.164374,103.946257 109.212007,103.738216 L110.479794,97.666766 L112.337096,102.326308 L112.056995,103.515926 C111.918572,104.120099 111.760608,104.55043 111.583102,104.806918 C111.405188,105.063 111.158063,105.242135 110.840099,105.343509 L110.961422,106.894247 L116.517045,106.459845 L116.394501,104.890379 C115.987376,104.909107 115.689361,104.873687 115.500862,104.783305 C115.311956,104.692516 115.208954,104.536181 115.191448,104.314298 C115.186155,104.250786 115.187783,104.17099 115.196333,104.074908 C115.204883,103.978013 115.214654,103.881931 115.22646,103.785443 L116.339539,97.2091579 L118.61048,102.630837 C118.720811,102.902796 118.812414,103.158878 118.886104,103.398674 C118.958979,103.638471 118.999692,103.812313 119.008241,103.920608 C119.025748,104.142084 118.922745,104.319183 118.700048,104.451499 C118.477758,104.583814 118.07959,104.701066 117.50758,104.803254 L117.630124,106.373127 L122.966714,105.955824 L122.842949,104.367224 C122.26076,104.26585 121.812923,104.089972 121.499844,103.840405 C121.186765,103.59043 120.876536,103.085595 120.567936,102.324679 L116.723865,93.0634073 L114.250582,93.2567916 L112.992974,99.2126184 L110.606817,93.5413717 L108.076537,93.7392343 L105.819845,104.300048 C105.708293,104.831753 105.566206,105.198572 105.393992,105.400506 C105.220964,105.60244 104.957962,105.723356 104.60417,105.763661" id="path102" fill="#FFFFFF"></path>
                        <path d="M104.60417,105.763661 L105.010074,105.731906 L105.104527,106.943509 L109.591448,106.592567 L109.500252,105.429005 L109.906155,105.397249 L109.938318,105.803153 L109.843458,105.810888 C109.805188,105.813738 109.767326,105.815366 109.729056,105.815366 C109.503102,105.816588 109.27389,105.755926 109.086206,105.624018 C108.979132,105.549921 108.884272,105.452618 108.815875,105.335773 C108.747071,105.219743 108.707987,105.086613 108.698216,104.955926 C108.691702,104.876944 108.688852,104.794705 108.688852,104.710023 C108.688852,104.588293 108.694959,104.460455 108.707173,104.326511 C108.727529,104.099743 108.763763,103.872975 108.815468,103.647427 L109.212007,103.738216 L108.81384,103.655163 L110.357249,96.2601503 L112.762949,102.294959 L112.453941,103.605494 L112.453534,103.606715 C112.307376,104.236537 112.148191,104.700252 111.918165,105.038572 C111.690175,105.369565 111.355519,105.60814 110.963865,105.731092 L110.840099,105.343509 L111.246002,105.311346 L111.33557,106.456588 L116.078979,106.085697 L115.988598,104.921728 L116.394501,104.890379 L116.413636,105.297097 C116.337096,105.300761 116.263814,105.302389 116.192974,105.302389 C115.854246,105.300354 115.574959,105.267377 115.324577,105.150125 C115.173941,105.078878 115.036333,104.966511 114.941473,104.821982 C114.846613,104.67786 114.798165,104.511346 114.785544,104.346053 C114.782694,104.310634 114.781473,104.273585 114.781473,104.235315 C114.781473,104.173025 114.78473,104.107478 114.790837,104.03786 L114.790837,104.039488 C114.799794,103.938929 114.809972,103.837962 114.822185,103.736995 L114.823,103.727224 L116.172618,95.756537 L118.986664,102.474908 L118.987885,102.477758 C119.10188,102.759081 119.197961,103.026155 119.275315,103.279387 C119.351855,103.534654 119.399081,103.717453 119.414145,103.888852 L119.417402,103.968242 C119.418623,104.138013 119.368954,104.313891 119.275315,104.45842 C119.182084,104.60417 119.052211,104.71613 118.908089,104.801626 C118.750939,104.89445 118.569361,104.964069 118.350328,105.029209 C118.131295,105.093534 117.876028,105.150939 117.579234,105.203865 L117.50758,104.803254 L117.913483,104.771499 L118.004272,105.935468 L122.529055,105.581677 L122.437045,104.398572 L122.842949,104.367224 L122.77333,104.768242 C122.148801,104.658725 121.636231,104.468191 121.246206,104.159183 C121.036536,103.990634 120.857402,103.765901 120.685595,103.487427 C120.513788,103.20814 120.351346,102.873076 120.190531,102.477758 L120.191346,102.479794 L116.461269,93.4921096 L114.586053,93.6386745 L113.122847,100.569972 L110.345443,93.970074 L108.411193,94.1215244 L106.218013,104.385137 C106.096282,104.946562 105.956231,105.359794 105.703814,105.66473 C105.576791,105.813738 105.41557,105.930583 105.237249,106.012415 C105.057707,106.094654 104.861473,106.143916 104.650583,106.168343 L104.60417,105.763661 L105.010074,105.731906 L104.60417,105.763661 L104.557758,105.359387 C104.700659,105.343102 104.813025,105.311346 104.896893,105.272669 C104.981575,105.233585 105.038572,105.188801 105.085392,105.135468 C105.176181,105.037758 105.320303,104.716944 105.421677,104.216588 L107.74188,93.3569442 L110.868191,93.1126694 L112.863509,97.8552647 L113.915112,92.8745015 L116.986867,92.6342979 L120.944119,102.169158 L120.94534,102.1716 C121.093127,102.536791 121.239692,102.834807 121.378928,103.060761 C121.517758,103.287529 121.650073,103.440608 121.75389,103.52244 C121.990022,103.71216 122.37272,103.872975 122.912567,103.965799 L123.224017,104.020354 L123.404781,106.329972 L117.255977,106.810786 L117.073178,104.467377 L117.435926,104.402644 C117.711549,104.353382 117.941168,104.300863 118.119895,104.248343 C118.298623,104.196231 118.426867,104.140863 118.4916,104.101779 C118.554297,104.06473 118.579539,104.034603 118.589717,104.019132 L118.603152,103.968242 L118.602338,103.952364 C118.60071,103.90758 118.566104,103.742287 118.496486,103.51674 C118.427274,103.291193 118.339335,103.046104 118.233076,102.783509 L118.61048,102.630837 L118.234704,102.787987 L116.50646,98.6617787 L115.627885,103.853025 L115.22646,103.785443 L115.630735,103.833483 C115.619743,103.925901 115.609972,104.017911 115.602236,104.109921 L115.602236,104.11155 C115.597351,104.161626 115.595722,104.20356 115.595722,104.235315 L115.597351,104.280913 C115.602236,104.339132 115.614043,104.361524 115.621371,104.373738 C115.630328,104.385952 115.63847,104.396944 115.67674,104.416079 C115.738623,104.448649 115.920608,104.490176 116.192974,104.48814 C116.249565,104.48814 116.310633,104.486511 116.375366,104.483662 L116.76987,104.465341 L116.954297,106.834399 L110.587275,107.331906 L110.409361,105.053636 L110.71674,104.955519 C110.960201,104.875723 111.120201,104.756842 111.248852,104.57445 C111.373025,104.400608 111.529768,104.003662 111.660048,103.425137 L111.911244,102.358064 L110.601931,99.0729746 L109.609768,103.825341 L109.608954,103.829412 C109.564985,104.019132 109.535264,104.209259 109.518165,104.399794 C109.507987,104.512974 109.503102,104.616384 109.503102,104.710023 C109.503102,104.775163 109.505544,104.835824 109.510023,104.8916 L109.517351,104.923356 L109.552364,104.95674 C109.589819,104.981575 109.633381,104.999896 109.729056,105.001117 L109.779539,104.999081 L109.873992,104.991753 L110.280303,104.959183 L110.466766,107.340862 L104.356231,107.818827 L104.167733,105.403763 L104.557758,105.359387 L104.60417,105.763661" id="path104" fill="#231F20"></path>
                        <path d="M127.436536,102.565697 L128.374959,103.888852 L133.621167,100.169361 L132.710836,98.884883 C132.201523,99.2227965 131.7773,99.3339415 131.438979,99.2195395 C131.100251,99.1047303 130.632465,98.6271731 130.037249,97.7864607 L127.210989,93.8007101 C126.714297,93.1004557 126.509106,92.4506847 126.59501,91.8513972 C126.680913,91.2525168 127.053432,90.7195906 127.712974,90.2518044 C128.480404,89.7078858 129.212414,89.5047306 129.906969,89.6435601 C130.602338,89.7823896 131.240709,90.2615754 131.821676,91.0819316 L134.38819,94.7012699 C135.002541,95.5676312 135.304221,96.1722113 135.294042,96.5154174 C135.283457,96.8578093 135.044882,97.206308 134.578724,97.5605065 L135.489462,98.8449848 L139.452007,96.0358246 L138.513584,94.7126694 C138.023406,95.0440689 137.614653,95.1605065 137.286918,95.0615752 C136.959589,94.9622368 136.493839,94.4871223 135.890887,93.6362318 L133.511651,90.2811173 C132.418928,88.7401505 131.293635,87.8615754 130.134551,87.6457993 C128.975875,87.4304304 127.656791,87.8469189 126.177707,88.8956721 C124.714094,89.9330257 123.838776,91.0159774 123.550938,92.1441198 C123.263101,93.2722623 123.557045,94.4537381 124.432363,95.6889544 L127.269615,99.6901756 C127.894552,100.572008 128.199081,101.183102 128.182389,101.522237 C128.165697,101.861779 127.916943,102.209463 127.436536,102.565697" id="path106" fill="#FFFFFF"></path>
                        <path d="M127.436536,102.565697 L127.768343,102.330379 L128.471447,103.321728 L133.053635,100.072873 L132.37903,99.1202011 L132.710836,98.884883 L132.935976,99.224425 C132.517045,99.4996413 132.120098,99.6673766 131.712974,99.6698194 C131.575366,99.6702265 131.438165,99.649056 131.308292,99.6050866 C131.032261,99.5077838 130.802236,99.3205064 130.543305,99.0599466 C130.287223,98.7973512 130.010786,98.4533309 129.704628,98.0217787 L126.879183,94.0364353 C126.424831,93.3956211 126.169971,92.7568425 126.169157,92.1205066 C126.169157,92.0105829 126.176485,91.9014735 126.191956,91.7931784 C126.244068,91.4283947 126.386155,91.0819316 126.605188,90.7692598 C126.824221,90.4557738 127.118165,90.1748578 127.477249,89.9199978 C128.135569,89.4526186 128.806918,89.1940945 129.479081,89.1940945 C129.649666,89.1940945 129.819437,89.2107866 129.986765,89.2441708 C130.39959,89.32641 130.791244,89.5108375 131.151956,89.7815754 C131.512668,90.0531275 131.844475,90.4093616 132.15389,90.8462064 L134.720404,94.4659518 C135.029819,94.9027966 135.265951,95.2793869 135.431243,95.606308 C135.594093,95.9356719 135.697096,96.2084454 135.701574,96.4979111 L135.701167,96.5251884 L135.701167,96.527224 L135.701167,96.5276312 C135.693432,96.7906337 135.595722,97.0418296 135.443457,97.2637126 C135.289971,97.4868169 135.082338,97.6887507 134.824628,97.8845777 L134.578724,97.5605065 L134.910531,97.3247813 L135.585951,98.277453 L138.884068,95.9389289 L138.181371,94.9479874 L138.513584,94.7126694 L138.741574,95.0497686 C138.3259,95.3290561 137.932617,95.4996414 137.525493,95.5028984 C137.404984,95.5028984 137.284475,95.4862063 137.169259,95.4511935 C136.886307,95.3604047 136.660353,95.1747559 136.401014,94.9154175 C136.145747,94.6540434 135.868495,94.3083946 135.558673,93.8715498 L133.179437,90.5168425 C132.650582,89.7697687 132.119691,89.1945016 131.597758,88.7873769 C131.074195,88.3798451 130.564475,88.1400487 130.060048,88.0460029 C129.887427,88.0142472 129.710328,87.9979622 129.527121,87.9979622 C128.641625,87.9963337 127.598165,88.3863591 126.413025,89.2278858 C125.704628,89.7298705 125.148088,90.2371479 124.74015,90.7419825 C124.331804,91.2472242 124.072465,91.7471733 123.945442,92.2446796 C123.882338,92.4918043 123.850989,92.7397432 123.850989,92.9913463 C123.850989,93.754705 124.139234,94.57099 124.76417,95.4536363 L127.601422,99.4544504 C127.913686,99.8949593 128.151447,100.273585 128.317961,100.602135 C128.481625,100.93272 128.585442,101.205087 128.590328,101.495366 L128.589106,101.541372 C128.576485,101.80641 128.472261,102.054756 128.314297,102.274603 C128.155926,102.495672 127.942592,102.696791 127.679183,102.892618 L127.436536,102.565697 L127.768343,102.330379 L127.436536,102.565697 L127.19389,102.238776 C127.410073,102.078369 127.561931,101.927733 127.651905,101.801117 C127.743101,101.672873 127.7716,101.578013 127.775671,101.502288 L127.776078,101.495366 C127.780557,101.441626 127.731702,101.240506 127.591244,100.969768 C127.453228,100.696181 127.234195,100.344425 126.936994,99.9254937 L124.100557,95.9246795 C123.407223,94.9479874 123.03674,93.9660027 123.03674,92.9913463 C123.03674,92.6721605 123.077045,92.3550104 123.156435,92.04356 C123.317249,91.413331 123.639692,90.8075295 124.106664,90.2298196 C124.574857,89.6517026 125.187172,89.0988273 125.942389,88.5634583 C127.209768,87.6657484 128.4002,87.1853413 129.527121,87.1837128 C129.758368,87.1837128 129.985951,87.2044762 130.208648,87.2460029 C130.863712,87.3673261 131.495569,87.6747052 132.098521,88.1453413 C132.70188,88.6167917 133.279997,89.2510919 133.843457,90.0457993 L136.222694,93.4005066 C136.516231,93.8149595 136.773126,94.1321096 136.982796,94.3458501 C137.189615,94.561219 137.3602,94.6634073 137.404984,94.6719569 C137.439589,94.682135 137.478266,94.688649 137.525493,94.688649 C137.680607,94.6914989 137.945645,94.6072241 138.285187,94.375163 L138.615365,94.1520587 L140.019538,96.1323131 L135.392974,99.4125166 L134.018521,97.4746032 L134.332414,97.2364352 C134.541269,97.0780637 134.686205,96.9290561 134.771701,96.8036617 C134.857198,96.6770459 134.884068,96.5821859 134.886918,96.5027966 L134.886918,96.5052393 L134.886918,96.5052393 L134.887325,96.4979111 C134.890989,96.442135 134.843355,96.2422368 134.704119,95.9731274 C134.567732,95.7011681 134.350327,95.3518551 134.056383,94.936588 L131.489869,91.3172496 C131.21791,90.9337382 130.939844,90.6406084 130.662999,90.4325677 C130.384933,90.2241199 130.109717,90.0995397 129.827172,90.0425423 C129.712363,90.0197433 129.597147,90.0083438 129.479081,90.0083438 C129.020658,90.0083438 128.513788,90.1838145 127.948292,90.5840181 C127.648241,90.7965372 127.426358,91.0159774 127.272872,91.2354176 C127.119386,91.4560791 127.032261,91.6751122 126.99847,91.9092089 C126.987885,91.9788272 126.983406,92.0488527 126.983406,92.1205066 C126.982592,92.5308883 127.151142,93.0125168 127.543203,93.5657992 L130.369055,97.5507355 C130.658928,97.9598958 130.914195,98.2750103 131.125086,98.4903792 C131.333941,98.7073767 131.506969,98.8164861 131.569259,98.8339924 C131.611193,98.8478347 131.656383,98.85557 131.712974,98.85557 C131.875417,98.8584199 132.143712,98.7741451 132.485696,98.5457482 L132.814653,98.3275293 L134.189106,100.26585 L128.278063,104.456384 L126.87389,102.476537 L127.19389,102.238776 L127.436536,102.565697" id="path108" fill="#231F20"></path>
                        <path d="M9.86068169,41.0397954 C11.3185544,41.0792865 12.0423,40.3392153 12.8452719,39.5526504 C12.7048546,43.1124671 9.5664934,45.0971999 8.36690055,48.1021871 C7.96979115,45.6325688 6.34670722,40.9461567 9.86068169,41.0397954" id="path110" fill="#FFFFFF"></path>
                    </g>
                </g>
            </g>
        </g>
    </g>
</svg>