<?xml version="1.0" encoding="UTF-8"?>
<svg width="200px" height="200px" viewBox="0 0 200 200" version="1.1" xmlns="http://www.w3.org/2000/svg" xmlns:xlink="http://www.w3.org/1999/xlink">
    <!-- Generator: Sketch 54.1 (76490) - https://sketchapp.com -->
    <title>idaho-st</title>
    <desc>Created with Sketch.</desc>
    <g id="idaho-st" stroke="none" stroke-width="1" fill="none" fill-rule="evenodd">
        <g id="idaho-st_BGD">
            <g id="idaho-st" transform="translate(0.000000, 2.000000)">
                <g id="g10" transform="translate(99.999998, 97.853341) scale(-1, 1) rotate(-180.000000) translate(-99.999998, -97.853341) translate(0.000000, 0.075566)" fill-rule="nonzero">
                    <g id="g12">
                        <path d="M100.983331,140.524885 C100.983331,140.524885 97.3951087,142.833774 91.6099977,143.642219 L88.9786644,140.376663 C98.0159975,138.312219 100.983331,135.398886 100.983331,135.398886 C100.983331,135.398886 103.765775,138.182219 112.798886,140.245996 L110.165331,143.513996 C104.408664,142.721108 100.983331,140.524885 100.983331,140.524885" id="path14" fill="#F47216"></path>
                        <path d="M151.00533,163.236663 L146.105107,161.381774 L147.827996,157.669329 L141.598663,155.818218 L143.189552,150.386885 L135.505997,154.095107 C135.505997,154.095107 140.02733,158.703552 142.793774,162.30444 C144.884441,165.029551 147.168441,169.197329 147.168441,169.197329 L153.921107,170.521996 L150.081107,166.414885 L151.00533,163.236663 Z M130.078441,140.453774 C130.078441,140.453774 136.540885,137.033108 139.595997,132.232441 C142.803552,127.194219 143.932885,121.436219 143.932885,121.436219 L139.030441,124.098219 L146.31333,108.847775 L141.834663,111.346219 L146.229996,97.4395531 C146.229996,97.4395531 140.138885,105.457553 123.731997,110.634442 C112.290219,114.239997 101.782664,115.45333 101.782664,115.45333 C101.782664,115.45333 107.055997,115.087108 113.34133,116.307997 L105.901108,119.017108 C105.583553,119.026886 105.410886,119.041108 105.410886,119.041108 C105.410886,119.041108 114.462219,121.895553 119.702664,126.17533 C120.652441,126.950663 121.484664,127.755997 122.215997,128.558441 L115.546219,136.835774 C114.309108,136.327108 113.042664,135.732885 111.780219,135.037552 C104.786442,131.183108 100.983331,123.492219 100.983331,123.492219 C100.983331,123.492219 96.9919976,131.31733 89.9984422,135.167108 C88.7353311,135.862885 87.4684423,136.45733 86.2306645,136.966663 L79.5613313,128.689775 C80.2924424,127.88733 81.1244424,127.081552 82.0737757,126.305775 C87.3139978,122.030219 96.3677754,119.170664 96.3677754,119.170664 C96.3677754,119.170664 96.1933309,119.156219 95.8742198,119.146441 L88.4348867,116.439108 C94.7188865,115.218664 99.9911086,115.585108 99.9911086,115.585108 C99.9911086,115.585108 89.4857755,114.374664 78.0442203,110.763775 C61.6368873,105.589997 55.5455542,97.5713309 55.5455542,97.5713309 L59.9406652,111.479331 L55.4617764,108.978664 L62.7473318,124.231552 L57.8433319,121.568664 C57.8433319,121.568664 58.9739985,127.325997 62.1811096,132.365774 C65.2373317,137.163997 71.6993315,140.587108 71.6993315,140.587108 L74.0624426,141.757552 C74.6224426,142.25133 79.2462202,146.177107 86.305109,147.669107 C95.6142198,149.63533 100.983331,146.861996 100.983331,146.861996 C100.983331,146.861996 106.162886,149.502441 115.474886,147.536219 C122.546886,146.041774 127.174441,142.101996 127.717552,141.622219 L130.078441,140.453774 Z M154.808663,101.073331 C154.973552,92.283331 152.608663,84.6857757 152.608663,84.6857757 L151.03733,90.1264422 L147.830663,88.6826644 C147.830663,88.6826644 150.073774,93.0368866 151.00533,102.450886 C152.238663,114.921553 147.081774,124.643775 147.081774,124.643775 C147.081774,124.643775 154.478441,118.48933 154.808663,101.073331 L154.808663,101.073331 Z M50.7713321,102.585775 C51.7026654,93.1659977 53.9459987,88.81422 53.9459987,88.81422 L50.7411098,90.2559977 L49.1677765,84.8153312 C49.1677765,84.8153312 46.8026655,92.415331 46.9675544,101.204886 C47.2988877,118.622664 54.6942209,124.777108 54.6942209,124.777108 C54.6942209,124.777108 49.5393321,115.052442 50.7713321,102.585775 L50.7713321,102.585775 Z M58.5866652,150.518885 L60.1779985,155.949107 L53.9482209,157.801107 L55.6713319,161.51244 L50.7688876,163.370218 L51.6951098,166.55044 L47.8568877,170.649774 L54.609332,169.329107 C54.609332,169.329107 56.8906652,165.162663 58.9826652,162.434885 C61.7473318,158.837774 66.2693317,154.226218 66.2693317,154.226218 L58.5866652,150.518885 Z M158.792885,171.479551 C155.354218,177.213329 147.728663,180.549773 147.728663,180.549773 C147.728663,180.549773 144.056885,172.442885 138.908663,165.498663 C132.866886,157.347329 125.236664,153.020663 125.236664,153.020663 L118.463775,154.512663 L113.330664,150.640663 L111.694219,154.139774 L108.567553,151.386441 L100.897331,153.721107 L93.2084421,151.518441 L90.0819977,154.271552 L88.4455533,150.772218 L83.311109,154.641996 L76.5406648,153.153774 C76.5406648,153.153774 68.9095538,157.477774 62.8664429,165.627107 C57.720443,172.572218 54.0459986,180.679329 54.0459986,180.679329 C54.0459986,180.679329 46.4208877,177.344884 42.9839989,171.612885 C37.9719991,163.246663 38.1993324,154.146218 38.1993324,154.146218 L44.7246655,153.096663 L42.8786656,146.48933 L53.1019987,148.021774 C53.1019987,148.021774 51.6251098,146.214219 49.378221,143.129996 L71.851776,150.112663 C71.851776,150.112663 69.1795538,147.846885 65.4237761,144.294441 C65.5557761,144.372219 65.6322206,144.415996 65.6322206,144.415996 C65.6322206,144.415996 50.8859987,129.576886 45.98711,117.394219 C40.0666657,102.684442 44.7982211,86.4728867 44.7982211,86.4728867 L44.60711,86.421109 C45.3688878,83.3753312 45.9642211,81.3926646 45.9642211,81.3926646 L59.8604429,72.3675537 C56.9931097,75.468887 54.8964431,79.4804425 55.2666653,84.475109 C56.2373319,97.5562198 68.9946649,102.326664 68.9946649,102.326664 L90.5186644,89.0859978 C90.3795533,89.5639978 88.2166645,96.8771087 85.3662201,99.8184419 C82.1233313,103.163997 75.5777759,104.01422 75.5777759,104.01422 C75.5777759,104.01422 84.1393312,104.569997 87.2375534,102.395109 C90.71622,99.9579975 90.5357755,89.5157755 90.5264422,89.0813311 L94.8184421,86.441109 C94.5911087,88.9551089 93.1235532,103.863997 90.1504422,105.611331 C86.6691089,107.663108 77.5217758,107.046442 77.5217758,107.046442 C77.5217758,107.046442 90.0137755,111.034219 93.1728866,108.279553 C96.3677754,105.49222 95.0935532,88.9333311 94.8786643,86.4039978 L100.897331,82.7017757 L100.897331,82.5806646 L107.098664,86.3955534 C106.885775,88.8937756 105.60222,105.488664 108.801553,108.279553 C111.957775,111.034219 124.452664,107.046442 124.452664,107.046442 C124.452664,107.046442 115.307108,107.663108 111.820664,105.611331 C108.848886,103.861775 107.381997,88.9184422 107.157331,86.4319978 L111.450219,89.0728867 C111.444219,89.3344422 111.230219,99.9366642 114.735997,102.395109 C117.834886,104.569997 126.398441,104.01422 126.398441,104.01422 C126.398441,104.01422 119.851997,103.163997 116.609108,99.8184419 C113.726442,96.8419976 111.546664,89.3926644 111.455108,89.0753311 L132.78333,102.197109 C132.78333,102.197109 145.53933,97.4266642 146.510885,84.3435534 C146.880663,79.3504425 144.78533,75.3402203 141.919552,72.2391093 L155.813329,81.2602202 C155.813329,81.2602202 156.408218,83.2426646 157.169774,86.2882201 L156.977996,86.3402201 C156.977996,86.3402201 161.708218,102.552442 155.790218,117.263775 C150.891107,129.446219 136.145552,144.283996 136.145552,144.283996 C136.145552,144.283996 136.21933,144.242219 136.34733,144.166663 C132.593552,147.716663 129.92333,149.980885 129.92333,149.980885 L152.401552,142.994219 C150.151774,146.082441 148.67333,147.892663 148.67333,147.892663 L158.898663,146.358441 L157.051774,152.967552 L163.575329,154.010218 C163.575329,154.010218 163.803774,163.117551 158.792885,171.479551 L158.792885,171.479551 Z" id="path16" fill="#F47216"></path>
                        <path d="M60.9899985,42.2106656 L62.8942206,50.3637765 L54.5166653,47.9735544 L56.0799986,56.4946653 L48.1753321,55.6166653 L50.1155543,63.7868873 L41.8482212,63.5028873 L44.6179989,70.2426649 L36.8851102,71.6915538 L41.2724434,78.9026647 L67.2742205,60.605554 L73.1875537,41.4777767 L67.0771094,45.2028878 L60.9899985,42.2106656 Z M71.3044427,64.7022206 C68.7108872,65.796665 63.6226651,68.2977761 59.8604429,72.3675537 L45.9642211,81.3926646 C45.9642211,81.3926646 45.3688878,83.3753312 44.60711,86.421109 L34.3602214,83.6453312 L39.121999,94.5568865 L32.8122214,92.8899977 L37.2666657,104.300664 L34.080888,103.667553 C34.080888,103.667553 35.496888,111.828442 41.7795545,121.307108 C51.2722209,135.622441 63.7011095,143.276441 65.4237761,144.294441 C69.1795538,147.846885 71.851776,150.112663 71.851776,150.112663 L49.378221,143.129996 C45.0717767,137.218885 37.9355546,126.617997 32.9391103,115.058219 C24.1617772,94.7471087 23.1886661,82.0984424 23.1886661,82.0984424 L32.7131103,76.9617759 L29.9586659,67.438665 L39.1102212,67.0679983 L34.7219991,57.9153319 L43.7273322,57.542443 L39.8548879,47.5044433 L48.4875543,49.5108877 L48.4875543,41.2515545 L55.4037764,41.9951101 L55.1119986,34.1086658 L62.7864429,36.4202213 L66.6319983,25.2477771 L81.3584424,35.0393325 L71.3044427,64.7022206 L71.3044427,64.7022206 Z" id="path18" fill="#FFFFFF"></path>
                        <path d="M94.8502199,86.079109 C94.8502199,86.079109 94.8395532,86.2084423 94.8184421,86.441109 L90.5264422,89.0813311 C90.5264422,89.07222 90.52622,89.0604422 90.52622,89.0604422 C90.52622,89.0604422 90.5235533,89.0697756 90.5186644,89.0859978 L68.9946649,102.326664 L84.1546646,87.2208867 L100.897331,82.7017757 L94.8786643,86.4039978 C94.8608865,86.1935534 94.8502199,86.079109 94.8502199,86.079109" id="path20" fill="#FFFFFF"></path>
                        <path d="M65.0142206,93.2842199 L82.9442201,80.6815535 L62.161554,88.9015533 C61.6057762,87.5104423 61.2113318,85.8622201 61.1011096,83.9255535 L81.747998,75.9571092 L61.6711096,79.3891091 C63.4766651,74.7626648 68.9819983,72.3528871 72.6764426,71.2266649 L72.815776,71.3031093 L81.9355535,71.7551093 L75.4522203,66.566665 L97.3419976,70.9364427 L97.3419976,76.4137759 L91.0873311,81.7428868 C91.0873311,81.7428868 90.4504422,80.4557758 91.7799977,78.3142203 C93.3582199,75.7742203 95.261331,74.5133315 95.261331,74.5133315 C95.261331,74.5133315 90.5439977,74.700887 87.1768867,78.6313314 C83.3793312,83.077109 84.1546646,87.2208867 84.1546646,87.2208867 L68.3168872,95.6579976 C68.3168872,95.6579976 66.7131094,95.003331 65.0142206,93.2842199" id="path22" fill="#FFFFFF"></path>
                        <path d="M71.6993315,140.587108 C71.6993315,140.587108 66.6179983,132.312219 71.5966649,125.670219 C75.756887,120.123553 82.5408868,117.583775 88.4348867,116.439108 L95.8742198,119.146441 C93.6515532,119.079108 84.3862201,119.241997 77.7131092,126.125997 C74.0655537,129.886663 74.9382203,136.273552 74.9382203,136.273552 C74.9382203,136.273552 76.0717759,132.520441 79.5613313,128.689775 L86.2306645,136.966663 C79.709998,139.648663 74.0046648,139.939997 74.0046648,139.939997 C74.0046648,139.939997 80.1366647,142.345552 88.6437756,140.453774 C88.7577756,140.428219 88.8664422,140.402441 88.9786644,140.376663 L91.6099977,143.642219 C91.0895533,143.714885 90.5533311,143.776663 89.9984422,143.822219 C80.473998,144.612885 74.0046648,141.705996 74.0046648,141.705996 C74.0046648,141.705996 74.0244426,141.723996 74.0624426,141.757552 L71.6993315,140.587108" id="path24" fill="#FFFFFF"></path>
                        <path d="M105.994664,33.976888 L104.107331,31.9319992 L102.548664,33.7691103 L101.011109,31.6799992 L99.2273309,33.8982214 L97.6719976,32.0611103 L95.7791087,34.1062214 L94.0228865,32.5608881 L89.3237755,41.2822212 C89.3237755,41.2822212 87.9913311,32.963777 91.8659977,29.8408881 C93.7106643,28.3535548 100.897331,28.482666 100.897331,28.482666 C100.897331,28.482666 108.065553,28.2168882 109.910219,29.7086659 C113.784886,32.8346658 112.450442,41.1526656 112.450442,41.1526656 L107.753553,32.4288881 L105.994664,33.976888" id="path26" fill="#FFFFFF"></path>
                        <path d="M118.847108,30.2819992 C118.847108,30.2819992 118.15933,27.2855549 114.408886,25.0422216 C110.318664,22.5957772 100.897331,23.0324439 100.897331,23.0324439 C100.897331,23.0324439 91.4599977,22.725555 87.3668867,25.1717771 C83.6142201,27.4153326 82.9275535,30.4093326 82.9275535,30.4093326 L82.6766646,31.1493326 C80.7635535,26.6648882 79.8786647,21.2222217 84.0244423,17.4273329 C91.3891088,10.6848886 100.897331,11.7131108 100.897331,11.7131108 C100.897331,11.7131108 110.389775,10.5502664 117.75333,17.2928885 C121.899108,21.0900217 121.012441,26.5357771 119.097775,31.021777 L118.847108,30.2819992" id="path28" fill="#FFFFFF"></path>
                        <polyline id="path30" fill="#FFFFFF" points="115.513108 43.2586656 120.843775 62.289554 100.897331 64.4573317 80.931998 62.4251096 86.2635534 43.39311 88.7551089 59.4175541 92.0028866 57.514443 94.9264421 59.8237763 98.5219975 58.2197763 100.897331 60.6508874 103.253997 58.0879985 106.849997 59.6919985 109.773108 57.3846652 113.023997 59.2879985 115.513108 43.2586656"></polyline>
                        <path d="M157.160663,70.1159982 L159.929552,63.3706651 L151.659552,63.6553317 L153.600441,55.4795542 L145.696441,56.3651097 L147.25933,47.8413321 L138.880663,50.2317765 L140.788441,42.0784434 L134.698886,45.0762211 L128.588663,41.3406656 L134.500886,60.4733318 L160.505107,78.7715536 L164.89044,71.5619982 L157.160663,70.1159982 Z M169.064218,76.832887 L178.587329,81.9657757 C178.587329,81.9657757 177.615773,94.6177754 168.835551,114.925553 C163.841551,126.481997 156.708663,137.08133 152.401552,142.994219 L129.92333,149.980885 C129.92333,149.980885 132.593552,147.716663 136.34733,144.166663 C138.046219,143.163108 150.49333,135.508663 159.997996,121.172441 C166.277774,111.695108 167.694218,103.533553 167.694218,103.533553 L164.509107,104.173775 L168.965551,92.7604421 L162.65644,94.4275532 L167.417329,83.5135535 L157.169774,86.2882201 C156.408218,83.2426646 155.813329,81.2602202 155.813329,81.2602202 L141.919552,72.2391093 C138.156219,68.1673316 133.065552,65.664665 130.471108,64.5704428 L120.415997,34.9102213 L135.145774,25.1182216 L138.989552,36.2879991 L146.663552,33.976888 L146.371774,41.8624434 L153.288218,41.1171101 L153.288218,49.3793321 L161.921552,47.3695544 L158.049107,57.4133319 L167.054662,57.7835541 L162.667107,66.9359983 L171.817329,67.3064428 L169.064218,76.832887 L169.064218,76.832887 Z" id="path32" fill="#FFFFFF"></path>
                        <path d="M114.596886,78.5048869 C111.232219,74.5691092 106.517331,74.3833315 106.517331,74.3833315 C106.517331,74.3833315 108.41822,75.6426648 109.996664,78.1828869 C111.328886,80.323998 110.689331,81.6086646 110.689331,81.6086646 L104.43222,76.2815536 L104.43222,70.8028871 L126.324441,66.434665 L119.839553,71.6206649 L128.961997,71.1739982 L129.105997,71.0942204 C132.801997,72.2228871 138.304219,74.6339981 140.106219,79.2591091 L120.026886,75.8275537 L140.673774,83.7928868 C140.563774,85.7313312 140.169108,87.38022 139.613108,88.7719978 L118.832441,80.5502202 L136.762885,93.1531088 C135.064441,94.8717754 133.460886,95.5262198 133.460886,95.5262198 L117.622219,87.0915534 C117.622219,87.0915534 118.398219,82.9455535 114.596886,78.5048869" id="path34" fill="#FFFFFF"></path>
                        <path d="M111.455108,89.0753311 C111.452664,89.0686644 111.450442,89.0604422 111.450442,89.0604422 C111.450442,89.0604422 111.450219,89.0693311 111.450219,89.0728867 L107.157331,86.4319978 C107.136664,86.2048867 107.126442,86.079109 107.126442,86.079109 C107.126442,86.079109 107.11622,86.1908867 107.098664,86.3955534 L100.897331,82.5806646 L100.897331,82.5744424 L117.622219,87.0915534 L132.78333,102.197109 L111.455108,89.0753311" id="path36" fill="#FFFFFF"></path>
                        <path d="M130.179775,125.541997 C135.158219,132.181552 130.078441,140.453774 130.078441,140.453774 L127.717552,141.622219 C127.753552,141.590885 127.771775,141.573996 127.771775,141.573996 C127.771775,141.573996 121.300886,144.479552 111.780219,143.692885 C111.222664,143.646663 110.685553,143.58533 110.165331,143.513996 L112.798886,140.245996 C112.911553,140.271552 113.020442,140.297774 113.135108,140.32333 C121.640886,142.213552 127.771775,139.809108 127.771775,139.809108 C127.771775,139.809108 122.065775,139.517108 115.546219,136.835774 L122.215997,128.558441 C125.705775,132.387774 126.837552,136.141108 126.837552,136.141108 C126.837552,136.141108 127.710663,129.755775 124.061997,125.993997 C117.384664,119.110219 108.117331,118.949553 105.901108,119.017108 L113.34133,116.307997 C119.23533,117.45333 126.019108,119.993997 130.179775,125.541997" id="path38" fill="#FFFFFF"></path>
                        <path d="M177.471329,30.8506659 L163.555107,36.3544435 L169.064218,21.6973106 L155.521996,27.5768882 L156.041996,12.9199552 L144.668885,23.613555 L137.234441,12.4786441 L127.14533,21.683155 C127.14533,21.683155 125.840664,16.2726663 120.90533,12.3597997 C111.381997,4.8058221 100.897331,5.88202208 100.897331,5.88202208 C100.897331,5.88202208 90.39422,4.93488877 80.8697758,12.4920219 C75.9355537,16.4046885 74.6326648,21.8142439 74.6326648,21.8142439 L64.5435539,12.6137997 L57.1073319,23.745555 L45.7357766,13.0524219 L46.25311,27.7091104 L32.7131103,21.8320217 L38.2184435,36.4891102 L24.3053327,30.9775548 L31.5955548,47.646221 L16.4235329,43.6442211 L26.3159993,59.4077763 L11.9249108,59.148443 L20.6269995,70.6408871 L9.89002197,74.274887 C9.89002197,74.274887 12.6051108,95.6984421 23.627555,117.376664 C30.2402215,130.381108 39.9615546,141.835552 39.9615546,141.835552 L35.2419991,143.409996 L38.2235546,148.656219 L32.3908881,148.762885 C32.3908881,148.762885 31.2453326,160.316218 37.1755546,171.574885 C42.1111101,180.945995 56.3082208,187.604218 56.3082208,187.604218 C56.3082208,187.604218 57.8142208,179.408218 66.4455539,168.41044 C73.3613315,159.595329 80.185998,157.024885 80.185998,157.024885 L83.311109,158.285996 L86.9559978,155.906218 L88.8186644,158.661552 L93.2084421,155.906218 L100.897331,161.335996 L108.567553,155.776441 L112.957775,158.526885 L114.819997,155.776441 L118.463775,158.155329 L121.590441,156.892885 C121.590441,156.892885 128.415997,159.463552 135.333108,168.278662 C143.960885,179.276218 145.468219,187.473773 145.468219,187.473773 C145.468219,187.473773 159.667774,180.815329 164.600885,171.442885 C170.531107,160.18644 169.383774,148.63333 169.383774,148.63333 L163.552885,148.526885 L166.534663,143.275552 L161.813996,141.702219 C161.813996,141.702219 171.535996,130.250663 178.148662,117.247108 C189.171329,95.5644421 191.886662,74.1426648 191.886662,74.1426648 L181.150662,70.5091093 L189.853773,59.0193319 L175.461551,59.2733319 L185.349773,43.5126656 L170.183107,47.5171099 L177.471329,30.8506659 Z M184.417107,53.699332 L199.948439,53.4255542 L189.061773,67.7971094 L196.881773,70.443776 L196.327328,74.8215537 C196.211106,75.7344426 193.363995,97.4302198 182.045551,119.694219 C178.195773,127.265108 173.397996,134.259108 169.873996,139.002663 L173.557551,140.230441 L171.817329,143.295108 L173.367107,143.32333 L173.841551,148.099774 C173.894662,148.637552 175.072885,161.411774 168.463329,173.957773 C162.847551,184.625551 148.466441,191.601329 146.84533,192.361995 L140.517108,195.377995 L139.251774,188.49444 C139.237774,188.423106 137.723774,181.238662 130.170441,171.611107 C126.325552,166.711107 122.543552,164.049329 120.432886,162.813107 L116.957775,164.216218 L115.399108,163.199107 L113.592664,165.867996 L107.87222,162.28444 L100.022886,167.974218 L92.1168866,162.390885 L86.3528867,166.008885 L84.5435534,163.331329 L82.9888868,164.346663 L79.5144425,162.944663 C77.4039981,164.181107 73.6224426,166.842885 69.7775538,171.743329 C62.221554,181.371107 60.7088874,188.553551 60.7026651,188.579995 L59.4377763,195.463773 L53.1006653,192.491995 C51.4795543,191.731773 37.1011102,184.75644 31.483777,174.090662 C24.8742216,161.541552 26.0504438,148.767774 26.1035549,148.229996 L26.5771104,143.452663 L28.1259993,143.424663 L26.3884438,140.367108 L30.0739992,139.137774 C26.5508882,134.393108 21.7514661,127.396886 17.9003551,119.82333 C6.58264428,97.5646642 3.73515546,75.8666648 3.61926658,74.9535537 L3.0645777,70.575776 L10.8867997,67.9284427 L8.68055534e-05,53.5504431 L15.5274218,53.8304431 L3.67135546,34.9384436 L21.2591995,39.5777768 L13.1913108,21.1304661 L27.9655549,26.9831104 L22.2666661,11.8095553 L39.6411101,19.3515551 L38.9633324,0.133593774 L55.2455542,15.4444441 L62.6271095,4.39426656 L72.0864426,13.0204886 C73.2313315,11.419533 74.7077759,9.76266642 76.5995536,8.26266646 C85.4919979,1.20711775 95.0939976,0.445313322 98.8093309,0.445313322 C99.2839975,0.445313322 99.6671086,0.4575511 99.9491086,0.471093322 C100.291775,0.449999989 100.782442,0.430468878 101.403775,0.430468878 C105.08222,0.430468878 114.583775,1.18090219 123.343775,8.1295998 C125.237108,9.6300442 126.714886,11.2873331 127.859997,12.8887108 L137.320885,4.257111 L144.701996,15.3113774 L160.986885,0 L160.305107,19.2177995 L177.685107,11.6720442 L171.978218,26.8559993 L186.75044,21.0131106 L178.690218,39.4457768 L196.27244,34.8039991 L184.417107,53.699332 L184.417107,53.699332 Z" id="path40" fill="#F9A91F"></path>
                        <path d="M76.3315536,112.904219 L74.9602203,118.160441 L70.8175538,121.020219 C70.8175538,121.020219 70.7264427,114.527108 75.3495537,112.887553 C78.4997758,111.771331 83.279109,114.805775 83.279109,114.805775 L77.432887,116.724442 L76.3315536,112.904219" id="path42" fill="#F9A91F"></path>
                        <path d="M126.817775,118.026219 L125.444886,112.773775 L124.340664,116.592664 L118.499775,114.673997 C118.499775,114.673997 123.275552,111.639553 126.426886,112.754664 C131.049997,114.394886 130.958886,120.889553 130.958886,120.889553 L126.817775,118.026219" id="path44" fill="#F9A91F"></path>
                        <path d="M65.4237761,144.294441 C63.7011095,143.276441 51.2722209,135.622441 41.7795545,121.307108 C35.496888,111.828442 34.080888,103.667553 34.080888,103.667553 L37.2666657,104.300664 L32.8122214,92.8899977 L39.121999,94.5568865 L34.3602214,83.6453312 L44.60711,86.421109 L44.7982211,86.4728867 C44.7982211,86.4728867 40.0666657,102.684442 45.98711,117.394219 C50.8859987,129.576886 65.6322206,144.415996 65.6322206,144.415996 C65.6322206,144.415996 65.5557761,144.372219 65.4237761,144.294441" id="path46" fill="#231F20"></path>
                        <path d="M46.9675544,101.204886 C46.8026655,92.415331 49.1677765,84.8153312 49.1677765,84.8153312 L50.7411098,90.2559977 L53.9459987,88.81422 C53.9459987,88.81422 51.7026654,93.1659977 50.7713321,102.585775 C49.5393321,115.052442 54.6942209,124.777108 54.6942209,124.777108 C54.6942209,124.777108 47.2988877,118.622664 46.9675544,101.204886" id="path48" fill="#231F20"></path>
                        <polyline id="path50" fill="#231F20" points="36.8851102 71.6915538 44.6179989 70.2426649 41.8482212 63.5028873 50.1155543 63.7868873 48.1753321 55.6166653 56.0799986 56.4946653 54.5166653 47.9735544 62.8942206 50.3637765 60.9899985 42.2106656 67.0771094 45.2028878 73.1875537 41.4777767 67.2742205 60.605554 41.2724434 78.9026647 36.8851102 71.6915538"></polyline>
                        <path d="M89.9984422,143.822219 C90.5533311,143.776663 91.0895533,143.714885 91.6099977,143.642219 C97.3951087,142.833774 100.983331,140.524885 100.983331,140.524885 C100.983331,140.524885 104.408664,142.721108 110.165331,143.513996 C110.685553,143.58533 111.222664,143.646663 111.780219,143.692885 C121.300886,144.479552 127.771775,141.573996 127.771775,141.573996 C127.771775,141.573996 127.753552,141.590885 127.717552,141.622219 C127.174441,142.101996 122.546886,146.041774 115.474886,147.536219 C106.162886,149.502441 100.983331,146.861996 100.983331,146.861996 C100.983331,146.861996 95.6142198,149.63533 86.305109,147.669107 C79.2462202,146.177107 74.6224426,142.25133 74.0624426,141.757552 C74.0244426,141.723996 74.0046648,141.705996 74.0046648,141.705996 C74.0046648,141.705996 80.473998,144.612885 89.9984422,143.822219" id="path52" fill="#231F20"></path>
                        <path d="M95.8742198,119.146441 C96.1933309,119.156219 96.3677754,119.170664 96.3677754,119.170664 C96.3677754,119.170664 87.3139978,122.030219 82.0737757,126.305775 C81.1244424,127.081552 80.2924424,127.88733 79.5613313,128.689775 C76.0717759,132.520441 74.9382203,136.273552 74.9382203,136.273552 C74.9382203,136.273552 74.0655537,129.886663 77.7131092,126.125997 C84.3862201,119.241997 93.6515532,119.079108 95.8742198,119.146441" id="path54" fill="#231F20"></path>
                        <path d="M75.3495537,112.887553 C70.7264427,114.527108 70.8175538,121.020219 70.8175538,121.020219 L74.9602203,118.160441 L76.3315536,112.904219 L77.432887,116.724442 L83.279109,114.805775 C83.279109,114.805775 78.4997758,111.771331 75.3495537,112.887553 L75.3495537,112.887553 Z M88.4348867,116.439108 C82.5408868,117.583775 75.756887,120.123553 71.5966649,125.670219 C66.6179983,132.312219 71.6993315,140.587108 71.6993315,140.587108 C71.6993315,140.587108 65.2373317,137.163997 62.1811096,132.365774 C58.9739985,127.325997 57.8433319,121.568664 57.8433319,121.568664 L62.7473318,124.231552 L55.4617764,108.978664 L59.9406652,111.479331 L55.5455542,97.5713309 C55.5455542,97.5713309 61.6368873,105.589997 78.0442203,110.763775 C89.4857755,114.374664 99.9911086,115.585108 99.9911086,115.585108 C99.9911086,115.585108 94.7188865,115.218664 88.4348867,116.439108 L88.4348867,116.439108 Z" id="path56" fill="#231F20"></path>
                        <path d="M53.9482209,157.801107 L60.1779985,155.949107 L58.5866652,150.518885 L66.2693317,154.226218 C66.2693317,154.226218 61.7473318,158.837774 58.9826652,162.434885 C56.8906652,165.162663 54.609332,169.329107 54.609332,169.329107 L47.8568877,170.649774 L51.6951098,166.55044 L50.7688876,163.370218 L55.6713319,161.51244 L53.9482209,157.801107" id="path58" fill="#231F20"></path>
                        <path d="M109.910219,29.7086659 C108.065553,28.2168882 100.897331,28.482666 100.897331,28.482666 C100.897331,28.482666 93.7106643,28.3535548 91.8659977,29.8408881 C87.9913311,32.963777 89.3237755,41.2822212 89.3237755,41.2822212 L94.0228865,32.5608881 L95.7791087,34.1062214 L97.6719976,32.0611103 L99.2273309,33.8982214 L101.011109,31.6799992 L102.548664,33.7691103 L104.107331,31.9319992 L105.994664,33.976888 L107.753553,32.4288881 L112.450442,41.1526656 C112.450442,41.1526656 113.784886,32.8346658 109.910219,29.7086659 L109.910219,29.7086659 Z M109.773108,57.3846652 L106.849997,59.6919985 L103.253997,58.0879985 L100.897331,60.6508874 L98.5219975,58.2197763 L94.9264421,59.8237763 L92.0028866,57.514443 L88.7551089,59.4175541 L86.2635534,43.39311 L80.931998,62.4251096 L100.897331,64.4573317 L120.843775,62.289554 L115.513108,43.2586656 L113.023997,59.2879985 L109.773108,57.3846652 Z M117.75333,17.2928885 C110.389775,10.5502664 100.897331,11.7131108 100.897331,11.7131108 C100.897331,11.7131108 91.3891088,10.6848886 84.0244423,17.4273329 C79.8786647,21.2222217 80.7635535,26.6648882 82.6766646,31.1493326 L82.9275535,30.4093326 C82.9275535,30.4093326 83.6142201,27.4153326 87.3668867,25.1717771 C91.4599977,22.725555 100.897331,23.0324439 100.897331,23.0324439 C100.897331,23.0324439 110.318664,22.5957772 114.408886,25.0422216 C118.15933,27.2855549 118.847108,30.2819992 118.847108,30.2819992 L119.097775,31.021777 C121.012441,26.5357771 121.899108,21.0900217 117.75333,17.2928885 Z M146.371774,41.8624434 L146.663552,33.976888 L138.989552,36.2879991 L135.145774,25.1182216 L120.415997,34.9102213 L130.471108,64.5704428 C133.065552,65.664665 138.156219,68.1673316 141.919552,72.2391093 C144.78533,75.3402203 146.880663,79.3504425 146.510885,84.3435534 C145.53933,97.4266642 132.78333,102.197109 132.78333,102.197109 L117.622219,87.0915534 L133.460886,95.5262198 C133.460886,95.5262198 135.064441,94.8717754 136.762885,93.1531088 L118.832441,80.5502202 L139.613108,88.7719978 C140.169108,87.38022 140.563774,85.7313312 140.673774,83.7928868 L120.026886,75.8275537 L140.106219,79.2591091 C138.304219,74.6339981 132.801997,72.2228871 129.105997,71.0942204 L128.961997,71.1739982 L119.839553,71.6206649 L126.324441,66.434665 L104.43222,70.8028871 L104.43222,76.2815536 L110.689331,81.6086646 C110.689331,81.6086646 111.328886,80.323998 109.996664,78.1828869 C108.41822,75.6426648 106.517331,74.3833315 106.517331,74.3833315 C106.517331,74.3833315 111.232219,74.5691092 114.596886,78.5048869 C118.398219,82.9455535 117.622219,87.0915534 117.622219,87.0915534 L100.897331,82.5744424 L100.897331,82.5806646 L100.897331,82.7017757 L84.1546646,87.2208867 C84.1546646,87.2208867 83.3793312,83.077109 87.1768867,78.6313314 C90.5439977,74.700887 95.261331,74.5133315 95.261331,74.5133315 C95.261331,74.5133315 93.3582199,75.7742203 91.7799977,78.3142203 C90.4504422,80.4557758 91.0873311,81.7428868 91.0873311,81.7428868 L97.3419976,76.4137759 L97.3419976,70.9364427 L75.4522203,66.566665 L81.9355535,71.7551093 L72.815776,71.3031093 L72.6764426,71.2266649 C68.9819983,72.3528871 63.4766651,74.7626648 61.6711096,79.3891091 L81.747998,75.9571092 L61.1011096,83.9255535 C61.2113318,85.8622201 61.6057762,87.5104423 62.161554,88.9015533 L82.9442201,80.6815535 L65.0142206,93.2842199 C66.7131094,95.003331 68.3168872,95.6579976 68.3168872,95.6579976 L84.1546646,87.2208867 L68.9946649,102.326664 C68.9946649,102.326664 56.2373319,97.5562198 55.2666653,84.475109 C54.8964431,79.4804425 56.9931097,75.468887 59.8604429,72.3675537 C63.6226651,68.2977761 68.7108872,65.796665 71.3044427,64.7022206 L81.3584424,35.0393325 L66.6319983,25.2477771 L62.7864429,36.4202213 L55.1119986,34.1086658 L55.4037764,41.9951101 L48.4875543,41.2515545 L48.4875543,49.5108877 L39.8548879,47.5044433 L43.7273322,57.542443 L34.7219991,57.9153319 L39.1102212,67.0679983 L29.9586659,67.438665 L32.7131103,76.9617759 L23.1886661,82.0984424 C23.1886661,82.0984424 24.1617772,94.7471087 32.9391103,115.058219 C37.9355546,126.617997 45.0717767,137.218885 49.378221,143.129996 C51.6251098,146.214219 53.1019987,148.021774 53.1019987,148.021774 L42.8786656,146.48933 L44.7246655,153.096663 L38.1993324,154.146218 C38.1993324,154.146218 37.9719991,163.246663 42.9839989,171.612885 C46.4208877,177.344884 54.0459986,180.679329 54.0459986,180.679329 C54.0459986,180.679329 57.720443,172.572218 62.8664429,165.627107 C68.9095538,157.477774 76.5406648,153.153774 76.5406648,153.153774 L83.311109,154.641996 L88.4455533,150.772218 L90.0819977,154.271552 L93.2084421,151.518441 L100.897331,153.721107 L108.567553,151.386441 L111.694219,154.139774 L113.330664,150.640663 L118.463775,154.512663 L125.236664,153.020663 C125.236664,153.020663 132.866886,157.347329 138.908663,165.498663 C144.056885,172.442885 147.728663,180.549773 147.728663,180.549773 C147.728663,180.549773 155.354218,177.213329 158.792885,171.479551 C163.803774,163.117551 163.575329,154.010218 163.575329,154.010218 L157.051774,152.967552 L158.898663,146.358441 L148.67333,147.892663 C148.67333,147.892663 150.151774,146.082441 152.401552,142.994219 C156.708663,137.08133 163.841551,126.481997 168.835551,114.925553 C177.615773,94.6177754 178.587329,81.9657757 178.587329,81.9657757 L169.064218,76.832887 L171.817329,67.3064428 L162.667107,66.9359983 L167.054662,57.7835541 L158.049107,57.4133319 L161.921552,47.3695544 L153.288218,49.3793321 L153.288218,41.1171101 L146.371774,41.8624434 Z M181.150662,70.5091093 L191.886662,74.1426648 C191.886662,74.1426648 189.171329,95.5644421 178.148662,117.247108 C171.535996,130.250663 161.813996,141.702219 161.813996,141.702219 L166.534663,143.275552 L163.552885,148.526885 L169.383774,148.63333 C169.383774,148.63333 170.531107,160.18644 164.600885,171.442885 C159.667774,180.815329 145.468219,187.473773 145.468219,187.473773 C145.468219,187.473773 143.960885,179.276218 135.333108,168.278662 C128.415997,159.463552 121.590441,156.892885 121.590441,156.892885 L118.463775,158.155329 L114.819997,155.776441 L112.957775,158.526885 L108.567553,155.776441 L100.897331,161.335996 L93.2084421,155.906218 L88.8186644,158.661552 L86.9559978,155.906218 L83.311109,158.285996 L80.185998,157.024885 C80.185998,157.024885 73.3613315,159.595329 66.4455539,168.41044 C57.8142208,179.408218 56.3082208,187.604218 56.3082208,187.604218 C56.3082208,187.604218 42.1111101,180.945995 37.1755546,171.574885 C31.2453326,160.316218 32.3908881,148.762885 32.3908881,148.762885 L38.2235546,148.656219 L35.2419991,143.409996 L39.9615546,141.835552 C39.9615546,141.835552 30.2402215,130.381108 23.627555,117.376664 C12.6051108,95.6984421 9.89002197,74.274887 9.89002197,74.274887 L20.6269995,70.6408871 L11.9249108,59.148443 L26.3159993,59.4077763 L16.4235329,43.6442211 L31.5955548,47.646221 L24.3053327,30.9775548 L38.2184435,36.4891102 L32.7131103,21.8320217 L46.25311,27.7091104 L45.7357766,13.0524219 L57.1073319,23.745555 L64.5435539,12.6137997 L74.6326648,21.8142439 C74.6326648,21.8142439 75.9355537,16.4046885 80.8697758,12.4920219 C90.39422,4.93488877 100.897331,5.88202208 100.897331,5.88202208 C100.897331,5.88202208 111.381997,4.8058221 120.90533,12.3597997 C125.840664,16.2726663 127.14533,21.683155 127.14533,21.683155 L137.234441,12.4786441 L144.668885,23.613555 L156.041996,12.9199552 L155.521996,27.5768882 L169.064218,21.6973106 L163.555107,36.3544435 L177.471329,30.8506659 L170.183107,47.5171099 L185.349773,43.5126656 L175.461551,59.2733319 L189.853773,59.0193319 L181.150662,70.5091093 L181.150662,70.5091093 Z" id="path60" fill="#231F20"></path>
                        <path d="M156.977996,86.3402201 L157.169774,86.2882201 L167.417329,83.5135535 L162.65644,94.4275532 L168.965551,92.7604421 L164.509107,104.173775 L167.694218,103.533553 C167.694218,103.533553 166.277774,111.695108 159.997996,121.172441 C150.49333,135.508663 138.046219,143.163108 136.34733,144.166663 C136.21933,144.242219 136.145552,144.283996 136.145552,144.283996 C136.145552,144.283996 150.891107,129.446219 155.790218,117.263775 C161.708218,102.552442 156.977996,86.3402201 156.977996,86.3402201" id="path62" fill="#231F20"></path>
                        <path d="M147.830663,88.6826644 L151.03733,90.1264422 L152.608663,84.6857757 C152.608663,84.6857757 154.973552,92.283331 154.808663,101.073331 C154.478441,118.48933 147.081774,124.643775 147.081774,124.643775 C147.081774,124.643775 152.238663,114.921553 151.00533,102.450886 C150.073774,93.0368866 147.830663,88.6826644 147.830663,88.6826644" id="path64" fill="#231F20"></path>
                        <polyline id="path66" fill="#231F20" points="153.600441 55.4795542 151.659552 63.6553317 159.929552 63.3706651 157.160663 70.1159982 164.89044 71.5619982 160.505107 78.7715536 134.500886 60.4733318 128.588663 41.3406656 134.698886 45.0762211 140.788441 42.0784434 138.880663 50.2317765 147.25933 47.8413321 145.696441 56.3651097 153.600441 55.4795542"></polyline>
                        <path d="M111.780219,135.037552 C113.042664,135.732885 114.309108,136.327108 115.546219,136.835774 C122.065775,139.517108 127.771775,139.809108 127.771775,139.809108 C127.771775,139.809108 121.640886,142.213552 113.135108,140.32333 C113.020442,140.297774 112.911553,140.271552 112.798886,140.245996 C103.765775,138.182219 100.983331,135.398886 100.983331,135.398886 C100.983331,135.398886 98.0159975,138.312219 88.9786644,140.376663 C88.8664422,140.402441 88.7577756,140.428219 88.6437756,140.453774 C80.1366647,142.345552 74.0046648,139.939997 74.0046648,139.939997 C74.0046648,139.939997 79.709998,139.648663 86.2306645,136.966663 C87.4684423,136.45733 88.7353311,135.862885 89.9984422,135.167108 C96.9919976,131.31733 100.983331,123.492219 100.983331,123.492219 C100.983331,123.492219 104.786442,131.183108 111.780219,135.037552" id="path68" fill="#231F20"></path>
                        <path d="M119.702664,126.17533 C114.462219,121.895553 105.410886,119.041108 105.410886,119.041108 C105.410886,119.041108 105.583553,119.026886 105.901108,119.017108 C108.117331,118.949553 117.384664,119.110219 124.061997,125.993997 C127.710663,129.755775 126.837552,136.141108 126.837552,136.141108 C126.837552,136.141108 125.705775,132.387774 122.215997,128.558441 C121.484664,127.755997 120.652441,126.950663 119.702664,126.17533" id="path70" fill="#231F20"></path>
                        <path d="M126.426886,112.754664 C123.275552,111.639553 118.499775,114.673997 118.499775,114.673997 L124.340664,116.592664 L125.444886,112.773775 L126.817775,118.026219 L130.958886,120.889553 C130.958886,120.889553 131.049997,114.394886 126.426886,112.754664 Z M139.030441,124.098219 L143.932885,121.436219 C143.932885,121.436219 142.803552,127.194219 139.595997,132.232441 C136.540885,137.033108 130.078441,140.453774 130.078441,140.453774 C130.078441,140.453774 135.158219,132.181552 130.179775,125.541997 C126.019108,119.993997 119.23533,117.45333 113.34133,116.307997 C107.055997,115.087108 101.782664,115.45333 101.782664,115.45333 C101.782664,115.45333 112.290219,114.239997 123.731997,110.634442 C140.138885,105.457553 146.229996,97.4395531 146.229996,97.4395531 L141.834663,111.346219 L146.31333,108.847775 L139.030441,124.098219 L139.030441,124.098219 Z" id="path72" fill="#231F20"></path>
                        <path d="M141.598663,155.818218 L147.827996,157.669329 L146.105107,161.381774 L151.00533,163.236663 L150.081107,166.414885 L153.921107,170.521996 L147.168441,169.197329 C147.168441,169.197329 144.884441,165.029551 142.793774,162.30444 C140.02733,158.703552 135.505997,154.095107 135.505997,154.095107 L143.189552,150.386885 L141.598663,155.818218" id="path74" fill="#231F20"></path>
                        <path d="M87.2375534,102.395109 C84.1393312,104.569997 75.5777759,104.01422 75.5777759,104.01422 C75.5777759,104.01422 82.1233313,103.163997 85.3662201,99.8184419 C88.2166645,96.8771087 90.3795533,89.5639978 90.5186644,89.0859978 C90.5235533,89.0697756 90.52622,89.0604422 90.52622,89.0604422 C90.52622,89.0604422 90.5264422,89.07222 90.5264422,89.0813311 C90.5357755,89.5157755 90.71622,99.9579975 87.2375534,102.395109" id="path76" fill="#231F20"></path>
                        <path d="M77.5217758,107.046442 C77.5217758,107.046442 86.6691089,107.663108 90.1504422,105.611331 C93.1235532,103.863997 94.5911087,88.9551089 94.8184421,86.441109 C94.8395532,86.2084423 94.8502199,86.079109 94.8502199,86.079109 C94.8502199,86.079109 94.8608865,86.1935534 94.8786643,86.4039978 C95.0935532,88.9333311 96.3677754,105.49222 93.1728866,108.279553 C90.0137755,111.034219 77.5217758,107.046442 77.5217758,107.046442" id="path78" fill="#231F20"></path>
                        <path d="M114.735997,102.395109 C111.230219,99.9366642 111.444219,89.3344422 111.450219,89.0728867 C111.450219,89.0693311 111.450442,89.0604422 111.450442,89.0604422 C111.450442,89.0604422 111.452664,89.0686644 111.455108,89.0753311 C111.546664,89.3926644 113.726442,96.8419976 116.609108,99.8184419 C119.851997,103.163997 126.398441,104.01422 126.398441,104.01422 C126.398441,104.01422 117.834886,104.569997 114.735997,102.395109" id="path80" fill="#231F20"></path>
                        <path d="M111.820664,105.611331 C115.307108,107.663108 124.452664,107.046442 124.452664,107.046442 C124.452664,107.046442 111.957775,111.034219 108.801553,108.279553 C105.60222,105.488664 106.885775,88.8937756 107.098664,86.3955534 C107.11622,86.1908867 107.126442,86.079109 107.126442,86.079109 C107.126442,86.079109 107.136664,86.2048867 107.157331,86.4319978 C107.381997,88.9184422 108.848886,103.861775 111.820664,105.611331" id="path82" fill="#231F20"></path>
                        <polyline id="path84" fill="#231F20" points="178.145329 136.396663 178.934662 136.400219 178.934662 141.867108 180.433995 141.879774 180.433995 142.581552 176.645996 142.556219 176.645996 141.854441 178.145329 141.86333 178.145329 136.396663"></polyline>
                        <polyline id="path86" fill="#231F20" points="182.393773 140.498219 182.40844 140.498219 184.303551 136.306219 186.196884 140.523774 186.217106 140.523774 186.953329 136.453552 187.765106 136.458441 186.475773 142.882219 184.303551 138.006441 182.134218 142.852885 180.840218 136.413108 181.655107 136.41933 182.393773 140.498219"></polyline>
                    </g>
                </g>
            </g>
        </g>
    </g>
</svg>