<?xml version="1.0" encoding="UTF-8"?>
<svg width="200px" height="200px" viewBox="0 0 200 200" version="1.1" xmlns="http://www.w3.org/2000/svg" xmlns:xlink="http://www.w3.org/1999/xlink">
    <!-- Generator: Sketch 54.1 (76490) - https://sketchapp.com -->
    <title>indiana-st</title>
    <desc>Created with Sketch.</desc>
    <g id="indiana-st" stroke="none" stroke-width="1" fill="none" fill-rule="evenodd">
        <g id="indiana-st_BGD">
            <g id="indiana-st" transform="translate(0.000000, 39.000000)">
                <g id="g10" transform="translate(100.042460, 61.483267) scale(-1, 1) rotate(-180.000000) translate(-100.042460, -61.483267) translate(0.084926, 0.066942)" fill-rule="nonzero">
                    <g id="g12" transform="translate(0.152866, 0.000000)">
                        <path d="M71.0583422,39.737199 C71.0583422,39.737199 71.7301044,36.9590725 72.5355396,35.2389134 C73.3414844,33.5189216 73.4760067,32.8568971 72.6700619,31.534187 C71.864287,30.2106401 71.4608899,30.4753829 70.7903167,29.4172482 C70.1183847,28.3591136 70.3870895,27.5645503 69.9838624,26.5064157 C69.5811448,25.448281 69.447132,25.1825341 68.6411872,24.3889749 C67.8359219,23.5955831 67.1639898,23.4630443 65.6867924,22.5374484 C64.209595,21.6108484 64.4782999,20.6845832 64.0755823,19.361873 C63.6723551,18.0386608 64.209595,15.9213539 63.8070472,14.8630853 C63.4041598,13.8049507 62.7323976,13.1424242 62.32968,12.2169789 C61.9271322,11.2908809 61.7924401,11.0263389 61.7924401,11.0263389 C59.912525,9.57073854 58.3008053,8.51206836 58.8380452,7.45348185 C59.3752851,6.39533045 58.8380452,6.52738392 59.3752851,5.46923252 C59.912525,4.41089703 60.7184698,4.80769335 61.2552002,4.14581949 C61.7924401,3.48448114 61.9271322,4.01364888 62.7323976,3.08721625 C63.5381725,2.16165382 63.6723551,1.76433873 64.4782999,2.16165382 C65.2840748,2.55773055 66.0900196,3.21972155 67.0299771,3.88107664 C67.9699346,4.54248193 68.3724824,5.46923252 69.447132,4.41089703 C70.5211023,3.35229379 71.1928645,2.69043667 72.4015269,3.08721625 C73.6100194,3.48448114 73.7447115,3.88107664 74.6844992,4.67563988 C75.6244567,5.46923252 75.6244567,5.86530924 76.9671318,5.60128598 C78.3103165,5.33666027 78.3103165,5.99801536 78.8475564,4.67563988 C79.3847963,3.35229379 79.3847963,3.35229379 80.7274714,2.69043667 C82.0704863,2.02960036 85.0248811,1.76433873 86.0990212,3.08721625 C87.173501,4.41089703 86.5020785,5.0724362 87.5760488,5.46923252 C88.6506984,5.86530924 89.5904861,5.99801536 90.1278958,5.0724362 C90.6651357,4.14581949 91.3363884,3.48448114 92.4108682,3.48448114 C93.4850083,3.48448114 93.3508257,3.21972155 94.2907832,2.95569829 C95.2307407,2.69043667 97.1106557,2.82299217 97.245178,3.61705338 C97.3798702,4.41089703 98.0504434,5.0724362 98.7223755,5.60128598 C99.3936281,6.1305876 99.5278107,5.86530924 99.662333,6.79192595 C99.7968553,7.71854266 99.2596154,8.24732551 100.334265,8.51206836 C101.408065,8.77734672 101.542248,9.70324384 102.616728,9.04143692 C103.691208,8.37937897 103.691208,8.77734672 104.496643,7.71854266 C105.303097,6.65988922 104.89936,5.86530924 106.108363,5.99801536 C107.316855,6.1305876 107.58556,6.26329372 108.525517,6.39533045 C109.465475,6.52738392 110.136728,8.37937897 111.077195,9.30599569 C112.017152,10.2326124 112.151844,9.83482873 112.95711,10.7615793 C113.762375,11.688196 113.897577,11.5549711 113.762375,12.4816046 C113.628872,13.4076858 113.762375,14.2010943 113.762375,14.2010943 C113.762375,14.2010943 113.49435,14.3337837 115.239742,14.8630853 C116.985984,15.392387 116.851462,15.7891833 117.388702,16.5832277 C117.925942,17.3766363 117.657237,17.1125628 118.463182,18.0386608 C119.268447,18.9640893 119.806366,19.4939097 120.074392,20.2879709 C120.342927,21.0820321 119.806366,21.6108484 120.342927,21.8760933 C120.879827,22.1401668 121.820294,22.5374484 122.492226,23.3303382 C123.163479,24.1249014 123.029466,23.7271178 123.297492,25.0509994 C123.565517,26.3738769 123.163479,27.2999748 123.969254,27.4325136 C124.774689,27.5645503 124.506494,27.4325136 125.849169,27.2999748 C127.191844,27.1679381 129.072269,29.0199666 129.878043,29.1520034 C130.683309,29.2847095 129.743521,29.0199666 131.220719,29.2847095 C132.697406,29.5487829 133.503181,29.4172482 134.040421,30.3433462 C134.577831,31.2692768 134.174604,31.2692768 135.249084,31.534187 C136.323563,31.7987625 136.458086,32.8568971 136.860464,34.0480726 C137.2642,35.2389134 137.532735,35.1062073 137.397704,36.0328073 C137.2642,36.9590725 136.860464,36.6941623 136.323563,37.6204276 C135.786833,38.5465256 135.249084,38.2817827 135.652311,39.2078807 C136.054859,40.1344806 136.323563,40.3992235 136.458086,41.4571908 C136.592098,42.5159949 136.726791,42.6481989 136.458086,43.7068356 C136.189551,44.7654724 135.212396,45.9782356 135.212396,45.9782356 L135.212396,63.9499576 L135.80212,108.487169 C135.366281,108.701707 135.701568,111.234169 135.80212,113.566148 C135.936302,116.716789 135.80212,120.644756 135.80212,120.644756 L91.0678533,120.644756 C91.0678533,120.644756 89.5988088,117.394879 86.2335435,117.271042 C79.1160914,117.006299 78.1763038,120.578487 78.1763038,120.578487 L73.2073018,120.711193 L73.2073018,106.421103 L71.0583422,39.737199" id="path14" fill="#FFFFFF"></path>
                        <path d="M71.1690853,122.774413 L71.1690853,106.453234 L69.0211448,39.8009582 L69.0124824,39.5327011 L69.0756671,39.2718072 C69.1048815,39.1503133 69.8046692,36.2774685 70.684839,34.3976604 C70.8137562,34.1223747 71.155667,33.3925747 71.172822,33.1157828 C71.1775778,33.0376318 71.0839897,32.8326318 70.9226309,32.5675543 C70.6751575,32.1614033 70.5605078,32.0688604 70.3320577,31.8844441 C70.0030556,31.6190319 69.5526097,31.2555543 69.0615694,30.4810727 C68.4322701,29.4900442 68.3166013,28.6169952 68.2321851,27.9794034 C68.190062,27.6619462 68.1596586,27.4326809 68.0755822,27.2121177 C67.7464102,26.346934 67.7464102,26.346934 67.2005079,25.809583 C66.9263678,25.5394851 66.7060705,25.4158157 66.1095525,25.0983586 C65.7122701,24.8866647 65.2180026,24.6235953 64.5931194,24.2320035 C62.7446269,23.0724566 62.4811874,21.6841464 62.2889156,20.670526 C62.2403381,20.4144852 62.1944783,20.1728362 62.1233105,19.9387179 C61.8225038,18.9517056 61.8663254,17.8708118 61.9050515,16.917269 C61.9235653,16.4639261 61.9512511,15.7814686 61.8928222,15.5535253 C61.7496375,15.1832033 61.5323976,14.8500155 61.2813573,14.4649837 C61.011973,14.0515866 60.7065802,13.5830821 60.4563891,13.0080278 C60.3235654,12.7024858 60.222334,12.4747266 60.1474295,12.3087017 C60.0857734,12.2614932 60.0246269,12.2148201 59.9641599,12.1685989 C59.0642873,11.4815058 58.2870474,10.8880769 57.7051366,10.2322777 C56.2904445,8.63757856 56.6654763,7.24409737 57.0150304,6.55529739 C57.0401684,6.5058129 57.0573234,6.46881249 57.0685336,6.44285698 C57.0695527,5.99284434 57.1120156,5.43844068 57.5524402,4.57073009 C58.2403382,3.21625747 59.3112512,2.86901258 59.8269199,2.70213422 C60.2853488,2.20446117 60.7295102,1.98776362 61.1186397,1.85370199 C61.1364741,1.83480853 61.158215,1.81087791 61.1842023,1.78107342 C61.2940961,1.65490388 61.3892129,1.54057245 61.4749878,1.43768086 C61.9809751,0.831048224 62.673629,0 63.9599135,0 C64.4230982,0 64.8910387,0.119626952 65.3902319,0.365810358 C66.1370684,0.732797165 66.8033954,1.2207825 67.508958,1.73721179 C67.7384272,1.90521138 67.9757096,2.07895097 68.2145206,2.24715137 C68.3274718,2.32645708 68.4321002,2.40613096 68.5289155,2.48359586 C69.3919303,1.67248869 70.3480237,0.96276867 71.7336712,0.96276867 C72.1611872,0.96276867 72.602461,1.03637455 73.0457731,1.18195299 C74.3723124,1.61810094 74.9387667,2.15524444 75.4867072,2.67467259 C75.6443293,2.82431422 75.8075565,2.97890931 76.0117178,3.15167829 C76.2323548,3.33791869 76.4059429,3.50153379 76.5472592,3.63613093 C76.5540533,3.63475868 76.5610172,3.63345338 76.568151,3.63194726 C76.7526095,3.5955995 76.9335013,3.56833869 77.1130342,3.55023175 C77.7401254,2.08648158 78.1616966,1.70995098 79.8153696,0.894651774 C80.7813143,0.419217459 82.1243292,0.135903952 83.4094247,0.135903952 C85.2818662,0.135903952 86.8022059,0.738483614 87.6905286,1.83278363 C88.2534161,2.52628606 88.5149872,3.13271788 88.6627579,3.59325664 C89.6287026,2.18806117 90.8874712,1.47631458 92.4108682,1.47631458 C92.5025879,1.47631458 92.5627153,1.47350315 92.5990635,1.47082225 C92.6109531,1.46480947 92.6228427,1.45872976 92.6352418,1.45258478 C92.8540104,1.34328548 93.184711,1.17829311 93.7318023,1.02447785 C94.320677,0.858307366 94.9256876,0.82333353 95.3290847,0.82333353 C97.9062396,0.82333353 99.0449232,2.08594607 99.253161,3.27261992 C99.2706557,3.31666563 99.3854752,3.55292603 99.9945623,4.03240847 C100.076431,4.09680357 100.129594,4.12777949 100.217747,4.179155 C101.240252,4.77377213 101.535284,5.51088517 101.679997,6.50763698 C101.69987,6.644008 101.71176,6.77350106 101.718044,6.89534636 C101.827598,6.95110636 101.927811,7.0078537 102.019021,7.06321207 C102.288745,6.92215534 102.494605,6.83697575 102.649169,6.77336718 C102.653246,6.77166024 102.657152,6.77003697 102.661229,6.76819616 C102.701484,6.72264432 102.767046,6.64387412 102.86556,6.51431412 C102.983437,6.35951821 103.038978,6.21523168 103.123055,5.99691087 C103.315327,5.49701211 103.900464,3.97534317 105.867004,3.97534317 C106.016643,3.97534317 106.169339,3.98416235 106.333925,4.00206847 C107.128999,4.08927296 107.58556,4.18099581 107.988447,4.26179091 C108.252566,4.31467255 108.480507,4.36055907 108.813246,4.40723213 C110.314052,4.61812274 111.134265,5.87635414 111.793458,6.88763166 C112.036006,7.25984472 112.310825,7.68155899 112.518384,7.88622429 C112.755496,8.11965653 112.83074,8.15933449 112.995836,8.24550143 C113.438808,8.47762836 113.887725,8.7447308 114.505135,9.45530262 C114.644413,9.61525282 114.76212,9.74044506 114.866069,9.85084384 C115.651802,10.6851018 115.988957,11.3342238 115.77987,12.7672658 C115.772396,12.8187752 115.766282,12.8696319 115.761356,12.9200368 C115.786494,12.9278854 115.812651,12.9357172 115.839318,12.9439507 C117.684243,13.5028727 118.320676,14.1344735 118.909211,15.1765429 C118.970358,15.2851176 119.023352,15.3786645 119.084498,15.4691992 C119.274901,15.7503588 119.382757,15.9250857 119.454095,16.0407225 C119.544116,16.1869669 119.563139,16.2172233 120.010358,16.7313633 C120.119742,16.8570241 120.223861,16.9750037 120.323054,17.0872935 C121.034732,17.8937383 121.649254,18.5902363 122.00849,19.6540607 C122.118553,19.9793832 122.168659,20.2817791 122.185984,20.5498689 C122.775029,20.8777015 123.465305,21.3456035 124.056897,22.0436076 C124.164413,22.1706239 124.245262,22.2591505 124.3166,22.3371341 C124.952693,23.0319586 125.056303,23.4491545 125.23023,24.3268892 C125.249254,24.4231137 125.270825,24.5328933 125.296303,24.6582361 C125.344371,24.8951994 125.376472,25.1192769 125.398383,25.3279586 C125.475666,25.3192565 125.558213,25.3103871 125.645857,25.3016851 C125.758808,25.2906402 125.874307,25.2851177 125.989636,25.2851177 C127.40263,25.2851177 128.669381,26.1093014 129.687131,26.7718279 C129.879742,26.8973381 130.125177,27.0569871 130.291971,27.1542156 C130.315581,27.1535463 130.33936,27.1532116 130.363309,27.1532116 C130.627258,27.1532116 130.935708,27.1923707 131.585389,27.3088442 C131.862757,27.3583789 132.121271,27.3930197 132.371292,27.4264891 C133.434731,27.5683993 134.891207,27.7628564 135.810103,29.3467952 C135.873287,29.4559054 135.92798,29.5571503 135.975708,29.6503625 C137.808064,30.2169992 138.301822,31.8262074 138.633033,32.9052604 C138.687215,33.0821461 138.73851,33.248991 138.794391,33.4143298 C138.895793,33.7133787 138.976472,33.8757053 139.061738,34.0472359 C139.405007,34.7382114 139.562969,35.3046808 139.415198,36.3184685 C139.255198,37.4271419 138.772311,37.9778807 138.274307,38.4074603 C138.161525,38.5048562 138.154901,38.510546 138.093585,38.6163092 C138.002205,38.7737827 137.909126,38.9136847 137.818086,39.0375215 C138.081186,39.5768806 138.346663,40.1537255 138.480676,41.2075092 C138.505135,41.4021337 138.529763,41.5599418 138.553202,41.7125622 C138.673627,42.4887173 138.732396,43.0238928 138.435495,44.1938152 C138.198553,45.1277785 137.65265,46.0424968 137.250612,46.6285458 L137.250612,63.9372392 L137.840166,108.461063 L137.856982,109.72085 L137.625474,109.834646 C137.640591,110.34472 137.6873,111.028667 137.725007,111.582083 C137.76713,112.199593 137.810782,112.838189 137.838468,113.480801 C137.974349,116.67194 137.844752,120.548699 137.839147,120.712364 L137.773075,122.652919 L135.80212,122.652919 L91.0678533,122.652919 L89.7171952,122.652919 L89.20883,121.468772 C89.1242441,121.295234 88.1318025,119.350495 86.1572802,119.277699 C85.9320573,119.269332 85.7090424,119.265148 85.4941805,119.265148 C82.9956667,119.265148 81.6433101,119.824924 80.9487878,120.294332 C80.3707836,120.685254 80.172567,121.061617 80.130274,121.154495 L79.764584,122.544981 L78.2313356,122.585981 L73.2625035,122.718519 L71.1690853,122.774413 L71.1690853,122.774413 Z M73.2073018,120.711193 L78.1763038,120.578487 C78.1763038,120.578487 79.0498494,117.256985 85.4941805,117.256985 C85.7328216,117.256985 85.9794458,117.261503 86.2335435,117.271042 C89.5988088,117.394879 91.0678533,120.644756 91.0678533,120.644756 L135.80212,120.644756 C135.80212,120.644756 135.936302,116.716789 135.80212,113.566148 C135.701568,111.234169 135.366281,108.701707 135.80212,108.487169 L135.212396,63.9499576 L135.212396,45.9782356 C135.212396,45.9782356 136.189551,44.7654724 136.458086,43.7068356 C136.726791,42.6481989 136.592098,42.5159949 136.458086,41.4571908 C136.323563,40.3992235 136.054859,40.1344806 135.652311,39.2078807 C135.249084,38.2817827 135.786833,38.5465256 136.323563,37.6204276 C136.860464,36.6943297 137.2642,36.9590725 137.397704,36.0328073 C137.532735,35.1062073 137.2642,35.2389134 136.860464,34.0480726 C136.458086,32.8568971 136.323563,31.7987625 135.249084,31.534187 C134.174604,31.2692768 134.577831,31.2692768 134.040591,30.3433462 C133.503181,29.4172482 132.697406,29.5487829 131.220719,29.2847095 C130.674986,29.1868115 130.459105,29.1613748 130.363309,29.1613748 C130.25868,29.1613748 130.297237,29.1916646 130.205517,29.1916646 C130.153712,29.1916646 130.060804,29.1821258 129.878043,29.1520034 C129.099954,29.024485 127.319912,27.293281 125.989636,27.293281 C125.942078,27.293281 125.895368,27.2952891 125.849169,27.2999748 C124.8997,27.3936891 124.755836,27.487236 124.468107,27.487236 C124.348872,27.487236 124.205177,27.4711707 123.969254,27.4325136 C123.163479,27.2999748 123.565517,26.3738769 123.297492,25.0509994 C123.029466,23.7271178 123.163479,24.1249014 122.492226,23.3303382 C121.820294,22.5374484 120.879827,22.1401668 120.342927,21.8760933 C119.806366,21.6108484 120.342927,21.0820321 120.074392,20.2879709 C119.806366,19.4939097 119.268447,18.9640893 118.463182,18.0386608 C117.657237,17.1125628 117.925942,17.3766363 117.388702,16.5832277 C116.851462,15.7891833 116.985984,15.392387 115.239742,14.8630853 C113.49435,14.3337837 113.762375,14.2010943 113.762375,14.2010943 C113.762375,14.2010943 113.628872,13.4076858 113.762375,12.4816046 C113.897577,11.5549711 113.762375,11.688196 112.95711,10.7615793 C112.151844,9.83482873 112.017152,10.2326124 111.077195,9.30599569 C110.136897,8.37937897 109.465475,6.52738392 108.525517,6.39533045 C107.58556,6.26329372 107.316855,6.1305876 106.108363,5.99801536 C106.01936,5.98814189 105.93953,5.98350638 105.866834,5.98350638 C104.952184,5.98350638 105.243819,6.73773902 104.496643,7.71854266 C103.691208,8.77734672 103.691208,8.37937897 102.616728,9.04143692 C102.343607,9.20957038 102.131293,9.27533773 101.948872,9.27533773 C101.413331,9.27533773 101.135114,8.70988917 100.334265,8.51206836 C99.2596154,8.24732551 99.7970251,7.71854266 99.662333,6.79192595 C99.5278107,5.86530924 99.3937979,6.1305876 98.7223755,5.60128598 C98.0504434,5.0724362 97.3798702,4.41089703 97.245178,3.61705338 C97.1512502,3.06362033 96.2095942,2.8314934 95.3290847,2.8314934 C94.9465794,2.8314934 94.5754541,2.87535503 94.2907832,2.95569829 C93.3508257,3.21972155 93.4850083,3.48448114 92.4108682,3.48448114 C91.3363884,3.48448114 90.6651357,4.14581949 90.1278958,5.0724362 C89.8315052,5.58284435 89.4126517,5.77144435 88.916346,5.77144435 C88.5127791,5.77144435 88.0579171,5.64678761 87.5760488,5.46923252 C86.5020785,5.0724362 87.173501,4.41089703 86.0990212,3.08721625 C85.5439469,2.40358729 84.4869618,2.14406566 83.4094247,2.14406566 C82.4020362,2.14406566 81.3764735,2.37115545 80.7274714,2.69043667 C79.3847963,3.35229379 79.3847963,3.35229379 78.8475564,4.67563988 C78.5358791,5.44275823 78.4050936,5.54219578 78.0878112,5.54219578 C77.9767284,5.54219578 77.8427157,5.53016354 77.6699768,5.53016354 C77.4860278,5.53016354 77.2580872,5.54401986 76.9671318,5.60128598 C76.6870469,5.65646027 76.465221,5.68280067 76.281272,5.68280067 C75.5835225,5.68280067 75.4282784,5.30352558 74.6844992,4.67563988 C73.7447115,3.88107664 73.6100194,3.48448114 72.4015269,3.08721625 C72.1598283,3.00786033 71.9398708,2.97092686 71.7336712,2.97092686 C70.9083634,2.97092686 70.3064101,3.56397093 69.447132,4.41089703 C69.0953698,4.75748927 68.8157945,4.89123294 68.5656034,4.89123294 C68.0514633,4.89123294 67.6621639,4.32605214 67.0299771,3.88107664 C66.0900196,3.21972155 65.2840748,2.55773055 64.4782999,2.16165382 C64.2675143,2.05784852 64.1027585,2.00816322 63.9599135,2.00816322 C63.5563466,2.00816322 63.3275568,2.40358729 62.7323976,3.08721625 C61.9271322,4.01364888 61.7924401,3.48448114 61.2552002,4.14581949 C60.7184698,4.80769335 59.9126949,4.41089703 59.3752851,5.46923252 C58.8380452,6.52738392 59.3752851,6.39533045 58.8380452,7.45348185 C58.3008053,8.51206836 59.9126949,9.57073854 61.7924401,11.0263389 C61.7924401,11.0263389 61.9271322,11.2908809 62.32968,12.2169789 C62.7323976,13.1424242 63.4041598,13.8049507 63.8070472,14.8630853 C64.209595,15.9213539 63.6723551,18.0386608 64.0755823,19.361873 C64.4782999,20.6845832 64.209595,21.6108484 65.6867924,22.5374484 C67.1639898,23.4630443 67.8359219,23.5955831 68.6411872,24.3889749 C69.447132,25.1825341 69.5811448,25.448281 69.9838624,26.5064157 C70.3870895,27.5645503 70.1183847,28.3591136 70.7903167,29.4172482 C71.4608899,30.4753829 71.864287,30.2106401 72.6700619,31.534187 C73.4760067,32.8568971 73.3414844,33.5189216 72.5355396,35.2389134 C71.7301044,36.9590725 71.0583422,39.737199 71.0583422,39.737199 L73.2073018,106.421103 L73.2073018,120.711193 L73.2073018,120.711193 Z" id="path16" fill="#3067BA"></path>
                        <path d="M34.3971117,62.8918229 C36.2773664,63.2884352 37.2174938,64.0826637 37.8887464,63.1563984 C38.5605086,62.2297984 38.8285341,58.7903169 38.1572814,56.5408394 C37.4860288,54.2913619 36.2773664,52.0418844 35.7401265,51.2484926 C35.2028866,50.4544314 35.0688739,50.0578192 34.3971117,50.851211 C33.7256892,51.6451048 33.5916764,52.1744232 32.2484918,52.0418844 C30.9059865,51.9098477 29.6968145,48.9990151 29.5628018,47.8083417 C29.4287891,46.6175009 28.9834388,43.3428561 30.234564,39.737199 C32.114479,37.223146 35.0688739,33.3862155 39.0977485,33.5189216 C47.4320158,33.7916971 53.1979605,44.9798438 53.1979605,56.4081333 C53.1979605,57.2021945 52.6525677,58.7319128 53.0639477,58.3930353 C53.8692131,57.7315128 55.0777056,56.8054149 56.286368,56.5408394 C57.49554,56.2760966 58.4354975,56.011521 59.2407629,56.2760966 C60.0467076,56.5408394 59.64399,56.4081333 60.4499348,57.3347333 C61.2552002,58.2608312 61.6584273,58.1282924 61.6584273,57.3347333 C61.6584273,56.5408394 64.0755823,49.3957947 64.4782999,48.4696967 C64.881527,47.5437662 66.2240323,45.6914029 67.298682,44.8975091 C68.3724824,44.1034479 68.5071745,43.3100561 69.9838624,42.6481989 C71.4608899,41.9865092 72.4015269,42.1187132 73.4760067,42.7807377 C74.5499769,43.4420928 74.8186818,42.9127744 74.5499769,44.5002275 C74.281272,46.0881825 71.864287,62.7591168 71.5955821,63.553178 C71.3268772,64.3472392 71.4608899,64.6118147 71.4608899,64.6118147 C71.4608899,64.6118147 72.4015269,63.9499576 73.0727795,63.6852147 C73.7447115,63.4206392 77.1016541,64.3472392 78.1763038,65.8026555 C79.2501042,67.2580718 80.1902315,67.7868881 80.4587666,68.7134881 C80.7274714,69.639586 80.5934587,70.3004391 81.2640319,70.1689044 C81.935964,70.0361982 82.3386816,69.2423044 83.2786391,68.9780636 C84.2184268,68.7134881 86.2335435,69.3748432 87.3075137,70.9622962 C88.3819935,72.5504186 88.1134585,72.153137 88.6506984,73.3443125 C89.1874288,74.5351532 89.7246687,74.2699083 89.7246687,73.4763492 C89.7246687,72.6824553 89.4564733,71.0950023 90.2619086,70.3004391 C91.0678533,69.5068799 90.9338406,68.9780636 92.007641,68.580782 C93.0817811,68.1841697 95.365263,67.5226473 97.245178,70.1689044 C98.1348595,71.4253452 98.738851,71.722888 99.0583415,72.194639 C99.4106132,72.7239574 99.4440739,73.3853125 99.7968553,73.8731288 C100.467768,74.7998961 100.350571,73.9891002 101.13953,73.4763492 C101.944796,72.9470308 102.482715,72.6824553 103.691208,73.4763492 C104.89936,74.2699083 105.571123,74.5351532 105.97384,75.0639696 C106.376388,75.5932879 106.645602,75.7253246 106.645602,75.7253246 C106.645602,75.7253246 106.914307,73.3443125 108.65953,72.153137 C110.405432,70.9622962 112.554392,71.8890635 112.554392,71.8890635 C112.554392,71.8890635 115.64297,74.1378716 116.045517,74.7998961 C116.448235,75.4612512 117.120676,76.3871818 117.254689,75.8578634 C117.388702,75.3285451 117.120676,73.4763492 117.254689,72.4177125 C117.388702,71.3590758 117.79142,70.1689044 119.000422,69.5068799 C120.208914,68.8455248 122.492226,69.2423044 123.700039,69.9036595 C124.909211,70.5655166 125.580124,70.8302595 126.520591,71.6241533 C127.460379,72.4177125 128.265814,73.4763492 128.265814,73.4763492 C128.265814,71.0950023 128.401016,68.580782 130.011547,67.2580718 C131.623946,65.9346922 132.429381,65.4053739 136.458086,66.4640106 C140.486451,67.5226473 141.695623,69.639586 141.695623,69.639586 L145.455453,69.5068799 C145.455453,69.5068799 141.695623,65.5374106 142.367045,61.5684434 C143.038298,57.5989741 144.339359,58.3600679 146.126026,57.7315128 C148.00713,57.0701578 150.558807,58.2608312 150.558807,58.2608312 C148.812565,56.937619 149.676939,54.2665946 150.69231,52.5712028 C152.438722,49.6605375 158.615707,49.7930763 158.615707,49.7930763 C157.272862,46.8822437 157.382416,43.9381091 161.032692,41.4571908 C166.673457,37.6204276 178.894263,39.0758439 178.894263,39.0758439 L185.474305,46.2207213 L182.518891,46.0881825 C186.816131,47.8083417 189.234815,50.3223947 190.442458,50.9832477 C191.6518,51.6451048 194.875579,54.1593252 196.217405,55.8794843 C197.559231,57.5989741 198.902755,61.4364066 195.276428,62.4945413 C191.6518,63.553178 190.174093,61.7011495 188.96645,61.3038679 C187.757108,60.9070883 180.236089,60.6423454 180.236089,60.6423454 C183.862416,63.0233576 187.487044,63.1563984 187.084496,68.8455248 C186.816131,72.5999533 183.862416,74.5351532 180.9087,74.9319328 C177.953286,75.3285451 173.656047,74.7998961 172.045856,74.2699083 C170.432268,73.741092 168.283987,74.0056675 168.283987,74.0056675 C168.283987,74.0056675 169.895537,76.1226063 170.568149,77.4459858 C171.239062,78.768696 170.702331,79.0327695 171.641609,80.0915735 C172.580887,81.1502102 173.521864,81.9437694 172.850951,82.8703694 C172.17834,83.7962999 169.224624,85.1198469 168.283987,85.5164591 C167.344709,85.9132387 166.538764,85.9132387 167.076684,86.8398386 C167.613244,87.7654345 168.149975,89.0893161 167.881949,90.2794875 C167.613244,91.4708304 167.613244,91.6028671 166.404242,91.6028671 C165.196259,91.6028671 164.524497,91.3381242 163.04713,90.8088059 C161.570442,90.2794875 159.018255,89.6179651 158.21282,89.2206835 C157.406875,88.8240712 156.6011,88.5599978 156.6011,88.5599978 L156.198383,89.3533896 C156.198383,89.3533896 158.347342,92.5287977 156.6011,95.0423486 C154.855877,97.556569 151.364073,98.4826669 147.872608,97.2923282 C144.380803,96.1011527 141.023861,96.1011527 137.129508,92.7935405 C133.235156,89.4859284 132.563394,88.8240712 132.026663,87.8979733 C131.488914,86.9718754 131.086026,85.9132387 130.549296,85.7812019 C130.011547,85.6491652 130.011547,86.0457774 130.011547,86.0457774 C132.026663,88.8240712 134.308617,92.5287977 135.115071,93.3228589 C135.920336,94.1169201 136.323563,94.6457364 136.323563,95.4397976 C136.323563,96.2336915 136.458086,99.5413036 136.189551,100.732479 C136.239827,100.500871 135.643648,106.47934 133.369169,105.362969 C132.026663,104.701614 130.280761,103.378234 129.474816,102.452136 C128.669041,101.526038 128.131801,100.99672 127.594562,100.59994 C127.057322,100.202659 127.057322,99.9380832 126.923818,100.99672 C126.788617,102.055357 127.855963,103.936671 127.050697,105.392087 C126.244243,106.847503 126.677364,106.928332 124.774689,107.347703 C123.457152,107.637716 122.62556,107.082961 121.954307,106.554312 C121.283054,106.024826 118.865899,104.568908 117.925942,103.643479 C116.985984,102.716712 116.314222,102.188063 116.314222,102.188063 C115.911505,102.716712 115.776982,103.113491 115.776982,103.113491 C115.776982,103.113491 115.776982,104.966189 113.628872,105.76025 C111.479912,106.554312 111.077195,106.554312 110.002715,105.76025 C108.928065,104.966189 105.168575,100.732479 103.82522,98.8799485 C102.482715,97.0277527 100.60229,94.1169201 100.065051,93.0582834 C99.5278107,92.0001487 98.9910803,91.3381242 98.5878532,90.5447324 C98.1851355,89.7501692 97.6478956,88.6920345 97.5138829,89.4859284 C97.3798702,90.2794875 99.1672162,93.992414 98.9910803,97.4245323 C98.8568977,100.070622 97.3798702,100.467402 97.3798702,100.467402 C98.7223755,104.040259 95.4992757,105.76025 95.4992757,105.76025 C94.4254753,107.47974 93.3508257,108.009728 91.0678533,107.47974 C88.7847112,106.950924 89.7246687,107.215165 88.9192334,106.421103 C88.1134585,105.627544 86.7702738,104.701614 86.0990212,104.304332 C85.4275987,103.907553 82.0704863,100.59994 80.9960065,99.1445241 C79.9220362,97.6886057 78.8475564,96.2336915 78.4448388,95.1750548 C78.0416116,94.1169201 78.1763038,92.6610018 77.9070893,91.8674426 C77.6390639,91.0735487 77.1016541,90.8088059 76.9671318,91.7349038 C76.8331191,92.6610018 76.8331191,100.202659 73.8787243,102.848748 C71.6458581,104.850385 69.6737138,103.643479 69.0439049,103.378234 C66.4927372,102.319597 63.5381725,96.1011527 63.5381725,96.1011527 C61.9271322,93.7196385 62.0611449,90.2794875 61.9271322,89.4859284 C61.7924401,88.6920345 62.1956672,87.5011937 61.523905,87.7654345 C60.8524826,88.0305121 60.8524826,88.2947529 60.1807204,89.882708 C59.5094677,91.4708304 56.286368,96.1011527 53.0639477,95.5723364 C51.1079393,95.2493568 51.1835231,92.5287977 51.1835231,91.4708304 C51.1835231,90.4120263 51.4520582,88.95661 51.1835231,88.4272917 C50.9148183,87.8979733 51.0495104,87.8979733 50.2435656,88.4272917 C49.4381304,88.95661 47.2891708,90.941512 44.7374936,90.4120263 C42.1863259,89.882708 41.7907421,87.7729652 41.6565595,86.7141611 C41.5220372,85.6561938 41.3803811,80.3568184 42.3203386,77.7105613 C43.2602962,75.0639696 43.3948184,73.8731288 43.7975361,72.9470308 C44.2005934,72.0211002 44.8720159,70.6977207 44.8720159,70.6977207 C44.8720159,70.6977207 44.2005934,70.9622962 42.3203386,72.153137 C40.4404236,73.3443125 36.5460713,75.1965083 32.9199143,73.6085533 C29.2942668,72.0211002 25.8029718,70.6977207 23.1167722,69.1102677 C20.4310823,67.5226473 18.7108276,66.034431 17.6112098,69.639586 C17.2079826,70.9622962 17.8799146,73.6085533 18.0139274,74.5351532 C18.1479401,75.4612512 18.1479401,77.0487042 18.953715,76.3871818 C19.7596598,75.7253246 19.4911248,74.6666879 21.2368572,74.0056675 C22.9825897,73.3443125 25.2657319,74.7998961 25.3997446,76.9165001 C25.5339272,79.0327695 25.8029718,78.5041205 25.2657319,79.9595368 C24.728492,81.4149531 24.5939697,82.7383326 24.191252,85.5164591 C23.9690864,87.0480182 23.1320589,90.1004263 21.6521438,92.4452916 C20.4468785,94.3540507 18.5630569,95.731818 18.2846705,95.9393282 C17.6631843,96.4030466 14.119558,97.2923282 12.7764073,96.6304711 C11.8534349,96.1754547 8.89902313,94.5880017 6.27182999,90.5857324 C5.0631676,88.7410672 3.39284917,84.9709081 2.97333326,82.4735898 C1.63063945,74.5351532 1.22744116,69.7716227 5.52494254,64.8760555 C9.82199551,59.9809903 11.1651462,59.3196353 13.1795326,57.7315128 C15.1934773,56.1435578 16.536628,55.3499986 17.6112098,54.952717 C18.68518,54.5561048 21.1023349,53.8947497 23.1167722,55.2174598 C25.1312096,56.5408394 27.7496384,58.7816149 29.4287891,59.8482842 C31.7112519,61.3038679 34.3971117,62.8918229 34.3971117,62.8918229" id="path18" fill="#FFFFFF"></path>
                        <path d="M78.9869853,92.0091855 C78.9869853,92.0122605 78.9859853,92.0173855 78.9859853,92.0214855 L78.9869853,92.0091855 Z M92.5528639,109.684536 L92.5528639,107.676373 L92.5528639,109.684536 C91.9648385,109.684703 91.3261973,109.602871 90.6004224,109.43452 L90.1537132,109.331434 C88.775709,109.014646 88.1467494,108.869891 87.5633099,107.939944 C87.5580445,107.931577 87.5524394,107.922205 87.5456454,107.911997 L87.5456454,107.911997 C87.5453057,107.911997 87.5254331,107.887732 87.477535,107.840708 C86.850104,107.222863 85.6640318,106.389475 85.0493397,106.02583 C83.9843716,105.396438 80.398809,101.749614 79.3477687,100.325826 L79.3357093,100.309593 C78.9250086,99.7528302 78.522291,99.2067771 78.1504864,98.6762873 C77.6152847,100.940157 76.7363038,103.00321 75.2497646,104.334789 C74.025306,105.43225 72.6663251,105.989181 71.2106989,105.989348 C69.8887456,105.989348 68.8616543,105.51174 68.3682361,105.28214 C68.3216968,105.260552 68.2811023,105.24114 68.2464526,105.226246 C66.7712934,104.611581 65.2514633,103.032161 63.6003381,100.397953 C62.6620791,98.9012016 61.9665377,97.5145649 61.7567713,97.0858221 C61.0109539,95.936316 60.5853063,94.641218 60.3344359,93.4502099 C60.0093403,93.8677405 59.6514635,94.2872793 59.2674295,94.6889119 C57.4330347,96.6078792 55.4666653,97.6223363 53.5809753,97.6223363 C53.2952853,97.6223363 53.008746,97.5990751 52.7291707,97.5532221 C51.7946484,97.3989282 50.1292556,96.7886139 49.4529075,94.4305283 C49.1410603,93.3434426 49.1436081,92.2397895 49.1451368,91.5802753 L49.1451368,91.56421 C48.1722281,92.0744508 46.9647547,92.5090507 45.6069628,92.5092181 C45.1735021,92.5092181 44.7397016,92.4647038 44.3172813,92.3771814 C42.4445,91.9884344 40.1115914,90.7336671 39.6341391,86.9628386 C39.4861986,85.7994428 39.2952856,80.1474674 40.3964321,77.0471981 C40.6687039,76.2807491 40.8686189,75.6470063 41.0279395,75.1044675 C39.6081519,75.712941 37.8406785,76.2313818 35.9391923,76.2315491 C34.5805512,76.2317165 33.2862837,75.9664716 32.0920586,75.4435124 C31.1784281,75.0437206 30.2627593,74.6559777 29.3773241,74.2811206 C26.7081097,73.1513614 24.1870058,72.0843574 22.0682797,70.832435 C21.8087468,70.6789778 21.5580462,70.5265248 21.3158381,70.3792595 C20.8368572,70.0879085 20.2247129,69.7157289 19.8182585,69.5303085 C19.7481099,69.6795819 19.6601269,69.8998105 19.5631418,70.217435 C19.4408488,70.6187329 19.5782585,71.6668268 19.7163477,72.4945247 C19.9500632,72.3648308 20.211974,72.2425002 20.5058169,72.1312145 C21.0216555,71.9357533 21.5706152,71.8365166 22.13656,71.8365166 C23.3988954,71.8365166 24.6899357,72.346088 25.6786405,73.2347002 C26.724925,74.1750226 27.3484494,75.4381573 27.4340545,76.791492 C27.4719314,77.3884185 27.5193199,77.7314797 27.5575365,78.0072674 C27.7044579,79.0695858 27.6112095,79.4809245 27.1813157,80.6459939 C26.7918465,81.700949 26.6486618,82.7098836 26.3634813,84.720055 C26.3159229,85.0549162 26.2651373,85.4135407 26.2090864,85.8002795 C25.9831841,87.357108 25.1339272,90.7314916 23.3829294,93.5057691 C22.1825897,95.4069976 20.455371,96.8413282 19.5325685,97.5274506 L19.5142246,97.5411731 C18.49087,98.3042751 15.8359232,98.8750955 14.1461568,98.8750955 C13.2235241,98.8750955 12.4771802,98.7284996 11.8645093,98.4264384 C10.2780634,97.6444261 7.21975354,95.7276343 4.56023768,91.6761651 C3.19711245,89.595708 1.43471419,85.6120142 0.962381292,82.8015898 C0.336783006,79.1022184 -0.199906577,75.5171451 0.104896473,72.3444145 C0.426087463,69.0013248 1.65863775,66.2106473 3.98335447,63.5623821 C7.67342656,59.3586271 9.33280656,58.1108883 10.9374265,56.9041496 C11.2655284,56.6573129 11.5753033,56.4243659 11.9062417,56.1634721 C13.9643648,54.5407088 15.5030484,53.5873334 16.8951673,53.0727415 C17.6964751,52.7765375 18.9433541,52.4239375 20.3352861,52.4239375 C21.7966874,52.4239375 23.1128657,52.8014721 24.2471332,53.5465007 C25.3199144,54.2511986 26.5088741,55.1660843 27.658598,56.0506802 C28.7458167,56.8872476 29.7725683,57.6772924 30.5333326,58.1605904 C32.3427593,59.3144475 34.434479,60.567876 35.1718038,61.0069944 C35.6336297,61.1189495 36.0326106,61.2439577 36.3724832,61.3532352 C36.5481095,60.3089903 36.608067,58.4685087 36.2019524,57.1073088 C35.797876,55.7534721 35.1840331,54.4160354 34.6895957,53.4765497 C34.2021223,53.8117456 33.5449673,54.0702966 32.6282794,54.070464 C32.4428017,54.070464 32.2520586,54.0605905 32.0451797,54.0401742 C30.7276425,53.9104803 29.5874303,52.9791946 28.6568146,51.2724232 C28.0789802,50.2124477 27.6394048,48.9394396 27.5369844,48.0297417 L27.5201692,47.882811 C27.3659441,46.5411907 26.9562626,42.977203 28.3060715,39.0875582 L28.4074728,38.7950358 L28.5936299,38.5461909 C30.4329504,36.0861909 33.8566446,31.5072441 38.8946062,31.5072441 C38.9847973,31.5072441 39.0751583,31.5087502 39.1661986,31.5119298 C43.8034809,31.6635461 48.0208905,34.5999828 51.0405083,39.7800398 C53.4629286,43.9350969 54.9465804,49.3169743 55.1979604,54.7611048 C55.4097651,54.6893129 55.6254763,54.6283986 55.844075,54.5803701 C55.9711239,54.5525905 56.0949455,54.5248109 56.2160496,54.4977007 C56.9943086,54.3231578 57.7292555,54.1583211 58.4951153,54.1583211 C58.9951578,54.1583211 59.4500197,54.2279374 59.8858584,54.3711864 C60.0281938,54.4180435 60.1610176,54.4627252 60.2863679,54.5100844 C60.4647119,53.9257089 60.690784,53.2118068 60.9773233,52.3357456 C61.570784,50.5215375 62.3417394,48.283607 62.6046693,47.6788151 C63.1585547,46.4069784 64.7199984,44.2927173 66.0755822,43.2908112 C66.326113,43.1058928 66.4963041,42.9142806 66.7322276,42.649203 C67.2005079,42.1228969 67.8416968,41.4019663 69.139701,40.8202684 C70.0645418,40.4060847 70.906495,40.2049337 71.7148177,40.2049337 C72.6868772,40.2049337 73.5898071,40.4823949 74.5566011,41.0779826 C74.6948601,41.1631622 74.7966011,41.2031582 74.9374079,41.2587173 C75.3177051,41.4084928 76.2085756,41.7594194 76.5584694,42.8374683 C76.7650087,43.4740561 76.6856881,44.0907295 76.5603378,44.8305703 C76.478979,45.3115254 76.1678113,47.3988437 75.8072168,49.8160028 C74.8657306,56.1288312 74.326962,59.6719005 74.0027158,61.674876 C75.6728644,61.8879087 78.5467496,62.8908188 79.8245415,64.6213535 C80.1968557,65.1257371 80.5516753,65.4987535 80.8951148,65.8595535 C81.3081933,66.2936514 81.7309534,66.7379575 82.0506137,67.2968963 C82.2522272,67.2018432 82.4745627,67.1158269 82.7194884,67.04688 C83.034223,66.9583534 83.3785117,66.9131698 83.7414841,66.9131698 C85.1447962,66.9131698 87.1347749,67.6397901 88.5177048,69.2190432 C88.608915,69.1032391 88.7092971,68.9902799 88.8197005,68.8813371 C88.9678109,68.7355779 89.0481506,68.6130799 89.1701039,68.4273248 C89.4953693,67.9319779 89.987089,67.1832677 91.2913778,66.7008065 C91.8770253,66.4844269 92.779106,66.1972596 93.8571526,66.1972596 C95.2506133,66.1972596 97.2592757,66.686582 98.9149869,69.0173901 C99.3425028,69.6210105 99.6568977,69.9160432 99.9609317,70.201537 C100.215199,70.4400064 100.503437,70.710439 100.753458,71.0796064 L100.758214,71.0864676 L100.7628,71.0934962 C100.80883,71.1626105 100.851462,71.2315574 100.891208,71.3001696 C101.301229,71.1147492 101.798384,70.9671492 102.378256,70.9671492 C103.17469,70.9671492 103.95142,71.2335656 104.822078,71.8057247 C105.164329,72.030639 105.465645,72.2125451 105.732651,72.3731982 C106.150486,71.7001288 106.721016,71.0332513 107.498766,70.5022595 C108.424796,69.8708595 109.545475,69.537337 110.740549,69.537337 C112.114817,69.537337 113.1735,69.9639044 113.371887,70.0492513 L113.581653,70.139786 L113.765942,70.2739982 C114.387428,70.7265044 114.91108,71.1219452 115.352863,71.4673492 C115.816218,69.3639656 117.026749,68.2901003 118.010358,67.7515779 C118.729339,67.3581453 119.610867,67.1588351 120.631165,67.1588351 C122.020209,67.1588351 123.575368,67.5380432 124.690103,68.1483575 C124.950145,68.2907697 125.18454,68.4139371 125.411292,68.5332554 C125.831334,68.7541534 126.222162,68.9596554 126.622672,69.2078309 C126.959657,67.8695575 127.577916,66.6424024 128.706579,65.7154677 C129.747767,64.8608269 130.927385,63.8927249 133.125602,63.8927249 C134.13282,63.8927249 135.322629,64.0871821 136.983436,64.5236229 C138.734943,64.9839943 140.056557,65.6307902 141.035071,66.2775861 C140.325771,64.5214474 140.091377,62.8056392 140.356515,61.2382679 C140.675326,59.3541087 141.17299,58.1450271 141.970782,57.3183333 C142.866238,56.3905619 143.903011,56.1835537 144.660039,56.0324394 C144.951164,55.9742027 145.202714,55.9241659 145.440846,55.8403251 C146.039062,55.62997 146.703011,55.52337 147.414519,55.52337 C147.458001,55.52337 147.501313,55.5237047 147.544455,55.5245415 C147.5504,55.4571007 147.557533,55.3893251 147.565686,55.3210476 C147.757788,53.7118395 148.507342,52.2681375 148.937066,51.5507212 C150.372141,49.1584967 153.517279,48.2762437 155.908107,47.9579498 C155.735198,46.9419866 155.752523,45.9635091 155.96161,45.0310519 C156.411546,43.0218846 157.728404,41.2632357 159.875495,39.8041378 C162.808828,37.8088603 167.420293,36.7969134 173.581312,36.7969134 C176.706577,36.7969134 179.040335,37.0705256 179.138849,37.0822399 L179.892989,37.1719378 L180.404242,37.7263582 L186.982586,44.8715703 L190.080675,48.2350763 C190.160505,48.2963253 190.238636,48.3560682 190.313371,48.4143049 C190.758382,48.7566967 191.218679,49.1108029 191.432692,49.2272763 C192.92059,50.04326 196.339698,52.7408926 197.832691,54.6555088 C199.13715,56.326468 200.129082,59.0065291 199.398721,61.2255495 C199.040335,62.3158148 198.133328,63.7549984 195.855621,64.4200351 C194.935027,64.6889616 194.03991,64.8253494 193.199146,64.8253494 C191.123562,64.8253494 189.759656,64.0291127 188.857745,63.5021372 C188.677702,63.3967086 188.433116,63.254129 188.331205,63.2127943 C188.191927,63.1779862 187.952437,63.1418392 187.636513,63.1048556 C188.66921,64.3956025 189.314645,66.2054596 189.117617,68.9852595 C188.956259,71.2462839 188.003392,73.2035737 186.36093,74.6467736 C184.991927,75.8491614 183.152437,76.6571124 181.18386,76.9215205 C180.407639,77.0257777 179.52611,77.078492 178.563053,77.078492 C176.441609,77.0786593 174.007639,76.817096 172.329507,76.4290185 C172.34989,76.4690144 172.370272,76.5086756 172.390654,76.5475001 C172.818679,77.3912634 172.92059,77.9925409 172.988531,78.3903246 C173.00042,78.453247 173.014008,78.5367531 173.022501,78.5750756 C173.036089,78.5971654 173.078552,78.6597531 173.175367,78.7698674 C173.284072,78.8910266 173.391078,79.0093409 173.498085,79.1248103 C173.970272,79.6410756 174.459444,80.1749123 174.777066,80.8248878 C175.312098,81.9208428 175.216981,83.0619816 174.508701,84.0376142 C173.67473,85.1889611 171.405516,86.3570427 169.497575,87.1864141 C169.90403,88.2288182 170.153711,89.4658467 169.871758,90.7145896 L169.853074,90.797761 C169.682374,91.5568467 169.521185,92.273761 168.871673,92.8700181 C168.064539,93.6110303 167.065474,93.6110303 166.404242,93.6110303 C164.898,93.6110303 163.971631,93.2781773 162.569168,92.774463 L162.350569,92.6959773 C161.775283,92.4898059 160.982077,92.2494957 160.215028,92.0168834 C159.85868,91.9089446 159.534603,91.8103773 159.240081,91.7186712 C159.495877,93.3723936 159.171631,94.8979282 158.283138,96.1767935 C156.678213,98.4885241 153.981992,99.8149159 150.886281,99.8150832 C149.660803,99.8150832 148.422756,99.6048955 147.206111,99.1902098 C146.351589,98.8985241 145.492141,98.6816424 144.582247,98.4517077 C142.685007,97.9725935 140.603648,97.4469567 138.37333,96.1466711 C138.410018,97.9930098 138.425135,99.8723159 138.214519,100.996385 C138.164073,101.540932 137.992353,102.66634 137.66505,103.75761 C136.735113,106.858548 135.113542,107.51003 133.917109,107.510197 C133.423351,107.510197 132.93316,107.392552 132.460124,107.160275 C131.464625,106.669948 130.284328,105.875385 129.303606,105.065426 C129.222077,105.492663 129.076515,105.926091 128.840252,106.353328 C128.699615,106.607026 128.607555,106.804997 128.518383,106.996777 C128.292311,107.483087 128.011037,108.088214 127.29919,108.566659 C126.719317,108.956075 126.043139,109.125932 125.21953,109.307503 C124.832948,109.392683 124.447385,109.435691 124.072863,109.435691 C122.348362,109.435691 121.180294,108.515618 120.681611,108.122854 C120.513797,107.990483 120.066239,107.691936 119.633458,107.403263 C118.794732,106.844157 117.795156,106.177279 117.039148,105.556589 C116.508362,106.372908 115.657067,107.155422 114.344965,107.640393 C113.046112,108.120344 112.236091,108.364001 111.412821,108.364001 C110.284668,108.364001 109.480592,107.88472 108.779785,107.366781 C107.412312,106.356173 103.495369,101.879642 102.166792,100.047193 C101.80297,99.54532 101.382758,98.9418669 100.952014,98.3054465 C100.752439,99.6944261 100.235242,100.626214 99.6813563,101.245397 C100.124329,104.188193 98.3746897,106.262291 96.9649233,107.224536 C96.1639042,108.381071 94.8618235,109.684536 92.5528639,109.684536 L92.5528639,109.684536 Z M92.5528639,107.676373 C93.8799127,107.676373 94.6899339,107.056185 95.4992757,105.76025 C95.4992757,105.76025 98.7223755,104.040259 97.3798702,100.467402 C97.3798702,100.467402 98.8568977,100.070622 98.9910803,97.4245323 C99.1672162,93.992414 97.3798702,90.2794875 97.5138829,89.4859284 C97.5473436,89.2874549 97.6061122,89.2047855 97.6816961,89.2047855 C97.9082778,89.2047855 98.2858574,89.94881 98.5878532,90.5447324 C98.9910803,91.3381242 99.5278107,92.0001487 100.065051,93.0582834 C100.60229,94.1169201 102.482715,97.0277527 103.82522,98.8799485 C105.168575,100.732479 108.928065,104.966189 110.002715,105.76025 C110.539955,106.157197 110.909212,106.355838 111.412821,106.355838 C111.91643,106.355838 112.554392,106.157197 113.628872,105.76025 C115.776982,104.966189 115.776982,103.113491 115.776982,103.113491 C115.776982,103.113491 115.911505,102.716712 116.314222,102.188063 C116.314222,102.188063 116.985984,102.716712 117.925942,103.643479 C118.865899,104.568908 121.283054,106.024826 121.954307,106.554312 C122.497831,106.982385 123.146324,107.427528 124.072863,107.427528 C124.290782,107.427528 124.523988,107.402928 124.774689,107.347703 C126.677364,106.928332 126.244243,106.847503 127.050697,105.392087 C127.855963,103.936671 126.788617,102.055357 126.923818,100.99672 C126.993627,100.442802 127.026748,100.251189 127.119657,100.251189 C127.204243,100.251189 127.338256,100.410504 127.594562,100.59994 C128.131801,100.99672 128.669041,101.526038 129.474816,102.452136 C130.280761,103.378234 132.026663,104.701614 133.369169,105.362969 C133.563818,105.458524 133.746069,105.502034 133.916769,105.502034 C135.702587,105.501532 136.214349,100.725953 136.191759,100.725953 C136.191249,100.725953 136.19074,100.727626 136.18989,100.730973 C136.189721,100.731475 136.189721,100.732144 136.189551,100.732479 C136.189721,100.731977 136.189721,100.731475 136.18989,100.730973 C136.458086,99.5384587 136.323563,96.2333568 136.323563,95.4397976 C136.323563,94.6457364 135.920336,94.1169201 135.115071,93.3228589 C134.308617,92.5287977 132.026663,88.8240712 130.011547,86.0457774 C130.011547,86.0457774 130.011547,85.7542591 130.3504,85.7542591 C130.406791,85.7542591 130.472693,85.7622917 130.549296,85.7812019 C131.086026,85.9132387 131.488914,86.9718754 132.026663,87.8979733 C132.563394,88.8240712 133.235156,89.4859284 137.129508,92.7935405 C141.023861,96.1011527 144.380973,96.1011527 147.872608,97.2923282 C148.891716,97.6397404 149.910485,97.80692 150.886111,97.80692 C153.25333,97.8067527 155.365262,96.8227527 156.6011,95.0423486 C158.347342,92.5287977 156.198383,89.3533896 156.198383,89.3533896 L156.6011,88.5599978 C156.6011,88.5599978 157.406875,88.8240712 158.21282,89.2206835 C159.018255,89.6179651 161.570612,90.2794875 163.04713,90.8088059 C164.524497,91.3381242 165.196259,91.6028671 166.404242,91.6028671 C167.613244,91.6028671 167.613244,91.4708304 167.881949,90.2794875 C168.149975,89.0893161 167.613244,87.7654345 167.076684,86.8398386 C166.538764,85.9132387 167.344709,85.9132387 168.283987,85.5164591 C169.224624,85.1198469 172.17834,83.7962999 172.850951,82.8703694 C173.521864,81.9437694 172.580887,81.1502102 171.641609,80.0915735 C170.702331,79.0327695 171.239062,78.768696 170.568149,77.4459858 C169.895537,76.1226063 168.283987,74.0056675 168.283987,74.0056675 C168.283987,74.0056675 168.821737,73.9395655 169.5611,73.9395655 C170.299783,73.9395655 171.239062,74.0056675 172.045856,74.2699083 C173.26369,74.6705369 176.015282,75.0704961 178.563053,75.0703287 C179.385134,75.0703287 180.186832,75.0286593 180.9087,74.9319328 C183.862416,74.5351532 186.816131,72.5999533 187.084496,68.8455248 C187.487044,63.1563984 183.862416,63.0233576 180.236089,60.6423454 C180.236089,60.6423454 187.757108,60.9070883 188.96645,61.3038679 C189.910823,61.6147985 191.021651,62.8171862 193.199146,62.8171862 C193.802118,62.8171862 194.488318,62.724476 195.276428,62.4945413 C198.902755,61.4364066 197.559231,57.5989741 196.217405,55.8794843 C194.875579,54.1593252 191.6518,51.6451048 190.442458,50.9832477 C189.234815,50.3223947 186.816131,47.8083417 182.518891,46.0881825 L185.474305,46.2207213 L178.894263,39.0758439 C178.894263,39.0758439 176.619953,38.8050766 173.581312,38.8050766 C169.575197,38.8050766 164.239996,39.2754888 161.032692,41.4571908 C157.382416,43.9379418 157.272862,46.8822437 158.615707,49.7930763 C158.615707,49.7930763 158.572735,49.7920722 158.492565,49.7920722 C157.614433,49.7920722 152.29282,49.9036926 150.69231,52.5712028 C149.676939,54.2665946 148.812565,56.937619 150.558807,58.2608312 C150.558807,58.2608312 148.995835,57.5315333 147.414519,57.5315333 C146.975453,57.5315333 146.535028,57.5877618 146.126026,57.7315128 C144.339359,58.3600679 143.038298,57.5989741 142.367045,61.5684434 C141.695623,65.5374106 145.455453,69.5068799 145.455453,69.5068799 L141.695623,69.639586 C141.695623,69.639586 140.486451,67.5226473 136.458086,66.4640106 C134.97919,66.075431 133.935113,65.9008881 133.125602,65.9008881 C131.729763,65.9008881 131.032014,66.4205004 130.011547,67.2580718 C128.401016,68.580782 128.265814,71.0950023 128.265814,73.4763492 C128.265814,73.4763492 127.460379,72.4177125 126.520591,71.6243207 C125.580124,70.8302595 124.909211,70.565684 123.700039,69.9036595 C122.928744,69.4812758 121.719402,69.1669983 120.631165,69.1669983 C120.014944,69.1669983 119.437279,69.2677411 119.000422,69.5068799 C117.79142,70.1689044 117.388702,71.3590758 117.254689,72.4177125 C117.120676,73.4763492 117.388702,75.3285451 117.254689,75.8578634 C117.226834,75.967643 117.176048,76.0148348 117.109127,76.0148348 C116.8535,76.0148348 116.364838,75.3240267 116.045517,74.7997287 C115.64297,74.1378716 112.554392,71.8890635 112.554392,71.8890635 C112.554392,71.8890635 111.758129,71.5455003 110.740549,71.5455003 C110.087301,71.5455003 109.342333,71.6872431 108.65953,72.153137 C106.914307,73.3443125 106.645602,75.7253246 106.645602,75.7253246 C106.645602,75.7253246 106.376388,75.5932879 105.97384,75.0639696 C105.571123,74.5351532 104.89936,74.2699083 103.691208,73.4763492 C103.145475,73.117892 102.736813,72.9753125 102.378256,72.9753125 C101.942588,72.9753125 101.581314,73.1861696 101.13953,73.4763492 C100.611632,73.8195777 100.489339,74.2960145 100.265135,74.2960145 C100.154392,74.2960145 100.018681,74.1797083 99.7968553,73.8731288 C99.4440739,73.3853125 99.4106132,72.7239574 99.0583415,72.194639 C98.738851,71.722888 98.1348595,71.4253452 97.245178,70.1689044 C96.1462396,68.6221167 94.9097216,68.2054228 93.8571526,68.2054228 C93.1089573,68.2054228 92.4538406,68.4161126 92.007641,68.580782 C90.9338406,68.9780636 91.0678533,69.5068799 90.2619086,70.3004391 C89.4564733,71.0950023 89.7246687,72.6824553 89.7246687,73.4763492 C89.7246687,73.8865165 89.5813141,74.1552757 89.3686602,74.1552757 C89.1695944,74.1552757 88.9100615,73.9199859 88.6506984,73.3443125 C88.1134585,72.153137 88.3819935,72.5504186 87.3075137,70.9622962 C86.3869193,69.6017656 84.7751996,68.921333 83.7414841,68.921333 C83.569085,68.921333 83.4128217,68.9402432 83.2786391,68.9780636 C82.3386816,69.2423044 81.935964,70.0361982 81.2640319,70.1689044 C81.206792,70.1801166 81.1553271,70.1856391 81.1091275,70.1856391 C80.6133313,70.1856391 80.7043717,69.5604309 80.4587666,68.7134881 C80.1902315,67.7868881 79.2501042,67.2580718 78.1763038,65.8026555 C77.2249662,64.5140841 74.4849238,63.6401984 73.4026309,63.6401984 C73.2623336,63.6401984 73.149892,63.6549249 73.0727795,63.6852147 C72.4015269,63.9499576 71.4608899,64.6118147 71.4608899,64.6118147 C71.4608899,64.6118147 71.3268772,64.3472392 71.5955821,63.553178 C71.864287,62.7591168 74.281272,46.0881825 74.5499769,44.5002275 C74.8186818,42.9127744 74.5499769,43.4420928 73.4760067,42.7807377 C72.8854334,42.4169255 72.3356245,42.2130969 71.7148177,42.2130969 C71.205943,42.2130969 70.6491702,42.3499867 69.9838624,42.6480316 C68.5071745,43.3100561 68.3724824,44.1034479 67.298682,44.8975091 C66.2240323,45.6914029 64.881527,47.5437662 64.4782999,48.4696967 C64.0755823,49.3957947 61.6584273,56.5408394 61.6584273,57.3347333 C61.6584273,57.7467414 61.5497225,57.9805251 61.3324825,57.9805251 C61.1313785,57.9805251 60.8370261,57.7800435 60.4499348,57.3347333 C59.64399,56.4081333 60.0467076,56.5408394 59.2407629,56.2760966 C59.0048393,56.1986149 58.7575357,56.1664843 58.4951153,56.1664843 C57.8617395,56.1664843 57.14123,56.3537455 56.286368,56.5408394 C55.0777056,56.8054149 53.8692131,57.7315128 53.0639477,58.3930353 C53.0238628,58.4260026 52.9929498,58.4412312 52.9695104,58.4412312 C52.7534594,58.4412312 53.1979605,57.1248802 53.1979605,56.4081333 C53.1979605,44.9798438 47.4320158,33.7916971 39.0977485,33.5189216 C39.0298079,33.5165788 38.9620372,33.5154073 38.8946062,33.5154073 C34.9695108,33.5154073 32.0827168,37.2656521 30.234564,39.737199 C28.9834388,43.3428561 29.4287891,46.6175009 29.5628018,47.8083417 C29.6968145,48.9990151 30.9059865,51.9098477 32.2484918,52.0418844 C32.3874302,52.0556069 32.5132901,52.0623007 32.6282794,52.0621334 C33.6251372,52.0621334 33.7951584,51.5631048 34.3971117,50.851211 C34.6535872,50.5481457 34.8317613,50.4186191 34.9839482,50.4186191 C35.2300628,50.4186191 35.4080671,50.7578314 35.7401265,51.2484926 C36.2773664,52.0418844 37.4860288,54.2913619 38.1572814,56.5408394 C38.8285341,58.7903169 38.5605086,62.2297984 37.8887464,63.1563984 C37.6601264,63.4720147 37.4002538,63.5878188 37.0828016,63.5878188 C36.4679396,63.5876515 35.6368569,63.1533862 34.3971117,62.8918229 C34.3971117,62.8918229 31.7112519,61.3038679 29.4287891,59.8484516 C27.7496384,58.7816149 25.1312096,56.5408394 23.1167722,55.2174598 C22.2179188,54.6272272 21.2392351,54.4321007 20.3352861,54.4321007 C19.2130781,54.4321007 18.2060293,54.7329905 17.6112098,54.952717 C16.536696,55.3499986 15.1934773,56.1435578 13.1795326,57.7315128 C11.1651462,59.3196353 9.82199551,59.9809903 5.52494254,64.8760555 C1.22744116,69.7716227 1.63063945,74.5351532 2.97319738,82.4735898 C3.39284917,84.9709081 5.0631676,88.7410672 6.27182999,90.5857324 C8.89902313,94.5880017 11.8534349,96.1754547 12.7763394,96.6304711 C13.118437,96.7991568 13.6031079,96.8669323 14.1461058,96.8669323 C15.7348786,96.8669323 17.8214858,96.2848996 18.2846705,95.9394956 C18.5630569,95.7319854 20.4468785,94.3540507 21.6521438,92.4452916 C23.1320589,90.1004263 23.9690864,87.0478509 24.191252,85.5164591 C24.5939697,82.7383326 24.728492,81.4149531 25.2657319,79.9595368 C25.8029718,78.5041205 25.5339272,79.0327695 25.3997446,76.9165001 C25.2879824,75.1504879 23.6801693,73.8446798 22.13656,73.8446798 C21.8299782,73.8446798 21.5261141,73.8962226 21.2368572,74.0056675 C19.4911248,74.6666879 19.7596598,75.7253246 18.9538849,76.3871818 C18.821231,76.4961246 18.710318,76.5439858 18.6172394,76.5439858 C18.1443732,76.5439858 18.1258594,75.3087981 18.0139274,74.5351532 C17.8797448,73.6085533 17.2079826,70.9622962 17.6112098,69.639586 C18.1124412,67.9964065 18.7422501,67.4115289 19.5337575,67.4115289 C20.4791502,67.4115289 21.6550313,68.2462554 23.1167722,69.1102677 C25.8029718,70.6977207 29.2942668,72.0211002 32.9197444,73.6085533 C33.9220374,74.0473369 34.9440331,74.2235532 35.9390225,74.2233859 C38.5442029,74.2232186 40.959999,73.015141 42.3203386,72.153137 C44.2005934,70.9622962 44.8720159,70.6977207 44.8720159,70.6977207 C44.8720159,70.6977207 44.2005934,72.0211002 43.7975361,72.9470308 C43.3948184,73.8731288 43.2602962,75.0639696 42.3203386,77.7105613 C41.3803811,80.3568184 41.5220372,85.6561938 41.6567293,86.7141611 C41.7907421,87.7729652 42.1863259,89.882708 44.7374936,90.4120263 C45.0332048,90.4734426 45.323311,90.5010549 45.6067929,90.5010549 C47.7690009,90.5008875 49.5315487,88.895361 50.2435656,88.4272917 C50.6464531,88.1627162 50.8142662,88.0303447 50.9149881,88.0303447 C51.01571,88.0303447 51.0491707,88.1627162 51.1835231,88.4272917 C51.4520582,88.95661 51.1835231,90.4120263 51.1835231,91.4708304 C51.1835231,92.5287977 51.1079393,95.2495241 53.0639477,95.5723364 C53.2363469,95.600618 53.4089159,95.6141731 53.5809753,95.6141731 C56.6240326,95.6141731 59.5453064,91.3858181 60.1807204,89.882708 C60.8524826,88.2947529 60.8524826,88.0305121 61.523905,87.7654345 C61.5887883,87.7398305 61.6438201,87.7279488 61.6901895,87.7279488 C62.1226311,87.7279488 61.8055186,88.7688468 61.9271322,89.4859284 C62.0611449,90.2794875 61.9271322,93.7196385 63.5383424,96.1011527 C63.5383424,96.1011527 66.4927372,102.319597 69.0439049,103.378234 C69.4007626,103.528512 70.1883634,103.981185 71.210529,103.981185 C71.992185,103.981018 72.911081,103.716275 73.8787243,102.848748 C76.8331191,100.202659 76.8331191,92.6610018 76.9671318,91.7349038 C77.0269195,91.3240671 77.1656881,91.1476834 77.3251785,91.1476834 C77.5252635,91.1476834 77.75779,91.4256467 77.9070893,91.8674426 C78.1763038,92.6610018 78.0416116,94.1169201 78.4448388,95.1750548 C78.8475564,96.2336915 79.9220362,97.6886057 80.9960065,99.1445241 C82.0704863,100.59994 85.4275987,103.907553 86.0990212,104.304332 C86.7702738,104.701614 88.1134585,105.627544 88.9192334,106.421103 C89.7246687,107.215165 88.7847112,106.950924 91.0678533,107.47974 C91.6302313,107.610271 92.1190635,107.67654 92.5528639,107.676373 L92.5528639,107.676373 Z" id="path20" fill="#3067BA"></path>
                        <path d="M15.0594476,93.0582834 C12.6423097,93.7196385 9.28470465,90.8088059 7.27082784,86.7072999 C5.25637354,82.6056265 3.10782158,73.2111043 7.27082784,67.1253657 C11.4337832,61.039125 14.5222247,60.2455658 16.536628,58.525574 C18.5511673,56.8054149 22.311337,57.8635496 23.2512945,59.0543904 C23.6458593,59.5509087 25.4080673,60.6008434 27.3973666,61.8579536 C30.1756256,63.6109127 33.5325682,65.6284473 35.3375787,65.9346922 C38.4259863,66.4640106 40.1718886,66.5960473 40.8431412,61.5684434 C41.5149034,56.5408394 38.9632262,50.7191742 37.2174938,48.4696967 C35.4715915,46.2207213 33.5916764,43.5741295 33.0544365,45.1620846 C32.5171966,46.7495376 33.7586403,46.4590233 33.1884493,47.1468192 C32.2260714,48.3080396 31.2040757,47.4703009 31.0700629,46.676407 C30.9355406,45.8823458 30.9355406,43.2360887 31.7413156,41.6486357 C32.5472603,40.0606806 34.8084917,38.4305541 35.8741392,37.6204276 C37.6207209,36.2970481 41.3803811,34.9741706 45.1407207,41.5893949 C48.9003809,48.2051212 51.9892981,56.2760966 47.5578757,62.7591168 C43.1262834,69.2423044 35.3205936,72.6742553 28.8915492,68.8455248 C23.1167722,65.4053739 18.1396174,61.7339495 15.8653075,64.6118147 C13.9849338,66.9928269 13.8509211,68.580782 14.119558,72.153137 C14.388195,75.7253246 16.2680421,80.6208919 16.9398212,81.9437694 C17.6112098,83.267651 18.1479401,83.9290061 18.68518,82.7383326 C19.2224199,81.5469898 19.3569422,79.5627572 20.5656046,78.1073409 C21.7740971,76.6519246 22.8485769,77.0487042 22.7140546,77.8427654 C22.4874729,79.1741776 21.3715494,82.7383326 21.5055621,84.4578224 C21.6395748,86.1784836 21.1023349,88.8240712 18.1479401,90.941512 C15.9911673,92.4872956 15.0594476,93.0582834 15.0594476,93.0582834" id="path22" fill="#1A67BB"></path>
                        <path d="M179.833541,52.9684844 C179.10318,52.2490599 176.988531,50.8264436 174.763478,50.0991538 C172.884921,49.4787988 170.919741,49.4787988 169.627342,49.6605375 C166.807979,50.0578192 168.015962,50.1898559 168.015962,50.1898559 C171.239062,52.7037415 170.153711,55.7353986 170.153711,55.7353986 C173.780038,55.0740435 183.594051,56.2760966 183.594051,56.2760966 C183.05732,54.1593252 181.175367,54.2913619 179.833541,52.9684844 Z M140.755665,80.0915735 C139.949211,78.2393776 139.680676,77.1807409 139.143946,76.1226063 C138.606196,75.0639696 136.592098,74.5351532 135.517619,74.7992267 C134.443139,75.0639696 131.892141,75.4612512 135.517619,80.6208919 C139.143946,85.7812019 143.978255,86.7072999 145.992013,87.368655 C145.992013,87.368655 145.858001,86.5750958 144.783521,85.7812019 C143.70972,84.9871407 141.560931,81.9437694 140.755665,80.0915735 L140.755665,80.0915735 Z M88.6506984,88.0305121 C87.442036,84.854602 85.1588938,79.6947939 83.6818663,78.6361572 C82.204499,77.5780226 82.0704863,79.0327695 81.6672591,80.0915735 C81.2640319,81.1502102 81.5332464,84.4578224 81.935964,85.7812019 C82.3386816,87.1045815 83.6818663,89.6179651 84.8903588,90.8088059 C86.0990212,92.0001487 91.3363884,96.6304711 91.3363884,96.6304711 C91.3363884,96.6304711 89.859191,91.2055855 88.6506984,88.0305121 L88.6506984,88.0305121 Z M175.402119,68.580782 C175.402119,68.580782 176.207214,68.580782 177.684921,68.1841697 C179.162628,67.7868881 179.296811,67.7868881 177.550739,66.7287534 C175.804667,65.6699494 169.358637,63.6852147 166.136217,65.4053739 C166.136217,65.4053739 168.283987,67.7868881 175.402119,68.580782 L175.402119,68.580782 Z M191.249252,59.1869291 C191.249252,59.1869291 189.357108,60.2671536 187.34267,58.5476638 C187.34267,58.5476638 183.45817,57.7315128 182.116344,57.7315128 C180.772819,57.7315128 167.881949,57.5989741 166.807979,57.7315128 C165.733499,57.8635496 165.598977,57.7315128 164.793032,57.0701578 C163.987257,56.4081333 164.793032,55.7467782 162.50989,56.011521 C160.906832,56.2017945 160.093414,56.011521 159.152947,58.1282924 C158.21282,60.2455658 162.107172,62.7591168 162.107172,62.7591168 C162.107172,62.7591168 163.04713,63.1563984 164.121779,62.7591168 C165.196259,62.3625046 169.090442,61.5684434 171.104879,61.8331862 C172.30403,61.9899903 179.833541,62.626578 182.518891,66.4640106 C184.709974,69.6061166 181.579613,71.6241533 177.684921,72.2856757 C173.790229,72.9470308 168.821907,71.0950023 166.404242,69.9036595 C163.987257,68.7134881 158.75023,66.7287534 155.661822,66.067231 C152.573245,65.4053739 152.438722,65.8026555 152.573245,67.5226473 C152.707257,69.2423044 157.13834,72.4177125 158.615707,72.9470308 C160.093414,73.4763492 162.913117,74.1378716 164.390484,75.3285451 C165.867512,76.5193858 166.538764,77.7105613 167.076684,78.768696 C167.613244,79.8275 167.747427,80.6208919 168.149975,81.5469898 C168.553202,82.4735898 167.344709,82.7383326 166.270739,83.0024061 C165.196259,83.267651 163.853584,84.0610428 162.779104,84.3257856 C161.704624,84.5903612 161.570442,84.9871407 162.644412,85.6491652 C163.718552,86.3100183 163.449847,86.4430591 163.987257,86.9718754 C164.524497,87.5011937 164.121779,88.2947529 162.644412,88.1627162 C161.167894,88.0305121 156.198383,85.9132387 155.393117,85.1198469 C154.586663,84.3257856 152.169508,82.6056265 151.632268,80.3568184 C151.632268,80.3568184 151.76679,79.9595368 151.76679,79.4302184 C151.76679,78.9014021 150.827003,78.6361572 149.753032,78.1073409 C148.677873,77.5780226 146.260718,76.3871818 145.589466,76.254643 C144.918213,76.1226063 144.783521,76.5193858 145.455453,77.3132797 C146.126026,78.1073409 147.46972,79.9595368 149.08178,81.9437694 C150.69231,83.9290061 152.30403,86.9718754 151.364073,89.2206835 C151.364073,89.2206835 152.169508,89.7501692 153.244158,91.2055855 C154.318637,92.6610018 153.621567,95.1917895 149.215113,94.6457364 C141.695623,93.7196385 139.815198,91.7349038 137.2642,90.2794875 C134.712353,88.8240712 132.27006,84.9461407 131.220719,84.0610428 C125.898935,79.5789898 126.159487,81.0919735 126.117874,81.1502102 C125.580124,81.9437694 125.311929,82.6056265 126.251886,85.1198469 C127.191844,87.6337325 130.415283,91.3381242 131.086026,92.2642222 C131.757958,93.1903201 132.563394,94.6457364 132.832608,95.7043731 C133.100634,96.7630098 132.697406,99.0119853 132.697406,99.9380832 C132.697406,100.864181 132.697406,102.584675 132.026663,102.055357 C131.355241,101.526038 130.683309,100.732479 129.340294,99.6738424 C127.997619,98.6152057 121.417577,91.3381242 120.879827,90.8088059 C120.342927,90.2794875 118.060464,87.368655 117.79142,88.0305121 C117.522715,88.6920345 118.328659,89.3533896 118.865899,90.2794875 C119.403139,91.2055855 121.148532,94.1169201 122.08832,95.8370792 C123.028787,97.556569 123.565517,99.8060465 123.969254,100.732479 C124.371971,101.658744 124.640506,103.775014 122.760252,104.040259 C120.879827,104.304332 119.134434,102.319597 116.448235,99.6738424 C113.763564,97.0277527 107.853585,88.8240712 106.645602,87.5011937 C105.43711,86.1784836 104.765857,86.9718754 105.168575,88.4272917 C105.571123,89.882708 108.525517,93.8523446 110.405432,95.5723364 C112.285178,97.2923282 113.091632,100.467402 113.359827,101.658744 C113.628872,102.848748 112.41987,103.246197 110.136728,102.716712 C107.853585,102.188063 106.376388,98.3506302 104.765857,96.2336915 C103.749806,94.9022793 101.618172,91.3630589 100.006452,88.0634794 C99.0583415,86.1035121 98.6299763,83.9700061 97.7824179,83.1351122 C95.4992757,80.8856347 93.7535433,82.0763082 93.6195306,83.3991857 C93.4850083,84.7230673 93.8882354,89.2206835 94.9620358,92.5287977 C96.0361759,95.8370792 95.6334583,97.9533486 93.7535433,99.1445241 C93.7535433,99.1445241 93.8882354,99.4087649 94.4254753,100.335197 C94.9620358,101.261463 95.0960486,101.129426 94.2907832,103.113993 C93.4850083,105.098895 92.1423332,105.098895 89.9937132,104.436871 C87.8447536,103.775014 82.4732039,97.4245323 80.9960065,94.3816629 C79.5188091,91.3381242 79.2501042,91.8674426 78.0416116,83.0024061 C76.8331191,74.1378716 73.2073018,74.1378716 71.3268772,74.5351532 C69.2961341,74.9647328 68.3473444,77.3797164 68.0453486,78.7521286 C67.8270896,79.7692633 68.6500195,84.896104 69.447132,87.6337325 C69.7158369,88.5593284 69.9838624,88.6920345 70.6556246,87.5011937 C71.3268772,86.3100183 71.3268772,86.5750958 72.132822,86.1784836 C72.9387668,85.7812019 73.0727795,86.1784836 73.3414844,88.2947529 C73.6100194,90.4120263 73.4754971,94.1169201 73.4754971,95.4397976 C73.4754971,96.7630098 72.2675141,99.8060465 69.7158369,100.070622 C67.1639898,100.335197 65.5527797,93.5870997 63.94106,90.5447324 C62.32968,87.5011937 65.0155398,66.067231 65.2840748,64.6118147 C65.5527797,63.1563984 64.3442871,63.553178 63.94106,64.7438514 C63.5381725,65.9346922 62.8669199,70.0361982 62.32968,72.2856757 C61.7924401,74.5351532 58.0321005,87.1045815 57.0923128,88.5593284 C56.1523553,90.014912 54.6751579,91.7349038 53.8692131,91.3381242 C53.0639477,90.941512 53.4666653,90.1474508 53.8692131,87.6337325 C54.2724403,85.1198469 54.5411451,81.1502102 54.8096802,78.9014021 C55.0777056,76.6519246 54.9436929,68.1841697 54.2724403,66.8607902 C53.6006781,65.5374106 53.0639477,67.1253657 52.2580029,68.7134881 C51.4520582,70.3009411 51.720763,70.6977207 51.4520582,72.4177125 C51.1835231,74.1378716 49.840848,82.8703694 49.3036081,84.4578224 C48.7663682,86.0457774 47.4231835,87.1045815 45.4092558,87.368655 C45.4092558,87.368655 43.7975361,87.7654345 44.4687887,82.6056265 C44.9978757,78.5369205 45.6779606,75.1965083 46.7519309,71.227039 C47.8264107,67.2580718 51.4520582,63.6852147 53.4666653,61.7011495 C55.4809328,59.7162475 58.4354975,60.2455658 58.4354975,60.2455658 L58.5695102,71.6241533 C58.5695102,71.6241533 58.9727374,72.2856757 59.7780028,70.4329778 C60.5839475,68.580782 62.5983848,61.039125 63.6723551,56.8054149 C64.159319,54.878415 65.3683211,51.2484926 66.4927372,49.33806 C67.8440747,47.0557825 69.1281511,46.6009335 69.7158369,45.9556437 C70.7903167,44.7654724 70.6556246,45.4268274 70.9243294,47.0142805 C71.1928645,48.6024029 68.3724824,59.9809903 68.2384696,61.5684434 C68.1044569,63.1563984 66.7614421,72.0211002 67.0299771,72.8144921 C67.298682,73.6085533 67.7012297,72.8144921 68.1044569,71.8890635 C68.5071745,70.9622962 69.0439049,70.3009411 69.7158369,69.3748432 C70.3870895,68.4482432 71.7301044,67.1253657 73.8787243,66.9928269 C76.0271743,66.8607902 77.2358367,70.0361982 78.1763038,71.3590758 C79.1160914,72.6824553 79.3847963,76.1226063 79.9220362,77.0487042 C80.459446,77.9748021 80.5934587,76.7839613 81.1306986,75.7253246 C81.6672591,74.6666879 81.935964,74.4026145 82.7413992,73.3443125 C83.5478535,72.2856757 83.6818663,72.5504186 84.6216539,73.4763492 C85.562121,74.4026145 85.8303163,75.4612512 86.3675562,76.9165001 C86.9047961,78.3720838 89.4564733,84.0610428 90.2624181,85.1198469 C91.0678533,86.1784836 90.7991485,85.5164591 90.9338406,83.7962999 C91.0678533,82.0763082 90.7991485,80.6208919 90.7991485,79.4302184 C90.7991485,78.2393776 91.3363884,74.9319328 91.7396155,73.4763492 C92.1423332,72.0211002 92.6795731,71.6241533 95.2307407,73.3443125 C97.7824179,75.0639696 99.3936281,81.5469898 100.065051,83.1351122 C100.736983,84.7230673 100.736983,83.5322265 101.005518,82.4735898 C101.274053,81.4149531 101.13953,80.2242796 101.13953,78.768696 C101.13953,77.3132797 101.542248,76.6519246 102.750741,76.7839613 C103.959743,76.9165001 104.227938,78.2393776 105.033883,79.4302184 C105.839148,80.6208919 108.256813,84.5903612 109.330953,85.7812019 C110.405432,86.9718754 114.702842,92.9257446 115.508957,93.7196385 C116.314222,94.5136997 116.314222,93.7196385 116.314222,92.6610018 C116.314222,91.6028671 115.508957,91.0735487 114.56832,89.6179651 C113.628872,88.1627162 111.3459,83.0024061 110.405432,81.1502102 C109.465475,79.2980143 109.19728,76.7839613 110.405432,75.3285451 C111.613925,73.8731288 113.49435,76.3871818 114.56832,77.7105613 C115.64297,79.0327695 121.417577,86.0457774 124.505984,89.7501692 C124.505984,89.7501692 124.505984,88.6920345 123.834732,87.7654345 C123.163479,86.8398386 122.62556,85.5164591 121.954307,84.1937489 C121.283054,82.8703694 119.940379,79.6947939 119.806366,78.2393776 C119.671165,76.7839613 118.328659,71.3590758 122.223012,72.4177125 C126.117874,73.4763492 128.265814,78.1073409 131.757958,81.5469898 C131.757958,81.5469898 131.892141,81.5469898 132.160676,80.6208919 C132.429381,79.6947939 131.086026,77.4459858 130.683309,75.5932879 C130.280761,73.741092 130.280761,73.0797369 130.952014,70.8302595 C131.623946,68.580782 132.160676,69.3748432 134.174604,69.2423044 C136.189551,69.1102677 139.411971,71.4917819 139.949211,72.153137 C140.486451,72.8144921 140.218425,72.4177125 141.292396,72.4177125 C142.367045,72.4177125 144.112268,72.8144921 145.992013,73.3443125 C147.872608,73.8731288 151.22955,76.5193858 152.30403,77.3132797 C153.37868,78.1073409 153.37868,78.2393776 154.45316,78.2393776 C155.52713,78.2393776 155.661822,78.1073409 156.870315,77.5780226 C158.078298,77.0487042 158.884242,77.3132797 158.347342,76.3871818 C157.809593,75.4612512 156.198383,75.4612512 153.37868,73.741092 C150.558807,72.0211002 146.260718,67.3901085 145.723478,65.5374106 C145.186748,63.6852147 144.380803,62.4945413 146.529933,61.1711617 C148.677873,59.8482842 154.050612,63.0238596 155.259104,63.4206392 C156.466578,63.8179209 156.870315,64.2147004 156.6011,63.1563984 C156.332565,62.0977617 155.259104,62.0977617 153.513372,59.3189659 C151.76679,56.5408394 153.513372,54.2913619 154.855877,53.1006885 C156.198383,51.9098477 160.899189,52.439166 161.704624,52.7037415 C162.50989,52.9684844 162.376387,52.7037415 162.376387,51.6451048 C162.376387,50.5871375 160.017321,49.7187743 161.301907,45.6914029 C162.779104,41.0605786 172.861142,41.1705255 177.830993,41.4352684 L179.565176,43.7068356 C179.565176,43.7068356 176.879826,43.7068356 173.924412,43.9714111 C170.970696,44.236154 167.613244,44.7654724 167.613244,47.41106 C167.613244,47.41106 170.432268,47.0142805 173.521864,47.1468192 C176.609762,47.278856 181.311248,48.8669784 183.45817,50.0578192 C185.608488,51.2484926 191.6518,56.2760966 192.591078,57.0701578 C193.530356,57.8635496 193.127808,59.5837087 191.249252,59.1869291 L191.249252,59.1869291 Z" id="path24" fill="#1A67BB"></path>
                        <polyline id="path26" fill="#1A67BB" points="90.3964309 62.0977617 86.3675562 52.5712028 77.5043717 52.0418844 84.2184268 45.9556437 81.2640319 36.4295868 89.7246687 41.9865092 97.5138829 36.164844 95.4992757 46.4847948 103.153288 52.0418844 93.3508257 52.5712028 90.3964309 62.0977617"></polyline>
                        <path d="M37.8887464,31.2692768 C40.0667506,31.0117298 43.5643301,32.1344604 46.1921008,33.7133787" id="path28" fill="#1A67BB"></path>
                    </g>
                </g>
            </g>
        </g>
    </g>
</svg>