<?xml version="1.0" encoding="utf-8"?>
<!-- Generator: Adobe Illustrator 23.0.3, SVG Export Plug-In . SVG Version: 6.00 Build 0)  -->
<svg version="1.1" id="Layer_1" xmlns="http://www.w3.org/2000/svg" xmlns:xlink="http://www.w3.org/1999/xlink" x="0px" y="0px"
	 viewBox="0 0 200 200" style="enable-background:new 0 0 200 200;" xml:space="preserve">
<style type="text/css">
	.st0{fill:#004D43;}
	.st1{fill:#BFB07D;}
	.st2{fill-rule:evenodd;clip-rule:evenodd;fill:#BFB07D;}
</style>
<title>jacksonville</title>
<desc>Created with Sketch.</desc>
<g>
	<g id="jacksonville_BGD">
		<g id="jacksonville" transform="translate(0.000000, 39.000000)">
			<path class="st0" d="M41.5,0c0,0,6.9,6.8,6.9,24.5v64.4c0,1.7-1.4,3.1-3.1,3.1H35c-1.7,0-3.1-1.4-3.1-3.1v-2.7
				c0-18.4,7.6-25.2,7.6-25.2H0v41.2c18.1,10.2,44.3,11.9,72.4,2.2c3.6-1.2,7-2.2,10.2-2.9l0.2,0V0H41.5z"/>
			<path class="st1" d="M72.4,104.5c-28.1,9.7-54.3,7.9-72.4-2.2v14.1c24.9,12.1,53.2,3,78-12c1.7-1,3.3-1.9,4.8-2.8l-0.2,0
				C79.4,102.3,76.1,103.3,72.4,104.5z"/>
			<path class="st0" d="M147.3,0v88.9c0,1.7-1.4,3.1-3.1,3.1h-10.4c-1.7,0-3.1-1.4-3.1-3.1V0H96.5v96.3c18.6-7.1,27.6-2.3,27.6-2.3
				c-1.9,0.9-3.6,1.8-5.1,2.9c-1.9,1.8-3.1,3.7-3.4,5.6c-1.1,7.7,13.1,12.5,31.7,10.8c16-1.5,30-7.3,34.4-13.8V22.6
				c0-15.8,6.9-22.6,6.9-22.6H147.3z"/>
			<path class="st1" d="M147.3,113.3c-18.6,1.7-32.8-3.1-31.7-10.8c0.3-1.9,1.5-3.8,3.4-5.6c0,0,0,0,0,0c0,0,0,0,0,0
				c-0.2,0.1-0.4,0.3-0.6,0.4c-4.2,3.2-6.9,6.5-6.9,10.1c0,8.7,14.3,15.4,32.6,15.5c1.2,0,2.5,0,3.7-0.1
				c15.4-0.6,28.6-5.6,33.8-12.1V99.5C177.3,106,163.3,111.8,147.3,113.3z"/>
			<path id="Fill-21" class="st2" d="M199.8,109.3h-1.2v-3.6h-0.1l-1.1,2.5h-0.9l-1.1-2.6h-0.2v3.6h-1.2v-4.6h2l0.9,2.2l1-2.2h1.9
				V109.3z M193.2,105.7h-1.3v3.6h-1.2v-3.6h-1.3v-1h3.9V105.7L193.2,105.7z"/>
		</g>
	</g>
</g>
</svg>
