<?xml version="1.0" encoding="UTF-8"?>
<svg width="200px" height="200px" viewBox="0 0 200 200" version="1.1" xmlns="http://www.w3.org/2000/svg" xmlns:xlink="http://www.w3.org/1999/xlink">
    <!-- Generator: Sketch 54.1 (76490) - https://sketchapp.com -->
    <title>presbyterian</title>
    <desc>Created with Sketch.</desc>
    <g id="presbyterian" stroke="none" stroke-width="1" fill="none" fill-rule="evenodd">
        <g id="presbyterian_BGD">
            <g id="Group-7" transform="translate(1.000000, 0.000000)">
                <path d="M98.8371777,80.7758794 L106.893868,80.7758794 L106.893868,73.361809 L98.8371777,73.361809 L98.8371777,80.7758794 Z M46.3923046,80.7758794 L64.772132,80.7758794 L64.772132,70.2060302 L89.6628426,44.2331658 L106.893868,44.2331658 L106.893868,31.3065327 L46.3832589,31.320603 L46.3923046,80.7758794 Z M1.50761421,1.50753769 L118.974883,1.50753769 L142.481604,19.5788945 L142.475574,44.1638191 L172.781635,44.1638191 L195.801898,65.0090452 L195.801898,93.7055276 L162.869574,93.7055276 L162.869574,73.361809 L142.481604,73.361809 L142.481604,85.7155779 L115.821959,111.474372 L98.9145685,111.474372 L98.9145685,168.143719 L162.893695,168.143719 L162.869574,147.809045 L195.801898,147.809045 L195.801898,176.104523 L171.707208,197.876382 L89.6628426,197.876382 L64.772132,176.145729 L64.772132,111.474372 L46.4686904,111.474372 L46.4686904,128.121608 L58.1074721,128.121608 L58.1868731,157.526633 L1.50761421,157.526633 L1.50861929,128.121608 L13.1514213,128.121608 L13.054934,31.3065327 L1.50861929,31.3135678 L1.50761421,1.50753769 Z" id="Fill-1" fill="#005DA9"></path>
                <path d="M0.00180913706,0 L0.00180913706,32.8211055 L11.5481239,32.8150754 L11.642601,126.61407 L0.00180913706,126.61407 L-0.000201015228,159.034171 L59.6983066,159.034171 L59.6118701,126.61407 L47.9761036,126.61407 L47.9761036,112.98191 L63.2643168,112.98191 L63.2643168,176.830151 L89.0977888,199.38392 L172.287941,199.38392 L197.310317,176.773869 L197.310317,146.301508 L161.360753,146.301508 L161.38387,166.636181 L100.421982,166.636181 L100.421982,112.98191 L116.43184,112.98191 L143.989017,86.3547739 L143.989017,74.8693467 L161.362763,74.8693467 L161.362763,95.2130653 L197.310317,95.2130653 L197.310317,64.3407035 L173.362368,42.6562814 L143.983992,42.6562814 L143.989017,18.8361809 L119.487271,0 L0.00180913706,0 Z M3.01703756,3.01507538 L118.462093,3.01507538 L140.973789,20.320603 L140.967758,45.6713568 L172.199494,45.6713568 L194.294083,65.6773869 L194.294083,92.1979899 L164.376987,92.1979899 L164.376987,71.8542714 L140.973789,71.8542714 L140.973789,85.0753769 L115.212682,109.966834 L97.4067533,109.966834 L97.4067533,169.651256 L164.402114,169.651256 L164.378997,149.315578 L194.294083,149.315578 L194.294083,175.435176 L171.127078,196.368844 L90.2284995,196.368844 L66.2795452,175.460302 L66.2795452,109.966834 L44.9618802,109.966834 L44.9618802,129.629146 L56.6046822,129.629146 L56.6750376,156.01809 L3.01502741,156.01809 L3.01703756,129.629146 L14.6608447,129.629146 L14.5613421,29.7979899 L3.01703756,29.8050251 L3.01703756,3.01507538 Z M44.8744386,29.8140704 L44.8854944,82.2834171 L66.2795452,82.2834171 L66.2795452,70.8110553 L90.3068954,45.7407035 L108.401281,45.7407035 L108.401281,29.798995 L44.8744386,29.8140704 Z M47.8916772,32.8281407 L105.386053,32.8140704 L105.386053,42.7256281 L89.0193929,42.7256281 L63.2643168,69.6 L63.2643168,79.2683417 L47.8997178,79.2683417 L47.8916772,32.8281407 Z M97.3293624,82.2834171 L108.401281,82.2834171 L108.401281,71.8542714 L97.3293624,71.8542714 L97.3293624,82.2834171 Z M100.345596,79.2693467 L105.386053,79.2693467 L105.386053,74.8693467 L100.345596,74.8693467 L100.345596,79.2693467 Z" id="Fill-2" fill="#A90533"></path>
                <path d="M45.0149482,29.9527638 L45.0239939,82.1447236 L66.1406437,82.1447236 L66.1406437,70.7557789 L90.2473949,45.601005 L108.26238,45.601005 L108.26238,29.9366834 L45.0149482,29.9527638 Z M97.468867,82.1447236 L108.261375,82.1447236 L108.261375,71.9929648 L97.468867,71.9929648 L97.468867,82.1447236 Z M90.1770396,196.508543 L66.1406437,175.524623 L66.1406437,110.106533 L45.1003797,110.106533 L45.1003797,129.489447 L56.7431817,129.489447 L56.8145421,156.155779 L2.87612589,156.155779 L2.87713096,129.489447 L14.5219431,129.489447 L14.4224406,29.9366834 L2.87713096,29.9437186 L2.87612589,2.87537688 L118.509131,2.87537688 L141.113293,20.2532663 L141.107263,45.5316583 L172.255578,45.5316583 L194.433588,65.6150754 L194.433588,92.3366834 L164.238085,92.3366834 L164.238085,71.9939698 L141.113293,71.9939698 L141.113293,85.1346734 L115.26776,110.106533 L97.5462579,110.106533 L97.5462579,169.513568 L164.263212,169.513568 L164.240095,149.175879 L194.433588,149.175879 L194.433588,175.496482 L171.181151,196.508543 L90.1770396,196.508543 Z" id="Fill-3" fill="#005DA9"></path>
                <path d="M97.469269,82.1457286 L108.261777,82.1457286 L108.261777,71.9939698 L97.469269,71.9939698 L97.469269,82.1457286 Z M45.0243959,82.1447236 L45.0153503,29.9527638 L108.261777,29.9366834 L108.261777,45.601005 L90.247797,45.601005 L66.1400406,70.7557789 L66.1400406,82.1447236 L45.0243959,82.1447236 Z M118.509533,2.87537688 L2.87753299,2.87537688 L2.87753299,29.9437186 L14.4228426,29.9366834 L14.5213401,129.489447 L2.87753299,129.489447 L2.87552284,156.155779 L56.8139391,156.155779 L56.7435838,129.489447 L45.1007817,129.489447 L45.1007817,110.106533 L66.1400406,110.106533 L66.1400406,175.524623 L90.1764365,196.508543 L171.181553,196.508543 L194.43399,175.496482 L194.43399,149.175879 L164.240497,149.175879 L164.263614,169.513568 L97.5456548,169.513568 L97.5456548,110.106533 L115.268162,110.106533 L141.113695,85.1346734 L141.113695,71.9939698 L164.238487,71.9939698 L164.238487,92.3366834 L194.43399,92.3366834 L194.43399,65.6150754 L172.254975,45.5316583 L141.107665,45.5316583 L141.113695,20.2532663 L118.509533,2.87537688 Z M93.4489645,86.1648241 L97.469269,86.1648241 L108.261777,86.1648241 L112.282081,86.1648241 L112.282081,82.1447236 L112.282081,71.9939698 L112.282081,67.9738693 L108.261777,67.9738693 L97.469269,67.9738693 L93.4489645,67.9738693 L93.4489645,71.9939698 L93.4489645,82.1447236 L93.4489645,86.1648241 L93.4489645,86.1648241 Z M41.0040914,86.1648241 L45.0243959,86.1648241 L66.1400406,86.1648241 L70.1603452,86.1648241 L70.1603452,82.1447236 L70.1603452,72.3708543 L91.9634619,49.6211055 L108.261777,49.6211055 L112.282081,49.6211055 L112.282081,45.601005 L112.282081,29.9366834 L112.282081,25.9155779 L108.260772,25.9165829 L45.0143452,25.9326633 L40.9940406,25.9336683 L40.9950457,29.9537688 L41.0040914,82.1457286 L41.0040914,86.1648241 L41.0040914,86.1648241 Z M117.141624,6.89547739 L137.093391,22.2321608 L137.08736,45.5306533 L137.086355,49.5517588 L141.107665,49.5517588 L170.705147,49.5517588 L190.413685,67.3979899 L190.413685,88.3165829 L168.258792,88.3165829 L168.258792,71.9939698 L168.258792,67.9738693 L164.238487,67.9738693 L141.113695,67.9738693 L137.093391,67.9738693 L137.093391,71.9939698 L137.093391,83.4291457 L113.642954,106.086432 L97.5456548,106.086432 L93.5253503,106.086432 L93.5253503,110.106533 L93.5253503,169.513568 L93.5253503,173.533668 L97.5456548,173.533668 L164.263614,173.533668 L168.288944,173.533668 L168.283919,169.508543 L168.265827,153.19598 L190.413685,153.19598 L190.413685,173.711558 L169.633736,192.488442 L91.6850558,192.488442 L70.1603452,173.697487 L70.1603452,110.106533 L70.1603452,106.086432 L66.1400406,106.086432 L45.1007817,106.086432 L41.0804772,106.086432 L41.0804772,110.106533 L41.0804772,129.489447 L41.0804772,133.509548 L45.1007817,133.509548 L52.734335,133.509548 L52.7835838,152.135678 L6.89582741,152.135678 L6.89683249,133.509548 L14.5213401,133.509548 L18.545665,133.509548 L18.5416447,129.485427 L18.4431472,29.9326633 L18.4391269,25.9145729 L14.4198274,25.9165829 L6.89783756,25.921608 L6.89783756,6.89547739 L117.141624,6.89547739 Z" id="Fill-4" fill="#A6A8AB"></path>
                <path d="M42.9610751,27.9005025 L42.972131,84.1979899 L68.1925066,84.1979899 L68.1925066,71.5798995 L91.1233188,47.6542714 L110.315248,47.6542714 L110.315248,27.8844221 L42.9610751,27.9005025 Z M95.415999,84.1979899 L110.315248,84.1979899 L110.315248,69.9407035 L95.415999,69.9407035 L95.415999,84.1979899 Z M90.9464254,194.457286 L68.1925066,174.59196 L68.1925066,108.053266 L43.0475117,108.053266 L43.0475117,131.542714 L54.6953391,131.542714 L54.7556437,154.104523 L4.92899391,154.104523 L4.92999898,131.542714 L16.5758162,131.542714 L16.4732985,27.8834171 L4.92999898,27.8894472 L4.92899391,4.92864322 L117.812111,4.92864322 L139.060425,21.2633166 L139.052385,47.5839196 L171.46408,47.5839196 L192.38072,66.5266332 L192.38072,90.2844221 L166.291958,90.2844221 L166.291958,69.9407035 L139.060425,69.9407035 L139.060425,84.2643216 L114.44008,108.053266 L95.4923848,108.053266 L95.4923848,171.564824 L166.317085,171.564824 L166.294974,151.228141 L192.38072,151.228141 L192.38072,174.58392 L170.390659,194.457286 L90.9464254,194.457286 Z" id="Fill-5" fill="#005DA9"></path>
                <path d="M95.4158985,84.1979899 L110.315147,84.1979899 L110.315147,69.9407035 L95.4158985,69.9407035 L95.4158985,84.1979899 Z M42.9720305,84.1979899 L42.9609746,27.9005025 L110.315147,27.8844221 L110.315147,47.6542714 L91.1232183,47.6542714 L68.1934112,71.5798995 L68.1934112,84.1979899 L42.9720305,84.1979899 Z M117.81201,4.92864322 L4.9288934,4.92864322 L4.92989848,27.8894472 L16.473198,27.8834171 L16.5757157,131.542714 L4.92989848,131.542714 L4.9288934,154.104523 L54.7555431,154.104523 L54.6952386,131.542714 L43.0474112,131.542714 L43.0474112,108.053266 L68.1934112,108.053266 L68.1934112,174.59196 L90.9463249,194.457286 L170.390558,194.457286 L192.380619,174.58392 L192.380619,151.228141 L166.295878,151.228141 L166.316985,171.564824 L95.4922843,171.564824 L95.4922843,108.053266 L114.43998,108.053266 L139.060325,84.2643216 L139.060325,69.9407035 L166.291858,69.9407035 L166.291858,90.2844221 L192.380619,90.2844221 L192.380619,66.5266332 L171.46398,47.5839196 L139.052284,47.5839196 L139.060325,21.2633166 L117.81201,4.92864322 Z M92.4006701,87.2130653 L95.4158985,87.2130653 L110.315147,87.2130653 L113.330376,87.2130653 L113.330376,84.1979899 L113.330376,69.9407035 L113.330376,66.9256281 L110.315147,66.9256281 L95.4158985,66.9256281 L92.4006701,66.9256281 L92.4006701,69.9407035 L92.4006701,84.1979899 L92.4006701,87.2130653 L92.4006701,87.2130653 Z M39.956802,87.2130653 L42.9720305,87.2130653 L68.1934112,87.2130653 L71.2086396,87.2130653 L71.2086396,84.1979899 L71.2086396,72.7919598 L92.4097157,50.6693467 L110.315147,50.6693467 L113.330376,50.6693467 L113.330376,47.6542714 L113.330376,27.8844221 L113.330376,24.8693467 L110.314142,24.8693467 L42.9609746,24.8854271 L39.9457462,24.8864322 L39.9457462,27.9015075 L39.956802,84.1979899 L39.956802,87.2130653 L39.956802,87.2130653 Z M116.787838,7.94371859 L136.045096,22.7487437 L136.037056,47.5829146 L136.036051,50.598995 L139.052284,50.598995 L170.302112,50.598995 L189.365391,67.8633166 L189.365391,87.2693467 L169.307086,87.2693467 L169.307086,69.9407035 L169.307086,66.9256281 L166.291858,66.9256281 L139.060325,66.9256281 L136.045096,66.9256281 L136.045096,69.9407035 L136.045096,82.9849246 L113.220822,105.038191 L95.4922843,105.038191 L92.4770558,105.038191 L92.4770558,108.053266 L92.4770558,171.564824 L92.4770558,174.579899 L95.4922843,174.579899 L166.316985,174.579899 L169.335228,174.579899 L169.332213,171.561809 L169.313117,154.243216 L189.365391,154.243216 L189.365391,173.245226 L169.229695,191.442211 L92.0780406,191.442211 L71.2086396,173.222111 L71.2086396,108.053266 L71.2086396,105.038191 L68.1934112,105.038191 L43.0474112,105.038191 L40.0321827,105.038191 L40.0321827,108.053266 L40.0321827,131.542714 L40.0321827,134.557789 L43.0474112,134.557789 L51.6880508,134.557789 L51.7322741,151.089447 L7.94412183,151.089447 L7.9451269,134.557789 L16.5757157,134.557789 L19.5939594,134.557789 L19.5909442,131.539698 L19.4884264,27.880402 L19.4854112,24.8663317 L16.4711878,24.8683417 L7.9451269,24.8733668 L7.94412183,7.94371859 L116.787838,7.94371859 Z" id="Fill-6" fill="#FFFFFF"></path>
            </g>
        </g>
    </g>
</svg>