<?xml version="1.0" encoding="UTF-8"?>
<svg width="200px" height="200px" viewBox="0 0 200 200" version="1.1" xmlns="http://www.w3.org/2000/svg" xmlns:xlink="http://www.w3.org/1999/xlink">
    <!-- Generator: Sketch 54.1 (76490) - https://sketchapp.com -->
    <title>stephen-f-austin</title>
    <desc>Created with Sketch.</desc>
    <g id="stephen-f-austin" stroke="none" stroke-width="1" fill="none" fill-rule="evenodd">
        <g id="stephen-f-austin_BGD" transform="translate(0.000000, 0.000000)">
            <g id="stephen-f-austin" transform="translate(0.000000, 10.000000)">
                <g id="g10" transform="translate(99.999998, 90.585743) scale(-1, 1) rotate(-180.000000) translate(-99.999998, -90.585743) translate(0.000000, 0.219657)" fill-rule="nonzero">
                    <g id="g12">
                        <polyline id="path14" fill="#FFFFFF" points="32.4221572 100.200383 32.4221572 103.239304 4.01387273 104.371866 4.05603073 104.289785 3.45119837 103.46782 3.77754518 102.882464 6.83930619 101.184198 7.63591503 99.1472037 8.68797666 97.3695544 11.4494409 95.8362211 20.1017721 86.9048148 27.3637758 81.8231193 28.0545658 80.6624257 28.7459338 79.2847764 28.7310205 77.8824643 29.0313288 77.4258169 31.0129087 74.8331388 31.1072825 69.3441216 31.4848162 67.9857401 33.9231205 64.709825 44.1922918 58.1953743 51.2705189 54.556068 52.6192665 54.4389196 53.2655093 54.8107886 54.727937 56.6269735 55.6940256 57.4762991 58.2701334 63.976877 59.8115592 66.3880523 61.5287075 67.5491313 64.0250466 67.0150272 64.1976863 67.4315975 65.3529849 69.0597285 67.7768769 68.3714819 68.3788037 68.0547189 68.3788037 84.2998052 49.4184959 84.2998052 32.4221572 100.200383"></polyline>
                        <path d="M182.978801,101.718302 L183.009629,96.4928685 L179.045853,99.4774542 L173.860497,96.4928685 L176.699803,101.718302 L172.885159,105.087859 L178.723695,105.087859 L181.942577,110.400768 L182.651633,105.087859 L188.655872,105.087859 L182.978801,101.718302 Z M197.181883,91.0747569 L196.461652,93.3811152 L195.514446,94.6974928 L194.673598,95.4196508 L194.712905,96.5942172 L194.440458,96.8743714 L193.655486,98.3510573 L192.575332,99.0177239 L191.8104,100.310595 L192.485159,102.084005 L191.440072,103.780344 L189.117914,105.423119 L188.200766,106.96994 L186.392288,131.979573 L185.639687,132.101731 L183.7183,131.258956 L182.374947,131.551442 L180.100959,132.964159 L179.311364,133.244313 L178.734485,133.737569 L177.663965,133.842771 L171.189591,136.828513 L168.487472,135.902116 L165.182655,136.23044 L164.092867,136.174563 L163.36647,136.071288 L160.900574,135.026972 L157.796142,134.605777 L157.19383,134.284775 L154.451249,131.893638 L151.380728,133.71175 L149.64701,134.48516 L149.51753,134.258571 L148.369168,134.066663 L148.369168,115.951057 L159.19306,115.951057 L159.19306,88.7348725 L172.560304,56.7287076 L173.786508,56.7287076 L174.53487,57.2466267 L174.801922,59.2023107 L178.641614,62.5911352 L176.959148,64.5895938 L177.254331,67.7202295 L180.882462,69.4131004 L183.273599,69.2084761 L182.938338,66.7753355 L185.566084,67.1969155 L185.912905,66.7818866 L191.399995,69.3163759 L193.392673,69.5637748 L192.741421,70.8682063 L193.527548,71.8666649 L193.868203,72.9275512 L194.948357,74.1606918 L195.77302,77.0816936 L194.863964,78.3202293 L194.768781,80.0932543 L195.001922,80.7903641 L194.859725,81.8019247 L195.336797,84.4165682 L196.40539,85.4431578 L196.78381,86.6581867 L197.263194,89.5190729 L197.181883,91.0747569 L197.181883,91.0747569 Z" id="path16" fill="#FFFFFF"></path>
                        <polyline id="path18" fill="#FFFFFF" points="143.461653 6.79884376 140.842771 14.7228898 139.364544 18.2354909 140.891711 23.1398838 140.800382 23.6176873 140.131018 23.7445851 139.470902 24.8508279 139.419264 25.9013866 110.828514 25.9013866 110.828514 25.0469743 111.897107 23.8031208 112.483234 20.0104041 113.535257 18.9556065 117.527935 12.3217723 117.826201 11.1560691 119.572251 11.1098648 122.615026 9.51017317 125.965315 8.5680152 130.791134 5.94878598 137.50096 5.82774552 138.999997 5.43156056 142.747203 3.36961071 143.643542 3.03543345 144.573021 4.39186887 144.505969 4.41502879 144.802309 5.42658946 143.461653 6.79884376"></polyline>
                        <polyline id="path20" fill="#FFFFFF" points="99.230826 170.235449 99.0978781 177.666662 58.6551045 177.996527 58.5283222 173.900959 95.4181094 173.900959 99.230826 170.235449"></polyline>
                        <polyline id="path22" fill="#FFFFFF" points="72.6982641 124.267049 72.6982641 127.585353 49.6285151 127.585353 41.9379566 136.514447 41.9379566 154.205391 52.9965305 164.803464 91.5013465 164.803464 100.243543 156.81464 100.243543 150.278994 86.6593427 150.278994 86.6593427 154.963387 56.2446999 154.963387 56.2446999 136.89595 72.6982641 136.89595 72.6982641 140.33911 59.9017326 140.33911 59.9017326 151.493638 83.0273582 151.493638 83.0273582 146.802308 103.017724 146.802308 103.017724 158.22543 93.0416162 168.094408 51.5953744 168.094408 38.397764 155.80462 38.397764 135.006162 47.8593437 124.267049 72.6982641 124.267049"></polyline>
                        <polyline id="path24" fill="#FFFFFF" points="77.8169537 90.1279361 77.8169537 93.5552963 52.9946037 93.5552963 41.9495173 104.60308 41.9495173 112.794988 55.9741797 112.794988 55.9741797 105.681693 77.8169537 105.681693 77.8169537 109.10019 59.9017326 109.10019 59.9017326 116.225045 38.397764 116.225045 38.397764 102.805392 51.5953744 90.1279361 77.8169537 90.1279361"></polyline>
                        <polyline id="path26" fill="#FFFFFF" points="110.984198 72.646241 110.984198 78.5730231 104.873986 78.5730231 104.873986 94.7537549 117.477068 94.7537549 117.477068 98.0558742 101.619651 98.0558742 101.619651 75.2003835 107.351057 75.2003835 107.351057 64.833139 77.9614624 64.833139 77.9445067 64.833139 77.9614624 75.2003835 84.4489382 75.2003835 84.4489382 127.631981 79.2855472 127.631981 79.2855472 137.082077 138.790748 137.082077 138.790748 121.458571 123.986509 121.458571 123.986509 126.201538 101.619651 126.201538 101.619651 106.514834 117.477068 106.514834 117.477068 109.934487 105.223889 109.934487 105.223889 122.75491 120.326779 122.75491 120.326779 117.891712 142.413099 117.891712 142.413099 140.33911 75.7225415 140.33911 75.7225415 124.267049 80.8215779 124.267049 80.8215779 78.5730231 74.2346802 78.5730231 74.2346802 61.402696 105.895951 61.402696 110.984198 72.646241"></polyline>
                        <path d="M170.700188,35.5976099 L145.413484,35.5976099 L145.413484,47.0963379 L150.472443,47.0963379 L147.497106,53.6739871 L126.238147,53.6739871 L122.959534,47.0840065 L127.694409,47.0963379 L127.694409,35.5976099 L101.93834,35.5976099 L101.93834,47.0963379 L106.919072,47.0963379 L128.878609,96.9591498 L124.11175,96.9591498 L124.11175,106.806934 L149.505969,106.806934 L149.505969,96.9591498 L145.413484,96.9591498 L166.070131,47.0963379 L170.700188,47.0963379 L170.700188,35.5976099 Z M150.838532,93.1876663 L153.255873,93.1876663 L153.255873,110.257415 L120.438918,110.257415 L120.438918,93.1876663 L123.557222,93.1876663 L104.396915,50.2655093 L98.2897856,50.2655093 L98.2897856,31.9383807 L131.341423,31.9383807 L131.341423,50.2655093 L141.778031,50.2655093 L141.778031,31.9383807 L174.36146,31.9383807 L174.36146,51.1942184 L168.554909,51.1942184 L150.838532,93.1876663 L150.838532,93.1876663 Z" id="path28" fill="#FFFFFF"></path>
                        <path d="M134.984197,65.3394974 L137.194602,70.0470117 L139.180343,65.3394974 L134.984197,65.3394974 Z M129.023889,61.8689773 L143.902501,61.8689773 L137.194602,78.5949884 L129.023889,61.8689773 L129.023889,61.8689773 Z" id="path30" fill="#FFFFFF"></path>
                        <polygon id="path32" fill="#AFAFAE" points="134.984197 65.3394974 139.180343 65.3394974 137.194602 70.0470117"></polygon>
                        <path d="M174.36146,31.9383807 L141.778031,31.9383807 L141.778031,50.2655093 L131.341423,50.2655093 L131.341423,31.9383807 L98.2897856,31.9383807 L98.2897856,50.2655093 L104.396915,50.2655093 L123.557222,93.1876663 L120.438918,93.1876663 L120.438918,110.257415 L153.255873,110.257415 L153.255873,93.1876663 L150.838532,93.1876663 L168.554909,51.1942184 L174.36146,51.1942184 L174.36146,31.9383807 Z M74.2346802,61.402696 L74.2346802,78.5730231 L80.8215779,78.5730231 L80.8215779,124.267049 L75.7225415,124.267049 L75.7225415,140.33911 L142.413099,140.33911 L142.413099,117.891712 L120.326779,117.891712 L120.326779,122.75491 L105.223889,122.75491 L105.223889,109.934487 L117.477068,109.934487 L117.477068,94.7537549 L104.873986,94.7537549 L104.873986,78.5730231 L110.984198,78.5730231 L110.984198,72.646241 L105.895951,61.402696 L74.2346802,61.402696 Z M51.5953744,90.1279361 L38.397764,102.805392 L38.397764,116.225045 L59.9017326,116.225045 L59.9017326,109.10019 L77.8169537,109.10019 L77.8169537,90.1279361 L51.5953744,90.1279361 Z M79.922156,148.632366 L79.922156,143.378031 L63.053563,143.378031 L63.053563,148.632366 L79.922156,148.632366 Z M72.6982641,124.267049 L47.8593437,124.267049 L38.397764,135.006162 L38.397764,155.80462 L51.5953744,168.094408 L93.0416162,168.094408 L103.017724,158.22543 L103.017724,146.802308 L83.0273582,146.802308 L83.0273582,151.493638 L59.9017326,151.493638 L59.9017326,140.33911 L72.6982641,140.33911 L72.6982641,124.267049 Z M107.979188,81.5445066 L107.979188,91.9082829 L117.347589,91.9082829 L117.347589,90.003466 L118.866664,90.003466 L114.087088,79.8543333 L114.087088,81.5445066 L107.979188,81.5445066 Z M170.607703,53.7915208 L155.243541,90.581886 L156.257414,90.581886 L156.257414,113.014641 L108.247011,113.014641 L108.247011,119.805777 L117.230826,119.805777 L117.230826,115.084776 L145.433522,115.084776 L145.433522,143.378031 L105.802309,143.378031 L105.802309,159.841229 L94.2362212,170.96724 L50.5757213,170.96724 L35.3559914,157.078223 L35.3559914,133.706355 L46.9271665,121.302502 L76.5749499,121.302502 L76.5749499,112.039304 L62.7102104,112.039304 L62.7102104,119.194987 L35.3559914,119.194987 L35.3559914,101.474757 L50.5757213,87.2381481 L77.7680135,87.2381481 L77.7680135,81.4485529 L71.3144491,81.4485529 L71.3144491,58.4023107 L104.605392,58.4023107 L102.270518,52.811174 L95.2936392,52.811174 L95.2936392,28.8369935 L134.405006,28.8369935 L134.405006,47.0173399 L138.695565,47.0173399 L138.695565,28.8369935 L177.57726,28.8369935 L177.57726,53.7915208 L170.607703,53.7915208 L170.607703,53.7915208 Z" id="path34" fill="#AFAFAE"></path>
                        <polyline id="path36" fill="#592B94" points="55.9741797 112.794988 49.0007695 112.763388 49.0007695 105.877454 54.9799601 100.090171 55.9741797 105.681693 55.9741797 112.794988"></polyline>
                        <path d="M52.9946037,93.5552963 L74.8801523,93.5552963 C74.8801523,94.6493233 74.8801523,97.41888 74.8801523,100.090171 L54.9799601,100.090171 L52.9946037,93.5552963" id="path38" fill="#592B94"></path>
                        <polyline id="path40" fill="#592B94" points="128.878609 96.9591498 106.919072 47.0963379 101.93834 47.0963379 101.93834 35.5976099 108.312136 40.6566464 121.685161 40.6566464 127.694409 47.0963379 122.956452 47.0828505 115.210787 47.0620412 120.568398 58.330249 137.093638 96.9591498 128.878609 96.9591498"></polyline>
                        <polyline id="path42" fill="#592B94" points="158.485931 47.0963379 137.093638 96.9591498 137.194602 78.5949884 143.902501 61.8689773 153.619264 58.2535631 120.568398 58.330249 126.238147 53.6739871 147.497106 53.6739871 150.472443 47.0963379 145.413484 47.0963379 145.413484 35.5976099 151.412328 40.6566464 165.046624 40.6566464 170.700188 47.0963379 158.485931 47.0963379"></polyline>
                        <polyline id="path44" fill="#592B94" points="124.11175 96.9591498 129.325623 101.723312 144.591519 101.723312 149.505969 106.806934 124.11175 106.806934 124.11175 96.9591498"></polyline>
                        <polyline id="path46" fill="#592B94" points="123.986509 126.201538 123.986509 121.458571 131.354525 126.652405 131.354525 131.7499 92.9121364 131.7499 101.619651 126.201538 123.986509 126.201538"></polyline>
                        <polyline id="path48" fill="#592B94" points="117.477068 98.0558742 117.512136 103.349901 92.9761056 103.349901 92.9761056 103.328706 92.9121364 131.7499 85.3549112 131.7499 79.2855472 127.631981 84.4489382 127.631981 84.4489382 75.2003835 77.9614624 75.2003835 77.9445067 64.833139 84.5206145 70.3487458 93.0504794 70.3487458 92.9761056 103.310595 101.619651 98.0558742 117.477068 98.0558742"></polyline>
                        <polyline id="path50" fill="#592B94" points="86.6593427 150.278994 93.8793811 150.278994 93.8793811 154.83622 86.6593427 154.963387 86.6593427 150.278994"></polyline>
                        <polyline id="path52" fill="#592B94" points="56.2446999 136.89595 56.2446999 154.963387 56.0007693 160.051634 48.4917136 152.947588 48.4917136 138.344505 53.1429659 132.30674 56.2446999 136.89595"></polyline>
                        <polyline id="path54" fill="#592B94" points="93.8793811 154.83622 100.243543 156.81464 91.5013465 164.803464 52.9965305 164.803464 56.0007693 160.051634 88.3579939 160.051634 93.8793811 154.83622"></polyline>
                        <polyline id="path56" fill="#592B94" points="72.6982641 127.585353 72.6982641 132.30674 53.1429659 132.30674 49.6285151 127.585353 72.6982641 127.585353"></polyline>
                        <polyline id="path58" fill="#372852" points="53.1429659 132.30674 72.6986494 132.30674 72.6986494 136.89595 56.2446999 136.89595 53.1429659 132.30674"></polyline>
                        <path d="M196.78381,86.6581867 L196.40539,85.4431578 L195.336797,84.4165682 L194.859725,81.8019247 L195.001922,80.7903641 L194.768781,80.0932543 L194.863964,78.3202293 L195.77302,77.0816936 L194.948357,74.1606918 L193.868203,72.9275512 L193.527548,71.8666649 L192.741421,70.8682063 L193.392673,69.5637748 L191.399995,69.3163759 L185.912905,66.7818866 L185.566084,67.1973008 L182.938338,66.7753355 L183.273599,69.2084761 L180.882462,69.4131004 L177.254331,67.7206149 L176.959148,64.5895938 L178.641614,62.5911352 L174.801922,59.2023107 L174.53487,57.2466267 L173.786508,56.7287076 L172.560304,56.7287076 L159.19306,88.7348725 L159.19306,115.951057 L148.369168,115.951057 L148.369168,134.066663 L149.51753,134.258571 L149.64701,134.48516 L151.380728,133.71175 L154.451249,131.893638 L157.19383,134.284775 L157.796142,134.606162 L160.900574,135.026972 L163.36647,136.071288 L164.092867,136.174563 L165.182655,136.23044 L168.487472,135.902116 L171.189591,136.828513 L177.663965,133.842771 L178.734485,133.737569 L179.311364,133.244313 L180.100959,132.964159 L182.374947,131.551442 L183.7183,131.258956 L185.639687,132.101731 L186.392674,131.979573 L188.200766,106.96994 L189.117914,105.423119 L191.439687,103.780344 L192.485159,102.084005 L191.8104,100.310595 L192.575332,99.0177239 L193.655486,98.3510573 L194.440458,96.8743714 L194.712905,96.5942172 L194.673213,95.4196508 L195.514446,94.6974928 L196.461652,93.3811152 L197.181883,91.0747569 L197.263194,89.5190729 L196.78381,86.6581867 Z M177.577645,53.7915208 L177.577645,28.8369935 L138.695565,28.8369935 L138.695565,47.0173399 L134.405006,47.0173399 L134.405006,28.8369935 L95.2936392,28.8369935 L95.2936392,52.811174 L95.3541402,52.811174 L102.270518,52.811174 L104.605392,58.4023107 L71.3144491,58.4023107 L71.3144491,58.4658945 L71.3144491,81.4485529 L77.7676281,81.4485529 L77.7676281,81.5067417 L77.7676281,87.1899786 L77.7676281,87.2381481 L50.5757213,87.2381481 L42.5202302,94.7745641 L35.3559914,101.474757 L35.3559914,119.194987 L62.7105957,119.194987 L62.7105957,119.15992 L62.7105957,112.039304 L62.8385341,112.039304 L76.5749499,112.039304 L76.5749499,121.302502 L46.9271665,121.302502 L46.9009622,121.331404 L40.2516368,128.460112 L35.3559914,133.706355 L35.3559914,157.078223 L40.2909431,161.580728 L50.5757213,170.96724 L94.2362212,170.96724 L105.802309,159.841229 L105.802309,143.378031 L145.433522,143.378031 L145.433522,115.084776 L117.230826,115.084776 L117.230826,119.805777 L108.247011,119.805777 L108.247011,113.014641 L156.257414,113.014641 L156.257414,90.581886 L156.191518,90.581886 L155.243541,90.581886 L170.607703,53.7915208 L177.577645,53.7915208 Z M143.461653,6.79884376 L144.802309,5.42658946 L144.505969,4.41502879 L144.573021,4.39186887 L143.643542,3.03543345 L142.747203,3.36961071 L138.999997,5.43156056 L137.50096,5.82774552 L130.791134,5.94878598 L125.965315,8.5680152 L122.615026,9.51017317 L119.572251,11.1098648 L117.826201,11.1565315 L117.527935,12.3222348 L113.535257,18.9556065 L112.483234,20.0104041 L111.897107,23.8031208 L110.828514,25.0469743 L110.828514,25.9013866 L139.419264,25.9013866 L139.470902,24.8508279 L140.131018,23.7445851 L140.800382,23.6176873 L140.891711,23.1398838 L139.364544,18.2354909 L140.842771,14.7228898 L143.461653,6.79884376 Z M68.3788037,68.0547189 L67.7768769,68.3714819 L65.3529849,69.0597285 L64.1976863,67.4315975 L64.0250466,67.0150272 L61.5287075,67.5491313 L59.8115592,66.3880523 L58.2701334,63.976877 L55.6940256,57.4762991 L54.727937,56.6269735 L53.2655093,54.8107886 L52.6192665,54.4389196 L51.2705189,54.556068 L44.1922918,58.1953743 L33.9231205,64.709825 L31.4848162,67.9857401 L31.1072825,69.3441216 L31.0130628,74.8331388 L29.0313288,77.4258169 L28.7310205,77.8824643 L28.7459338,79.2847764 L28.0545658,80.6624257 L27.3637758,81.8231193 L20.1017721,86.9048148 L11.4494409,95.8362211 L8.68797666,97.3695544 L7.63591503,99.1472037 L6.83930619,101.184198 L3.77754518,102.882464 L3.45119837,103.46782 L4.05603073,104.290171 L4.01402687,104.371866 L32.4221572,103.239304 L32.4221572,100.200383 L49.4184959,84.2998052 L68.3788037,84.2998052 L68.3788037,68.0547189 Z M58.6554899,177.996527 L99.0978781,177.666662 L99.230826,170.235449 L95.4181094,173.900959 L58.5283222,173.900959 L58.6554899,177.996527 Z M199.758762,91.4928686 L198.838145,94.4535622 L197.485544,96.3352577 L197.312519,96.4859321 L197.349128,97.5263945 L196.593829,98.3001902 L195.658184,100.058572 L194.703271,100.648552 L195.344504,102.329092 L193.41618,105.464352 L191.110207,107.094024 L190.753752,107.696336 L188.839302,134.083619 L185.290169,134.671673 L183.433136,133.858571 L183.404234,133.863966 L181.274755,135.186509 L180.681306,135.397684 L179.847009,136.11753 L178.381884,136.261268 L170.764928,139.773792 L169.84277,138.994216 L168.164543,138.418879 L165.250863,138.70674 L163.829283,138.640459 L162.63121,138.464351 L160.173406,137.430054 L156.942578,136.987665 L155.660112,136.298648 L154.152212,134.983041 L152.625044,135.887473 L151.773021,136.266663 L151.767626,136.399611 L150.859341,137.190748 L148.411172,137.455103 L148.369168,137.384197 L148.369168,146.313676 L108.738726,146.313676 L108.738726,161.090555 L101.875913,167.693637 L101.654333,180.117144 L56.1283223,180.374562 L55.9287077,173.900959 L49.4366076,173.900959 L32.4221572,158.374563 L32.4221572,132.551056 L42.139498,122.131403 L32.4221572,122.131403 L32.4221572,105.714834 L1.65251634,106.950672 L0,105.213099 L0.959175313,104.393832 L0.409441223,103.646626 L1.58146817,101.54836 L2.00776874,101.005778 L4.72543341,99.4932538 L5.27260102,98.0978781 L6.77383413,95.5718666 L9.79965293,93.8878589 L18.3625429,85.0539478 L25.3760302,80.1441213 L25.7497874,79.5175317 L26.1402691,78.7348728 L26.1244695,77.1822717 L26.8764926,76.0381484 L28.42998,74.0092467 L28.514874,69.0088615 L29.0952979,66.9186881 L32.0798836,62.9028886 L42.8512513,56.0720603 L50.5021182,52.1421952 L53.2389197,51.9005767 L55.0308271,52.938727 L56.6558753,54.9552973 L57.9067423,56.0547192 L60.6157981,62.887089 L61.7518289,64.665509 L62.0882451,64.8913279 L64.2377633,64.4296708 L65.8755282,64.7356439 L66.4655089,66.1614627 L66.7699405,66.0782257 L68.1764916,65.3394974 L68.3788037,65.3236978 L68.3788037,55.4666653 L88.459728,55.4666653 L88.5969149,55.3683994 L89.9668571,53.5425805 L90.1025026,52.6481682 L92.3599206,48.192677 L92.3599206,25.9013866 L108.231211,25.9013866 L108.228899,24.1687855 L109.433138,22.7661266 L110.030055,18.8759918 L111.43545,17.4704813 L115.090941,11.3976876 L115.773408,8.74096317 L118.86782,8.65818861 L121.606548,7.21730232 L124.936798,6.27737942 L130.078224,3.4879267 L137.125237,3.35561071 L137.986124,3.13177256 L141.616952,1.13409246 L144.667434,0 L146.235449,2.29332172 L147.759149,2.1110327 L148.938725,3.35561071 L148.818108,5.6235066 L147.667434,5.9952985 L147.698648,6.10246613 L145.764158,8.07367995 L143.291711,15.5572636 L142.112906,18.3560689 L143.553368,22.9934484 L143.114062,25.3961843 L142.764929,25.5421959 L143.243542,25.9013866 L180.514061,25.9013866 L180.514061,56.7287076 L177.084003,56.7287076 L177.254331,57.9980718 L181.176874,61.4639676 L181.57225,63.065509 L179.641999,65.3587652 L179.712134,66.1117517 L180.263965,66.372638 L180.205776,65.9479752 L180.855487,63.9287075 L184.48593,64.5117518 L185.174176,63.6917132 L192.153367,66.9186881 L195.757221,67.3633895 L197.918299,68.1776476 L195.877837,70.345663 L195.759533,70.5826572 L195.877837,70.7298634 L196.199224,71.724083 L197.312519,72.9949885 L198.599224,77.5479749 L197.420034,79.1533699 L197.388434,79.7687841 L197.656257,80.5695548 L197.485544,81.7537552 L197.754138,83.2269729 L198.710592,84.140653 L199.322924,86.1102098 L199.870515,89.3822714 L199.758762,91.4928686 L199.758762,91.4928686 Z" id="path60" fill="#372852"></path>
                        <polyline id="path62" fill="#372852" points="79.922156 148.632366 63.053563 148.632366 63.053563 143.378031 79.922156 143.378031 79.922156 148.632366"></polyline>
                        <polyline id="path64" fill="#372852" points="79.2859325 127.631981 85.3549112 131.7499 131.35491 131.7499 131.35491 126.652405 123.986509 121.458571 138.790748 121.458571 138.790748 137.082077 79.2859325 137.082077 79.2859325 127.631981"></polyline>
                        <polyline id="path66" fill="#372852" points="117.477068 103.349901 117.477068 106.514834 101.619651 106.514834 101.619651 126.201538 92.9121364 131.7499 92.9761056 103.349901 117.477068 103.349901"></polyline>
                        <polyline id="path68" fill="#372852" points="118.866664 90.003466 117.347589 90.003466 117.347589 91.9082829 107.979188 91.9082829 107.979188 91.8181095 107.979188 81.544892 114.087088 81.544892 114.087088 79.8543333 118.866664 90.003466"></polyline>
                        <polyline id="path70" fill="#372852" points="181.942577 110.400768 178.723695 105.087859 172.885159 105.087859 176.699803 101.718302 173.860882 96.4928685 179.045853 99.4774542 183.009629 96.4928685 182.978801 101.718302 188.655872 105.087859 182.651633 105.087859 181.942577 110.400768"></polyline>
                        <polyline id="path72" fill="#372852" points="151.412328 40.6566464 145.413484 35.5976099 170.700188 35.5976099 170.700188 47.0963379 165.046624 40.6566464 151.412328 40.6566464"></polyline>
                        <polyline id="path74" fill="#372852" points="108.312136 40.6566464 101.93834 35.5976099 127.694409 35.5976099 127.694409 47.0963379 121.685161 40.6566464 108.312136 40.6566464"></polyline>
                        <polyline id="path76" fill="#372852" points="143.902501 61.8689773 129.023889 61.8689773 137.194602 78.5949884 137.093638 96.9591498 120.568398 58.330249 153.619264 58.2535631 143.902501 61.8689773"></polyline>
                        <polyline id="path78" fill="#372852" points="166.070131 47.0963379 145.413484 96.9591498 149.505969 96.9591498 149.505969 106.806934 144.591519 101.723312 129.325623 101.723312 124.11175 96.9591498 137.093638 96.9591498 158.485545 47.0963379 166.070131 47.0963379"></polyline>
                        <polyline id="path80" fill="#372852" points="122.956452 47.0828505 126.238147 53.6739871 120.568398 58.330249 115.210787 47.0620412 122.956452 47.0828505"></polyline>
                        <polyline id="path82" fill="#372852" points="107.351057 75.2003835 101.619651 75.2003835 101.619651 98.0558742 92.9761056 103.310595 93.0504794 70.3487458 84.5209998 70.3487458 77.9445067 64.833139 77.9614624 64.833139 107.351057 64.833139 107.351057 75.2003835"></polyline>
                        <polyline id="path84" fill="#372852" points="86.6593427 154.963387 93.8793811 154.83622 88.3579939 160.051634 56.0007693 160.051634 56.2446999 154.963387 86.6593427 154.963387"></polyline>
                        <polyline id="path86" fill="#372852" points="100.243543 150.278994 100.243543 156.81464 93.8793811 154.83622 93.8793811 150.278994 100.243543 150.278994"></polyline>
                        <polyline id="path88" fill="#372852" points="48.4917136 152.947588 56.0007693 160.051634 52.9965305 164.803464 41.9379566 154.205391 41.9379566 136.514447 49.6285151 127.585353 53.1429659 132.30674 48.4917136 138.344505 48.4917136 152.947588"></polyline>
                        <polyline id="path90" fill="#372852" points="54.9799601 100.090171 74.8801523 100.090171 74.8801523 93.5552963 77.8169537 93.5552963 77.8169537 105.681308 55.9745651 105.681308 54.9799601 100.090171"></polyline>
                        <polyline id="path92" fill="#372852" points="49.0007695 112.763388 41.9495173 112.794988 41.9495173 104.60308 52.994989 93.5552963 54.9799601 100.090171 49.0007695 105.877454 49.0007695 112.763388"></polyline>
                        <path d="M148.97726,18.5764543 C147.717145,18.5764543 146.695179,19.5976488 146.695179,20.8581883 C146.695179,22.1174946 147.717145,23.1398838 148.97726,23.1398838 C150.237761,23.1398838 151.260112,22.1174946 151.260112,20.8581883 C151.260112,19.5976488 150.237761,18.5764543 148.97726,18.5764543 L148.97726,18.5764543 Z M148.97726,23.7618877 C147.373792,23.7618877 146.072829,22.4628125 146.072829,20.8581883 C146.072829,19.2547201 147.373792,17.9536797 148.97726,17.9536797 C150.581114,17.9536797 151.881306,19.2547201 151.881306,20.8581883 C151.881306,22.4628125 150.581114,23.7618877 148.97726,23.7618877 L148.97726,23.7618877 Z" id="path94" fill="#372852"></path>
                        <path d="M149.185353,21.1703656 L148.406933,21.1703656 L148.406933,21.8948742 L149.185353,21.8948742 C149.384582,21.8948742 149.547202,21.7318299 149.547202,21.532986 C149.547202,21.3309821 149.384582,21.1703656 149.185353,21.1703656 L149.185353,21.1703656 Z M150.169168,21.532986 C150.169168,22.0767239 149.728705,22.5164156 149.185353,22.5164156 L147.783811,22.5179185 L147.783811,19.1991903 L148.406933,19.1991903 L148.406933,20.5476295 L148.854332,20.5476295 L149.482848,19.1991903 L150.171095,19.1991903 L149.515989,20.603776 C149.896335,20.7410399 150.169168,21.1044311 150.169168,21.532986 L150.169168,21.532986 Z" id="path96" fill="#372852"></path>
                    </g>
                </g>
            </g>
        </g>
    </g>
</svg>