<?xml version="1.0" encoding="UTF-8"?>
<svg width="200px" height="200px" viewBox="0 0 200 200" version="1.1" xmlns="http://www.w3.org/2000/svg" xmlns:xlink="http://www.w3.org/1999/xlink">
    <!-- Generator: Sketch 54.1 (76490) - https://sketchapp.com -->
    <title>southeastern-la</title>
    <desc>Created with Sketch.</desc>
    <g id="southeastern-la" stroke="none" stroke-width="1" fill="none" fill-rule="evenodd">
        <g id="southeastern-la_BGD">
            <g id="southeastern-la" transform="translate(23.000000, 0.000000)">
                <path d="M107.57,0 L123.655556,0 L123.896667,0.0688468158 C130.062222,1.82444062 135.676667,5.88640275 140.292222,10.2237522 C148.558889,18.0034423 154.207778,28.9845095 155,40.3442341 L155,44.4061962 C154.311111,52.6678141 152.278889,60.6884682 148.248889,67.9518072 C146.182222,71.6695353 143.53,75.2839931 140.326667,78.1067126 C143.323333,85.7142857 144.081111,93.7693632 143.598889,101.893287 C143.254444,107.504303 142.358889,113.115318 141.118889,118.58864 C139.086667,127.46988 136.124444,136.179002 132.025556,144.302926 C128.236667,152.048193 123.276667,159.862306 116.663333,165.507745 C113.942222,167.848537 110.911111,169.776248 107.707778,171.325301 C91.3122222,179.380379 74.9166667,187.435456 58.5211111,195.490534 C56.2133333,196.557659 54.0777778,197.796902 51.6666667,198.623064 C49.9444444,199.277108 48.1533333,199.621343 46.3622222,199.965577 L38.5777778,199.965577 C33.5488889,199.414802 28.6577778,198.072289 24.1111111,195.800344 C17.5666667,192.633391 11.9522222,187.848537 7.54333333,182.065404 C2.92777778,176.523236 0.551111111,169.569707 0,162.375215 L0,157.005164 C0.62,150.70568 1.96333333,144.54389 4.34,138.657487 C6.54444444,133.080895 9.67888889,127.951807 13.8466667,123.614458 C14.1911111,123.270224 13.95,122.891566 13.8811111,122.512909 C12.4,117.969019 11.6077778,113.218589 11.3322222,108.433735 C10.9188889,100.654045 11.9177778,92.6333907 13.5022222,85.0258176 C15.6377778,74.767642 19.0822222,64.7848537 23.8355556,55.4905336 C27.9,47.4354561 32.7911111,40.0688468 39.68,34.1824441 C42.4011111,31.8760757 45.4322222,29.9139415 48.67,28.3648881 C65.6511111,19.9655766 82.7011111,11.6351119 99.6822222,3.23580034 C102.231111,1.92771084 104.814444,0.757314974 107.57,0 Z" id="Shape" fill="#231F20" fill-rule="nonzero"></path>
                <path d="M119.522222,6.71256454 C124.172222,7.50430293 128.546667,9.77624785 131.887778,13.1153184 C136.09,17.3149742 138.57,23.0292599 139.086667,28.9156627 C139.637778,34.2512909 138.673333,39.8967298 137.33,45.0946644 C135.297778,52.3580034 131.612222,59.7934596 125.894444,64.8537005 C125.24,65.5077453 124.206667,66.0240964 123.69,66.8158348 C124.516667,68.777969 125.412222,70.6712565 125.963333,72.7022375 C128.753333,81.858864 128.305556,91.7383821 126.721111,101.067126 C125.033333,111.153184 122.036667,121.067126 117.662222,130.327022 C114.872222,136.213425 111.634444,141.996558 107.432222,146.987952 C104.538889,150.361446 101.335556,153.356282 97.4777778,155.628227 C95.5833333,156.798623 93.5511111,157.659208 91.5877778,158.657487 C74.8133333,166.884682 58.0388889,175.146299 41.23,183.373494 C38.1644444,184.888124 34.7544444,185.679862 31.3444444,185.748709 C25.9366667,185.817556 20.5633333,183.958692 16.3955556,180.516351 C11.8833333,176.833046 9.09333333,171.600688 7.95666667,165.95525 C6.61333333,159.449225 7.78444444,152.598967 9.54111111,146.26506 C11.9177778,138.313253 16.0855556,130.464716 22.94,125.542169 C22.94,124.922547 22.3544444,124.165232 22.1477778,123.545611 C19.6677778,117.728055 18.6,111.256454 18.6688889,104.991394 C18.6,99.1049914 19.4266667,93.1497418 20.5633333,87.4010327 C22.5955556,77.1772806 26.04,67.2633391 30.8622222,58.0378657 C34.72,50.5679862 39.7833333,43.0636833 46.7066667,38.1067126 C49.2555556,36.2478485 52.08,34.939759 54.9044444,33.5628227 C71.5755556,25.3356282 88.3155556,17.1428571 104.986667,8.91566265 C109.43,6.67814114 114.631111,5.81755594 119.522222,6.71256454 Z" id="Shape" fill="#EEB311" fill-rule="nonzero"></path>
                <path d="M121.898889,12.4612737 C125.308889,13.7349398 128.374444,16.0757315 130.441111,19.070568 C133.61,23.5111876 134.608889,28.8812392 134.23,34.2512909 C133.885556,38.313253 133.058889,42.444062 131.784444,46.2994836 C129.89,51.8072289 126.824444,57.5215146 122.346667,61.3425129 C120.624444,62.8571429 118.592222,63.8898451 116.594444,64.9569707 C120.211111,69.6041308 121.864444,75.1118761 122.622222,80.8950086 C123.448889,87.8141136 122.794444,95.0086059 121.554444,101.858864 C119.453333,113.493976 115.492222,124.75043 109.636667,135.043029 C106.536667,140.516351 102.541111,145.886403 97.4777778,149.707401 C95.17,151.462995 92.5866667,152.702238 89.9688889,153.94148 C73.7455556,161.893287 57.4533333,169.879518 41.2644444,177.865749 C38.1988889,179.414802 35.2366667,180.722892 31.7233333,180.722892 C27.9,180.929432 24.1111111,179.862306 20.9766667,177.693632 C17.2911111,175.24957 14.7422222,171.497418 13.4677778,167.297762 C11.8144444,162.168675 12.2277778,156.626506 13.3988889,151.462995 C14.5011111,146.196213 16.4644444,140.929432 19.4266667,136.419966 C22.0444444,132.392427 25.5922222,129.08778 30.07,127.263339 C29.1744444,125.851979 28.1755556,124.54389 27.4522222,123.063683 C24.7311111,117.728055 23.7666667,111.944923 23.5944444,106.024096 C23.4911111,99.7246127 24.3522222,93.3907057 25.6611111,87.2289157 C27.5555556,78.2099828 30.5866667,69.4664372 34.7888889,61.2392427 C37.7511111,55.3184165 41.1955556,49.8450947 45.9144444,45.1635112 C48.2911111,42.9604131 50.84,40.9982788 53.8022222,39.6213425 C71.6444444,30.8089501 89.6244444,21.9965577 107.535556,13.1497418 C111.978889,11.0154905 117.248889,10.7056799 121.898889,12.4612737 Z" id="Shape" fill="#007650" fill-rule="nonzero"></path>
                <path d="M112.116667,25.989673 C113.494444,25.3012048 114.321111,26.3683305 114.7,27.5387263 C115.32,29.8795181 114.768889,32.7366609 114.321111,35.0774527 C113.804444,37.8657487 112.771111,40.6884682 111.393333,43.1669535 C110.463333,44.7160069 109.326667,46.5060241 107.604444,47.2633391 C96.8922222,52.5301205 86.18,57.7969019 75.4677778,63.0636833 C73.5044444,64.0963855 71.61,64.5783133 70.2666667,66.4371773 C67.3388889,70.4991394 65.8233333,75.5938038 65.3411111,80.5507745 C65.2377778,82.0654045 65.3066667,84.2340792 66.4088889,85.4388985 C67.2355556,86.16179 67.9244444,85.5765921 68.7166667,85.232358 C69.8188889,84.6471601 70.9555556,84.1652324 72.0577778,83.5800344 C72.1611111,83.2702238 72.23,82.9259897 72.2644444,82.616179 L72.23,83.4767642 C79.2566667,80.1376936 86.2144444,76.5920826 93.2411111,73.2185886 C94.4466667,72.6333907 95.48,72.0137694 96.7888889,71.7039587 C98.1666667,71.3597246 99.6822222,71.8416523 100.612222,72.908778 C102.058889,74.4234079 102.644444,76.8330465 103.126667,78.7951807 C103.918889,82.6506024 103.746667,86.7814114 103.402222,90.6712565 C101.955556,103.13253 98.0633333,115.490534 91.5533333,126.26506 C89.4177778,129.672978 86.6966667,133.425129 83.0111111,135.283993 C68.8544444,142.237522 54.7322222,149.19105 40.5755556,156.144578 C38.0266667,157.487091 35.34,158.58864 32.86,160.034423 C32.86,160.378657 32.86,160.688468 32.8255556,160.998279 C32.8255556,160.688468 32.7911111,160.378657 32.7911111,160.068847 C31.31,160.481928 30.0355556,161.445783 28.5888889,161.893287 C27.8311111,162.065404 27.3144444,161.6179 26.97,160.963855 C26.1777778,159.277108 26.2122222,157.383821 26.4533333,155.55938 C26.97,151.772806 28.0377778,147.88296 29.8977778,144.509466 C30.7244444,142.994836 31.93,141.30809 33.48,140.516351 C45.26,134.767642 57.04,128.915663 68.82,123.166954 C69.9911111,122.581756 70.8522222,121.51463 71.5755556,120.447504 C73.3322222,117.728055 74.6411111,114.629948 75.2611111,111.428571 C75.7433333,108.846816 76.2255556,105.783133 75.3988889,103.2358 C75.02,102.168675 74.2966667,101.6179 73.1944444,102.099828 C64.3077778,106.471601 55.3177778,110.91222 46.4655556,115.24957 C45.8111111,115.662651 44.5366667,115.731497 44.2266667,116.488812 C44.1577778,116.316695 44.1233333,116.179002 44.0544444,116.006885 C42.0566667,116.247849 40.5755556,115.146299 39.6455556,113.459552 C37.9577778,110.223752 37.5788889,106.127367 37.4755556,102.547332 C37.6133333,98.2788296 38.0955556,94.010327 38.9566667,89.8106713 C40.8166667,80.2409639 44.2266667,70.9810671 49.0833333,62.5129088 C50.84,59.5524957 52.9411111,56.4888124 55.5588889,54.2168675 C57.2122222,52.7710843 59.0722222,51.979346 61.0011111,51.0499139 C78.0511111,42.7194492 95.1355556,34.3201377 112.116667,25.989673 Z" id="Shape" fill="#FFFFFF" fill-rule="nonzero"></path>
                <path d="M119.487778,33.1153184 C120.348889,33.4939759 120.762222,34.595525 120.865556,35.4561102 C121.106667,37.4526678 120.9,39.3803787 120.521111,41.3080895 C119.832222,45.3012048 118.385556,49.535284 115.836667,52.7366609 C114.734444,54.1824441 113.218889,54.6643718 111.668889,55.4561102 C100.612222,60.8605852 89.4522222,66.3683305 78.3955556,71.7728055 C77.19,72.4268503 76.26,73.6316695 75.5366667,74.767642 C74.09,77.1428571 72.8844444,79.8623064 72.2988889,82.5817556 C72.2644444,82.9259897 72.1955556,83.2358003 72.0922222,83.545611 C70.99,84.130809 69.8533333,84.6127367 68.7511111,85.1979346 C67.9244444,85.5421687 67.2355556,86.0929432 66.4433333,85.404475 C65.3411111,84.1996558 65.2722222,82.0309811 65.3755556,80.5163511 C65.8577778,75.5938038 67.3733333,70.464716 70.3011111,66.4027539 C71.6444444,64.5438898 73.5388889,64.0619621 75.5022222,63.0292599 C86.2144444,57.7624785 96.9266667,52.4956971 107.638889,47.2289157 C109.361111,46.4716007 110.497778,44.7160069 111.427778,43.1325301 C112.805556,40.6540448 113.804444,37.8313253 114.355556,35.0430293 C115.526667,34.4922547 116.663333,33.8726334 117.834444,33.3218589 C118.316667,33.1841652 118.971111,32.8743546 119.487778,33.1153184 Z" id="Shape" fill="#231F20" fill-rule="nonzero"></path>
                <path d="M103.161111,78.8296041 C104.125556,78.8984509 104.986667,78.8640275 105.813333,79.4492255 C107.466667,80.5851979 108.121111,82.3407917 108.706667,84.1652324 C109.843333,88.0550775 109.774444,92.3580034 109.567778,96.3855422 C108.5,107.745267 105.296667,119.036145 99.9922222,129.156627 C98.1666667,132.736661 95.9966667,136.351119 93.2411111,139.277108 C91.8977778,140.722892 90.3133333,141.962134 88.4877778,142.788296 C71.3344444,151.222031 54.1122222,159.655766 36.9933333,168.089501 C36.1322222,168.468158 35.0644444,169.225473 34.1,169.08778 C33.3077778,168.950086 33.0666667,168.227194 32.8255556,167.57315 C32.0677778,165.335628 32.4122222,163.2358 32.86,160.998279 C32.8944444,160.688468 32.8944444,160.344234 32.8944444,160.034423 C35.3744444,158.58864 38.0611111,157.487091 40.61,156.144578 C54.7666667,149.225473 68.9233333,142.237522 83.0455556,135.283993 C86.6966667,133.390706 89.4177778,129.672978 91.5877778,126.26506 C98.0977778,115.524957 101.99,103.13253 103.436667,90.6712565 C103.746667,86.7814114 103.953333,82.6850258 103.161111,78.8296041 Z" id="Shape" fill="#231F20" fill-rule="nonzero"></path>
                <path d="M73.2288889,102.168675 C74.3655556,101.686747 75.0888889,102.237522 75.4333333,103.304647 C76.26,105.851979 75.7777778,108.915663 75.2955556,111.497418 C73.5044444,112.048193 71.8511111,113.046472 70.1633333,113.872633 C64.9966667,116.385542 59.8644444,118.932874 54.6977778,121.480207 C53.4922222,122.065404 52.2522222,122.788296 50.9433333,123.166954 C49.6344444,123.442341 48.2911111,123.442341 47.2233333,122.547332 C45.5011111,121.204819 44.8122222,118.58864 44.2611111,116.557659 C44.5711111,115.834768 45.8455556,115.731497 46.5,115.318417 C55.3522222,110.946644 64.3422222,106.506024 73.2288889,102.168675 Z" id="Shape" fill="#231F20" fill-rule="nonzero"></path>
                <path d="M136.916667,142.857143 C138.914444,142.857143 140.912222,142.857143 142.944444,142.857143 C142.944444,143.339071 142.944444,143.820998 142.944444,144.302926 C142.221111,144.302926 141.532222,144.302926 140.808889,144.302926 C140.74,146.333907 140.774444,148.364888 140.774444,150.395869 C140.223333,150.395869 139.672222,150.430293 139.155556,150.430293 C139.155556,148.399312 139.155556,146.333907 139.155556,144.302926 C138.432222,144.302926 137.674444,144.302926 136.951111,144.337349 C136.916667,143.820998 136.916667,143.339071 136.916667,142.857143 Z" id="Shape" fill="#231F20" fill-rule="nonzero"></path>
                <path d="M143.84,142.857143 C144.563333,142.857143 145.321111,142.822719 146.044444,142.891566 C146.664444,144.612737 146.905556,146.609294 147.353333,148.364888 C148.076667,146.643718 148.111111,144.612737 148.8,142.891566 C149.523333,142.822719 150.281111,142.857143 151.004444,142.857143 C151.038889,145.370052 151.038889,147.917384 151.004444,150.430293 C150.487778,150.430293 150.005556,150.430293 149.488889,150.430293 C149.454444,148.468158 149.592222,146.574871 149.316667,144.612737 C149.075556,146.609294 148.558889,148.502582 148.145556,150.464716 C147.628889,150.430293 147.077778,150.430293 146.561111,150.395869 C146.216667,148.571429 145.803333,146.746988 145.458889,144.888124 C145.252222,146.746988 145.355556,148.537005 145.321111,150.430293 C144.804444,150.430293 144.287778,150.430293 143.805556,150.430293 C143.805556,147.917384 143.805556,145.370052 143.84,142.857143 Z" id="Shape" fill="#231F20" fill-rule="nonzero"></path>
            </g>
        </g>
    </g>
</svg>