<?xml version="1.0" encoding="UTF-8"?>
<svg width="200px" height="200px" viewBox="0 0 200 200" version="1.1" xmlns="http://www.w3.org/2000/svg" xmlns:xlink="http://www.w3.org/1999/xlink">
    <!-- Generator: Sketch 54.1 (76490) - https://sketchapp.com -->
    <title>albany-ny</title>
    <desc>Created with Sketch.</desc>
    <g id="albany-ny" stroke="none" stroke-width="1" fill="none" fill-rule="evenodd">
        <g id="albany-ny_BGD" transform="translate(0.000000, -0.000000)">
            <g id="albany-ny" transform="translate(0.000000, 29.000000)">
                <g id="g10" transform="translate(100.000000, 71.393721) scale(-1, 1) rotate(-180.000000) translate(-100.000000, -71.393721) translate(0.000000, 0.893721)" fill-rule="nonzero">
                    <g id="g12">
                        <path d="M117.817388,5.88748778 L159.995648,5.88748778 L159.995648,19.5531396 L152.031397,19.4527531 L146.711591,34.3946368 C143.885987,35.1560378 137.71932,36.8004822 135.122219,37.3569556 C133.472944,37.7105788 129.63961,38.370144 126.51304,38.8938155 L132.670045,19.6537193 L117.817388,19.6004826 L117.817388,5.88748778 Z M165.792749,0.090390819 L112.020287,0.090390819 L112.020287,25.3768593 L124.73961,25.4227047 L118.099997,46.1420761 L122.766664,45.3874385 C123.191301,45.3189361 133.201446,43.6975351 136.337195,43.0255545 C139.898547,42.2622212 149.297581,39.7009169 149.696132,39.5922212 L151.156518,39.1942019 L156.102895,25.3019317 L165.792749,25.4242023 L165.792749,0.090390819 L165.792749,0.090390819 Z" id="path16" fill="#3E1A61"></path>
                        <path d="M87.6681138,134.37391 L80.7082105,114.996132 L74.6463749,97.9884033 C77.1589353,98.3309154 80.010626,98.707727 81.4313989,98.8516883 C83.8396114,99.0961328 87.8565195,99.3705289 90.2400944,99.5246352 L92.8724614,107.175843 L98.7661811,124.625601 L107.071495,99.8164226 C114.149756,99.476326 115.803862,99.3178719 116.825118,99.2198043 C117.063282,99.197099 117.258451,99.1777753 117.495166,99.1613502 C118.925601,99.0608671 122.294683,98.5922681 125.174393,98.1695628 L119.251688,114.802413 L112.397582,134.37391 L87.6681138,134.37391 Z M65.9705298,90.9135243 L75.2497566,116.949272 L83.5903361,140.171011 L116.509659,140.171011 L124.717871,116.732847 L133.8942,90.9637658 L129.082605,91.7154566 C126.428499,92.1299494 119.10048,93.2371957 117.088403,93.3787416 C116.80048,93.3990315 116.562799,93.4212537 116.272461,93.4487899 C115.284538,93.543959 113.445408,93.7198044 104.818838,94.1193213 L102.83478,94.2111088 L98.7420265,106.437195 L98.3594178,105.305311 L94.4623165,93.9763262 L92.5265677,93.859901 C92.4560363,93.8555532 85.4130413,93.4289832 82.0169062,93.0845387 C79.3280173,92.8115919 70.8048291,91.6009639 70.7193219,91.5888866 L65.9705298,90.9135243 L65.9705298,90.9135243 Z" id="path18" fill="#3E1A61"></path>
                        <path d="M39.1983565,19.5048304 L39.1983565,5.80729454 L79.2028966,5.87787425 L79.2028966,19.5685985 L64.2106264,19.4812556 L70.4299499,38.3169073 C67.503863,37.8319314 64.3053124,37.2807237 63.113525,37.00483 C61.876327,36.7189363 61.02367,36.5477769 60.2705299,36.3966174 C58.5574865,36.0531875 57.2787425,35.7961344 52.4637668,34.367632 L50.4975833,28.3584534 L47.3998056,19.5048304 L39.1983565,19.5048304 Z M33.4012552,0 L33.4012552,25.3019317 L43.2865207,25.3019317 L45.0160375,30.2449268 L47.8956993,39.0502406 L49.3449263,39.485941 C55.6347812,41.3786946 57.1768102,41.6883564 59.1299502,42.0801439 C59.8787425,42.2309168 60.6531386,42.3860376 61.8077279,42.6532356 C64.3656989,43.2438637 73.8251189,44.7420279 74.2265682,44.805796 L78.9222202,45.5478249 L72.2449257,25.3255066 L84.9999979,25.3995163 L84.9999979,0.0907685968 L33.4012552,0 L33.4012552,0 Z" id="path20" fill="#3E1A61"></path>
                        <path d="M129.529948,94.5792247 L121.982123,115.774876 L114.45362,137.27246 L85.6289834,137.27246 L77.9801913,115.976326 L70.3111094,94.4584517 C70.3111094,94.4584517 78.9463748,95.6859879 81.7241525,95.9681135 C85.2198046,96.3227029 92.3521716,96.7531377 92.3521716,96.7531377 L95.6135242,106.232848 L98.7541038,115.531398 L101.853621,106.272944 L104.953137,97.0144903 C115.822219,96.5115918 115.978741,96.3623164 117.291785,96.2700459 C119.868113,96.0888865 129.529948,94.5792247 129.529948,94.5792247" id="path22" fill="#FFFFFF"></path>
                        <path d="M86.3086935,136.306277 L78.88937,115.649272 L71.757003,95.6376788 C74.3898532,96.0062778 79.5613507,96.7198043 81.626568,96.9294662 C84.484539,97.2193212 89.8072441,97.5623164 91.6483069,97.6777753 L94.6999976,106.54734 L98.7579685,118.562799 L105.659418,97.9487898 C113.818838,97.5671473 115.579707,97.3980652 116.642992,97.2961328 C116.898065,97.2719782 117.10676,97.2516884 117.3599,97.233814 C119.328499,97.0956497 125.204828,96.2188382 128.076325,95.7806739 L121.071978,115.450722 L113.768113,136.306277 L86.3086935,136.306277 Z M68.8642495,93.2768093 L77.0700464,116.30048 L84.9497563,138.238644 L115.139128,138.238644 L122.8942,116.0942 L130.985021,93.3739107 L129.380673,93.6246353 C129.284538,93.6396112 119.730432,95.1299493 117.223669,95.3062778 C116.95362,95.3251184 116.730915,95.3468575 116.458451,95.3724614 C115.385021,95.4753599 113.58792,95.6478237 104.908693,96.049273 L104.24734,96.0801908 L98.7502391,112.499997 L96.5289831,105.923669 L93.0555532,95.8275338 L92.4106257,95.7884034 C92.3391281,95.7840556 85.2574858,95.3555532 81.8217371,95.0067609 C79.094684,94.7299493 70.5333316,93.5144904 70.4468581,93.50193 L68.8642495,93.2768093 L68.8642495,93.2768093 Z" id="path24" fill="#FFFFFF"></path>
                        <path d="M198.551203,63.6816409 C169.312073,83.5521718 135.171011,94.0555532 99.8188381,94.0555532 C64.466182,94.0555532 30.32512,83.5521718 1.08601447,63.6816409 L0,65.2797085 C29.5604824,85.36908 64.0772931,95.9879203 99.8188381,95.9879203 C135.559417,95.9879203 170.076807,85.36908 199.637193,65.2797085 L198.551203,63.6816409" id="path26" fill="#3E1A61"></path>
                        <path d="M129.42077,93.5555532 L114.162799,136.844441 L85.9149737,136.844441 L70.4202881,93.4371957 C70.4202881,93.4371957 79.3656985,94.6400943 82.0879207,94.9169058 C85.5140075,95.2647319 91.5371958,95.6859879 91.5371958,95.6859879 L98.7772922,115.538161 L105.818355,95.9420266 C116.470528,95.449273 115.657485,95.3033793 116.944442,95.212558 C119.469079,95.0352633 129.42077,93.5555532 129.42077,93.5555532" id="path28" fill="#EDAC09"></path>
                        <path d="M122.303862,42.5260376 L125.516905,32.5077287 L128.704828,22.5381154 L121.811591,22.5135743 L114.918838,22.4885019 L114.918838,12.7386953 L114.918838,2.98894195 L138.906277,2.98894195 L162.894199,2.98894195 L162.894199,12.7386953 L162.894199,22.4885019 L158.481155,22.4328014 L154.067146,22.3773424 L151.499996,29.586521 L148.93333,36.7961343 C148.93333,36.7961343 139.254103,39.4363275 135.729948,40.1913517 C132.629948,40.8556028 122.303862,42.5260376 122.303862,42.5260376" id="path30" fill="#FFFFFF"></path>
                        <path d="M115.885021,3.9551255 L161.928015,3.9551255 L161.928015,21.510241 L153.388885,21.4024632 L148.19275,35.995603 C146.18647,36.5396609 138.535262,38.6018831 135.527533,39.2462792 C133.208692,39.7435256 126.708692,40.8252164 123.705794,41.3179217 L130.026567,21.5768594 L115.885021,21.5256999 L115.885021,3.9551255 Z M163.860382,2.0227584 L113.952654,2.0227584 L113.952654,23.4516419 L127.383089,23.4995646 L120.902896,43.7313033 L122.457968,43.4801438 C122.880673,43.4116414 132.843958,41.7976318 135.932364,41.1362309 C139.442509,40.3836222 148.791301,37.8362792 149.187436,37.7279701 L149.674392,37.5951198 L154.745407,23.3522216 L163.860382,23.4671492 L163.860382,2.0227584 L163.860382,2.0227584 Z" id="path32" fill="#FFFFFF"></path>
                        <path d="M74.6792252,41.9425593 L71.4536214,32.1724147 L68.2275345,22.4033811 L75.1647324,22.4439608 L82.1014472,22.484154 L82.1014472,12.7338161 L82.1014472,2.98403374 L59.2004816,2.94346369 L36.2998059,2.90345886 L36.2998059,12.6536229 L36.2998059,22.4033811 L40.8214483,22.4033811 L45.3432356,22.4033811 L47.7617379,29.3155548 L50.180192,36.7106271 C58.7371966,39.2855546 58.1937184,38.8424628 62.460868,39.8290328 C64.9487906,40.4038154 74.6792252,41.9425593 74.6792252,41.9425593" id="path34" fill="#FFFFFF"></path>
                        <path d="M37.2659894,21.4371975 L37.2659894,3.87152647 L81.1352637,3.94871005 L81.1352637,21.5121251 L66.8884041,21.4290816 L73.2637663,40.7376801 C70.4130417,40.2783565 64.5048293,39.3100956 62.6782593,38.8879217 C61.4685975,38.6082599 60.6304333,38.4395643 59.8903367,38.2908686 C58.0169068,37.9149749 56.6492739,37.6411585 50.9415446,35.9305305 L48.680192,29.0149268 L46.0286462,21.4371975 L37.2659894,21.4371975 Z M35.3336223,1.93576324 L35.3336223,23.3695646 L44.65768,23.3695646 L46.849709,29.6342988 L49.4188393,37.4903855 L49.9019311,37.6356995 C56.1043464,39.5019797 57.6072449,39.803912 59.5101434,40.1855062 C60.2371966,40.3319314 61.060868,40.4970521 62.2429936,40.7700956 C64.7352641,41.3468106 74.1294667,42.8338154 74.5280175,42.8970521 L76.0937179,43.1440569 L69.5666649,23.3772941 L83.0676308,23.4556033 L83.0676308,2.01973908 L35.3336223,1.93576324 L35.3336223,1.93576324 Z" id="path36" fill="#FFFFFF"></path>
                        <path d="M122.495649,43.7588878 L129.252171,22.2382603 L115.258451,22.1899511 L115.258451,3.56336706 L162.274875,3.56336706 L162.274875,22.1899511 L153.624151,22.0806758 L148.109658,38.6265691 C137.9599,41.3951197 138.777291,40.8014483 135.65362,41.4705787 C132.615939,42.1218347 122.495649,43.7588878 122.495649,43.7588878" id="path38" fill="#3E1A61"></path>
                        <path d="M74.6946841,43.4903371 L67.4057954,21.9261347 L81.4850221,22.0054101 L81.4850221,3.37881151 L36.5996609,3.29993228 L36.5996609,21.9261347 L45.9450713,21.9261347 L51.1685978,38.3633324 C59.5541048,40.8859893 58.0555541,40.4521246 62.2376796,41.4188879 C64.6753607,41.9825593 74.6946841,43.4903371 74.6946841,43.4903371" id="path40" fill="#EDAC09"></path>
                        <polyline id="path42" fill="#3E1A61" points="74.6545875 43.4903371 67.3656988 21.9261347 81.4449255 22.0054101 81.4449255 3.37881151 36.5592744 3.29993228 71.8207712 43.1902888 74.6545875 43.4903371"></polyline>
                        <path d="M24.592753,28.0410138 L23.5926081,30.2390814 C48.5091775,41.5758927 74.130916,47.3246848 99.7468574,47.3246848 C125.362316,47.3246848 150.984054,41.5758927 175.900479,30.2390814 L174.900479,28.0410138 C150.299996,39.2338638 125.014973,44.9092259 99.7468574,44.9092259 C74.4787421,44.9092259 49.1932355,39.2338638 24.592753,28.0410138" id="path44" fill="#3E1A61"></path>
                        <path d="M6.06637666,56.6038633 C5.36570035,56.1478247 4.66749747,55.6859889 3.97192261,55.2188392 C3.97192261,57.7396121 3.97192261,60.2599019 3.97192261,62.7801917 C7.938937,65.4444428 11.9895649,67.9265684 16.1118837,70.2265683 C16.1118837,67.7062785 16.1118837,65.1855056 16.1118837,62.6652158 C15.4279706,62.2835733 14.74599,61.8970999 14.0662798,61.5057956 C14.0662798,51.4526557 14.0662798,41.3994676 14.0662798,31.3458446 C14.0689368,25.7304824 14.9333813,23.5754583 17.8157,25.1507723 C20.8223666,26.7738641 21.8444439,30.0260379 21.8417869,35.9686464 C21.8417869,45.8859892 21.8417869,55.8038633 21.8417869,65.7212544 C21.1473425,65.3676312 20.4543956,65.008694 19.7637193,64.6449259 C19.7637193,67.1652157 19.7637193,69.6859886 19.7637193,72.2062784 C23.6516902,74.2536213 27.5992747,76.1420271 31.5973905,77.8714956 C31.5973905,75.3512058 31.5973905,72.830433 31.5973905,70.3101432 C30.846376,69.9855055 30.0971973,69.6550707 29.3497094,69.3188388 C29.3497094,60.4304333 29.3497094,51.5425108 29.3497094,42.65454 C29.3669075,28.9521249 25.7823665,21.2198062 17.5805793,16.8121735 C9.35932344,12.2680673 6.08429936,15.8299513 6.06637666,28.8014969 C6.06637666,38.0685981 6.06637666,47.3361824 6.06637666,56.6038633" id="path46" fill="#3E1A61"></path>
                        <path d="M4.76222693,56.6164237 C5.45990325,57.0792256 6.15999985,57.5367135 6.86256021,57.9884043 C6.86256021,48.4309167 6.86256021,38.873429 6.86256021,29.316521 C6.87782592,16.667246 9.96454081,13.4767629 17.5805793,17.6817387 C25.1477771,21.7540574 28.5173423,28.8247336 28.502608,42.2711101 C28.502608,51.448791 28.502608,60.6265685 28.502608,69.8043461 C29.2487432,70.1449258 29.9966176,70.4797084 30.7461345,70.8086939 C30.7461345,72.7492735 30.7461345,74.6903363 30.7461345,76.630916 C27.3222215,75.1280174 23.9358931,73.5077276 20.5930913,71.7705296 C20.5930913,69.8299499 20.5930913,67.8888872 20.5930913,65.9483075 C21.2854584,66.3082109 21.9797096,66.6628003 22.6756999,67.0125587 C22.6756999,56.8053126 22.6756999,46.5981631 22.6756999,36.3903856 C22.6813521,31.4058929 22.0684052,26.5632361 17.8157,24.2812071 C13.7868112,22.0680671 13.2569079,26.1024148 13.2518354,30.874492 C13.2518354,41.217342 13.2518354,51.5599021 13.2518354,61.902897 C13.930048,62.2985492 14.6103378,62.6888873 15.2927049,63.0748777 C15.2927049,65.0154573 15.2927049,66.956037 15.2927049,68.8970997 C11.725362,66.8811577 8.21275342,64.7285008 4.76222693,62.4386458 C4.76222693,60.497583 4.76222693,58.5570034 4.76222693,56.6164237 Z M17.5805793,15.9429948 C8.92966161,11.1622703 5.29154576,14.5874876 5.27231871,28.2816418 C5.27231871,37.2594194 5.27231871,46.2371486 5.27231871,55.2144914 C4.57352162,54.7541049 3.87718831,54.2884044 3.1834975,53.8169069 C3.1834975,56.9169068 3.1834975,60.0173898 3.1834975,63.1173897 C7.66434763,66.1623172 12.2529949,68.9739113 16.9333329,71.5512059 C16.9333329,68.451206 16.9333329,65.3512061 16.9333329,62.2512062 C16.2477291,61.8734284 15.5642508,61.4908197 14.8826083,61.1033801 C14.8826083,51.3400953 14.8826083,41.5768589 14.8826083,31.8134775 C14.8833813,25.6304825 15.9980672,25.0318834 17.8157,26.0203375 C19.353671,26.8584051 21.0095647,28.3178737 21.0097579,35.5419798 C21.0097579,45.1700472 21.0097579,54.7971001 21.0097579,64.4251192 C20.3168594,64.0671482 19.6254101,63.7043462 18.9360865,63.3367134 C18.9360865,66.4367133 18.9360865,69.5371963 18.9360865,72.6371963 C23.3665695,75.0009643 27.875893,77.157486 32.4501924,79.1072444 C32.4501924,76.0072445 32.4501924,72.9072446 32.4501924,69.8067615 C31.6979702,69.4864717 30.9472939,69.1599017 30.1983084,68.8280176 C30.1983084,60.2299502 30.1983084,51.6313997 30.1983084,43.0332839 C30.2168108,28.5531877 26.1911105,20.5715937 17.5805793,15.9429948 L17.5805793,15.9429948 Z" id="path48" fill="#EDAC09"></path>
                        <path d="M46.7847814,60.1120758 C46.2550713,63.129467 45.7261341,66.1444428 45.1975834,69.15652 C45.0539602,69.8589355 44.7661825,72.451689 44.1904337,76.6951672 C43.5197574,72.0256021 43.0889361,69.1231867 42.9449748,68.1966167 C42.4028009,64.8797085 41.8612067,61.5603849 41.3205787,58.2376797 C43.1338637,58.8942014 44.9552646,59.5188391 46.7847814,60.1120758 L46.7847814,60.1120758 Z M31.9554098,42.401883 C32.1993712,42.5068105 32.4435741,42.6111584 32.6879702,42.7149265 C34.9252648,55.2541049 37.1782599,67.7434766 39.4448299,80.184056 C42.4467622,81.3101429 45.4728974,82.3492733 48.5198056,83.3019303 C50.7884045,72.4212542 53.0685977,61.4927521 55.3584527,50.5159408 C55.8454092,50.6463755 56.3328488,50.7743949 56.8212546,50.9004818 C56.8212546,48.8787427 56.8212546,46.857052 56.8212546,44.8352646 C53.4048296,43.9530424 50.0096606,42.9638637 46.6406269,41.868598 C46.6406269,43.889854 46.6406269,45.9116414 46.6406269,47.9332838 C47.3141051,48.1521727 47.9893225,48.3676316 48.6652162,48.5777766 C48.342994,50.6458925 48.0212065,52.712076 47.6996606,54.7777764 C45.2411583,53.9956508 42.7966656,53.1570035 40.3673903,52.2613514 C40.0181149,49.9647331 39.6688396,47.6671969 39.3200956,45.3675834 C40.0332357,45.6357477 40.7476801,45.8989844 41.4634289,46.1575351 C41.4634289,44.1356994 41.4634289,42.1141052 41.4634289,40.0922695 C38.2661343,38.9381633 35.0951199,37.6864242 31.9554098,36.3368107 C31.9554098,38.3584531 31.9554098,40.3802405 31.9554098,42.401883 L31.9554098,42.401883 Z" id="path50" fill="#3E1A61"></path>
                        <path d="M42.3531873,59.4772932 C43.4833322,59.8782594 44.6169071,60.2671483 45.7537187,60.6434767 C45.2806269,63.3391289 44.8080665,66.0323655 44.3365206,68.7236698 C44.2806269,68.9946843 44.2066656,69.5217374 44.101738,70.3275345 C43.966424,69.4149741 43.8651197,68.7429935 43.8047332,68.3541046 C43.3202888,65.3975829 42.8364724,62.4386458 42.3531873,59.4772932 L42.3531873,59.4772932 Z M47.8177766,59.5743946 C45.2936221,58.7729454 42.7836221,57.9125589 40.2900473,56.991786 C40.8884531,60.6787424 41.4875835,64.3618341 42.0880666,68.0420273 C42.2486463,69.0787422 42.7060859,72.1840562 43.3282598,76.5270512 C43.9034289,76.7212541 44.4793709,76.9125585 45.0560375,77.0999981 C45.3132356,75.2077276 45.5127042,73.6429933 45.6682114,72.4270513 C45.8571003,70.9468581 45.9822211,69.9681142 46.0563757,69.6043461 C46.6428974,66.2642496 47.2299505,62.9207714 47.8177766,59.5743946 Z M47.5166172,43.0199023 C50.3057958,43.9105786 53.112076,44.728453 55.933815,45.4734771 C55.933815,46.915023 55.933815,48.3570036 55.933815,49.7990326 C55.4975832,49.6840567 55.0623175,49.5676316 54.6275349,49.448791 C52.3396122,60.4154574 50.0618345,71.3338146 47.7956993,82.2043458 C45.2340085,81.3908192 42.6870038,80.51594 40.1570038,79.5797082 C37.8874387,67.1497568 35.6312068,54.67053 33.3908687,42.1414482 C33.1967141,42.0602888 33.0025113,41.9787912 32.8087431,41.8967139 C32.8087431,40.4545884 32.8087431,39.0125111 32.8087431,37.5705788 C35.3847817,38.6613034 37.9812068,39.6865691 40.5957478,40.645941 C40.5957478,42.0884047 40.5957478,43.5299506 40.5957478,44.9720762 C39.8305304,44.6912549 39.0670522,44.4053612 38.30483,44.112511 C38.7462309,47.029564 39.1878251,49.9444432 39.6301439,52.8574866 C42.5507719,53.949274 45.4945882,54.9589358 48.4574867,55.886472 C48.8656993,53.2666653 49.2743949,50.6454094 49.6830905,48.0221727 C48.9599022,47.8019312 48.2374867,47.5762307 47.5166172,47.3463756 C47.5166172,45.9042984 47.5166172,44.462366 47.5166172,43.0199023 L47.5166172,43.0199023 Z M57.7091773,44.1927042 C53.6971001,43.1797091 49.7125591,42.0187912 45.7654095,40.7115932 C45.7654095,43.313139 45.7654095,45.9144916 45.7654095,48.5154577 C46.3922694,48.7231872 47.0202887,48.9270519 47.6488877,49.127535 C47.4131872,50.6405784 47.1778732,52.1536219 46.9425592,53.6656991 C44.9877283,53.0338151 43.0419796,52.3661823 41.1058444,51.6623175 C40.849371,49.9806751 40.5930908,48.2985978 40.3370521,46.6158926 C41.0011101,46.8608684 41.6658927,47.1020278 42.3322212,47.3380664 C42.3322212,44.7367622 42.3322212,42.1352163 42.3322212,39.5342502 C38.5505304,38.1917865 34.8050716,36.7134773 31.1035741,35.0985015 C31.1035741,37.7000474 31.1035741,40.3013516 31.1035741,42.902511 C31.3973905,43.0304337 31.6915934,43.1580182 31.9859412,43.2844434 C34.2200475,55.833815 36.4698542,68.3342978 38.7335739,80.784539 C42.2061825,82.105312 45.7117863,83.3086936 49.2449263,84.3961332 C51.5154576,73.5053122 53.7980663,62.566182 56.0898537,51.5792258 C56.6294672,51.7212547 57.1690807,51.8603852 57.7091773,51.9966171 C57.7091773,49.3951678 57.7091773,46.79425 57.7091773,44.1927042 L57.7091773,44.1927042 Z" id="path52" fill="#EDAC09"></path>
                        <path d="M59.9135251,51.6681147 C60.5990323,51.8318828 61.2855057,51.991303 61.9729453,52.1463755 C61.9729453,61.797583 61.9729453,71.4492736 61.9729453,81.1004811 C61.2855057,80.9454086 60.5990323,80.7864714 59.9135251,80.6227033 C59.9135251,82.5608675 59.9135251,84.4990317 59.9135251,86.4371959 C63.8318825,87.3724616 67.7758437,88.1671476 71.7376794,88.8227031 C71.7376794,86.8845389 71.7376794,84.9463747 71.7376794,83.0077274 C70.7637663,82.8468578 69.7913026,82.6772926 68.819805,82.4995148 C68.819805,72.8478243 68.819805,63.1966168 68.819805,53.5449262 C70.6478243,53.8797088 72.4801914,54.1850228 74.3154571,54.4603851 C74.3154571,57.2536218 74.3154571,60.0468584 74.3154571,62.840095 C76.4492735,63.1599018 78.5879207,63.4396119 80.7294666,63.6787424 C80.7294666,58.8637666 80.7294666,54.0487909 80.7294666,49.2338152 C73.7396117,48.4531389 66.7874379,47.242994 59.9135251,45.6032839 C59.9135251,47.6251196 59.9135251,49.6468587 59.9135251,51.6681147" id="path54" fill="#3E1A61"></path>
                        <path d="M60.8053125,46.6827041 C67.0908196,48.146907 73.441061,49.2521727 79.8236695,49.9995157 C79.8236695,54.2347813 79.8236695,58.4700468 79.8236695,62.7057955 C78.2864715,62.5256023 76.7512058,62.3251192 75.2188387,62.1033801 C75.2188387,59.3101434 75.2188387,56.5169068 75.2188387,53.7236702 C72.7797083,53.3710132 70.3463751,52.9661823 67.9212543,52.5086943 C67.9212543,62.739612 67.9212543,72.9705296 67.9212543,83.2019303 C68.8917857,83.3850221 69.8637664,83.5594182 70.8371963,83.7260849 C70.8371963,85.0845389 70.8371963,86.4434761 70.8371963,87.8019302 C67.4782592,87.2275341 64.1323655,86.5531379 60.8053125,85.7782587 C60.8053125,84.4198047 60.8053125,83.0608675 60.8053125,81.7024134 C61.4913028,81.8623168 62.1782593,82.0178723 62.866182,82.1690801 C62.866182,71.9381625 62.866182,61.7067617 62.866182,51.4758441 C62.1782593,51.3246364 61.4913028,51.1690808 60.8053125,51.0091775 C60.8053125,49.5671485 60.8053125,48.1251679 60.8053125,46.6827041 L60.8053125,46.6827041 Z M81.6362298,48.4632838 C74.0386455,47.6551196 66.4830901,46.3405786 59.0227038,44.5187912 C59.0227038,47.120337 59.0227038,49.7217379 59.0227038,52.322704 C59.707728,52.4898538 60.3937183,52.6531388 61.0801917,52.812076 C61.0801917,61.8835733 61.0801917,70.9555538 61.0801917,80.0270511 C60.3937183,79.868597 59.707728,79.705312 59.0227038,79.5381623 C59.0227038,82.0560366 59.0227038,84.574394 59.0227038,87.0917853 C63.5309163,88.1927514 68.0734282,89.1082103 72.6391286,89.8386451 C72.6391286,87.3212539 72.6391286,84.8033795 72.6391286,82.2850221 C71.6647325,82.1294665 70.6913026,81.9647323 69.7188388,81.7922685 C69.7188388,72.720288 69.7188388,63.6487907 69.7188388,54.5768102 C70.9487905,54.7951677 72.1801914,55.0004817 73.4130416,55.1917861 C73.4130416,57.9850227 73.4130416,60.7787424 73.4130416,63.5719791 C76.1473411,63.9966168 78.8888869,64.3550709 81.6362298,64.6473414 C81.6362298,59.2526555 81.6362298,53.8579697 81.6362298,48.4632838 L81.6362298,48.4632838 Z" id="path56" fill="#EDAC09"></path>
                        <path d="M94.1671474,56.0816411 C97.5198043,56.1840566 98.7212536,57.728501 98.7207705,62.5512062 C98.7212536,66.7985491 97.4198043,68.6864717 94.317872,68.593235 C93.6342972,68.5710128 92.9507223,68.5449258 92.2676305,68.5149741 C92.2676305,64.3458921 92.2676305,60.1772932 92.2676305,56.0086943 C92.9004808,56.0362305 93.5338141,56.0608682 94.1671474,56.0816411 L94.1671474,56.0816411 Z M93.7671474,74.2033798 C96.7690797,74.3033798 97.9700459,75.9217372 97.9700459,79.7410608 C97.9700459,83.863766 96.8700459,85.5623167 93.7671474,85.4599012 C93.2671474,85.4420268 92.7671474,85.4222201 92.2676305,85.400481 C92.2676305,81.6483071 92.2676305,77.8961333 92.2676305,74.1439595 C92.7671474,74.1656986 93.2671474,74.1855054 93.7671474,74.2033798 L93.7671474,74.2033798 Z M83.3256018,55.5690807 C84.0236694,55.6362305 84.7222201,55.6990324 85.4207708,55.7579696 C85.4207708,65.4091771 85.4207708,75.0608677 85.4207708,84.7120752 C84.7222201,84.6536211 84.0236694,84.590336 83.3256018,84.5231863 C83.3256018,86.4613505 83.3256018,88.3995147 83.3256018,90.338162 C87.4313988,90.7338142 91.5483069,90.9816402 95.6681136,91.0816402 C101.923669,91.2111088 104.777292,88.1647321 104.776809,81.1188386 C104.776809,75.9222203 103.125601,73.1850223 99.5212536,72.30966 C99.5212536,72.1642494 99.5212536,72.0183557 99.5212536,71.8729451 C103.627534,71.1835731 105.677775,67.6381626 105.677775,61.7053125 C105.678258,53.1043465 102.324635,50.4227041 94.4173889,50.2125591 C90.7149736,50.0956509 87.0159399,49.859419 83.3256018,49.5038635 C83.3256018,51.5251195 83.3256018,53.5468586 83.3256018,55.5690807 L83.3256018,55.5690807 Z" id="path58" fill="#3E1A61"></path>
                        <path d="M93.1772924,75.0507228 C93.3739107,75.0584522 93.5705291,75.0656986 93.7671474,75.072945 C95.8521715,75.1449257 97.059901,75.9038628 97.0594179,79.7285004 C97.059901,83.9077274 95.9502391,84.6656984 93.7671474,84.590336 C93.5705291,84.5835728 93.3739107,84.5763264 93.1772924,84.5685969 C93.1772924,81.3961332 93.1772924,78.2236695 93.1772924,75.0507228 L93.1772924,75.0507228 Z M93.7671474,73.3338146 C92.9637658,73.3053122 92.1603842,73.2714958 91.3574856,73.2318822 C91.3574856,77.5637662 91.3574856,81.8956501 91.3574856,86.227051 C92.1603842,86.2671476 92.9637658,86.300964 93.7671474,86.3294664 C98.2724613,86.4671476 98.8811569,83.0410607 98.8806739,79.7483072 C98.8811569,77.0256019 98.349756,73.4734281 93.7671474,73.3338146 Z M93.1772924,56.9154575 C93.507244,56.928501 93.8371957,56.9400952 94.1671474,56.9512063 C96.6855048,57.0304334 97.8106256,57.8246362 97.8101425,62.5425105 C97.8101425,66.9048292 96.4135242,67.7903365 94.317872,67.7236698 C93.9376788,67.7115925 93.5574856,67.6980659 93.1772924,67.6830901 C93.1772924,64.0942013 93.1772924,60.5048294 93.1772924,56.9154575 L93.1772924,56.9154575 Z M94.1671474,55.2120759 C93.2304325,55.181158 92.2937175,55.1425107 91.3574856,55.096617 C91.3574856,59.844926 91.3574856,64.5937182 91.3574856,69.3420273 C92.343959,69.3908195 93.3309155,69.4309161 94.317872,69.4628002 C99.0801908,69.5913026 99.6318816,65.5429935 99.6313985,62.5545878 C99.6318816,58.1898536 98.7014468,55.3420276 94.1671474,55.2120759 Z M84.2328481,50.4579698 C87.62222,50.7666654 91.0188383,50.9743949 94.4173889,51.0816412 C102.058935,51.2797089 104.768113,53.8468586 104.76763,61.7338149 C104.76763,67.2391288 102.949756,70.4183557 99.3637656,71.0164233 C99.1125579,71.0574861 98.8618333,71.0985489 98.6106256,71.1386456 C98.6106256,71.7526552 98.6106256,72.3671479 98.6106256,72.9816407 C98.839128,73.0386455 99.0681135,73.0951673 99.2966159,73.151689 C101.424635,73.6801914 103.866664,75.004829 103.866664,81.14251 C103.866664,87.5681138 101.490819,90.3313987 95.6681136,90.212075 C91.8516885,90.1193214 88.037679,89.8999978 84.2328481,89.5536209 C84.2328481,88.1946838 84.2328481,86.8362297 84.2328481,85.4777756 C84.9313988,85.5415438 85.6299496,85.600481 86.3294664,85.6555534 C86.3294664,75.4246358 86.3294664,65.1932351 86.3294664,54.9623175 C85.6299496,54.907245 84.9313988,54.8478247 84.2328481,54.7845397 C84.2328481,53.3425107 84.2328481,51.8999987 84.2328481,50.4579698 L84.2328481,50.4579698 Z M94.4173889,49.3429939 C90.4115919,49.2164239 86.4096597,48.9502403 82.4183554,48.5444432 C82.4183554,51.1458924 82.4183554,53.7473417 82.4183554,56.3483078 C83.116423,56.4193223 83.8144907,56.4859889 84.5130414,56.5483078 C84.5130414,65.6202882 84.5130414,74.6922687 84.5130414,83.763766 C83.8144907,83.7014472 83.116423,83.6347805 82.4183554,83.563766 C82.4183554,86.0816404 82.4183554,88.5995147 82.4183554,91.117389 C86.8251186,91.5656982 91.2449253,91.843476 95.6681136,91.9512054 C102.504345,92.091302 105.687437,88.442993 105.686954,81.0903361 C105.686954,76.4729449 104.354587,73.5603846 101.624152,72.1545876 C105.672944,70.3367132 106.58792,65.5574863 106.58792,61.6719791 C106.588886,52.8405784 103.062316,49.5666654 94.4173889,49.3429939 L94.4173889,49.3429939 Z" id="path60" fill="#EDAC09"></path>
                        <path d="M122.548789,66.9942012 C122.001929,70.2560369 121.455069,73.514974 120.907726,76.7714957 C120.757485,77.5410609 120.458451,80.2671478 119.862799,84.7768095 C119.163765,80.4183555 118.716422,77.7159401 118.56763,76.8555536 C118.002896,73.7908194 117.437195,70.7231866 116.871978,67.6526553 C118.766664,67.4647326 120.659417,67.2449259 122.548789,66.9942012 L122.548789,66.9942012 Z M106.983089,56.2154575 C107.12222,56.2101435 107.26135,56.2038633 107.40048,56.1980662 C109.785021,67.6830901 112.16763,79.1188386 114.546374,90.5048287 C117.817388,90.2251185 121.082123,89.8512055 124.336229,89.3840557 C126.669562,77.4594184 128.997581,65.4864718 131.31932,53.4652161 C131.813523,53.3734286 132.307726,53.2792257 132.801446,53.1830905 C132.801446,51.1613514 132.801446,49.1396123 132.801446,47.1178732 C129.348306,47.7908201 125.878741,48.3574867 122.398065,48.816907 C122.398065,50.8386461 122.398065,52.8603852 122.398065,54.8821242 C123.094683,54.7898537 123.790818,54.6937184 124.48647,54.5932354 C124.155069,56.8091773 123.824151,59.02367 123.493234,61.2376796 C120.959417,61.5884043 118.419321,61.8830902 115.874876,62.1207714 C115.509176,59.986955 115.142992,57.8521725 114.777292,55.7159406 C115.525601,55.6507232 116.273427,55.5806749 117.02077,55.5057957 C117.02077,53.4845397 117.02077,51.4628006 117.02077,49.4405785 C113.681157,49.7753611 110.333814,50.012076 106.983089,50.1507234 C106.983089,52.1724625 106.983089,54.1937185 106.983089,56.2154575 L106.983089,56.2154575 Z" id="path62" fill="#3E1A61"></path>
                        <path d="M117.949272,68.4115925 C119.128499,68.2874379 120.305794,68.1507229 121.482606,68.0019307 C120.993234,70.9159403 120.503379,73.8280175 120.014007,76.7376792 C119.956036,77.0338145 119.878741,77.5961333 119.770045,78.4497565 C119.629466,77.5975826 119.524635,76.9768097 119.461833,76.615457 C118.957968,73.8830899 118.45362,71.1487905 117.949272,68.4115925 L117.949272,68.4115925 Z M123.614007,65.9797085 C121.01304,66.3420273 118.405794,66.6444428 115.793234,66.8869548 C116.42077,70.2946842 117.047823,73.6985489 117.674393,77.099515 C117.797582,77.8091768 118.209659,80.2869545 118.966664,85.0091766 C119.564731,84.9362298 120.162799,84.8599013 120.760867,84.7806742 C121.018838,82.8246356 121.221736,81.2033796 121.38019,79.931399 C121.583089,78.3053121 121.716905,77.2304329 121.796615,76.8241527 C122.402895,73.2125586 123.008693,69.5975828 123.614007,65.9797085 Z M123.302412,49.5647331 C126.178258,49.169564 129.046374,48.7014481 131.903861,48.1599022 C131.903861,49.6019311 131.903861,51.0439601 131.903861,52.485989 C131.462316,52.570047 131.020287,52.6516895 130.578258,52.7318827 C128.255069,64.7425105 125.925601,76.7053121 123.590818,88.6202876 C120.831398,89.0038625 118.064731,89.3202876 115.293234,89.5700461 C112.91449,78.1942009 110.532847,66.7690805 108.14879,55.2942015 C108.063282,55.2980663 107.978258,55.301931 107.892751,55.3062788 C107.892751,53.8642499 107.892751,52.4222209 107.892751,50.980192 C110.636712,50.8516895 113.377292,50.6579697 116.113524,50.3985495 C116.113524,51.8410615 116.113524,53.2830905 116.113524,54.7246363 C115.312558,54.8009648 114.511591,54.8710131 113.710142,54.9357474 C114.174393,57.6458923 114.638644,60.3541048 115.102413,63.0603849 C118.166181,62.7884042 121.225118,62.4338149 124.27391,61.9970999 C124.693234,59.1893705 125.112557,56.3801918 125.531881,53.5695639 C124.788886,53.6816412 124.045891,53.7884045 123.302412,53.8908199 C123.302412,52.448791 123.302412,51.006762 123.302412,49.5647331 L123.302412,49.5647331 Z M133.698547,46.07111 C129.650238,46.8830906 125.579224,47.5473418 121.493717,48.0647814 C121.493717,50.6656992 121.493717,53.2671484 121.493717,55.8685976 C122.142509,55.7859889 122.791784,55.7004817 123.440094,55.6106266 C123.197581,57.2323657 122.955069,58.8536217 122.712557,60.4743946 C120.6942,60.7444429 118.671978,60.9792255 116.64734,61.1772932 C116.379224,59.6154574 116.111591,58.0526556 115.843475,56.4893706 C116.538161,56.4246363 117.23333,56.3555541 117.927533,56.2821242 C117.927533,53.680675 117.927533,51.0797089 117.927533,48.4782597 C113.985021,48.8942017 110.030915,49.1734287 106.072461,49.3164239 C106.072461,51.9178731 106.072461,54.5193223 106.072461,57.1202884 C106.266181,57.1135251 106.458935,57.1062788 106.652171,57.0985493 C109.036712,68.5942012 111.419804,80.0400946 113.799031,91.4367127 C117.570045,91.1304325 121.332364,90.6999977 125.081156,90.1449253 C127.413523,78.210143 129.740576,66.2270515 132.0599,54.1951677 C132.60676,54.091303 133.152654,53.9845397 133.698547,53.875361 C133.698547,51.2739118 133.698547,48.6724626 133.698547,46.07111 L133.698547,46.07111 Z" id="path64" fill="#EDAC09"></path>
                        <path d="M143.188885,50.8217379 C144.049755,50.5975833 144.908692,50.3671485 145.766663,50.1299504 C145.766663,48.1082114 145.766663,46.0863757 145.766663,44.0647815 C142.075842,45.086424 138.357484,45.9826075 134.620286,46.7530906 C134.620286,48.774878 134.620286,50.7966171 134.620286,52.8183562 C135.431398,52.6507233 136.242026,52.4777765 137.051204,52.2985494 C137.051204,61.95024 137.051204,71.6019306 137.051204,81.2531381 C136.242026,81.4323651 135.431398,81.605312 134.620286,81.7729448 C134.620286,83.711109 134.620286,85.6492732 134.620286,87.5874374 C139.01932,86.6806742 143.389851,85.5999979 147.722702,84.3449254 C149.17246,77.2130415 150.617871,70.061834 152.059416,62.8908197 C152.394199,61.3570033 155.48647,47.4371486 155.48502,47.4281148 C154.935262,54.6826073 154.657967,76.3613507 154.657967,76.3618338 C153.848305,76.6338145 153.037194,76.899515 152.224151,77.1589353 C152.224151,79.0975826 152.224151,81.0357468 152.224151,82.973911 C155.900962,81.7990318 159.546856,80.4970994 163.155068,79.0685971 C163.155068,77.1304329 163.155068,75.1922687 163.155068,73.2536214 C162.375358,73.562317 161.593716,73.8652155 160.810624,74.162317 C160.810624,62.4888873 160.810624,50.8159408 160.810624,39.1425111 C157.587436,40.3642019 154.336228,41.4864724 151.060383,42.5071487 C148.387436,54.8927523 145.69903,67.2120756 142.996615,79.4637661 C143.060866,69.9164234 143.125117,60.3690806 143.188885,50.8217379" id="path66" fill="#3E1A61"></path>
                        <path d="M151.810624,43.2038637 C154.518837,42.3463758 157.210141,41.419854 159.882605,40.4236705 C159.882605,52.0971001 159.882605,63.7705298 159.882605,75.4434764 C160.667146,75.1512059 161.449754,74.8531382 162.230914,74.5487904 C162.230914,75.8656986 162.230914,77.1821237 162.230914,78.4985488 C159.232846,79.6656985 156.209658,80.7458917 153.16473,81.7381622 C153.16473,80.421254 153.16473,79.1048289 153.16473,77.7884039 C153.971977,77.5251188 154.777774,77.2560367 155.581639,76.9806744 C155.585986,76.6724619 155.589368,76.3642493 155.593233,76.0560367 C155.596131,75.8391285 155.876325,54.322704 156.416421,47.1791776 C155.803378,47.2961824 155.188885,47.4096123 154.573909,47.5203853 C154.544924,47.6685012 151.473909,61.4531386 151.141542,62.9719791 C149.750238,69.8768098 148.355552,76.7637662 146.956035,83.6323651 C143.190335,84.7043457 139.396615,85.6449254 135.580673,86.4541041 C135.580673,85.137679 135.580673,83.8207709 135.580673,82.5043458 C136.391301,82.3323651 137.200963,82.1545873 138.009658,81.9705294 C138.009658,71.6975827 138.009658,61.4241531 138.009658,51.1512065 C137.200963,51.3347813 136.391301,51.5130422 135.580673,51.6845398 C135.580673,50.2850229 135.580673,48.8850229 135.580673,47.4850713 C138.674876,46.8285979 141.755069,46.0859892 144.816905,45.2570037 C144.816905,46.6574384 144.816905,48.0570519 144.816905,49.4570036 C143.960383,49.6888876 143.102412,49.9140084 142.242509,50.1323659 C142.176325,59.9888874 142.110141,69.8454089 142.043475,79.7014473 C142.671494,79.6140077 143.298547,79.5231864 143.924634,79.4289835 C146.567146,67.4178727 149.196615,55.3429938 151.810624,43.2038637 L151.810624,43.2038637 Z M161.737194,37.8555063 C157.96473,39.310627 154.153619,40.6276318 150.309658,41.8066656 C148.217388,51.4816412 146.115455,61.1149743 144.00531,70.7077277 C144.048306,64.3072448 144.091301,57.9062787 144.134296,51.5057958 C144.996132,51.2763272 145.856518,51.0400953 146.714972,50.7971002 C146.714972,48.1531389 146.714972,45.5100955 146.714972,42.8666656 C142.396615,44.0883564 138.041059,45.1386945 133.658934,46.0159892 C133.658934,48.6594191 133.658934,51.3028973 133.658934,53.9463755 C134.470528,53.7835735 135.281639,53.6154576 136.092267,53.4410615 C136.092267,62.4705298 136.092267,71.5004813 136.092267,80.5299497 C135.281639,80.7043458 134.470528,80.8729448 133.658934,81.0357468 C133.658934,83.5956501 133.658934,86.1550703 133.658934,88.7154567 C138.641542,87.7173891 143.589851,86.4970993 148.488402,85.0536211 C149.989851,77.6531382 151.48647,70.2318823 152.978257,62.7893704 C153.094199,62.25024 153.561349,60.1425106 154.114006,57.6463754 C153.899996,64.8371964 153.77246,73.0241528 153.733329,75.7367131 C152.918354,76.0057952 152.101929,76.268114 151.283571,76.5246358 C151.283571,79.0845391 151.283571,81.6444424 151.283571,84.2043457 C155.59275,82.8541042 159.860866,81.3304327 164.077774,79.6328483 C164.077774,77.0729449 164.077774,74.5130416 164.077774,71.9531383 C163.29903,72.2661818 162.518837,72.5739112 161.737194,72.8753605 C161.737194,61.2024139 161.737194,49.5289843 161.737194,37.8555063 L161.737194,37.8555063 Z" id="path68" fill="#EDAC09"></path>
                        <path d="M173.014972,29.7274872 C174.239609,29.151207 175.458933,28.5603375 176.672942,27.9536708 C176.672942,30.8525596 176.672942,33.7511103 176.672942,36.6502406 C173.707725,47.7787428 170.709658,58.8164237 167.683088,69.7628002 C166.851204,70.1202881 166.016904,70.4705296 165.181155,70.8140079 C165.181155,73.3342977 165.181155,75.8550706 165.181155,78.3753604 C169.713522,76.5135247 174.184537,74.4502397 178.580672,72.1850223 C178.580672,69.6647326 178.580672,67.1439597 178.580672,64.6236699 C177.747822,65.0526554 176.913039,65.4743945 176.075841,65.8888872 C176.972459,61.9492738 177.867145,58.0014478 178.757483,54.0458924 C178.994682,52.9463755 179.767145,48.9719795 180.948305,42.1628009 C181.714971,45.8169071 182.480672,49.0584529 183.243957,51.8869552 C184.08502,54.8347812 184.922218,57.7748778 185.757,60.707728 C184.922218,61.1888874 184.08502,61.6628004 183.243957,62.129467 C183.243957,64.6497568 183.243957,67.1705297 183.243957,69.6908195 C187.487918,67.3362302 191.655551,64.7888873 195.735261,62.0492738 C195.735261,59.528984 195.735261,57.0086942 195.735261,54.4879213 C194.983087,54.9932353 194.228014,55.4917861 193.46956,55.9835735 C190.627531,48.181593 187.743474,40.2873903 184.822701,32.3014968 C184.822701,29.4023664 184.822701,26.5034293 184.822701,23.6042989 C186.01159,22.9289366 187.194198,22.2376806 188.370527,21.5309656 C188.370527,18.9019319 188.370527,16.2724634 188.370527,13.6435745 C183.360865,16.6521252 178.234778,19.3850237 173.014972,21.8400961 C173.014972,24.4691781 173.014972,27.098067 173.014972,29.7274872" id="path70" fill="#3E1A61"></path>
                        <path d="M173.857,22.3107241 C178.506276,20.0928497 183.079222,17.6551203 187.560382,14.996618 C187.560382,17.0459899 187.560382,19.0951686 187.560382,21.1448787 C186.381638,21.8440574 185.195648,22.5285019 184.004826,23.1976323 C184.004826,26.4319317 184.004826,29.6657964 184.004826,32.9000475 C187.006276,41.1061825 189.969077,49.2159408 192.889367,57.228501 C193.576807,56.7859889 194.262314,56.3381628 194.944923,55.8850228 C194.944923,57.8260855 194.944923,59.7666652 194.944923,61.7077279 C191.381155,64.0724622 187.751686,66.2908196 184.064247,68.3632833 C184.064247,66.4227037 184.064247,64.4816409 184.064247,62.5410612 C184.983087,62.0246361 185.899029,61.4990323 186.81014,60.9642497 C185.88985,57.7270517 184.965696,54.480675 184.037677,51.2246364 C183.283087,48.4260857 182.515937,45.1709651 181.757966,41.5573903 C181.218836,41.8493226 180.678739,42.1371004 180.137677,42.4226076 C179.006759,48.9193224 178.209657,53.0502402 177.95072,54.2458924 C176.965696,58.6053125 175.976807,62.9541047 174.98502,67.293235 C175.909174,66.8439597 176.829947,66.3859887 177.747822,65.919322 C177.747822,67.8599017 177.747822,69.8004813 177.747822,71.7415441 C173.898063,73.699032 169.9913,75.5024136 166.037194,77.1512058 C166.037194,75.2106261 166.037194,73.2700465 166.037194,71.3289837 C166.795165,71.0130417 167.551204,70.6913026 168.305793,70.3637664 C171.404827,59.1270517 174.473426,47.7942017 177.507242,36.366231 C177.507242,33.1323663 177.507242,29.8981152 177.507242,26.6642022 C176.296131,27.2782602 175.079223,27.8762795 173.857,28.4593713 C173.857,26.4096612 173.857,24.3599028 173.857,22.3107241 L173.857,22.3107241 Z M189.178256,12.2854586 C183.643474,15.6515938 177.96473,18.6783087 172.171493,21.3643473 C172.171493,24.573526 172.171493,27.7817384 172.171493,30.9909171 C173.398546,30.4217384 174.620285,29.8377287 175.836227,29.2381635 C175.836227,31.8019799 175.836227,34.3651682 175.836227,36.929516 C172.940575,47.7588877 170.014005,58.502414 167.059899,69.1594186 C166.150237,69.545892 165.237677,69.9241528 164.322701,70.2942011 C164.322701,73.3942011 164.322701,76.494201 164.322701,79.5942009 C169.435261,77.5265681 174.47101,75.2033798 179.411107,72.6236697 C179.411107,69.5236698 179.411107,66.4236698 179.411107,63.3236699 C178.663764,63.713525 177.914488,64.098066 177.163281,64.4763269 C177.96473,60.9415444 178.763764,57.4004817 179.559899,53.8526557 C179.756034,52.9405784 180.247338,50.4048297 180.95072,46.4849264 C181.449754,48.6739118 181.950237,50.6995156 182.445889,52.5371968 C183.199995,55.1782595 183.951203,57.8135251 184.700478,60.4425106 C183.943474,60.8724622 183.18357,61.2961337 182.421735,61.7130419 C182.421735,64.8130419 182.421735,67.9135249 182.421735,71.0135248 C187.22415,68.3830901 191.93043,65.5077278 196.523667,62.3859888 C196.523667,59.2859889 196.523667,56.1859889 196.523667,53.085989 C195.702411,53.64396 194.87729,54.1942015 194.049271,54.7367136 C191.284053,47.1448297 188.479222,39.4648299 185.639126,31.6976321 C185.639126,29.1338157 185.639126,26.5706274 185.639126,24.006811 C186.825599,23.3237192 188.004826,22.6260381 189.178256,21.9121734 C189.178256,18.7033812 189.178256,15.4947822 189.178256,12.2854586 L189.178256,12.2854586 Z" id="path72" fill="#EDAC09"></path>
                        <polyline id="path74" fill="#3E1A61" points="117.352171 94.7603841 125.564731 104.301447 129.42077 93.5555532 121.579224 93.9956498 117.352171 94.7603841"></polyline>
                    </g>
                </g>
            </g>
        </g>
    </g>
</svg>