<?xml version="1.0" encoding="UTF-8"?>
<svg width="200px" height="200px" viewBox="0 0 200 200" version="1.1" xmlns="http://www.w3.org/2000/svg" xmlns:xlink="http://www.w3.org/1999/xlink">
    <!-- Generator: Sketch 54.1 (76490) - https://sketchapp.com -->
    <title>idaho</title>
    <desc>Created with Sketch.</desc>
    <g id="idaho" stroke="none" stroke-width="1" fill="none" fill-rule="evenodd">
        <g id="idaho_BGD" transform="translate(0.000000, 0.000000)">
            <g id="idaho" transform="translate(12.000000, 0.000000)">
                <g id="g10" transform="translate(87.906281, 99.878451) scale(-1, 1) rotate(-180.000000) translate(-87.906281, -99.878451) translate(0.000000, 0.018706)" fill-rule="nonzero">
                    <g id="g12">
                        <polyline id="path14" fill="#FFFFFF" points="135.183366 2.53360255 42.5882503 2.53360255 42.5882503 37.8359972 63.3101411 37.8359972 63.3101411 161.608224 45.1362204 161.608224 42.5882503 161.608224 42.5882503 164.148102 42.5882503 194.380547 42.5882503 196.918929 45.1362204 196.918929 132.639894 196.918929 135.183366 196.918929 135.183366 194.380547 135.183366 164.148102 135.183366 161.608224 132.639894 161.608224 114.717884 161.608224 114.717884 37.8359972 132.639894 37.8359972 135.183366 37.8359972 135.183366 35.2983254 135.183366 5.0756801 135.183366 2.53360255 135.183366 2.53360255"></polyline>
                        <path d="M137.722714,199.45806 L40.0447786,199.45806 L40.0447786,159.076948 L60.7707929,159.076948 L60.7707929,40.3751276 L45.1324717,40.3751276 L40.0447786,40.3751276 L40.0447786,35.2983254 L40.0447786,5.0756801 L40.0447786,0 L45.1324717,0 L132.635396,0 L137.722714,0 L137.722714,5.0756801 L137.722714,35.2983254 L137.722714,40.3751276 L132.635396,40.3751276 L117.261731,40.3751276 L117.261731,159.076948 L132.635396,159.076948 L137.722714,159.076948 L137.722714,164.152591 L137.722714,194.382791 L137.722714,199.45806 L137.722714,199.45806 Z M132.635396,194.382791 L132.635396,164.152591 L112.173663,164.152591 L112.173663,35.2983254 L132.635396,35.2983254 L132.635396,5.0756801 L45.1324717,5.0756801 L45.1324717,35.2983254 L65.8581112,35.2983254 L65.8581112,164.152591 L45.1324717,164.152591 L45.1324717,194.382791 L132.635396,194.382791 L132.635396,194.382791 Z" id="path16" fill="#FFFFFF"></path>
                        <polyline id="path18" fill="#231F20" points="130.338587 33.0338281 130.338587 7.39568004 47.4030403 7.39568004 47.4030403 33.0338281 68.0683263 33.0338281 68.0683263 166.494245 47.4030403 166.494245 47.4030403 192.132768 130.382071 192.132768 130.382071 166.494245 109.951077 166.494245 109.951077 33.0338281 130.338587 33.0338281"></polyline>
                        <path d="M89.4181192,125.29593 C89.5080872,125.344924 89.6108007,125.359511 89.7045175,125.407009 C89.8113545,125.449272 89.8705835,125.511357 89.9781703,125.552498 C89.7866133,125.476949 89.5976804,125.391675 89.4181192,125.29593 L89.4181192,125.29593 Z M175.526914,75.763252 C175.27013,79.4412322 173.06029,81.7409984 172.11525,82.7227656 C171.879459,82.9681139 171.751254,83.1259446 171.473853,83.3237941 C171.473853,83.3237941 169.665495,84.5972863 168.939003,85.1085533 C169.994628,86.8742381 170.691881,88.9069636 170.691881,91.442354 C170.691881,92.5557714 170.589167,93.7368841 170.388613,94.995416 C170.38449,95.0014001 170.038113,96.9619424 170.038113,96.9619424 C169.686488,98.827487 169.435327,100.337725 169.435327,101.54427 C169.435327,102.647216 169.647876,103.498455 170.18731,104.139876 C171.00377,105.108179 171.434867,106.320334 171.434867,107.552685 C171.434867,108.017202 171.375638,108.480222 171.251182,108.936884 C170.79347,110.612433 169.550411,111.961101 167.908119,112.544551 C159.95232,115.387748 155.467413,110.051423 153.779762,108.038146 C153.779762,108.038146 152.043753,106.268347 150.525168,104.724822 C151.877312,106.860773 153.111749,109.008319 154.186118,110.92211 L154.613466,111.676856 C157.126948,116.159698 157.874433,118.993919 159.114867,123.688075 L159.234825,124.133891 C159.747642,126.082839 160.273206,129.045345 160.273206,131.725476 C160.273206,131.887795 160.268707,132.045625 160.264209,132.201212 C160.170492,135.873956 158.166079,138.910515 154.758539,140.539688 C149.965866,142.840576 144.866177,139.40944 139.167826,130.02786 C137.499294,127.292376 136.405432,124.711357 135.404538,121.972881 C135.01655,122.155023 132.861066,123.169328 132.861066,123.169328 C132.152193,123.507056 131.373219,123.683587 130.586749,123.683587 C130.566506,123.683587 130.52752,123.674985 130.505777,123.674985 C130.317594,123.832816 130.18939,124.003737 129.979089,124.152592 C126.902557,126.333798 124.350463,125.975873 123.259601,125.820287 C120.903188,125.64787 117.317211,124.263672 115.620189,123.131554 C115.328542,122.93707 115.051141,122.604205 114.78686,122.420567 C114.78686,123.410563 114.734753,128.498922 114.734753,128.498922 L117.397808,135.799529 C117.607733,136.370637 117.706698,136.938379 117.706698,137.490413 C117.706698,139.37578 116.555857,141.064793 114.696142,142.005794 C114.696142,142.005794 114.559316,142.071619 114.466349,142.122484 C113.29414,143.124821 111.896261,143.663765 110.301578,143.297238 L106.352355,142.386906 C104.192372,141.70023 102.580445,140.725943 101.435226,139.40944 C100.49506,138.337163 100.027976,136.925289 100.14381,135.500698 C100.203789,134.751937 100.114196,134.042072 99.8536631,133.111918 C99.8491647,133.101072 98.6136035,129.693498 98.6136035,129.693498 L98.3834352,129.104812 C98.3834352,129.117154 98.3879336,129.121642 98.3879336,129.120146 C98.3879336,129.095836 97.7202957,127.322297 97.41253,126.511451 C97.0620295,126.575032 96.7546387,126.765775 96.3951414,126.794948 C94.1590605,126.963625 91.8078955,126.450114 89.7045175,125.407009 C86.0495655,123.932676 83.6466688,121.826271 81.9237807,119.584476 C81.7824559,119.791675 81.6842408,120.023933 81.5136763,120.211685 C78.9863239,123.01823 74.7289609,124.574845 70.0517469,121.602615 C69.5471761,122.267225 68.7610803,122.466196 67.2170036,122.404111 L62.4415746,122.21262 L62.065958,122.088449 C62.0535874,122.083961 57.4577195,120.092751 57.4577195,120.092751 C56.4744437,119.666009 55.7899368,118.996163 55.3288506,118.202896 C54.1997516,118.43291 53.0796494,118.640483 51.9513001,118.268721 C51.0872319,118.765401 50.245281,119.316313 49.2065249,119.492844 C44.9180479,120.233003 42.2553685,118.520801 40.1092557,117.142961 L39.5405826,116.777931 C39.1810853,116.555771 38.9033089,116.236369 38.5704272,115.980175 C39.2541843,120.381858 39.9803014,124.439081 40.7843909,127.707898 C40.8188786,127.863484 42.1953898,133.476575 42.1953898,133.476575 L44.5514281,143.96484 C44.6406464,144.368019 44.6837561,144.771198 44.6837561,145.165775 C44.6837561,146.824494 43.8976602,148.357921 42.4652939,149.35203 C40.6906742,150.582885 38.4122333,150.49088 36.6036881,149.316499 L29.4768316,144.692282 L24.1928207,141.129122 C24.094718,141.064793 23.9241161,140.940623 23.8296872,140.870684 L22.1405745,139.561661 C17.211675,135.760632 15.3995685,133.604485 15.3995685,129.603737 C15.3995685,127.980548 15.6990122,126.054789 16.2071442,123.589338 C16.2071442,123.589338 16.4509576,122.322952 16.6522986,121.261521 C16.5615059,121.230853 16.4634032,121.241699 16.3740724,121.205046 C16.0614335,122.310609 15.7033981,123.570637 15.7033981,123.570637 C15.0913155,125.731273 13.2059975,127.193639 10.961932,127.341371 C8.71711671,127.487982 6.64365308,126.132208 5.75480625,124.071806 L0.431974089,111.745673 C0.145700256,111.075827 0,110.362597 0,109.646748 C0,108.86657 0.171325781,108.083775 0.517638667,107.360446 C6.58359941,94.6988289 15.4932852,80.169049 19.0420749,74.5136961 C19.5377239,73.7174362 20.2384251,73.0700309 21.0723539,72.6331913 L22.7226303,71.7662441 C23.0601604,71.587095 23.4409127,71.5990632 23.8040463,71.4950894 C23.6590852,71.0081329 23.5089885,70.5148182 23.5089885,70.0050473 C23.5089885,68.896118 23.8552906,67.7830745 24.5647636,66.83609 C26.1637957,64.6945285 29.1136981,64.0762957 31.4434207,65.3942948 C36.0048008,67.9794279 40.7124164,70.0166415 46.7016644,72.0037383 C51.6041734,73.6310407 58.4747334,75.6035512 62.766959,76.3455801 C76.2254294,78.6700308 87.0920702,79.6854585 96.9630647,79.540718 C109.121497,79.3626909 117.748308,78.7107975 128.493117,75.7722281 C133.442484,74.4179505 136.059055,73.1534344 141.796393,70.3820459 L145.156324,68.7367912 C148.927485,66.8660105 151.903178,65.3853186 156.673734,64.1219245 C160.088771,63.2086006 164.941423,63.3510971 167.703067,64.4431961 C169.601018,65.1874692 172.067642,66.1583901 173.991834,69.3030371 C175.009972,70.960634 175.55203,72.9578289 175.55203,74.9913025 C175.55203,75.2471229 175.543033,75.5070575 175.526914,75.763252 L175.526914,75.763252 Z" id="path20" fill="#FFFFFF"></path>
                        <path d="M35.5559727,129.045345 C32.1067477,115.061241 30.4945577,94.5133216 29.6525692,80.3698905 C28.5103874,79.6065431 26.8051929,77.1579223 25.1292756,76.5254773 L23.4789617,77.3931724 C17.2248328,87.3649347 10.0123192,99.7639994 5.24592447,109.714817 L10.5680219,122.041699 C11.7226493,118.392143 13.7236512,110.207758 15.0312993,106.631507 C17.4342334,99.9562387 19.8540366,91.6024288 23.7227751,84.8587169 L24.1422886,85.090975 C24.350977,93.6433824 26.527679,108.857968 27.5571009,124.092751 C26.5320649,123.268066 23.6070912,117.247309 22.6413592,117.921643 C20.1791211,132.653386 18.2894172,129.917528 27.0445829,136.765214 C32.5336086,140.360539 35.0815412,142.382792 39.224195,144.811591 C38.5359394,140.190366 36.5268404,133.548758 35.5559727,129.045345" id="path22" fill="#231F20"></path>
                        <path d="M46.7998796,108.211311 C45.0593727,108.260306 43.6873599,106.545112 42.6527274,105.684523 C40.2966891,103.427393 38.0403654,99.1988755 39.0577541,95.9319284 C40.0837647,93.3613815 41.763918,94.0057948 43.2603866,94.2833076 C46.2829381,95.6330972 48.0223204,101.205421 48.4924035,104.150722 C48.4545419,105.537164 49.4723055,107.867973 46.7998796,108.211311 L46.7998796,108.211311 Z M95.5355716,116.944364 C91.9792096,116.543429 89.3367731,112.762223 87.7379659,109.655724 C86.7247007,106.931461 85.7931565,103.844037 89.0544983,103.190647 C90.9404535,102.88845 93.4884236,105.111919 94.839069,107.437865 C95.9760402,110.081344 99.4994139,116.016453 95.5355716,116.944364 L95.5355716,116.944364 Z M122.879486,114.748571 C120.305275,114.513321 112.960883,107.400465 113.87181,104.150722 C114.760619,101.267506 118.859788,102.609441 119.958898,103.551564 C121.506723,104.961568 123.439537,108.301447 124.597126,111.894527 C124.935256,114.007664 124.166029,115.097519 122.879486,114.748571 Z M149.996605,129.401399 C146.47773,125.466103 141.800141,113.440296 140.983681,107.488356 C145.874569,111.939034 151.625027,123.583728 149.996605,129.401399 Z M154.027924,125.552498 C152.736132,120.672087 152.162961,118.353994 149.905888,114.336416 C147.653687,110.320334 144.796827,105.046094 141.466885,101.63478 C141.415528,100.523233 141.518991,99.7340789 141.843251,98.5843828 C142.146893,97.4990158 142.822778,96.4921902 143.557142,95.8466549 C145.015749,94.5645605 146.695903,95.0978938 147.674305,95.5033169 C149.63261,96.311171 150.41908,97.3030364 151.877312,98.6700303 C154.710931,101.325103 156.096814,102.688356 157.789713,104.700886 C159.849981,107.158109 161.999468,109.066664 166.053653,107.620381 C162.774318,103.726225 164.351382,98.6419798 165.069627,94.2167344 C165.787872,89.7982212 165.651796,86.0360895 158.939055,84.7842896 C158.593427,83.6738642 159.144107,83.0739577 159.926079,82.7006992 C160.714049,82.3281887 161.761052,82.2806899 162.346594,82.1501616 C163.89442,81.8075716 164.839084,81.4399232 165.694156,80.9522186 C166.544729,80.4641401 167.246104,79.9147245 168.096303,79.2388947 C168.827668,78.4762954 170.029116,77.3157531 170.156571,75.4733969 C170.246539,74.1322095 169.89229,72.9488528 169.392217,72.1350146 C168.36958,70.4695635 167.211242,70.0417 165.685159,69.4395495 C164.154952,68.8362769 160.546859,68.6257112 157.972648,69.3116392 C152.689274,70.7149117 149.905888,72.3923311 144.587276,74.961382 C138.298885,77.998689 135.417658,79.4232799 129.829892,80.9522186 C118.116802,84.1574547 108.70352,84.7394088 96.976185,84.9107038 C85.2499744,85.0808768 73.2456127,83.6155192 61.7923052,81.6366506 C57.3291402,80.8658231 50.3821074,78.9007928 44.957034,77.1025694 C39.5368339,75.3024759 34.2519983,73.1855989 28.754913,70.0749866 C34.9878245,76.0658233 42.7554409,80.1017278 50.9635259,83.0563794 C59.1674873,86.010657 67.8119174,87.8814377 75.7800876,89.5337986 C88.3793631,92.474612 100.746971,92.1204278 112.968755,90.1123867 C125.195413,88.0976135 131.885662,85.2327234 142.869636,80.7816717 C146.045883,79.4932191 151.625027,75.9846638 154.45977,74.4725554 C157.917917,72.6290772 161.683455,72.1671791 163.774462,74.1452997 C164.77948,75.0963983 164.705632,76.1234203 164.364503,77.1358559 C164.026373,78.1520317 163.32987,79.0511434 162.419693,79.6080392 C160.743289,80.7195866 157.95203,81.1231396 155.455417,81.9074313 C152.953555,82.688357 152.286667,83.8541354 151.769726,86.4819053 C152.594433,87.7950422 152.154339,87.321924 153.339668,86.8192592 C154.51825,86.3109843 155.771804,85.7653087 156.891907,86.921363 C157.874433,88.5314611 158.080235,90.3203343 157.977146,92.1226718 C157.874433,93.9223913 157.870309,95.8567531 157.195174,97.398782 C156.857044,98.1598853 154.98121,96.2745184 154.10852,95.4169214 C153.176976,94.5009794 153.014659,94.3431486 151.796341,93.276856 C149.734573,91.4812506 149.820793,91.2213161 147.464755,90.4549767 C145.498953,89.8135555 144.417462,89.7660567 142.270599,91.0503951 C140.820989,91.9203343 140.103494,92.7173422 139.265292,94.2189785 C138.41097,95.7610074 138.205918,97.1919564 137.542403,98.6763884 C135.867123,97.73838 136.409931,97.7552103 134.631562,96.7887774 C132.75048,95.7610074 130.770058,95.5033169 128.800508,95.6757339 C127.589313,95.7778377 125.786953,96.596912 124.987362,97.3007923 C124.19227,98.0065427 123.90962,98.6419798 123.028683,99.2564725 C121.524342,98.3753131 120.168823,97.9044389 118.591009,97.3879359 C117.013944,96.8721808 115.491235,96.5052804 113.785965,97.0453459 C112.156794,97.5588568 111.02807,98.7743781 110.310574,99.740811 C110.310574,99.740811 108.433241,102.681624 109.40827,103.721737 C107.608909,101.794107 105.154656,100.092003 103.278072,98.8428213 C101.674766,97.7720406 99.9436312,96.4390813 97.3607984,96.6608671 C96.5267196,96.9451121 96.1634736,97.6355282 95.9629199,98.3887773 C95.7616163,99.1476366 95.2323043,100.043756 95.5573139,100.509768 C94.6246451,99.1521247 92.9324961,97.8296376 90.4951117,97.1433356 C88.0967135,96.4675058 85.6218424,96.0321622 83.9240703,97.4608671 L82.8646965,98.7829802 L82.3338851,100.262924 C80.568637,99.745299 79.2389842,99.1053739 76.8068479,97.9044389 C75.1776765,97.0958367 72.6851867,94.821129 72.1719939,96.0168279 C71.9414508,96.5632514 72.0351675,97.3243547 72.087274,98.4142098 C72.1378811,99.5063089 72.4077852,101.417108 72.582848,102.643102 C72.8433805,104.437211 73.0105711,105.918277 73.0105711,107.925944 C73.0105711,109.714817 73.4285477,111.309955 71.5096042,111.23478 L69.9662773,110.844691 L68.8679173,110.271339 C67.5161474,109.49939 66.2007396,108.955958 65.695419,104.120802 C65.4303881,101.583167 65.4817449,101.84759 64.9003264,99.4165473 C64.3912572,97.2966783 64.0962369,97.3007923 63.0451102,95.0268326 C62.7287226,94.3386606 61.4504266,92.9843829 60.0784138,92.3848504 C58.4878537,91.6899463 57.932301,91.5657761 56.2131615,91.3956031 C55.5886333,91.3335181 52.7846291,90.8835882 50.895675,91.9925176 C49.7841947,92.6515171 48.5223928,91.387001 47.8041479,90.7938266 C47.0904014,90.2058883 46.2484504,89.4227187 45.2430574,88.9604466 C43.7128509,88.2524522 42.0881779,87.7748459 40.4087743,87.9704513 C38.7327445,88.1690488 36.8387296,88.7375387 35.6291842,90.3715732 C33.9269137,92.6791936 33.543275,96.7887774 34.2607702,99.5294973 C34.9446398,102.154275 35.3553814,103.579614 36.7362036,106.119492 C37.8521822,108.171292 40.1606124,111.011498 42.3153472,112.365776 C44.4655836,113.724541 45.7438796,114.765402 48.2363694,114.336416 C49.5997602,114.09967 50.2842671,113.248805 50.5526718,112.536697 C50.8180775,111.830198 50.9803949,111.254602 51.8399646,111.34025 C52.801873,111.435621 52.4213831,112.929029 53.5546057,113.307898 C54.2765993,113.55362 55.8330465,112.798875 56.4703202,111.853761 C55.4780476,109.488917 54.6184779,107.477136 53.8623714,105.027393 C52.3100477,99.9898993 53.5928421,97.4990158 53.9815791,96.7042519 C54.5678708,95.5033169 56.3799773,95.9319284 57.2432957,96.4200069 C59.1761093,97.509862 59.3725395,98.9064024 59.7575278,100.262924 C60.2875895,102.114256 60.3434447,103.276295 60.5016385,106.447496 C60.6463371,109.386066 60.9334852,112.796631 59.9888207,115.532863 C61.0403222,116.121175 62.2072828,116.701259 63.4469675,117.050955 C64.6821539,117.401026 64.5708184,117.637398 65.9049696,117.315378 C66.2131102,116.614116 66.4350314,115.965588 66.371304,115.097519 C66.3154488,114.372321 66.2768375,113.054696 67.196386,113.097706 C68.8465499,113.16989 70.4059961,115.455444 72.0917724,116.816453 C73.771176,118.175219 75.5409225,118.901914 77.4951035,116.733798 C78.0720236,115.427767 78.1874826,114.118744 78.0975146,112.808973 C78.01167,111.495836 77.7211482,110.181577 77.4906051,108.857968 C77.2087052,107.535855 77.1655955,106.000184 77.1487265,104.920427 C77.1356062,103.841045 77.3192909,103.293125 78.6062089,103.293125 C82.7912226,103.293125 81.9282791,108.211311 83.7242663,112.412526 C85.2837125,116.061334 87.3233631,118.940062 91.8247645,120.672087 C93.0475802,121.314256 94.5009391,121.68153 95.9205599,121.574191 C97.339431,121.465355 98.7204406,120.889759 99.7981828,119.637585 C100.707985,120.52959 101.277033,121.781016 101.768858,123.137538 C102.259559,124.493686 102.671163,125.948197 103.260453,127.234779 C103.914971,128.895742 104.504261,130.333424 104.898247,131.732208 C105.295231,133.126504 105.492036,134.489758 105.372828,135.995135 C105.91601,136.620473 106.860675,137.071899 107.9163,137.409627 C108.971925,137.748477 110.135512,137.972881 111.118787,138.136322 L111.439299,137.741745 L112.230268,137.34081 C110.776909,132.335481 108.4801,127.407196 106.625633,122.425055 C104.769292,117.441044 102.884837,112.393452 101.306272,107.147262 C101.268411,106.486019 100.892794,105.434686 100.862055,104.617482 C100.831691,103.799156 101.152577,103.208226 102.50847,103.46629 C106.81794,104.428235 109.37903,109.230479 112.401582,113.054696 C115.073258,116.433097 116.158123,117.226365 118.50179,118.789712 C119.531925,119.476014 122.281198,120.501914 123.481147,120.587187 C124.341467,120.647028 125.195413,121.056191 126.828708,119.902755 C128.226587,118.908646 127.743383,117.53305 128.458629,117.247309 C129.96297,116.641792 129.312951,118.447496 130.518898,118.447496 L132.056976,117.716313 L133.434987,117.076388 L129.312951,109.714817 L127.944687,106.119492 C127.718267,105.099577 126.952414,102.359605 128.325927,101.15867 C129.466646,100.165308 131.754084,100.395322 132.473079,100.621596 C134.105624,101.135107 136.520516,102.952031 136.999221,105.782513 C137.598259,109.301166 137.914271,112.966804 138.996512,116.462269 C140.308546,120.700511 141.442143,123.724728 143.642987,127.346981 C145.84533,130.975593 150.154799,136.899482 152.393504,135.822718 C153.714535,135.193265 154.834637,134.125102 154.882245,132.141371 C154.934352,130.098921 154.522748,127.437117 154.027924,125.552498 L154.027924,125.552498 Z" id="path24" fill="#231F20"></path>
                    </g>
                </g>
            </g>
        </g>
    </g>
</svg>