<?xml version="1.0" encoding="UTF-8"?>
<svg width="200px" height="200px" viewBox="0 0 200 200" version="1.1" xmlns="http://www.w3.org/2000/svg" xmlns:xlink="http://www.w3.org/1999/xlink">
    <!-- Generator: Sketch 54.1 (76490) - https://sketchapp.com -->
    <title>chattanooga</title>
    <desc>Created with Sketch.</desc>
    <g id="chattanooga" stroke="none" stroke-width="1" fill="none" fill-rule="evenodd">
        <g id="chattanooga_BGD">
            <g id="chattanooga" transform="translate(0.000000, 12.000000)">
                <g id="g10" transform="translate(99.888515, 87.919732) scale(-1, 1) rotate(-180.000000) translate(-99.888515, -87.919732) translate(0.000000, 0.071351)" fill-rule="nonzero">
                    <g id="g12">
                        <path d="M98.5141558,175.094756 L98.3491614,175.089405 C78.3469323,174.646149 53.4629195,174.101222 36.4632321,158.959193 C24.3244587,148.214935 20.7824298,134.005794 14.353712,108.231881 L14.3419394,108.186396 L14.3300777,108.148046 L4.63802887,68.2301878 L4.5680088,67.9671778 L4.5129631,67.6940897 C2.95359636,60.0742014 1.82657743,52.3202663 1.16569005,47.1554057 C-0.257455512,36.1294974 -0.0546961859,34.6276023 0.130295649,33.1584384 C1.26672015,24.6366103 6.41756952,9.43143789 28.2981487,3.15635221 C39.2746478,0 51.1674458,0 59.0335771,0 L160.838346,0 L173.76499,60.7957175 L90.1368985,60.6706785 C90.1368985,60.6706785 94.0102541,79.8313469 96.5698973,89.9406889 C99.4532863,101.333331 102.957411,114.529317 102.957411,114.529317 L105.006017,114.528425 L101.113933,97.8309898 L181.203117,97.8443677 L199.280263,175.094756 L98.5141558,175.094756" id="path14" fill="#22437C"></path>
                        <path d="M174.078034,107.020733 L112.940911,107.020733 L116.755404,123.60847 L96.8472663,123.60847 L79.514736,51.4980589 L162.591746,51.6039229 L153.557187,9.17645462 L59.1931312,9.17645462 C51.8370556,9.17645462 40.7215151,9.17645462 30.9876469,11.9767221 C14.9766774,16.5708803 10.3999106,26.6736225 9.38862853,34.3554952 C9.04963188,36.938416 11.2778592,54.2795081 13.6577031,65.8507899 L13.6778592,65.9663752 L13.7043475,66.0681366 L23.4086059,105.986173 L23.4141354,105.9942 L23.4141354,106.018281 C29.5851052,130.785281 32.6867327,143.228536 42.6919945,152.086507 C57.163789,165.002448 80.1986156,165.507242 98.7059061,165.921066 L187.86354,165.921066 L174.078034,107.020733" id="path16" fill="#FFFFFF"></path>
                        <path d="M120.6243,113.134445 L169.228981,113.134445 L180.15072,159.800219 L98.8387935,159.800219 C79.9989278,159.388179 59.3844355,158.781713 46.7620947,147.521067 C38.4374572,140.147154 35.625328,129.719506 29.3561643,104.530655 L19.6491411,64.621626 C17.0025414,51.7377022 15.4462426,36.9241462 15.4494533,35.2749155 C15.4494533,35.2194417 15.4494533,35.1724406 15.4549829,35.150144 C18.0546707,15.5068892 44.1931762,15.2943586 59.1931312,15.2943586 L148.609138,15.2943586 L155.032326,45.4769219 L72.2885155,45.3752497 L92.3290947,129.719506 L124.43255,129.719506 L120.6243,113.134445" id="path18" fill="#EAAD0F"></path>
                    </g>
                </g>
            </g>
        </g>
    </g>
</svg>