<?xml version="1.0" encoding="UTF-8"?>
<svg width="200px" height="200px" viewBox="0 0 200 200" version="1.1" xmlns="http://www.w3.org/2000/svg" xmlns:xlink="http://www.w3.org/1999/xlink">
    <!-- Generator: Sketch 54.1 (76490) - https://sketchapp.com -->
    <title>yale</title>
    <desc>Created with Sketch.</desc>
    <g id="yale" stroke="none" stroke-width="1" fill="none" fill-rule="evenodd">
        <g id="yale_BGL">
            <g id="yale" transform="translate(1.000000, 0.000000)">
                <polygon id="Fill-1" fill="#00346A" points="108.702062 0.00329896907 108.702062 34.1826804 128.456701 34.1826804 98.885567 86.1785567 69.3536082 34.1826804 88.9865979 34.1826804 88.9865979 0.00329896907 0.0608247423 0.00329896907 0.0608247423 34.1826804 25.5061856 34.1826804 79.343299 127.487835 79.343299 165.821856 54.3804124 165.821856 54.3804124 199.877526 143.308247 199.877526 143.308247 165.821856 118.341237 165.821856 118.341237 127.516701 172.262887 34.1826804 197.625773 34.1826804 197.625773 0.00329896907"></polygon>
                <path d="M114.702268,6.00639175 L191.625979,6.00639175 L191.625979,28.1837113 L168.799175,28.1837113 L112.341443,125.909485 L112.341443,171.822887 L137.308454,171.822887 L137.308454,194.00433 L60.3785567,194.00433 L60.3785567,171.822887 L85.3414433,171.822887 L85.3414433,125.88268 L28.9703093,28.1837113 L6.06309278,28.1837113 L6.06309278,6.00639175 L82.9909278,6.00639175 L82.9909278,28.1837113 L59.0507216,28.1837113 L98.8795876,98.3239175 L138.770309,28.1837113 L114.702268,28.1837113 L114.702268,6.00639175 Z M111.70433,31.1837113 L133.611546,31.1837113 L98.8837113,92.2517526 L64.203299,31.1837113 L85.988866,31.1837113 L85.988866,3.0043299 L3.06103093,3.0043299 L3.06103093,31.1837113 L27.2424742,31.1837113 L82.3414433,126.68268 L82.3414433,168.822887 L57.3806186,168.822887 L57.3806186,197.00433 L140.308454,197.00433 L140.308454,168.822887 L115.343505,168.822887 L115.343505,126.71567 L170.531134,31.1837113 L194.625979,31.1837113 L194.625979,3.0043299 L111.70433,3.0043299 L111.70433,31.1837113 Z" id="Fill-2" fill="#FEFEFE"></path>
                <polygon id="Fill-3" fill="#00346A" points="152.421649 190.127629 152.421649 193.737938 151.285567 193.737938 151.285567 190.127629 150.087629 190.127629 150.087629 189.158557 153.619588 189.158557 153.619588 190.127629"></polygon>
                <path d="M159.21732,193.737938 L158.912165,191.54 C158.858557,191.148247 158.815258,190.79567 158.788454,190.531753 L158.776082,190.531753 C158.716289,190.824536 158.637938,191.14 158.549278,191.441031 L157.809072,193.737938 L156.629691,193.737938 L155.969897,191.616289 C155.864742,191.290515 155.757526,190.88433 155.687423,190.550309 L155.679175,190.550309 C155.660619,190.892577 155.625567,191.22866 155.571959,191.599794 L155.301856,193.737938 L154.165773,193.737938 L154.877113,189.158557 L156.303918,189.158557 L157.052371,191.48433 C157.130722,191.74 157.211134,192.038969 157.27299,192.346186 L157.281237,192.346186 C157.343093,192.020412 157.413196,191.775052 157.499794,191.500825 L158.277113,189.158557 L159.72866,189.158557 L160.425567,193.737938 L159.21732,193.737938" id="Fill-4" fill="#00346A"></path>
            </g>
        </g>
    </g>
</svg>