<svg id="Layer_1" data-name="Layer 1" xmlns="http://www.w3.org/2000/svg" viewBox="0 0 440.76 62.36"><defs><style>.cls-1{fill:#9494ff;}</style></defs><path d="M69.66.7H95.77V8.89H78.34v11.2H94.16v8.12H78.34V49.7H69.66Z"/><path d="M127.66,26V38.43a11.31,11.31,0,0,1-3.6,8.54,13.11,13.11,0,0,1-9.42,3.43A13.31,13.31,0,0,1,105.12,47a11.24,11.24,0,0,1-3.64-8.54V26a11.24,11.24,0,0,1,3.64-8.54A13.31,13.31,0,0,1,114.64,14a13.11,13.11,0,0,1,9.42,3.43A11.31,11.31,0,0,1,127.66,26Zm-8,12V26.39a4.88,4.88,0,0,0-1.47-3.71,5.43,5.43,0,0,0-7.28,0,4.88,4.88,0,0,0-1.47,3.71V38a4.88,4.88,0,0,0,1.47,3.71,5.18,5.18,0,0,0,3.71,1.4,5,5,0,0,0,3.57-1.4A4.88,4.88,0,0,0,119.61,38Z"/><path d="M142.94,14.7V37.8a5.64,5.64,0,0,0,1.37,4A4.76,4.76,0,0,0,148,43.26a4.82,4.82,0,0,0,3.75-1.82,6.4,6.4,0,0,0,1.57-4.34V14.7h8v35h-7.56l-.49-3.36c-.19.28-.45.64-.8,1.09A9.34,9.34,0,0,1,150,49.18a8.84,8.84,0,0,1-4.34,1.08A10,10,0,0,1,137.83,47q-2.94-3.28-2.94-9.31v-23Z"/><path d="M189.29,15.26l-2.38,6.86a7.75,7.75,0,0,0-3.71-.77,4.85,4.85,0,0,0-4,2.07q-1.57,2.05-1.57,6V49.7h-8.12v-35h7.63l.14,3.92a1.7,1.7,0,0,1,.28-.49q.21-.28.84-1.05a9.2,9.2,0,0,1,1.36-1.36,7.67,7.67,0,0,1,1.93-1.09,6.3,6.3,0,0,1,2.45-.49,12.46,12.46,0,0,1,2.69.28,8.83,8.83,0,0,1,1.86.56Z"/><path d="M208.9,8A5.67,5.67,0,0,0,205,9.49a4.56,4.56,0,0,0-.57,6.52,10.44,10.44,0,0,0,3,2.45l3.92,2.3,4.35,2.54a21.93,21.93,0,0,1,4.09,3.06,13,13,0,0,1,3,4.39,15.07,15.07,0,0,1,1.13,5.93,12.75,12.75,0,0,1-4.38,9.66,15.89,15.89,0,0,1-21.17,0A13,13,0,0,1,194,36.54v-2.1h8.54v2.1a5.28,5.28,0,0,0,1.89,4.34,6.56,6.56,0,0,0,4.27,1.54,6.28,6.28,0,0,0,4.48-1.58,4.91,4.91,0,0,0,1.68-3.69,6.47,6.47,0,0,0-2.09-4.77,21.66,21.66,0,0,0-5-3.58l-6-3.16A14.54,14.54,0,0,1,196.65,21a12.57,12.57,0,0,1-2.1-7.32A12.78,12.78,0,0,1,198.75,4,14.26,14.26,0,0,1,208.9,0q6.72,0,10.43,4.31a14.91,14.91,0,0,1,3.71,10h-8.82a7.05,7.05,0,0,0-1.44-4.58A4.71,4.71,0,0,0,208.9,8Z"/><path d="M230.92,9.66V.7h8.89v9Zm.28,40v-35h8.26v35Z"/><path d="M255.23,14.7l5.46,9.77,4.9-9.77h8.89l-9.69,17.13,10,17.87h-9.17L260.15,40l-5.48,9.68h-9.1l10.1-17.65L245.92,14.7Z"/><path d="M279,22.05V14.7h4.62V5.6h8.19v9.1h10.92v7.35H291.83V39.9a3,3,0,0,0,.91,2.31,3.2,3.2,0,0,0,2.24.84,2.92,2.92,0,0,0,2.14-.8,3.17,3.17,0,0,0,.8-2.35V39h7.42v.56A10.46,10.46,0,0,1,294.63,50.4a10.62,10.62,0,0,1-8-3.08q-3-3.07-3-8.82V22.05Z"/><path d="M317.5,14.7l6.79,22.38,8-22.38h8.54L323.45,62.3l-8.19.06,5.33-14.92L308.33,14.7Z"/><path d="M340.06,8.89V.7H369V8.89H359V49.7h-9V8.89Z"/><path d="M399.37,27.9V14.7h8.12V29L403.78,49.7H392.37l-3.71-16.24-4,16.24H373.54L369.83,29V14.7H378V27.86L379.51,42h.7l4-15.76,8.4.1,4,15.74h.82Z"/><path d="M440.76,26V38.43a11.31,11.31,0,0,1-3.6,8.54,13.08,13.08,0,0,1-9.42,3.43A13.31,13.31,0,0,1,418.22,47a11.28,11.28,0,0,1-3.64-8.54V26a11.28,11.28,0,0,1,3.64-8.54A13.31,13.31,0,0,1,427.74,14a13.08,13.08,0,0,1,9.42,3.43A11.31,11.31,0,0,1,440.76,26Zm-8.05,12V26.39a4.88,4.88,0,0,0-1.47-3.71,5.43,5.43,0,0,0-7.28,0,4.88,4.88,0,0,0-1.47,3.71V38A4.88,4.88,0,0,0,424,41.72a5.18,5.18,0,0,0,3.71,1.4,5,5,0,0,0,3.57-1.4A4.88,4.88,0,0,0,432.71,38Z"/><polygon class="cls-1" points="28.27 49.7 56.55 19.54 37.7 19.54 37.7 0.69 18.85 0.69 18.85 19.54 0 19.54 28.27 49.7"/></svg>