<svg id="Layer_1" data-name="Layer 1" xmlns="http://www.w3.org/2000/svg" viewBox="0 0 475 50.44"><defs><style>.cls-1{fill:#f17041;}</style></defs><title>logo</title><path d="M98.85,14.49V35.63A14.24,14.24,0,0,1,94.61,46.2a15.61,15.61,0,0,1-21.35,0A14.15,14.15,0,0,1,69,35.63V14.77a14.2,14.2,0,0,1,4.3-10.5,15.4,15.4,0,0,1,21.28,0A13.87,13.87,0,0,1,98.85,14.49ZM90.31,36.2v-22a6.06,6.06,0,0,0-1.86-4.45,6.39,6.39,0,0,0-9,0,6,6,0,0,0-1.88,4.45v22a6,6,0,0,0,1.89,4.44,6.35,6.35,0,0,0,9,0h0A6,6,0,0,0,90.31,36.2Z"/><path d="M125.52,49.7V26.88a5.63,5.63,0,0,0-1.36-4,4.8,4.8,0,0,0-3.68-1.47,5.2,5.2,0,0,0-3.77,1.5,5.37,5.37,0,0,0-1.54,4V49.7h-8v-35h7.56l.49,3.36c.18-.28.45-.64.8-1.09a9.24,9.24,0,0,1,2.44-1.77,8.76,8.76,0,0,1,4.34-1.08,9.89,9.89,0,0,1,7.8,3.39q3,3.4,3,9.21v23Z"/><path d="M158.86,39.41H167a11.53,11.53,0,0,1-4.26,8,13.68,13.68,0,0,1-8.9,3A13.13,13.13,0,0,1,144.46,47a11.28,11.28,0,0,1-3.64-8.54V26a11.29,11.29,0,0,1,3.68-8.51,14.56,14.56,0,0,1,18.76-.07,11.13,11.13,0,0,1,3.6,8.44v9H148.78v3.43a4.87,4.87,0,0,0,1.44,3.64,5,5,0,0,0,3.6,1.4,5.12,5.12,0,0,0,3.23-1,4.12,4.12,0,0,0,1.54-2ZM148.78,26V28.2h10.15V26a4.53,4.53,0,0,0-1.43-3.5,5.11,5.11,0,0,0-3.61-1.33,5.24,5.24,0,0,0-3.57,1.36A4.47,4.47,0,0,0,148.78,26Z"/><path d="M167.49,8.89V.7H196.4V8.89h-10V49.7h-9V8.89Z"/><path d="M226.8,27.9V14.7h8.12V29L231.21,49.7H219.8l-3.71-16.24-4,16.24H201L197.29,29V14.7h8.12V27.86L207,42h.71l4-15.77,8.4.11,4,15.74h.82Z"/><path d="M268.2,26V38.43A11.32,11.32,0,0,1,264.59,47a13.07,13.07,0,0,1-9.41,3.43A13.3,13.3,0,0,1,245.66,47,11.26,11.26,0,0,1,242,38.43V26a11.24,11.24,0,0,1,3.64-8.54A13.3,13.3,0,0,1,255.16,14a13.07,13.07,0,0,1,9.41,3.43A11.33,11.33,0,0,1,268.2,26Zm-8.05,12V26.39a4.87,4.87,0,0,0-1.47-3.71,5.42,5.42,0,0,0-7.28,0,4.87,4.87,0,0,0-1.47,3.71V38a4.87,4.87,0,0,0,1.47,3.71,5.16,5.16,0,0,0,3.71,1.4,5,5,0,0,0,3.57-1.4A4.87,4.87,0,0,0,260.15,38Z"/><path d="M305.62,14.49V35.63a14.23,14.23,0,0,1-4.23,10.57,15.62,15.62,0,0,1-21.39,0,14.17,14.17,0,0,1-4.31-10.53V14.77A14.23,14.23,0,0,1,280,4.27a15.4,15.4,0,0,1,21.28,0A13.85,13.85,0,0,1,305.62,14.49ZM297.08,36.2v-22a6,6,0,0,0-1.85-4.45,6.39,6.39,0,0,0-9,0,6,6,0,0,0-1.89,4.45v22a6,6,0,0,0,1.89,4.44,6.37,6.37,0,0,0,9,0A6,6,0,0,0,297.08,36.2Z"/><path d="M332.3,49.7V26.88a5.63,5.63,0,0,0-1.36-4,4.8,4.8,0,0,0-3.68-1.47,5.24,5.24,0,0,0-3.78,1.5,5.37,5.37,0,0,0-1.54,4V49.7h-8.05v-35h7.56l.49,3.36c.19-.28.46-.64.81-1.09a9.27,9.27,0,0,1,2.48-1.77,8.76,8.76,0,0,1,4.34-1.08,9.91,9.91,0,0,1,7.81,3.39q3,3.4,3,9.21v23Z"/><path d="M365.64,39.41h8.12a11.51,11.51,0,0,1-4.27,8,13.67,13.67,0,0,1-8.89,3A13.08,13.08,0,0,1,351.22,47a11.24,11.24,0,0,1-3.64-8.54V26a11.2,11.2,0,0,1,3.68-8.51A14.55,14.55,0,0,1,370,17.39a11.12,11.12,0,0,1,3.61,8.44v9H355.56v3.43A4.84,4.84,0,0,0,357,41.93a4.93,4.93,0,0,0,3.6,1.4,5.09,5.09,0,0,0,3.22-1,4.12,4.12,0,0,0,1.54-2ZM355.56,26V28.2h10.15V26a4.54,4.54,0,0,0-1.44-3.5,5,5,0,0,0-3.6-1.33,5.24,5.24,0,0,0-3.57,1.36A4.44,4.44,0,0,0,355.56,26Z"/><path d="M374.26,8.89V.7h28.91V8.89h-10V49.7h-9V8.89Z"/><path d="M433.57,27.9V14.7h8.12V29L438,49.7H426.57l-3.71-16.24-4,16.24H407.74L404,29V14.7h8.12V27.86L413.68,42h.71l4-15.77,8.4.11,4,15.74h.82Z"/><path d="M475,26V38.43A11.34,11.34,0,0,1,471.4,47,13.15,13.15,0,0,1,462,50.4,13.3,13.3,0,0,1,452.48,47a11.24,11.24,0,0,1-3.64-8.54V26a11.24,11.24,0,0,1,3.64-8.54A13.34,13.34,0,0,1,462,14a13.09,13.09,0,0,1,9.42,3.43A11.3,11.3,0,0,1,475,26ZM467,38V26.39a4.87,4.87,0,0,0-1.47-3.71,5.42,5.42,0,0,0-7.28,0,4.87,4.87,0,0,0-1.47,3.71V38a4.87,4.87,0,0,0,1.47,3.71,5.2,5.2,0,0,0,3.71,1.4,5,5,0,0,0,3.57-1.4A4.86,4.86,0,0,0,466.92,38Z"/><polygon class="cls-1" points="28.27 0.69 0 30.85 18.85 30.85 18.85 49.7 37.7 49.7 37.7 30.85 56.55 30.85 28.27 0.69"/></svg>