<?xml version="1.0" standalone="no"?>
<!DOCTYPE svg PUBLIC "-//W3C//DTD SVG 20010904//EN"
 "http://www.w3.org/TR/2001/REC-SVG-20010904/DTD/svg10.dtd">
<svg version="1.0" xmlns="http://www.w3.org/2000/svg"
 width="512.000000pt" height="512.000000pt" viewBox="0 0 512.000000 512.000000"
 preserveAspectRatio="xMidYMid meet">
<metadata>
Created by potrace 1.11, written by Peter Selinger 2001-2013
</metadata>
<g transform="translate(0.000000,512.000000) scale(0.100000,-0.100000)"
fill="#000000" stroke="none">
<path d="M2533 4752 c-24 -24 -203 -214 -303 -322 -37 -40 -247 -264 -300
-320 -35 -37 -219 -233 -294 -314 -97 -104 -406 -434 -456 -487 -14 -14 -77
-81 -140 -149 -63 -67 -131 -139 -150 -160 -19 -21 -84 -90 -145 -155 -60 -64
-123 -131 -140 -149 -25 -27 -237 -252 -328 -350 -88 -94 -254 -271 -265 -282
-17 -17 -126 -15 858 -17 l835 -2 0 -852 0 -853 855 0 855 0 0 838 c-1 460 1
844 3 853 3 16 73 17 845 17 565 -1 842 3 842 9 0 6 -55 69 -121 139 -67 71
-136 145 -154 164 -18 19 -85 91 -150 160 -65 69 -132 141 -150 160 -18 19
-86 91 -150 160 -65 69 -131 139 -146 155 -23 25 -174 187 -304 325 -66 70
-155 165 -300 320 -128 137 -215 229 -315 335 -26 27 -76 81 -276 295 -18 19
-69 74 -113 121 -45 47 -112 119 -151 160 -38 41 -103 110 -142 152 l-73 76
-27 -27z"/>
</g>
</svg>
