<?xml version="1.0" encoding="utf-8"?>
<!-- Generator: Adobe Illustrator 23.0.3, SVG Export Plug-In . SVG Version: 6.00 Build 0)  -->
<svg version="1.1" id="Layer_1" xmlns="http://www.w3.org/2000/svg" xmlns:xlink="http://www.w3.org/1999/xlink" x="0px" y="0px"
	 viewBox="0 0 200 200" style="enable-background:new 0 0 200 200;" xml:space="preserve">
<style type="text/css">
	.st0{fill-rule:evenodd;clip-rule:evenodd;fill:#600000;}
</style>
<title>alabama-am</title>
<desc>Created with Sketch.</desc>
<g>
	<g id="alabama-am_BGD">
		<g id="alabama-am" transform="translate(19.000000, 0.000000)">
			<g id="g10">
				
					<g transform="translate(81.000000, 100.325131) scale(-1, 1) rotate(-180.000000) translate(-81.000000, -100.325131) translate(0.000000, 0.820180)">
					<g id="g12" transform="translate(0.000000, 0.232588)">
						<path id="path14" class="st0" d="M47.3,85.2c21.2-0.9,46.2-0.9,67.4,0c-11.2,30.4-22.4,60.9-34.3,90.7
							C69.6,145.5,58.3,115.6,47.3,85.2z M99.8,195.7c0-2,0-3.9,0-5.9c-2.7,0.5-4.6,0.5-6.4-1.1c-0.1-7.3,3.9-13.8,6.4-20.4
							c15-39.3,30.2-80.8,45.5-120.2c2.4-6.3,3.5-13.9,9.1-18.2c3.2-0.6,4.3,3.3,6.4,2.1c-0.3-7.2-4.8-12.8-8.6-17.2
							c-1.8-2.2-4.3-4.5-6.4-6.4c-2-1.8-4.4-4.3-7-4.3c-1.2,3.2,2,5.3,2.1,8.6c0.2,4.2-3.5,10.6-5.4,15.6
							c-5.5,14.4-11.8,31.5-17.1,45.1c-25.2,0-50.3,0-75.5,0c-4.6-11.9-11-28.2-16.1-41.9c-2.2-6-5.7-11.1-4.8-18.2
							c0.4-3.7,4-5.4,1.6-9.1c-2.8,1.1-5.2,3.6-7.5,5.9C12,14.4,9.2,18.3,5.6,24c-1.3,2.1-4.4,4.5-2.7,7.5c2.5,2,2.6-2.1,5.4-1.6
							c2.8,2.2,3.6,6,4.8,9.1c18.3,48.6,37.5,99.4,55.1,149.2c-0.9,2.6-4.6,1.2-5.9,2.1c0,1.8,0,3.6,0,5.4
							C73.9,197.6,90,197.8,99.8,195.7L99.8,195.7z"/>
						<path id="path16" class="st0" d="M28.6,173.2c1.8-4.6-4.4-6.5-5.4-10.2c-1.4-5.4,0-14.2,0-22c0-14.4,0-28.6,0-43.5
							c0-7.3,0.9-15.4,0-21.5c-0.7-4.4-3.3-9.4-4.8-13.4c-1.8-4.7-3.7-8.9-5.4-12.9c-2.2,0.5-3.2,4-3.7,5.9c-0.7,2.5-1.4,5.6-1.6,8
							c-2.5,25.4,1.8,58.7,0,85.3c-1.9,2.5-5.9-0.5-7.5,0.5c-1.1,4.1,1.9,6.5,4.3,8.6c6.8,6,15.1,11.1,23,16.1
							C28,174,28.5,173.8,28.6,173.2"/>
						<path id="path18" class="st0" d="M133,173.7c0.5,0,1.1,0,1.6,0c7.9-4.3,14.7-9.6,21.4-15.6c2.1-1.8,6.1-3.5,4.8-7.5
							c-0.8-2.7-4.2,1.7-6.4-0.5c-2.4-24.9,1.3-58-0.5-82.6c-0.5-6.4-1.9-14.1-5.9-17.7c-2.2,6.8-4.2,12.5-7,19.9
							c-0.7,1.9-2.3,3.9-2.7,5.9c-1,6.1,0,14.2,0,22c0,14.5,0,28.8,0,44c0,7.5,1.3,16,0,21.5C137.4,166.8,131.3,168.5,133,173.7"/>
						<path id="path20" class="st0" d="M74.1,108.3c5.4,0,10.7,0,16.1,0c-2.8,7.3-5.2,14.9-8.6,21.5
							C79.1,122.6,76.2,115.8,74.1,108.3z M88.6,143.7c0.5-2.3-1.2-2.4-2.1-3.2c4.5-11.1,8.3-23.2,12.8-34.9
							c1.5-3.9,2.5-8.1,4.3-11.3c1.1-2,3.8-3.3,3.7-5.9c-3.8,0.4-13.2-1.2-15,0.5c-0.3,2.7,3.5,1.1,3.2,3.8c-0.4,2.8-1.8,4.6-2.7,7
							c-7.1,0-14.3,0-21.4,0c-1.8-1.4-2.5-3.9-3.2-6.4c-0.3-2.8,3.4-1.6,3.7-3.8c-1.1-2-4.9-1-7.5-1.1c-2.9,0-6.1,0-8.6,0
							c-0.4,3.4,3,3.1,3.7,5.4c5.1,15.8,11.3,30.5,16.6,46.1c0.6,2.4-3,0.6-2.1,3.2C77.9,144.3,83.9,143.4,88.6,143.7L88.6,143.7z"
							/>
						<path id="path22" class="st0" d="M93.4,69.6c6.5-0.7,15.6,1.4,20.3-1.1c0.3-2.3-2-1.9-3.7-2.1c1.4-10.4,4.9-18.7,8.6-26.8
							c2.1-0.6,3.7,1.6,4.3-0.5c0.6-3.3-3.6-5.1-5.9-7c-2.6-2.1-5-5.2-8.6-5.4c-1.7,2.9,2.2,3,2.1,5.9c-3.1,10.3-7,19.8-10.2,30
							c-3.3-2.3-3.9-6.6-5.4-10.2c-4.3-10.2-8.8-21.4-13.4-31.7c-3.4,2.1-4,6.8-5.4,10.2c-4.2,10.3-8.9,21.8-13.9,31.7
							c-4.2-9.4-7.2-20-10.7-30c0.2-2.6,3.8-3,2.1-5.9c-3.5,0.3-6.7,3.3-9.1,5.4c-2.4,2-6.3,4.4-5.4,8c1.5,1.6,1.7-1,3.7-0.5
							c4.9,6.5,6.2,16.7,9.6,24.7c0,3-4.7,1.4-4.3,4.8c5.7,1.2,13.7,0.2,20.3,0.5c4.4-9.1,7.8-19.3,11.8-29c0.4-0.1,0.5-0.5,1.1-0.5
							c-0.1,2.4,1.7,4.6,2.7,7C87.2,54.4,89.8,62.9,93.4,69.6"/>
						<path id="path24" class="st0" d="M128.2,39.1c0.1-6.2,5-9.8,4.8-14.5c-0.3-6-10.2-12.7-16.1-16.1c-11.6-6.7-25.4-9.6-45.5-8
							c-8.7,0.7-18.7,4.2-25.7,8C39.4,11.9,28.6,19.3,28.1,24c-0.3,2.9,5.1,11.7,5.9,15c12-10.7,23.5-21.6,44.4-23.1
							c19.7-1.4,35.2,7.8,44.4,18.2C124.2,35.8,125.6,38.4,128.2,39.1"/>
					</g>
				</g>
			</g>
		</g>
	</g>
</g>
</svg>
