<?xml version="1.0" encoding="UTF-8"?>
<svg width="200px" height="200px" viewBox="0 0 200 200" version="1.1" xmlns="http://www.w3.org/2000/svg" xmlns:xlink="http://www.w3.org/1999/xlink">
    <!-- Generator: Sketch 54.1 (76490) - https://sketchapp.com -->
    <title>colgate</title>
    <desc>Created with Sketch.</desc>
    <g id="colgate" stroke="none" stroke-width="1" fill="none" fill-rule="evenodd">
        <g id="colgate_BGD">
            <g id="colgate" transform="translate(19.000000, 0.000000)">
                <g fill-rule="nonzero" id="g10">
                    <g transform="translate(80.596928, 100.098002) scale(-1, 1) rotate(-180.000000) translate(-80.596928, -100.098002) translate(0.000000, 0.112722)">
                        <g id="g12">
                            <polyline id="path14" fill="#FFFFFF" points="123.318711 199.746016 37.7518266 199.746016 0 161.99712 0 37.7464159 37.7518266 0 161.069861 0 161.069861 161.994189 123.318711 199.746016"></polyline>
                            <polyline id="path16" fill="#231F20" points="121.279552 194.822953 39.7905343 194.822953 4.92335635 159.958412 4.92335635 39.7851236 39.7905343 4.92308582 121.279552 4.92308582 156.147474 39.7851236 156.147474 159.955707 121.279552 194.822953"></polyline>
                            <path d="M146.981743,112.831191 L146.981743,156.164157 L117.484395,185.658124 L43.585917,185.658124 L14.0887939,156.164157 L14.0887939,43.5820844 L43.585917,14.0873736 L117.484395,14.0873736 L146.981743,43.5820844 L146.981743,86.4864782 L92.2170889,86.4864782 L92.2170889,60.7288272 L68.6593395,60.7288272 L68.6593395,84.2042889 C68.8850109,85.4316166 69.0002138,86.4055431 69.0002138,86.8537297 C69.0002138,86.8740198 68.9968321,86.8821359 68.9957049,86.9010733 C68.8818547,86.8338904 68.7711607,86.7504754 68.6593395,86.6695403 L68.6593395,139.014033 L92.2170889,139.014033 L92.2170889,112.831191 L146.981743,112.831191" id="path18" fill="#B5B4B4"></path>
                            <path d="M119.977151,102.560549 C117.89899,99.4557076 116.539326,97.5960039 115.066487,96.7873293 C115.066487,96.7925145 115.065134,96.7952199 115.065134,96.8017578 C115.065134,98.8503852 117.157273,106.424242 117.330866,107.075555 C118.210105,107.546737 121.282708,109.205794 121.282708,109.205794 L122.903439,117.549549 C122.903439,117.549549 119.698725,115.88711 119.680915,115.877191 C119.811899,116.38467 119.982336,117.04207 120.169907,117.768006 L127.323082,117.768006 C123.480581,113.684729 120.490491,107.74017 119.977151,102.560549 L119.977151,102.560549 Z M109.445218,111.169428 L107.780299,110.40201 L105.226448,100.731732 C105.226448,100.731732 106.073899,101.164813 106.901962,101.589328 C106.41545,99.7348097 105.952384,97.862481 105.677114,96.064775 C103.961696,93.5607468 102.868508,91.9959264 102.105148,91.1365265 C102.345248,92.861188 103.098238,96.1337614 103.654188,98.206737 C103.656217,98.2132749 106.753844,109.938268 106.753844,109.938268 L101.909687,107.710637 C101.909687,107.710637 99.1398578,104.910598 97.7499835,103.507422 C96.7077468,104.211715 95.1176765,104.635554 92.717128,103.530643 C88.2803517,101.486525 80.1090631,92.4808607 78.881059,83.5270492 C77.9815297,82.0905076 77.1570738,80.8922624 76.3495264,79.8333427 L79.6563676,97.4163235 L76.1119064,95.7818403 C76.1119064,95.7818403 73.2816579,93.1849284 72.060868,92.1557676 C70.5986256,92.6907509 69.074611,92.5940345 67.3438624,91.7970831 C66.1269051,91.2370754 64.9056644,90.4067579 63.7256803,89.378048 L63.7256803,143.948594 L97.1525517,143.948594 L97.1525517,117.768006 L111.204373,117.768006 L109.445218,111.169428 Z M94.289839,98.5410733 C94.6557378,95.9283802 91.5173047,85.9073076 88.4002889,84.4155317 C87.8506517,87.428166 91.6884181,97.2262725 94.289839,98.5410733 L94.289839,98.5410733 Z M67.0464992,55.7947171 C70.0873142,59.3957653 72.7223265,64.6950979 74.547086,71.0763456 C76.7661505,72.9664844 78.3922922,74.6156216 79.9918312,76.6509476 C81.0198648,75.1596227 83.1954182,73.6592798 86.3383602,75.1050647 C88.8640313,76.2692676 91.1211961,78.5981243 93.6930836,82.7623365 C94.3295175,81.3871162 95.3882117,80.3644934 97.1525517,80.4512901 L97.1525517,55.7947171 L67.0464992,55.7947171 Z M63.7973721,73.6599562 C63.0155255,75.8093579 65.4149468,84.7972117 68.9957049,86.9010733 C68.9968321,86.8821359 69.0008901,86.8740198 69.0002138,86.8537297 C68.8746404,83.2159338 66.4975383,74.4201599 63.7973721,73.6599562 L63.7973721,73.6599562 Z M140.095046,117.768006 L142.047408,117.768006 L142.047408,154.11801 L115.440953,180.72221 L45.6293591,180.72221 L19.0214837,154.11801 L19.0214837,45.6282319 L45.6293591,19.0222728 L115.440953,19.0222728 L142.047408,45.6282319 L142.047408,81.5523681 L100.110403,81.5523681 C102.070204,82.8263632 103.858216,85.0373116 106.474066,88.6448978 C107.46445,87.0832337 109.546668,85.7934574 112.579142,87.1873897 C115.17921,88.383155 117.683689,90.856748 121.409634,96.0075117 C122.369132,94.8460142 124.894353,92.8553264 129.816514,95.1203819 C133.878825,96.9920342 136.7731,99.8630884 141.728402,106.93871 L142.024412,107.361195 L142.024412,116.046501 L138.918443,111.562381 C135.99193,107.335495 134.37954,105.008667 132.001987,103.914127 C130.411466,103.180526 129.819219,103.456922 129.415897,104.283407 C134.657966,108.372095 139.723286,113.073996 140.095046,117.768006 L140.095046,117.768006 Z" id="path20" fill="#FFFFFF"></path>
                            <path d="M102.084858,50.8603815 L58.7911193,50.8603815 C56.1443838,50.8603815 55.0856896,53.3452468 55.0856896,55.4854052 C55.0856896,58.3005489 56.6807197,61.0737595 58.7911193,63.5750824 L58.7911193,63.8474211 C58.0856989,63.8895795 57.4165753,64.0915791 56.8175654,64.4752881 C55.1722608,65.5342077 54.2679971,67.7478615 54.2679971,70.7090941 C54.2679971,74.6478604 56.1053816,79.4674439 58.7911193,83.5825089 L58.7911193,148.882478 L102.084858,148.882478 L102.084858,122.699636 L137.113298,122.699636 L137.113298,152.072764 L113.39706,175.789002 L47.6730266,175.789002 L23.9565633,152.072764 L23.9565633,47.6694195 L47.6730266,23.955887 L113.39706,23.955887 L137.113298,47.6694195 L137.113298,76.6180325 L102.084858,76.6180325 L102.084858,50.8603815" id="path22" fill="#8E0A26"></path>
                            <polyline id="path24" fill="#B9505A" points="105.608128 47.3391412 58.7906684 47.3391412 58.7906684 43.8104611 109.134779 43.8104611 109.134779 69.5667595 133.588676 69.5667595 133.588676 73.0927342 105.608128 73.0927342 105.608128 47.3391412"></polyline>
                            <polyline id="path26" fill="#B9505A" points="105.608128 126.224709 109.134779 126.224709 109.134779 148.882929 105.608128 148.882929 105.608128 126.224709"></polyline>
                            <path d="M31.0042292,149.153915 C32.8089241,150.955454 48.7898859,166.936867 50.5925517,168.74066 L115.463948,168.74066 C113.677289,170.527319 112.359783,171.843472 111.937974,172.268438 L49.1321129,172.268438 C47.3310251,170.461489 29.2843021,152.417245 27.4809599,150.613903 L27.4809599,49.1303093 C27.9027693,48.7078236 29.2216281,47.3916701 31.0042292,45.6063636 L31.0042292,149.153915" id="path28" fill="#B9505A"></path>
                            <path d="M50.9938455,98.5352117 L49.9482272,98.5949549 C49.9482272,98.5949549 45.2138622,90.8488574 45.2138622,90.1235978 C45.2138622,89.5854583 45.446297,89.0773031 45.8523251,88.7305672 C46.5775848,88.1126199 47.5061966,88.2632178 47.9043342,88.3265681 C48.2458848,88.3619631 48.4273688,88.3304007 48.5134892,88.3094342 C48.5272414,88.2539745 48.5394154,88.1698832 48.5394154,88.0237942 C48.5394154,86.6675113 47.7411113,85.1689721 43.3845937,80.7547403 L42.7276442,80.0901257 L43.9741349,75.3235219 L45.9641463,76.9359113 C52.8871406,82.5393705 56.5472557,88.0375464 56.5472557,92.8303019 C56.5472557,96.2476117 54.5223001,98.3257724 50.9938455,98.5352117" id="path30" fill="#FFFFFF"></path>
                            <path d="M50.9063725,96.8853983 C50.9063725,96.8853983 46.8650283,90.3718138 46.8650283,90.1157072 C46.8650283,89.909875 47.1200077,89.8749309 47.6324464,89.9565423 C49.3699583,90.1427607 50.1892289,89.4964071 50.1892289,88.0131982 C50.1892289,85.9172272 48.9098231,83.997104 44.5618725,79.5925664 L44.920557,78.2225314 C51.3662822,83.4395762 54.8956386,88.5941724 54.8956386,92.8402215 C54.8956386,95.347406 53.5650566,96.7293897 50.9063725,96.8853983" id="path32" fill="#231F20"></path>
                            <path d="M131.933001,117.663399 C133.058878,118.180572 133.672993,117.593511 133.672993,116.0589 C133.672993,112.836376 131.472865,109.573046 127.27912,106.465499 C127.27912,112.449961 130.041058,116.792727 131.933001,117.663399 M89.0667072,82.8901644 C87.6853998,82.2544068 86.712826,83.0349007 86.712826,84.8256179 C86.712826,89.0207162 89.9867521,98.4042276 93.6694117,100.100032 C95.1025717,100.759462 95.9718913,100.034878 95.9718913,98.1929848 C95.9718913,93.997661 92.7493668,84.5846162 89.0667072,82.8901644 M64.6141628,72.1977137 C63.0295032,71.4665925 62.0046259,72.4294722 62.0046259,74.7312754 C62.0046259,78.9766481 64.6646627,86.7998481 68.6047816,88.6133354 C69.781384,89.155082 70.6525072,88.429146 70.6525072,86.8431337 C70.6525072,85.5139044 69.1165439,74.2679839 64.6141628,72.1977137 M61.0336301,54.8965404 C59.6006957,54.2357583 58.6287982,54.8622726 58.6287982,56.3454816 C58.6287982,58.954793 61.1876097,62.2298464 66.7121628,66.7694261 C64.9726218,59.3700645 63.3345315,55.9545583 61.0336301,54.8965404 M132.700193,102.41446 C129.938255,101.141818 128.095685,102.033457 127.481119,104.871821 C131.676894,108.080368 138.481304,113.515419 138.481304,118.324181 C138.481304,120.931914 136.435382,121.730895 133.364132,120.317349 C127.600831,117.66385 122.072446,108.916096 121.585482,101.98476 C119.147961,98.3298305 117.575701,96.0661277 115.513321,95.1151966 C114.285317,94.5504545 113.415321,95.2243125 113.415321,96.8103248 C113.415321,99.7762917 115.358665,105.890386 115.921378,108.194444 L119.80987,110.293571 L120.628013,114.505127 L117.204617,112.927907 L119.707292,122.573837 L113.196864,118.762899 L110.86936,110.000717 L108.894453,109.097129 L107.480907,103.746395 L109.424928,104.743317 C108.70553,101.813647 107.68223,98.4626181 107.266283,95.4513365 C104.094483,90.8204512 103.075017,89.3899967 101.905178,88.8523081 C100.98378,88.4277933 100.371244,88.9134039 100.371244,90.2940349 C100.371244,91.8286455 101.496444,96.5404659 102.059834,98.6422986 L104.259059,106.970272 L102.878428,106.334064 L97.7612558,101.16549 C96.9433379,102.680937 95.4612562,102.969959 93.4146578,102.028271 C89.1002986,100.043445 81.421384,91.1207452 80.4677476,82.935479 C77.9145722,78.8120725 76.0113575,76.5497224 73.771101,74.6241885 C73.771101,74.6241885 76.99588,92.4756754 77.6084166,94.6498762 L77.0457035,94.3912897 C74.9472526,92.4533563 74.0272076,91.6207844 72.3392938,90.2309101 C71.0087118,91.0495043 69.729306,91.0738525 68.0420685,90.298093 C62.1590563,87.5893598 55.9182615,77.5038097 55.9182615,70.7007526 C55.9182615,66.5568305 57.8622819,64.5864329 60.6242203,65.8572718 C62.8755236,66.8963522 64.8711712,69.1943228 68.2979496,74.6088582 L67.2239251,69.2028897 C62.977876,65.714339 56.7361794,60.4880509 56.7361794,55.4754856 C56.7361794,52.8163506 58.475044,51.8252902 61.0859336,53.0260153 C65.9440684,55.2635664 70.4473514,62.3998326 73.1064864,72.0135244 C76.1317456,74.5477623 78.0538978,76.5747469 80.4526427,80.0808824 C80.8758048,76.9029962 82.9895861,75.3861958 85.6376742,76.6060839 C88.5553957,77.9486145 91.1626782,81.1950363 94.5892312,87.6829199 C94.5398586,86.1259902 94.4893587,80.6789905 98.3257724,82.4460359 C100.83431,83.60077 102.955305,86.5536611 107.094042,92.3512292 C107.305285,88.8924374 109.183926,87.4452999 111.88071,88.6863798 C114.540071,89.9110023 117.252637,92.8460831 121.703165,99.29519 L121.703165,99.3010516 C122.370485,95.8720187 125.165339,94.8025031 129.118984,96.6209502 C132.85282,98.3404264 135.616788,101.096503 140.374824,107.889641 L140.374824,110.754833 C137.305378,106.324144 135.51421,103.708971 132.700193,102.41446" id="path34" fill="#231F20"></path>
                            <path d="M151.180223,8.19372043 L153.057737,13.2404634 L156.147474,13.2404634 L156.147474,4.92308582 L154.006639,4.92308582 L154.006639,10.5963205 L153.965834,10.5963205 L151.987094,4.92308582 L150.353739,4.92308582 L148.374323,10.5963205 L148.334194,10.5963205 L148.334194,4.92308582 L146.193359,4.92308582 L146.193359,13.2404634 L149.281743,13.2404634 L151.180223,8.19372043 Z M144.617943,11.5241659 L142.2963,11.5241659 L142.2963,4.92308582 L140.034401,4.92308582 L140.034401,11.5241659 L137.733274,11.5241659 L137.733274,13.2404634 L144.617943,13.2404634 L144.617943,11.5241659 L144.617943,11.5241659 Z" id="path36" fill="#231F20"></path>
                            <polyline id="path38" fill="#FFFFFF" points="123.318711 199.746016 37.7518266 199.746016 0 161.99712 0 37.7464159 37.7518266 0 161.069861 0 161.069861 161.994189 123.318711 199.746016"></polyline>
                            <polyline id="path40" fill="#231F20" points="121.279552 194.822953 39.7905343 194.822953 4.92335635 159.958412 4.92335635 39.7851236 39.7905343 4.92308582 121.279552 4.92308582 156.147474 39.7851236 156.147474 159.955707 121.279552 194.822953"></polyline>
                            <path d="M146.981743,112.831191 L146.981743,156.164157 L117.484395,185.658124 L43.585917,185.658124 L14.0887939,156.164157 L14.0887939,43.5820844 L43.585917,14.0873736 L117.484395,14.0873736 L146.981743,43.5820844 L146.981743,86.4864782 L92.2170889,86.4864782 L92.2170889,60.7288272 L68.6593395,60.7288272 L68.6593395,84.2042889 C68.8850109,85.4316166 69.0002138,86.4055431 69.0002138,86.8537297 C69.0002138,86.8740198 68.9968321,86.8821359 68.9957049,86.9010733 C68.8818547,86.8338904 68.7711607,86.7504754 68.6593395,86.6695403 L68.6593395,139.014033 L92.2170889,139.014033 L92.2170889,112.831191 L146.981743,112.831191" id="path42" fill="#C8C7C7"></path>
                            <path d="M119.977151,102.560549 C117.89899,99.4557076 116.539326,97.5960039 115.066487,96.7873293 C115.066487,96.7925145 115.065134,96.7952199 115.065134,96.8017578 C115.065134,98.8503852 117.157273,106.424242 117.330866,107.075555 C118.210105,107.546737 121.282708,109.205794 121.282708,109.205794 L122.903439,117.549549 C122.903439,117.549549 119.698725,115.88711 119.680915,115.877191 C119.811899,116.38467 119.982336,117.04207 120.169907,117.768006 L127.323082,117.768006 C123.480581,113.684729 120.490491,107.74017 119.977151,102.560549 L119.977151,102.560549 Z M109.445218,111.169428 L107.780299,110.40201 L105.226448,100.731732 C105.226448,100.731732 106.073899,101.164813 106.901962,101.589328 C106.41545,99.7348097 105.952384,97.862481 105.677114,96.064775 C103.961696,93.5607468 102.868508,91.9959264 102.105148,91.1365265 C102.345248,92.861188 103.098238,96.1337614 103.654188,98.206737 C103.656217,98.2132749 106.753844,109.938268 106.753844,109.938268 L101.909687,107.710637 C101.909687,107.710637 99.1398578,104.910598 97.7499835,103.507422 C96.7077468,104.211715 95.1176765,104.635554 92.717128,103.530643 C88.2803517,101.486525 80.1090631,92.4808607 78.881059,83.5270492 C77.9815297,82.0905076 77.1570738,80.8922624 76.3495264,79.8333427 L79.6563676,97.4163235 L76.1119064,95.7818403 C76.1119064,95.7818403 73.2816579,93.1849284 72.060868,92.1557676 C70.5986256,92.6907509 69.074611,92.5940345 67.3438624,91.7970831 C66.1269051,91.2370754 64.9056644,90.4067579 63.7256803,89.378048 L63.7256803,143.948594 L97.1525517,143.948594 L97.1525517,117.768006 L111.204373,117.768006 L109.445218,111.169428 Z M94.289839,98.5410733 C94.6557378,95.9283802 91.5173047,85.9073076 88.4002889,84.4155317 C87.8506517,87.428166 91.6884181,97.2262725 94.289839,98.5410733 L94.289839,98.5410733 Z M67.0464992,55.7947171 C70.0873142,59.3957653 72.7223265,64.6950979 74.547086,71.0763456 C76.7661505,72.9664844 78.3922922,74.6156216 79.9918312,76.6509476 C81.0198648,75.1596227 83.1954182,73.6592798 86.3383602,75.1050647 C88.8640313,76.2692676 91.1211961,78.5981243 93.6930836,82.7623365 C94.3295175,81.3871162 95.3882117,80.3644934 97.1525517,80.4512901 L97.1525517,55.7947171 L67.0464992,55.7947171 Z M63.7973721,73.6599562 C63.0155255,75.8093579 65.4149468,84.7972117 68.9957049,86.9010733 C68.9968321,86.8821359 69.0008901,86.8740198 69.0002138,86.8537297 C68.8746404,83.2159338 66.4975383,74.4201599 63.7973721,73.6599562 L63.7973721,73.6599562 Z M140.095046,117.768006 L142.047408,117.768006 L142.047408,154.11801 L115.440953,180.72221 L45.6293591,180.72221 L19.0214837,154.11801 L19.0214837,45.6282319 L45.6293591,19.0222728 L115.440953,19.0222728 L142.047408,45.6282319 L142.047408,81.5523681 L100.110403,81.5523681 C102.070204,82.8263632 103.858216,85.0373116 106.474066,88.6448978 C107.46445,87.0832337 109.546668,85.7934574 112.579142,87.1873897 C115.17921,88.383155 117.683689,90.856748 121.409634,96.0075117 C122.369132,94.8460142 124.894353,92.8553264 129.816514,95.1203819 C133.878825,96.9920342 136.7731,99.8630884 141.728402,106.93871 L142.024412,107.361195 L142.024412,116.046501 L138.918443,111.562381 C135.99193,107.335495 134.37954,105.008667 132.001987,103.914127 C130.411466,103.180526 129.819219,103.456922 129.415897,104.283407 C134.657966,108.372095 139.723286,113.073996 140.095046,117.768006 L140.095046,117.768006 Z" id="path44" fill="#FFFFFF"></path>
                            <path d="M102.084858,50.8603815 L58.7911193,50.8603815 C56.1443838,50.8603815 55.0856896,53.3452468 55.0856896,55.4854052 C55.0856896,58.3005489 56.6807197,61.0737595 58.7911193,63.5750824 L58.7911193,63.8474211 C58.0856989,63.8895795 57.4165753,64.0915791 56.8175654,64.4752881 C55.1722608,65.5342077 54.2679971,67.7478615 54.2679971,70.7090941 C54.2679971,74.6478604 56.1053816,79.4674439 58.7911193,83.5825089 L58.7911193,148.882478 L102.084858,148.882478 L102.084858,122.699636 L137.113298,122.699636 L137.113298,152.072764 L113.39706,175.789002 L47.6730266,175.789002 L23.9565633,152.072764 L23.9565633,47.6694195 L47.6730266,23.955887 L113.39706,23.955887 L137.113298,47.6694195 L137.113298,76.6180325 L102.084858,76.6180325 L102.084858,50.8603815" id="path46" fill="#8E0A26"></path>
                            <polyline id="path48" fill="#B9505A" points="105.608128 47.3391412 58.7906684 47.3391412 58.7906684 43.8104611 109.134779 43.8104611 109.134779 69.5667595 133.588676 69.5667595 133.588676 73.0927342 105.608128 73.0927342 105.608128 47.3391412"></polyline>
                            <polyline id="path50" fill="#B9505A" points="105.608128 126.224709 109.134779 126.224709 109.134779 148.882929 105.608128 148.882929 105.608128 126.224709"></polyline>
                            <path d="M31.0042292,149.153915 C32.8089241,150.955454 48.7898859,166.936867 50.5925517,168.74066 L115.463948,168.74066 C113.677289,170.527319 112.359783,171.843472 111.937974,172.268438 L49.1321129,172.268438 C47.3310251,170.461489 29.2843021,152.417245 27.4809599,150.613903 L27.4809599,49.1303093 C27.9027693,48.7078236 29.2216281,47.3916701 31.0042292,45.6063636 L31.0042292,149.153915" id="path52" fill="#B9505A"></path>
                            <path d="M50.9938455,98.5352117 L49.9482272,98.5949549 C49.9482272,98.5949549 45.2138622,90.8488574 45.2138622,90.1235978 C45.2138622,89.5854583 45.446297,89.0773031 45.8523251,88.7305672 C46.5775848,88.1126199 47.5061966,88.2632178 47.9043342,88.3265681 C48.2458848,88.3619631 48.4273688,88.3304007 48.5134892,88.3094342 C48.5272414,88.2539745 48.5394154,88.1698832 48.5394154,88.0237942 C48.5394154,86.6675113 47.7411113,85.1689721 43.3845937,80.7547403 L42.7276442,80.0901257 L43.9741349,75.3235219 L45.9641463,76.9359113 C52.8871406,82.5393705 56.5472557,88.0375464 56.5472557,92.8303019 C56.5472557,96.2476117 54.5223001,98.3257724 50.9938455,98.5352117" id="path54" fill="#FFFFFF"></path>
                            <path d="M50.9063725,96.8853983 C50.9063725,96.8853983 46.8650283,90.3718138 46.8650283,90.1157072 C46.8650283,89.909875 47.1200077,89.8749309 47.6324464,89.9565423 C49.3699583,90.1427607 50.1892289,89.4964071 50.1892289,88.0131982 C50.1892289,85.9172272 48.9098231,83.997104 44.5618725,79.5925664 L44.920557,78.2225314 C51.3662822,83.4395762 54.8956386,88.5941724 54.8956386,92.8402215 C54.8956386,95.347406 53.5650566,96.7293897 50.9063725,96.8853983" id="path56" fill="#231F20"></path>
                            <path d="M131.933001,117.663399 C133.058878,118.180572 133.672993,117.593511 133.672993,116.0589 C133.672993,112.836376 131.472865,109.573046 127.27912,106.465499 C127.27912,112.449961 130.041058,116.792727 131.933001,117.663399 M89.0667072,82.8901644 C87.6853998,82.2544068 86.712826,83.0349007 86.712826,84.8256179 C86.712826,89.0207162 89.9867521,98.4042276 93.6694117,100.100032 C95.1025717,100.759462 95.9718913,100.034878 95.9718913,98.1929848 C95.9718913,93.997661 92.7493668,84.5846162 89.0667072,82.8901644 M64.6141628,72.1977137 C63.0295032,71.4665925 62.0046259,72.4294722 62.0046259,74.7312754 C62.0046259,78.9766481 64.6646627,86.7998481 68.6047816,88.6133354 C69.781384,89.155082 70.6525072,88.429146 70.6525072,86.8431337 C70.6525072,85.5139044 69.1165439,74.2679839 64.6141628,72.1977137 M61.0336301,54.8965404 C59.6006957,54.2357583 58.6287982,54.8622726 58.6287982,56.3454816 C58.6287982,58.954793 61.1876097,62.2298464 66.7121628,66.7694261 C64.9726218,59.3700645 63.3345315,55.9545583 61.0336301,54.8965404 M132.700193,102.41446 C129.938255,101.141818 128.095685,102.033457 127.481119,104.871821 C131.676894,108.080368 138.481304,113.515419 138.481304,118.324181 C138.481304,120.931914 136.435382,121.730895 133.364132,120.317349 C127.600831,117.66385 122.072446,108.916096 121.585482,101.98476 C119.147961,98.3298305 117.575701,96.0661277 115.513321,95.1151966 C114.285317,94.5504545 113.415321,95.2243125 113.415321,96.8103248 C113.415321,99.7762917 115.358665,105.890386 115.921378,108.194444 L119.80987,110.293571 L120.628013,114.505127 L117.204617,112.927907 L119.707292,122.573837 L113.196864,118.762899 L110.86936,110.000717 L108.894453,109.097129 L107.480907,103.746395 L109.424928,104.743317 C108.70553,101.813647 107.68223,98.4626181 107.266283,95.4513365 C104.094483,90.8204512 103.075017,89.3899967 101.905178,88.8523081 C100.98378,88.4277933 100.371244,88.9134039 100.371244,90.2940349 C100.371244,91.8286455 101.496444,96.5404659 102.059834,98.6422986 L104.259059,106.970272 L102.878428,106.334064 L97.7612558,101.16549 C96.9433379,102.680937 95.4612562,102.969959 93.4146578,102.028271 C89.1002986,100.043445 81.421384,91.1207452 80.4677476,82.935479 C77.9145722,78.8120725 76.0113575,76.5497224 73.771101,74.6241885 C73.771101,74.6241885 76.99588,92.4756754 77.6084166,94.6498762 L77.0457035,94.3912897 C74.9472526,92.4533563 74.0272076,91.6207844 72.3392938,90.2309101 C71.0087118,91.0495043 69.729306,91.0738525 68.0420685,90.298093 C62.1590563,87.5893598 55.9182615,77.5038097 55.9182615,70.7007526 C55.9182615,66.5568305 57.8622819,64.5864329 60.6242203,65.8572718 C62.8755236,66.8963522 64.8711712,69.1943228 68.2979496,74.6088582 L67.2239251,69.2028897 C62.977876,65.714339 56.7361794,60.4880509 56.7361794,55.4754856 C56.7361794,52.8163506 58.475044,51.8252902 61.0859336,53.0260153 C65.9440684,55.2635664 70.4473514,62.3998326 73.1064864,72.0135244 C76.1317456,74.5477623 78.0538978,76.5747469 80.4526427,80.0808824 C80.8758048,76.9029962 82.9895861,75.3861958 85.6376742,76.6060839 C88.5553957,77.9486145 91.1626782,81.1950363 94.5892312,87.6829199 C94.5398586,86.1259902 94.4893587,80.6789905 98.3257724,82.4460359 C100.83431,83.60077 102.955305,86.5536611 107.094042,92.3512292 C107.305285,88.8924374 109.183926,87.4452999 111.88071,88.6863798 C114.540071,89.9110023 117.252637,92.8460831 121.703165,99.29519 L121.703165,99.3010516 C122.370485,95.8720187 125.165339,94.8025031 129.118984,96.6209502 C132.85282,98.3404264 135.616788,101.096503 140.374824,107.889641 L140.374824,110.754833 C137.305378,106.324144 135.51421,103.708971 132.700193,102.41446" id="path58" fill="#231F20"></path>
                            <path d="M151.180223,8.19372043 L153.057737,13.2404634 L156.147474,13.2404634 L156.147474,4.92308582 L154.006639,4.92308582 L154.006639,10.5963205 L153.965834,10.5963205 L151.987094,4.92308582 L150.353739,4.92308582 L148.374323,10.5963205 L148.334194,10.5963205 L148.334194,4.92308582 L146.193359,4.92308582 L146.193359,13.2404634 L149.281743,13.2404634 L151.180223,8.19372043 Z M144.617943,11.5241659 L142.2963,11.5241659 L142.2963,4.92308582 L140.034401,4.92308582 L140.034401,11.5241659 L137.733274,11.5241659 L137.733274,13.2404634 L144.617943,13.2404634 L144.617943,11.5241659 L144.617943,11.5241659 Z" id="path60" fill="#231F20"></path>
                        </g>
                    </g>
                </g>
            </g>
        </g>
    </g>
</svg>