<?xml version="1.0" encoding="UTF-8"?>
<svg width="200px" height="200px" viewBox="0 0 200 200" version="1.1" xmlns="http://www.w3.org/2000/svg" xmlns:xlink="http://www.w3.org/1999/xlink">
    <!-- Generator: Sketch 54.1 (76490) - https://sketchapp.com -->
    <title>cal-poly</title>
    <desc>Created with Sketch.</desc>
    <g id="cal-poly" stroke="none" stroke-width="1" fill="none" fill-rule="evenodd">
        <g id="cal-poly_BGD">
            <g id="cal-poly" transform="translate(31.000000, 0.000000)">
                <g id="g10" transform="translate(69.500000, 100.494675) scale(-1, 1) rotate(-180.000000) translate(-69.500000, -100.494675) translate(0.000000, 0.611928)" fill-rule="nonzero">
                    <g id="g12">
                        <path d="M134.1178,57.222091 C133.817417,56.7491892 132.813224,55.173304 131.980123,54.5593784 C131.759454,54.3902277 131.157716,53.6484171 130.618193,52.8885041 C130.388774,51.8616289 129.673299,48.8259672 128.636055,47.0448237 L127.415081,45.1063059 C126.511988,43.7144622 125.486409,42.1367278 125.231715,41.1353517 L124.783571,38.5787232 C124.316957,35.5012118 123.98255,33.5565625 123.245689,32.6536792 C122.476747,31.6956126 119.587628,29.1476461 118.552327,28.2417457 C118.305411,27.6558497 116.149264,22.3923232 116.149264,22.3923232 L115.848881,22.1531958 C114.669708,21.2062243 108.824393,17.6500689 108.269317,17.2584334 C107.337061,16.6162836 106.454382,16.800325 105.735991,16.9676266 L105.124532,17.0873362 C104.032849,17.2694312 100.245497,19.09622 100.245497,19.09622 C98.9370329,19.9478131 96.2792761,22.3528093 96.2792761,22.3528093 C95.6833709,23.5389081 94.9572026,25.3581056 94.9766448,26.2458062 C95.0544139,28.2018425 95.9944471,32.4315837 97.0968231,33.7805072 C98.2157251,35.1704044 102.899365,37.5879555 103.964801,37.852582 C104.367256,37.9666468 106.905442,38.601108 110.631551,36.8960726 C111.713513,38.2137548 112.864495,41.663826 113.39624,42.1504506 C113.944512,42.6712363 115.590299,43.5384987 116.29897,43.9296476 C118.159594,48.9289369 120.016329,53.8917294 120.067851,54.9806007 C120.067851,54.9806007 120.67931,57.4490527 120.690004,57.577619 C120.715279,58.4622052 120.683199,60.1292838 119.260998,61.0413157 C118.288885,61.66293 110.564476,66.5752109 107.76479,67.3887499 C105.237297,68.1148912 101.960304,70.0583726 100.186198,71.2681214 C99.1956149,70.8885542 97.3038832,69.405225 95.7154506,70.2705409 C95.0087246,69.9823618 93.8869062,69.211743 92.2877805,69.5892664 C91.7677001,67.0861667 90.6186626,59.5590571 90.6186626,59.5590571 C90.5165907,58.9944752 89.7175139,52.898042 89.2334017,49.174585 L89.2217363,49.0487439 L89.1702143,48.9251413 C88.8756641,47.9724276 87.8228658,44.8249395 86.7379878,43.657819 C86.0147358,42.894013 82.6823327,38.9618915 81.0346013,36.9892126 L80.6797801,36.5599123 C80.6797801,36.5599123 76.8768743,35.9322639 74.9073735,35.603403 C75.4274539,34.0948667 76.1720924,31.9480735 76.1720924,31.9480735 L76.1545944,31.664858 C76.13418,31.0797405 76.056411,29.6296965 75.6821475,28.8157681 C75.5470238,28.5017979 75.3856531,27.679013 75.3710714,27.0912678 C75.3632945,26.8936009 75.3710714,26.7077103 75.3905137,26.5882926 C75.5188326,26.163664 76.4413677,24.4490908 76.9458943,23.5370589 L77.9393937,21.6091495 C78.4371156,20.5375048 78.5547412,18.7007888 78.5129404,17.3724982 C78.5022471,16.9277233 78.4614184,16.5247008 78.4050358,16.233894 C78.2815775,15.4160726 77.5865168,9.72373247 77.3396001,7.60769398 L77.2316955,6.68534568 L70.9392086,4.36288102 L70.581471,4.40512003 C70.3841321,4.42526629 65.4720455,5.03539624 62.7860975,7.48409133 C60.3772017,9.67808709 59.4964674,10.2951271 59.4186983,10.3750309 L58.8432075,11.0900771 L59.2096941,11.924249 C60.6143972,15.2325178 62.4847425,20.1588135 63.3790864,21.143839 C63.3810306,21.3616522 63.2011897,21.9399569 62.7919302,22.4519833 C62.0220167,23.4321427 61.4280558,24.920922 61.4883268,26.4624515 C61.5029084,26.9335041 61.6098409,27.4087417 61.7614905,27.8885536 C61.550542,28.4888537 61.0265731,29.847607 60.6250905,30.9561379 C59.6704756,30.8364282 57.3053248,31.3173107 57.3053248,31.3173107 L46.382664,35.449435 L43.429385,39.715381 C43.429385,39.715381 46.967876,47.1744605 47.6755742,48.6742376 C47.225486,49.1566772 46.7617881,49.6612097 46.7617881,49.6612097 L46.6723537,49.7448118 C46.0268707,50.413142 45.8509183,50.9553392 45.8975797,52.1737499 C45.9150777,52.894149 46.262122,53.7594649 46.6218038,54.4814212 C44.5278726,55.7223139 40.4624963,58.2033209 38.9304464,59.433216 C37.197169,60.8554251 36.6673675,62.2043485 36.7169453,63.4664581 C36.7422202,64.3337205 37.0426031,65.157868 37.4100618,65.9250804 C37.5383807,66.2102424 38.4891071,67.1697688 38.5328522,67.3051478 C37.5539345,69.1182138 29.9490951,84.234721 29.6632939,90.6902832 C29.6069113,91.9535607 29.0800261,94.3730583 29.1276597,95.7521525 C29.3415245,101.736662 31.0145309,107.740637 32.5864374,111.83315 C33.3787095,113.925636 35.0974051,116.310096 36.9881648,118.518399 C35.5572145,120.184601 33.0627728,123.525766 32.3404929,127.049902 C31.3158859,132.083547 33.9794753,134.584797 34.7036994,135.421791 C35.4201466,136.252946 40.3750062,140.202392 43.6743574,140.599477 C43.6743574,140.599477 37.8523732,136.841762 36.3261559,132.770661 C34.8057713,128.693719 37.0960693,125.502435 37.0960693,125.502435 C37.0960693,125.502435 38.0701264,133.397433 40.5548471,135.714739 C43.0551215,138.031073 47.0660594,139.443257 47.0660594,139.443257 C47.0660594,139.443257 50.040725,141.3372 52.0442497,143.166909 C51.0011725,142.6579 49.2737279,142.158623 46.9746808,141.859835 C46.9746808,141.859835 44.1963821,145.756725 42.5146267,146.666713 C40.8173176,147.593246 30.749144,149.686706 30.749144,149.686706 C30.749144,149.686706 40.2301614,150.203501 42.8014,150.273575 C45.3911089,150.358248 50.2808369,147.5913 52.3115808,146.672553 C53.380905,146.179115 53.6842042,145.567915 53.6239332,145.00635 C53.6676783,145.091023 52.6498761,139.99509 52.6498761,139.99509 C52.6498761,139.99509 49.4107958,137.801386 46.7335968,135.147335 C44.5900878,133.022732 43.9465491,129.397379 44.4394103,126.949657 C44.4909323,126.675201 44.5599523,126.428968 44.643554,126.196362 C44.6280002,126.196362 44.8058969,126.348189 45.1889094,126.68396 C45.6224717,127.084938 46.1376916,127.546259 46.691796,128.041642 C46.8531667,128.18471 47.0786969,128.385199 47.0339797,128.34043 L46.8492783,129.192996 L46.5644492,130.504936 C46.5644492,130.504936 48.2598141,134.570198 49.1386042,135.399407 C50.0465577,136.244187 54.2499739,138.318181 54.2499739,138.318181 C54.2499739,138.318181 51.1878182,134.465087 50.9749255,133.443176 C50.8991007,133.074314 50.8874353,132.415425 50.8952122,131.710792 C52.5730791,133.155094 54.0079178,134.323966 54.4443965,134.529322 C55.5448283,135.022759 62.7229102,135.581404 65.4380216,135.578485 C65.5848106,135.778001 65.7617352,135.976544 65.9512972,136.219856 C64.6379726,136.008661 63.3956123,135.862673 62.7481851,135.881165 C60.6163415,135.968758 57.9984414,138.077789 57.2936595,138.842763 L54.1537348,142.241349 L58.6876694,141.344986 C59.2835746,141.22917 61.0839278,140.99267 62.2115788,141.206785 C63.9069437,141.527957 68.8919388,143.58054 69.7211511,144.522645 L70.8079733,145.846264 C72.7580319,148.230725 74.7285048,150.579175 76.5103877,152.443921 C74.7333653,152.358275 72.7774741,152.501342 70.9887863,153.138821 C65.8647791,155.007459 65.2358221,159.888304 65.2076308,160.081007 L64.7692079,163.793953 L67.6583275,161.426038 C68.9774847,160.356437 70.9061567,159.185618 71.6682933,159.151554 C73.249921,159.097052 80.0304086,161.011434 81.0861233,161.807552 C81.4769127,162.115098 82.3868104,162.75063 83.4629394,163.427038 C82.2993202,163.599303 81.1736134,163.825097 80.4367518,164.144323 C78.2038085,165.058204 76.4987224,170.809134 76.4987224,170.809134 C78.3574023,169.991604 80.8187922,169.156557 81.5206577,169.194513 C82.0281007,169.250962 84.1502232,170.070438 85.7056039,170.668013 C87.01504,171.178969 88.1319977,171.602332 89.1079991,171.948809 C86.7584022,173.145905 86.5659238,173.54883 86.3899714,173.913799 L86.2392939,174.220372 C82.272101,182.453088 81.763686,185.134389 81.7957657,186.351924 C81.7977099,186.408373 81.7957657,186.469687 81.8093753,186.526136 L82.2487703,191.371944 L84.621698,187.136363 C85.887389,184.891077 87.4748494,182.253572 87.9346588,181.749428 L88.1300535,181.5431 C88.8309469,180.796617 89.0448118,180.561091 89.8973548,180.462793 C90.5321445,180.38104 92.0641945,180.53384 93.5029216,180.709025 C92.791335,182.083253 91.6967358,183.89155 90.4990927,184.974776 L88.1815755,187.084781 L91.2699782,187.578218 C91.4051019,187.605469 93.9287071,187.968491 97.2931899,186.436597 C97.3155485,186.882345 97.3330465,187.322254 97.3865128,187.787467 C97.6441227,190.161222 99.7652731,193.060531 101.422726,193.96468 L104.167973,195.489761 L103.635255,192.394829 C103.486521,191.49068 103.359175,190.510618 103.345565,189.98701 C103.3339,189.917909 103.350426,189.887739 103.344593,189.841023 C103.530266,189.543208 104.064929,188.913516 104.860117,188.553414 C105.623226,188.221536 109.024649,187.273591 113.524559,186.12905 C115.51253,185.626853 117.04458,184.58353 118.805077,182.532894 C118.827435,182.510509 119.978417,181.146987 120.75708,179.633585 C121.1712,179.858405 121.588236,180.113397 121.886675,180.34795 C122.733385,181.03993 124.808846,184.007367 125.040209,184.737304 C125.547652,186.488179 128.793537,188.690642 130.502512,189.105246 L132.598387,189.575326 L131.601971,181.340664 C131.392967,179.109003 130.183659,176.356654 129.031705,173.968301 C128.231656,172.329349 126.631558,171.230551 125.306568,170.618377 C126.050234,168.123939 126.882363,165.588625 127.157471,165.114652 C127.812675,164.102473 129.470128,160.811918 129.756901,159.500951 C129.809395,159.246933 129.824949,158.886831 129.809395,158.458601 C129.745236,156.543246 128.98796,153.389919 128.189855,152.033209 C127.689217,151.191349 126.601422,147.994225 125.986075,146.020476 C126.008434,145.536771 126.249518,139.346906 126.249518,139.346906 C126.249518,139.346906 125.651668,134.097199 125.541819,133.217382 C125.958856,132.537081 127.520069,129.997873 127.520069,129.997873 L127.569647,129.889843 C127.657137,129.659183 128.110142,128.522428 128.243321,127.745775 C128.264708,127.661102 128.258875,127.550152 128.258875,127.382753 C128.241377,126.848439 127.992516,125.691246 126.675303,122.672226 C126.470187,122.262488 125.922888,121.240577 125.000352,120.820133 C124.905085,120.77439 124.75538,120.669279 124.609563,120.554436 C124.450137,119.503327 124.163363,117.400135 124.147809,117.345633 C123.930056,116.204012 123.054182,114.29839 121.165367,113.614196 C120.84457,112.985477 120.227278,111.779621 120.227278,111.779621 L120.001748,111.585944 C119.735389,111.378642 118.442479,110.348945 117.111656,110.063783 C117.111656,110.063783 116.159958,109.852587 115.239367,109.62874 C115.649598,107.826283 116.494364,104.052022 116.494364,104.052022 C116.494364,104.052022 115.396849,94.3389946 115.35116,93.3316816 C115.987894,92.5832529 119.916202,87.5583671 120.018274,87.4435237 C120.476139,87.034759 121.563933,85.9758639 121.854595,84.7875265 C122.089846,83.7967588 124.495826,77.6010542 125.046042,76.803963 C125.625421,75.9747547 129.717044,70.6540011 131.290895,68.6140707 C131.581557,68.1916805 133.043615,66.0094611 132.968762,64.1800445 C132.934738,63.0958448 134.303473,60.2217425 134.347218,58.0554843 L134.354995,57.593191 L134.1178,57.222091 Z M19.4687457,137.681676 C16.8489013,136.573145 13.6564825,136.626674 10.3610197,137.848102 C10.225896,137.889952 8.18251464,139.468562 8.18251464,139.468562 C15.718334,138.508938 20.289209,141.277832 22.0565103,142.587826 C23.8247837,143.912418 25.4005787,144.705616 25.4005787,144.705616 C24.0279553,144.921677 15.330461,142.318236 15.330461,142.318236 C17.9882177,144.291012 19.2519645,145.797602 24.5976135,146.283253 C29.9578441,146.786423 31.472396,146.039941 34.2030612,145.266208 C36.9201169,144.456464 41.9780204,141.526984 41.9780204,141.526984 C40.5917874,141.393649 35.9975817,137.957106 35.9975817,137.957106 C30.137685,142.294878 22.0934506,138.796047 19.4687457,137.681676 Z M129.095554,166.188146 C129.050716,166.278297 128.972248,166.377646 128.958796,166.412602 C128.958796,166.412602 129.095554,166.223103 129.095554,166.188146 Z M125.969276,118.888215 C125.955824,118.888215 125.890808,118.859036 125.890808,118.859036 C125.922195,118.859036 125.944614,118.908416 125.996179,118.903927 L125.969276,118.888215 L125.969276,118.888215 Z" id="path176" fill="#FFFFFF"/>
                        <path d="M134.448318,57.3167882 C134.147935,56.8434971 133.143742,55.2668333 132.311614,54.6547568 C132.089972,54.4852168 131.488234,53.7438929 130.949684,52.982812 C130.719293,51.9571046 130.003818,48.9213456 128.966573,47.1402021 L127.745599,45.2016843 C126.842506,43.8099379 125.816927,42.2322036 125.562234,41.2308274 L125.11409,38.6741017 C124.647475,35.5954223 124.314041,33.6512597 123.576207,32.7478897 C122.807266,31.7891419 119.918146,29.2431219 118.882846,28.3371242 C118.635929,27.7513255 116.478811,22.4877989 116.478811,22.4877989 L116.180372,22.2486716 C115.001199,21.3016027 109.154912,17.7450581 108.598863,17.3531306 C107.667579,16.7105914 106.785873,16.8958008 106.067481,17.0619344 L105.45505,17.1816441 C104.364339,17.363739 100.576015,19.1915984 100.576015,19.1915984 C99.2685234,20.0431915 96.6097945,22.4477984 96.6097945,22.4477984 C96.0148614,23.633216 95.2886931,25.453484 95.3071632,26.3401141 C95.3859044,28.2960531 96.3259376,32.525113 97.4283136,33.8758856 C98.5462435,35.2658802 103.230856,37.6822634 104.295319,37.9479604 C104.698746,38.0616359 107.236933,38.6954158 110.963042,36.9902832 C112.045004,38.3091332 113.195013,41.7592044 113.725787,42.2458291 C114.275031,42.7663227 115.920818,43.6327092 116.629488,44.0251233 C118.490112,49.0236341 120.346848,53.9860373 120.39837,55.0752978 C120.39837,55.0752978 121.009829,57.5421927 121.020522,57.6726081 C121.045797,58.556513 121.013717,60.2235917 119.591516,61.1356235 C118.619403,61.7564592 110.894994,66.6687401 108.095309,67.4822791 C105.567815,68.209199 102.291795,70.1526804 100.517688,71.3625265 C99.5261333,70.9829593 97.6344016,69.4999221 96.045969,70.3647514 C95.3392429,70.0769616 94.2174246,69.3059536 92.619271,69.683477 C92.0991906,67.1804746 90.9501531,59.6533649 90.9501531,59.6533649 C90.8471091,59.0880045 90.0480323,52.9922525 89.5639201,49.2687956 L89.5522547,49.1433437 L89.5017048,49.0186705 C89.2071546,48.0679033 88.1543563,44.9192474 87.0685062,43.7525162 C86.3452542,42.9883209 83.0138232,39.0565886 81.3651197,37.0838124 L81.0102985,36.6546095 C81.0102985,36.6546095 77.2073927,36.0277397 75.238864,35.6977108 C75.7589445,34.1891745 76.5026108,32.0430626 76.5026108,32.0430626 L76.4860849,31.7598471 C76.4646984,31.175119 76.3869294,29.7240043 76.0126659,28.9092974 C75.8775422,28.5960085 75.7161715,27.7737102 75.7015898,27.1867436 C75.6938129,26.9882981 75.7015898,26.8012395 75.7220042,26.6826005 C75.8503231,26.2583611 76.7718861,24.5444692 77.2764127,23.6313668 L78.2708842,21.7034574 C78.767634,20.6317153 78.8862317,18.795486 78.8434588,17.4678767 C78.8327655,17.0219339 78.7919368,16.619398 78.7355542,16.3292724 C78.6120959,15.5107698 77.9180073,9.81726173 77.6701185,7.70239113 L77.563186,6.78082143 L71.2706991,4.45641027 L70.9119894,4.49933056 C70.7146505,4.51986612 65.803536,5.13009339 63.1166159,7.57878848 C60.7077201,9.77122704 59.8269858,10.389435 59.7492167,10.47002 L59.1737259,11.1843849 L59.5411846,12.0196274 C60.9449156,15.3256578 62.8152609,20.2535106 63.7105769,21.2392175 C63.711549,21.4563494 63.5326802,22.0341675 63.1234207,22.5462912 C62.3535073,23.5271318 61.7585741,25.0144513 61.8188451,26.5559807 C61.834399,27.0282013 61.9403593,27.5042175 62.0920089,27.9828615 C61.8810604,28.5834536 61.3570915,29.9429854 60.9556089,31.0516136 C60.0019661,30.9318066 57.6368154,31.4127864 57.6368154,31.4127864 L46.7131824,35.5441321 L43.7599034,39.8108568 C43.7599034,39.8108568 47.2983944,47.2687684 48.0060926,48.7685455 C47.5560043,49.252153 47.0923065,49.7543496 47.0923065,49.7543496 L47.0038442,49.8379517 C46.3583612,50.5086178 46.1814367,51.0488684 46.2280981,52.268447 C46.2455961,52.9884568 46.5926404,53.8526048 46.9513501,54.5761183 C44.8593631,55.8177897 40.7939869,58.2987967 39.2599927,59.5279131 C37.5276874,60.948565 36.998858,62.298559 37.0474637,63.5619339 C37.0727386,64.4279311 37.3731215,65.2533437 37.7405802,66.0182203 C37.8698712,66.3045502 38.8205976,67.2652446 38.8633706,67.3994556 C37.8844529,69.2135922 30.2796135,84.3291262 29.9938123,90.7856616 C29.9374297,92.0479659 29.4115166,94.4674635 29.4581781,95.8455844 C29.673015,101.831067 31.3450492,107.836015 32.9169558,111.927555 C33.7092279,114.021014 35.4279235,116.404501 37.3196553,118.612804 C35.888705,120.279007 33.3932912,123.620171 32.6710113,127.144307 C31.6464043,132.178925 34.3099937,134.680176 35.0351899,135.516197 C35.750665,136.347351 40.7064967,140.29777 44.0048758,140.693883 C44.0048758,140.693883 38.1828915,136.936167 36.6576464,132.865066 C35.1362896,128.789098 37.4275598,125.595867 37.4275598,125.595867 C37.4275598,125.595867 38.401617,133.491838 40.8863376,135.809145 C43.3856399,138.125478 47.3965778,139.537662 47.3965778,139.537662 C47.3965778,139.537662 50.3722155,141.431606 52.3747681,143.260341 C51.332663,142.753278 49.6042463,142.253028 47.3051992,141.95424 C47.3051992,141.95424 44.5278726,145.85113 42.8451451,146.761118 C41.147836,147.687652 31.0806345,149.781111 31.0806345,149.781111 C31.0806345,149.781111 40.5606798,150.297906 43.1328905,150.36798 C45.7225994,150.452653 50.6123274,147.685705 52.6420992,146.767931 C53.7123955,146.27352 54.0147226,145.66232 53.9544516,145.100755 C53.9991688,145.185428 52.9813666,140.089495 52.9813666,140.089495 C52.9813666,140.089495 49.7422863,137.895791 47.0641152,135.24174 C44.9215783,133.117137 44.2770675,129.491784 44.7709008,127.044062 C44.8214507,126.769606 44.8894986,126.523374 44.9750445,126.290767 C44.9585186,126.290767 45.1364153,126.442594 45.5194278,126.779338 C45.9539622,127.179344 46.46821,127.641637 47.0223144,128.136048 C47.1836851,128.279115 47.4092153,128.479605 47.3654702,128.434835 L47.1797966,129.287402 L46.8959397,130.599341 C46.8959397,130.599341 48.5913046,134.664604 49.4691226,135.493812 C50.377076,136.339565 54.5814644,138.41356 54.5814644,138.41356 C54.5814644,138.41356 51.5193087,134.560466 51.3054439,133.537581 C51.2296191,133.168719 51.2189258,132.50983 51.2267027,131.806171 C52.9035975,133.249499 54.3394083,134.419345 54.7739428,134.6247 C55.8753467,135.117164 63.0534286,135.67581 65.76854,135.67289 C65.9163011,135.872406 66.0922536,136.071922 66.2827877,136.314261 C64.9694631,136.103066 63.7261307,135.958052 63.0787035,135.97557 C60.947832,136.063163 58.3299319,138.172194 57.62515,138.937168 L54.4842531,142.335754 L59.0191599,141.439392 C59.614093,141.323575 61.4134741,141.086102 62.5420972,141.30119 C64.2374621,141.622362 69.2224572,143.674945 70.0526416,144.618024 L71.1384917,145.940669 C73.0895224,148.32513 75.0590232,150.67358 76.8409061,152.538326 C75.0629116,152.45268 73.1089646,152.595748 71.3193047,153.233226 C66.1952975,155.101864 65.5673126,159.982709 65.5381492,160.176386 L65.0997263,163.888358 L67.989818,161.520443 C69.3080031,160.450842 71.2366751,159.280997 71.9997838,159.24596 C73.5814115,159.191458 80.360927,161.105839 81.4176138,161.901957 C81.8074311,162.209504 82.7173288,162.845035 83.7934578,163.521443 C82.6298386,163.694682 81.5041318,163.919502 80.7672702,164.238728 C78.535299,165.152609 76.8292408,170.903539 76.8292408,170.903539 C78.6888928,170.08601 81.1502827,169.251935 81.8521483,169.288918 C82.3586191,169.345367 84.4817137,170.164843 86.0370944,170.762418 C87.3465305,171.273374 88.4634882,171.696737 89.4394896,172.043214 C87.0889206,173.24031 86.8974143,173.643236 86.7204898,174.008204 L86.5698123,174.314778 C82.6035915,182.547493 82.0951765,185.229768 82.1272562,186.446329 C82.1282283,186.503751 82.1272562,186.565066 82.1398937,186.620541 L82.5792887,191.466349 L84.9531885,187.230768 C86.2179074,184.985482 87.8053678,182.347977 88.2651772,181.843834 L88.461544,181.637505 C89.1604932,180.891996 89.3763023,180.655496 90.2288453,180.557198 C90.8616908,180.476418 92.3947129,180.628245 93.8344121,180.80343 C93.1228255,182.177658 92.0272542,183.985955 90.8305832,185.068208 L88.5120939,187.180159 L91.6014688,187.672623 C91.7356203,187.699874 94.2592255,188.062896 97.6227362,186.531002 C97.6460669,186.97675 97.6625928,187.417632 97.7180033,187.881872 C97.9756132,190.255627 100.094819,193.154936 101.754216,194.059085 L104.498491,195.584166 L103.965773,192.489234 C103.81704,191.585085 103.689693,190.605023 103.677055,190.081415 C103.66539,190.013288 103.680944,189.982144 103.676083,189.935428 C103.860785,189.637614 104.395447,189.008895 105.190635,188.647819 C105.953744,188.316914 109.356139,187.367996 113.855078,186.222482 C115.843049,185.722232 117.376071,184.678909 119.135595,182.627299 C119.157954,182.604915 120.308935,181.241392 121.087598,179.728963 C121.500746,179.953784 121.918754,180.207802 122.217193,180.442355 C123.063903,181.135308 125.140337,184.102745 125.370727,184.831709 C125.877198,186.583557 129.124055,188.785047 130.83303,189.199651 L132.928905,189.669731 L131.93249,181.436042 C131.723485,179.204382 130.514177,176.45106 129.361251,174.062706 C128.563146,172.423754 126.963048,171.324956 125.636114,170.712782 C126.380753,168.218344 127.212881,165.684003 127.487989,165.209058 C128.143194,164.196878 129.800646,160.906323 130.087419,159.595356 C130.139913,159.341338 130.155467,158.981236 130.140886,158.553006 C130.075754,156.637652 129.317506,153.484324 128.520373,152.127615 C128.019735,151.285754 126.930969,148.08863 126.316593,146.114881 C126.338952,145.631176 126.581008,139.441311 126.581008,139.441311 C126.581008,139.441311 125.982186,134.191604 125.872338,133.31276 C126.290346,132.632459 127.850588,130.093252 127.850588,130.093252 L127.900165,129.984248 C127.987655,129.754561 128.44066,128.616833 128.57384,127.84018 C128.594254,127.755507 128.588421,127.64553 128.588421,127.477158 C128.571895,126.942844 128.324007,125.785651 127.005821,122.766632 C126.800706,122.356894 126.253406,121.335955 125.330871,120.915512 C125.236576,120.868796 125.085898,120.763685 124.941054,120.649815 C124.780655,119.597732 124.493882,117.49454 124.478328,117.440039 C124.259602,116.298417 123.385673,114.393768 121.495885,113.708601 C121.17606,113.079882 120.557796,111.873053 120.557796,111.873053 L120.331294,111.68035 C120.065907,111.474021 118.772997,110.44335 117.442174,110.158188 C117.442174,110.158188 116.490476,109.946993 115.570857,109.723145 C115.980117,107.920688 116.824883,104.146427 116.824883,104.146427 C116.824883,104.146427 115.727367,94.434373 115.681678,93.42706 C116.31744,92.6776581 120.245748,87.6527723 120.348792,87.5389021 C120.806657,87.1291642 121.894452,86.070269 122.185113,84.8819317 C122.420365,83.8921372 124.825372,77.6954593 125.37656,76.8983682 C125.955939,76.0691599 130.046591,70.7493795 131.621414,68.7083785 C131.911103,68.2859884 133.373161,66.1049368 133.29928,64.2731844 C133.265257,63.1901527 134.633992,60.315953 134.677737,58.1496949 L134.686486,57.6881801 L134.448318,57.3167882 Z M19.7992641,137.777055 C17.1794197,136.666577 13.9870009,136.721079 10.6925102,137.942507 C10.5573865,137.98533 8.51303303,139.562967 8.51303303,139.562967 C16.0488524,138.603343 20.6206995,141.372237 22.3870287,142.683204 C24.1562742,144.007796 25.7310971,144.800021 25.7310971,144.800021 C24.3594458,145.016082 15.6609794,142.412641 15.6609794,142.412641 C18.3187361,144.38639 19.5824829,145.89298 24.929104,146.377658 C30.2883625,146.880828 31.8029144,146.134346 34.5335796,145.360613 C37.2506353,144.551843 42.3095109,141.621389 42.3095109,141.621389 C40.9223058,141.488054 36.3281001,138.051511 36.3281001,138.051511 C30.4682034,142.389283 22.423969,138.890452 19.7992641,137.777055 Z M129.428315,166.282552 C129.381234,166.372702 129.302766,166.472051 129.289315,166.507007 C129.289315,166.507007 129.426073,166.317508 129.428315,166.282552 Z M126.300766,118.98262 C126.287315,118.98262 126.222298,118.953441 126.222298,118.953441 C126.251444,118.953441 126.271621,119.002821 126.327669,118.998332 L126.300766,118.98262 Z M136.836799,58.2120801 C136.783333,59.7164315 136.284639,61.3595682 135.882184,62.665474 C135.717897,63.2224646 135.492367,63.9853946 135.455427,64.2382448 C135.455427,64.2276364 135.470009,64.2101179 135.470009,64.1945459 L135.454455,64.2663717 L135.462232,64.2488532 C135.526391,66.5945785 134.036142,69.0159253 133.394548,69.9291251 L133.365384,69.987228 L133.322611,70.0173014 C129.862861,74.5100146 127.592005,77.506649 127.171081,78.0944915 C126.675303,78.9480311 124.51624,84.4663543 124.271268,85.4045666 C123.897976,86.9043436 122.852955,88.1432899 121.974165,88.9656855 C121.870149,89.0844219 121.191614,89.95548 121.191614,89.95548 C121.191614,89.95548 118.721475,93.0659846 117.920454,94.1112543 C118.071132,95.8202799 118.532885,100.053914 118.971308,103.897275 L119.011165,104.26419 C119.011165,104.26419 118.516359,106.486118 118.138207,108.133829 C119.737333,108.522156 121.140092,109.561586 121.693224,110.005388 L122.273576,110.494932 C122.273576,110.494932 122.801433,111.531442 123.080429,112.06381 C125.156863,113.201538 126.270904,115.365071 126.593646,117.021541 C126.608227,117.068257 126.794873,118.420101 126.934857,119.396269 C127.99446,120.133019 128.66133,121.194834 128.952964,121.85567 C130.489874,125.361314 130.71346,126.618752 130.739707,127.394432 L130.704711,128.199309 C130.545285,129.145307 130.090336,130.315153 129.892997,130.783286 L129.785092,131.074287 C129.785092,131.074287 128.602031,132.991588 128.108197,133.81885 C128.237488,134.967284 128.74882,139.354692 128.74882,139.354692 C128.74882,139.354692 128.518429,145.136765 128.486349,145.82096 C129.31459,148.426348 130.107834,150.59864 130.377109,151.034656 C131.414354,152.798183 132.219263,156.366115 132.291199,158.471253 L132.192044,160.053756 C131.835278,161.701467 130.094224,165.102974 129.377777,166.267953 C129.232932,166.545329 128.805202,167.76481 128.20152,169.727854 C129.323339,170.478229 130.551117,171.548803 131.307421,173.130333 C132.543949,175.694845 133.83297,178.644763 134.088636,181.224847 C134.08572,181.180078 135.068526,189.41182 135.068526,189.41182 L135.430152,192.450304 L130.356695,191.297004 C128.055703,190.760743 124.080734,188.13589 123.289434,185.425391 C123.312764,185.467241 123.340956,185.558726 123.340956,185.558726 C123.157226,185.13147 122.283297,183.871112 121.596013,182.972803 C121.123566,183.616121 120.770689,184.031698 120.765829,184.038511 C118.723419,186.421998 116.812245,187.708634 114.373214,188.32762 C109.099501,189.658052 106.526318,190.421079 106.082063,190.637141 C106.00235,190.654659 105.957632,190.706241 105.893473,190.75393 C105.940134,191.164642 106.00721,191.638614 106.083035,192.117453 L107.395387,199.649428 L103.451525,197.471297 L100.709195,195.951081 C98.8048255,194.907758 96.6292368,192.200179 95.8291879,189.426418 C93.308499,190.066816 91.5062017,189.844916 91.2573408,189.805012 C91.2573408,189.805012 87.2580682,189.153909 86.4171905,189.023493 C85.7464326,190.227403 81.0355734,198.606105 81.0355734,198.606105 L79.999301,186.817137 C79.9876357,186.776261 79.973054,186.514457 79.973054,186.514457 C79.9147272,184.920275 80.4250865,182.100771 84.6207259,173.369753 C84.6207259,173.377539 84.7714034,173.067072 84.7714034,173.067072 C84.8326465,172.924004 84.9327741,172.814027 85.0085989,172.684585 C84.0462071,172.306964 82.3586191,171.656834 81.7141082,171.486515 C81.1191751,171.597466 79.4033958,172.146378 77.6944213,172.899673 L73.4423994,174.748847 L74.7537797,170.304991 C75.1630392,168.95996 76.5045551,165.002729 78.6976418,163.068883 C76.6114875,162.357437 73.1954827,161.457182 72.1874016,161.416305 C71.7237037,161.568132 70.4531521,162.296123 69.3604972,163.201244 L62.3311487,168.939522 L63.4004729,159.923341 C63.6755808,157.559319 65.4982926,153.060961 70.5873037,151.209841 C71.1316869,151.009351 71.7285643,150.876016 72.3303022,150.749494 C71.3066673,149.538772 70.322889,148.346541 69.4674296,147.309058 C69.4742344,147.312951 68.6771018,146.356247 68.4797629,146.106122 C67.6933235,145.454045 63.5326802,143.69733 62.1386703,143.430659 C61.5242949,143.306084 60.1361177,143.434552 59.424531,143.561075 C59.424531,143.561075 57.5269666,143.937722 56.2019767,144.195633 C56.213642,144.241376 56.3040485,144.580067 56.3040485,144.580067 L56.0629645,144.642355 C56.1251798,145.019975 56.1417057,145.385917 56.0804626,145.759645 C55.9424225,146.653088 55.3766528,147.880355 53.5451921,148.729028 L52.1638196,149.392784 C48.7517032,151.090131 45.4970692,152.61132 43.0774801,152.544165 L23.5399546,150.867257 L30.7015105,148.528539 C29.2307036,148.734868 27.3972987,148.782557 24.7288487,148.535352 C19.4366659,148.039968 17.5303525,146.563549 15.3090745,144.85647 C15.3090745,144.85647 13.1237646,141.639881 13.1198762,141.728447 C11.2806385,141.324548 11.422567,141.378077 8.78230831,141.709955 L0.902360962,142.715321 L7.19776425,137.864647 C9.5036161,136.073868 9.59791105,136.036885 9.95176016,135.907443 C13.7216141,134.514723 17.5245198,134.460221 20.6440302,135.794546 L20.7480463,135.82861 C23.0995874,136.83203 28.9614284,139.301163 33.6110445,137.139576 C33.5235543,137.05977 33.451618,136.97899 33.3991239,136.911836 L33.24553,136.753196 C32.4765887,135.888951 30.4254304,133.618361 30.2932231,129.744829 C30.2601712,128.825108 30.3243307,127.806116 30.5440282,126.731649 C31.196316,123.565669 33.0297209,120.618671 34.545245,118.607938 C32.797386,116.402555 31.5453045,114.4181 30.9085705,112.712967 C29.6623218,109.4701 27.5538088,102.9941 27.3030037,95.9214978 C27.2660634,94.9239174 27.4410437,93.6869176 27.6228289,92.4791153 L27.8366937,90.6805507 C28.1137459,84.4245046 34.2506948,71.7673982 36.2969925,67.6982432 C36.0821555,67.425636 35.9023146,67.1929321 35.7856611,66.9409579 C35.4191745,66.1703392 34.9360344,65.0042893 34.889373,63.6436868 C34.8077155,61.4838521 35.8187129,59.5279131 37.9058394,57.8539244 C39.2191639,56.8008687 42.0499568,55.0167082 44.2974818,53.6491957 C44.170135,53.1956616 44.0875054,52.7489402 44.0719516,52.3422193 C44.0204296,50.8666762 44.2274897,49.6251021 45.4202723,48.3810949 C44.5162072,46.4502658 41.2732385,39.599467 41.2732385,39.599467 L45.3220888,33.7531589 L57.039938,29.3229283 L57.2110299,29.2917844 C57.6825047,29.1917343 58.5457409,29.0241408 59.4323079,28.9397601 C59.6257584,28.40895 59.7103322,28.2204316 59.8318463,27.8504996 C59.7424119,27.4388151 59.6695035,27.0289799 59.6626987,26.6309209 C59.5917344,24.8216506 60.2090261,22.9044469 61.2832109,21.4308502 C60.6377279,20.2535106 59.8396232,18.397427 58.6546176,15.5339331 L57.5512694,12.8712205 C57.5454367,12.8750162 56.678312,10.8311928 56.678312,10.8311928 L58.0742662,9.11048813 C58.0781546,9.11165603 58.6371196,8.59194093 58.6371196,8.59194093 L61.6788609,5.97487373 C62.2854593,5.41710459 62.9853807,4.94118571 63.7008558,4.53553543 C63.7008558,4.53553543 66.6658002,3.2261259 68.0209256,2.83994061 C69.3799395,2.45171148 70.7331206,2.22786416 70.7331206,2.22786416 C70.7331206,2.22786416 76.7300853,3.45308763 79.6755874,6.30062025 L79.8048784,7.42783752 C80.2481619,11.1251141 80.7662981,15.3605974 80.86837,15.9905817 L80.988912,17.3880702 C81.0316849,18.381855 81.0258523,20.8662684 80.2394129,22.6017664 L80.2092774,22.6649303 L79.1759214,24.6319643 C78.8658174,25.1934318 78.0920155,26.633938 77.8548199,27.1730208 C77.8859275,27.5148259 77.9646687,27.9623259 78.0093859,28.088167 L77.9957763,28.0421323 C78.4555857,29.0895432 78.6062632,30.6106344 78.6500083,31.6880213 L78.6665342,32.3662787 C78.6665342,32.3662787 78.2990755,33.4341278 78.1124298,33.9877119 C79.7086393,34.2583725 82.1466985,34.6534144 82.1466985,34.6534144 L83.0109069,35.6919687 C84.9201366,37.9666468 87.996874,41.5888858 88.6462455,42.265294 C89.9634585,43.6646318 91.0327827,46.6878359 91.5577237,48.3636738 L91.6559071,48.666257 L91.6947916,48.9799352 C92.2829199,53.5143034 92.9760364,58.7062961 93.0683872,59.2309748 L93.0868573,59.317594 C93.0936621,59.3857214 93.8528823,64.3618474 94.4050424,67.5085569 C95.1263502,67.607731 95.7203112,67.8384884 96.1849812,68.0476396 C97.8259078,67.6982432 99.3618462,68.3669627 100.382565,68.8934905 C102.469691,67.5648107 105.22952,66.0650336 107.497459,65.4073118 C109.004234,64.9743132 113.149324,62.6586613 118.345267,59.3662564 L118.444423,59.3127277 C118.646622,59.1823123 118.863404,58.8766147 118.848822,57.9025869 C118.800216,57.6544083 118.249028,55.4060079 118.249028,55.4060079 L118.236391,55.1444959 L118.241251,55.2018202 C118.110016,54.208814 116.281472,49.2825184 114.888434,45.5225646 C113.739396,44.893067 112.802279,44.3432785 112.249147,43.8281377 C111.717401,43.3251625 111.396604,42.6215033 110.755982,41.2015326 C110.553782,40.746052 110.2952,40.1746573 110.046339,39.6431659 C107.134861,40.5825461 104.935942,40.3381632 103.769406,40.0522226 C102.498855,39.7328995 97.3155485,37.1751032 95.744614,35.2327897 C94.1785401,33.2995274 93.2317021,28.4637439 93.1587937,26.4013314 C93.1033832,24.8228185 94.2018708,22.4364114 94.6840388,21.4764956 L94.8687403,21.1244714 L95.1691232,20.8450515 C95.4510359,20.5861672 97.9833901,18.3058443 99.3832327,17.3800896 L99.497942,17.2983367 L99.6311215,17.2352701 C100.8589,16.6551162 103.832594,15.2545133 105.107034,15.0416636 C105.039958,15.0552891 105.640724,14.9344116 105.640724,14.9344116 C106.489378,14.7584481 108.135165,14.3964967 109.837335,15.5943719 C109.83053,15.5875591 111.364524,16.5490321 111.364524,16.5490321 C114.125325,18.2689581 116.673233,19.8610965 117.530637,20.5610574 L118.270415,21.1488026 C118.270415,21.1488026 120.355597,26.2553441 120.689032,27.0513646 C122.2065,28.393378 124.4793,30.4345736 125.25699,31.4010101 C126.360338,32.7585955 126.735574,34.9278707 127.250794,38.3448515 C127.246905,38.3079653 127.58034,40.2183562 127.669775,40.7334971 C127.848643,41.3991995 128.911163,43.0351342 129.560534,44.0239554 C129.57706,44.0501358 130.799006,45.9947851 130.799006,45.9947851 C131.878051,47.855735 132.610052,50.5971834 132.950292,52.076425 C133.3265,52.5554582 133.627855,52.9204267 133.715345,52.9964375 C134.679681,53.7640391 135.642073,55.1375858 136.284639,56.1682567 L136.862074,57.1053984 L136.836799,58.2120801 L136.836799,58.2120801 Z" id="path178" fill="#B49154"/>
                        <path d="M131.0955,58.6519888 C130.637635,57.5209759 129.978543,57.5132872 128.587449,57.3943561 C127.17983,57.2814592 125.091731,61.0656469 125.091731,61.0656469 L123.225274,61.4675015 C123.225274,61.4675015 120.654036,63.1969654 119.227946,64.4895377 C117.783386,65.7684846 112.607857,71.0082638 109.413494,73.5114609 C109.413494,73.5114609 115.950953,70.6364826 118.890623,69.9622155 C118.890623,69.9622155 117.715338,71.4754234 116.446731,72.7581659 C115.175207,74.0477212 108.19252,78.4896307 106.476741,81.1835846 C106.476741,81.1835846 107.501348,87.6138423 108.590114,88.2406148 C109.68763,88.8557084 110.747233,89.5603408 111.247871,90.1248254 C111.768923,90.6824972 112.34247,90.6211825 112.976288,89.9340685 C113.610105,89.2498743 117.874765,84.4994448 118.187785,83.9116022 C118.490112,83.3257062 119.440839,82.2249613 119.802465,80.9694698 C120.169923,79.7120318 123.237912,73.6000265 124.73691,71.8189804 C126.23688,70.0328734 129.323339,66.7056263 129.907578,64.8845796 C130.494735,63.047961 131.546561,59.7962379 131.0955,58.6519888 L131.0955,58.6519888 Z M70.3802437,59.8966773 C70.4016301,59.9627609 76.6134317,61.1318279 79.0330208,67.0305942 L77.4970824,61.3291055 L76.2430567,59.0275657 C76.2430567,59.0275657 74.4670064,60.169187 73.7991648,60.2790669 C72.9446775,60.4045187 70.3248332,59.8267006 70.3802437,59.8966773 L70.3802437,59.8966773 Z M72.8319124,88.9082638 C75.4867528,89.1184857 79.2429972,88.7885542 80.5359074,87.8123852 C81.8249291,86.8410824 86.4074694,86.5841446 87.7519016,87.1457094 C87.7519016,87.1457094 88.8883016,87.405567 89.4725415,86.7719817 C90.053865,86.1413162 92.2284816,78.3124994 92.2284816,78.3124994 C92.2284816,78.3124994 90.0577534,74.7066109 89.227569,74.2258258 C88.6520781,73.8929746 87.3387536,73.8871351 86.1401384,74.0817849 L84.6139211,74.5275331 C85.0678978,73.9426103 85.697827,73.1766631 86.5105134,72.4846829 C86.5105134,72.4846829 85.5500658,47.6823993 85.2302407,47.1140217 C84.5847577,45.9898215 83.8712268,44.9903919 83.1528353,44.4268806 C82.0008815,43.5566985 79.525882,40.0647775 79.525882,40.0647775 L68.6771018,38.9337646 C68.6771018,38.9337646 65.3087305,44.3577799 64.7604588,45.9100151 C64.1869122,47.4626396 66.8349478,55.6349162 66.8349478,55.6349162 C66.8349478,55.6349162 72.0007559,57.4935302 72.3050272,57.4761091 C72.6083265,57.4771796 75.7900521,55.2063945 75.7900521,55.2063945 C75.7900521,55.2063945 74.2307829,51.4879012 75.5800757,49.3961939 C75.5800757,49.3961939 76.2226423,52.9523493 77.1908668,54.2442403 C78.1493701,55.5344768 80.3832856,58.3120328 80.3832856,58.3120328 L82.7241335,75.0754724 C82.7241335,75.0754724 80.4513335,76.9908269 80.0974844,78.5421862 C80.0061058,78.9285661 80.0459624,79.4842914 80.1470622,80.1266359 L80.7429674,82.5617055 C81.049183,83.5446873 81.3320678,84.3086879 81.3320678,84.3086879 C81.3320678,84.3086879 81.1483385,84.1296101 80.8722584,83.7948123 C80.0760979,82.8390816 78.5450201,80.6745753 78.458502,78.1996024 C78.354486,75.2681757 78.7297215,75.3635542 78.8298492,75.4423873 C78.5722393,75.1971285 73.0856339,70.2248955 67.2617054,68.8448281 C67.2617054,68.8448281 65.7063247,68.7532453 64.8032318,69.2972917 C63.9088879,69.8393915 62.5984797,73.961102 62.3476746,75.1971285 C62.0764551,76.4341283 61.7702395,82.0556159 64.8178135,87.456176 C64.8178135,87.456176 61.9938255,99.5079213 64.2530159,105.546933 C64.2530159,105.546933 60.9429714,98.6310237 60.6357837,95.6781855 C60.3217912,92.7370263 61.541793,89.7316327 61.541793,89.7316327 L58.2356369,80.2453723 L58.1938361,77.6944861 C58.1938361,77.6944861 50.4208211,82.1441816 48.6525477,83.7364174 C46.8716368,85.3305996 44.4170517,89.580779 43.8911386,92.1958998 C43.4497994,94.4139348 42.2278534,102.560031 43.7560149,111.198591 C43.7560149,111.198591 40.8746722,102.116229 40.8882818,93.7375265 C40.8843934,85.3597971 47.3965778,73.9348243 47.3965778,73.9348243 C47.3965778,73.9348243 40.9524413,76.573303 40.2680738,77.1173493 C39.5691246,77.6458236 37.7366917,79.3383041 37.1777268,80.6843078 C36.6148734,82.0390707 32.1664847,92.4178006 32.3599351,97.8183606 C32.4950588,101.37656 33.7811642,106.259351 35.5941548,110.558193 C35.6427605,110.651625 54.4186598,117.055605 59.3253755,118.69553 L59.75991,119.367072 L60.0632092,120.115501 L65.1386108,129.918067 C65.1386108,129.918067 70.228594,135.855861 72.2272582,137.520117 C74.2278666,139.170748 82.4645794,143.88614 82.4645794,143.88614 C82.4645794,143.88614 84.7927898,149.419062 86.3656686,153.245878 C87.6585787,156.393366 93.6885952,165.443611 96.9947513,169.709362 C97.6937004,170.613511 98.2633586,171.303544 98.6522038,171.680192 C98.6522038,171.680192 99.437671,170.282606 102.298599,170.898673 C102.458998,170.939549 102.629118,170.959987 102.806042,171.017409 C102.806042,171.017409 101.590901,171.159504 101.097068,171.58092 C100.604207,172.024722 98.0825456,178.53576 97.0453011,180.717784 C95.9954192,182.914408 94.7345887,184.575744 94.3360224,185.009813 C94.3360224,185.009813 98.3284902,182.704186 98.8407937,182.298341 C99.3365713,181.855513 102.9888,176.118208 103.447637,174.565876 C103.447637,174.565876 107.74632,175.033035 109.465988,174.761499 C111.189544,174.498722 114.073803,172.661227 114.772752,171.914745 C115.463925,171.168263 116.384516,168.494747 116.384516,168.494747 C116.384516,168.494747 117.908789,171.39211 118.454144,172.388717 C118.996583,173.395057 121.657256,176.459819 121.983886,176.754713 C122.292046,177.055447 124.066152,178.000472 124.594009,178.701212 C125.131588,179.398058 127.846699,184.19715 129.826893,185.247286 L128.721601,182.635085 L128.087783,179.591735 C128.087783,179.591735 127.81948,174.803349 122.659505,172.951255 C122.659505,172.951255 124.251825,166.156029 124.586232,164.099554 C124.586232,164.099554 126.675303,160.041104 126.950411,159.214816 C127.224547,158.400206 127.085535,157.481459 126.870698,156.983155 C126.653917,156.476092 125.813039,153.143687 125.074233,152.346596 C125.074233,152.346596 124.337371,148.90324 123.56357,147.193241 C123.56357,147.193241 123.897004,142.1849 123.593705,139.433525 C123.285545,136.687015 122.642006,132.840734 122.642006,132.840734 C122.642006,132.840734 124.966328,129.69422 125.249213,128.860145 C125.521405,128.03191 125.79068,127.101484 125.465022,126.409504 C125.129643,125.700005 123.60537,122.996318 122.374675,122.429887 C122.374675,122.429887 121.624204,121.746666 121.816683,121.125733 C121.986802,120.505774 122.43203,118.755871 121.789463,117.857562 C121.146897,116.962173 120.715279,116.466789 118.594128,117.055605 C116.482699,117.634688 114.989534,115.967512 113.472065,116.117393 C111.940987,116.280899 111.221624,118.861956 110.970819,120.492148 C110.721958,122.143752 110.003566,121.968567 109.212266,122.498988 C108.425827,123.038168 106.819897,124.017257 106.432024,127.186156 C106.351338,127.869377 106.272597,128.545786 106.208438,129.205649 C106.215242,129.199809 106.202605,129.205649 106.116087,130.173058 C105.934302,132.226614 105.762238,134.037831 105.387002,134.896237 C104.818316,136.140049 102.007938,137.36245 101.198168,137.700168 C100.395202,138.031073 100.354374,139.766376 100.354374,139.766376 L98.5627694,149.218573 C98.5627694,149.218573 98.3314065,151.474564 99.1333997,154.205502 C99.9616399,156.939359 101.954471,166.955067 101.954471,166.955067 L95.7864149,145.85113 C95.7864149,145.85113 94.780278,143.345987 95.1282944,141.901685 C95.4801993,140.445704 98.9613357,126.546732 99.1771448,124.084411 C99.3968423,121.628903 100.716972,112.915403 100.716972,112.915403 C100.716972,112.915403 92.7699485,118.811347 91.2485918,119.164636 C89.7379283,119.530578 84.5896182,118.391876 82.7484364,117.840044 L85.7911498,114.676984 C85.7911498,114.676984 89.1711864,106.703153 89.778757,103.806763 C90.3941045,100.937624 89.6825178,95.2314641 89.6825178,95.2314641 C89.6825178,95.2314641 86.8808884,99.9332312 85.5024323,100.895775 C84.105506,101.869997 80.8605931,102.698232 80.8605931,102.698232 C80.8605931,102.698232 83.6534735,100.761466 84.9522164,97.1438989 C86.2499871,93.5263315 85.8125363,89.8630213 85.8125363,89.8630213 C85.8125363,89.8630213 80.7536607,90.9657127 79.0651005,92.2455355 L73.5551645,92.142371 C73.5551645,92.142371 68.4185198,91.0065892 67.6058334,85.6245209 C67.6058334,85.6245209 67.7885906,85.8444752 68.101611,86.1607812 C68.9755405,87.0561705 70.8760212,88.7642229 72.8319124,88.9082638 Z M51.3861293,65.3917398 C51.3861293,65.3917398 54.6670104,67.7955681 54.775887,70.6724928 C54.775887,70.6724928 57.2703288,68.7961656 58.6808646,68.9770927 C58.6808646,68.9770927 55.6760636,64.7553321 52.8054141,64.6161575 L51.3861293,65.3917398 Z M59.1552557,34.376233 L54.4278706,36.2216109 C56.2583592,39.1800939 58.6478128,44.4942294 57.5464089,45.5929305 C56.4382001,46.7091501 57.5833491,51.1773373 57.7865207,52.0688336 C57.9819154,52.9584808 56.8882884,53.7389293 56.0221358,54.5905224 C55.1530668,55.4409476 47.2536772,63.3740968 47.2536772,63.3740968 C47.2536772,63.3740968 57.9770549,56.8122558 59.4313358,55.872097 C60.8652024,54.9193833 60.7436883,52.0414853 60.3597036,50.6614179 C59.9825238,49.2745377 60.2955442,47.5695024 60.6746682,46.8288597 C61.0547644,46.0734237 61.8742556,44.3147623 61.6390043,42.2838831 C61.4027808,40.2381132 59.1552557,34.376233 59.1552557,34.376233 L59.1552557,34.376233 Z M117.855322,113.583052 C117.396485,113.163581 113.052113,112.655545 113.052113,112.655545 C113.052113,112.655545 108.559007,113.583052 107.820201,114.050211 C107.057092,114.536836 106.377585,117.200619 106.515625,118.091142 C106.66047,118.969013 106.573952,122.627457 106.573952,122.627457 C106.573952,122.627457 107.958241,121.249336 108.375277,120.567088 C108.802035,119.900413 109.132553,116.786015 109.764427,116.089169 C110.394356,115.399135 113.249451,114.752897 113.249451,114.752897 L118.708838,115.662885 C118.708838,115.662885 118.305411,114.007388 117.855322,113.583052 L117.855322,113.583052 Z M133.29928,64.2731844 C133.373161,66.1049368 131.911103,68.2859884 131.621414,68.7083785 C130.046591,70.7493795 125.955939,76.0691599 125.37656,76.8983682 C124.825372,77.6954593 122.420365,83.8921372 122.185113,84.8819317 C121.894452,86.070269 120.806657,87.1291642 120.348792,87.5389021 C120.245748,87.6527723 116.31744,92.6776581 115.681678,93.42706 C115.727367,94.434373 116.824883,104.146427 116.824883,104.146427 C116.824883,104.146427 115.980117,107.920688 115.570857,109.723145 C116.490476,109.946993 117.442174,110.158188 117.442174,110.158188 C118.772997,110.44335 120.065907,111.474021 120.331294,111.68035 L120.557796,111.873053 C120.557796,111.873053 121.17606,113.079882 121.495885,113.708601 C123.385673,114.393768 124.259602,116.298417 124.478328,117.440039 C124.493882,117.49454 124.780655,119.597732 124.941054,120.649815 C125.085898,120.763685 125.236576,120.868796 125.330871,120.915512 C126.253406,121.335955 126.800706,122.356894 127.005821,122.766632 C128.324007,125.785651 128.571895,126.942844 128.588421,127.477158 C128.588421,127.64553 128.594254,127.755507 128.57384,127.84018 C128.44066,128.616833 127.987655,129.754561 127.900165,129.984248 L127.850588,130.093252 C127.850588,130.093252 126.290346,132.632459 125.872338,133.31276 C125.982186,134.191604 126.581008,139.441311 126.581008,139.441311 C126.581008,139.441311 126.338952,145.631176 126.316593,146.114881 C126.930969,148.08863 128.019735,151.285754 128.520373,152.127615 C129.317506,153.484324 130.075754,156.637652 130.140886,158.553006 C130.155467,158.981236 130.139913,159.341338 130.087419,159.595356 C129.800646,160.906323 128.143194,164.196878 127.487989,165.209058 C127.212881,165.684003 126.380753,168.218344 125.636114,170.712782 C126.963048,171.324956 128.563146,172.423754 129.361251,174.062706 C130.514177,176.45106 131.723485,179.204382 131.93249,181.436042 L132.928905,189.669731 L130.83303,189.199651 C129.124055,188.785047 125.877198,186.583557 125.370727,184.831709 C125.140337,184.102745 123.063903,181.135308 122.217193,180.442355 C121.918754,180.207802 121.500746,179.953784 121.087598,179.728963 C120.308935,181.241392 119.157954,182.604915 119.135595,182.627299 C117.376071,184.678909 115.843049,185.722232 113.855078,186.222482 C109.356139,187.367996 105.953744,188.316914 105.190635,188.647819 C104.395447,189.008895 103.860785,189.637614 103.676083,189.935428 C103.680944,189.982144 103.66539,190.013288 103.677055,190.081415 C103.689693,190.605023 103.81704,191.585085 103.965773,192.489234 L104.498491,195.584166 L101.754216,194.059085 C100.094819,193.154936 97.9756132,190.255627 97.7180033,187.881872 C97.6625928,187.417632 97.6460669,186.97675 97.6227362,186.531002 C94.2592255,188.062896 91.7356203,187.699874 91.6014688,187.672623 L88.5120939,187.180159 L90.8305832,185.068208 C92.0272542,183.985955 93.1228255,182.177658 93.8344121,180.80343 C92.3947129,180.628245 90.8616908,180.476418 90.2288453,180.557198 C89.3763023,180.655496 89.1604932,180.891996 88.461544,181.637505 L88.2651772,181.843834 C87.8053678,182.347977 86.2179074,184.985482 84.9531885,187.230768 L82.5792887,191.466349 L82.1398937,186.620541 C82.1272562,186.565066 82.1282283,186.503751 82.1272562,186.446329 C82.0951765,185.229768 82.6035915,182.547493 86.5698123,174.314778 L86.7204898,174.008204 C86.8974143,173.643236 87.0889206,173.24031 89.4394896,172.043214 C88.4634882,171.696737 87.3465305,171.273374 86.0370944,170.762418 C84.4817137,170.164843 82.3586191,169.345367 81.8521483,169.288918 C81.1502827,169.251935 78.6888928,170.08601 76.8292408,170.903539 C76.8292408,170.903539 78.535299,165.152609 80.7672702,164.238728 C81.5041318,163.919502 82.6298386,163.694682 83.7934578,163.521443 C82.7173288,162.845035 81.8074311,162.209504 81.4176138,161.901957 C80.360927,161.105839 73.5814115,159.191458 71.9997838,159.24596 C71.2366751,159.280997 69.3080031,160.450842 67.989818,161.520443 L65.0997263,163.888358 L65.5381492,160.176386 C65.5673126,159.982709 66.1952975,155.101864 71.3193047,153.233226 C73.1089646,152.595748 75.0629116,152.45268 76.8409061,152.538326 C75.0590232,150.67358 73.0895224,148.32513 71.1384917,145.940669 L70.0526416,144.618024 C69.2224572,143.674945 64.2374621,141.622362 62.5420972,141.30119 C61.4134741,141.086102 59.614093,141.323575 59.0191599,141.439392 L54.4842531,142.335754 L57.62515,138.937168 C58.3299319,138.172194 60.947832,136.063163 63.0787035,135.97557 C63.7261307,135.958052 64.9694631,136.103066 66.2827877,136.314261 C66.0922536,136.071922 65.9163011,135.872406 65.76854,135.67289 C63.0534286,135.67581 55.8753467,135.117164 54.7739428,134.6247 C54.3394083,134.419345 52.9035975,133.249499 51.2267027,131.806171 C51.2208701,131.806171 51.2208701,131.806171 51.2208701,131.806171 C51.212121,131.803251 51.1985115,131.806171 51.1878182,131.780866 C51.2043441,131.806171 51.212121,131.803251 51.2267027,131.806171 C51.2189258,132.50983 51.2296191,133.168719 51.3054439,133.537581 C51.5193087,134.560466 54.5814644,138.41356 54.5814644,138.41356 C54.5814644,138.41356 50.377076,136.339565 49.4691226,135.493812 C48.5913046,134.664604 46.8959397,130.599341 46.8959397,130.599341 L47.1797966,129.287402 L47.3654702,128.434835 C47.4092153,128.479605 47.1836851,128.279115 47.0223144,128.136048 C46.46821,127.641637 45.9539622,127.179344 45.5194278,126.779338 C45.1364153,126.442594 44.9585186,126.290767 44.9750445,126.290767 C44.8894986,126.523374 44.8214507,126.769606 44.7709008,127.044062 C44.2770675,129.491784 44.9215783,133.117137 47.0641152,135.24174 C49.7422863,137.895791 52.9813666,140.089495 52.9813666,140.089495 C52.9813666,140.089495 53.9991688,145.185428 53.9544516,145.100755 C54.0147226,145.66232 53.7123955,146.27352 52.6420992,146.767931 C50.6123274,147.685705 45.7225994,150.452653 43.1328905,150.36798 C40.5606798,150.297906 31.0806345,149.781111 31.0806345,149.781111 C31.0806345,149.781111 41.147836,147.687652 42.8451451,146.761118 C44.5278726,145.85113 47.3051992,141.95424 47.3051992,141.95424 C49.6042463,142.253028 51.332663,142.753278 52.3747681,143.260341 C50.3722155,141.431606 47.3965778,139.537662 47.3965778,139.537662 C47.3965778,139.537662 43.3856399,138.125478 40.8863376,135.809145 C38.401617,133.491838 37.4275598,125.595867 37.4275598,125.595867 C37.4275598,125.595867 35.1362896,128.789098 36.6576464,132.865066 C38.1828915,136.936167 44.0048758,140.693883 44.0048758,140.693883 C40.7064967,140.29777 35.750665,136.347351 35.0351899,135.516197 C34.3099937,134.680176 31.6464043,132.178925 32.6710113,127.144307 C33.3932912,123.620171 35.888705,120.279007 37.3196553,118.612804 C35.4279235,116.404501 33.7092279,114.021014 32.9169558,111.927555 C31.3450492,107.836015 29.673015,101.831067 29.4581781,95.8455844 C29.4115166,94.4674635 29.9374297,92.0479659 29.9938123,90.7856616 C30.2796135,84.3291262 37.8844529,69.2135922 38.8633706,67.3994556 C38.8205976,67.2652446 37.8698712,66.3045502 37.7405802,66.0182203 C37.3731215,65.2533437 37.0727386,64.4279311 37.0474637,63.5619339 C36.998858,62.298559 37.5276874,60.948565 39.2599927,59.5279131 C40.7939869,58.2987967 44.8593631,55.8177897 46.9513501,54.5761183 C46.5926404,53.8526048 46.2455961,52.9884568 46.2280981,52.268447 C46.1814367,51.0488684 46.3583612,50.5086178 47.0038442,49.8379517 L47.0923065,49.7543496 C47.0923065,49.7543496 47.5560043,49.252153 48.0060926,48.7685455 C47.2983944,47.2687684 43.7599034,39.8108568 43.7599034,39.8108568 L46.7131824,35.5441321 L57.6368154,31.4127864 C57.6368154,31.4127864 60.0019661,30.9318066 60.9556089,31.0516136 C61.3570915,29.9429854 61.8810604,28.5834536 62.0920089,27.9828615 C61.9403593,27.5042175 61.834399,27.0282013 61.8188451,26.5559807 C61.7585741,25.0144513 62.3535073,23.5271318 63.1234207,22.5462912 C63.5326802,22.0341675 63.711549,21.4563494 63.7105769,21.2392175 C62.8152609,20.2535106 60.9449156,15.3256578 59.5411846,12.0196274 L59.1737259,11.1843849 L59.7492167,10.47002 C59.8269858,10.389435 60.7077201,9.77122704 63.1166159,7.57878848 C65.803536,5.13009339 70.7146505,4.51986612 70.9119894,4.49933056 L71.2706991,4.45641027 L77.563186,6.78082143 L77.6701185,7.70239113 C77.9180073,9.81726173 78.6120959,15.5107698 78.7355542,16.3292724 C78.7919368,16.619398 78.8327655,17.0219339 78.8434588,17.4678767 C78.8862317,18.795486 78.767634,20.6317153 78.2708842,21.7034574 L77.2764127,23.6313668 C76.7718861,24.5444692 75.8503231,26.2583611 75.7220042,26.6826005 C75.7015898,26.8012395 75.6938129,26.9882981 75.7015898,27.1867436 C75.7161715,27.7737102 75.8775422,28.5960085 76.0126659,28.9092974 C76.3869294,29.7240043 76.4646984,31.175119 76.4860849,31.7598471 L76.5026108,32.0430626 C76.5026108,32.0430626 75.7589445,34.1891745 75.238864,35.6977108 C77.2073927,36.0277397 81.0102985,36.6546095 81.0102985,36.6546095 L81.3651197,37.0838124 C83.0138232,39.0565886 86.3452542,42.9883209 87.0685062,43.7525162 C88.1543563,44.9192474 89.2071546,48.0679033 89.5017048,49.0186705 L89.5522547,49.1433437 L89.5639201,49.2687956 C90.0480323,52.9922525 90.8471091,59.0880045 90.9501531,59.6533649 C90.9501531,59.6533649 92.0991906,67.1804746 92.619271,69.683477 C94.2174246,69.3059536 95.3392429,70.0769616 96.045969,70.3647514 C97.6344016,69.4999221 99.5261333,70.9829593 100.517688,71.3625265 C102.291795,70.1526804 105.567815,68.209199 108.095309,67.4822791 C110.894994,66.6687401 118.619403,61.7564592 119.591516,61.1356235 C121.013717,60.2235917 121.045797,58.556513 121.020522,57.6726081 C121.009829,57.5421927 120.39837,55.0752978 120.39837,55.0752978 C120.346848,53.9860373 118.490112,49.0236341 116.629488,44.0251233 C115.920818,43.6327092 114.275031,42.7663227 113.725787,42.2458291 C113.195013,41.7592044 112.045004,38.3091332 110.963042,36.9902832 C107.236933,38.6954158 104.698746,38.0616359 104.295319,37.9479604 C103.230856,37.6822634 98.5462435,35.2658802 97.4283136,33.8758856 C96.3259376,32.525113 95.3859044,28.2960531 95.3071632,26.3401141 C95.2886931,25.453484 96.0148614,23.633216 96.6097945,22.4477984 C96.6097945,22.4477984 99.2685234,20.0431915 100.576015,19.1915984 C100.576015,19.1915984 104.364339,17.363739 105.45505,17.1816441 L106.067481,17.0619344 C106.785873,16.8958008 107.667579,16.7105914 108.598863,17.3531306 C109.154912,17.7450581 115.001199,21.3016027 116.180372,22.2486716 L116.478811,22.4877989 C116.478811,22.4877989 118.635929,27.7513255 118.882846,28.3371242 C119.918146,29.2431219 122.807266,31.7891419 123.576207,32.7478897 C124.314041,33.6512597 124.647475,35.5954223 125.11409,38.6741017 L125.562234,41.2308274 C125.816927,42.2322036 126.842506,43.8099379 127.745599,45.2016843 L128.966573,47.1402021 C130.003818,48.9213456 130.719293,51.9571046 130.949684,52.982812 C131.488234,53.7438929 132.089972,54.4852168 132.311614,54.6547568 C133.143742,55.2668333 134.147935,56.8434971 134.448318,57.3167882 L134.686486,57.6881801 L134.677737,58.1496949 C134.633992,60.315953 133.265257,63.1901527 133.29928,64.2731844 L133.29928,64.2731844 Z" id="path198" fill="#231F20"/>
                        <path d="M135.502339,64.1945459 C135.502339,64.2424298 135.457448,64.2962991 135.457448,64.32892 L135.454455,64.4154102 L135.502339,64.1945459" id="path180" fill="#B49154"/>
                        <path d="M51.2895714,131.858677 C51.2895714,131.858677 51.2895714,131.858677 51.3075279,131.858677 C51.2626368,131.849699 51.2386948,131.858677 51.1878182,131.780866 C51.2207384,131.858677 51.2626368,131.849699 51.2895714,131.858677" id="path182" fill="#231F20"/>
                        <path d="M109.764427,116.089169 C109.132553,116.786015 108.802035,119.900413 108.375277,120.567088 C107.958241,121.249336 106.573952,122.627457 106.573952,122.627457 C106.573952,122.627457 106.66047,118.969013 106.515625,118.091142 C106.377585,117.200619 107.057092,114.536836 107.820201,114.050211 C108.559007,113.583052 113.052113,112.655545 113.052113,112.655545 C113.052113,112.655545 117.396485,113.163581 117.855322,113.583052 C118.305411,114.007388 118.708838,115.662885 118.708838,115.662885 L113.249451,114.752897 C113.249451,114.752897 110.394356,115.399135 109.764427,116.089169" id="path184" fill="#FFFFFF"/>
                        <path d="M73.9916432,86.5101777 C71.269727,86.5851179 68.5546156,86.2279354 68.101611,86.1607812 C67.7885906,85.8444752 67.6058334,85.6245209 67.6058334,85.6245209 C68.4185198,91.0065892 73.5551645,92.142371 73.5551645,92.142371 L79.0651005,92.2455355 C80.7536607,90.9657127 85.8125363,89.8630213 85.8125363,89.8630213 C85.8125363,89.8630213 86.2499871,93.5263315 84.9522164,97.1438989 C83.6534735,100.761466 80.8605931,102.698232 80.8605931,102.698232 C80.8605931,102.698232 84.105506,101.869997 85.5024323,100.895775 C86.8808884,99.9332312 89.6825178,95.2314641 89.6825178,95.2314641 C89.6825178,95.2314641 90.3941045,100.937624 89.778757,103.806763 C89.1711864,106.703153 85.7911498,114.676984 85.7911498,114.676984 L82.7484364,117.840044 C84.5896182,118.391876 89.7379283,119.530578 91.2485918,119.164636 C92.7699485,118.811347 100.716972,112.915403 100.716972,112.915403 C100.716972,112.915403 99.3968423,121.628903 99.1771448,124.084411 C98.9613357,126.546732 95.4801993,140.445704 95.1282944,141.901685 C94.780278,143.345987 95.7864149,145.85113 95.7864149,145.85113 L101.954471,166.955067 C101.954471,166.955067 99.9616399,156.939359 99.1333997,154.205502 C98.3314065,151.474564 98.5627694,149.218573 98.5627694,149.218573 L100.354374,139.766376 C100.354374,139.766376 100.395202,138.031073 101.198168,137.700168 C102.007938,137.36245 104.818316,136.140049 105.387002,134.896237 C105.762238,134.037831 105.934302,132.226614 106.116087,130.173058 C106.202605,129.205649 106.215242,129.199809 106.208438,129.205649 C106.238573,129.322438 106.269681,129.441175 106.302732,129.546286 C106.363003,129.722444 106.435912,129.894709 106.498127,130.068921 C106.546733,130.195443 106.588534,130.322939 106.64686,130.446541 C106.746988,130.69472 106.88114,130.91954 107.00557,131.170639 C107.087228,131.292295 107.149443,131.433416 107.235961,131.560912 C107.392471,131.807144 107.580089,132.033911 107.769651,132.263598 C107.866862,132.375521 107.939771,132.490365 108.049619,132.601315 C108.355835,132.914701 108.701907,133.211542 109.113111,133.458748 C111.920573,135.256339 113.181404,133.211542 114.117548,131.885977 L114.380019,130.651897 L117.153457,127.889816 L114.816497,124.75206 C114.816497,124.75206 116.153153,121.607492 116.456452,120.93303 C116.760723,120.266354 119.446671,121.266855 119.446671,121.266855 C119.446671,121.266855 119.948282,122.471737 120.056186,122.797776 C120.15923,123.047901 121.37826,123.566642 121.976109,123.809955 L121.1712,123.827473 C121.1712,123.827473 120.429477,124.732595 120.574322,125.886869 C120.717223,127.035303 121.416172,127.971569 122.219137,128.710265 C122.598261,129.063554 123.02988,129.064527 123.437195,128.928273 C123.217497,129.085939 122.987107,129.226087 122.847122,129.339957 C122.410644,129.692273 119.748998,126.474711 119.748998,126.474711 C119.748998,126.474711 119.19295,129.357475 118.668981,130.062108 C118.133347,130.73365 115.941232,131.364315 115.30061,131.725391 C115.30061,131.725391 114.554027,133.706926 113.737452,135.609629 C113.113356,138.133264 112.24137,141.289511 111.208986,143.825799 L111.208986,143.818986 C111.208986,143.818986 111.208986,143.825799 111.203154,143.825799 C111.092333,143.915338 103.400003,151.434661 102.445388,155.434716 C101.483969,159.455208 103.583733,159.258612 104.258379,159.346204 C104.258379,159.346204 103.236688,165.02998 103.874394,167.22855 C103.874394,167.22855 104.248658,165.359911 104.726937,163.29565 C104.435304,164.795427 104.062012,166.91419 104.062012,166.91419 C104.062012,166.91419 106.382446,163.826071 107.683133,160.869339 C107.683133,161.196351 107.687021,161.521416 107.669523,161.837722 C107.669523,161.993442 107.679244,162.13067 107.662718,162.266925 C107.651053,162.667904 107.628695,163.054284 107.594671,163.440664 C107.397332,165.443611 106.702271,167.397895 104.420722,169.364832 C104.400307,169.384297 104.373088,169.408628 104.361423,169.423227 C104.292403,169.46313 104.225327,169.522498 104.174777,169.566295 C103.629422,170.013989 103.016991,170.457791 102.298599,170.898673 C99.437671,170.282606 98.6522038,171.680192 98.6522038,171.680192 C98.2633586,171.303544 97.6937004,170.613511 96.9947513,169.709362 C90.5000648,159.358856 83.873171,140.641327 83.873171,140.641327 C83.873171,140.641327 71.2852808,132.69572 69.6443542,131.513223 C68.1842406,130.46406 61.619562,121.842045 60.0777909,119.803088 C59.8648982,119.528631 59.75991,119.367072 59.75991,119.367072 L59.3253755,118.69553 C59.8814241,123.265908 60.6027319,126.334563 61.2734898,128.406611 C61.2734898,128.406611 61.2734898,128.402718 61.2696013,128.402718 C57.125484,127.975462 51.0332523,124.720916 47.9429053,123.015783 C47.7377895,122.901913 47.5433669,122.773444 47.3158925,122.618698 C47.2225696,122.547651 47.1156372,122.476603 47.0145374,122.396797 C46.881358,122.299472 46.7491506,122.20604 46.6120827,122.099956 C46.4827917,121.998738 46.3593333,121.885841 46.227126,121.784623 C46.1026955,121.677566 45.977293,121.587054 45.8480019,121.471237 C45.6982965,121.342768 45.5505354,121.210406 45.3959694,121.071231 C45.2793159,120.963201 45.1519691,120.856143 45.0275386,120.740327 C44.8593631,120.596286 44.6979924,120.441539 44.5278726,120.269274 C44.4102469,120.167083 44.2974818,120.061972 44.1818004,119.949075 C44.0009874,119.771944 43.8123975,119.590919 43.6247797,119.406002 C43.5178473,119.30965 43.4225802,119.202593 43.317592,119.103321 C43.1134483,118.909645 42.9102767,118.712075 42.706133,118.499907 C42.611838,118.408422 42.5311526,118.320829 42.4426904,118.223504 C42.2278534,118.011336 42.0081559,117.780676 41.7933189,117.556828 C41.716522,117.486754 41.647502,117.406948 41.5804262,117.338821 C41.3432307,117.095508 41.1177005,116.856089 40.881477,116.605964 C40.8396762,116.557301 40.7910705,116.508639 40.7366322,116.454137 C40.4877713,116.199146 40.2398825,115.916903 39.9919937,115.656073 C39.9764399,115.641474 39.9715793,115.622982 39.9540813,115.60449 C38.307322,113.839016 36.8656785,112.192279 36.0675738,111.253093 C36.0510479,111.232655 36.0335499,111.219029 36.0189682,111.203457 C35.9100915,111.085694 35.8099639,110.971824 35.7273343,110.866713 C35.6913661,110.760629 35.6427605,110.651625 35.5941548,110.558193 C33.7811642,106.259351 32.4950588,101.37656 32.3599351,97.8183606 C32.1664847,92.4178006 36.6148734,82.0390707 37.1777268,80.6843078 C37.7366917,79.3383041 39.5691246,77.6458236 40.2680738,77.1173493 C40.9524413,76.573303 47.3965778,73.9348243 47.3965778,73.9348243 C47.3965778,73.9348243 40.8843934,85.3597971 40.8882818,93.7375265 C40.8746722,102.116229 43.7560149,111.198591 43.7560149,111.198591 C42.2278534,102.560031 43.4497994,94.4139348 43.8911386,92.1958998 C44.4170517,89.580779 46.8716368,85.3305996 48.6525477,83.7364174 C50.4208211,82.1441816 58.1938361,77.6944861 58.1938361,77.6944861 L58.2356369,80.2453723 L61.541793,89.7316327 C61.541793,89.7316327 60.3217912,92.7370263 60.6357837,95.6781855 C60.9429714,98.6310237 64.2530159,105.546933 64.2530159,105.546933 C61.9938255,99.5079213 64.8178135,87.456176 64.8178135,87.456176 C61.7702395,82.0556159 62.0764551,76.4341283 62.3476746,75.1971285 C62.5984797,73.961102 63.9088879,69.8393915 64.8032318,69.2972917 C65.7063247,68.7532453 67.2617054,68.8448281 67.2617054,68.8448281 C73.0856339,70.2248955 78.5722393,75.1971285 78.8298492,75.4423873 C78.7297215,75.3635542 78.354486,75.2681757 78.458502,78.1996024 C78.5450201,80.6745753 80.0760979,82.8390816 80.8722584,83.7948123 C80.5971505,83.9836227 80.1276199,84.3719491 79.293547,85.13303 C78.2378324,86.105306 76.1205705,86.4401038 73.9916432,86.5101777" id="path186" fill="#FEF0C8"/>
                        <path d="M80.3832856,58.3120328 C80.3832856,58.3120328 78.1493701,55.5344768 77.1908668,54.2442403 C76.2226423,52.9523493 75.5800757,49.3961939 75.5800757,49.3961939 C74.2307829,51.4879012 75.7900521,55.2063945 75.7900521,55.2063945 C75.7900521,55.2063945 72.6083265,57.4771796 72.3050272,57.4761091 C72.0007559,57.4935302 66.8349478,55.6349162 66.8349478,55.6349162 C66.8349478,55.6349162 64.1869122,47.4626396 64.7604588,45.9100151 C65.3087305,44.3577799 68.6771018,38.9337646 68.6771018,38.9337646 L79.525882,40.0647775 C79.525882,40.0647775 82.0008815,43.5566985 83.1528353,44.4268806 C83.8712268,44.9903919 84.5847577,45.9898215 85.1670533,47.002974 C85.190384,47.038011 85.2049657,47.0797634 85.2302407,47.1140217 C85.2875953,47.3010802 85.3556432,47.508285 85.4061931,47.7029349 C85.4577151,47.8739348 85.5102092,48.0609933 85.5558985,48.2537939 C85.5792292,48.3518975 85.6151974,48.4628479 85.6336675,48.5776913 C85.6706078,48.7521949 85.7036597,48.9281583 85.7435163,49.1190125 C85.7619864,49.2414473 85.7833729,49.3700135 85.8067036,49.4916696 C85.8368391,49.6619883 85.8689189,49.8459324 85.8825284,50.0200466 C85.9029428,50.1797568 85.9291899,50.316985 85.9437715,50.4649189 C85.9632138,50.6283274 85.9807118,50.7812249 86.0001541,50.949597 C86.0225127,51.1123243 86.0234848,51.2784579 86.0468155,51.443813 C86.0545924,51.5841555 86.0711183,51.7388048 86.076951,51.8809965 C86.0934769,52.0700015 86.1080586,52.2623156 86.1138913,52.4475249 C86.1265288,52.5748259 86.1265288,52.7044627 86.1294451,52.8211553 C86.1508316,53.0207687 86.1566643,53.2287521 86.1547201,53.4343996 C86.162497,53.5344497 86.1644412,53.6446215 86.1644412,53.7419464 C86.1751344,53.9617061 86.171246,54.1868186 86.1722181,54.3947047 C86.1693017,54.4764576 86.1683296,54.5456556 86.1790229,54.6312042 C86.1790229,54.8688717 86.179995,55.0965147 86.1741623,55.3254229 C86.1605527,55.374864 86.1693017,55.4265435 86.1683296,55.4664467 C86.1663854,55.725331 86.1595806,55.9648477 86.1518037,56.1971622 C86.1566643,56.2169192 86.1518037,56.2450461 86.1547201,56.2655817 C86.1440268,56.4990642 86.1294451,56.7236901 86.1294451,56.9312841 C86.1226403,56.9438391 86.1226403,56.9670024 86.1206961,56.990555 C86.1080586,57.4255001 86.0895885,57.801077 86.0613972,58.0923705 C86.0711183,58.1067746 86.0604251,58.1135873 86.0604251,58.1135873 C86.0351502,58.5740315 86.0059868,58.8416751 86.0059868,58.8416751 L86.4959317,72.4827364 C86.507597,72.4846829 86.5105134,72.4846829 86.5105134,72.4846829 C85.697827,73.1766631 85.0678978,73.9426103 84.8034831,74.29298 C84.6936343,74.4175559 84.6576662,74.4934693 84.6576662,74.4934693 C84.6576662,74.4934693 84.6207259,74.5187738 84.6139211,74.5275331 L82.7241335,75.0754724 L80.3832856,58.3120328" id="path188" fill="#FEF0C8"/>
                        <path d="M60.3597036,50.6614179 C60.7436883,52.0414853 60.8652024,54.9193833 59.4313358,55.872097 C57.9770549,56.8122558 47.2536772,63.3740968 47.2536772,63.3740968 C47.2536772,63.3740968 55.1530668,55.4409476 56.0221358,54.5905224 C56.8882884,53.7389293 57.9819154,52.9584808 57.7865207,52.0688336 C57.5833491,51.1773373 56.4382001,46.7091501 57.5464089,45.5929305 C58.6478128,44.4942294 56.2583592,39.1800939 54.4278706,36.2216109 L59.1552557,34.376233 C59.1552557,34.376233 61.4027808,40.2381132 61.6390043,42.2838831 C61.8742556,44.3147623 61.0547644,46.0734237 60.6746682,46.8288597 C60.2955442,47.5695024 59.9825238,49.2745377 60.3597036,50.6614179" id="path190" fill="#FEF0C8"/>
                        <path d="M73.7991648,60.2790669 C74.4670064,60.169187 76.2430567,59.0275657 76.2430567,59.0275657 L77.4970824,61.3291055 L79.0330208,67.0305942 C76.6134317,61.1318279 70.4016301,59.9627609 70.3802437,59.8966773 C70.3248332,59.8267006 72.9446775,60.4045187 73.7991648,60.2790669" id="path192" fill="#FEEFAF"/>
                        <path d="M58.6808646,68.9770927 C57.2703288,68.7961656 54.775887,70.6724928 54.775887,70.6724928 C54.6670104,67.7955681 51.3861293,65.3917398 51.3861293,65.3917398 L52.8054141,64.6161575 C55.6760636,64.7553321 58.6808646,68.9770927 58.6808646,68.9770927" id="path194" fill="#FEF0C8"/>
                        <path d="M124.73691,71.8189804 C123.237912,73.6000265 120.169923,79.7120318 119.802465,80.9694698 C119.440839,82.2249613 118.490112,83.3257062 118.187785,83.9116022 C117.874765,84.4994448 113.610105,89.2498743 112.976288,89.9340685 C112.34247,90.6211825 111.768923,90.6824972 111.247871,90.1248254 C110.747233,89.5603408 109.68763,88.8557084 108.590114,88.2406148 C107.501348,87.6138423 106.476741,81.1835846 106.476741,81.1835846 C108.19252,78.4896307 115.175207,74.0477212 116.446731,72.7581659 C117.715338,71.4754234 118.890623,69.9622155 118.890623,69.9622155 C115.950953,70.6364826 109.413494,73.5114609 109.413494,73.5114609 C112.607857,71.0082638 117.783386,65.7684846 119.227946,64.4895377 C120.654036,63.1969654 123.225274,61.4675015 123.225274,61.4675015 L125.091731,61.0656469 C125.091731,61.0656469 127.17983,57.2814592 128.587449,57.3943561 C129.978543,57.5132872 130.637635,57.5209759 131.0955,58.6519888 C131.546561,59.7962379 130.494735,63.047961 129.907578,64.8845796 C129.323339,66.7056263 126.23688,70.0328734 124.73691,71.8189804" id="path196" fill="#FEF0C8"/>
                        <path d="M42.3095109,141.621389 C42.3095109,141.621389 37.2506353,144.551843 34.5335796,145.360613 C31.8029144,146.134346 30.2883625,146.880828 24.929104,146.377658 C19.5824829,145.89298 18.3187361,144.38639 15.6609794,142.412641 C15.6609794,142.412641 24.3594458,145.016082 25.7310971,144.800021 C25.7310971,144.800021 24.1562742,144.007796 22.3870287,142.683204 C20.6206995,141.372237 16.0488524,138.603343 8.51303303,139.562967 C8.51303303,139.562967 10.5573865,137.98533 10.6925102,137.942507 C13.9870009,136.721079 17.1794197,136.666577 19.7992641,137.777055 C22.423969,138.890452 30.4682034,142.389283 36.3281001,138.051511 C36.3281001,138.051511 40.9223058,141.488054 42.3095109,141.621389" id="path200" fill="#231F20"/>
                        <path d="M103.820928,167.060178 C103.820928,167.060178 108.478321,161.752076 108.478321,157.662483 C108.478321,153.57289 107.619945,153.430795 107.619945,153.430795 L111.131217,143.960107 C111.131217,143.960107 103.069485,151.601087 102.318042,155.868785 C101.672559,159.529175 104.179638,159.384161 104.179638,159.384161 C104.179638,159.384161 103.250298,165.627555 103.820928,167.060178" id="path202" fill="#231F20"/>
                        <path d="M103.240577,155.536907 C103.240577,155.536907 104.109646,155.007459 104.750268,155.34907 C105.391863,155.688734 105.881808,156.518915 105.881808,156.518915 C105.881808,156.518915 105.805983,154.705752 104.899974,154.140294 C103.995909,153.57289 103.240577,155.536907 103.240577,155.536907" id="path204" fill="#FFFFFF"/>
                        <polygon id="path206" fill="#231F20" points="124.121562 157.402626 120.202003 165.870867 121.873065 154.626919"/>
                        <polyline id="path208" fill="#231F20" points="113.978536 157.125249 109.864554 167.712255 110.91638 157.436689 109.364888 154.047835 113.978536 157.125249"/>
                        <path d="M113.601356,127.794437 C113.414711,128.473765 112.805196,129.923907 112.249147,130.167219 C111.703792,130.406638 109.841224,130.589609 109.841224,130.589609 C109.841224,130.589609 108.678576,129.078153 108.225572,128.546759 C107.762846,128.015365 107.958241,127.227033 108.368472,126.427995 C108.77676,125.640637 113.572193,120.719888 113.572193,120.719888 L112.068334,125.190022 C112.068334,125.190022 113.807444,127.128735 113.601356,127.794437" id="path210" fill="#231F20"/>
                        <path d="M124.59887,128.046509 C124.301403,128.408557 123.884367,128.760874 123.437195,128.928273 C123.02988,129.064527 122.598261,129.063554 122.219137,128.710265 C121.416172,127.971569 120.717223,127.035303 120.574322,125.886869 C120.429477,124.732595 121.1712,123.827473 121.1712,123.827473 L121.976109,123.809955 C122.040269,123.837206 122.070404,123.853751 122.110261,123.85959 C122.178309,123.914092 122.277464,123.978327 122.398978,124.080518 C122.981274,124.529186 124.040877,125.445987 124.140033,126.14478 C124.268351,127.101484 125.152002,127.350636 124.59887,128.046509" id="path212" fill="#231F20"/>
                        <path d="M102.181946,94.1715957 C101.225387,90.5384563 96.3842643,80.6989065 96.3842643,80.6989065 C96.3842643,80.6989065 104.492658,90.7204539 104.93983,91.8289848 C105.4045,92.9277832 106.634223,101.763913 106.188995,103.421356 C105.723353,105.067121 103.146282,109.654045 103.146282,109.654045 C103.146282,109.654045 103.612896,105.558612 103.447637,103.821362 C103.286266,102.091898 103.122951,97.8125211 102.181946,94.1715957" id="path214" fill="#004E3A"/>
                        <path d="M120.36629,35.5421856 L114.400433,31.9032067 L111.258564,25.5701766 L102.351093,21.1380969 C102.351093,21.1380969 103.696498,19.6995372 107.035706,18.9658046 L113.941596,23.4746737 L116.458396,29.6791375 L122.625481,34.5290332 C122.625481,34.5290332 122.847122,40.5190903 123.371091,42.3451005 C123.891172,44.1600157 127.06512,47.2698389 127.777679,49.7049085 C127.777679,49.7049085 123.500382,45.7115696 122.215249,44.3714054 C120.944697,43.0362048 120.36629,35.5421856 120.36629,35.5421856" id="path216" fill="#004E3A"/>
                        <path d="M73.8983203,31.8408214 C73.5201684,33.8584644 71.7402296,35.7638918 71.7402296,35.7638918 L69.4402105,35.8429196 C69.4402105,35.8429196 71.321249,32.6935824 71.4437352,31.6161955 C71.5506676,30.5337477 70.2295662,27.8174091 70.3374707,26.5952027 C70.4424589,25.3543099 73.5230847,21.5563021 73.7456986,18.9354392 C73.9527586,16.3212917 71.1793205,7.51075836 71.1793205,7.51075836 C71.1793205,7.51075836 74.4154844,7.71416745 75.2116449,8.45354489 C75.2116449,8.45354489 77.089767,18.1917795 76.521081,19.446395 C75.9553113,20.7096726 72.7327569,25.1147933 73.1021598,26.796276 C73.4783675,28.478148 74.2910539,29.828142 73.8983203,31.8408214" id="path218" fill="#004E3A"/>
                        <path d="M102.319014,76.5090685 C102.319014,76.5090685 102.775907,78.8857432 102.840066,80.724211 C102.840066,80.724211 101.128175,73.8121949 96.5991013,75.4482268 C96.5991013,75.4482268 95.2653624,74.2014946 92.9274308,75.3917784 L92.6241316,72.090517 C92.6241316,72.090517 94.8279115,72.1878419 96.1509572,73.2486836 C96.1509572,73.2486836 98.6755345,72.2374776 100.949307,73.9941925 C100.949307,73.9941925 105.049679,70.7133693 107.970878,70.2454311 C107.970878,70.2454311 104.37406,72.4048765 102.319014,76.5090685" id="path220" fill="#004E3A"/>
                        <path d="M86.0604251,58.1261422 C86.0604251,58.1261422 86.0711183,58.1067746 86.0613972,58.0923705 C86.0895885,57.801077 86.1080586,57.4255001 86.1206961,56.990555 C86.1226403,56.9670024 86.1226403,56.9438391 86.1294451,56.9312841 C86.1294451,56.7236901 86.1488874,56.5020812 86.1547201,56.2655817 C86.1518037,56.2450461 86.1566643,56.2169192 86.1518037,56.1971622 C86.1595806,55.9648477 86.1663854,55.725331 86.1683296,55.4664467 C86.1693017,55.4265435 86.1605527,55.374864 86.1741623,55.3254229 C86.179995,55.0965147 86.1751344,54.8688717 86.1790229,54.6312042 C86.1683296,54.5456556 86.1693017,54.4764576 86.1722181,54.3947047 C86.171246,54.1868186 86.1751344,53.9617061 86.1644412,53.7419464 C86.1644412,53.6446215 86.1547201,53.5344497 86.1547201,53.4343996 C86.1566643,53.2287521 86.1508316,53.0207687 86.1294451,52.8211553 C86.1323615,52.6964821 86.1265288,52.5748259 86.1138913,52.4475249 C86.1080586,52.2623156 86.0934769,52.0700015 86.076951,51.8809965 C86.0711183,51.7388048 86.0604251,51.5909682 86.0468155,51.443813 C86.0234848,51.2784579 86.0225127,51.1123243 86.0001541,50.949597 C85.9807118,50.7812249 85.9632138,50.6283274 85.9437715,50.4649189 C85.9291899,50.316985 85.9029428,50.1797568 85.8825284,50.0200466 C85.8689189,49.8459324 85.8368391,49.6668545 85.8067036,49.4916696 C85.7814287,49.3661205 85.7619864,49.2414473 85.7435163,49.1190125 C85.7036597,48.9281583 85.6706078,48.7521949 85.6336675,48.5776913 C85.6151974,48.4628479 85.5850619,48.3636738 85.5558985,48.2537939 C85.5102092,48.0609933 85.4577151,47.8739348 85.4061931,47.7029349 C85.3916114,47.6504767 85.3867508,47.6074591 85.3702249,47.570573 C85.3293962,47.4139772 85.2739857,47.2580626 85.2302407,47.1140217 C85.5500658,47.6823993 85.8261459,48.2320905 86.0613972,48.7266957 C86.7175734,50.1242816 87.2813989,57.0381469 87.9123002,60.586711 C88.5538947,64.1447155 89.3063101,71.0588728 89.3063101,71.0588728 C88.2943406,71.1776092 87.3047296,71.8092479 86.4959317,72.4827364 L86.0059868,58.8416751 C86.0059868,58.8416751 86.0351502,58.5740315 86.0604251,58.1261422" id="path222" fill="#004E3A"/>
                        <path d="M63.6639155,119.42644 C63.6639155,119.42644 72.1601824,128.22948 76.5084435,129.714658 C80.8557325,131.196917 87.376666,133.867512 88.9573216,135.9454 C90.5379772,138.02426 92.2187605,148.805915 93.8985716,153.455127 C95.5793548,158.104338 98.3459882,165.722933 98.3459882,165.722933 C98.3459882,165.722933 92.6144104,157.710172 90.243427,152.368007 C87.8704994,147.025842 84.7101602,139.606763 84.7101602,139.606763 C84.7101602,139.606763 75.4216213,134.263625 72.1601824,131.001293 C68.9006878,127.735069 63.6639155,119.42644 63.6639155,119.42644" id="path224" fill="#004E3A"/>
                        <path d="M120.802769,132.256785 C121.568794,132.568225 122.002356,132.521509 122.002356,132.521509 C122.002356,132.521509 122.792684,137.445177 122.978358,140.283171 C123.159171,143.111434 122.619648,147.022922 122.619648,147.022922 C122.619648,147.022922 122.998772,148.155785 123.635506,150.166517 C124.267379,152.163625 124.454025,155.002593 124.454025,155.002593 C124.454025,155.002593 123.918391,154.323265 123.762853,154.041996 C123.762853,154.041996 120.101875,149.849238 119.530273,147.802495 C118.946033,145.748939 119.33585,140.597531 120.175756,137.774135 C120.326434,137.25734 120.480027,135.924961 120.480027,135.924961 L120.75708,134.520563 C120.75708,134.520563 119.412647,133.773107 118.635929,132.756062 C117.868932,131.753615 118.487196,130.480605 118.487196,130.480605 C118.487196,130.480605 119.604154,131.777946 120.802769,132.256785" id="path226" fill="#004E3A"/>
                        <path d="M82.2983481,167.747292 L80.162616,167.99547 C81.5945383,166.301043 83.5552901,166.234862 83.5552901,166.234862 L90.7907266,171.058286 L82.2983481,167.747292" id="path228" fill="#004E3A"/>
                        <path d="M85.2603762,163.537989 C85.2603762,163.537989 82.3673681,160.514103 81.3748408,160.059596 C80.360927,159.597303 73.379212,157.235227 71.4242929,157.627446 C69.4606248,158.023559 67.2267093,160.078088 67.2267093,160.078088 C68.6051655,156.909188 71.3416633,155.489218 71.3416633,155.489218 C71.3416633,155.489218 80.2889907,157.310167 81.4555262,157.927207 C82.6298386,158.547167 85.2603762,163.537989 85.2603762,163.537989" id="path230" fill="#004E3A"/>
                        <path d="M77.5680466,151.10181 C75.4566173,148.080844 70.5911922,142.892453 69.8912709,142.228697 C69.0328951,141.433552 63.9118043,140.627702 62.7511014,140.179034 C61.5816496,139.728419 58.9812475,140.158596 58.9812475,140.158596 C59.9280855,139.304083 61.0537923,138.597504 62.5255712,138.712347 C64.0090156,138.823298 68.282424,138.997509 70.3092794,140.563467 C71.8597995,141.760564 75.8046338,148.159678 77.5680466,151.10181" id="path232" fill="#004E3A"/>
                        <path d="M42.3474233,123.86835 C41.690275,126.179817 40.8221781,129.953104 41.6543068,131.682568 C42.895695,134.275304 49.1492974,138.978044 49.1492974,138.978044 C49.1492974,138.978044 48.3570254,139.998009 42.9540218,135.745883 C38.6222866,132.35703 39.6041206,124.664468 40.1873884,121.727201 C40.9660508,122.525266 41.6999961,123.246443 42.3474233,123.86835" id="path234" fill="#004E3A"/>
                        <path d="M39.7761846,121.301891 C37.8008512,122.117474 33.4389805,128.333617 33.4389805,128.333617 C34.1204316,125.103403 38.1751146,120.032774 38.3637045,119.792382 C38.8303188,120.31307 39.3076262,120.828892 39.7761846,121.301891" id="path236" fill="#004E3A"/>
                        <path d="M49.8161669,130.589609 L49.5255051,131.244606 L49.6411866,134.515696 L48.3716071,131.121003 L48.7828109,129.704925 C49.1386042,129.997873 49.4691226,130.295688 49.8161669,130.589609" id="path238" fill="#004E3A"/>
                        <path d="M36.0189682,111.203457 C36.8229056,112.127071 38.2674654,113.785488 39.9540813,115.60449 C39.9715793,115.622982 39.9764399,115.641474 39.9919937,115.656073 C40.2427988,115.922743 40.4809665,116.18844 40.7366322,116.454137 C40.7910705,116.508639 40.8396762,116.557301 40.881477,116.605964 C41.1177005,116.856089 41.3432307,117.095508 41.5804262,117.338821 C41.6504183,117.414734 41.716522,117.486754 41.7933189,117.556828 C42.0081559,117.780676 42.2278534,118.011336 42.4426904,118.223504 C42.5311526,118.320829 42.611838,118.408422 42.706133,118.499907 C42.921942,118.712075 43.1134483,118.909645 43.317592,119.103321 C43.4167475,119.202593 43.5178473,119.30965 43.6247797,119.406002 C43.8123975,119.590919 44.0009874,119.771944 44.1818004,119.949075 C44.2974818,120.061972 44.4102469,120.167083 44.5278726,120.269274 C44.6979924,120.441539 44.8593631,120.596286 45.0275386,120.740327 C45.1519691,120.856143 45.2793159,120.963201 45.3959694,121.071231 C45.5505354,121.210406 45.6982965,121.342768 45.8480019,121.471237 C45.977293,121.587054 46.1026955,121.677566 46.227126,121.784623 C46.3593333,121.885841 46.4827917,121.998738 46.6120827,122.099956 C46.7491506,122.20604 46.881358,122.299472 47.0145374,122.396797 C47.1156372,122.476603 47.2225696,122.547651 47.3158925,122.618698 C47.5433669,122.773444 47.7377895,122.901913 47.9429053,123.015783 C51.0332523,124.720916 57.125484,127.975462 61.2696013,128.402718 C62.4225273,131.888897 63.4344968,132.496204 63.4344968,132.496204 C63.4344968,132.496204 63.4539391,132.582823 63.2925683,132.658737 C62.2640729,132.78234 60.690222,132.765794 58.3843702,132.302528 C53.2418928,131.26699 42.0849528,121.263935 38.7525497,116.480415 C38.5668761,116.216664 38.3831468,115.938315 38.1974732,115.648287 C38.152756,115.570427 38.1031783,115.49354 38.0429073,115.413734 C37.8932019,115.149983 37.7366917,114.884286 37.5549066,114.600097 C37.5218548,114.498879 37.4576953,114.399608 37.3993685,114.296443 C37.2846592,114.088168 37.1777268,113.888652 37.0707944,113.677457 C36.9784436,113.518817 36.9152563,113.378669 36.835543,113.226843 C36.7470808,113.065283 36.6605627,112.893018 36.5827937,112.712967 C36.4282277,112.425858 36.2979646,112.13583 36.1521476,111.83023 C36.0977093,111.723172 36.0617411,111.631687 36.0073028,111.52171 C35.9071752,111.29397 35.8070476,111.071095 35.7166411,110.848221 C35.724418,110.855034 35.7273343,110.8599 35.7273343,110.8599 C35.7321949,110.866713 35.7321949,110.866713 35.7312228,110.878392 C35.8128802,110.975717 35.9100915,111.085694 36.0189682,111.203457" id="path240" fill="#004E3A"/>
                        <path d="M111.594915,183.145068 C113.534281,182.570851 117.046525,179.654023 117.49078,178.307046 C117.935036,176.994133 116.640181,172.925951 116.640181,172.925951 C116.640181,172.925951 119.7315,176.768339 119.306687,178.591235 C118.88479,180.413157 116.637265,181.96841 114.079636,183.877925 C111.515202,185.77868 103.518601,186.879425 102.23444,187.919829 C100.975554,188.935901 101.728941,191.888739 101.728941,191.888739 C95.0767725,185.217116 109.638052,183.708579 111.594915,183.145068" id="path242" fill="#004E3A"/>
                        <path d="M95.1282944,177.319198 L94.3729627,179.323118 C94.3729627,179.323118 90.1024706,179.151826 89.4394896,179.172265 C88.7862297,179.190756 88.3098944,179.371781 87.5117897,180.215588 C86.7156292,181.076913 83.7992904,186.617621 83.7992904,186.617621 C84.20855,184.292529 85.7143529,180.46182 87.7849534,178.579556 C89.8429165,176.691452 95.1282944,177.319198 95.1282944,177.319198" id="path244" fill="#004E3A"/>
                        <path d="M105.692246,159.238174 C105.692246,159.238174 107.060981,158.713592 107.202909,156.330105 C107.312758,154.405018 106.10831,153.798684 106.10831,153.798684 L111.163297,143.96692 C111.165241,143.964973 111.16913,143.960107 111.16913,143.960107 L107.656886,153.430795 C107.656886,153.430795 108.518178,153.57289 108.518178,157.662483 C108.518178,161.752076 103.859813,167.060178 103.859813,167.060178 L103.859813,167.060178 C104.210745,165.623662 105.175081,161.67227 105.391863,160.748656 C105.654333,159.615794 105.692246,159.238174 105.692246,159.238174" id="path246" fill="#004E3A"/>
                    </g>
                </g>
            </g>
        </g>
    </g>
</svg>