<?xml version="1.0" encoding="UTF-8"?>
<svg width="200px" height="200px" viewBox="0 0 200 200" version="1.1" xmlns="http://www.w3.org/2000/svg" xmlns:xlink="http://www.w3.org/1999/xlink">
    <!-- Generator: Sketch 54.1 (76490) - https://sketchapp.com -->
    <title>dixie-st</title>
    <desc>Created with Sketch.</desc>
    <g id="dixie-st" stroke="none" stroke-width="1" fill="none" fill-rule="evenodd">
        <g id="dixie-st_BGD" transform="translate(0.000000, -0.000000)">
            <g id="dixie-st" transform="translate(0.000000, 31.000000)">
                <g id="g10" transform="translate(99.975324, 69.011598) scale(-1, 1) rotate(-180.000000) translate(-99.975324, -69.011598) translate(0.000000, 0.025663)" fill-rule="nonzero">
                    <g id="g12">
                        <path d="M193.385635,101.887192 C189.745073,107.698196 187.46074,109.564863 189.209174,103.244606 C190.995899,96.7861807 190.774039,90.6954826 189.655855,89.3974811 C189.691977,90.0749052 189.719216,90.7760155 189.73698,91.5027858 C190.023977,103.210459 182.699625,115.856301 171.467255,120.608336 L171.030837,119.239474 L171.030837,119.239671 C164.7242,123.426397 156.864738,124.236069 150.791015,124.048554 C150.424472,124.464443 150.043125,124.882109 149.641842,125.300367 C142.582577,132.655116 133.288918,136.925928 123.372511,136.314825 C96.2317272,134.64199 73.0342938,116.614653 73.0342938,116.614653 L81.9621988,116.555438 C76.6973581,114.084379 55.4704156,99.3427066 55.4704156,99.3427066 L64.7257818,99.0486035 C60.3728581,96.2826524 48.4231915,87.4550188 38.2610402,77.9866746 L34.9587951,74.9100401 L44.2108057,75.888081 C41.9383162,73.3544517 35.9873665,67.1338745 29.1892418,59.8053772 L24.1616574,59.8061668 L22.2565008,46.418553 L3.84367126,46.418553 L1.9952035,33.4756468 L6.23504549,33.5520347 C4.98913385,24.9592888 1.73868044,1.76998565 1.73868044,1.76998565 C8.30936076,2.81095478 82.5930401,17.0518821 168.981392,4.52604973 C168.981392,4.52604973 171.160519,4.2173204 172.000785,4.09865275 C172.642285,4.00651359 173.279838,3.95918075 173.885414,3.95918075 C178.84944,3.95918075 182.266366,7.0622056 183.026494,12.2597382 C183.476531,15.3298392 183.927753,18.4203104 184.379566,21.5293358 C184.478653,22.2107076 184.529578,22.8052301 184.535105,23.347051 C184.541224,24.1620522 184.432663,24.9334314 184.212579,25.6517141 C184.01855,26.283345 183.732539,26.8774728 183.358298,27.4269917 L185.066465,27.3506038 L185.641249,31.3425109 C185.854029,32.8193429 186.06681,34.3003199 186.279591,35.7856394 C186.848848,39.7605714 185.585389,42.1905738 184.425359,43.5294339 C183.297701,44.83237 181.153709,46.3891427 177.357805,46.3891427 L175.045246,46.3893401 L173.906534,46.3895375 C173.932391,46.4284222 173.961802,46.4708599 173.985093,46.5073761 C174.960568,48.041647 174.60192,49.6442129 174.402167,50.8638527 C174.241298,51.8799888 174.451513,52.6107068 174.451513,52.6107068 C174.451513,52.6107068 177.924299,62.2495913 178.387955,63.4348862 C179.255461,65.6546739 179.853536,70.1562282 179.215589,71.1307162 C180.402463,71.6960258 183.513245,73.6388829 185.335303,75.4792974 C191.363035,76.3031809 195.413763,78.9605704 197.461628,82.8137162 C199.901303,87.403304 197.026198,96.0763855 193.385635,101.887192" id="path14" fill="#FFFFFF"></path>
                        <path d="M125.24885,137.848701 L125.24885,137.848701 C124.596099,137.848701 123.934268,137.828371 123.281714,137.788104 C109.006856,136.908361 95.8638022,131.517786 87.3517866,127.150651 C78.1428058,122.426052 72.3696996,117.967725 72.1282982,117.780012 L68.765456,115.166836 L73.0244245,115.138413 L76.4814193,115.115516 C68.4670104,110.157017 55.3217849,101.036662 54.6283727,100.555241 L50.9621502,98.0089786 L55.4236354,97.8672564 L60.1590905,97.7168493 C54.6881802,93.8208711 45.598025,86.8401656 37.2547733,79.0667634 L33.9525281,75.9901289 L30.7191702,72.9776444 L35.1139394,73.4420904 L40.4678006,74.0079922 C39.4694291,72.9399439 38.297359,71.6936572 36.9965942,70.3101882 C34.6023184,67.7641236 31.6490493,64.6235365 28.5453731,61.281617 L24.1620522,61.2824066 L22.8808284,61.2826039 L22.7002215,60.0142102 L20.9754744,47.8947928 L3.84367126,47.8947928 L2.56337521,47.8947928 L2.38241297,46.627386 L0.533941265,33.6844798 L0.288829008,31.9684177 L2.02181095,31.9996044 L4.52612868,32.0448055 C3.15746353,22.5235622 0.307333819,2.19274606 0.276800388,1.97485315 L0,0 L1.96960666,0.311883535 C2.32465822,0.368323702 2.85135942,0.458534407 3.58037988,0.583287427 C40.2228463,6.85810987 73.807252,8.17527737 95.5284457,8.17527737 C120.741374,8.17527737 145.383071,6.4560176 168.769401,3.06516647 L171.794321,2.63709838 C172.504708,2.53501104 173.209371,2.48288175 173.885414,2.48288175 C179.562394,2.48288175 183.62457,6.14736723 184.486943,12.046168 C184.937178,15.1162691 185.388596,18.2071942 185.840607,21.3169499 C185.948971,22.0648403 186.005029,22.7239076 186.011148,23.3318524 C186.017661,24.208635 185.910876,25.0516648 185.693358,25.8447563 L186.336832,25.8157408 L186.527506,27.1399944 L187.10229,31.1322963 C187.315071,32.6091282 187.527851,34.0905 187.741027,35.5762143 C188.38904,40.1024416 186.902142,42.9250421 185.54078,44.4960265 C184.211197,46.032666 181.711518,47.8651851 177.357805,47.8651851 L176.037104,47.8653825 C176.212381,49.0070553 176.034538,50.0608919 175.899329,50.8608919 L175.859063,51.1022933 C175.773595,51.6427325 175.843075,52.0643461 175.867945,52.1873167 C176.196985,53.1002207 179.33323,61.7989622 179.762739,62.8974078 C180.222645,64.0740176 180.632613,65.8676519 180.832564,67.5783847 C180.980208,68.8402647 180.984353,69.7356015 180.922571,70.3765095 C182.352228,71.2086831 184.473916,72.6284709 186.022201,74.0877356 C192.065922,75.0235362 196.465625,77.7944219 198.764367,82.120896 C200.057237,84.5536618 200.185537,88.0568446 199.13545,92.2512684 C198.276827,95.6808266 196.636561,99.4787046 194.636462,102.671007 C191.168216,108.207054 189.948577,108.670513 188.99659,108.670513 C188.436215,108.670513 187.91966,108.41411 187.579369,107.967034 C187.468636,107.821364 187.373891,107.659904 187.300859,107.467454 C186.949514,108.133627 186.575865,108.790325 186.180306,109.435378 C182.683835,115.139203 177.662961,119.589832 172.042433,121.967725 L170.552179,122.598369 L170.195308,121.478605 C165.377149,124.180999 159.395999,125.549269 152.383909,125.549466 C152.070857,125.549466 151.753858,125.546506 151.43666,125.540781 C151.190324,125.811988 150.948726,126.070562 150.706732,126.322622 C143.572856,133.755141 134.531652,137.848504 125.24885,137.848701 L125.24885,137.848701 Z M125.24885,136.372461 C134.456843,136.372264 143.029851,132.189091 149.641842,125.300367 C150.043125,124.882109 150.424472,124.464443 150.791015,124.048554 C151.309742,124.064542 151.841299,124.073227 152.383909,124.073227 C158.195308,124.073227 165.262863,123.068736 171.030837,119.239671 L171.030837,119.239474 L171.467255,120.608336 C182.699625,115.856301 190.023977,103.210459 189.73698,91.5027858 C189.719216,90.7760155 189.691977,90.0749052 189.655855,89.3974811 C190.774039,90.6954826 190.995899,96.7861807 189.209174,103.244606 C188.448453,105.994175 188.451019,107.194273 188.99659,107.194273 C189.705004,107.194273 191.328887,105.170094 193.385635,101.887192 C197.026198,96.0763855 199.901303,87.403304 197.461628,82.8137162 C195.413763,78.9605704 191.363035,76.3031809 185.335303,75.4792974 C183.513245,73.6388829 180.402463,71.6960258 179.215589,71.1307162 C179.853536,70.1562282 179.255461,65.6546739 178.387955,63.4348862 C177.924299,62.2495913 174.451513,52.6107068 174.451513,52.6107068 C174.451513,52.6107068 174.241298,51.8799888 174.402167,50.8638527 C174.60192,49.6442129 174.960568,48.041647 173.985093,46.5073761 C173.961802,46.4708599 173.932391,46.4284222 173.906534,46.3895375 L175.045246,46.3893401 L177.357805,46.3891427 C181.153709,46.3891427 183.297701,44.83237 184.425359,43.5294339 C185.585389,42.1905738 186.848848,39.7605714 186.279591,35.7856394 C186.06681,34.3003199 185.854029,32.8193429 185.641249,31.3425109 L185.066465,27.3506038 L183.358298,27.4269917 C183.732539,26.8774728 184.01855,26.283345 184.212579,25.6517141 C184.432663,24.9334314 184.541224,24.1620522 184.535105,23.347051 C184.529578,22.8052301 184.478653,22.2107076 184.379566,21.5293358 C183.927753,18.4203104 183.476531,15.3298392 183.026494,12.2597382 C182.266366,7.0622056 178.84944,3.95918075 173.885414,3.95918075 C173.279838,3.95918075 172.642285,4.00651359 172.000785,4.09865275 C171.160519,4.2173204 168.981392,4.52604973 168.981392,4.52604973 C142.876088,8.31127539 117.888573,9.65149741 95.5286431,9.65149741 C43.8940033,9.65149741 6.32378963,2.49630391 1.73868044,1.76998565 C1.73868044,1.76998565 4.98913385,24.9592888 6.23504549,33.5520347 L1.9952035,33.4756468 L3.84367126,46.418553 L22.2565008,46.418553 L24.1616574,59.8061668 L29.1892418,59.8053772 C35.9873665,67.1338745 41.9383162,73.3544517 44.2108057,75.888081 L34.9587951,74.9100401 L38.2610402,77.9866746 C48.4231915,87.4550188 60.3728581,96.2826524 64.7257818,99.0486035 L55.4704156,99.3427066 C55.4704156,99.3427066 76.6973581,114.084379 81.9621988,116.555438 L73.0342938,116.614653 C73.0342938,116.614653 96.2317272,134.64199 123.372511,136.314825 C124.000984,136.353315 124.625904,136.372461 125.24885,136.372461 L125.24885,136.372461 Z" id="path16" fill="#BB1A21"></path>
                        <path d="M181.51966,75.2197366 C179.78761,73.9550931 177.267402,73.309448 175.040904,73.0469264 C167.464096,73.0875876 160.409964,75.3847502 160.409964,75.3847502 C158.710087,83.7133954 152.549515,84.4107554 152.549515,84.4107554 C154.120105,83.1336767 155.199009,81.5745353 155.940583,80.038488 L145.26839,82.2726848 C145.26839,82.2726848 149.631578,80.0805309 152.82684,78.3058456 C149.440707,72.0951376 156.067304,69.5964453 159.220327,70.4793469 C158.717785,69.3315551 157.767378,67.8557101 155.975718,66.1864282 C155.975718,66.1864282 160.679986,67.866961 163.725434,71.6121374 L163.726816,71.6028603 C163.726816,71.6028603 167.9921,71.8801857 170.803845,71.7435955 C173.195555,71.6277308 175.263356,70.8158877 175.829653,70.5752758 C175.882947,70.509152 175.938214,70.4442124 175.987955,70.3753252 C176.694592,69.3953104 175.811493,65.705007 175.377444,64.6744617 C174.987215,63.7481356 172.221659,56.3586465 171.388893,53.5399937 L159.283687,55.493707 C158.068982,55.6978027 156.881713,55.0063643 156.45931,53.8492955 L154.875496,49.5082149 C154.548035,48.6112991 154.632515,47.4822589 155.39363,46.9035271 L158.761013,44.7469024 C159.233354,44.4174674 159.627926,44.1780399 160.539053,44.1780399 L167.816625,44.0159871 C166.954844,43.0371566 166.103919,42.0482595 165.480381,41.180754 L154.271696,41.180754 C149.943051,41.180754 147.189338,49.2046373 147.189338,49.2046373 C147.189338,49.2046373 146.901353,45.4197867 148.197578,42.2488023 C146.939843,41.2068087 144.641299,39.8320247 140.895136,39.306192 L141.53782,41.7879091 L138.749565,40.9178376 C138.701403,40.9028364 134.670216,39.6893156 126.157016,40.210411 C128.84658,41.5125576 133.311026,44.9772503 133.311026,44.9772503 C133.311026,44.9772503 127.411593,44.0935592 123.488771,45.5650618 C125.597826,46.1907711 127.853932,47.1741414 129.445247,48.7103861 C130.336636,49.5709832 131.26316,50.5811978 132.243767,51.6510226 C133.92351,53.4827522 136.307719,56.0809263 137.942459,56.9431025 C139.208681,54.9104353 140.315812,53.6799394 140.315812,53.6799394 C140.315812,53.6799394 136.301403,63.5162086 137.552427,72.8742148 C137.552427,72.8742148 137.548677,72.8702671 137.542163,72.8631613 C137.544729,72.8680959 137.547097,72.8728331 137.549466,72.8775703 C136.451415,71.9873656 133.022647,69.3374767 133.022647,69.3374767 C133.022647,69.3374767 132.659261,74.7223273 134.563036,79.7595835 L129.531702,76.8118412 C129.531702,76.8118412 130.517243,80.4121371 133.458472,84.5710317 L133.458274,84.5712291 C135.465282,83.1407825 137.754351,82.3151225 139.918279,82.3151225 C139.919858,82.3151225 139.921832,82.3151225 139.923609,82.3151225 C144.42082,82.3176885 149.42314,87.9178858 149.553216,91.8570912 C149.652501,94.8591143 147.26237,96.1067827 144.990078,96.2262004 C144.180209,96.2688355 143.583712,96.4749051 143.583712,96.4749051 C143.583712,96.4749051 143.584699,96.4745103 143.585291,96.4743129 C147.240658,98.4947422 150.71443,98.278606 150.71443,98.278606 C147.407645,100.049738 144.516749,99.7803084 142.36427,98.985243 C144.494248,103.483442 152.69558,108.259755 155.018797,110.192349 C155.543248,110.628569 155.217563,111.39679 154.368612,111.455413 C152.102636,111.611544 146.009372,110.92504 141.360174,109.345371 C133.21786,106.578828 128.971721,102.12662 128.183959,96.9616556 C127.566145,94.2347867 128.024275,91.4534396 129.469526,88.94172 L129.469328,88.9419173 C129.340831,88.8120382 129.220031,88.6853173 129.109299,88.5629388 C127.846432,87.1676267 127.326323,86.1787296 127.121635,85.6819125 L130.8224,85.5334792 C128.944482,82.772068 126.533626,78.0614834 126.195112,71.7372792 L130.526718,74.1070793 C130.526718,74.1070793 129.227137,69.075942 133.038043,60.9642225 C133.581048,62.9051058 133.946999,64.3272621 134.468489,65.861533 C134.805425,63.6316786 135.54463,61.5636797 136.387265,59.7856388 L34.1287926,59.8045877 L53.448802,79.9285448 L44.0872429,78.906487 C62.9110273,94.3895363 75.8695268,101.613222 75.8695268,101.613222 L65.3392532,102.010558 C80.0400671,111.69188 94.0279276,119.38238 94.0279276,119.38238 L83.9842071,119.739054 C91.2333557,123.745568 111.38396,132.575965 123.779123,133.006856 C132.661827,133.315763 140.414109,130.20656 146.831677,123.779913 C143.581541,123.440806 141.400046,122.921092 141.181936,122.856745 L138.24801,121.992003 L140.327458,120.335354 C136.414702,119.461137 128.656893,116.964418 122.458028,112.270809 C135.037154,117.369649 148.392002,118.022992 148.392002,118.022992 L145.331948,120.460693 C150.29558,121.206215 163.058076,121.618551 170.832071,115.407054 L170.83286,115.41258 L172.713541,113.785933 L173.449391,116.093557 C179.50081,112.786575 186.511518,106.700219 186.469475,94.5334297 C186.442038,86.5993563 184.913886,77.6979008 181.51966,75.2197366" id="path18" fill="#FFFFFF"></path>
                        <path d="M164.530566,42.7531201 C161.264837,42.7552913 154.997479,42.797729 153.183712,43.0815681 C150.697455,43.4708107 147.384551,48.6880817 147.379419,48.6961745 C147.380209,48.6945954 147.380801,48.6930163 147.381393,48.6912398 C147.390867,48.6675537 147.401131,48.6414989 147.411198,48.6162337 C147.422054,48.589192 147.433305,48.5613607 147.444556,48.53274 C147.460741,48.4926709 147.477322,48.4516149 147.494692,48.4087824 C147.501205,48.3927943 147.508509,48.3756218 147.515417,48.3590415 C147.555486,48.2617308 147.598911,48.1575117 147.646283,48.0471737 C147.646678,48.0461868 147.647073,48.0453973 147.64727,48.0448051 C147.648652,48.0414496 147.649836,48.0384888 147.651218,48.0353307 C147.651612,48.0347385 147.65181,48.0341463 147.652205,48.0335542 C147.655165,48.026251 147.658126,48.0191451 147.661482,48.0118419 C147.77182,47.7548471 147.901107,47.4668629 148.048158,47.1581533 C148.04875,47.1571664 148.049145,47.1563768 148.049737,47.1551925 C148.051316,47.1514422 148.053093,47.1478893 148.054869,47.144139 C148.055659,47.1427573 148.056448,47.1411782 148.05704,47.1397965 C148.206658,46.8265471 148.374435,46.4921775 148.560174,46.1479386 C148.560174,46.1479386 148.560371,46.1473465 148.560569,46.1469517 C148.747689,45.7999495 148.952377,45.4430781 149.17404,45.0867988 C149.17404,45.0867988 149.174435,45.086404 149.174435,45.0862066 C149.175027,45.0854171 149.175224,45.0848249 149.175619,45.0842328 C149.256744,44.9551432 149.339054,44.8260537 149.423929,44.6975562 C149.443273,44.6685407 149.462814,44.6397225 149.482158,44.6105096 C149.485316,44.6061672 149.488277,44.6016273 149.49104,44.5972848 C149.623682,44.400295 149.760667,44.2054763 149.903179,44.014408 C149.916206,43.9972355 149.929629,43.9802604 149.942459,43.9628906 C149.946801,43.9573638 149.950946,43.951837 149.955289,43.9465077 C150.099577,43.7556367 150.248405,43.5689108 150.40276,43.3885013 C150.409668,43.3806059 150.41559,43.3719209 150.422301,43.3640256 L150.420327,43.3679733 C150.461778,43.319614 150.504413,43.2726365 150.546653,43.2254615 C150.549219,43.2225008 150.551588,43.21954 150.554154,43.2167766 C150.557904,43.2128289 150.561259,43.2088812 150.564812,43.2049335 C150.578037,43.1901297 150.591459,43.1753258 150.604684,43.1603246 C150.615343,43.1484815 150.625804,43.1364411 150.63666,43.1247954 C150.638634,43.1226241 150.640806,43.1202555 150.642582,43.1180843 C150.690941,43.0651852 150.739893,43.0136678 150.789041,42.9621504 C150.794766,42.9562289 150.80049,42.9505047 150.806214,42.944978 C150.816478,42.9343192 150.826939,42.9238578 150.837203,42.9133964 C150.839177,42.9114226 150.841151,42.9092513 150.843322,42.9070801 C150.851415,42.8989873 150.85931,42.8906972 150.867206,42.8826044 C150.881812,42.8679979 150.896024,42.8531941 150.91063,42.8385876 C150.973793,42.7750298 151.037746,42.7126562 151.102291,42.6516644 C151.107028,42.6473219 151.111765,42.6429794 151.116503,42.638637 C151.154598,42.6029104 151.19289,42.5677759 151.231578,42.5332336 C151.249935,42.5160611 151.268489,42.4986913 151.28724,42.4819136 C151.330467,42.4440157 151.373695,42.4073022 151.417119,42.3703912 C151.472387,42.3240059 151.528247,42.2786074 151.584502,42.2341958 C151.623781,42.2028117 151.663061,42.1710327 151.702932,42.1406355 C151.79215,42.0735247 151.882552,42.00898 151.973744,41.9475933 C152.008879,41.9241046 152.044408,41.9018001 152.07974,41.8791009 C152.082898,41.877127 152.086253,41.8753505 152.089411,41.8733767 C152.122967,41.8520592 152.156917,41.8321233 152.190867,41.8115953 C152.225607,41.7904751 152.260149,41.7683681 152.295284,41.7480374 C152.329036,41.7284964 152.362987,41.7085605 152.396937,41.689809 C152.437006,41.6680967 152.478259,41.6493451 152.518526,41.6288171 C152.539251,41.6185531 152.559582,41.6080917 152.580307,41.5978277 C152.620771,41.576905 152.661037,41.5555874 152.702093,41.5368359 C152.728543,41.5247954 152.75519,41.5145314 152.781837,41.5028857 C152.817958,41.4874897 152.854474,41.4744623 152.890793,41.4600532 C152.940731,41.4401174 152.990472,41.4189972 153.041003,41.4010352 C153.072387,41.3899817 153.103574,41.3785334 153.135155,41.368072 C153.245099,41.332148 153.356029,41.2997769 153.468538,41.2737221 C153.483737,41.2701692 153.499527,41.267998 153.514726,41.2646424 C153.61559,41.2427327 153.71744,41.2257577 153.820277,41.2123355 C153.851267,41.2081904 153.882651,41.2044401 153.914035,41.201282 C154.032071,41.1890441 154.151094,41.180754 154.271696,41.180754 L165.480381,41.180754 C166.103919,42.0482595 166.954844,43.0371566 167.816625,44.0159871 L165.554795,44.0663201 C165.117588,43.3871196 164.671498,42.7531201 164.530566,42.7531201 L164.530566,42.7531201 Z M147.955387,42.9023429 L147.955387,42.9025403 C147.886303,43.1068334 147.823337,43.3123108 147.765701,43.518183 C147.765701,43.518183 147.765503,43.5185777 147.765503,43.5187751 L147.765503,43.5191699 L147.765306,43.5193673 C147.762937,43.5280522 147.760766,43.5369345 147.7582,43.5456194 L147.7582,43.5460142 C147.758003,43.5462116 147.758003,43.546409 147.757805,43.5468037 C147.699774,43.7562289 147.64727,43.9654566 147.599305,44.1736974 C147.598713,44.1764608 147.598121,44.1792242 147.597726,44.1817902 L147.597529,44.1827771 C147.597332,44.1831719 147.597332,44.1835666 147.597134,44.1839614 L147.596937,44.1847509 C147.548775,44.3953604 147.50614,44.6047855 147.46765,44.8120393 C146.710088,44.1813954 145.689609,43.5118667 144.482602,43.1735494 L145.002908,46.9497151 C145.002908,46.9497151 139.821561,43.3849483 133.411494,42.9064879 C133.411494,42.9064879 135.537722,45.1742402 135.944729,47.5900309 C135.944729,47.5900309 133.186476,46.1433988 124.576755,45.9217358 L124.576557,45.9215385 C124.57636,45.9215385 124.576163,45.9215385 124.576163,45.9215385 C124.411544,45.8635074 124.248109,45.806858 124.08428,45.7533667 C123.884922,45.6872429 123.686155,45.623685 123.488771,45.5650618 C123.649244,45.5048595 123.814061,45.4497891 123.980851,45.3972848 C124.025065,45.3834679 124.069279,45.3698484 124.11369,45.3564262 C124.265282,45.3110277 124.418255,45.2676031 124.573399,45.2279288 C124.578137,45.2265471 124.582874,45.2251654 124.587414,45.2239811 C124.600046,45.2206256 124.612284,45.2170726 124.625114,45.2141119 C124.795654,45.171082 124.968563,45.1323946 125.142854,45.0958785 C125.191016,45.0858119 125.239375,45.07614 125.287932,45.0666655 C125.43597,45.0372552 125.584798,45.0098188 125.734613,44.9847509 C125.756326,44.9810006 125.77784,44.9770529 125.799553,44.9735 C125.808435,44.9719209 125.817317,44.9701444 125.8262,44.9689601 C126.000885,44.9407341 126.176163,44.9156663 126.351835,44.8927697 C126.402563,44.886256 126.453093,44.880137 126.503821,44.8740181 C126.647715,44.8564509 126.791411,44.8404627 126.935304,44.826251 C126.974386,44.8223033 127.013666,44.8179609 127.053143,44.8142106 C127.227828,44.798025 127.402316,44.7840107 127.576015,44.7721676 C127.60128,44.7705886 127.626545,44.7690095 127.65181,44.7674304 C127.674707,44.7658513 127.697801,44.7644696 127.720698,44.763088 C127.859459,44.7546004 127.997431,44.7469024 128.134613,44.7407835 C128.160471,44.7395992 128.186525,44.7384149 128.212383,44.7374279 C128.230542,44.736441 128.248899,44.7354541 128.267256,44.7348619 C128.437006,44.7281509 128.605376,44.7230189 128.771771,44.7198607 C128.814406,44.7188738 128.856449,44.7186764 128.898886,44.7178869 C129.035674,44.7157156 129.170883,44.7147287 129.304512,44.7145313 C129.34616,44.7145313 129.388006,44.7143339 129.429062,44.7145313 C129.592299,44.7151235 129.753365,44.7170973 129.91068,44.7202555 C129.925879,44.7206503 129.94088,44.721045 129.956079,44.7214398 C129.969896,44.7216372 129.983515,44.7222293 129.997529,44.7222293 C130.133133,44.7253875 130.26617,44.7295326 130.396444,44.7340724 C130.416774,44.7348619 130.436908,44.7356515 130.457041,44.736441 C130.470463,44.7368358 130.483885,44.7374279 130.497307,44.7378227 C130.65107,44.7437443 130.801674,44.7506527 130.946555,44.7583507 C130.953069,44.7587455 130.959582,44.7591403 130.966096,44.759535 C131.108213,44.767233 131.244803,44.7757206 131.377051,44.7844055 C131.398171,44.7859846 131.419488,44.7873663 131.440016,44.7885506 C131.720105,44.8078943 131.976705,44.8292118 132.203303,44.850332 C132.206264,44.8507267 132.209422,44.8509241 132.212383,44.8513189 C132.212383,44.8513189 132.213567,44.8513189 132.214356,44.8515163 C132.85783,44.9249434 133.311026,44.9772503 133.311026,44.9772503 C133.311026,44.9772503 128.84658,41.5125576 126.157016,40.210411 C134.670216,39.6893156 138.701403,40.9028364 138.749565,40.9178376 L141.53782,41.7879091 L140.895136,39.306192 C144.641299,39.8320247 146.939843,41.2068087 148.197578,42.2488023 C148.1129,42.4558588 148.035328,42.6656787 147.963678,42.8768803 C147.960717,42.8853678 147.958348,42.8938553 147.955387,42.9023429 L147.955387,42.9023429 Z M171.546998,75.7964945 C168.716897,76.7926948 165.690595,78.6214636 165.690595,78.6214636 C165.690595,78.6214636 164.415491,82.080827 159.054721,86.2454457 C163.06084,80.7654557 164.352327,76.7168991 164.352327,76.7168991 C164.352327,76.7168991 169.137524,75.0576838 171.546998,75.7964945 Z M159.440411,53.3530705 L166.321832,48.9646176 L171.161308,51.2675043 L166.636463,50.6658759 L159.440411,53.3530705 Z M175.829653,70.5752758 C175.787412,70.5932378 175.733921,70.6153449 175.675495,70.639031 L175.674706,70.6394258 C175.65852,70.6459395 175.640558,70.6530454 175.623583,70.6599538 C175.5695,70.6814687 175.511469,70.7043654 175.446134,70.7294332 C175.44574,70.7296306 175.445147,70.729828 175.445147,70.729828 C175.44416,70.7302228 175.443963,70.7304201 175.443963,70.7304201 C175.433502,70.7343678 175.423632,70.7381181 175.413171,70.7422632 C174.897405,70.9384636 174.065823,71.220921 173.058964,71.4382415 L173.057583,71.4384389 C173.057583,71.4384389 174.302882,68.0596085 172.762098,64.9729073 C171.221116,61.8864036 169.634538,55.5880568 169.192594,53.9252886 C169.18983,53.9158141 169.188251,53.9053527 169.185883,53.8954835 L171.388893,53.5399937 C172.221659,56.3586465 174.987215,63.7481356 175.377444,64.6744617 C175.811493,65.705007 176.694592,69.3953104 175.987955,70.3753252 C175.938214,70.4442124 175.882947,70.509152 175.829653,70.5752758 L175.829653,70.5752758 Z M136.387068,59.7856388 C136.316996,59.9332825 136.248899,60.0852687 136.180998,60.2374522 C136.098886,60.4196383 136.018156,60.6047851 135.939005,60.7926952 L135.93861,60.7932874 C135.938018,60.7948665 135.937426,60.7962482 135.936834,60.7976299 C135.898738,60.888032 135.860446,60.9782368 135.822548,61.0690338 L135.82235,61.0690338 C135.736685,61.2792484 135.653784,61.4934107 135.572461,61.7097443 C135.572264,61.7103365 135.572067,61.7109286 135.571869,61.7115208 C135.571277,61.7129025 135.570685,61.7140868 135.570093,61.7154685 C135.566737,61.7243508 135.563382,61.7330357 135.560026,61.741918 C135.543643,61.78554 135.526273,61.8277803 135.510088,61.8715997 L135.509891,61.8723893 L135.509693,61.8725867 C135.426989,62.0979999 135.348035,62.3273609 135.271252,62.5588931 C135.271252,62.5588931 135.27066,62.5600774 135.270463,62.5606695 C135.270463,62.5608669 135.270266,62.5610643 135.270266,62.5610643 C135.264936,62.577842 135.258817,62.5938302 135.25329,62.6102131 L135.25329,62.6104105 L135.25329,62.6106079 C135.25329,62.6108052 135.25329,62.6112 135.25329,62.6112 C135.173942,62.8520093 135.099133,63.0961741 135.027482,63.3429049 C135.027482,63.3429049 135.027285,63.3434971 135.027285,63.3438918 C135.02689,63.3452735 135.026298,63.3466552 135.025903,63.3480369 C135.024127,63.3541558 135.02235,63.3602748 135.020377,63.3665911 L135.020179,63.3667884 L135.020179,63.3669858 C134.950502,63.6081899 134.885563,63.8525521 134.824176,64.0992829 L134.823979,64.1004672 C134.823387,64.1032306 134.822597,64.1055992 134.822005,64.1079678 C134.821018,64.1113233 134.820031,64.1146789 134.819242,64.117837 C134.816478,64.1292853 134.813123,64.1401415 134.810359,64.1515898 L134.810359,64.1517872 C134.750749,64.3937808 134.696468,64.6387351 134.645543,64.8856633 C134.645346,64.8862555 134.645148,64.887045 134.645148,64.8876372 L134.644951,64.8880319 L134.644951,64.8886241 C134.643569,64.8955325 134.64199,64.9020462 134.640609,64.9087573 L134.640411,64.9087573 C134.640411,64.9087573 134.640411,64.9093495 134.640411,64.9095469 C134.590275,65.1543038 134.545864,65.4018242 134.505005,65.651121 L134.505005,65.6517131 C134.504808,65.6525027 134.504808,65.6532922 134.504611,65.6542791 C134.504611,65.6554634 134.504216,65.6564504 134.504018,65.6574373 C134.498294,65.692177 134.490794,65.7261272 134.485464,65.7608668 C134.469279,65.7622485 134.452896,65.7638276 134.436513,65.7652093 C134.434144,65.7581035 134.431776,65.7508002 134.429407,65.7436944 C133.929037,64.2540324 133.567033,62.8551674 133.038043,60.9642225 C132.924349,61.2062161 132.81559,61.4452489 132.710976,61.6817157 L132.710779,61.6819131 C132.629654,61.865086 132.553463,62.0449035 132.47747,62.2247209 C132.477273,62.225313 132.476878,62.2261026 132.476681,62.2266947 C132.475496,62.2292607 132.474312,62.2318267 132.473325,62.2343927 C132.453192,62.2819624 132.431874,62.3303217 132.412136,62.3774966 L132.412136,62.377694 L132.412136,62.3778914 C132.335748,62.5606695 132.264295,62.7400922 132.193236,62.9191201 C132.192249,62.9214887 132.191262,62.9238573 132.190473,62.9262259 C132.190078,62.9272128 132.189683,62.9281998 132.189289,62.9289893 C132.173103,62.9694532 132.156325,63.0103118 132.140535,63.0505782 L132.140535,63.0507756 C132.08053,63.2037487 132.024078,63.3545506 131.967823,63.5051551 C131.967626,63.5057472 131.967231,63.5063394 131.967033,63.5069315 C131.952427,63.5466059 131.937228,63.5862802 131.922622,63.6255597 C131.922425,63.6259545 131.922425,63.6265466 131.922425,63.6269414 C131.862025,63.7899811 131.803994,63.9512444 131.748134,64.111126 C131.747937,64.1117181 131.747739,64.1121129 131.747739,64.1121129 C131.747542,64.1129024 131.747344,64.1134946 131.747344,64.1134946 C131.723066,64.1827766 131.698985,64.2520586 131.675496,64.3205511 L131.675496,64.3207485 C131.675299,64.3209458 131.675299,64.3211432 131.675102,64.321538 C131.675102,64.3217354 131.674904,64.3221301 131.674904,64.3221301 C131.623584,64.4721425 131.574238,64.620181 131.526668,64.7668378 L131.526471,64.7674299 C131.526471,64.7678247 131.526274,64.7684168 131.526076,64.7688116 C131.510088,64.8179604 131.494495,64.8669118 131.478704,64.9156658 L131.478704,64.9156658 C131.478506,64.9166527 131.478309,64.9176396 131.478112,64.9184292 C131.477914,64.9190213 131.477717,64.9196135 131.47752,64.9202056 C131.417515,65.1089054 131.360273,65.2946443 131.305795,65.478212 L131.305795,65.4784094 C131.305598,65.4788042 131.305598,65.4790016 131.305598,65.4793963 L131.305598,65.4793963 C131.305203,65.4805806 131.304808,65.4819623 131.304413,65.483344 C131.304018,65.4845283 131.303821,65.4855153 131.303426,65.4866996 C131.252304,65.6598059 131.202957,65.8309384 131.156572,65.9995049 L131.156572,65.9997023 L131.156572,65.9998997 C112.001182,67.0564997 95.1054504,63.0103118 95.1054504,63.0103118 L104.674461,69.6213158 C83.9498622,68.2621251 67.6085845,64.2376495 67.6085845,64.2376495 L73.6568449,69.5780886 C63.5953599,68.5763615 52.4338502,66.4836894 44.3831225,64.7930899 C58.6433738,79.5416708 65.1262752,84.1168496 65.1262752,84.1168496 L52.9632358,82.1388581 C63.3679728,90.5675773 86.5837629,103.503378 86.5837629,103.503378 L73.7044146,103.569699 C89.347148,112.955536 108.360027,121.432417 108.360027,121.432417 L94.2711055,121.914233 C100.798024,125.128248 113.86923,129.094889 121.929827,129.419785 C131.149664,129.792052 137.266811,126.684231 141.386032,122.908657 C141.400441,122.91221 141.41939,122.916355 141.43518,122.920303 C141.436759,122.9205 141.438141,122.920895 141.43972,122.921092 C141.464591,122.927211 141.487092,122.932343 141.515121,122.938857 L141.515516,122.938857 C141.517095,122.939449 141.518082,122.939647 141.519661,122.940041 C141.544729,122.945765 141.573942,122.952279 141.602168,122.958595 C141.603944,122.95899 141.60651,122.959385 141.608484,122.959977 C141.655067,122.970439 141.703821,122.981295 141.757707,122.99294 C141.770142,122.995704 141.784156,122.998665 141.797381,123.001428 C141.883638,123.02018 141.978383,123.040313 142.08122,123.061433 C142.11221,123.067947 142.141225,123.074066 142.173596,123.080579 C142.214257,123.088869 142.257879,123.097554 142.300909,123.106042 C142.35144,123.116108 142.402957,123.126372 142.457238,123.136834 C142.499281,123.145124 142.542508,123.153414 142.58692,123.161902 C142.651859,123.174337 142.719562,123.187167 142.788647,123.200194 C142.826545,123.207103 142.863061,123.214011 142.902143,123.221117 C143.013665,123.241645 143.128938,123.26237 143.249737,123.283688 C143.260001,123.285464 143.271252,123.287241 143.281516,123.289017 C143.393631,123.308756 143.510285,123.328494 143.630295,123.34843 C143.668785,123.354944 143.708459,123.361458 143.748134,123.367971 C143.846036,123.383959 143.946308,123.400145 144.049145,123.41633 C144.092372,123.423239 144.1356,123.42995 144.179616,123.436858 C144.297652,123.455018 144.418452,123.473375 144.542212,123.491731 C144.570043,123.495877 144.59669,123.500022 144.624719,123.503969 C144.778284,123.526471 144.936389,123.548973 145.098245,123.57108 C145.131405,123.57562 145.165553,123.579962 145.199108,123.584502 C145.327013,123.601872 145.456892,123.618847 145.589732,123.635822 C145.644013,123.642731 145.699083,123.649639 145.754549,123.65635 C145.876335,123.671746 146.000292,123.68655 146.125829,123.701354 C146.179715,123.707473 146.232614,123.713789 146.286895,123.720105 C146.465133,123.740633 146.646135,123.760569 146.831677,123.779913 C140.414109,130.20656 132.661827,133.315763 123.779123,133.006856 C123.37942,132.993039 122.971425,132.97034 122.556128,132.939153 L122.554154,132.938955 C122.139054,132.907966 121.716651,132.868489 121.287734,132.821512 C121.016725,132.791707 120.742361,132.758349 120.465825,132.722425 C120.430493,132.717687 120.394964,132.713147 120.359434,132.70841 C119.788401,132.632614 119.207103,132.544778 118.616133,132.44431 C118.610804,132.44352 118.605277,132.442533 118.599553,132.441546 C118.299331,132.390424 117.99674,132.336538 117.692176,132.279493 C117.67145,132.275546 117.65112,132.271993 117.630394,132.268045 C117.23523,132.193631 116.836316,132.114085 116.434441,132.030197 C116.432862,132.029999 116.43148,132.029604 116.430098,132.029407 C116.403451,132.02388 116.377002,132.018353 116.350355,132.012629 C115.952427,131.929136 115.551737,131.841102 115.14848,131.748726 C115.128741,131.744384 115.1092,131.739844 115.089659,131.735304 C115.079,131.732935 115.068736,131.730369 115.058078,131.728001 C114.653044,131.634835 114.245642,131.537524 113.836069,131.436266 C113.82995,131.434687 113.824029,131.433305 113.818107,131.431726 C113.797382,131.426594 113.776854,131.421462 113.756128,131.41633 C113.340042,131.312901 112.921981,131.205721 112.501946,131.094593 C112.493261,131.092225 112.484379,131.089856 112.475497,131.087487 C112.471944,131.086698 112.468588,131.085711 112.465035,131.084724 C111.151441,130.736143 109.821265,130.351045 108.487932,129.937919 C108.487932,129.937919 108.48655,129.937722 108.485958,129.937525 L108.485958,129.937327 C108.051515,129.802711 107.616874,129.664936 107.18243,129.524793 C107.160915,129.517885 107.139598,129.510976 107.117885,129.504068 C106.69568,129.367478 106.273276,129.228124 105.851663,129.086994 C105.835872,129.081665 105.820081,129.076335 105.80429,129.071006 C105.788302,129.065677 105.772314,129.060347 105.756326,129.055018 C105.341226,128.915467 104.926521,128.773745 104.512803,128.630049 C104.480234,128.618798 104.447863,128.607547 104.415295,128.596098 C103.998024,128.450823 103.581542,128.303969 103.166837,128.155141 C103.145717,128.147641 103.124991,128.14014 103.104266,128.132639 C103.098542,128.130665 103.093015,128.128494 103.087488,128.12652 C102.667651,127.975718 102.249393,127.823535 101.833306,127.669772 C101.820673,127.665035 101.807646,127.660298 101.794816,127.655363 C100.501552,127.1771 99.2282235,126.685612 97.9878584,126.189782 C97.9781865,126.186032 97.9685147,126.182282 97.9590402,126.178334 C97.9485788,126.174189 97.9379201,126.170044 97.9274587,126.165899 C97.5354528,126.008978 97.1469998,125.851465 96.7620997,125.693952 C96.7301234,125.680925 96.6979497,125.667897 96.6661708,125.65487 C96.2915347,125.501305 95.9208464,125.347542 95.5539083,125.194174 C95.5122601,125.176804 95.4704146,125.159237 95.4289638,125.141867 C95.0643944,124.989091 94.7037726,124.836316 94.3476907,124.683935 C94.3388084,124.680184 94.3301235,124.676434 94.3214385,124.672684 C94.2880805,124.658472 94.2547225,124.644063 94.2215619,124.629851 C93.8674539,124.477865 93.5172935,124.326668 93.1722651,124.175867 C93.151145,124.16659 93.1304196,124.15751 93.1092994,124.148233 C93.0984433,124.143496 93.0873897,124.138758 93.0765336,124.133824 C92.7222281,123.978877 92.3724625,123.824325 92.0286185,123.670957 C92.0082879,123.661877 91.9885494,123.652797 91.9682188,123.643915 C91.2572393,123.326126 90.5701433,123.012876 89.9106812,122.706141 C89.9047597,122.703377 89.8988381,122.700614 89.8929166,122.69785 C89.8832447,122.693508 89.8733755,122.688968 89.8637037,122.684428 C89.5490725,122.537969 89.2417446,122.393286 88.9403383,122.250182 C88.9267187,122.243866 88.9130992,122.237549 88.899677,122.231036 C88.881715,122.222548 88.863753,122.214258 88.8461858,122.20577 C88.5564251,122.067996 88.2743625,121.932393 87.9976292,121.798369 C87.9808515,121.790276 87.9638764,121.781986 87.9469013,121.773893 C87.9238073,121.762642 87.9005159,121.751391 87.8774219,121.74014 C87.6066102,121.608682 87.3427069,121.479198 87.0855147,121.351687 C87.0537358,121.335896 87.0221543,121.320303 86.9905727,121.304512 C86.9818878,121.300367 86.9730055,121.295827 86.9641232,121.291485 C86.711076,121.165553 86.4643452,121.041793 86.225115,120.920599 C86.1880067,120.90165 86.151688,120.883096 86.1149744,120.864344 C85.8749547,120.742361 85.641646,120.622548 85.4170223,120.505499 C85.3982707,120.495827 85.3801114,120.486155 85.3615572,120.476484 C85.3510958,120.471154 85.3408318,120.465825 85.3303704,120.460298 C85.1021938,120.341275 84.8809256,120.224621 84.669724,120.111322 C84.6513672,120.10165 84.6338,120.092176 84.6156406,120.082306 C84.5070791,120.024078 84.4004914,119.966442 84.2960749,119.909792 C84.1898819,119.851959 84.0852681,119.794914 83.9842071,119.739054 L94.0279276,119.38238 C94.0279276,119.38238 80.0400671,111.69188 65.3392532,102.010558 L75.8695268,101.613222 C75.8695268,101.613222 62.9110273,94.3895363 44.0872429,78.906487 L53.448802,79.9285448 L34.1287926,59.8045877 L136.387068,59.7856388 Z M196.006509,87.6535877 L196.006509,87.6545747 C196.006509,87.6928673 196.006114,87.7315547 196.005917,87.7698473 C195.989928,90.0449028 195.29474,92.8615817 193.638288,96.3515397 C193.636117,96.3564743 193.633748,96.3614089 193.631379,96.3663435 C193.530713,96.5787294 193.425112,96.7942734 193.317143,97.0113965 C193.297404,97.0512682 193.277666,97.0907452 193.25773,97.1308143 C193.165354,97.3151715 193.069425,97.5020948 192.97172,97.690005 C192.95435,97.7237577 192.93698,97.7573131 192.919216,97.7910659 C192.905596,97.8177128 192.891779,97.8441624 192.877765,97.8710067 C192.786178,98.0456921 192.690841,98.2229435 192.594518,98.4007871 C192.557409,98.4692796 192.521683,98.5369825 192.483785,98.6060671 C192.357261,98.8372045 192.227185,99.070908 192.092963,99.3071774 C192.086844,99.3178362 192.081318,99.3281002 192.075396,99.3389563 C197.320498,87.0381424 191.998416,83.492522 188.769993,82.4753989 C188.694987,82.1479377 188.615441,81.8293589 188.531157,81.5206493 C188.53096,81.5200572 188.53096,81.5196624 188.53096,81.5196624 C188.530565,81.5184781 188.530565,81.5176886 188.530368,81.516899 C188.529973,81.5151226 188.529381,81.5135435 188.528986,81.511767 L188.528789,81.5111749 L188.528789,81.5111749 C188.444506,81.20286 188.356077,80.9030328 188.262714,80.6128773 C188.262714,80.6124826 188.262517,80.6120878 188.262517,80.6120878 C188.262122,80.6111009 188.262122,80.6105087 188.261925,80.6099166 C188.261727,80.6093244 188.26153,80.6089296 188.26153,80.6089296 C188.256398,80.5927441 188.251661,80.5765586 188.246923,80.5609652 L188.246726,80.5607678 L188.246726,80.5605704 C188.15435,80.2763365 188.058026,80.0003928 187.956768,79.7333313 C187.956373,79.7327392 187.956176,79.7317523 187.955781,79.7309627 C187.955781,79.7307653 187.955584,79.730568 187.955584,79.730568 C187.94986,79.7139876 187.944333,79.6974073 187.938214,79.6816166 L187.938214,79.6814192 L187.938214,79.6812218 C187.833008,79.4070545 187.724052,79.1405852 187.609568,78.8841826 C187.724249,78.912606 187.838929,78.9424111 187.953807,78.9728083 C187.960124,78.9745848 187.96644,78.9763612 187.972756,78.9779403 C187.995061,78.9838618 188.01697,78.9897834 188.039077,78.9957049 C188.042433,78.9966918 188.045591,78.9974814 188.048947,78.9984683 C188.053684,78.9996526 188.058619,79.0012317 188.063356,79.002416 C188.144283,79.0243257 188.225606,79.0466301 188.306731,79.0695268 C188.31206,79.0711058 188.31739,79.0726849 188.322917,79.074264 C188.332588,79.07683 188.342063,79.0795934 188.351735,79.0823568 C188.364565,79.0861071 188.377197,79.08966 188.390225,79.0932129 C188.399304,79.0959763 188.408582,79.0985423 188.418056,79.1013057 C188.514577,79.1291369 188.611296,79.1577577 188.707422,79.1869706 C188.71058,79.1879576 188.713541,79.1889445 188.716699,79.189734 C188.716699,79.189734 188.717291,79.1901288 188.717488,79.1901288 C188.73249,79.1946686 188.747294,79.1988137 188.762097,79.2035509 C188.878357,79.2392776 188.994222,79.2761885 189.109692,79.3140863 C189.136339,79.3229687 189.162788,79.3320483 189.189238,79.3409307 C189.27964,79.3711305 189.370042,79.4019225 189.46005,79.4335041 C189.491828,79.444755 189.523607,79.4560059 189.555189,79.4672568 C189.651118,79.5016018 189.747047,79.5369336 189.842186,79.573055 C189.861135,79.5801609 189.879689,79.5868719 189.898638,79.5941752 C190.014898,79.6387841 190.130763,79.6845773 190.246035,79.732147 C190.248404,79.7329366 190.250378,79.7339235 190.252746,79.7349104 C190.256891,79.7364895 190.260839,79.738266 190.264984,79.7400424 C190.268932,79.7416215 190.273077,79.743398 190.277025,79.7451744 C190.281959,79.7471483 190.286696,79.7491221 190.291434,79.751096 C190.389336,79.7917572 190.486647,79.8334054 190.583366,79.8760404 C190.591458,79.8795934 190.599354,79.8829489 190.607052,79.8865018 C190.628172,79.8959763 190.649687,79.9054508 190.67061,79.9149252 C190.761801,79.9557838 190.852401,79.9976294 190.942408,80.0404619 C190.961357,80.0493442 190.980503,80.0582265 190.999058,80.0671088 C191.223484,80.1750782 191.443963,80.2891665 191.660099,80.4099659 C191.668586,80.4147031 191.677074,80.4194404 191.685561,80.4241776 C191.697207,80.4308887 191.70905,80.4375998 191.720893,80.4443108 C191.812085,80.4958282 191.90229,80.5485299 191.991705,80.6024159 C191.995258,80.6045872 191.999008,80.6067584 192.002561,80.6089296 C192.015786,80.616825 192.028813,80.624523 192.042038,80.6326158 C192.255214,80.7628897 192.463257,80.900072 192.665576,81.0447549 C192.677419,81.0532425 192.689065,81.0619274 192.700908,81.0706123 C192.790323,81.1351571 192.878554,81.201281 192.965206,81.2687865 C192.979418,81.2796427 192.993432,81.2904988 193.007249,81.3015524 C193.204436,81.4566967 193.395307,81.6197364 193.578085,81.7914611 C193.581441,81.7944218 193.584599,81.79758 193.588152,81.8009355 C193.674212,81.8820606 193.758495,81.9653569 193.841397,82.0504297 C193.851858,82.0612859 193.862517,82.0723394 193.873176,82.083393 C194.003252,82.2186014 194.128591,82.3585472 194.248996,82.5038223 C194.249785,82.5046118 194.250575,82.5055987 194.251364,82.5063883 C194.371572,82.651466 194.487042,82.8012809 194.597182,82.9566226 C194.599156,82.9595834 194.600933,82.9623468 194.603104,82.9653076 C194.608828,82.9735977 194.614947,82.9820853 194.620869,82.9903754 C194.690348,83.0898573 194.757854,83.1911156 194.822793,83.2947426 C194.822793,83.2947426 194.823385,83.2953347 194.823583,83.2957295 C194.82378,83.2963216 194.824175,83.2967164 194.824175,83.2967164 C194.825951,83.2994798 194.82753,83.3018484 194.829109,83.304217 C194.829307,83.3046118 194.829504,83.3050066 194.829702,83.3052039 L194.830096,83.3055987 C194.968463,83.5268669 195.095973,83.7582017 195.212628,83.9996031 C195.214009,84.0021691 195.215194,84.0051299 195.216575,84.0076959 C195.217562,84.0102619 195.218747,84.0130253 195.220128,84.0153939 C195.222102,84.019539 195.223879,84.0234867 195.225655,84.0274344 C195.279739,84.1405358 195.331256,84.2558084 195.380207,84.3732523 C195.383563,84.3817398 195.387313,84.39003 195.390669,84.3985175 C195.494888,84.6515646 195.587066,84.9152705 195.666415,85.1902273 C195.667797,85.1949646 195.669178,85.1997018 195.670165,85.2042416 C195.67056,85.2052286 195.670758,85.2062155 195.670955,85.207005 C195.708261,85.336292 195.742013,85.4685397 195.7732,85.6029586 C195.773398,85.6035508 195.773595,85.6043403 195.773595,85.6049325 C195.775371,85.6118409 195.776753,85.6187494 195.77853,85.6258552 C195.779714,85.6311846 195.781096,85.6367114 195.78228,85.6424356 C195.830442,85.8542293 195.871103,86.0725367 195.904066,86.2971604 L195.904066,86.2973578 C195.904264,86.2991343 195.904461,86.3007134 195.904856,86.3024898 C195.937622,86.5267188 195.962689,86.7574614 195.979664,86.9949152 C195.979862,86.9978759 195.980059,87.0006393 195.980257,87.0036001 C195.981441,87.0180092 195.98223,87.0324183 195.983217,87.0472221 C195.993679,87.2033534 196.001179,87.3618532 196.004535,87.5237086 C196.00493,87.5578562 196.006509,87.5912142 196.006509,87.6253617 C196.006706,87.6348362 196.006509,87.6443107 196.006509,87.6535877 L196.006509,87.6535877 Z M152.339498,78.5746835 C152.334168,78.5776442 152.328444,78.580605 152.323115,78.5835658 C152.312456,78.5894873 152.301995,78.5954088 152.291139,78.601133 C152.288178,78.6027121 152.285414,78.6044885 152.282256,78.6060676 C152.109545,78.7008122 151.934464,78.796149 151.757805,78.8918806 C151.667008,78.9412267 151.575817,78.9905729 151.48423,79.0399191 C151.358891,79.107622 151.233157,79.1751276 151.107028,79.2428305 C151.100909,79.246186 151.094395,79.2495416 151.088277,79.2526997 C150.996887,79.3018485 150.905301,79.3507999 150.813714,79.3997513 C150.780159,79.4177133 150.746406,79.4356753 150.712654,79.4536373 C150.707719,79.4562033 150.703179,79.4587693 150.698442,79.4613353 C150.63291,79.496075 150.567773,79.5308147 150.502636,79.565357 C147.855313,80.9727095 145.270364,82.2716979 145.26839,82.2726848 L145.26839,82.2726848 C145.26839,82.2726848 148.302982,78.0559566 151.791361,77.2113477 L146.222942,77.629211 C146.222942,77.629211 148.382133,74.1755718 152.021709,73.4071534 C150.328543,73.0842321 148.769599,73.3868227 148.769599,73.3868227 C148.769599,73.3868227 151.139202,68.5477407 159.157164,70.3399933 C159.178481,70.3865761 159.200588,70.433751 159.220327,70.4793469 C156.067304,69.5964453 149.440707,72.0951376 152.82684,78.3058456 C152.667354,78.3944713 152.504314,78.4842813 152.339498,78.5746835 L152.339498,78.5746835 Z M173.449391,116.093557 L172.713541,113.785933 L170.83286,115.41258 L170.832071,115.407054 C163.058076,121.618551 150.29558,121.206215 145.331948,120.460693 L146.057534,119.882751 C152.227975,119.922622 159.357509,119.16427 164.221264,116.344828 C164.221264,116.344828 159.829653,116.586427 157.949367,116.128692 C168.60044,114.319464 173.822251,110.541127 179.206904,106.055166 C176.141915,107.619045 173.030146,107.823733 173.030146,107.823733 C173.030146,107.823733 181.482749,104.513395 182.792396,93.4839355 C183.691483,85.9138395 181.719413,80.76664 179.397183,77.4454459 C178.181491,76.9679724 173.057583,75.5004176 173.057583,75.5004176 L177.830738,75.5004176 C176.772164,74.3575604 175.757015,73.5585474 175.011493,73.0473211 C175.021363,73.0473211 175.031034,73.0469264 175.040904,73.0469264 C177.267402,73.309448 179.78761,73.9550931 181.51966,75.2197366 C184.913886,77.6979008 186.406312,84.7001212 186.433551,92.6341946 C186.475594,104.800984 179.50081,112.786575 173.449391,116.093557 L173.449391,116.093557 Z M147.953019,108.438389 C147.456399,108.295285 146.950897,108.142114 146.440263,107.980061 C146.424472,107.975127 146.408484,107.969995 146.392496,107.964863 L146.391311,107.964271 C146.390719,107.964271 146.390127,107.964073 146.389535,107.963876 C145.88048,107.801823 145.366688,107.630691 144.851119,107.449886 C144.850922,107.449886 144.850527,107.449689 144.850527,107.449689 C141.110088,105.523412 135.505745,101.580259 135.147492,95.1279522 C134.99748,92.4196375 137.14463,88.3134446 144.22541,88.1164547 C144.256991,88.1517866 144.287783,88.1877106 144.318773,88.2232398 L144.319167,88.2232398 L144.319167,88.2234372 C144.31976,88.223832 144.320154,88.2246215 144.320746,88.2250163 C144.78539,88.7549941 145.194568,89.3193168 145.514331,89.8749546 C145.524595,89.8927192 145.535254,89.9106812 145.545321,89.9284458 C145.577889,89.9858847 145.608484,90.0429289 145.639079,90.0999731 C145.639671,90.1011574 145.640263,90.1021443 145.640658,90.1033286 C145.641052,90.1041182 145.641447,90.1047103 145.641842,90.1054998 C145.642434,90.1066842 145.643224,90.1080658 145.643816,90.1092502 C145.657633,90.1349102 145.671647,90.1609649 145.684872,90.1866249 C145.711519,90.2381423 145.736784,90.289265 145.761852,90.340585 C145.778235,90.3745351 145.794618,90.4084853 145.810408,90.4420407 C145.832318,90.4892156 145.853438,90.5361931 145.873769,90.5829733 C145.889954,90.6200816 145.905745,90.6571899 145.920944,90.6941009 C145.939103,90.7379203 145.956473,90.7815423 145.973251,90.8247695 C145.988252,90.8646412 146.002661,90.9039207 146.016675,90.9432003 C146.030887,90.9832694 146.044901,91.0233385 146.057929,91.0628154 C146.066811,91.0898571 146.074509,91.1163066 146.082404,91.1427562 C146.086944,91.1579548 146.091879,91.1733508 146.096221,91.188352 C146.107078,91.2248682 146.117736,91.2613843 146.127408,91.2973084 C146.127606,91.2984927 146.127803,91.2992822 146.128198,91.3004665 C146.131553,91.3132965 146.134119,91.3261265 146.137277,91.3389565 C146.138067,91.3419173 146.138659,91.3448781 146.139449,91.3478388 C146.145765,91.3748805 146.152476,91.4015274 146.158595,91.4283718 C146.165898,91.4609402 146.173991,91.4939035 146.180307,91.5260772 C146.184452,91.5481842 146.18761,91.5696992 146.190966,91.5916089 C146.191558,91.5949644 146.191953,91.5983199 146.192545,91.6014781 C146.193927,91.6097683 146.195111,91.6176636 146.196493,91.6257564 C146.198861,91.6395733 146.201033,91.6533903 146.203204,91.6670098 C146.203401,91.6681941 146.203599,91.6695758 146.203796,91.6707601 C146.207546,91.6962227 146.212481,91.7224749 146.215639,91.7475427 C146.224324,91.8201803 146.230048,91.8916335 146.232417,91.9611129 C146.235575,92.0568445 146.238536,92.157708 146.223732,92.2575847 L146.223732,92.2575847 L146.223732,92.2581768 L146.223732,92.2583742 C146.216231,92.3081151 146.204388,92.3576587 146.186031,92.4062153 L146.185834,92.4066101 L146.185637,92.4070048 C146.16728,92.4555615 146.142409,92.5031312 146.108854,92.5489244 C146.08951,92.5751766 146.067008,92.6004418 146.041546,92.6253123 C146.038388,92.628273 146.035032,92.6312338 146.031874,92.6341946 C146.009175,92.6557095 145.983515,92.6762375 145.955683,92.6965681 C145.953907,92.6977524 145.952328,92.6989367 145.950551,92.700121 C145.946209,92.7030818 145.942064,92.7060426 145.937721,92.7090034 C145.93634,92.7099903 145.934761,92.7109772 145.933182,92.7119641 C145.906732,92.7297287 145.877519,92.7470986 145.846135,92.7638763 L145.845938,92.7638763 C145.843964,92.7648632 145.84199,92.7658501 145.840016,92.7668371 C145.830542,92.7717717 145.821462,92.7767063 145.81179,92.7814435 C145.781195,92.79605 145.748035,92.8102617 145.713493,92.8240786 C145.70915,92.8256577 145.705005,92.8272368 145.700663,92.8290132 C145.697899,92.8301975 145.694938,92.8311845 145.69178,92.8323688 C145.682898,92.8357243 145.674608,92.8392772 145.665331,92.8426328 C145.629999,92.8552654 145.591114,92.8669111 145.551045,92.8783594 C145.531109,92.8840835 145.51216,92.8900051 145.49104,92.8953345 C145.449787,92.9057959 145.404191,92.9152703 145.358003,92.9247448 C145.333922,92.929482 145.31142,92.9348114 145.28576,92.9393512 C145.237598,92.9478388 145.184896,92.9549446 145.131603,92.9622479 C145.127655,92.9626426 145.123707,92.9632348 145.11976,92.9638269 C145.11976,92.9638269 145.119365,92.9638269 145.119167,92.9638269 C145.116799,92.9642217 145.11443,92.9644191 145.111864,92.9648139 C145.090744,92.967972 145.070611,92.9711302 145.047911,92.9738936 C144.962641,92.9835654 144.872239,92.9916582 144.774534,92.9979745 C144.579518,93.0102123 144.389042,93.0297534 144.201329,93.053637 L144.201131,93.053637 L144.200934,93.053637 C144.030394,93.0739676 143.864393,93.1002197 143.699577,93.1284457 C143.699182,93.1286431 143.69859,93.1286431 143.69859,93.1286431 C143.688523,93.1304196 143.679049,93.1319987 143.669377,93.1335777 C143.669377,93.1335777 143.668982,93.1335777 143.668588,93.1337751 C143.473374,93.1677253 143.282306,93.207597 143.095383,93.2526007 L143.095185,93.2527981 L143.09479,93.2527981 L143.094593,93.2529954 C143.094593,93.2529954 143.093409,93.2531928 143.092817,93.2533902 L143.092619,93.2533902 L143.092422,93.2533902 C142.911025,93.2972096 142.733379,93.3453715 142.56047,93.3992575 L142.56047,93.3992575 L142.560075,93.3994549 C142.547838,93.4032052 142.535402,93.4073502 142.523362,93.4114953 C142.522967,93.4116927 142.522572,93.4118901 142.522572,93.4118901 L142.521783,93.4120875 C142.316108,93.4774218 142.116947,93.5496646 141.924299,93.6288158 C141.923905,93.6290132 141.923707,93.6290132 141.923707,93.6290132 L141.923313,93.6292106 L141.923313,93.629408 C141.714282,93.7154677 141.513739,93.8094228 141.321487,93.9112733 L141.321092,93.911668 C141.317144,93.9136419 141.313591,93.9156157 141.309841,93.9175896 C141.309841,93.9175896 141.308854,93.9181817 141.308262,93.9183791 C141.154499,94.0000963 141.006066,94.0865508 140.863554,94.1783347 L140.863357,94.1783347 C140.827828,94.2020208 140.791509,94.2253122 140.755782,94.2493932 L140.755388,94.2495905 L140.755388,94.2495905 L140.754993,94.2499853 C140.656103,94.3167013 140.55899,94.3844043 140.466416,94.4558575 L140.466219,94.4558575 C140.466219,94.4558575 140.466022,94.4560549 140.465824,94.4562523 L140.465824,94.4564496 C140.34917,94.543891 140.236266,94.6338984 140.130863,94.72963 C139.788795,93.9100889 139.864393,91.8142587 139.864393,91.8142587 C139.864393,91.8142587 137.242336,93.6639503 138.792397,98.7661461 C139.73254,101.86094 142.920895,104.977644 147.953019,108.438389 L147.953019,108.438389 Z" id="path20" fill="#9C9D9D"></path>
                        <path d="M187.609568,78.8841826 C188.478061,80.8280266 189.067451,83.2757936 189.406953,86.3212414 C195.120449,86.8910908 192.041841,99.3979743 192.075199,99.3391537 C200.412529,84.6762377 193.838436,80.4338495 187.609568,78.8841826 L187.609568,78.8841826 Z M139.864393,91.8142587 C139.864393,91.8142587 139.788795,93.9100889 140.130863,94.72963 C141.22161,93.7379695 142.850231,93.1197608 144.774534,92.9979745 C146.263604,92.9036246 146.246234,92.3809501 146.232417,91.9611129 C146.155832,89.6412512 142.494544,85.551836 139.92124,85.5502569 C139.92124,85.5502569 139.919464,85.5502569 139.918279,85.5502569 C137.736389,85.5504543 135.08808,86.9907701 133.328001,89.1349595 C132.292521,90.3968396 130.670019,93.0070542 131.43903,96.3104837 L131.463505,96.4401654 C132.369303,102.629951 141.007448,106.436908 147.953019,108.438389 C142.920895,104.977644 139.73254,101.86094 138.792397,98.7661461 C137.242336,93.6639503 139.864393,91.8142587 139.864393,91.8142587 Z M159.77103,72.7103855 C156.867107,71.2475679 152.630245,73.9539088 156.149614,78.3058456 L156.685316,78.2036003 C157.557361,75.608387 157.569401,73.4681452 157.569401,73.4681452 C158.347689,73.2115452 159.078407,73.0046861 159.769845,72.8347379 C159.770832,72.7992086 159.771622,72.7579552 159.77103,72.7103855 Z M181.51966,75.2197366 C179.78761,73.9550931 177.267402,73.309448 175.040904,73.0469264 C167.464096,73.0875876 160.409964,75.3847502 160.409964,75.3847502 C158.710087,83.7133954 152.549515,84.4107554 152.549515,84.4107554 C154.120105,83.1336767 155.199009,81.5745353 155.940583,80.038488 L145.26839,82.2726848 C145.26839,82.2726848 149.631578,80.0805309 152.82684,78.3058456 C149.440707,72.0951376 156.067304,69.5964453 159.220327,70.4793469 C158.717785,69.3315551 157.767378,67.8557101 155.975718,66.1864282 C155.975718,66.1864282 160.679986,67.866961 163.725434,71.6121374 L163.726816,71.6028603 C163.726816,71.6028603 167.9921,71.8801857 170.803845,71.7435955 C173.195555,71.6277308 175.263356,70.8158877 175.829653,70.5752758 C175.882947,70.509152 175.938214,70.4442124 175.987955,70.3753252 C176.694592,69.3953104 175.811493,65.705007 175.377444,64.6744617 C174.987215,63.7481356 172.221659,56.3586465 171.388893,53.5399937 L159.283687,55.493707 C158.068982,55.6978027 156.881713,55.0063643 156.45931,53.8492955 L154.875496,49.5082149 C154.548035,48.6112991 154.632515,47.4822589 155.39363,46.9035271 L158.761013,44.7469024 C159.233354,44.4174674 159.627926,44.1780399 160.539053,44.1780399 L167.816625,44.0159871 C166.954844,43.0371566 166.103919,42.0482595 165.480381,41.180754 L154.271696,41.180754 C149.943051,41.180754 147.189338,49.2046373 147.189338,49.2046373 C147.189338,49.2046373 146.901353,45.4197867 148.197578,42.2488023 C146.939843,41.2068087 144.641299,39.8320247 140.895136,39.306192 L141.53782,41.7879091 L138.749565,40.9178376 C138.701403,40.9028364 134.670216,39.6893156 126.157016,40.210411 C128.84658,41.5125576 133.311026,44.9772503 133.311026,44.9772503 C133.311026,44.9772503 127.411593,44.0935592 123.488771,45.5650618 C125.597826,46.1907711 127.853932,47.1741414 129.445247,48.7103861 C130.336636,49.5709832 131.26316,50.5811978 132.243767,51.6510226 C133.92351,53.4827522 136.307719,56.0809263 137.942459,56.9431025 C139.208681,54.9104353 140.315812,53.6799394 140.315812,53.6799394 C140.315812,53.6799394 136.301403,63.5162086 137.552427,72.8742148 C137.552427,72.8742148 137.548677,72.8702671 137.542163,72.8631613 C137.544729,72.8680959 137.547097,72.8728331 137.549466,72.8775703 C136.451415,71.9873656 133.022647,69.3374767 133.022647,69.3374767 C133.022647,69.3374767 132.659261,74.7223273 134.563036,79.7595835 L129.531702,76.8118412 C129.531702,76.8118412 130.517243,80.4121371 133.458472,84.5710317 L133.458274,84.5712291 C135.465282,83.1407825 137.754351,82.3151225 139.918279,82.3151225 C139.919858,82.3151225 139.921832,82.3151225 139.923609,82.3151225 C144.42082,82.3176885 149.42314,87.9178858 149.553216,91.8570912 C149.652501,94.8591143 147.26237,96.1067827 144.990078,96.2262004 C144.180209,96.2688355 143.583712,96.4749051 143.583712,96.4749051 C143.583712,96.4749051 143.584699,96.4745103 143.585291,96.4743129 C147.240658,98.4947422 150.71443,98.278606 150.71443,98.278606 C147.407645,100.049738 144.516749,99.7803084 142.36427,98.985243 C144.494248,103.483442 152.69558,108.259755 155.018797,110.192349 C155.543248,110.628569 155.217563,111.39679 154.368612,111.455413 C152.102636,111.611544 146.009372,110.92504 141.360174,109.345371 C133.21786,106.578828 128.971721,102.12662 128.183959,96.9616556 C127.566145,94.2347867 128.024275,91.4534396 129.469526,88.94172 L129.469328,88.9419173 C129.340831,88.8120382 129.220031,88.6853173 129.109299,88.5629388 C127.846432,87.1676267 127.326323,86.1787296 127.121635,85.6819125 L130.8224,85.5334792 C128.944482,82.772068 126.533626,78.0614834 126.195112,71.7372792 L130.526718,74.1070793 C130.526718,74.1070793 129.227137,69.075942 133.038043,60.9642225 C133.581048,62.9051058 133.946999,64.3272621 134.468489,65.861533 C134.805425,63.6316786 135.54463,61.5636797 136.387265,59.7856388 L34.1287926,59.8045877 L53.448802,79.9285448 L44.0872429,78.906487 C62.9110273,94.3895363 75.8695268,101.613222 75.8695268,101.613222 L65.3392532,102.010558 C80.0400671,111.69188 94.0279276,119.38238 94.0279276,119.38238 L83.9842071,119.739054 C91.2333557,123.745568 111.38396,132.575965 123.779123,133.006856 C132.661827,133.315763 140.414109,130.20656 146.831677,123.779913 C143.581541,123.440806 141.400046,122.921092 141.181936,122.856745 L138.24801,121.992003 L140.327458,120.335354 C136.414702,119.461137 128.656893,116.964418 122.458028,112.270809 C135.037154,117.369649 148.392002,118.022992 148.392002,118.022992 L145.331948,120.460693 C150.29558,121.206215 163.058076,121.618551 170.832071,115.407054 L170.83286,115.41258 L172.713541,113.785933 L173.449391,116.093557 C179.50081,112.786575 186.475594,104.800984 186.433551,92.6341946 C186.406312,84.7001212 184.913886,77.6979008 181.51966,75.2197366 L181.51966,75.2197366 Z M166.321832,48.9646176 L159.440411,53.3530705 L166.636463,50.6658759 L171.161308,51.2675043 L166.321832,48.9646176 Z M193.385635,101.887192 C189.745073,107.698196 187.46074,109.564863 189.209174,103.244606 C190.995899,96.7861807 190.774039,90.6954826 189.655855,89.3974811 C189.691977,90.0749052 189.719216,90.7760155 189.73698,91.5027858 C190.023977,103.210459 185.009618,115.049787 171.467255,120.608336 L171.030837,119.239474 L171.030837,119.239671 C164.7242,123.426397 156.864738,124.236069 150.791015,124.048554 C150.424472,124.464443 150.043125,124.882109 149.641842,125.300367 C142.582577,132.655116 133.288918,136.925928 123.372511,136.314825 C96.2317272,134.64199 73.0342938,116.614653 73.0342938,116.614653 L81.9621988,116.555438 C76.6973581,114.084379 55.4704156,99.3427066 55.4704156,99.3427066 L64.7257818,99.0486035 C60.3728581,96.2826524 48.4231915,87.4550188 38.2610402,77.9866746 L34.9587951,74.9100401 L44.2108057,75.888081 C41.9383162,73.3544517 35.9873665,67.1338745 29.1892418,59.8053772 L24.1616574,59.8061668 L22.2565008,46.418553 L3.84367126,46.418553 L1.9952035,33.4756468 L6.23504549,33.5520347 C4.98913385,24.9592888 1.73868044,1.76998565 1.73868044,1.76998565 C8.30936076,2.81095478 82.5930401,17.0518821 168.981392,4.52604973 C168.981392,4.52604973 171.160519,4.2173204 172.000785,4.09865275 C172.642285,4.00651359 173.279838,3.95918075 173.885414,3.95918075 C178.84944,3.95918075 182.266366,7.0622056 183.026494,12.2597382 C183.476531,15.3298392 183.927753,18.4203104 184.379566,21.5293358 C184.478653,22.2107076 184.529578,22.8052301 184.535105,23.347051 C184.541224,24.1620522 184.432663,24.9334314 184.212579,25.6517141 C184.01855,26.283345 183.732539,26.8774728 183.358298,27.4269917 L185.066465,27.3506038 L185.641249,31.3425109 C185.854029,32.8193429 186.06681,34.3003199 186.279591,35.7856394 C186.848848,39.7605714 185.585389,42.1905738 184.425359,43.5294339 C183.297701,44.83237 181.153709,46.3891427 177.357805,46.3891427 L175.045246,46.3893401 L173.906534,46.3895375 C173.932391,46.4284222 173.961802,46.4708599 173.985093,46.5073761 C174.960568,48.041647 174.60192,49.6442129 174.402167,50.8638527 C174.241298,51.8799888 174.451513,52.6107068 174.451513,52.6107068 C174.451513,52.6107068 177.924299,62.2495913 178.387955,63.4348862 C179.255461,65.6546739 179.853536,70.1562282 179.215589,71.1307162 C180.402463,71.6960258 183.513245,73.6388829 185.335303,75.4792974 C191.363035,76.3031809 195.413763,78.9605704 197.461628,82.8137162 C199.901303,87.403304 197.026198,96.0763855 193.385635,101.887192 L193.385635,101.887192 Z" id="path22" fill="#17243A"></path>
                        <path d="M136.937771,36.9819877 L137.01258,37.2707615 C134.743249,36.9423134 131.02393,36.6489998 125.769156,36.9821851 C125.679148,36.4526021 125.589338,35.9224269 125.499133,35.3936335 C127.471006,35.3685656 129.442484,35.3409318 131.413962,35.3113241 C127.648257,27.8533425 123.877816,20.5809025 120.099084,13.4039572 C124.25561,13.2137376 128.410557,12.9762642 132.563332,12.6929975 C132.748085,13.7865479 132.933034,14.8816379 133.117786,15.9780504 C130.956029,16.1107521 128.793483,16.232499 126.630542,16.342837 C130.071154,23.0839372 133.505844,29.9420669 136.937771,36.9819877 L136.937771,36.9819877 Z M85.8204765,34.1049091 C85.5622974,32.6596587 85.3041183,31.2138161 85.0459392,29.7667893 C84.9507998,29.2320743 84.7670346,28.8600042 84.5005654,28.6576849 C84.2400176,28.4601029 83.7378711,28.3552917 83.0079427,28.3483832 C82.4971112,28.3432512 81.9862797,28.3383166 81.4754482,28.3321977 C81.9077206,30.7564759 82.3395982,33.1779908 82.7712785,35.5969396 C83.3667879,35.6000978 83.9622974,35.602269 84.5580043,35.604835 C85.0340961,35.6064141 85.3803087,35.5108799 85.5865757,35.3204038 C85.8431757,35.0831474 85.9219322,34.6735743 85.8204765,34.1049091 Z M84.8183547,23.6409567 C84.4788531,21.7387609 84.1387593,19.8351833 83.7988629,17.929849 C83.6928674,17.3350699 83.3207973,17.0654425 82.5930401,17.0518821 C81.5467041,17.0317489 80.5001707,17.0093852 79.4538347,16.9847121 C79.9338741,19.6814009 80.4135188,22.3745368 80.8927688,25.0635079 C81.5755223,25.0735745 82.2584731,25.0826542 82.9412266,25.0911417 C83.7252385,25.1002214 84.2717966,24.9695528 84.5651101,24.6999254 C84.8175651,24.4695775 84.9024405,24.1125086 84.8183547,23.6409567 Z M85.5204518,38.7886494 C83.2159861,38.784307 80.9111255,38.7783854 78.6066598,38.7710822 C77.1203534,30.4309886 75.6306914,22.0529972 74.1374766,13.6215541 C77.0386361,13.7269377 79.9403878,13.8104512 82.8425343,13.8705943 C86.1461612,13.9389091 88.0526995,15.2426347 88.507079,17.7895283 C88.8866496,19.9139398 89.2658256,22.0377986 89.6448041,24.1600783 C89.8088307,25.0800882 89.6254604,25.7912651 89.1002198,26.2742653 C88.7496647,26.5961997 88.2498868,26.8135202 87.6058207,26.926819 C88.7575601,27.4427824 89.4722899,28.3094984 89.7365879,29.5220323 C90.0103604,31.0559084 90.2837382,32.5895871 90.5571159,34.1226737 C90.8310858,35.6553655 90.5397461,36.8305937 89.6925712,37.6144081 C88.8471727,38.3964461 87.4435705,38.792005 85.5204518,38.7886494 L85.5204518,38.7886494 Z M161.500909,32.7194662 C161.247072,31.0665672 160.993236,29.4180106 160.739596,27.774586 C160.55287,26.5644208 159.954795,26.0338508 158.855955,26.0989878 C158.057928,26.1451758 157.2601,26.1905742 156.462074,26.2351832 C156.893556,28.9906729 157.325434,31.7589925 157.757312,34.540537 C158.582774,34.5186273 159.408237,34.4961255 160.233699,34.4732288 C160.709199,34.4600041 161.055412,34.3394021 161.262468,34.1155679 C161.51966,33.8358738 161.600391,33.365901 161.500909,32.7194662 Z M165.502488,37.094497 C164.768414,37.8966682 163.590423,38.3105838 162.002266,38.3319013 C159.208878,38.3703913 156.415096,38.4065127 153.621116,38.4400681 C152.179221,29.2599055 150.738906,20.2175174 149.29859,11.2981196 C150.875101,11.1423634 152.45102,10.9805277 154.026544,10.811981 C154.649885,14.7278161 155.273226,18.6680479 155.896961,22.6352819 C156.560371,22.5900809 157.223584,22.5440902 157.886796,22.4977048 C158.170438,18.4396541 158.453882,14.3696024 158.736932,10.2872931 C160.238634,10.1138117 161.739547,9.9337772 163.240262,9.74801851 C162.916157,14.0558003 162.591656,18.3472978 162.266959,22.6238336 C163.988153,23.2185536 165.047516,24.758746 165.419389,27.2063156 C165.717242,29.1651609 166.015293,31.1303224 166.313541,33.1027872 C166.580011,34.8660243 166.307028,36.2179118 165.502488,37.094497 L165.502488,37.094497 Z M181.062517,40.6148522 C180.297454,41.498938 179.05097,41.9391058 177.357805,41.9391058 C175.815836,41.9393032 174.273867,41.9393032 172.731701,41.9396979 C171.623188,40.7626933 170.515268,39.6018742 169.407546,38.456451 C169.013961,35.8584743 168.620573,33.2733276 168.22758,30.7002213 C168.171523,30.3220323 168.135402,29.9809516 168.120795,29.6874407 C168.102833,29.3698488 168.138165,29.0635078 168.224817,28.7759184 C168.312456,28.4863551 168.481417,28.1894886 168.728345,27.8926221 C168.965009,27.6097699 169.304116,27.2990864 169.747245,26.9603744 C171.344284,25.8437694 172.940336,24.7038731 174.535402,23.5389089 C174.798318,23.3709345 175.003203,23.200789 175.143741,23.0351832 C175.18006,22.9917586 175.291187,22.8016772 175.197824,22.1670856 C174.701797,18.8097503 174.206559,15.4737919 173.711913,12.1588943 C172.803351,12.2749368 171.894592,12.3894396 170.985833,12.5011593 C170.661728,12.5402415 170.43513,12.6361704 170.313541,12.784051 C170.188399,12.9373991 170.148922,13.1750305 170.196887,13.4914776 C170.364664,14.6050823 170.532441,15.7212925 170.700218,16.8398318 C169.127654,17.0033058 167.554499,17.1619833 165.980751,17.3155683 C165.860544,16.5271943 165.740139,15.7398861 165.619734,14.9539004 C165.33254,13.0721931 165.620919,11.6086057 166.476384,10.5774288 C167.238486,9.65959019 168.451612,9.08046363 170.08043,8.85787296 C170.928197,8.7421266 171.775767,8.62454457 172.623139,8.50488999 C176.102438,8.00556605 178.119117,9.45626426 178.623238,12.9034095 C179.073472,15.9737474 179.524496,19.0621856 179.975915,22.1694542 C180.044604,22.6431773 180.08191,23.0559086 180.085068,23.3928442 C180.087832,23.7412281 180.045591,24.061386 179.957953,24.3473964 C179.866563,24.6450524 179.704116,24.9279046 179.473571,25.1860838 C179.258224,25.4261035 178.967476,25.6795454 178.607052,25.9383166 C177.020474,27.0527504 175.432515,28.1423136 173.843766,29.2101646 C173.516107,29.4063649 173.25477,29.5934856 173.066662,29.7654076 C173.008631,29.8181093 172.883489,30.0038483 172.972312,30.6029107 C173.347738,33.0974578 173.723361,35.603256 174.099379,38.1214893 C174.867008,38.1092515 175.634834,38.0960267 176.402266,38.0828019 C176.760321,38.0774725 177.006065,37.9969396 177.133378,37.8471246 C177.258718,37.6988888 177.291878,37.4523553 177.230294,37.1057479 C176.991064,35.4597573 176.751834,33.8188987 176.512801,32.1833695 C178.087536,32.1160614 179.662468,32.0473715 181.23661,31.9767078 C181.449391,33.4525528 181.661974,34.9325429 181.874755,36.4168755 C182.139645,38.2663696 181.866465,39.6871443 181.062517,40.6148522 L181.062517,40.6148522 Z M144.391805,35.1169002 C146.446974,35.075252 148.502143,35.0310379 150.556917,34.9838629 C150.74088,36.1438925 150.925039,37.3056985 151.109397,38.4698732 C150.227482,38.4799398 149.345567,38.4878352 148.463653,38.4973097 C146.505005,37.3270161 143.680628,36.2220568 139.775965,35.9222295 C138.479937,28.0207247 137.183318,20.199358 135.885316,12.456353 C139.521536,12.1863505 143.155782,11.8807794 146.787265,11.5395211 C146.971425,12.6718576 147.155387,13.8064443 147.339745,14.9426298 C145.285365,15.1151242 143.230196,15.2785784 141.174633,15.4311568 C141.639276,18.2484476 142.104117,21.0769301 142.56876,23.9161109 C144.433058,23.8193924 146.297159,23.7171472 148.160865,23.6091778 C148.349367,24.7810505 148.537869,25.954897 148.726767,27.1313095 C146.863061,27.2195404 144.999157,27.3028367 143.135057,27.3817906 C143.553907,29.9507518 143.972955,32.5289901 144.391805,35.1169002 L144.391805,35.1169002 Z M70.2051796,38.7367373 C68.6272867,38.7286445 67.0493938,38.7203543 65.4718957,38.7110772 C63.9761149,30.21051 62.477768,21.6412529 60.9774473,12.9875151 C64.6162333,13.2060396 68.2565983,13.3883836 71.8979503,13.5354154 C72.0892161,14.6179518 72.2802844,15.6990275 72.4713527,16.7797084 C70.4118413,16.7078407 68.3523299,16.6257287 66.2934106,16.5335106 C67.5993075,23.9855903 68.9034278,31.3829748 70.2051796,38.7367373 L70.2051796,38.7367373 Z M99.8740661,38.7937814 C98.2961732,38.7957553 96.718083,38.7965448 95.1401901,38.7967422 C93.6686875,30.5282993 92.1930399,22.2610406 90.7132472,13.9787611 C94.3569678,14.0034341 98.0008858,13.9921832 101.644212,13.9456202 C101.831924,15.0022399 102.019637,16.0592545 102.207547,17.1161703 C100.147049,17.141475 98.0865507,17.1566539 96.0260524,17.1618254 C97.311816,24.3700956 98.5944214,31.5775961 99.8740661,38.7937814 Z M46.5002702,27.407648 C45.1063399,27.3494195 43.7126069,27.288625 42.3188738,27.2252646 C42.6674551,29.3252398 43.015839,31.4187014 43.3640256,33.5058467 C43.5160117,34.417369 44.0854665,34.8508257 45.155686,34.8735249 C46.0265471,34.8914869 46.8974082,34.9094489 47.7682692,34.926424 C47.3456687,32.4291134 46.9230682,29.9227232 46.5002702,27.407648 Z M51.515222,37.4784101 C50.7523303,38.2191947 49.507228,38.5898831 47.8138651,38.5748818 C45.9689108,38.557512 44.1241538,38.5387604 42.2793969,38.5192194 C41.1655553,37.4373541 40.0519112,36.3448301 38.938267,35.239476 C37.6151977,27.2043418 36.2929179,19.067357 34.9722172,10.8178433 C36.5477415,10.986469 38.1236605,11.1483047 39.7001717,11.3031924 C40.3764115,15.4500465 41.0528487,19.5695233 41.7292859,23.6634586 C43.1228215,23.7428072 44.5165545,23.8188003 45.9106823,23.8918326 C45.2338503,19.8517636 44.5572158,15.7879887 43.8805812,11.6985933 C45.4578819,11.8416972 47.0355774,11.978465 48.6138651,12.1083836 C49.8483086,19.45581 51.0823575,26.7266709 52.3158141,33.9302237 C52.5860337,35.5100904 52.3168011,36.6991355 51.515222,37.4784101 L51.515222,37.4784101 Z M30.4546748,32.8219089 C30.1913637,31.169602 29.9282499,29.5129526 29.6653336,27.8511713 C29.4718966,26.6287681 28.8702682,26.0287188 27.7718226,25.9622002 C26.9741913,25.913841 26.1765599,25.8650869 25.3789286,25.8155434 C25.8260048,28.6973593 26.2734758,31.5641739 26.7213415,34.4169742 C27.5468041,34.4406604 28.3722667,34.463557 29.197532,34.4864536 C29.6730316,34.499481 30.0182573,34.3990122 30.2239321,34.1895871 C30.4795453,33.9278551 30.5575122,33.4675541 30.4546748,32.8219089 Z M34.4817164,37.289513 C33.7511958,38.0342453 32.5755728,38.4059206 30.9880081,38.3859847 C28.1942258,38.3498633 25.4006409,38.3111759 22.6074507,38.2703173 C21.114828,28.6075492 19.6264293,18.7756028 18.143893,8.75870691 C19.7149563,8.97545499 21.28675,9.18509723 22.8591161,9.38802839 C23.5033796,13.6358842 24.1482353,17.8510531 24.7940778,22.0350352 C25.4566981,22.0863552 26.1197131,22.1368857 26.7825308,22.186824 C27.0432759,18.1037252 27.3038236,14.0328839 27.5639766,9.97524772 C29.0650869,10.1558349 30.5665919,10.3305401 32.0686891,10.4994816 C31.7676775,14.6331504 31.4664685,18.7813862 31.1652595,22.9430046 C32.8905987,23.7724149 33.9602261,25.3970879 34.3461131,27.7860343 C34.6546253,29.6992837 34.9631375,31.6066116 35.2718471,33.5080179 C35.5477909,35.2069076 35.2819137,36.4743144 34.4817164,37.289513 L34.4817164,37.289513 Z M20.9513935,41.9685161 C16.5347344,41.9685161 12.1179568,41.9685161 7.7013963,41.9685161 C7.51311109,40.6557108 7.32498378,39.3389578 7.13707359,38.0190467 C8.5556968,38.0443119 9.97447791,38.0687876 11.3931801,38.0932633 C9.91242018,27.9650622 8.43850953,17.6408582 6.97338251,7.10507754 C8.54089295,7.35334795 10.1094101,7.59498624 11.6784601,7.82969633 C13.1530616,18.1388794 14.6349861,28.2473223 16.1227729,38.1708355 C17.5417119,38.1935347 18.9608088,38.2156418 20.3797676,38.2369593 C20.5702437,39.4838381 20.7607199,40.7275588 20.9513935,41.9685161 Z M56.8497395,38.6526514 C55.3498136,29.996545 53.8483085,21.2520103 52.3458166,12.402467 C53.9246964,12.5220426 55.503971,12.6346308 57.0834429,12.7404093 C58.584948,21.4772262 60.0850713,30.1208973 61.5826286,38.6864042 C60.0049331,38.6761402 58.4272376,38.6644945 56.8497395,38.6526514 L56.8497395,38.6526514 Z" id="path24" fill="#BB1A21"></path>
                        <path d="M156.149614,78.3058456 L156.685316,78.2036003 C157.557361,75.608387 157.569401,73.4681452 157.569401,73.4681452 C158.347689,73.2115452 159.078604,73.0046861 159.769845,72.8345405 C159.770832,72.7992086 159.771622,72.7579552 159.77103,72.7103855 C156.867107,71.2475679 152.630245,73.9539088 156.149614,78.3058456" id="path26" fill="#C21B32"></path>
                        <path d="M156.944161,116.011118 C156.888161,115.980451 156.833494,115.951118 156.777494,115.920451 C156.878828,115.975118 156.933494,116.004451 156.944161,116.011118" id="path28" fill="#FFFFFF"></path>
                        <path d="M155.466934,116.011118 C155.410934,115.980451 155.356268,115.951118 155.300268,115.920451 C155.400268,115.975118 155.454934,116.004451 155.466934,116.011118" id="path30" fill="#16243A"></path>
                        <path d="M31.7341221,53.9931889 L30.3846032,44.4660241 L32.1241541,44.4660241 C32.7581536,44.4660241 33.2460885,44.5961005 33.3759676,45.539007 L34.4165795,52.9527744 C34.5466559,53.8958782 34.0916843,53.9931889 33.4572901,53.9931889 L31.7341221,53.9931889 Z M30.7584498,54.9201072 L33.5873665,54.9201072 C35.1320988,54.9201072 35.7335298,54.5624462 35.4897598,52.8716493 L34.4655308,45.6041439 C34.2215634,43.913347 33.5386125,43.5393031 31.9940777,43.5393031 L29.1651609,43.5393031 L30.7584498,54.9201072 L30.7584498,54.9201072 Z" id="path32" fill="#FFFFFF"></path>
                        <polyline id="path34" fill="#FFFFFF" points="41.1959526 54.9201072 42.2851211 54.9201072 40.6920296 43.5393031 39.6028611 43.5393031 41.1959526 54.9201072"></polyline>
                        <polyline id="path36" fill="#FFFFFF" points="49.9098927 49.3433987 51.2266456 43.5393031 50.1374772 43.5393031 49.0806798 48.3841093 46.6579806 43.5393031 45.585195 43.5393031 48.527608 49.3433987 47.2923748 54.9201072 48.3651604 54.9201072 49.3570183 50.319071 51.6170725 54.9201072 52.706241 54.9201072 49.9098927 49.3433987"></polyline>
                        <polyline id="path38" fill="#FFFFFF" points="57.7131 54.9201072 58.8022685 54.9201072 57.209177 43.5393031 56.1198111 43.5393031 57.7131 54.9201072"></polyline>
                        <polyline id="path40" fill="#FFFFFF" points="63.9397961 44.4660241 67.2074989 44.4660241 67.0774225 43.5393031 62.7205511 43.5393031 64.31384 54.9201072 68.6709087 54.9201072 68.5406349 53.9931889 65.272932 53.9931889 64.6876865 49.8311362 67.7439904 49.8311362 67.6141113 48.9046126 64.55761 48.9046126 63.9397961 44.4660241"></polyline>
                        <path d="M80.4407579,54.9526757 C82.0664179,54.9526757 82.7008121,54.6112002 82.4404618,52.7739439 L82.2130747,51.1157155 L81.0911403,51.1157155 L81.3351078,52.8554638 C81.4813698,53.9120638 81.0098179,53.9931889 80.3106814,53.9931889 L79.8555124,53.9931889 C79.156376,53.9931889 78.652453,53.9120638 78.506191,52.8554638 L78.3275579,51.5708845 C78.1970866,50.6115951 78.6200819,50.4977041 79.4003434,50.1889946 L80.5058949,49.7823822 C81.3187248,49.4572897 82.0016757,49.2620762 81.8064623,47.8478152 L81.5139383,45.6854664 C81.2699708,43.864593 80.5058949,43.5067347 78.896223,43.5067347 L78.3761145,43.5067347 C76.7502571,43.5067347 76.1160603,43.864593 76.3764106,45.6854664 L76.6039951,47.3436948 L77.7257321,47.3436948 L77.4817647,45.6203295 C77.3357,44.5637295 77.790869,44.4660241 78.506191,44.4660241 L79.0262995,44.4660241 C79.725436,44.4660241 80.229359,44.5637295 80.3760158,45.6203295 L80.6519595,47.5874649 C80.7824307,48.4980003 80.3106814,48.5795201 79.6606938,48.8720442 L78.4898081,49.2784592 C77.6769781,49.6199346 76.9616561,49.8475191 77.1564748,51.2455946 L77.3682685,52.7739439 C77.6282241,54.6112002 78.3761145,54.9526757 79.9855889,54.9526757 L80.4407579,54.9526757" id="path42" fill="#FFFFFF"></path>
                        <polyline id="path44" fill="#FFFFFF" points="88.650775 43.5393031 87.5614091 43.5393031 89.0246215 53.9931889 86.7483817 53.9931889 86.8784582 54.9201072 92.5037233 54.9201072 92.3736468 53.9931889 90.11379 53.9931889 88.650775 43.5393031"></polyline>
                        <path d="M96.6493931,47.1812473 L99.3644189,47.1812473 L99.0716975,54.0583258 L98.9092499,54.0583258 L96.6493931,47.1812473 Z M100.746309,43.5393031 L99.6571404,43.5393031 L99.4944954,46.1570183 L96.2755466,46.1570183 L95.3811967,43.5393031 L94.2918309,43.5393031 L98.145174,54.9201072 L100.096124,54.9201072 L100.746309,43.5393031 L100.746309,43.5393031 Z" id="path46" fill="#FFFFFF"></path>
                        <polyline id="path48" fill="#FFFFFF" points="107.395803 43.5393031 106.306437 43.5393031 107.769649 53.9931889 105.49341 53.9931889 105.623289 54.9201072 111.248554 54.9201072 111.118675 53.9931889 108.858818 53.9931889 107.395803 43.5393031"></polyline>
                        <polyline id="path50" fill="#FFFFFF" points="115.751885 44.4660241 119.019587 44.4660241 118.889511 43.5393031 114.53264 43.5393031 116.125731 54.9201072 120.482997 54.9201072 120.352723 53.9931889 117.085021 53.9931889 116.499775 49.8311362 119.556079 49.8311362 119.426002 48.9046126 116.369699 48.9046126 115.751885 44.4660241"></polyline>
                        <path d="M115.474559,28.216925 C114.07905,28.2423876 112.68354,28.2654817 111.287833,28.2858123 C111.626151,30.2154446 111.964271,32.1472481 112.302193,34.0810255 C112.449245,34.9248449 113.01712,35.3144822 114.088524,35.3059947 C114.959977,35.2984941 115.831233,35.2911908 116.702489,35.2829007 C116.293508,32.9237594 115.88433,30.5683683 115.474559,28.216925 L115.474559,28.216925 Z M120.435822,37.6384891 C119.668588,38.3664436 118.421512,38.7391059 116.727754,38.7462117 C114.88201,38.7545019 113.036661,38.7620025 111.190918,38.7681214 C110.082208,37.7798165 108.973301,36.7940775 107.863999,35.8107072 C106.577051,28.4908949 105.28734,21.1941766 103.994471,13.9105252 C105.576706,13.8834638 107.158744,13.8496912 108.740585,13.8094445 C109.399454,17.5404091 110.057732,21.2770782 110.715221,25.0206754 C112.111125,24.9965945 113.507424,24.9687633 114.903131,24.9381686 C114.247419,21.178978 113.59072,17.4293013 112.933429,13.686612 C114.515072,13.6347394 116.096518,13.575524 117.677767,13.5099725 C118.873325,20.3673323 120.066516,27.2572409 121.257535,34.1887976 C121.518872,35.7088567 121.241941,36.8724392 120.435822,37.6384891 L120.435822,37.6384891 Z" id="path52" fill="#BB1A21"></path>
                        <path d="M189.252204,1.74484871 L189.146208,3.44513191 C189.135352,3.66843317 189.135352,3.94477168 189.124693,4.25286937 L189.093111,4.25286937 C189.018697,3.99765102 188.933427,3.65771518 188.848552,3.39209466 L188.327851,1.78748774 L187.732934,1.78748774 L187.212036,3.43472974 C187.158742,3.65771518 187.073867,3.99765102 187.009914,4.25286937 L186.977938,4.25286937 C186.977938,3.9871699 186.967674,3.71083139 186.957015,3.44513191 L186.850624,1.74484871 L186.298145,1.74484871 L186.510333,4.63538108 L187.371128,4.63538108 L187.870708,3.22206752 C187.934661,2.99908209 187.987757,2.7862817 188.061974,2.48882303 L188.072633,2.48882303 C188.147047,2.75428565 188.210802,2.99908209 188.274952,3.21142849 L188.774138,4.63538108 L189.602759,4.63538108 L189.826198,1.74484871 L189.252204,1.74484871 Z M186.128197,4.63538108 L186.128197,4.1573352 L185.20345,4.1573352 L185.20345,1.74484871 L184.629455,1.74484871 L184.629455,4.1573352 L183.705103,4.1573352 L183.705103,4.63538108 L186.128197,4.63538108 L186.128197,4.63538108 Z" id="path54" fill="#17243A"></path>
                    </g>
                </g>
            </g>
        </g>
    </g>
</svg>