<?xml version="1.0" encoding="UTF-8"?>
<svg width="200px" height="200px" viewBox="0 0 200 200" version="1.1" xmlns="http://www.w3.org/2000/svg" xmlns:xlink="http://www.w3.org/1999/xlink">
    <!-- Generator: Sketch 54.1 (76490) - https://sketchapp.com -->
    <title>harvard</title>
    <desc>Created with Sketch.</desc>
    <g id="harvard" stroke="none" stroke-width="1" fill="none" fill-rule="evenodd">
        <g id="harvard_BGD" transform="translate(-0.000000, 0.000000)">
            <g id="harvard" transform="translate(15.000000, 0.000000)">
                <g id="g10" transform="translate(84.366507, 99.649239) scale(-1, 1) rotate(-180.000000) translate(-84.366507, -99.649239) translate(0.000000, 0.042848)" fill-rule="nonzero">
                    <g id="g12">
                        <path d="M168.201184,129.159501 C168.201184,42.5561346 87.0710405,1.46723428 86.2514038,1.06245747 L84.8315903,0.360847181 L84.1000579,0 L83.3690595,0.360847181 L81.9497799,1.06245747 C81.1301433,1.46723428 0,42.5575805 0,129.159501 L0,197.193344 L0,198.85345 L1.65570871,198.85345 L166.545358,198.85345 L168.201184,198.85345 L168.201184,197.193344 L168.201184,129.159501" id="path14" fill="#FFFFFF"></path>
                        <path d="M166.545358,129.159501 C166.545358,43.5740477 86.3304307,2.95225312 85.5193375,2.5516587 L84.1000579,1.85025834 L82.6813123,2.5516587 C81.8707531,2.95225312 1.65570871,43.5740477 1.65570871,129.159501 L1.65570871,197.193344 L166.545358,197.193344 L166.545358,129.159501" id="path16" fill="#231F20"></path>
                        <path d="M4.8672159,193.972202 C4.8672159,193.972202 4.8672159,160.042837 4.8672159,129.159501 C4.8672159,44.5883728 84.1000579,5.44097237 84.1000579,5.44097237 C84.1000579,5.44097237 163.333557,44.5883728 163.333557,129.159501 C163.333557,160.042837 163.333557,193.972202 163.333557,193.972202 L4.8672159,193.972202" id="path18" fill="#C4122E"></path>
                        <polyline id="path20" fill="#231F20" points="97.0941018 180.082465 97.0941018 159.367549 101.850664 159.367549 101.850664 130.997935 66.3158119 130.997935 66.3158119 159.367549 71.0387344 159.367549 71.0387344 180.082465 40.8771209 180.082465 40.8771209 159.367549 45.6427606 159.367549 45.6427606 81.9134047 40.8562429 81.9134047 40.8829412 61.1984883 71.0387344 61.1984883 71.0387344 81.9134047 66.3377045 81.9134047 66.3377045 110.283019 101.829306 110.283019 101.829306 81.9134047 97.0941018 81.9134047 97.0941018 61.1984883 127.320806 61.1984883 127.320806 81.9134047 122.567981 81.9134047 122.567981 159.367549 127.320806 159.367549 127.320806 180.082465 97.0941018 180.082465"></polyline>
                        <polyline id="path22" fill="#FFFFFF" points="99.9844556 177.18317 99.9844556 162.266845 104.741552 162.266845 104.741552 128.098639 63.4249242 128.098639 63.4249242 162.266845 68.1483806 162.266845 68.1483806 177.18317 43.7676349 177.18317 43.7676349 162.266845 48.5332746 162.266845 48.5332746 79.0141089 43.7507082 79.0141089 43.7697174 64.0972485 68.1483806 64.0972485 68.1483806 79.0141089 63.4468167 79.0141089 63.4468167 113.181779 104.719659 113.181779 104.719659 79.0141089 99.9844556 79.0141089 99.9844556 64.0972485 124.429918 64.0972485 124.429918 79.0141089 119.677093 79.0141089 119.677093 162.266845 124.429918 162.266845 124.429918 177.18317 99.9844556 177.18317"></polyline>
                    </g>
                </g>
            </g>
        </g>
    </g>
</svg>