<?xml version="1.0" encoding="UTF-8"?>
<svg width="200px" height="200px" viewBox="0 0 200 200" version="1.1" xmlns="http://www.w3.org/2000/svg" xmlns:xlink="http://www.w3.org/1999/xlink">
    <!-- Generator: Sketch 54.1 (76490) - https://sketchapp.com -->
    <title>houston-baptist</title>
    <desc>Created with Sketch.</desc>
    <g id="houston-baptist" stroke="none" stroke-width="1" fill="none" fill-rule="evenodd">
        <g id="houston-baptist_BGD" transform="translate(0.000000, 0.000000)">
            <g id="houston-baptist" transform="translate(6.000000, -1.000000)">
                <g id="g10" transform="translate(94.500000, 100.616302) scale(-1, 1) rotate(-180.000000) translate(-94.500000, -100.616302) translate(0.000000, 0.616302)" fill-rule="nonzero">
                    <g id="g12">
                        <path d="M188.759359,84.6735489 C188.763815,84.6719918 187.664017,91.1612676 187.664017,91.1612676 C185.056229,106.538542 178.708324,115.134041 174.962638,119.028407 L176.466839,121.129737 L174.187699,123.404787 C173.430585,124.159726 172.567858,124.764746 171.712484,125.25054 C171.806287,125.344407 171.876696,125.404687 171.914574,125.435605 L177.168027,130.943059 L170.827253,132.349507 C170.165057,132.515219 169.488378,132.607529 168.822171,132.649347 C169.115614,134.726431 169.233704,136.212954 169.240834,136.31861 L169.614489,141.154093 L164.821365,140.356224 C164.298871,140.269475 163.792643,140.122224 163.30981,139.94183 C163.248537,140.16849 163.197959,140.384695 163.174564,140.575988 L163.115964,141.073572 C162.720696,144.506833 161.66858,153.625274 153.926543,170.010617 C145.649312,187.52748 132.285737,197.42199 131.720909,197.83327 L129.510172,199.449027 L127.275148,197.868859 C116.938024,190.558359 110.498989,177.566684 107.111584,168.807029 L106.748846,169.31351 L103.633048,166.979515 C103.135955,166.607606 102.641313,166.085332 102.167615,165.492547 C100.875531,166.44612 99.7657057,166.974622 99.5319763,167.081612 L95.5463212,168.890219 L94.3712125,167.263563 L93.2212815,168.890219 L89.2347352,167.081612 C89.0012285,166.974622 87.8914036,166.44612 86.5993188,165.492547 C86.1256212,166.085332 85.6316477,166.607606 85.1338865,166.979515 L82.0180881,169.31351 L81.6560192,168.807029 C78.267945,177.566684 71.8286879,190.558359 61.4924547,197.868859 L59.2565396,199.449027 L57.0455795,197.83327 C56.4811975,197.42199 43.1171766,187.52748 34.8401689,170.010617 C27.0981319,153.625274 26.0469065,144.506833 25.651193,141.073572 L25.5923707,140.575988 C25.5685299,140.384695 25.5183972,140.16849 25.4569012,139.94183 C24.9742912,140.122224 24.4676174,140.269475 23.9455697,140.356224 L19.1523115,141.154093 L19.5259666,136.31861 C19.5337873,136.212954 19.6522563,134.726431 19.9446966,132.649347 C19.2796483,132.607529 18.6018998,132.515219 17.9395698,132.349507 L12.1057143,131.618367 L16.8523158,125.435605 C16.8911296,125.404687 16.9606691,125.344407 17.0544951,125.25054 C16.1987646,124.764746 15.3361492,124.159726 14.5798819,123.404787 L12.3009419,121.129737 L13.8042299,119.028407 C10.0587212,115.134041 3.71041582,106.538542 1.10378894,91.1612676 L0,84.6524177 L2.19295475,85.4736423 C0.0382086356,78.6778531 -1.51015731,68.0219525 2.83728375,55.0022508 L4.78356593,49.1711558 L7.54112766,51.9242156 C8.75745654,44.5716753 11.9165917,34.005193 20.1214531,28.0279592 L25.5462487,24.0757603 L26.1536333,30.7532148 C26.174132,30.9665285 26.2019834,31.2241066 26.2338455,31.4968101 C28.9496969,30.3935398 32.5728374,28.5629118 35.2726463,25.8679072 C36.9617816,24.1816386 38.3657179,22.0140461 39.8525401,19.7169973 C43.0632562,14.7587315 46.7031076,9.13941555 54.7258872,5.13421071 L64.936009,0.0376226294 L59.8311709,10.2310748 C59.3677227,11.2136082 55.5244442,20.398111 68.0669585,29.5022486 C68.7601256,29.8921746 70.1246242,30.5946197 71.6123377,31.1938556 C72.4777382,29.5376156 73.3455897,27.9823603 74.1760088,26.6003808 C75.5610061,24.2948573 77.5418018,21.622096 80.4617487,20.6089113 L79.4158707,17.4866563 L85.4992976,16.5156895 C85.6040191,16.5276787 85.7760297,16.5494994 85.9903745,16.5855559 L86.1815469,12.4207327 C86.1815469,12.4207327 88.8867033,12.7579642 90.916072,13.7715938 C92.9454406,14.7842669 93.7540242,15.8610676 94.3839128,16.3876123 C95.0126873,15.8610676 96.328613,14.2931782 98.0195307,13.2799712 C99.7106712,12.2663416 103.431849,11.7463143 103.431849,11.7463143 L102.777451,16.5855559 C102.990459,16.5494994 103.162915,16.5276787 103.267637,16.5156895 L109.520846,17.4866563 L108.3063,20.6089113 C111.225132,21.6225409 113.205928,24.2948573 114.590926,26.6003808 C115.418448,27.9759097 116.282066,29.5264939 117.145684,31.1753936 C118.898766,30.486517 120.258586,29.7509293 120.695297,29.5051403 C133.24405,20.4011584 129.399212,11.2136082 128.917493,10.1934613 L123.811095,0 C123.830925,0.0376226294 134.041938,5.13421071 134.041938,5.13421071 C142.063604,9.13941555 145.704569,14.7587315 148.915063,19.7169973 C150.401216,22.0140461 151.806044,24.1816386 153.494288,25.8679072 C156.19432,28.5629118 159.816123,30.3935398 162.533089,31.4968101 C162.564505,31.2236617 162.593471,30.9665285 162.613301,30.750768 L163.226033,24.0813211 C163.226033,24.0788743 168.646372,28.0279592 168.646372,28.0279592 C176.851412,34.0056378 180.010436,44.5721202 181.225651,51.9255502 L183.983391,49.1744923 C183.984282,49.1733801 185.930765,55.0022508 185.930765,55.0022508 C190.279825,68.030405 188.726828,78.691644 186.569566,85.4865434 L188.759359,84.6735489" id="path14" fill="#FFFFFF"></path>
                        <path d="M147.301683,68.5980553 C136.506904,78.1048643 124.652878,60.2370014 120.878671,52.0723563 C117.058788,43.8087283 113.556857,38.4067076 109.418798,35.8636251 C105.278958,33.3212099 101.777695,34.9098301 98.5943848,37.4526902 C95.4112973,39.9955503 96.046979,43.172346 96.046979,46.6692235 C96.046979,50.1654337 100.186151,52.3893241 102.096316,54.9326291 C104.006703,57.4748219 104.006703,57.7935691 101.777695,58.7455846 C99.550024,59.6991572 98.9130055,59.063887 99.2314034,61.2879998 C99.550024,63.5136697 102.096316,62.8777323 105.915976,61.2879998 C109.736528,59.6991572 109.100178,61.2879998 108.144761,65.1027349 C107.189122,68.915468 102.414045,68.9439395 99.8675307,68.6256371 C97.5306819,68.3349165 94.7003053,68.2873157 94.2482205,68.28131 C93.8340136,68.2873157 91.2362524,68.3349165 88.900072,68.6256371 C86.3531119,68.9439395 81.576921,68.915468 80.6221731,65.1027349 C79.6672023,61.2879998 79.0306293,59.6991572 82.8509581,61.2879998 C86.6706185,62.8777323 89.2175787,63.5136697 89.5361994,61.2879998 C89.8545972,59.063887 89.2175787,59.6991572 86.9887936,58.7455846 C84.7611225,57.7935691 84.7611225,57.4748219 86.6706185,54.9326291 C88.5816742,52.3893241 92.7199552,50.1654337 92.7199552,46.6692235 C92.7199552,43.172346 93.356751,39.9955503 90.1725495,37.4526902 C86.9887936,34.9098301 83.4877539,33.3212099 79.3488044,35.8636251 C75.2109689,38.4067076 71.7085924,43.8087283 67.8884864,52.0723563 C62.7163592,63.2580936 50.8857282,77.9215791 41.4654738,68.5980553 C41.4654738,68.5980553 47.8329855,69.8683732 50.3795001,66.0558625 C50.3795001,66.0558625 44.0367204,64.7530694 45.2858026,58.4283944 C45.2858026,58.4283944 48.7877335,67.0089902 58.3378871,60.3355395 C58.3378871,60.3355395 53.5630331,59.3826342 51.6526459,55.5672319 C51.6526459,55.5672319 57.3831391,58.7455846 61.2030223,56.8393293 C65.023574,54.9326291 66.9328471,52.0723563 69.1616322,46.033286 C71.3901945,39.9955503 74.5739504,33.3212099 77.4395312,28.5540145 C80.3037752,23.7868191 82.5325603,23.4694065 85.078852,24.422979 C85.078852,24.422979 86.3531119,21.8808529 85.078852,20.2919435 C85.078852,20.2919435 87.9444328,20.6084664 89.2175787,22.1977317 C89.2175787,22.1977317 91.4463638,19.9736634 90.8097908,18.3839532 C90.8097908,18.3839532 93.2604963,20.2877618 94.3839128,21.5794333 C95.5066607,20.2877618 97.9573663,18.3839532 97.9573663,18.3839532 C97.3203477,19.9736634 99.550024,22.1977317 99.550024,22.1977317 C100.822279,20.6084664 103.688082,20.2919435 103.688082,20.2919435 C102.414045,21.8808529 103.688082,24.422979 103.688082,24.422979 C106.233483,23.4694065 108.463159,23.7868191 111.328071,28.5540145 C114.193207,33.3212099 117.376517,39.9955503 119.605302,46.033286 C121.834087,52.0723563 123.74336,54.9326291 127.563912,56.8393293 C131.384464,58.7455846 137.114288,55.5672319 137.114288,55.5672319 C135.204124,59.3826342 130.428824,60.3355395 130.428824,60.3355395 C139.978978,67.0089902 143.481132,58.4283944 143.481132,58.4283944 C145.382384,64.7530694 138.388325,66.0558625 138.388325,66.0558625 C140.934617,69.8683732 147.301683,68.5980553 147.301683,68.5980553" id="path16" fill="#1C4E9D"></path>
                        <path d="M89.1859394,22.7665165 L89.4867352,22.4664537 C89.5671702,22.3861552 91.1250693,20.8120376 91.2888359,19.2550029 C92.093186,19.9127611 93.3817059,21.0066669 94.0964857,21.8285588 L94.3839128,22.1588948 L94.6713398,21.8282919 C95.385674,21.0064222 96.6737482,19.9127611 97.4778755,19.2551808 C97.6420877,20.8120376 99.2006553,22.3861552 99.2810904,22.4664537 L99.5818861,22.7665165 L99.8472548,22.4348681 C100.615509,21.4753566 102.063785,21.0128506 102.958151,20.809791 C102.312443,22.4882522 103.299053,24.4954923 103.347849,24.5931406 L103.501143,24.8987643 L103.821769,24.7784278 C105.801897,24.0372793 107.986565,23.7325453 111.001875,28.7495336 C113.908231,33.5854609 117.068146,40.2584668 119.248135,46.1647442 C121.598575,52.533461 123.654236,55.312768 127.393684,57.1792077 C129.066777,58.0137783 131.248326,58.0489228 133.878172,57.2826393 C134.746246,57.0301772 135.513609,56.731449 136.100495,56.4760953 C134.033249,59.1991266 130.39518,59.9547333 130.354182,59.9629633 L129.481429,60.1371288 L130.210469,60.646724 C133.505408,62.9491334 136.474819,63.7349911 139.034479,62.9813863 C141.315848,62.3100819 142.681906,60.5902259 143.34388,59.5063073 C143.553323,60.7799617 143.367052,61.9025837 142.786628,62.853487 C141.426808,65.0804915 138.349333,65.6766134 138.318363,65.6823966 L137.751975,65.7880526 L138.07171,66.2665071 C140.007275,69.1650384 143.918734,69.3036145 146.002691,69.1450194 C143.774797,70.7280788 141.382469,71.262809 138.873609,70.7349742 C131.032421,69.0847399 123.899997,57.7014816 121.224029,51.9130939 C117.042077,42.866055 113.571339,37.9694033 109.618438,35.5402068 C104.988857,32.6970614 101.168082,34.9100526 98.3566448,37.1559639 C95.4872761,39.4483638 95.5614724,42.2323419 95.6401249,45.180031 C95.6532708,45.6656034 95.6664167,46.1674134 95.6664167,46.6692235 C95.6664167,49.217422 97.6354034,51.0522762 99.5395519,52.8266284 C100.395371,53.6242751 101.203732,54.3776574 101.791955,55.160401 C102.568676,56.194272 103.203244,57.0811145 103.099637,57.4672591 C103.023881,57.7499721 102.48022,58.0322403 101.627966,58.3961415 C101.064029,58.6377044 100.6037,58.7740561 100.233387,58.8841607 C98.9789577,59.2560696 98.5950532,59.5287731 98.8548516,61.3418288 C98.9551169,62.0436065 99.2621514,62.5447493 99.7670426,62.8312437 C100.971117,63.514337 103.154671,62.8488159 106.062586,61.6385551 C107.765313,60.9305492 108.24213,61.0166309 108.374703,61.1309618 C108.692432,61.4049999 108.333483,62.8156733 107.953143,64.3093145 C107.895881,64.5339723 107.83639,64.76775 107.775562,65.0106474 C106.84978,68.7048234 101.969759,68.505523 99.9147667,68.2486123 C97.5888358,67.9592262 94.7907669,67.9087338 94.2533451,67.9013935 C93.7504592,67.9087338 91.1778757,67.9592262 88.852836,68.2486123 C86.7973984,68.5046332 81.9162632,68.7043786 80.991372,65.0106474 C80.9305444,64.7673051 80.8708309,64.5328602 80.8135683,64.3077574 C80.4336744,62.8147836 80.0747248,61.4049999 80.3924542,61.1307393 C80.52525,61.0168534 81.0016213,60.9305492 82.7047937,61.6385551 C85.6124859,62.8488159 87.7960402,63.5145595 89.0005601,62.8310212 C89.5054513,62.5445268 89.812263,62.0436065 89.9129739,61.3416063 C90.1725495,59.5287731 89.788645,59.2558471 88.5335469,58.8839383 C88.1634567,58.7740561 87.702905,58.6377044 87.1387458,58.396364 C86.286714,58.0322403 85.7434992,57.7499721 85.6677432,57.4674816 C85.5643586,57.0811145 86.1987034,56.194272 86.9749793,55.160401 C87.5632021,54.3781023 88.3711172,53.6249424 89.2267139,52.8275182 C91.1310853,51.0529435 93.1005176,49.2178669 93.1005176,46.6692235 C93.1005176,46.1669686 93.1138863,45.6647137 93.1268093,45.1786964 C93.2056847,42.2316746 93.2803266,39.4481414 90.4102895,37.1559639 C87.5984063,34.910275 83.7778547,32.6966165 79.1493879,35.5402068 C75.1964862,37.9694033 71.7255261,42.866055 67.5429055,51.9130939 C65.5179931,56.2921428 62.6929639,60.7125643 59.7921789,64.0403923 C56.3049535,68.0415266 52.762248,70.4622707 49.5470757,71.0419325 C47.0576009,71.4910258 44.7350121,70.8490826 42.628105,69.1341201 C44.6746302,69.3093978 48.7171022,69.2295441 50.6961154,66.2665071 L51.0096115,65.7973948 L50.4563701,65.6837312 C50.2297706,65.6365753 45.2608477,64.5419799 45.5132933,59.6508891 C46.2053463,60.7376993 47.5500147,62.3394431 49.7322322,62.9813863 C52.292561,63.735436 55.2610808,62.9491334 58.5560198,60.646724 L59.2834998,60.1382409 L58.4127519,59.9629633 C58.3717545,59.9547333 54.7325716,59.1928984 52.6671074,56.4765402 C53.2542162,56.7316714 54.0211339,57.0301772 54.8887626,57.2826393 C57.5183858,58.0489228 59.7001577,58.0140007 61.3732505,57.1792077 C65.1126986,55.312768 67.1683591,52.533461 69.5187993,46.1647442 C71.698343,40.2593565 74.8582581,33.5861282 77.7657275,28.7495336 C80.7799237,23.7329902 82.9650377,24.0372793 84.9453878,24.7784278 L85.2660138,24.8987643 L85.4193082,24.5931406 C85.468104,24.4954923 86.4544912,22.4882522 85.808783,20.809791 C86.703149,21.0128506 88.1514249,21.4753566 88.9203479,22.4348681 L89.1859394,22.7665165 Z M98.8321249,17.2230504 L97.7236368,18.0842907 C97.6302787,18.1568263 95.5906607,19.7454021 94.3836899,21.0152751 C93.1767192,19.7454021 91.1366555,18.1568263 91.0432975,18.0842907 L89.9350322,17.2233173 L90.4564115,18.524976 C90.840316,19.4838647 89.8617272,20.9000545 89.2202524,21.6360871 C87.7782153,20.2234562 85.2359342,19.9269078 85.1207406,19.9143181 L84.2078812,19.8132666 L84.781844,20.5293023 C85.6505867,21.6127983 85.1387883,23.2692163 84.8707459,23.9476385 C81.3360616,22.7974348 79.2030856,24.8803023 77.1131121,28.3584954 C74.1831387,33.2331262 70.9993828,39.9552899 68.8046879,45.9018278 C66.5037119,52.1366396 64.6151602,54.7117526 61.0327942,56.4996733 C57.4390649,58.2929324 51.8930597,55.2658345 51.8373568,55.2351387 L50.7634046,54.6403514 L51.3121897,55.7371711 C52.8103753,58.7289021 55.9299615,60.0212409 57.429484,60.4867943 C54.6176008,62.289618 52.1062905,62.8841828 49.954821,62.254696 C46.9379511,61.3714124 45.6507681,58.3153982 45.6380678,58.2844799 L45.1574631,57.1158142 L44.9123702,58.3549913 C43.8339618,63.8161793 48.1607415,65.7524632 49.7438184,66.2698436 C47.1837123,69.308508 41.5984923,68.2372681 41.5398929,68.2257016 L40.2981634,67.9779107 L41.1974313,68.8678672 C43.7218875,71.366463 46.5767734,72.3485071 49.6823224,71.7895316 C53.0697281,71.1789516 56.7641683,68.6719033 60.3663645,64.5390883 C63.3123804,61.1592108 66.1799665,56.6733939 68.2340673,52.2313963 C72.3489531,43.3304962 75.7327939,38.5321601 79.5484436,36.1872659 C83.7471067,33.6079267 87.1552339,35.5293075 89.9348094,37.7494166 C92.5093982,39.8053697 92.4430003,42.2859484 92.3661303,45.1586774 C92.3529844,45.6493658 92.3393929,46.1569591 92.3393929,46.6692235 C92.3393929,48.8875531 90.4929526,50.6082988 88.70734,52.2723241 C87.8265654,53.0928814 86.9945867,53.8682846 86.3662578,54.7046347 C85.2506398,56.1896009 84.7455257,56.965894 84.9326875,57.6638904 C85.1058122,58.3100598 85.8321782,58.6643964 86.8390641,59.0948053 C87.443775,59.3534954 87.9277219,59.4967426 88.3169739,59.6121856 C89.3091543,59.9064652 89.3479235,59.9180317 89.1594248,61.2341709 C89.093027,61.6977224 88.9181198,62.0040134 88.624454,62.1706161 C87.6311596,62.7344851 85.2225655,61.8636578 82.9973454,60.9374446 C81.2767937,60.2218759 80.406937,60.1144406 79.8951386,60.5557487 C79.2213561,61.1369675 79.5430962,62.4008348 80.0760617,64.494824 C80.1331014,64.719037 80.1923693,64.9523698 80.2531969,65.1948223 C81.3258123,69.4784472 86.6904488,69.2849301 88.9473081,69.0024395 C91.2326874,68.7181694 93.7685069,68.6681219 94.2537907,68.6612265 C94.7733876,68.6681219 97.5344697,68.7183919 99.8205174,69.0024395 C102.075817,69.2853749 107.440231,69.4784472 108.51396,65.1948223 C108.574565,64.9530371 108.633833,64.7201492 108.69065,64.4963811 C109.224061,62.4015021 109.546024,61.1369675 108.872241,60.5559711 C108.360443,60.1144406 107.490809,60.2214311 105.769589,60.9374446 C103.544369,61.8634354 101.135329,62.7340402 100.143149,62.1706161 C99.8494829,62.0040134 99.6745758,61.6977224 99.6081779,61.2343934 C99.4196792,59.9180317 99.4584484,59.9064652 100.450183,59.6121856 C100.839212,59.4967426 101.323159,59.3534954 101.927647,59.0945828 C102.934756,58.6643964 103.661568,58.3100598 103.834915,57.6636679 C104.021854,56.9656715 103.51674,56.1896009 102.400676,54.7046347 C101.772348,53.8680622 100.939923,53.0924365 100.058926,52.2712119 C98.2737588,50.6076315 96.4275414,48.8871082 96.4275414,46.6692235 C96.4275414,46.1574039 96.4141727,45.6502555 96.400804,45.1597896 C96.3243796,42.2868381 96.2579817,39.8055921 98.8321249,37.7491941 C101.611478,35.5293075 105.019605,33.6072594 109.219605,36.1874883 C113.035032,38.5321601 116.41865,43.3304962 120.53309,52.2313963 C123.264315,58.1396757 130.579668,69.7658314 138.71675,71.4785695 C141.871986,72.142756 144.844071,71.2688147 147.553238,68.8829927 L148.611593,67.9507738 L147.227264,68.2257016 C147.168442,68.2370457 141.601492,69.2991658 139.038267,66.2865261 C140.083254,65.9871306 142.270596,65.1585657 143.436569,63.2489738 C144.277238,61.8718879 144.414935,60.213201 143.845652,58.3191795 L143.535721,57.2879777 L143.128644,58.2849248 C143.116166,58.3153982 141.828983,61.3714124 138.812113,62.254696 C136.660867,62.8846277 134.149111,62.289618 131.337227,60.4870167 C132.836973,60.0212409 135.956782,58.7289021 137.454522,55.7371711 L138.003753,54.640129 L136.929577,55.2351387 C136.874097,55.2660569 131.328092,58.2922651 127.733917,56.4996733 C124.151774,54.7117526 122.263222,52.1366396 119.962246,45.9018278 C117.766883,39.9546226 114.583573,33.2322365 111.654491,28.3584954 C108.798491,23.6062031 106.464761,23.0914919 103.896411,23.9460815 C103.62926,23.2663246 103.120135,21.6081049 103.98509,20.5293023 L104.559276,19.8132666 L103.646417,19.9143181 C103.531223,19.9269078 100.988719,20.2234562 99.5471275,21.6360871 C98.9054299,20.9000545 97.9263954,19.4838647 98.3107456,18.524976 L98.8321249,17.2230504 L98.8321249,17.2230504 Z" id="path18" fill="#F3652C"></path>
                        <path d="M130.111095,110.231161 C130.111095,110.231161 126.211222,116.189711 122.390893,114.600646 C118.571233,113.012248 116.471456,110.596175 114.034342,106.496725 C111.009674,101.411227 107.189122,97.9953153 104.723042,98.6312528 C101.880634,99.3639488 103.688082,104.510616 103.688082,104.510616 C103.688082,104.510616 101.140899,102.605028 99.2314034,102.605028 C99.2314034,102.605028 100.773483,98.18038 103.290141,97.6776802 C108.06544,96.7245526 110.691944,99.8232741 110.691944,99.8232741 C112.077164,97.8649693 114.034342,97.0626515 117.616485,96.8248701 C122.150925,96.5223605 125.824198,99.3893062 125.824198,105.356308 C125.824198,106.92402 125.351392,108.382739 124.540135,109.595891 C124.540135,109.595891 124.301058,111.740818 126.688708,110.786578 C129.076358,109.833673 128.360686,110.549019 129.315434,109.595891 C130.26996,108.642541 130.667901,109.198847 130.111095,110.231161" id="path20" fill="#1C4E9D"></path>
                        <path d="M110.719796,100.440972 L111.002766,100.042371 C112.299976,98.2084066 114.099403,97.4392315 117.641663,97.2038968 C119.825886,97.0590926 121.712655,97.6636669 123.09587,98.9553384 C124.63171,100.389812 125.443636,102.603026 125.443636,105.356308 C125.443636,106.798345 125.021631,108.191446 124.223519,109.385024 L124.172273,109.461986 L124.162023,109.553851 C124.157122,109.597003 124.051954,110.617083 124.734204,111.135354 C125.216145,111.501034 125.921122,111.502591 126.830193,111.139357 C127.825716,110.741869 128.253068,110.645777 128.508411,110.58839 C128.961164,110.486737 129.020209,110.427793 129.584591,109.864368 C129.751922,109.697321 129.88249,109.599895 129.973397,109.545621 C129.952453,109.654391 129.900315,109.81788 129.784007,110.036087 C129.582363,110.33704 125.938055,115.665657 122.537281,114.25009 C118.683307,112.647457 116.690703,110.220707 114.361652,106.302985 C111.107711,100.831788 107.195584,97.6020528 104.627902,98.2635702 C103.9637,98.4346215 103.464825,98.8241027 103.145759,99.4208918 C102.492698,100.642052 102.766533,102.480243 103.038141,103.617768 C102.218417,103.111954 100.949727,102.438647 99.7723901,102.266484 C100.234724,101.156763 101.548645,98.4130455 103.364783,98.0502564 C107.850204,97.1549615 110.300018,99.9498387 110.401843,100.069286 L110.719796,100.440972 Z M118.247042,96.4238224 C118.030469,96.4238224 117.811891,96.4309403 117.591085,96.4458434 C114.066427,96.6798434 112.069589,97.4734863 110.654289,99.2409431 C109.787329,98.4279485 107.238363,96.5030088 103.215499,97.3051041 C100.516581,97.844283 98.9379604,102.291174 98.8720081,102.480243 L98.6962097,102.984944 L99.2314034,102.984944 C100.990501,102.984944 103.435637,104.79622 103.460146,104.814682 L104.459011,105.560947 L104.047478,104.384941 C104.036783,104.354467 102.990459,101.322698 103.817313,99.7781201 C104.035223,99.3712891 104.362756,99.1166027 104.818183,98.9989354 C107.020899,98.4335094 110.675679,101.593623 113.707032,106.690687 C116.063042,110.653785 118.215626,113.275831 122.244729,114.951423 C123.950575,115.661209 125.919339,115.088665 127.936676,113.295628 C129.410129,111.986162 130.388718,110.50164 130.429716,110.438914 L130.446204,110.411332 C130.830999,109.697988 130.845037,109.112321 130.483859,108.844066 C130.234533,108.658779 129.782002,108.592493 129.046278,109.327191 C128.578819,109.793857 128.578819,109.793857 128.341302,109.847241 C128.063901,109.909745 127.599562,110.014066 126.547445,110.433798 C125.914214,110.686928 125.447647,110.72096 125.196984,110.532114 C124.951445,110.347494 124.908665,109.939773 124.913567,109.720454 C125.758692,108.420997 126.204761,106.914455 126.204761,105.356308 C126.204761,102.387488 125.309281,99.9820916 123.615689,98.4005892 C122.23849,97.114701 120.35083,96.4238224 118.247042,96.4238224 L118.247042,96.4238224 Z" id="path22" fill="#F3652C"></path>
                        <path d="M59.3768579,109.621026 C60.3313831,110.574599 59.615712,109.860142 62.003139,110.813047 C64.3901204,111.766398 64.1510435,109.621026 64.1510435,109.621026 C63.3397862,108.408541 62.866757,106.950489 62.866757,105.381888 C62.866757,99.4148861 66.5409214,96.5486077 71.0755844,96.8506724 C74.6575048,97.0884538 76.6146824,97.8907716 78.0001254,99.8488539 C78.0001254,99.8488539 80.625738,96.7503549 85.4017061,97.7034825 C87.9185867,98.2057374 89.4604434,102.630163 89.4604434,102.630163 C87.5509474,102.630163 85.0046557,104.536863 85.0046557,104.536863 C85.0046557,104.536863 86.8109899,99.3893062 83.9690271,98.6570551 C81.5020563,98.0217849 77.6823959,101.437919 74.6575048,106.522305 C72.2197223,110.622199 70.1215049,113.037605 66.3005076,114.62667 C62.4808472,116.21618 58.5800834,110.256741 58.5800834,110.256741 C58.0232771,109.224205 58.4218871,108.668121 59.3768579,109.621026" id="path24" fill="#1C4E9D"></path>
                        <path d="M63.0650594,111.436751 C63.4171019,111.436751 63.7150011,111.344886 63.9567517,111.161378 C64.6392238,110.642663 64.5340567,109.622361 64.5291549,109.578986 L64.5189055,109.487121 L64.4674361,109.409937 C63.6691019,108.217026 63.2473194,106.823925 63.2473194,105.381888 C63.2473194,102.629495 64.0590223,100.416282 65.5948631,98.9820305 C66.9780779,97.6901365 68.8644015,97.0851173 71.0501839,97.2296991 C74.5924438,97.4650338 76.3918708,98.2342089 77.6893031,100.067951 L77.9729423,100.468999 L78.290449,100.094198 C78.3920511,99.9754186 80.8411969,97.1803189 85.3270642,98.0760587 C87.1434249,98.4386253 88.4571225,101.18212 88.9194567,102.291841 C87.7423426,102.464005 86.4740986,103.137534 85.6543745,103.643792 C85.9259819,102.505822 86.1993719,100.667187 85.5458652,99.4462492 C85.2267989,98.8494601 84.7281464,98.4602014 84.0641677,98.2893724 C81.4971545,97.6258532 77.5845816,100.85848 74.3304172,106.328343 C72.0006985,110.246287 70.0076481,112.673259 66.1541204,114.275893 C62.752009,115.69146 59.1094839,110.363287 58.9069481,110.061667 C58.7906404,109.843015 58.7385025,109.679081 58.717781,109.570534 C58.8086882,109.624585 58.9397014,109.722011 59.1077014,109.889726 L59.3768579,109.621026 L59.1077014,109.889503 L59.3768579,109.621026 L59.1088155,109.890616 C59.6723062,110.453595 59.7313513,110.51254 60.1843274,110.614637 C60.4396696,110.672469 60.8672452,110.768783 61.8618764,111.165827 C62.3141841,111.346443 62.7161364,111.436751 63.0650594,111.436751 L63.0650594,111.436751 Z M70.4456959,96.4496247 C68.340794,96.4496247 66.452688,97.1407257 65.0748207,98.4272812 C63.3812292,100.008784 62.4861947,102.413735 62.4861947,105.381888 C62.4861947,106.940035 62.9324865,108.446577 63.7776111,109.745811 C63.7827358,109.964019 63.739956,110.372851 63.4941947,110.557916 C63.2435316,110.746985 62.7767411,110.71273 62.1444016,110.46049 C61.0938446,110.040981 60.6295051,109.936214 60.3521046,109.873711 C60.1139189,109.819882 60.1139189,109.819882 59.6469057,109.353661 L59.6457916,109.352326 C58.9089534,108.617406 58.4566458,108.684359 58.2075423,108.869646 C57.8463646,109.137678 57.8604017,109.723568 58.2449747,110.436912 L58.2614627,110.464494 C58.3024601,110.526998 59.2812717,112.011742 60.7547253,113.32143 C62.7725077,115.114467 64.7403803,115.687011 66.4468949,114.977225 C70.4755526,113.301856 72.6281361,110.679587 74.9848151,106.716267 C78.0161678,101.620759 81.6700563,98.4595341 83.8738865,99.0249601 C84.3293135,99.1421826 84.6566239,99.396869 84.8743109,99.8034775 C85.7016106,101.348278 84.6561783,104.381159 84.6454833,104.41141 L84.2337273,105.587861 L85.2328148,104.84093 C85.2573241,104.822468 87.7015681,103.010079 89.4604434,103.010079 L89.995637,103.010079 L89.8198386,102.505378 C89.7538864,102.316309 88.1754885,97.8696404 85.4761252,97.3309064 C81.4512553,96.5276989 78.9045179,98.453306 78.0377805,99.2665229 C76.622258,97.4992886 74.6251971,96.7056457 71.1007621,96.4716457 C70.8804014,96.456965 70.6618232,96.4496247 70.4456959,96.4496247 L70.4456959,96.4496247 Z" id="path26" fill="#F3652C"></path>
                        <path d="M179.773141,91.4806821 C181.365576,91.4806821 183.912091,90.5268872 183.912091,90.5268872 C180.41016,111.184734 169.904367,118.4939 169.904367,118.4939 L171.496802,120.718902 C169.585746,122.625158 166.403105,123.26154 166.403105,123.26154 C167.676473,127.392798 169.904367,128.664228 169.904367,128.664228 C167.357853,129.299943 164.17432,128.34637 164.17432,128.34637 C165.129959,132.477628 165.447688,136.609109 165.447688,136.609109 C163.537524,136.291473 161.626914,134.385441 161.626914,134.385441 C161.626914,134.385441 159.717641,137.563348 159.39902,140.105541 C159.080845,142.647512 158.443603,151.545742 150.485216,168.390189 C142.526384,185.234635 129.473185,194.768136 129.473185,194.768136 C114.193207,183.96276 107.825472,158.85602 107.825472,158.85602 C107.508634,161.715848 105.915976,163.940851 105.915976,163.940851 C104.642607,162.987723 102.732443,159.173878 102.732443,159.173878 C101.459297,162.033928 97.9573663,163.623661 97.9573663,163.623661 L98.5943848,159.809593 C97.7739923,160.900184 95.0657165,161.288776 94.311499,161.377082 L94.311499,161.39888 C94.311499,161.39888 94.2725069,161.393987 94.2150215,161.387314 C94.1524114,161.393987 94.1094088,161.39888 94.1094088,161.39888 L94.1094088,161.37419 C93.402873,161.280323 90.9853664,160.891065 90.1725495,159.809593 L90.8097908,163.623661 C90.8097908,163.623661 87.3083055,162.033928 86.0344912,159.173878 C86.0344912,159.173878 84.1238812,162.987723 82.8509581,163.940851 C82.8509581,163.940851 81.2589688,161.715848 80.9407937,158.85602 C80.9407937,158.85602 74.5739504,183.96276 59.2935264,194.768136 C59.2935264,194.768136 46.2405506,185.234635 38.2819407,168.390189 C30.3239992,151.545742 29.6863123,142.647512 29.36836,140.105541 C29.0497393,137.563348 27.1397977,134.385441 27.1397977,134.385441 C27.1397977,134.385441 25.2296333,136.291473 23.3190233,136.609109 C23.3190233,136.609109 23.637644,132.477628 24.5926148,128.34637 C24.5926148,128.34637 21.4091485,129.299943 18.8627454,128.664228 C18.8627454,128.664228 21.0905947,127.392798 22.3644981,123.26154 C22.3644981,123.26154 19.1812993,122.625158 17.2710457,120.718902 L18.8627454,118.4939 C18.8627454,118.4939 8.35684117,111.184734 4.85468741,90.5268872 C4.85468741,90.5268872 7.40135791,91.4806821 8.99383744,91.4806821 C8.99383744,91.4806821 -0.556681578,77.1784287 6.44752345,56.204504 C6.44752345,56.204504 8.35684117,58.1105369 10.5856485,60.0172371 C10.5856485,60.0172371 10.5856485,39.677248 22.3644981,31.0966522 C22.3644981,31.0966522 22.682896,34.5924175 23.3190233,36.5004523 C23.3190233,36.5004523 32.232604,34.2747824 37.96332,28.5540145 C43.6942589,22.8332466 45.6042005,13.9350157 56.4279455,8.53214977 C56.4279455,8.53214977 50.0606566,21.2444039 65.978322,32.6857173 C65.978322,32.6857173 56.1093249,33.9569249 47.8329855,22.1977317 C47.8329855,22.1977317 43.0570175,39.677248 51.6526459,51.7544988 C51.6526459,51.7544988 42.7390652,48.8940036 38.601007,33.0033524 C38.601007,33.0033524 30.9601265,36.8174201 31.277856,47.9404311 C31.55236,57.5235348 35.8356914,60.2605794 37.0183757,60.8364598 C38.4849221,61.4964201 25.9252513,62.5716637 21.7282371,44.7627457 C21.7282371,44.7627457 14.4061779,72.0933758 37.6455906,79.402764 C37.6455906,79.402764 21.5779284,84.353467 13.4505164,69.2337704 C13.4505164,69.2337704 12.1773482,92.7518898 39.8734844,90.5268872 C39.8734844,90.5268872 29.2531664,99.569255 13.4505164,96.2476551 C13.4505164,96.2476551 15.6790564,100.378691 28.730673,100.061723 C41.7836488,99.7434204 51.3342481,106.417094 58.9749057,115.951929 C66.6151177,125.485653 67.8884864,127.392798 69.4802529,130.570706 C71.0720194,133.749503 73.3003589,135.655758 78.0756585,133.431201 C82.8509581,131.20731 84.7611225,127.710655 84.7611225,122.307967 C84.7611225,116.905057 86.9887936,109.912859 91.1281887,108.324461 C91.1281887,108.324461 88.5816742,114.044562 88.900072,125.485653 C89.2149049,136.809744 91.0909792,142.524506 94.2150215,145.413695 C97.6768464,142.524506 99.5526978,136.809744 99.8675307,125.485653 C100.186151,114.044562 97.6387456,108.324461 97.6387456,108.324461 C101.777695,109.912859 104.006703,116.905057 104.006703,122.307967 C104.006703,127.710655 105.915976,131.20731 110.691944,133.431201 C115.467244,135.655758 117.695138,133.749503 119.286681,130.570706 C120.878671,127.392798 122.152485,125.485653 129.792474,115.951929 C137.432909,106.417094 146.983954,99.7434204 160.03537,100.061723 C173.087677,100.378691 175.316462,96.2476551 175.316462,96.2476551 C158.579964,99.7649965 148.893227,90.5268872 148.893227,90.5268872 C176.5905,92.7518898 175.316462,69.2337704 175.316462,69.2337704 C166.984197,84.7371649 151.121121,79.402764 151.121121,79.402764 C174.361714,72.0933758 167.039232,44.7627457 167.039232,44.7627457 C163.283741,60.7016651 149.503285,61.8474202 151.749004,60.8364598 C152.931243,60.2605794 157.214797,57.5235348 157.488855,47.9404311 C157.807476,36.8174201 150.166596,33.0033524 150.166596,33.0033524 C146.028537,48.8940036 137.114288,51.7544988 137.114288,51.7544988 C145.709917,39.677248 140.934617,22.1977317 140.934617,22.1977317 C132.656718,33.9569249 122.788835,32.6857173 122.788835,32.6857173 C138.705832,21.2444039 132.33988,8.53214977 132.33988,8.53214977 C143.162511,13.9350157 145.073567,22.8332466 150.804506,28.5540145 C156.53433,34.2747824 165.447688,36.5004523 165.447688,36.5004523 C166.084484,34.5924175 166.403105,31.0966522 166.403105,31.0966522 C178.182266,39.677248 178.182266,60.0172371 178.182266,60.0172371 C180.41016,58.1105369 182.319656,56.204504 182.319656,56.204504 C189.323295,77.1784287 179.773141,91.4806821 179.773141,91.4806821" id="path28" fill="#1C4E9D"></path>
                        <path d="M179.773141,93.6289085 L179.170275,93.6289085 L177.207076,97.2676829 C176.732446,98.1474067 175.638877,99.1856316 173.737001,100.099611 C170.678751,101.569306 166.190488,102.360056 159.982994,102.209311 C148.738385,101.935073 139.646078,107.090575 131.468841,117.29531 C124.3078,126.231367 122.811834,128.330098 121.207595,131.532458 C118.829051,136.283135 115.178344,137.891063 109.78513,135.378651 C105.145374,133.218187 102.668057,129.86645 102.027676,125.023051 C102.024046,125.19632 102.019799,125.370421 102.014927,125.545355 C101.694834,137.058667 99.7852757,143.562928 95.591501,147.062992 L94.1422706,148.272499 L92.7564353,146.990845 C88.912528,143.435908 87.067114,136.85526 86.7526771,125.545413 C86.7478181,125.370812 86.7435808,125.19704 86.7399586,125.024097 C86.0992245,129.866576 83.6216534,133.218153 78.9828009,135.378499 C73.589285,137.89105 69.9382126,136.283127 67.5595013,131.532781 C65.9548902,128.32923 64.4585875,126.229868 57.2985202,117.295286 C49.1207918,107.090236 40.0288838,101.935076 28.7828288,102.209316 C22.5758503,102.360057 18.0878131,101.569299 15.0297332,100.099586 C13.1279486,99.1855882 12.0344446,98.147339 11.559856,97.2675961 L9.59691936,93.6289085 L8.99383744,93.6289085 C8.56751963,93.6289085 8.11186243,93.5851462 7.62371311,93.5047665 C8.89268724,99.2281646 10.792764,104.112922 13.1599076,108.223146 C14.7262474,110.942883 16.3941586,113.144704 18.0492365,114.87029 C18.6169414,115.46218 19.1382172,115.950026 19.5986147,116.338778 C19.8569622,116.556922 20.0254834,116.685857 20.0896016,116.730465 L21.8763241,117.973524 L20.2605745,120.232145 C20.8059969,120.516651 21.3986131,120.753003 21.9927567,120.939532 C22.371279,121.058367 22.653521,121.128586 22.7856361,121.154998 L25.1183036,121.621343 L24.4173437,123.89455 C24.1324388,124.818494 23.7913392,125.663388 23.4019511,126.431599 C23.6656509,126.373847 23.8635215,126.322232 23.9761967,126.288482 L27.5184524,125.227438 L26.6856494,128.830191 C26.4139554,130.005639 26.180718,131.244356 25.9837208,132.50425 L27.5664013,130.924993 L28.9810689,133.278826 C29.306319,133.820002 29.7715373,134.683182 30.237899,135.727152 C30.616354,136.574338 30.9305611,137.407103 31.1591319,138.212161 C31.3188512,138.774715 31.4345165,139.31663 31.4999762,139.838916 C31.520143,140.000147 31.6164176,140.835464 31.6486525,141.099553 C31.7224921,141.704495 31.8010321,142.276519 31.8982929,142.894868 C32.1599268,144.55824 32.5254393,146.343555 33.0408319,148.349967 C34.4383361,153.790421 36.7438397,160.105485 40.2242805,167.472478 C42.2377054,171.733904 44.6982582,175.752092 47.5082078,179.512555 C50.3819012,183.358324 53.4619931,186.731358 56.538341,189.601598 C57.5461144,190.541853 58.4839189,191.362159 59.3298441,192.05956 C63.5632483,188.719714 67.3458126,183.974938 70.6646141,178.170876 C73.1462904,173.830815 75.2202528,169.165197 76.898833,164.498105 C77.4864222,162.864382 77.9820058,161.348954 78.3877929,159.992035 C78.5289509,159.520014 78.6485677,159.102518 78.7469365,158.74456 C78.8046494,158.534546 78.8417303,158.394012 78.8584794,158.327964 L81.7673365,146.857301 L83.0758468,158.618481 C83.1173175,158.991229 83.1884214,159.366027 83.2854833,159.739464 C83.4385018,159.473414 83.58951,159.202013 83.7363709,158.930397 C83.914284,158.601349 84.0452781,158.348461 84.1138026,158.211677 L86.148589,154.149958 L87.5894748,157.385128 L86.6038324,151.485782 L91.8898239,158.518917 C92.0285699,158.703522 93.1704608,159.061447 94.2324342,159.22195 C95.4174012,159.062911 96.7536559,158.683031 96.8776558,158.518191 L102.161123,151.494597 L101.177328,157.384943 L102.618055,154.148431 L104.653222,158.211856 C104.721722,158.348625 104.852681,158.601497 105.030556,158.930527 C105.17737,159.202102 105.328334,159.473461 105.481311,159.73947 C105.578159,159.366356 105.64905,158.991885 105.69031,158.619467 L106.994979,146.843331 L109.907769,158.327895 C109.924521,158.393944 109.961607,158.534479 110.019327,158.744494 C110.117709,159.102454 110.23734,159.519952 110.378513,159.991974 C110.784346,161.348896 111.279977,162.864328 111.867614,164.498054 C113.546331,169.165156 115.620404,173.830784 118.102149,178.170856 C121.421036,183.974921 125.203601,188.719703 129.436897,192.059555 C130.282851,191.362143 131.220688,190.541823 132.228497,189.601551 C135.304928,186.731283 138.385103,183.358216 141.258874,179.51241 C144.068847,175.751982 146.529428,171.733836 148.542867,167.472499 C152.023495,160.105521 154.329023,153.790522 155.726517,148.349979 C156.241885,146.343617 156.607374,144.558346 156.86902,142.894873 C156.966273,142.276563 157.044809,141.704594 157.118677,141.099513 C157.150804,140.836352 157.24715,140.000728 157.26747,139.838388 C157.332857,139.31668 157.448492,138.774809 157.60816,138.212295 C157.836651,137.40732 158.150733,136.574632 158.529029,135.727518 C158.995247,134.68352 159.460323,133.820306 159.785472,133.27911 L161.199831,130.924967 L162.783559,132.504901 C162.586584,131.244883 162.353264,130.006048 162.081506,128.831146 L161.247861,125.227274 L164.790726,126.288478 C164.903469,126.322248 165.101506,126.373903 165.365438,126.431695 C164.976066,125.663392 164.635011,124.818385 164.350184,123.894307 L163.6496,121.621364 L165.981896,121.155012 C166.114061,121.128585 166.396404,121.058328 166.775061,120.939425 C167.369008,120.752918 167.961429,120.516625 168.506744,120.232207 L166.890404,117.973804 L168.677502,116.730471 C168.741617,116.685865 168.910131,116.556934 169.168469,116.338796 C169.62885,115.950053 170.150108,115.46222 170.717794,114.870345 C172.372816,113.1448 174.040672,110.943032 175.60696,108.223362 C177.974105,104.113101 179.874166,99.22828 181.143098,93.5047665 C180.655015,93.585154 180.199414,93.6289085 179.773141,93.6289085 Z M94.0616845,159.24343 L93.8667244,159.266257 L94.1094088,161.39888 L94.311499,161.39888 L94.5787455,159.269442 L94.4262409,159.249181 L94.2251643,159.22584 L94.0764746,159.241687 C94.0715407,159.242273 94.0666107,159.242854 94.0616845,159.24343 Z M13.8924017,94.1453674 C20.4809592,95.5302333 26.5459903,94.7759062 31.9262847,92.5868423 C23.1029127,91.5741979 17.2182247,87.379992 13.9537271,80.923937 C12.7491716,78.5417399 11.9956085,76.01143 11.5999984,73.4601316 C11.3412427,71.7914098 11.2684033,70.362079 11.2986379,69.2943329 C11.3008588,69.215901 11.3029602,69.1652847 11.305431,69.1176448 L11.5981518,63.7104711 L9.18916679,61.6496326 C8.62764103,61.1692585 8.06438205,60.6710243 7.50758133,60.1649947 C5.04753249,69.556879 5.74839147,78.0587695 8.45202649,85.3660807 C8.97794796,86.7875269 9.53890454,88.0332311 10.0957622,89.0908609 C10.4195063,89.7057423 10.6609045,90.108808 10.7803651,90.2877047 L13.0114981,93.6289085 L11.4353269,93.6289085 L13.8924017,94.1453674 Z M15.3426965,68.2166516 C17.5763559,72.3720028 20.5443714,75.0663376 24.093547,76.5781815 C25.8777384,77.3381943 27.7304886,77.7752805 29.5823069,77.9516485 C24.4659926,74.5107523 21.2150791,69.5663172 19.6178106,63.521313 C18.1956705,58.1390981 18.2034959,52.467473 19.0602348,47.1425384 C19.2776618,45.7911536 19.4983356,44.7848341 19.6531878,44.2068261 L21.4222806,37.6034351 L21.2810739,37.1798923 C21.1083769,36.6618954 20.9550665,36.0576939 20.815667,35.3750755 C18.6476535,37.7672891 16.9194488,40.8256036 15.5992329,44.4234181 C14.3506028,47.8261491 13.5422137,51.4978135 13.0925891,55.1737259 C12.9349661,56.4623748 12.8337763,57.6573328 12.777755,58.7260046 C12.7583336,59.0964928 12.7459212,59.4234747 12.7390856,59.7029003 C12.7351311,59.8645505 12.7338749,59.9706754 12.7338749,60.0172371 L12.7338749,63.3633733 L15.3426965,68.2166516 Z M23.8191825,44.2699742 C25.2469299,50.328242 27.7151133,54.3490372 30.7754793,56.7042659 C29.8311985,54.4298253 29.2321973,51.5518909 29.1305056,48.0017703 C28.9739777,42.5220733 30.5449249,38.1323946 33.2718949,34.7990288 C33.325524,34.7334742 33.3793884,34.6686047 33.4334758,34.6044171 C31.3877614,35.7807836 29.2362642,36.7554972 27.0857331,37.5466914 C25.6468892,38.0760514 24.5153191,38.4159259 23.8394449,38.5846878 L22.5549234,38.9054255 L23.8191825,44.2699742 Z M40.0122023,29.8979423 L40.6799019,32.4619908 C41.8954498,37.129844 43.5966787,40.8690826 45.650736,43.7911246 C45.5903229,43.5661971 45.5320757,43.3399957 45.4759772,43.1125416 C44.017152,37.1976612 44.0796946,30.9530181 45.0518612,25.0627522 C45.3126777,23.4824894 45.5767619,22.3047899 45.7607204,21.631522 L45.7982241,21.4942627 C45.6879924,21.6616455 45.5734853,21.8364722 45.453327,22.0207428 C45.2553121,22.3244114 44.4428701,23.5789651 44.2331054,23.9004794 C42.3675442,26.7598954 41.097917,28.4603367 39.4810252,30.0743589 C39.4208515,30.1344282 39.3602659,30.1942459 39.2992719,30.2538129 L40.0122023,29.8979423 Z M49.5897238,20.9613066 C50.6274207,22.4356878 51.718633,23.730511 52.8561114,24.8567992 C54.7415341,26.7236736 56.7019464,28.0856987 58.6895443,29.0190136 C54.1030904,23.777014 52.5465816,18.288803 53.0649767,13.1397927 C51.1480507,14.6214518 49.4966758,16.367414 47.872663,18.5216713 L49.5897238,20.9613066 Z M35.9573832,62.7052661 C36.0010518,62.7311137 36.0415247,62.7517934 36.0779131,62.7678858 C36.0410934,62.7499573 36.0043488,62.7317572 35.9676809,62.7132846 L35.9573832,62.7052661 Z M175.755566,93.6289085 L177.986593,90.2877362 C178.106053,90.1088336 178.347448,89.7057567 178.671189,89.0908592 C179.22804,88.0332027 179.788989,86.7874676 180.314904,85.3659866 C183.018413,78.0587446 183.719308,69.5569635 181.259572,60.1652219 C180.703078,60.6710778 180.140183,61.1691396 179.579078,61.6493497 L177.168721,63.7122076 L177.461544,69.1175658 C177.464018,69.165247 177.466123,69.2159175 177.468348,69.2944302 C177.498608,70.3623125 177.425791,71.7917031 177.16706,73.4604299 C176.771505,76.0116254 176.018011,78.541821 174.813545,80.9239133 C171.498524,87.4800876 165.481258,91.7037128 156.42817,92.6316461 C161.661367,94.8716133 167.826159,95.6266625 174.874643,94.1453535 L177.332034,93.6289085 L175.755566,93.6289085 Z M176.03404,60.0172371 C176.03404,59.9706758 176.032784,59.8645514 176.028829,59.7029017 C176.021993,59.4234766 176.00958,59.0964952 175.990159,58.7260076 C175.934136,57.6573371 175.832944,56.4623803 175.675317,55.1737327 C175.22568,51.4978239 174.417271,47.826163 173.168609,44.4234353 C171.84826,40.8253552 170.119852,37.7668545 167.951553,35.3745611 C167.811952,36.0576327 167.658407,36.6622216 167.485423,37.1805348 L167.344728,37.6020996 L169.114273,44.2067961 C169.269136,44.7848116 169.489825,45.7911423 169.707267,47.1425408 C170.564058,52.4674838 170.571891,58.1391146 169.149686,63.521336 C167.529197,69.6539419 164.206708,74.6538433 158.961119,78.1003016 C160.941659,77.9504929 162.926549,77.490055 164.833479,76.6391707 C168.271388,75.1051533 171.182083,72.3885908 173.424211,68.2167841 L176.03404,63.3608171 L176.03404,60.0172371 Z M164.927254,38.5846847 C164.25147,38.4159411 163.120057,38.0761063 161.681416,37.5468107 C159.5311,36.7556808 157.379819,35.7810412 155.334317,34.6047582 C155.388198,34.6687064 155.441857,34.7333313 155.495282,34.7986362 C158.222344,38.1320793 159.793176,42.5219512 159.636204,48.0018411 C159.549804,51.0230204 159.103218,53.5573373 158.387315,55.6485138 C161.418364,53.0968541 163.749131,49.3593866 164.948262,44.2700764 L166.21224,38.9055464 L164.927254,38.5846847 Z M149.28683,30.0743884 C147.669964,28.4603925 146.400266,26.7599568 144.534674,23.900732 C144.324783,23.5790501 143.51222,22.324411 143.314293,22.0208993 C143.19416,21.8366818 143.079676,21.6619035 142.969467,21.4945661 L143.006902,21.6315957 C143.190812,22.3047771 143.454824,23.48233 143.71557,25.062406 C144.6876,30.9527519 144.750011,37.1975472 143.291042,43.1125771 C143.234865,43.3403363 143.176532,43.5668396 143.116029,43.7920655 C145.170492,40.8698931 146.87202,37.1303548 148.087701,32.4619908 L148.7554,29.8979423 L149.468729,30.2540115 C149.407685,30.1943885 149.347051,30.1345144 149.28683,30.0743884 Z M135.702453,13.1397852 C136.220526,18.288713 134.66389,23.7768635 130.077585,29.0188451 C132.066689,28.0847784 134.02861,26.7213799 135.915469,24.8523598 C137.051507,23.7270618 138.14142,22.4336513 139.177989,20.9611508 L140.894993,18.5220546 C139.270819,16.3676161 137.619374,14.6215316 135.702453,13.1397852 Z M183.786798,88.2798488 L186.65393,87.2059666 L186.0301,90.8859334 C184.726803,98.5740626 182.398639,105.039448 179.330116,110.367568 C177.587079,113.394141 175.70923,115.873124 173.818547,117.844371 C173.456994,118.22133 173.117522,118.557407 172.803724,118.853863 L174.305209,120.951788 L173.013916,122.239837 C172.349177,122.902905 171.560812,123.464988 170.676684,123.9443 C170.197047,124.204326 169.72117,124.426748 169.262638,124.615197 C169.356992,124.79491 169.454512,124.967042 169.554934,125.131783 C169.928026,125.743837 170.313567,126.211331 170.682629,126.553558 C170.865493,126.723126 170.971309,126.799685 170.969143,126.798449 L175.618648,129.451862 L170.424685,130.748489 C169.88728,130.882648 169.324024,130.965951 168.737732,131.004944 C168.129058,131.045426 167.510682,131.038493 166.890142,130.992638 C167.045313,131.905468 167.181543,132.829804 167.300142,133.753687 C167.389899,134.452886 167.463033,135.102766 167.520902,135.687529 C167.556035,136.042543 167.578497,136.300143 167.58959,136.444387 L167.799814,139.17796 L165.095305,138.728236 C164.161609,138.572614 163.259447,138.195187 162.373565,137.657617 C162.109219,138.265881 161.893345,138.849952 161.741334,139.38549 C161.637867,139.750005 161.566981,140.082177 161.530613,140.37235 C161.513569,140.508517 161.418239,141.33533 161.383467,141.620158 C161.303942,142.271572 161.218799,142.891663 161.113292,143.562449 C160.830791,145.358513 160.437911,147.277578 159.887878,149.418894 C158.4213,155.128384 156.022337,161.699311 152.427546,169.30792 C150.286205,173.839956 147.676216,178.102087 144.700577,182.084216 C141.665237,186.146242 138.414221,189.706394 135.159462,192.743039 C134.016282,193.80961 132.952103,194.736126 131.993261,195.51969 C131.408437,195.997607 130.981983,196.326354 130.740209,196.502935 L129.493418,197.413538 L128.232845,196.522112 C122.901524,192.75202 118.307384,187.185066 114.372415,180.303597 C111.755357,175.726891 109.582402,170.838829 107.824738,165.952241 C107.744931,165.730363 107.666726,165.510515 107.590119,165.292782 L106.385511,166.975664 L104.628682,165.660662 C104.121285,165.280871 103.648582,164.750035 103.14495,164.058744 C102.928357,163.761446 102.708009,163.435838 102.484167,163.08514 C102.317209,163.243606 102.144402,163.398757 101.966111,163.550692 C100.809314,164.536492 99.6663444,165.207072 98.8453575,165.579766 L95.1743446,167.246255 L95.7590136,163.745623 L94.2029133,163.550331 L92.9984427,163.687395 L93.5931022,167.246598 L89.9217059,165.579723 C89.1006099,165.206932 87.9574783,164.536175 86.8005256,163.550127 C86.6223459,163.398268 86.449642,163.243198 86.2827798,163.084817 C86.0592493,163.435028 85.8392111,163.760221 85.6229298,164.057187 C85.1189709,164.749151 84.6460776,165.280417 84.1385408,165.660446 L82.3812884,166.976225 L81.1764784,165.292354 C81.0998348,165.51021 81.0215926,165.730184 80.9417453,165.95219 C79.1842174,170.838788 77.0113691,175.726861 74.3943719,180.303577 C70.4594927,187.185062 65.8653279,192.752031 60.5338425,196.522129 L59.2732646,197.413532 L58.0264888,196.502925 C57.7847204,196.326344 57.3582771,195.997601 56.7734671,195.519687 C55.8146499,194.73613 54.7504991,193.809622 53.6073487,192.743061 C50.3526744,189.706442 47.101744,186.146321 44.0664833,182.084332 C41.0908679,178.102164 38.4809072,173.839987 36.3395711,169.307836 C32.7449811,161.699225 30.3460569,155.12827 28.8794769,149.418906 C28.3294184,147.27754 27.9365129,145.358426 27.6540223,143.562454 C27.5485035,142.891605 27.4633516,142.271425 27.3838526,141.620117 C27.3489734,141.334364 27.2536911,140.507656 27.23681,140.372695 C27.2004049,140.082227 27.129516,139.750099 27.0260348,139.385624 C26.8739689,138.850027 26.6579924,138.265871 26.3935102,137.657517 C25.5068633,138.195582 24.6038463,138.57322 23.6713262,138.72825 L20.9663082,139.177953 L21.1771569,136.443927 C21.1882782,136.299721 21.2107859,136.042161 21.2459721,135.687186 C21.3039307,135.102473 21.3771427,134.452644 21.4669552,133.753498 C21.5856303,132.829672 21.7218923,131.905394 21.8770427,130.992625 C21.2565008,131.038489 20.6381232,131.045429 20.0294482,131.004952 C19.4431231,130.965961 18.8798372,130.882655 18.3424064,130.748484 L13.148598,129.451838 L17.7979538,126.798458 C17.7958228,126.799675 17.9017092,126.723061 18.0846698,126.553395 C18.4539008,126.210994 18.8396126,125.743262 19.2128672,125.130896 C19.3131258,124.966411 19.4104937,124.794562 19.5047072,124.615157 C19.046657,124.426906 18.5713054,124.204754 18.0921989,123.945078 C17.2074301,123.465534 16.4185909,122.903105 15.7536125,122.239518 L14.4631508,120.951757 L15.9636992,118.854173 C15.6497945,118.55763 15.3101946,118.221438 14.9484971,117.844331 C13.0577572,115.873043 11.1798505,113.394006 9.43676026,110.367366 C6.36823395,105.039286 4.04004281,98.5739745 2.73668217,90.8859556 L2.1128203,87.2060364 L4.98014427,88.2799245 C4.79082922,87.8233715 4.60456561,87.3489415 4.42253492,86.8569539 C1.08568794,77.8382146 0.507281496,67.2103851 4.4099132,55.5240477 L5.50917578,52.2323321 L7.96524048,54.6841714 C8.01910366,54.7379419 8.12624245,54.8437188 8.28037393,54.9940004 C8.42264581,55.1327187 8.57528971,55.2803328 8.73726406,55.4356035 C8.76534213,55.178115 8.79553302,54.916871 8.82792051,54.6520867 C9.31481147,50.6715029 10.1921505,46.6866711 11.565764,42.943339 C13.6836949,37.1716145 16.794219,32.4966647 21.0996074,29.3602974 L24.1603844,27.1305983 L24.5038689,30.9017961 C24.5208577,31.0883199 24.5563158,31.4290213 24.6099658,31.8709575 C24.688506,32.5179249 24.780692,33.1638684 24.8855323,33.7703879 C25.1180913,33.6899081 25.3572214,33.6046209 25.6022536,33.5144719 C27.750686,32.7240499 29.8979262,31.7310025 31.8878251,30.5284454 C33.6305391,29.4752697 35.1677601,28.3093065 36.4456443,27.0336406 C37.7980114,25.6836736 38.920766,24.1799422 40.6347684,21.5528259 C40.8393089,21.2393191 41.6513663,19.9853593 41.8544107,19.6739776 C42.3461956,18.9197936 42.7507632,18.312032 43.1564839,17.7226406 C46.6516471,12.6452084 50.1658904,9.25697542 55.4685092,6.61007841 L61.2350719,3.73159552 L58.3487025,9.49421476 C58.2486019,9.69406492 58.0619881,10.1604716 57.8648444,10.8514517 C56.3470322,16.1713177 57.5320586,22.1473808 63.6523455,27.9912954 C64.7066931,28.998032 65.8979163,29.9823357 67.2321398,30.94135 L71.6550844,34.120478 L66.2527638,34.8163411 C66.1715628,34.8268005 66.0526608,34.8385914 65.8980054,34.849094 C64.3154847,34.9565617 62.2649739,34.7715224 59.9150411,34.0727702 C56.4282702,33.0359794 53.0022834,31.0478212 49.8331152,27.9098303 C49.5807216,27.6599198 49.3306843,27.4033211 49.0830601,27.1399772 C48.4057661,32.0930997 48.4592837,37.2663148 49.647429,42.0837094 C50.4231111,45.2287519 51.6586359,48.0581411 53.4028504,50.5088422 L57.1509724,55.7751249 L50.9962225,53.7999779 C50.3368544,53.5883772 49.3263543,53.1105239 48.0880996,52.2740585 C46.1106258,50.9382361 44.1558694,49.063226 42.3525567,46.5661239 C40.3873388,43.8448269 38.7188051,40.5406185 37.4215833,36.605186 C37.1419787,36.8863149 36.8661511,37.1909054 36.5973268,37.5195082 C34.5110279,40.0697369 33.2988839,43.4568164 33.4252015,47.8789213 C33.5369387,51.7797363 34.3462558,54.6264036 35.6159558,56.6066119 C36.4097282,57.8445694 37.2490359,58.5594121 37.8999479,58.8774532 C38.1880568,59.007105 38.4514102,59.1773486 38.6986832,59.446972 C39.1994203,59.9929693 39.441039,60.7829751 39.1845457,61.6022153 C38.9918786,62.2175944 38.6151169,62.6063009 38.1681085,62.8690705 C37.9541171,62.9948633 37.742506,63.0773478 37.5212632,63.1378528 C37.0090748,63.277925 36.3743515,63.3068924 35.6633803,63.2488433 C34.0946102,63.1207571 32.2728116,62.5831165 30.4785406,61.6168147 C27.4465779,59.9839561 24.81433,57.3607344 22.7760877,53.6768139 C22.7279201,56.6297714 23.0245254,59.5959726 23.7717029,62.423732 C25.6762731,69.6317466 30.2399404,74.8215192 38.2901332,77.3535102 L44.8726469,79.4238787 L38.278148,81.455749 C37.8849436,81.5769015 37.2196522,81.7429115 36.3266217,81.9043544 C31.8736531,82.7093663 27.0280347,82.498197 22.4097813,80.5309575 C20.4488511,79.6956592 18.6305057,78.572777 16.9789143,77.1473427 C17.2158602,77.7721593 17.4849087,78.3860073 17.7878885,78.9851973 C21.1659841,85.6659102 27.9739676,89.3277018 39.7014583,88.3855597 L46.3274331,87.853254 L41.2661292,92.1625573 C40.9704056,92.4143428 40.4462974,92.8156501 39.7054023,93.3158055 C38.4998396,94.1296438 37.1021626,94.9390522 35.5236595,95.6925228 C33.6380379,96.592591 31.6704653,97.3377431 29.6280157,97.9023573 C41.9237619,97.8984861 51.9231626,103.716673 60.651253,114.608525 C67.9947839,123.772039 69.6189133,126.050745 71.4011123,129.608845 C72.7999956,132.40245 74.0320187,132.94503 77.1687398,131.483799 C81.0577449,129.672662 82.6128962,127.02758 82.6128962,122.307967 C82.6128962,115.336759 85.5522686,108.163136 90.3585727,106.318827 L93.8049696,104.996351 L93.5663908,104.460632 L94.3836838,104.774283 L95.1995458,104.461215 L94.9614596,104.996015 L98.4084338,106.318855 C103.214448,108.163251 106.154929,115.33772 106.154929,122.307967 C106.154929,127.028148 107.709633,129.672811 111.599087,131.483903 C114.735503,132.944992 115.967084,132.402552 117.365984,129.608522 C119.14791,126.051465 120.771588,123.773564 128.11607,114.608596 C136.679787,103.921556 146.468346,98.1188153 158.447709,97.90829 C156.487586,97.3399862 154.622133,96.597206 152.855395,95.7036627 C151.335303,94.9348633 150.007526,94.10798 148.876848,93.2754473 C148.178365,92.7611446 147.688022,92.3460324 147.410628,92.0814855 L143.026553,87.9004534 L149.065246,88.3855591 C160.793259,89.3277045 167.60138,85.6659099 170.97936,78.985221 C171.264585,78.4211262 171.519735,77.8440397 171.746338,77.2570397 C170.165629,78.6378811 168.438311,79.7354342 166.584205,80.5627486 C161.911265,82.6478444 157.002922,82.8477272 152.483009,81.9533358 C151.547534,81.768226 150.84966,81.5779154 150.436398,81.4389446 L144.178137,79.33443 L150.476608,77.3535008 C158.527252,74.8214966 163.091152,69.6317154 164.995805,62.423709 C165.781786,59.4492301 166.069197,56.3215686 165.981183,53.2172683 C163.963442,56.6002202 161.308287,59.1857769 158.238478,61.0041205 C156.439104,62.0699453 154.610411,62.7832834 153.098204,63.0964442 C152.345308,63.2523603 151.723339,63.3052186 151.180549,63.1952245 C150.783959,63.1148573 150.417575,62.9649554 150.051712,62.6230435 C149.332062,61.9505039 149.157539,60.9022358 149.585954,60.0409347 C149.905112,59.3992895 150.290008,59.1373934 150.808255,58.9051733 C151.518177,58.5593631 152.357349,57.8445751 153.151066,56.6066485 C154.420732,54.6264063 155.229953,51.7797732 155.34151,47.87892 C155.468192,43.4564748 154.256171,40.0693452 152.169864,37.5191327 C151.901166,37.1906874 151.62547,36.8862345 151.345999,36.6052243 C150.04869,40.5408465 148.379991,43.8451828 146.41455,46.5665518 C144.611179,49.0635161 142.656364,50.9384219 140.678836,52.27417 C139.440555,53.1105837 138.430039,53.5884063 137.770667,53.7999922 L131.616098,55.774933 L135.364084,50.5088422 C137.108306,48.0581307 138.343866,45.228729 139.119608,42.0836739 C140.307863,37.2661878 140.361504,32.0928898 139.684347,27.13973 C139.438279,27.4013957 139.18983,27.6564023 138.939056,27.9048057 C135.768903,31.0449874 132.341819,33.0345678 128.853913,34.0721322 C126.503226,34.7714024 124.452077,34.9566017 122.869113,34.849093 C122.714464,34.8385898 122.595565,34.8267979 122.514363,34.8163372 L117.112323,34.1204317 L121.534983,30.941375 C122.869151,29.9823598 124.060334,28.9980547 125.114655,27.9913157 C131.234965,22.1472196 132.420188,16.1709487 130.902697,10.8510216 C130.705633,10.1601675 130.519097,9.69385463 130.419042,9.49405327 L127.533364,3.73160382 L133.299395,6.61011788 C138.601453,9.25700734 142.115555,12.6451892 145.61091,17.7225903 C146.016667,18.3119993 146.421272,18.9197743 146.913128,19.6740094 C147.116083,19.9852312 147.928256,21.2392683 148.132922,21.5529417 C149.846975,24.1799167 150.969818,25.6836778 152.322329,27.0337881 C153.60016,28.3095998 155.137464,29.4757081 156.880337,30.5289949 C158.869922,31.7313793 161.016825,32.7242872 163.16492,33.5146004 C163.409974,33.604759 163.649124,33.6900542 163.8817,33.7705403 C163.986664,33.1639243 164.078953,32.517849 164.157574,31.8707482 C164.211265,31.4288385 164.246748,31.0881613 164.263746,30.9016608 L164.607439,27.1308179 L167.667973,29.3602815 C171.97347,32.4966447 175.084077,37.1715952 177.202065,42.9433217 C178.575716,46.6866572 179.453079,50.6714925 179.939983,54.6520799 C179.972345,54.9166486 180.002514,55.1776827 180.030574,55.4349676 C180.192296,55.279928 180.344717,55.1325247 180.486801,54.9939919 C180.640956,54.8436892 180.748121,54.7378915 180.80201,54.6841005 L183.258128,52.2324373 L184.357283,55.5240971 C188.259571,67.2103518 187.681123,77.8381098 184.344413,86.8568113 C184.162381,87.3488225 183.976115,87.8232748 183.786798,88.2798488 Z M93.0907215,109.198155 C93.0481103,109.29387 92.9498713,109.546066 92.8133903,109.954834 C92.5723047,110.676897 92.3277971,111.55568 92.0972649,112.591383 C91.3226267,116.071567 90.9061648,120.348436 91.0474686,125.425951 C91.2813663,133.838918 92.3782581,139.112165 94.2958467,142.151425 C96.3558235,139.184602 97.4823625,133.978257 97.7201369,125.42585 C97.8615383,120.348381 97.4449529,116.071528 96.6700524,112.591382 C96.4394542,111.555746 96.1948774,110.677021 95.9537244,109.955009 C95.8172071,109.546276 95.7189442,109.294107 95.6763264,109.19841 L94.3832409,106.294837 L93.0907215,109.198155 Z" id="path30" fill="#F3652C"></path>
                        <path d="M72.3451653,145.825642 C72.3451653,145.825642 65.3410806,144.236577 62.1577703,146.460912 C58.9749057,148.685915 59.2935264,152.182125 60.5660038,157.266955 C61.8398181,162.351786 58.0192665,165.211614 58.0192665,165.211614 C58.9749057,160.127006 56.1093249,157.902448 56.1093249,157.902448 C53.2441897,163.623661 48.4691128,161.715848 48.4691128,161.715848 C51.6526459,160.445085 52.2885504,155.99597 52.2885504,155.99597 C47.8329855,157.266955 45.6042005,154.08838 45.6042005,154.08838 C50.3795001,154.724318 51.3342481,150.275647 51.3342481,150.275647 C44.3301633,148.685915 44.3301633,142.647512 44.3301633,142.647512 C51.0162958,148.050867 53.2441897,140.740366 53.2441897,140.740366 C52.2885504,137.879871 50.0606566,135.020266 50.0606566,135.020266 C52.2885504,135.020266 53.8816538,135.655758 53.8816538,135.655758 C53.8816538,135.655758 52.9157653,131.40016 43.3751925,128.664228 C37.5707259,126.99909 33.5066411,129.935435 33.5066411,129.935435 C37.6455906,130.570706 39.5550865,132.795263 39.5550865,132.795263 C35.4170283,133.431201 32.8705138,138.833889 32.8705138,138.833889 C37.3561582,136.633799 40.5107258,137.879871 40.5107258,137.879871 C35.7352034,139.469604 34.1434368,144.236577 34.1434368,144.236577 C34.1434368,144.236577 35.7352034,147.414929 36.6901741,149.00355 C37.6455906,150.592837 35.7352034,151.864712 36.0536012,153.770745 C36.3713307,155.678113 42.7390652,168.708046 47.5136964,177.288864 C52.2885504,185.869905 58.3378871,186.8237 58.3378871,186.8237 C59.8496643,181.881894 58.9749057,175.063862 58.9749057,175.063862 C61.3707995,177.491946 65.023574,178.87793 65.023574,178.87793 C65.023574,176.335737 63.4309162,172.839304 63.4309162,172.839304 C75.2109689,166.165853 72.3451653,145.825642 72.3451653,145.825642" id="path32" fill="#FFFFFF"></path>
                        <path d="M34.5814845,129.754819 C36.0346622,129.029241 39.2306728,127.870363 43.2702483,129.029241 C50.1798608,131.010679 52.4795,133.769745 53.2016326,135.044066 C52.4991074,134.858112 51.3921791,134.640349 50.0606566,134.640349 L49.2830439,134.640349 L49.7603064,135.253376 C49.7819192,135.28118 51.8975159,138.016001 52.8422374,140.740366 C52.6528475,141.268646 51.7411022,143.522565 49.8039775,144.113126 C48.3323065,144.561107 46.5707575,143.969434 44.5696859,142.352342 L43.949601,141.8512 L43.949601,142.647512 C43.949601,142.709793 44.0298132,148.779559 50.8603276,150.551242 C50.5290067,151.541516 49.2921791,154.195371 45.6543331,153.7118 L44.7953941,153.597469 L45.2924869,154.306365 C45.3152137,154.33884 47.5237229,157.404864 51.7954682,156.509347 C51.5073727,157.705817 50.6123383,160.451314 48.3276274,161.363069 L47.4446248,161.715626 L48.3276274,162.068405 C50.0336964,162.750387 53.8005504,162.84025 56.2086989,158.527931 C56.4540145,158.79841 56.7962532,159.239273 57.1015052,159.858751 C57.6088474,160.88884 58.1152983,162.641617 57.6453885,165.141547 L57.464911,166.101348 L58.2476484,165.515458 C58.2879773,165.485429 62.2549162,162.443428 60.9352027,157.174868 C59.2529746,150.452704 60.1437757,148.33269 62.3761258,146.772096 C65.0480833,144.905212 70.7197542,145.888368 72.0006985,146.142165 C72.2756481,148.53377 73.9433934,166.447009 63.243086,172.508768 L62.9405077,172.680264 L63.084444,172.996342 C63.0989268,173.027928 64.4124016,175.938248 64.6164971,178.295821 C63.5244971,177.81492 61.0145237,176.589311 59.2460675,174.797164 L58.4544176,173.995069 L58.5974627,175.11213 C58.6059296,175.17797 59.4049322,181.597402 58.0731869,186.37305 C56.7759774,186.026498 51.8393621,184.280395 47.8463542,177.104467 C43.0313941,168.451135 36.7358505,155.550436 36.4290389,153.708241 C36.3027047,152.951745 36.5792139,152.307355 36.8722113,151.625151 C37.2485402,150.748318 37.6377922,149.841679 37.0165932,148.808253 C36.1964235,147.443846 34.8822803,144.856721 34.5578665,144.213888 C34.8675747,143.424027 36.5560415,139.596613 40.6310441,138.240214 L41.6221104,137.910345 L40.6506515,137.526647 C40.525877,137.477712 37.7712564,136.42916 33.7499514,138.028012 C34.6806357,136.487437 36.7730601,133.607146 39.6130176,133.170731 L40.2894738,133.066632 L39.8440733,132.547917 C39.7692086,132.460723 38.111267,130.570483 34.5814845,129.754819 L34.5814845,129.754819 Z M39.7836913,127.768043 C35.9143439,127.768043 33.4170708,129.531274 33.2836066,129.62781 L32.5327313,130.170325 L33.4489329,130.310903 C36.2322962,130.738198 37.9804765,131.918208 38.7712351,132.57928 C34.9188214,133.681438 32.6276491,138.457086 32.5262697,138.67218 L32.0641583,139.652667 L33.038291,139.174657 C35.2672989,138.081396 37.1440415,137.883875 38.3220468,137.910567 C38.6698558,137.918352 38.9797868,137.945712 39.2464924,137.981301 C35.231649,139.903349 33.8444236,143.930953 33.7824819,144.116463 L33.7325721,144.265715 L33.8032034,144.406293 C33.8682644,144.53664 35.4123492,147.616232 36.3639779,149.199069 C36.7645932,149.865702 36.5522537,150.441582 36.1725827,151.325978 C35.8644341,152.043549 35.5152882,152.856988 35.6783864,153.833026 C36.0284235,155.934356 42.6657602,169.358442 47.1810386,177.473262 C51.9906512,186.116806 58.0239455,187.158685 58.2783964,187.198945 L58.6050383,187.250328 L58.7017386,186.934694 C59.8884335,183.055676 59.6395529,178.131888 59.4570701,176.031003 C61.8124122,178.051589 64.7510753,179.180884 64.8883273,179.232933 L65.4041363,179.428675 L65.4041363,178.87793 C65.4041363,176.704754 64.3094626,173.927671 63.9148631,172.997232 C68.6692184,170.151195 71.698343,164.587243 72.6829478,156.877919 C73.4367196,150.976535 72.7292926,145.824085 72.7219398,145.772703 L72.6853987,145.513345 L72.4293881,145.455068 C72.1368364,145.38856 65.2236588,143.854881 61.9396377,146.149727 C58.3599455,148.652105 59.0326139,152.706623 60.1968049,157.359043 C61.036582,160.711783 59.5361683,163.058902 58.5502267,164.172849 C58.9679985,159.700156 56.4582479,157.692026 56.3430543,157.602607 L55.9765291,157.318115 L55.7690914,157.732509 C54.6392135,159.988652 53.0873302,161.282993 51.15689,161.579274 C50.5307892,161.675143 49.9679669,161.646894 49.5310332,161.584168 C52.0880199,159.881884 52.6408157,156.221295 52.6653249,156.049577 L52.7482109,155.469692 L52.1840517,155.630734 C49.3333993,156.443506 47.4499723,155.321329 46.5442429,154.5308 C50.7631818,154.510114 51.6967626,150.399765 51.7063435,150.355278 L51.7849961,149.988263 L51.4184709,149.905073 C46.3372508,148.751977 45.1046567,145.1381 44.8060891,143.486086 C46.734524,144.855164 48.4891659,145.309818 50.030577,144.838259 C52.6065027,144.049955 53.5683806,140.98104 53.6082639,140.850916 L53.6434682,140.735028 L53.6051445,140.62003 C52.9012825,138.51314 51.5479244,136.440059 50.8306937,135.425985 C52.5510226,135.541428 53.7270225,136.0032 53.7403912,136.008538 L54.412614,136.276793 L54.2526352,135.571901 C54.2111923,135.389061 53.1263223,131.065175 43.4803597,128.298992 C42.1486143,127.917074 40.9082218,127.768043 39.7836913,127.768043 L39.7836913,127.768043 Z" id="path34" fill="#F3652C"></path>
                        <path d="M155.26007,129.935435 C155.26007,129.935435 151.046256,126.544214 145.391296,128.664228 C136.292113,132.075691 134.885503,135.655758 134.885503,135.655758 C134.885503,135.655758 136.477938,135.020266 138.705832,135.020266 C138.705832,135.020266 136.477938,137.879871 135.523413,140.740366 C135.523413,140.740366 137.751307,148.050867 144.436771,142.647512 C144.436771,142.647512 144.436771,148.685915 137.432909,150.275647 C137.432909,150.275647 138.388325,154.724318 143.162511,154.08838 C143.162511,154.08838 140.934617,157.266955 136.477938,155.99597 C136.477938,155.99597 137.114288,160.445085 140.298713,161.715848 C140.298713,161.715848 135.523413,163.623661 132.656718,157.902448 C132.656718,157.902448 129.792474,160.127006 130.747445,165.211614 C130.747445,165.211614 126.927785,162.351786 128.20093,157.266955 C129.473185,152.182125 129.792474,148.685915 126.608273,146.460912 C123.425631,144.236577 116.421992,145.825642 116.421992,145.825642 C116.421992,145.825642 113.556857,166.165853 125.335127,172.839304 C125.335127,172.839304 123.74336,176.335737 123.74336,178.87793 C123.74336,178.87793 127.667519,177.830045 129.792474,175.063862 C129.792474,175.063862 129.1891,181.881894 130.428824,186.8237 C130.428824,186.8237 136.477938,185.869905 141.253238,177.288864 C146.028537,168.708046 152.395381,155.678113 152.71467,153.770745 C153.032399,151.864712 151.121121,150.592837 152.07676,149.00355 C153.032399,147.414929 154.624166,144.236577 154.624166,144.236577 C154.624166,144.236577 153.032399,139.469604 148.256431,137.879871 C148.256431,137.879871 150.837036,136.633799 155.896421,138.833889 C155.896421,138.833889 153.349015,133.431201 149.211848,132.795263 C149.211848,132.795263 151.121121,130.570706 155.26007,129.935435" id="path36" fill="#FFFFFF"></path>
                        <path d="M135.759371,134.994464 C136.037662,134.640794 136.449864,134.185918 137.047445,133.662976 C138.382532,132.494311 140.937068,130.739977 145.525206,129.019677 C149.554755,127.50913 152.844792,128.916467 154.265216,129.73658 C150.680622,130.541789 148.998394,132.460056 148.922861,132.547917 L148.477683,133.066632 L149.153917,133.170731 C152.026627,133.612262 154.135094,136.555725 155.049291,138.081841 C150.541588,136.402023 148.194935,137.487499 148.090882,137.537991 L147.247986,137.944822 L148.136113,138.240214 C152.211784,139.596836 153.900028,143.424027 154.209513,144.213888 C153.8851,144.856721 152.571179,147.443846 151.750564,148.808031 C151.128919,149.841902 151.518617,150.748763 151.895614,151.625819 C152.188612,152.3078 152.465344,152.951967 152.339455,153.708241 C152.030192,155.554439 145.733758,168.455362 140.92058,177.104245 C138.506193,181.443033 135.764718,183.75256 133.889981,184.92612 C132.435243,185.836985 131.263031,186.223352 130.71135,186.369713 C129.616676,181.580052 130.165684,175.163067 130.1717,175.097227 L130.286448,173.796436 L129.490564,174.832753 C127.908156,176.89271 125.247339,177.974627 124.145758,178.352764 C124.333143,175.985182 125.667116,173.02815 125.681376,172.996342 L125.825313,172.680264 L125.522734,172.508768 C114.824432,166.447009 116.491509,148.53377 116.766459,146.142165 C118.047403,145.888591 123.719074,144.905434 126.39014,146.772096 C129.284018,148.79424 129.129387,151.988385 127.831732,157.174868 C126.512686,162.443428 130.478957,165.485429 130.519063,165.515458 L131.301578,166.101348 L131.121323,165.141547 C130.651859,162.641617 131.157864,160.88884 131.665206,159.858751 C131.970235,159.239496 132.312251,158.798633 132.557567,158.528153 C134.96683,162.84025 138.733684,162.750609 140.440198,162.068405 L141.323201,161.715626 L140.439975,161.363069 C138.154819,160.451091 137.259339,157.705817 136.971243,156.509347 C141.243434,157.405309 143.451275,154.33884 143.474447,154.306143 L143.971095,153.597469 L143.112378,153.7118 C139.474755,154.196483 138.238596,151.542184 137.906829,150.551242 C144.737344,148.779559 144.817333,142.709793 144.817333,142.647512 L144.817333,141.8512 L144.197471,142.352342 C142.195286,143.970546 140.433291,144.562442 138.96006,144.112014 C137.018702,143.517894 136.113418,141.268424 135.925142,140.740589 C136.868973,138.016446 138.984792,135.28118 139.006405,135.253376 L139.483668,134.640349 L138.705832,134.640349 C137.491063,134.640349 136.463678,134.821633 135.759371,134.994464 L135.759371,134.994464 Z M149.173747,127.579864 C147.982819,127.579864 146.66511,127.780722 145.257609,128.308557 C136.105174,131.740261 134.591392,135.364593 134.531233,135.517182 L134.211052,136.331956 L135.02632,136.00876 C135.039689,136.003422 136.221705,135.542095 137.935572,135.426207 C137.218787,136.440282 135.865429,138.513362 135.162458,140.62003 L135.124135,140.735028 L135.159339,140.850916 C135.198999,140.98104 136.1611,144.050177 138.737026,144.838259 C140.280888,145.310931 142.039317,144.853385 143.972209,143.478078 C143.694362,145.127645 142.497641,148.736407 137.348463,149.905073 L136.981938,149.988263 L137.060814,150.355278 C137.070394,150.399765 138.007318,154.517232 142.2345,154.5308 C141.339243,155.325778 139.467625,156.453293 136.582437,155.630734 L136.018501,155.469692 L136.101387,156.049577 C136.125896,156.221518 136.680028,159.889891 139.244591,161.589728 C137.798097,161.806379 134.955912,161.642223 132.996952,157.732509 L132.789514,157.318115 L132.422989,157.602607 C132.307795,157.692248 129.793365,159.704604 130.218267,164.188642 C129.227424,163.088486 127.719434,160.756715 128.570129,157.359043 C129.73432,152.706178 130.406543,148.651215 126.826628,146.149727 C123.543498,143.855103 116.630321,145.38856 116.337546,145.455068 L116.081536,145.513345 L116.044994,145.772703 C116.037864,145.824085 115.330437,150.976535 116.084209,156.877919 C117.068814,164.58702 120.097493,170.151195 124.85118,172.997232 C124.456803,173.927671 123.362798,176.704754 123.362798,178.87793 L123.362798,179.372844 L123.84162,179.244945 C123.989344,179.205574 127.118066,178.34965 129.337716,176.150227 C129.221854,178.302049 129.105769,183.114176 130.059848,186.91601 L130.144294,187.253219 L130.488315,187.198945 C130.742543,187.158685 136.775837,186.116806 141.585896,177.473484 C146.099614,169.362668 152.737397,155.93925 153.090108,153.833249 C153.25276,152.856988 152.903169,152.043771 152.594797,151.326201 C152.214681,150.441582 152.002118,149.865702 152.402956,149.199069 C153.355253,147.616232 154.899115,144.53664 154.964399,144.406293 L155.035031,144.265715 L154.985121,144.116463 C154.923179,143.930508 153.530161,139.885777 149.494373,137.968845 C150.65589,137.824263 152.752102,137.880983 155.744463,139.18222 L156.671137,139.585047 L156.240665,138.671957 C156.139508,138.457086 153.847222,133.681438 149.995476,132.57928 C150.785789,131.91843 152.53397,130.738198 155.318001,130.310903 L156.170256,130.17989 L155.499147,129.639599 C155.363455,129.530606 152.883338,127.579864 149.173747,127.579864 L149.173747,127.579864 Z" id="path38" fill="#F3652C"></path>
                        <path d="M104.006703,26.3296792 C102.414045,24.7406141 99.2314034,26.3296792 99.2314034,26.3296792 L100.503658,23.7868191 L96.6842204,26.0118217 L96.6842204,22.1977317 L94.6292284,25.2744545 L94.6292284,26.0118217 L94.3839128,25.642582 L94.1372602,26.0118217 L94.1372602,25.2744545 L92.0824911,22.1977317 L92.0824911,26.0118217 L88.2628307,23.7868191 L89.5361994,26.3296792 C89.5361994,26.3296792 86.3531119,24.7406141 84.7611225,26.3296792 C83.1686876,27.9187443 83.1686876,30.4611596 83.1686876,30.4611596 C83.1686876,30.4611596 85.078852,31.0966522 87.3083055,32.6857173 C89.5361994,34.2747824 90.8097908,33.0033524 92.4013346,33.0033524 C93.4053239,33.0033524 93.9126661,33.0033524 94.1510746,33.0033524 C94.2905547,33.0033524 94.338682,33.0033524 94.338682,33.0033524 C94.6238809,33.0033524 95.2546607,33.0033524 96.3655997,33.0033524 C97.9573663,33.0033524 99.2314034,34.2747824 101.459297,32.6857173 C103.688082,31.0966522 105.597578,30.4611596 105.597578,30.4611596 C105.597578,30.4611596 105.597578,27.9187443 104.006703,26.3296792" id="path40" fill="#FFFFFF"></path>
                        <path d="M95.0097907,25.3896751 L96.3036581,23.4522791 L96.3036581,26.673339 L99.5928039,24.757519 L98.3824909,27.1762612 L99.4014087,26.6695576 C99.4308198,26.6546546 102.358788,25.2224051 103.737769,26.5983789 C104.913101,27.7728279 105.154629,29.5402848 105.204316,30.200245 C104.589801,30.4366919 103.020761,31.1055495 101.238268,32.3767571 C99.8307667,33.3803772 98.8722309,33.133476 97.8575466,32.8712268 C97.3851859,32.7493333 96.8970055,32.6234359 96.3655997,32.6234359 L92.4013346,32.6234359 C91.8699287,32.6234359 91.3815256,32.7493333 90.9093876,32.8712268 C89.8949261,33.133476 88.9363903,33.3801548 87.5295575,32.3767571 C85.7466185,31.1059944 84.177356,30.4369143 83.5623958,30.2004675 C83.6131968,29.5396175 83.8573984,27.7683793 85.0300562,26.5983789 C86.4081464,25.2226275 89.3367829,26.654877 89.3661941,26.6695576 L90.3853346,27.1762612 L89.1743532,24.7577415 L92.4630534,26.673339 L92.4630534,23.4525015 L93.7566979,25.3896751 L93.7566979,27.2663468 L94.3830215,26.328567 L95.0097907,27.2714628 L95.0097907,25.3896751 Z M91.7019287,20.9430732 L91.7019287,25.3505268 L87.351531,22.8161192 L88.7485601,25.6065478 C87.6019713,25.2279659 85.6911384,24.8638423 84.4919661,26.0609795 C82.8075099,27.7419097 82.7881253,30.3508325 82.7881253,30.4611596 L82.7881253,30.7347528 L83.0481465,30.8215019 C83.0668626,30.82773 84.9362525,31.4614431 87.0872763,32.9948999 C88.7837644,34.2047158 90.0141304,33.8868583 91.0998916,33.607037 C91.5457378,33.4918164 91.966629,33.3832688 92.4013346,33.3832688 L96.3655997,33.3832688 C96.8000825,33.3832688 97.2214193,33.4918164 97.6672655,33.607037 C98.7530267,33.8868583 99.984284,34.2044934 101.680772,32.9948999 C103.830905,31.4614431 105.699403,30.82773 105.718119,30.8215019 L105.977918,30.7347528 L105.978141,30.4611596 C105.978141,30.351055 105.958756,27.7421321 104.275859,26.0612019 L104.275637,26.0609795 C103.076241,24.8640647 101.165186,25.2281884 100.01882,25.6065478 L101.414512,22.8163416 L97.0647827,25.3505268 L97.0647827,20.9432511 L94.3832443,24.9579316 L91.7019287,20.9430732 L91.7019287,20.9430732 Z" id="path42" fill="#F3652C"></path>
                        <path d="M65.3925501,105.172578 L65.3925501,105.172578 C65.3925501,107.119316 66.354428,108.918581 67.9562211,110.025855 C68.2601362,109.990266 69.0308418,109.859475 69.6841256,109.434849 C68.8583855,108.907014 67.34594,107.632026 67.34594,105.35097 C67.34594,105.259327 67.3479453,105.16724 67.3535156,105.072038 C67.4905447,102.475349 69.4775792,101.347389 70.84542,101.37497 C71.9400937,101.398548 72.8683271,102.000231 73.302587,102.587011 C73.587786,102.971376 73.6878284,103.380431 73.5864491,103.737659 L73.4567727,104.192758 L73.0405605,103.969435 C72.7500141,103.813287 72.358534,103.751228 71.8768152,103.785038 C71.0267887,103.843315 70.3850911,104.47258 70.3850911,105.248205 L70.3850911,105.248205 C70.3850911,105.873688 70.6947993,106.653763 71.1052184,107.06393 C71.2380141,107.229643 71.3460778,107.317949 71.4559239,107.361769 L71.575351,107.366217 C71.575351,107.366217 71.7059186,107.36733 71.709038,107.367774 C71.9191494,107.304826 72.6464067,106.61239 73.2038815,105.796949 C74.0035525,104.716367 74.845335,103.316593 75.5872978,102.081419 C75.5872978,102.081419 75.971648,101.443702 76.0398283,101.331151 C75.8470962,100.821778 73.1680088,99.2596275 71.3142157,99.2596275 C68.0491336,99.2596275 65.3925501,101.911925 65.3925501,105.172578" id="path44" fill="#FFFFFF"></path>
                        <path d="M118.263137,107.618742 C118.272141,107.610661 118.283396,107.609146 118.2924,107.59955 L118.19223,107.69955 C118.219805,107.676823 118.237813,107.641974 118.263137,107.618742 L118.263137,107.618742 Z M120.7051,109.899735 C122.264336,108.808476 123.202819,107.050807 123.202819,105.146998 C123.202819,101.939062 120.588793,99.3301389 117.376517,99.3301389 C115.592687,99.3301389 113.074024,100.771063 112.765652,101.306683 C112.900899,101.531341 113.185207,102.003345 113.185207,102.003345 C113.926724,103.237629 114.767838,104.63718 115.556591,105.702192 C116.090671,106.480932 116.783838,107.154238 117.001079,107.242989 C117.008432,107.242322 117.016453,107.240987 117.016453,107.240987 L117.197822,107.246103 C117.294522,107.208512 117.387435,107.131105 117.478565,107.013883 L117.497504,106.991862 L117.518225,106.970286 C117.912379,106.576356 118.209387,105.824976 118.209387,105.222626 C118.209387,104.486371 117.620273,103.911825 116.808124,103.855327 C116.344231,103.822851 115.970575,103.880906 115.696517,104.028825 L115.173801,104.307979 L115.012485,103.738104 C114.890607,103.310587 115.064846,102.826794 115.514925,102.340332 C116.107827,101.700613 117.161727,101.105603 117.948475,101.262864 C118.991679,101.470617 121.436146,101.958858 121.436146,105.067144 C121.436146,107.462086 120.033992,108.7978 119.177504,109.397258 C119.759488,109.737581 120.40475,109.860587 120.7051,109.899735 L120.7051,109.899735 Z" id="path46" fill="#FFFFFF"></path>
                    </g>
                </g>
            </g>
        </g>
    </g>
</svg>