<svg id="Layer_1" data-name="Layer 1" xmlns="http://www.w3.org/2000/svg" viewBox="0 0 318.13 280.55"><defs><style>.cls-1{fill:#fff;}.cls-2{fill:#69b1e1;}.cls-3{fill:#f7c535;}.cls-4{fill:#f0f8f9;}</style></defs><title>LIU</title><path class="cls-1" d="M82.92,2.41c4.15-1.65,30.66-.1,31.76,0,4.14.33,7.81,2.14,11.64,3.49,6.71,2.37,12,7.1,18,10.66,3.34-1,6.57-2.1,9.83-3.05a218.76,218.76,0,0,1,49.73-8.71,366.15,366.15,0,0,1,50.33.49A292.21,292.21,0,0,1,294,11.61c7.68,1.75,16.06,2.43,21.75,9.15l.38-.32v11c-1.56-1.12-2,.51-2.59,1.22a67.87,67.87,0,0,1-29.89,20.82c-3.81,1.39-7.52,3.14-11.75,3.15,3,10.45.91,11.66-6.77,17.83-8,6.45-17.65,10.36-27.31,14.06-7.85,3-16,5.22-24.09,8.43a132.65,132.65,0,0,1,3.61,17.62c9.68-.74,19-2.58,28.41-2.13,9.15.44,18.41-1,27.68,1.7-13,6.84-22.9,17.38-34.39,26.35-5.33-2.36-10.15-.88-14.95,2.42a271.69,271.69,0,0,0-31.63,25.31c-9.39,8.78-16.94,18.64-21.2,30.78a171.73,171.73,0,0,0-8.19,32.65c-1.86,13.07-3.45,26.14-4.07,39.33-.06,1.4-.7,2.77-1.35,5.19-22.56-28.73-35.92-60-36.76-96.25-1.92-1.62-4.43-2.38-7.07-3.6-2.22,3.68-3.78,7.78-6.94,11.77-2.37-5.7-4.77-10.89-6.67-16.26a21.18,21.18,0,0,0-7.41-10.15c-9.29-7-15.84-16.18-21.5-26.08-1.9-3.34-2.93-7.18-4.44-11-4.46-.83-8.6,1.44-12.9,2.07-7.76,1.15-15.8,1.94-23.17,4.23-8.81,2.75-18.15,2.87-26.67,6.46a5.36,5.36,0,0,1-1.93.07c-.07,0-.07,0-.15-.05-.36-.08,2.09-3,2.75-3.72,7.6-7.75,16.66-13.64,25.91-19A295.66,295.66,0,0,1,63.92,98c.64-9.26,4.2-17.18,8.44-24.73C79.2,61.13,83.2,48.26,82,34.29,81.21,25,78.79,16.09,70.93,9.83c-.89-.72-.8-1.76-.71-3a40.84,40.84,0,0,1,12.7-4.45m-.81,78a1.53,1.53,0,0,0-.93,2.16c.19.49.65.43,1,.06,5.84-1.78,10.64-5.72,16.44-7.67s11.42-4.33,17.65-4.48c-2.59,5-7.12,8.93-8.65,15.22,2.56-.56,4.74.22,6.82-1.12,1.78-4.74,2.58-9.88,5.39-14.35,1.76.05,3.35-1.39,5.36-.29-1.91,4.93-5.7,8.92-6.42,14.21h8a52.12,52.12,0,0,1,3.77-15.47l4.67.11c-1.05,5.19-4.49,9.63-4.74,15.06,7.1,2.23,7.1,2.23,8.84,4.19-45,4.89-87.45,17.36-125.51,42.71,18.87-4.29,37.37-10,56.23-13.09,1.21.9,1.2,2,1.47,2.92a71.74,71.74,0,0,0,23.26,35.26c5.07,4.24,9.4,8.81,11.16,15.38.32,1.18.67,2.55,2.07,3.13,2.2-1.28,2-4.27,4.27-5.62l14.5,7.62c-.11,15,1.67,29.65,6.29,43.85,5.75,17.65,15.24,35.91,20.52,38.85a6.71,6.71,0,0,0,.38-1.39,244.72,244.72,0,0,1,8.17-49c2.73-9.79,6.13-19.34,12-27.76,10.27-14.64,23.6-26.15,38.1-36.28,7.89-5.52,15.21-13,25.83-10.86l18.34-15.27c-13.69-.33-26.36-.28-39,2.4-.66,1.24-1.76,2.46-.16,4.25,4.86-.42,9.82-2.15,15.55-1.43-5.91,2.26-11.9,2.06-17,4.39-3.59,9.37-4.38,10.78-8,13.89,6.65-17.44,5.69-33.9-3.54-49.51A3.41,3.41,0,0,1,207,90.72c6.89-1.88,13.71-3.94,20.53-6.06,10.75-3.34,21.31-7.13,31.2-12.56,3.92-2.16,6.93-5.11,7.25-9.51-.65-2.62-3.45-3.25-3.68-5.58,2.84-4.08,6.49-6.14,11.48-7.09,12.8-2.42,23.23-9.51,32.55-18.35a12.72,12.72,0,0,0,3.54-5.86c-.41-3-2.63-4.15-5.1-4.83a305.86,305.86,0,0,0-47.86-9.3c-15.26-1.7-30.59-1.45-45.9-1.15-13,.25-25.79,2.23-38.52,4.67a226.79,226.79,0,0,0-30.18,8.38c-18-15.39-38-21.22-61.58-13.71,3.44,4.57,6,8.79,7.44,13.61,3.61,12.07,1.32,23.68-2.72,35.12-1.46,4.12-3.3,8.12-5,12.17,12.64-15.62,29.39-25.51,47-34.69-4.32-11.2-12.55-16.85-23.27-19.55a6.5,6.5,0,0,1-3.61-.9c-2.84-1.47-6-2.29-9-.11a1.9,1.9,0,0,1,.17-2.3c12.16-1.91,35,4,44.27,15.6.49,1.43-1.63,2-1.08,3.81,53.07-21.36,106.78-20.63,160.82-6,1.05,4.13-1.16,6-3.41,7.74-14.88,11.74-31.85,12.15-49.1,8-11.51-2.8-24-.12-32.18,8.92,9-2,9-2,13.2.05,1.51-.12,2.53-1.63,4.13-1.47,1.28,1.09.8,3.22,2.4,4.08,1.72-.56,2.73-2.66,4.86-2,1,2,1,3.57-1.8,4.2,7.28,4.51,15.3,5.29,22.92,7.77a9.81,9.81,0,0,1-1.18,1.46,12.26,12.26,0,0,1-2.07,1.35,52.7,52.7,0,0,1-40.09,3.55,25.24,25.24,0,0,0-9.78-1.39,224.75,224.75,0,0,0-33.41,5.23c-5.87,1.45-11.74,2.93-17.86,4.47-.45-4.14-.42-7.72,1.38-11.08a2,2,0,0,0,2.23.75c4.23-1.85,9.14-1.72,13-4.54,6.79-12.91,11.78-18.57,17.07-19-1.69,3.05-2.8,6.08-1.61,9.62,2.18-.79,3.41-2.41,5-3.48a113.84,113.84,0,0,1,38-16.78c3.42-.78,7.75-.37,10.53-3.57,2.92-.22,6,.5,8.89-1l1-5.86c-5.91,0-11.3-.94-16.79-1-21.31-.21-42.44,1.42-63.23,6.07C142.22,34.29,117.82,43,97.7,60.81c-6.32,5.6-12.41,11.49-15.63,19.61ZM281,27.85c-9.69-1.54-19.22-3.64-29.34-3.69-.17,1.32-2.16,1.15-2.51,3.4a3.79,3.79,0,0,0,3.4,3.65c2.42-.05,3.58-1.7,4.75-2.27C265.54,30.52,273.21,27.56,281,27.85Zm-1.19,4.64c-4.37-.17-6.65,2.5-9.23,5.28C275.8,38.39,275.8,38.39,279.78,32.49Z"/><path class="cls-2" d="M104.16,16.43c10.72,2.7,19,8.35,23.27,19.55-17.59,9.18-34.34,19.07-47,34.69,1.67-4,3.51-8.05,5-12.17,4-11.44,6.33-23,2.72-35.12-1.44-4.82-4-9-7.44-13.61,23.61-7.51,43.56-1.68,61.58,13.71a226.79,226.79,0,0,1,30.18-8.38C185.19,12.66,198,10.68,211,10.43c15.31-.3,30.64-.55,45.9,1.15a305.86,305.86,0,0,1,47.86,9.3c2.47.68,4.69,1.79,5.1,4.83a12.72,12.72,0,0,1-3.54,5.86C297,40.41,286.55,47.5,273.75,49.92c-5,.95-8.64,3-11.48,7.09.23,2.33,3,3,3.68,5.58-.32,4.4-3.33,7.35-7.25,9.51-9.89,5.43-20.45,9.22-31.2,12.56-6.82,2.12-13.64,4.18-20.53,6.06a3.41,3.41,0,0,0-2.58,1.69c9.23,15.61,10.19,32.07,3.54,49.51,3.6-3.11,4.39-4.52,8-13.89,5.12-2.33,11.11-2.13,17-4.39-5.73-.72-10.69,1-15.55,1.43-1.6-1.79-.5-3,.16-4.25,12.6-2.68,25.27-2.73,39-2.4l-18.34,15.27c-10.62-2.15-17.94,5.34-25.83,10.86-14.5,10.13-27.83,21.64-38.1,36.28-5.91,8.42-9.31,18-12,27.76a244.72,244.72,0,0,0-8.17,49,6.71,6.71,0,0,1-.38,1.39c-5.28-2.94-14.77-21.2-20.52-38.85-4.62-14.2-6.4-28.8-6.29-43.85l-14.5-7.62c-2.31,1.35-2.07,4.34-4.27,5.62-1.4-.58-1.75-2-2.07-3.13-1.76-6.57-6.09-11.14-11.16-15.38a71.74,71.74,0,0,1-23.26-35.26c-.27-.91-.26-2-1.47-2.92-18.86,3.08-37.36,8.8-56.23,13.09C51.93,105.38,94.37,92.91,139.38,88c-1.74-2-1.74-2-8.84-4.19.25-5.43,3.69-9.87,4.74-15.06,4.24-5.71,6.27-13,12.65-18.44-2.18,6.7-6.07,11.77-6,18.11-2.31,4.3-2.56,8.93-2.67,13.56,2.56.57,3.47-.4,4.06-2.29a109.19,109.19,0,0,0,2.76-11.25c3.77-8.15,7.36-16.39,13.44-23.33-2.4,7.31-5.65,14.36-5.76,22.2-1.8,3.36-1.83,6.94-1.38,11.08,6.12-1.54,12-3,17.86-4.47a224.75,224.75,0,0,1,33.41-5.23,25.24,25.24,0,0,1,9.78,1.39,52.7,52.7,0,0,0,40.09-3.55,12.26,12.26,0,0,0,2.07-1.35,9.81,9.81,0,0,0,1.18-1.46c-7.62-2.48-15.64-3.26-22.92-7.77,2.8-.63,2.83-2.24,1.8-4.2-2.13-.62-3.14,1.48-4.86,2-1.6-.86-1.12-3-2.4-4.08-1.6-.16-2.62,1.35-4.13,1.47-4.16-2.1-4.16-2.1-13.2-.05,8.23-9,20.67-11.72,32.18-8.92,17.25,4.18,34.22,3.77,49.1-8,2.25-1.77,4.46-3.61,3.41-7.74C241.74,11.9,188,11.17,135,32.53c-.55-1.79,1.57-2.38,1.08-3.81-9.3-11.63-32.11-17.51-44.28-15.6a1.91,1.91,0,0,0-.16,2.3c.4,1.94,1,3.83,1.52,5.74,2.55,8.61,4.5,17.31,1.5,26.28a6.88,6.88,0,0,0,.2,5.19A98.71,98.71,0,0,1,114.43,37a5.21,5.21,0,0,0,2.73-3.77c-2.37-6.4-5.92-11.86-12.23-15.09C104.23,17.8,104.31,17.05,104.16,16.43Zm-22,99.83c-1.93-1.44-3.28.15-5.12.68,2.29,11.74,8.27,20.94,16.9,29.9-.47-4-3.31-5.62-4-8.3-1.9-7.22-2.52-14.67-3.34-21.63C84.72,115.79,83.4,116.29,82.11,116.26Zm63.73-3.56C135.68,119.8,129.19,134,132,146.75c3.12,14.05,11.83,23.14,24.27,29.34-2-3.88-4.33-7.57-2.71-12.33a74.87,74.87,0,0,1,18-17.59c7-4.84,14.76-8.14,22.33-11.71a3.79,3.79,0,0,0-2.6-2.76c-17.08,4.84-32.57,13.12-47.36,23.34-1.65-2.1-4-3.15-3.84-6.24,6.3-5.68,14.18-8.91,21.75-12.66s16.06-5.8,24.06-9.07C179.89,119.11,156,111.18,145.84,112.7Zm-6.68,85.71c-2.75,10.05,1.17,23.82,10.67,39.37-.24-7.9.33-15.24,2.46-22C146.84,210.18,141.3,205.64,139.16,198.41Zm22.23-24.11c4.78-11.59,13.53-20.13,21.52-29.38a100.78,100.78,0,0,0-24.51,18.66C157.72,170.25,157.72,170.25,161.39,174.3ZM254.18,53.63c1.65-3.84,5.55,1.44,7.67-3.81-3.31,2-5.63-1.12-8.35.2C253.12,51.05,253.13,51.84,254.18,53.63Zm2.24,1.31c-1.9,0-1.89,2.1-3.3,2.18-1.05-.15-1.12-1.81-2.5-1.34-.7.64-2,.95-1.57,2.59,2.58,0,5.17.47,7.6-.33A3,3,0,0,0,256.42,54.94Zm-16.21,2.14c1.8.29,3.23.83,4.65-.14.56-1.63-.11-2.82-1.34-3.91C242.11,53.91,240.67,54.7,240.21,57.08Zm-1.09-10.7c-.12,1.71-.06,3,1.6,3.51.92-.83,2.49-1.18,2-3A4.93,4.93,0,0,0,239.12,46.38Zm11.53,2.51c-1.75-.19-2.77-1.16-4.38-.39.62.93.54,2.14,1.79,2.79a5,5,0,0,0,1.2-.56A12.23,12.23,0,0,0,250.65,48.89Z"/><path class="cls-3" d="M153.79,67.33c.11-7.84,3.36-14.89,5.76-22.2-6.08,6.94-9.67,15.18-13.44,23.33l-4.15,0c-.1-6.34,3.79-11.41,6-18.11-6.38,5.48-8.41,12.73-12.65,18.44l-4.67-.11c.48-2,2.37-3.84.68-6.72l-5.45,6.84c-1.65-.64-4.65,2-4.72-2.33l.14-.13-.12.16c-3-.39-2.82,3.15-4.85,4-6.23.15-11.85,2.55-17.65,4.48S88,80.83,82.2,82.61l-.09-2.22,0,0c1.89-.37,2.91-2,4-3.22,12.6-14.44,29-23.17,46.12-30.79,4.42-2,9.13-3.09,13.68-4.67,6.37-2.22,12.61-4.71,19.42-5.43a104.13,104.13,0,0,0,13.46-2.56A111.45,111.45,0,0,1,195.65,31a361.37,361.37,0,0,1,42.41-.63c-2.78,3.2-7.11,2.79-10.53,3.57a113.84,113.84,0,0,0-38,16.78c-1.6,1.07-2.83,2.69-5,3.48-1.19-3.54-.08-6.57,1.61-9.62-5.29.39-10.28,6.05-17.07,19-3.88,2.82-8.79,2.69-13,4.54A2,2,0,0,1,153.79,67.33Z"/><path class="cls-2" d="M238.06,30.37a361.37,361.37,0,0,0-42.41.63,111.45,111.45,0,0,0-16.89,2.75,104.13,104.13,0,0,1-13.46,2.56c-6.81.72-13.05,3.21-19.42,5.43-4.55,1.58-9.26,2.7-13.68,4.67C115.06,54,98.68,62.76,86.08,77.2c-1.1,1.26-2.12,2.85-4,3.22,3.22-8.12,9.31-14,15.63-19.61C117.82,43,142.22,34.29,167.88,28.56c20.79-4.65,41.92-6.28,63.23-6.07,5.49.05,10.88,1,16.79,1l-1,5.86C244,30.87,241,30.15,238.06,30.37Z"/><path class="cls-3" d="M104.16,16.43c.15.62.07,1.37.77,1.73,6.31,3.23,9.86,8.69,12.23,15.09A5.21,5.21,0,0,1,114.43,37,98.71,98.71,0,0,0,94.82,52.63a6.88,6.88,0,0,1-.2-5.19c3-9,1-17.67-1.5-26.28-.57-1.91-1.12-3.8-1.52-5.74,3-2.18,6.11-1.36,9,.11A6.5,6.5,0,0,0,104.16,16.43Z"/><path class="cls-2" d="M116.29,70.46c2-.83,1.83-4.37,4.85-4l0,0c.07,4.31,3.07,1.69,4.72,2.33l5.45-6.84c1.69,2.88-.2,4.73-.68,6.72a52.12,52.12,0,0,0-3.77,15.47h-8c.72-5.29,4.51-9.28,6.42-14.21-2-1.1-3.6.34-5.36.29-2.81,4.47-3.61,9.61-5.39,14.35-2.08,1.34-4.26.56-6.82,1.12C109.17,79.39,113.7,75.46,116.29,70.46Z"/><path class="cls-2" d="M281,27.85c-7.76-.29-15.43,2.67-23.7,1.09-1.17.57-2.33,2.22-4.75,2.27a3.79,3.79,0,0,1-3.4-3.65c.35-2.25,2.34-2.08,2.51-3.4C261.75,24.21,271.28,26.31,281,27.85Z"/><path class="cls-2" d="M279.78,32.49c-4,5.9-4,5.9-9.23,5.28C273.13,35,275.41,32.32,279.78,32.49Z"/><path class="cls-2" d="M82.11,80.39l.09,2.22c-.37.37-.83.43-1-.06A1.53,1.53,0,0,1,82.11,80.39Z"/><path class="cls-4" d="M145.84,112.7c10.2-1.52,34,6.41,40,14.37-8,3.27-16.39,5.26-24.06,9.07s-15.45,7-21.75,12.66c-.14,3.09,2.19,4.14,3.84,6.24,14.79-10.22,30.28-18.5,47.36-23.34a3.79,3.79,0,0,1,2.6,2.76c-7.57,3.57-15.34,6.87-22.33,11.71a74.87,74.87,0,0,0-18,17.59c-1.62,4.76.71,8.45,2.71,12.33-12.44-6.2-21.15-15.29-24.27-29.34C129.19,134,135.68,119.8,145.84,112.7Zm2,4.71c-7.57,7.07-12.09,14.86-10.38,25.91,11.33-8.21,23.79-13.23,36.94-18.37A55.42,55.42,0,0,0,147.84,117.41Z"/><path class="cls-3" d="M139.16,198.41c2.14,7.23,7.68,11.77,13.13,17.33-2.13,6.8-2.7,14.14-2.46,22C140.33,222.23,136.41,208.46,139.16,198.41Z"/><path class="cls-3" d="M161.39,174.3c-3.67-4.05-3.67-4.05-3-10.72a100.78,100.78,0,0,1,24.51-18.66C174.92,154.17,166.17,162.71,161.39,174.3Z"/><path class="cls-4" d="M89.9,138.54c.68,2.68,3.52,4.29,4,8.3-8.63-9-14.61-18.16-16.9-29.9,1.84-.53,3.19-2.12,5.12-.68-.18,5.08,1.94,9.65,3.26,14.39C86.2,133.62,87.29,136.54,89.9,138.54Z"/><path class="cls-3" d="M89.9,138.54c-2.61-2-3.7-4.92-4.53-7.89-1.32-4.74-3.44-9.31-3.26-14.39,1.29,0,2.61-.47,4.45.65C87.38,123.87,88,131.32,89.9,138.54Z"/><path class="cls-4" d="M142,68.44l4.15,0a109.19,109.19,0,0,1-2.76,11.25c-.59,1.89-1.5,2.86-4.06,2.29C139.4,77.37,139.65,72.74,142,68.44Z"/><path class="cls-4" d="M254.18,53.63c-1.05-1.79-1.06-2.58-.68-3.61,2.72-1.32,5,1.85,8.35-.2C259.73,55.07,255.83,49.79,254.18,53.63Z"/><path class="cls-4" d="M256.42,54.94a3,3,0,0,1,.23,3.1c-2.43.8-5,.31-7.6.33-.47-1.64.87-1.95,1.57-2.59,1.38-.47,1.45,1.19,2.5,1.34C254.53,57,254.52,54.93,256.42,54.94Z"/><path class="cls-4" d="M240.21,57.08c.46-2.38,1.9-3.17,3.31-4,1.23,1.09,1.9,2.28,1.34,3.91C243.44,57.91,242,57.37,240.21,57.08Z"/><path class="cls-4" d="M239.12,46.38a4.93,4.93,0,0,1,3.62.53c.47,1.8-1.1,2.15-2,3C239.06,49.36,239,48.09,239.12,46.38Z"/><path class="cls-4" d="M250.65,48.89a12.23,12.23,0,0,1-1.39,1.84,5,5,0,0,1-1.2.56c-1.25-.65-1.17-1.86-1.79-2.79C247.88,47.73,248.9,48.7,250.65,48.89Z"/><polygon class="cls-2" points="121.14 66.48 121.26 66.32 121.12 66.45 121.14 66.48"/><path class="cls-2" d="M147.84,117.41A55.42,55.42,0,0,1,174.4,125c-13.15,5.14-25.61,10.16-36.94,18.37C135.75,132.27,140.27,124.48,147.84,117.41Z"/><path class="cls-2" d="M93.7,2c9,0,20.27.35,21,.4,4.14.33,7.81,2.14,11.64,3.49,6.71,2.37,12,7.1,18,10.66,3.34-1,6.57-2.1,9.83-3.05a218.76,218.76,0,0,1,49.73-8.71c7.71-.39,15.45-.63,23.2-.63,9,0,18.08.33,27.13,1.12A292.21,292.21,0,0,1,294,11.61c7.68,1.75,16.06,2.43,21.75,9.15l.38-.32v11a1.69,1.69,0,0,0-1-.38c-.83,0-1.19,1.06-1.63,1.6a67.87,67.87,0,0,1-29.89,20.82c-3.81,1.39-7.52,3.14-11.75,3.15,3,10.45.91,11.66-6.77,17.83-8,6.45-17.65,10.36-27.31,14.06-7.85,3-16,5.22-24.09,8.43a132.65,132.65,0,0,1,3.61,17.62c8.65-.66,17-2.2,25.4-2.2,1,0,2,0,3,.07,1.47.07,2.95.09,4.42.09,2.75,0,5.51-.07,8.28-.07a53.68,53.68,0,0,1,15,1.68c-13,6.84-22.9,17.38-34.39,26.35a12.87,12.87,0,0,0-5.23-1.15c-3.34,0-6.53,1.39-9.72,3.57a271.69,271.69,0,0,0-31.63,25.31c-9.39,8.78-16.94,18.64-21.2,30.78a171.73,171.73,0,0,0-8.19,32.65c-1.86,13.07-3.45,26.14-4.07,39.33-.06,1.4-.7,2.77-1.35,5.19-22.56-28.73-35.92-60-36.76-96.25-1.92-1.62-4.43-2.38-7.07-3.6-2.22,3.68-3.78,7.78-6.94,11.77-2.37-5.7-4.77-10.89-6.67-16.26a21.18,21.18,0,0,0-7.41-10.15c-9.29-7-15.84-16.18-21.5-26.08-1.9-3.34-2.93-7.18-4.44-11a11.55,11.55,0,0,0-2-.18c-3.71,0-7.25,1.71-10.89,2.25-7.76,1.15-15.8,1.94-23.17,4.23-8.81,2.75-18.15,2.87-26.67,6.46a1.83,1.83,0,0,1-.74.12c-.36,0-.74-.05-1.11-.05H2.19c-.07,0-.07,0-.15-.05-.36-.08,2.09-3,2.75-3.72,7.6-7.75,16.66-13.64,25.91-19A295.66,295.66,0,0,1,63.92,98c.64-9.26,4.2-17.18,8.44-24.73C79.2,61.13,83.2,48.26,82,34.29,81.21,25,78.79,16.09,70.93,9.83c-.89-.72-.8-1.76-.71-3a40.84,40.84,0,0,1,12.7-4.45A83.66,83.66,0,0,1,93.7,2m0-2C84.79,0,83.09.34,82.53.45A42.75,42.75,0,0,0,69.21,5.13l-.91.53-.08,1.06V6.8c-.1,1.37-.23,3.24,1.47,4.59C75.88,16.33,79.06,23.44,80,34.46c1.06,12.35-2,24.74-9.39,37.87C66.87,79,63,87.08,62,96.67a298.38,298.38,0,0,0-32.34,16.24c-8.49,5-18.25,11.12-26.33,19.36-.39.4-1.17,1.31-1.81,2.13-1.13,1.44-1.8,2.38-1.46,3.52l.33,1.13.92.23a2.22,2.22,0,0,0,.85.16h.08l.42,0,.69,0a3.8,3.8,0,0,0,1.51-.28c4.66-2,9.55-2.83,14.72-3.76a95.17,95.17,0,0,0,11.78-2.63c5.74-1.79,12-2.66,18.16-3.5,1.57-.21,3.14-.43,4.7-.66a36.24,36.24,0,0,0,4.65-1.1,22.57,22.57,0,0,1,5.95-1.13l.57,0c.31.82.6,1.65.89,2.45a47.06,47.06,0,0,0,3.26,7.69c4.72,8.28,11.5,18.79,22,26.69a19.17,19.17,0,0,1,6.73,9.21c1.33,3.79,2.89,7.43,4.54,11.27.72,1.67,1.44,3.36,2.16,5.09l1.3,3.14,2.12-2.66a48.65,48.65,0,0,0,5-8.16c.41-.79.81-1.56,1.21-2.3l.46.19a22.06,22.06,0,0,1,3.8,1.87c1,34.36,13.16,65.92,37.16,96.48l2.47,3.14,1-3.86c.22-.81.44-1.52.64-2.14a13.44,13.44,0,0,0,.78-3.48c.66-14.08,2.42-27.69,4.05-39.14a169.36,169.36,0,0,1,8.1-32.27c3.79-10.8,10.36-20.33,20.68-30a266.06,266.06,0,0,1,31.4-25.13c3.2-2.2,5.92-3.22,8.58-3.22a10.75,10.75,0,0,1,4.42,1l1.1.48.94-.73c3.67-2.87,7.21-5.92,10.64-8.87,7.59-6.54,14.76-12.71,23.45-17.29l4.4-2.32L274,112.22a56.31,56.31,0,0,0-15.53-1.76c-1.4,0-2.79,0-4.18,0s-2.73,0-4.1,0c-1.65,0-3,0-4.32-.09-1,0-2-.07-3.11-.07a140.89,140.89,0,0,0-16.11,1.24c-2.48.29-5,.58-7.59.81a130.25,130.25,0,0,0-2.9-14.26c3.7-1.4,7.44-2.64,11.07-3.83s7.59-2.51,11.33-3.94c10-3.85,19.73-7.84,27.85-14.37l.83-.67c7.09-5.68,9.4-8,7.24-16.91a36.23,36.23,0,0,0,8-2.36c.64-.24,1.28-.49,1.93-.72a70.19,70.19,0,0,0,30.74-21.43c.14-.18.26-.35.37-.52l2.68,1.92V16.12L315.91,18c-5.08-5-11.57-6.29-17.86-7.58-1.19-.24-2.42-.49-3.6-.76a294.26,294.26,0,0,0-40.07-6.37c-8.65-.76-17.58-1.13-27.3-1.13-7.27,0-14.89.21-23.3.64a221.35,221.35,0,0,0-50.18,8.78c-2.26.65-4.53,1.37-6.73,2.07l-2.29.72c-1.66-1-3.31-2.15-4.91-3.25C135.77,8.44,131.73,5.68,127,4c-.88-.31-1.78-.66-2.65-1a33.92,33.92,0,0,0-9.49-2.6C114.05.35,102.7,0,93.7,0Z"/></svg>