<svg xmlns="http://www.w3.org/2000/svg" viewBox="0 0 1009.5 887.94"><script xmlns=""/><defs><style>.cls-1{fill:#fff;}.cls-2{fill:#65b2e8;}.cls-3{fill:#ffc629;}</style></defs><title>Asset 1</title><g id="Layer_2" data-name="Layer 2"><g id="Layer_1-2" data-name="Layer 1"><path class="cls-1" d="M984.9,48.31C825.26-.23,616.85-2.8,456.62,52.48,361-27.39,255.62,2.66,216.16,21.71c0,0,78.33,58,22.72,189.5-10.09,23.86-35.63,58.34-39.41,103.22C19.83,393.4,0,442.28,0,442.28c99-25.21,209.32-44.08,209.32-44.08,28.1,88.23,96.85,128.5,99.14,134.09,33.75,82.32,29.76,73.93,30.79,72C363,560,360.08,564.17,361.93,565.16c10.7,5.72,17.17,8.84,21.08,10.66.61,182.85,119.65,312.42,119.68,312.12,6.91-86.91,14.69-207.78,60-289.22,38.47-66.29,145.81-137.88,164.89-148.67A31.07,31.07,0,0,1,754,447.94c10.18,3.37,8.37,3.22,9.84,1.85,63.34-59,113.34-86.1,113.34-86.1-107.23-8.41-167.8,1-185.8,4.53-.6-17-4-36.45-11.63-58.2,237.9-73.61,191.89-121.32,183.71-128,54.34-8.83,106-40.33,138-78.47A34.55,34.55,0,0,0,984.9,48.31ZM435.2,460.05c-9.19-52.28,34.92-84.3,34.92-84.3,48.25,2.78,77.85,20.36,85.13,25.16C515.65,414.48,472.31,433.62,435.2,460.05Z"/><path class="cls-1" d="M200.16,313.83h0C200.19,313.59,200.17,313.71,200.16,313.83Z"/><path class="cls-2" d="M337.68,274.57c12.65-24.55,32.54-51.65,48.6-70.76C379,220,368.37,247.06,362.47,271.4,354.57,272.19,346.29,273.25,337.68,274.57Zm63.29-5c3.57-29.94,16.42-65.66,28.82-91.12-18.74,22.38-43.34,57.92-55.55,91.9C383.91,269.7,392.87,269.44,401,269.6Zm585-179c-18.94,22.64-66.26,64.23-133.09,72.51l-19.2,19.48c10.24,7,14.89,14.15,14.53,17.11-2.64,21.77-15.1,42.32-199.38,93.49,33.37,50.4,35,112.59,11.42,166.54l.06.15s26.57-24.6,30.64-73.36c47.64-7.22,93.28-9.76,131.09-7.91-24.17,15.09-55.9,44.9-62.32,51a2.77,2.77,0,0,1-2.71.63,49,49,0,0,0-39.8,5.73c-133,83.55-170.59,155.83-170.59,155.83-49.21,82.86-58.72,246.95-58.72,246.95-56.58-78.12-89.11-174.46-86.9-274.22a477.91,477.91,0,0,1-47.11-24.34l-13,24.28-18.45-45c-66.25-48.56-91-102.27-100.74-143-65.36,11.65-136.27,31.69-186.2,45.84,40.89-41.87,233-128.54,411-140.46-3.47-5.71-13.73-9.51-28.93-11.25-1.7-.2-3.48-.37-5.29-.51,8.75-42,36-87,61.07-117-14.52,28-31.19,74.38-31.94,111.46q6.38-2.17,12.56-4.21c7.17-48.5,33.55-97.33,62.89-132.59-19,34.92-34.32,81.45-33.64,123.44,122.14-36.17,185.29-30.78,185.51-30.81,60.54,23.79,138,2.62,152.47-18.1-21.14-2.62-70.42-17.71-80.72-26.05,2.66.64,8.49,1.78,15.71,3.41l-5.76-19.08-16.17,12.65-6.44-17.66-12.62,9a83.22,83.22,0,0,1-13-9c-8.74.28-39,11.8-39,11.8,89-64.6,80.17-30.11,161-26.2,20.77,1,44-.35,66.72-8.78,23.44-8.69,42.06-21.15,53.55-34.65A9.15,9.15,0,0,0,939.87,83C726.75,24.16,548.64,51.17,423.34,105.73a64.42,64.42,0,0,1,10.09-14.18C378,35.33,301.25,38.67,284.23,41.7c.14.38,33,58.91,10.56,129.49,22.53-22.91,48.66-42.8,77.56-59.82-8.39-40.17-45.46-59.25-62.41-66,31.31,6.45,81.47,23.83,93,69.68-75.71,36.42-129.76,82.62-157.61,123.76C325.49,92.24,252.59,30.4,252.59,30.4c.18,0,101.77-43.74,198.48,43.9,158.34-59,364.52-55.41,528-6.72A14.38,14.38,0,0,1,986,90.61ZM619.1,430.68c-2.68-3-5.76-6.29-8.79-9.33-68.18,21.82-124,52.36-152.88,76.78-5.51-4-11.33-10.35-16.1-20.41,41.77-30.84,96.24-54.12,153.4-70.41-35.52-28.84-81-45.94-131.54-47C382.81,421.7,412,530.61,503.92,569.47c0,0-27.77-23.67-15.52-45.11l0-.12C517.44,481.37,567,451.29,619.1,430.68Zm179-348.92A4.7,4.7,0,0,1,795,80.58a13.41,13.41,0,0,0-1.19,5.18,12.84,12.84,0,0,0,12.91,13.3,13.77,13.77,0,0,0,13.5-11.54,11.8,11.8,0,0,1,5.43,6.84c24.71-2.38,53.71-4.43,77.52-5.91-28.45-5.37-57.45-9.49-86.66-12.34a13.08,13.08,0,0,0-15-2.24,4.68,4.68,0,0,1-3.43,7.89ZM245.66,275.38C357.55,127.91,578.4,86.62,790.85,94.42a15.65,15.65,0,0,1-2.08-9.85A16.73,16.73,0,0,1,794,74.19C561,56.74,320.5,120.25,245.66,275.38ZM901.34,102.63c-27.25-3.93-28.82,14.23-41.94,17.52C895.39,124.91,876.08,105.73,901.34,102.63Z"/><path class="cls-3" d="M284.23,41.7c.49-.09,1-.17,1.62-.26C284.8,41.59,284.23,41.7,284.23,41.7Z"/><path class="cls-1" d="M288.86,455.15c-19.94-26.67-28.42-60.3-32-84.1-4.9.68-7.48,1-15.2,2.16,6.13,30.34,20.81,65.59,59.17,100.58a216,216,0,0,1-12.12-19.23C288.74,454.76,288.8,455,288.86,455.15Z"/><path class="cls-1" d="M687.31,408.85a657.61,657.61,0,0,1,82-15.45,528.5,528.5,0,0,0-80.42,8.33Q688.19,405.41,687.31,408.85Z"/><path class="cls-3" d="M602,449.25S515,525,514.18,560.61c-13.95-12.61-13.53-26.4-13.53-26.4C509.85,504.15,602,449.25,602,449.25Zm-166.95,166a265.94,265.94,0,0,0,38.69,148.4c-.68-26.44,2.69-51.49,9.79-70.64C458.64,673.56,442.21,646.54,435.09,615.23Zm-140.3-444c22.53-22.91,48.66-42.8,77.56-59.82-8.39-40.18-45.47-59.26-62.41-66a194.67,194.67,0,0,0-25.71-3.68C284.37,42.08,317.21,100.61,294.79,171.19ZM245.66,275.38c44.94-33.55,86.32-46.45,124.83-51.7,5.41-7.19,10.79-13.92,15.79-19.87-2.37,5.28-5.11,11.74-7.92,18.88,7-.78,13.87-1.33,20.67-1.74a388.63,388.63,0,0,1,30.76-42.47,357.49,357.49,0,0,0-17,41.82c5.86-.22,11.65-.36,17.38-.49a338.34,338.34,0,0,1,43.18-66.66,329.37,329.37,0,0,0-25.07,66.26c5.47-.15,10.89-.34,16.25-.61,12-33.86,31.43-65.87,52.33-91-13.93,25.63-25.9,57.52-31,89.28C503.87,215,521.31,211,538.21,203,554.8,155.25,597,133.59,597,133.59c-15.25,16.28-12.18,42.85-12.18,42.85C640,126.53,723.07,103,790.85,94.42,578.4,86.62,357.55,127.91,245.66,275.38Zm29.44,93.28q-9,1.13-18.26,2.39c3.6,23.8,12.08,57.43,32,84.1-.07-.22-.13-.45-.2-.67C275.45,427.28,273.36,394.9,275.1,368.66Z"/><path class="cls-1" d="M764.77,161.15l-4.67-15.46c5.36,1,11.38,2.51,17.53,4.16Zm20.34-9.31,4.2,14.35,11.93-10.06C796.15,154.85,785.37,151.91,785.11,151.84Zm20.51,5.38,4.15,13.47,10.14-10.62C815.29,159.36,810.51,158.39,805.62,157.22Zm18.69,3.45L825.77,171l9.77-9.72A66.26,66.26,0,0,1,824.31,160.67Zm-18.45,26-3.75-12.24-12.26,11.28c11,1.38,21.71,1.87,29.54.3l-1.92-13.34Zm-28.32-20-15.95,14.13c6.61,1.43,14.18,2.89,21.84,4Z"/></g></g></svg>