<?xml version="1.0" encoding="UTF-8"?>
<svg width="200px" height="200px" viewBox="0 0 200 200" version="1.1" xmlns="http://www.w3.org/2000/svg" xmlns:xlink="http://www.w3.org/1999/xlink">
    <!-- Generator: Sketch 54.1 (76490) - https://sketchapp.com -->
    <title>monmouth</title>
    <desc>Created with Sketch.</desc>
    <g id="monmouth" stroke="none" stroke-width="1" fill="none" fill-rule="evenodd">
        <g id="monmouth_BGD">
            <g id="monmouth" transform="translate(0.000000, 22.000000)">
                <g id="g10" transform="translate(99.899293, 77.929508) scale(-1, 1) rotate(-180.000000) translate(-99.899293, -77.929508) translate(0.000000, 0.185301)" fill-rule="nonzero">
                    <g id="g12">
                        <path d="M175.781667,59.962214 C175.537559,61.7497668 175.176632,63.5520629 175.176632,63.5520629 L175.875121,72.889263 C177.071496,91.6197359 164.443098,101.814298 160.442292,104.556694 C156.352866,112.181266 150.758506,117.855385 146.492645,121.450148 C147.357902,121.904529 148.027388,122.254176 148.37623,122.436251 L153.00624,124.846724 L149.898888,129.046522 C139.125878,143.565757 123.414297,146.42336 115.129906,146.848738 C115.422354,147.830006 115.610873,148.402816 115.614096,148.411678 L117.305939,153.481567 L112.012887,154.236451 C108.135345,154.787509 104.379454,155.067066 100.848336,155.067066 C87.1605215,155.067066 78.5476718,150.857599 73.7330092,147.325676 C73.4922842,147.149241 73.2575208,146.972 73.0296054,146.79476 L72.7149227,149.284991 L67.3577425,147.128294 C60.1155272,144.223159 55.8374206,139.621346 53.3166553,135.34904 L49.4482969,131.56334 C46.3670482,128.547026 44.2702104,124.819332 43.1958096,120.460017 C38.6665851,118.268678 33.0576427,114.242897 28.7355481,106.908356 C28.3276529,106.25901 27.5581866,104.939373 26.7299087,103.028396 C24.4574415,97.9141969 21.2292442,87.351458 25.1353065,74.0729085 C26.286807,70.1592732 28.0853165,66.2575613 30.336112,62.7882361 L32.324108,59.962214 L8.72136937,59.962214 L0,24.8757295 L43.7163332,24.8757295 L43.980019,20.791782 L49.5116201,22.6167165 C50.371318,22.9012683 52.4298073,23.5794556 55.0887398,24.4511575 C54.3567358,23.8050347 53.9319221,23.4353267 53.9164538,23.4239672 L48.0916806,18.3733329 L55.3735334,15.8446723 C62.4086993,13.3993954 69.8243688,12.1604025 77.4137342,12.1604025 C80.6767351,12.1604025 83.6696857,12.3857399 86.3266846,12.7274921 C84.1724047,9.92700882 82.3782457,7.71494039 82.3427975,7.67056577 L77.1777624,1.31231417 L85.3188297,0.429569375 C87.9274902,0.144133733 90.5442072,0 93.0972786,0 C104.530108,0 115.088013,2.79802611 124.47613,8.31661611 C128.038667,10.4087812 130.902716,12.5865052 133.129503,14.5474317 C133.719231,12.0096674 134.098687,10.433031 134.206643,9.98171173 L135.654377,4.01057795 L140.8862,7.24256981 C148.446321,11.9259614 154.311376,17.8505534 158.349241,24.8757295 L190.899492,24.8757295 L199.619733,59.962214 L175.781667,59.962214" id="path14" fill="#FFFFFF"></path>
                        <path d="M172.070892,55.8421738 C171.384487,65.8491021 167.935545,72.6412872 166.251758,75.4056779 C171.090429,72.9424352 171.722856,72.6686789 171.722856,72.6686789 L171.762332,73.1530294 C172.957901,91.8525657 158.374216,101.038467 157.289825,101.693452 C151.369181,113.360722 141.373612,120.4004 138.854377,122.04471 C142.191336,123.856593 145.762736,125.720037 146.474115,126.091437 L146.825374,126.274317 L146.589322,126.590933 C135.740581,141.214095 119.253975,142.793148 112.668678,142.793148 C111.328094,142.793148 110.325878,142.730309 109.747429,142.681165 C110.730309,146.771396 111.696271,149.687005 111.705939,149.716814 L111.83323,150.099493 L111.433633,150.156693 C107.749443,150.681164 104.187711,150.947025 100.848336,150.947025 C88.2763321,150.947025 80.4884572,147.170993 76.1694241,144.003219 C72.8269871,141.551658 70.9827978,139.070289 70.1837646,137.818325 C69.5590718,141.419533 69.3592732,142.966361 69.3510557,143.034035 L69.2969167,143.468274 L68.8912772,143.30473 C56.8117609,138.458808 54.3882363,128.23766 53.9278134,125.19476 C53.3267258,127.023562 52.9090823,128.409262 52.8892635,128.474518 L52.7294247,129.008657 L52.3307137,128.619534 C49.3743391,125.724871 47.5173402,122.002011 46.8092637,117.552464 C42.59158,115.874317 36.6748833,112.295667 32.2539368,104.762132 C31.9867061,104.340783 31.2808049,103.166966 30.4956286,101.355083 C28.4526075,96.756493 25.5535945,87.2491418 29.0880154,75.2356879 C30.1264846,71.7060204 31.7273708,68.2127677 33.7918219,65.0321031 L38.6901904,58.0803208 L44.2279949,73.8683567 L63.1391726,73.8683567 C63.8198574,72.8766951 63.724228,70.9591926 59.7969774,67.3596761 C59.7969774,67.3596761 55.1230601,63.1099279 55.0692433,63.0630397 C53.5668063,61.7337346 51.033473,59.2356078 48.81732,55.8421738 L11.9426382,55.8421738 L5.2697038,28.9967364 L47.6592133,28.9967364 C47.6583271,28.2716609 47.6733926,27.5431212 47.7202808,26.8092642 L47.7479948,26.3742994 L48.2184882,26.5288211 C49.279032,26.8794354 52.1519423,27.8266257 55.7288204,28.9967364 L66.2059198,28.9967364 C61.0051948,24.1169782 56.6742383,20.360926 56.615346,20.3093651 L56.1741779,19.928217 L56.7252352,19.7365554 C63.324228,17.4437055 70.2844695,16.2805233 77.4134925,16.2805233 C86.247732,16.2805233 92.9957681,18.0664648 95.8670671,18.9790932 C92.7218507,13.9230611 85.6136937,5.16332716 85.5411862,5.07237852 L85.1496454,4.5921449 L85.7659596,4.5254299 C88.2287994,4.25698277 90.6948618,4.12071692 93.0972786,4.12071692 C103.785697,4.12071692 113.641085,6.72708946 122.389524,11.8686805 C129.990732,16.3353067 134.095465,21.1562532 135.445717,22.9270488 C137.040883,15.8024568 138.093854,11.4391135 138.211477,10.9525878 L138.320238,10.5016714 L138.716613,10.7455385 C147.610067,16.2547428 152.829805,22.9116611 155.890429,28.9967364 L187.678545,28.9967364 L194.351657,55.8421738 L172.070892,55.8421738" id="path16" fill="#15213B"></path>
                        <path d="M65.8031001,78.0853153 L85.1778428,78.0853153 C85.0964732,78.1734522 85.0070472,78.2599779 84.9055366,78.3440061 C84.0894239,79.0159094 82.6151037,79.5519013 80.7000987,79.976715 C79.2717805,80.2930091 77.5991119,80.5479134 75.7732106,80.7524653 C70.7288603,81.3188298 64.5175412,81.4984874 59.0599784,81.5170171 C58.2848727,81.5202397 57.5257992,81.519434 56.7871889,81.5162115 C55.1469875,81.5097663 53.6108748,81.4912366 52.2350037,81.4662618 C50.746182,81.3977825 48.3908951,81.3655569 47.6139364,81.2149023 C47.6139364,81.2149023 45.5689817,81.0988902 44.9914994,78.0853153 L54.3819523,78.0853153 L55.4849533,78.0853153 L61.7037648,78.0853153 C61.7463026,78.0875711 61.7884375,78.0922438 61.8309753,78.0948218 C62.9405825,78.143563 64.2783468,78.127853 65.8031001,78.0853153" id="path18" fill="#4C4E56"></path>
                        <path d="M56.0781456,108.435848 C56.0781456,108.435848 56.3982262,107.155687 57.439918,105.658003 C58.229203,104.523663 59.4319421,103.262837 61.2264234,102.338769 C61.2264234,102.338769 61.151499,102.149444 60.9956883,101.92467 C60.701791,101.500904 60.1148827,100.94743 59.1638253,101.287409 C59.1015494,101.309162 59.0449129,101.33897 58.9841677,101.362334 C57.9751849,101.753875 57.1094447,102.352465 56.4297267,103.057399 C55.894057,103.611679 55.4689211,104.227993 55.1922645,104.86042 C55.1922645,104.86042 53.6074105,107.766362 56.0781456,108.435848 Z M55.9825162,85.4340361 C60.4569572,85.5355467 65.8940568,85.5677723 71.2814484,85.369585 C75.536272,85.2140966 79.7566949,84.9152043 83.4481349,84.3955669 C84.5679737,84.2384672 85.6370573,84.0604209 86.6457179,83.8598166 C87.5609243,83.6785478 88.4253754,83.4787492 89.2261811,83.2571983 C89.2092626,83.5770372 89.1746201,83.9500483 89.1133915,84.3641469 C88.8757279,85.950451 88.2271881,88.1377621 86.5087592,90.1703905 C83.8984873,93.2592122 78.8198973,95.9927468 68.9640265,95.7252745 C68.9640265,95.7252745 69.8004414,99.8195343 68.8805622,104.127288 C68.7474706,104.750048 68.577239,105.375224 68.3632611,105.994761 C68.2184877,106.413693 68.0532511,106.829403 67.8656982,107.237862 C67.2963528,108.477741 66.5172189,109.652364 65.4616701,110.664247 C64.6022139,111.487611 63.5586691,112.201407 62.2954264,112.75327 C60.5299481,113.523461 58.3352251,113.973814 55.6111164,113.95609 C55.560764,113.95609 55.512345,113.957701 55.4619926,113.956895 C55.4619926,113.956895 55.0462826,113.957701 54.3240268,113.877943 C53.7219725,113.811075 52.9062625,113.687812 51.9404619,113.459816 C50.5101297,113.122253 48.7494046,112.550249 46.8636443,111.596372 C43.4431409,109.86747 39.6110363,106.874519 36.5813485,101.673311 C36.5813485,101.673311 27.1639067,87.5158085 37.5383676,68.6911564 C37.7615298,70.4733114 38.4834633,75.3291421 40.1120634,79.2906325 C41.3585488,82.3226566 43.1363534,84.8306122 45.6290824,85.0312164 C45.6290824,85.0312164 49.9219323,85.2970774 55.9825162,85.4340361 L55.9825162,85.4340361 Z" id="path20" fill="#9FA7AA"></path>
                        <path d="M66.2418513,115.544811 C67.5987899,114.761729 68.893533,113.770793 69.9618915,112.518829 C76.7834019,129.292242 92.5768356,127.343401 92.5768356,127.343401 C91.9830793,125.430007 91.568175,122.578043 91.2862011,119.941185 C102.557903,128.263441 113.875526,122.234841 113.875526,122.234841 C113.4719,121.722454 113.049745,121.108557 112.622756,120.435042 C111.702716,118.982474 110.758507,117.24471 109.919836,115.59476 C109.84894,115.454579 109.778044,115.316009 109.708759,115.178245 C112.451961,113.964952 114.60463,112.320642 116.270692,110.632021 C119.958104,106.889826 121.253572,102.927691 121.253572,102.927691 C120.885395,102.876936 120.487409,102.804428 120.072505,102.717419 C119.280561,102.553875 118.418527,102.332324 117.52749,102.07613 C116.492243,101.778044 115.420742,101.434841 114.383079,101.081166 C113.683784,100.842696 113.000601,100.601005 112.353673,100.365758 C116.492243,96.0346401 117.669282,91.0356473 118.001206,88.7460199 C118.116412,87.9500482 118.130108,87.4795547 118.130108,87.4795547 C116.356895,87.7421932 113.872303,87.6656574 111.481165,87.4731096 C110.849544,87.3965738 110.252565,87.2998971 109.689423,87.183885 C107.910571,86.8189304 106.462837,86.2710955 105.287409,85.6136937 C103.705939,84.7291016 102.616714,83.6463222 101.865053,82.5498469 C100.999796,81.2890211 100.584086,80.0097462 100.388316,78.9907735 C100.384288,78.9711964 100.380259,78.9523445 100.376231,78.9325257 C103.542394,77.1355469 106.406442,74.9272892 108.932928,72.6035027 C110.172807,71.4633618 111.332928,70.2951845 112.406039,69.1367556 C113.131115,68.3522239 113.816714,67.5720426 114.462837,66.8066851 C119.061427,61.3560508 121.605636,56.649344 121.605636,56.649344 C121.794962,57.3527478 121.967369,58.0472896 122.126885,58.7352251 C122.217117,59.1200791 122.301709,59.5046914 122.382273,59.8847921 C123.744609,66.334661 123.825173,72.0049932 123.387711,76.5811058 C123.386905,76.592707 123.3861,76.6046305 123.384488,76.6163123 C123.208053,78.4504311 122.949443,80.1063424 122.657802,81.5661611 C122.65619,81.5742175 122.654579,81.5830795 122.652968,81.5911359 C122.266261,83.5150029 121.823159,85.0956676 121.438063,86.285597 C138.962333,83.0598167 148.642897,72.4663023 148.642897,72.4663023 C144.423763,86.7198367 133.281769,95.5738143 124.074921,100.666261 C127.539977,101.759514 138.255787,104.841891 147.535142,104.350451 C147.535142,104.350451 141.845716,115.967772 126.239675,122.602212 C131.198385,125.416311 135.769584,128.033028 135.769584,128.033028 C122.021346,140.744407 100.491438,135.8147 100.491438,135.8147 C101.528296,141.521849 102.307349,144.116008 102.307349,144.116008 C79.306423,145.672504 68.6703709,126.217922 68.6703709,126.217922 C66.8526872,128.161125 65.5576217,133.653975 65.5576217,133.653975 C59.2708142,130.060823 58.3009049,122.83907 58.2455575,119.113794 C58.2414487,118.803622 58.2424155,118.516815 58.2480549,118.25901 C60.0764537,117.964952 63.3021535,117.241488 66.2418513,115.544811" id="path22" fill="#20335C"></path>
                        <path d="M147.274115,86.0938548 C157.673309,72.886121 158.664246,59.9427175 158.664246,59.9427175 C160.762131,58.4878132 162.634437,57.0351647 164.09909,55.8421738 L167.095263,55.8421738 C164.627589,77.798991 147.274115,86.0938548 147.274115,86.0938548" id="path24" fill="#20335C"></path>
                        <path d="M156.766965,86.1486383 C161.457398,84.1836837 165.190731,81.7917402 165.190731,81.7917402 C160.978848,98.9929482 144.642897,98.9478336 144.642897,98.9478336 C154.213893,92.276332 156.766965,86.1486383 156.766965,86.1486383" id="path26" fill="#20335C"></path>
                        <path d="M129.102917,65.3895653 C129.033632,64.408377 128.938567,63.4538554 128.822555,62.52737 C128.517217,60.1054567 128.062837,57.8738354 127.52467,55.8421738 L133.152867,55.8421738 C132.215102,58.83593 130.884992,62.0150639 129.102917,65.3895653" id="path28" fill="#20335C"></path>
                        <path d="M108.969987,25.8981665 C108.166765,23.7003015 107.151659,21.4001203 105.87472,19.0533731 C104.472102,16.4743601 102.751256,13.8393551 100.641287,11.2210269 C100.659816,11.2257802 100.676735,11.2298889 100.694459,11.2345617 C100.871699,11.2814499 101.056191,11.3321246 101.247933,11.3844106 C101.435647,11.4359715 101.629,11.4901105 101.828799,11.5464247 C106.307349,12.8210269 114.035848,15.5095263 120.903119,20.337643 C124.2433,22.6869682 127.369181,25.5506942 129.826381,28.9967364 L109.979453,28.9967364 C109.683784,27.9896871 109.358305,26.9599993 108.969987,25.8981665" id="path30" fill="#20335C"></path>
                        <path d="M71.2575209,23.3078745 C71.2575209,23.3078745 74.5373597,23.2644506 79.3564532,23.8025372 C83.2491419,24.2368574 88.1458185,25.0522451 93.1303099,26.5722451 C95.3047307,27.2353669 97.4920419,28.0378644 99.6237639,28.9967364 L77.8320222,28.9967364 C75.8166346,27.1216912 73.6405218,25.2252964 71.2575209,23.3078745" id="path32" fill="#20335C"></path>
                        <path d="M113.247127,57.9383671 C111.595566,60.337642 109.860219,62.4395553 108.133733,64.2708544 C107.622152,64.8127275 107.112988,65.3310759 106.60463,65.826383 C104.48177,67.9000184 102.41611,69.5679338 100.582475,70.8786286 C100.54461,67.3917405 99.9057377,62.1937547 97.371196,55.8421738 L114.611075,55.8421738 C114.163945,56.5615293 113.71037,57.2664638 113.247127,57.9383671" id="path34" fill="#20335C"></path>
                        <path d="M129.327691,78.200844 C132.449544,74.6723848 138.1148,67.0027778 140.48338,55.8421738 L152.315807,55.8421738 C147.926683,67.5585079 135.585092,75.0459599 129.327691,78.200844" id="path36" fill="#20335C"></path>
                        <path d="M141.528295,27.6986096 C141.786905,26.262235 142.036653,24.7139571 142.274317,23.0475724 C142.328295,22.6739974 142.380661,22.29293 142.432222,21.9077537 C144.560721,24.3479551 146.332323,26.7079147 147.817922,28.9967364 L141.284186,28.9967364 C141.366361,28.5681362 141.448536,28.1488815 141.528295,27.6986096" id="path38" fill="#20335C"></path>
                        <path d="M91.4763321,61.565356 C90.7061407,61.4951848 89.9536735,61.4067256 89.2108739,61.3081958 C83.8348418,60.5923046 79.2078933,59.1588303 75.2485782,57.3130298 C74.2503909,56.8482564 73.2990113,56.3554467 72.3845299,55.8421738 L89.5830793,55.8421738 C89.8626362,56.4561517 90.1164127,57.0465243 90.3218507,57.5862221 C91.2362515,59.9814688 91.4763321,61.565356 91.4763321,61.565356" id="path40" fill="#20335C"></path>
                        <path d="M62.1503308,61.6081354 C62.1503308,61.6081354 62.0974808,61.579213 62.0084577,61.5291022 C61.4532915,61.213211 59.2998172,59.9370781 57.0698072,57.9352251 C56.3721235,57.3083571 55.6721839,56.6034226 55.0068868,55.8421738 L58.7846108,55.8421738 C59.6110358,57.4404819 60.6605423,59.3032815 61.9977427,61.3711969 C62.0487396,61.4501495 62.0984476,61.5291022 62.1503308,61.6081354" id="path42" fill="#20335C"></path>
                        <path d="M101.629,107.117016 C101.846523,107.802616 102.033431,108.530108 102.179252,109.306744 C101.432424,109.425173 100.667873,109.497681 99.8920418,109.530712 C96.1522635,109.692646 92.1409846,108.929705 88.4382657,107.832424 C88.8491418,107.049343 89.0851941,106.159111 89.0851941,105.21329 C89.0851941,104.54461 88.9619313,103.905738 88.7484369,103.31037 C88.0322234,101.313995 86.2308136,99.8372583 84.0499475,99.6020116 C83.8493433,99.581065 83.6455165,99.5681748 83.4392728,99.5681748 C81.2519617,99.5681748 79.3595952,100.814499 78.4220726,102.633633 C78.2449124,102.977641 78.1039255,103.34179 77.9994341,103.722857 C77.5317604,103.495667 77.1047715,103.282173 76.7229789,103.087208 C76.21599,102.828598 75.7902096,102.603824 75.4569165,102.424167 C75.5866245,102.12608 75.9145198,101.454982 76.5266446,100.660622 C76.747551,100.373009 77.0040666,100.071699 77.303281,99.7655564 C79.969142,99.1419915 83.1766344,98.0986884 86.2147008,96.3617297 C86.7375608,96.3568959 87.2878125,96.3786481 87.8582053,96.4229583 C88.2400784,96.4519613 88.6332304,96.4922433 89.0376614,96.5446099 C89.5081549,96.6058385 89.988316,96.6767347 90.4902294,96.7726058 C90.4902294,96.7726058 95.1556874,97.5830791 98.6851939,101.722455 C98.8173188,101.878749 98.9494436,102.035848 99.078346,102.201004 C100.019333,103.405435 100.858004,104.870088 101.476735,106.6433 C101.529907,106.797178 101.578245,106.9575 101.629,107.117016" id="path44" fill="#FFFFFF"></path>
                        <path d="M18.5898082,44.5342184 L18.3043701,44.5342184 L15.3036854,32.4187706 L9.64592121,32.4187706 L14.6179251,52.4207036 L21.7040881,52.4207036 C22.8760518,52.4207036 23.1332119,52.0773401 23.1904929,50.8777429 L23.6476933,42.2196163 L23.9045311,42.2196163 L28.6483779,51.2490622 C29.1336146,52.1346211 29.5052561,52.4207036 30.3911372,52.4207036 L38.2776224,52.4207036 L33.3056185,32.4187706 L27.5336952,32.4187706 L30.5340576,44.5342184 L30.2479751,44.5342184 L23.9904123,33.5614896 C23.5042089,32.7042086 23.1332119,32.4187706 22.3904929,32.4187706 L20.7612482,32.4187706 C19.6755685,32.4187706 19.4470891,32.7611674 19.3611274,33.9038864 L18.5898082,44.5342184" id="path46" fill="#FFFFFF"></path>
                        <path d="M39.2374613,53.1712373 L30.3911372,53.1712373 C29.0989721,53.1712373 28.5322047,52.599475 27.9900094,51.6099886 L24.2764949,44.5421137 L23.9400598,50.9173804 C23.8736751,52.3071085 23.4764949,53.1712373 21.7040881,53.1712373 L14.6179251,53.1712373 L14.0310168,53.1712373 L13.8893854,52.6010057 L8.91746201,32.5994755 L8.68608236,31.6672701 L9.64592121,31.6672701 L15.3036854,31.6672701 L15.8912383,31.6672701 L16.0325474,32.2375017 L18.1184286,40.6605428 L18.6127689,33.8497474 C18.7134739,32.5019126 19.1084789,31.6672701 20.7612482,31.6672701 L22.3904929,31.6672701 C23.5473106,31.6672701 24.110372,32.2504725 24.6437859,33.1907343 L28.7232218,40.3448933 L26.8051554,32.5985088 L26.5747425,31.6672701 L27.5336952,31.6672701 L33.3056185,31.6672701 L33.8925268,31.6672701 L34.0341583,32.2369378 L39.0061622,52.2394347 L39.2374613,53.1712373 Z M38.2776224,52.4207036 L33.3056185,32.4187706 L27.5336952,32.4187706 L30.5340576,44.5342184 L30.2479751,44.5342184 L23.9904123,33.5614896 C23.5042089,32.7042086 23.1332119,32.4187706 22.3904929,32.4187706 L20.7612482,32.4187706 C19.6755685,32.4187706 19.4470891,32.7611674 19.3611274,33.9038864 L18.5898082,44.5342184 L18.3043701,44.5342184 L15.3036854,32.4187706 L9.64592121,32.4187706 L14.6179251,52.4207036 L21.7040881,52.4207036 C22.8760518,52.4207036 23.1332119,52.0773401 23.1904929,50.8777429 L23.6476933,42.2196163 L23.9045311,42.2196163 L28.6483779,51.2490622 C29.1336146,52.1346211 29.5052561,52.4207036 30.3911372,52.4207036 L38.2776224,52.4207036 L38.2776224,52.4207036 Z" id="path48" fill="#4C4E56"></path>
                        <path d="M43.8142184,37.3042488 C43.9857391,37.1327282 44.2428186,37.0474915 45.3002204,37.0474915 L47.2149031,37.0474915 C48.100462,37.0474915 48.4145003,37.1044502 48.6436242,37.3331713 C48.8717813,37.5613284 49.3863432,38.0479346 50.4720229,42.4194149 C51.5008245,46.6200995 51.2434227,47.3338155 51.0435435,47.5336947 C50.8720229,47.7052153 50.6149433,47.7914187 49.5578638,47.7914187 L47.6431811,47.7914187 C46.7572999,47.7914187 46.4432617,47.7341378 46.2144601,47.5053362 C45.9859807,47.2771791 45.4717411,46.7916202 44.3859808,42.4194149 C43.328579,38.2188107 43.6143393,37.504128 43.8142184,37.3042488 L43.8142184,37.3042488 Z M42.9569375,32.4187706 C40.4141782,32.4187706 39.3853767,32.9040878 38.813856,33.4759307 C37.4993747,34.7897675 36.9568571,37.5330504 38.2710162,43.0475719 C39.4713384,48.048176 40.9852961,49.8778638 41.8712578,50.7625365 C43.2143393,52.1063431 44.5858599,52.4207036 46.671741,52.4207036 L51.9008245,52.4207036 C54.443906,52.4207036 55.4727076,51.9348225 56.0441476,51.3626573 C57.3587095,50.0487399 57.9012272,47.3055376 56.5870681,41.7909355 C55.3867458,36.7893646 53.8723854,34.9616104 52.9865042,34.075407 C51.6436644,32.7322449 50.2722243,32.4187706 48.186021,32.4187706 L42.9569375,32.4187706 L42.9569375,32.4187706 Z" id="path50" fill="#FFFFFF"></path>
                        <path d="M44.3859808,37.8439467 C44.3456988,38.130996 44.3328086,39.1339366 45.1139566,42.2366153 C45.7956081,44.9804621 46.3419122,46.5716 46.7393342,46.9687803 C46.7900089,46.9986695 46.9691026,47.0405628 47.6431811,47.0405628 L49.5578638,47.0405628 C50.094742,47.0405628 50.3490018,47.016313 50.4673502,46.9945608 C50.5069877,46.692446 50.5000592,45.6885386 49.7432415,42.5972195 C49.0624761,39.8580453 48.5158497,38.2662629 48.1189917,37.8698077 C48.0677531,37.839274 47.8886594,37.7973807 47.2149031,37.7973807 L45.3002204,37.7973807 C44.7557693,37.7973807 44.502154,37.8238057 44.3859808,37.8439467 L44.3859808,37.8439467 Z M51.9008245,53.1712373 L46.671741,53.1712373 C44.539294,53.1712373 42.903443,52.8571991 41.3406636,51.2934529 C40.2882568,50.2420128 38.7496466,48.2609454 37.5409457,43.2235236 C36.3057393,38.0406838 36.5483173,34.6786698 38.2830202,32.9450143 C39.1666455,32.0613084 40.6080151,31.6672701 42.9572598,31.6672701 L48.186021,31.6672701 C50.318468,31.6672701 51.9546412,31.9822751 53.5174206,33.5451351 C54.5695052,34.5974614 56.1080349,36.5785288 57.3168163,41.6160312 C58.5520227,46.7972597 58.3094447,50.1592737 56.5747418,51.8945405 C55.6914387,52.7776019 54.2497469,53.1712373 51.9008245,53.1712373 L51.9008245,53.1712373 Z M45.3002204,37.0474915 L47.2149031,37.0474915 C48.100462,37.0474915 48.4145003,37.1044502 48.6436242,37.3331713 C48.8717813,37.5613284 49.3863432,38.0479346 50.4723452,42.4194149 C51.5008245,46.6200995 51.2434227,47.3338155 51.0435435,47.5336947 C50.8720229,47.7052153 50.6149433,47.7920633 49.5578638,47.7920633 L47.6431811,47.7920633 C46.7572999,47.7920633 46.4432617,47.7341378 46.2144601,47.5053362 C45.9859807,47.2771791 45.4717411,46.7916202 44.3859808,42.4194149 C43.328579,38.2188107 43.6143393,37.504128 43.8142184,37.3042488 C43.9857391,37.1327282 44.2428186,37.0474915 45.3002204,37.0474915 L45.3002204,37.0474915 Z M51.9008245,52.4207036 C54.443906,52.4207036 55.4727076,51.9348225 56.0441476,51.3626573 C57.3587095,50.0487399 57.9012272,47.3055376 56.5870681,41.7909355 C55.3867458,36.7893646 53.8723854,34.9616104 52.9865042,34.075407 C51.6436644,32.7322449 50.2722243,32.4187706 48.186021,32.4187706 L42.9572598,32.4187706 C40.4141782,32.4187706 39.3853767,32.9040878 38.813856,33.4759307 C37.4993747,34.7897675 36.9568571,37.5330504 38.2710162,43.0475719 C39.4713384,48.048176 40.9852961,49.8778638 41.8712578,50.7625365 C43.2143393,52.1063431 44.5858599,52.4207036 46.671741,52.4207036 L51.9008245,52.4207036 L51.9008245,52.4207036 Z" id="path52" fill="#4C4E56"></path>
                        <path d="M75.4084976,32.4187706 L71.808256,32.4187706 C70.2076921,32.4187706 69.5506126,32.8468068 69.0650537,34.1616104 L65.4362119,44.2481359 L65.2929692,44.2481359 L62.3784879,32.4187706 L56.578206,32.4187706 L61.5498877,52.4207036 L66.1502501,52.4207036 C67.6932108,52.4207036 68.3789711,51.9627782 68.807249,50.7062223 L71.8652147,41.7909355 L72.0081352,41.7909355 L74.5798974,52.4207036 L80.3808238,52.4207036 L75.4084976,32.4187706" id="path54" fill="#FFFFFF"></path>
                        <path d="M81.3405821,53.1712373 L73.9892026,53.1712373 L73.8500686,52.596897 L71.8243688,44.2239667 L69.5179036,50.9494448 C68.9800587,52.5276925 68.0044293,53.1712373 66.1502501,53.1712373 L61.5498877,53.1712373 L60.9629793,53.1712373 L60.8213479,52.6010057 L55.8496663,32.5994755 L55.6177227,31.6672701 L56.578206,31.6672701 L62.3784879,31.6672701 L62.966363,31.6672701 L63.1073499,32.2384685 L65.4859198,41.892285 L68.3585079,33.9070284 C68.9624152,32.273111 69.8967958,31.6672701 71.808256,31.6672701 L75.4084976,31.6672701 L75.995406,31.6672701 L76.1370374,32.2369378 L81.1093635,52.2394347 L81.3405821,53.1712373 Z M80.3808238,52.4207036 L75.4084976,32.4187706 L71.808256,32.4187706 C70.2076921,32.4187706 69.5506126,32.8468068 69.0650537,34.1616104 L65.4362119,44.2481359 L65.2929692,44.2481359 L62.3784879,32.4187706 L56.578206,32.4187706 L61.5498877,52.4207036 L66.1502501,52.4207036 C67.6932108,52.4207036 68.3789711,51.9627782 68.807249,50.7062223 L71.8652147,41.7909355 L72.0081352,41.7909355 L74.5798974,52.4207036 L80.3808238,52.4207036 L80.3808238,52.4207036 Z" id="path56" fill="#4C4E56"></path>
                        <path d="M87.1436031,44.5342184 L86.8576011,44.5342184 L83.8573997,32.4187706 L78.1995549,32.4187706 L83.1718005,52.4207036 L90.2582052,52.4207036 C91.429605,52.4207036 91.686604,52.0773401 91.7438044,50.8777429 L92.2014076,42.2196163 L92.4584066,42.2196163 L97.201206,51.2490622 C97.6870066,52.1346211 98.0584064,52.4207036 98.9446098,52.4207036 L106.831014,52.4207036 L101.858608,32.4187706 L96.0870067,32.4187706 L99.0880136,44.5342184 L98.801206,44.5342184 L92.5438043,33.5614896 C92.0580037,32.7042086 91.686604,32.4187706 90.9438044,32.4187706 L89.3148014,32.4187706 C88.2287994,32.4187706 88.0008034,32.7611674 87.9154057,33.9038864 L87.1436031,44.5342184" id="path58" fill="#FFFFFF"></path>
                        <path d="M107.790531,53.1712373 L98.9446098,53.1712373 C97.6523641,53.1712373 97.0859996,52.599475 96.5429986,51.6099886 L92.8298063,44.5421137 L92.493049,50.9173804 C92.4269866,52.3071085 92.0298064,53.1712373 90.2582052,53.1712373 L83.1718005,53.1712373 L82.5844894,53.1712373 L82.4435025,52.6010057 L77.4710152,32.5994755 L77.2393938,31.6672701 L78.1995549,31.6672701 L83.8573997,31.6672701 L84.4447109,31.6672701 L84.5865034,32.2375017 L86.672304,40.6615096 L87.1669666,33.8497474 C87.2676715,32.5019126 87.6616292,31.6672701 89.3148014,31.6672701 L90.9438044,31.6672701 C92.1007026,31.6672701 92.663039,32.2504725 93.1963723,33.1907343 L97.2769361,40.3455378 L95.3587086,32.5985088 L95.1282957,31.6672701 L96.0870067,31.6672701 L101.858608,31.6672701 L102.445919,31.6672701 L102.586906,32.2369378 L107.559313,52.2394347 L107.790531,53.1712373 L107.790531,53.1712373 Z M106.831014,52.4207036 L101.858608,32.4187706 L96.0870067,32.4187706 L99.0880136,44.5342184 L98.801206,44.5342184 L92.5438043,33.5614896 C92.0580037,32.7042086 91.686604,32.4187706 90.9438044,32.4187706 L89.3148014,32.4187706 C88.2287994,32.4187706 88.0008034,32.7611674 87.9154057,33.9038864 L87.1436031,44.5342184 L86.8576011,44.5342184 L83.8573997,32.4187706 L78.1995549,32.4187706 L83.1718005,52.4207036 L90.2582052,52.4207036 C91.429605,52.4207036 91.686604,52.0773401 91.7438044,50.8777429 L92.2014076,42.2196163 L92.4584066,42.2196163 L97.201206,51.2490622 C97.6870066,52.1346211 98.0584064,52.4207036 98.9446098,52.4207036 L106.831014,52.4207036 L106.831014,52.4207036 Z" id="path60" fill="#4C4E56"></path>
                        <path d="M112.368174,37.3042488 C112.539776,37.1327282 112.795969,37.0474915 113.853774,37.0474915 L115.768779,37.0474915 C116.654176,37.0474915 116.969181,37.1044502 117.197177,37.3331713 C117.425173,37.5613284 117.939977,38.0479346 119.025979,42.4194149 C120.05478,46.6200995 119.797781,47.3338155 119.597177,47.5336947 C119.426382,47.7052153 119.168577,47.7914187 118.111578,47.7914187 L116.197379,47.7914187 C115.311175,47.7914187 114.997782,47.7341378 114.76898,47.5053362 C114.539373,47.2771791 114.025375,46.7916202 112.939373,42.4194149 C111.882374,38.2188107 112.168376,37.504128 112.368174,37.3042488 L112.368174,37.3042488 Z M111.510974,32.4187706 C108.96757,32.4187706 107.938769,32.9040878 107.36757,33.4759307 C106.053572,34.7897675 105.509766,37.5330504 106.824569,43.0475719 C108.024972,48.048176 109.538769,49.8778638 110.424972,50.7625365 C111.768779,52.1063431 113.139977,52.4207036 115.225778,52.4207036 L120.454378,52.4207036 C122.996976,52.4207036 124.026583,51.9348225 124.597781,51.3626573 C125.913391,50.0487399 126.45478,47.3055376 125.141588,41.7909355 C123.941185,36.7893646 122.425777,34.9616104 121.54038,34.075407 C120.198184,32.7322449 118.82618,32.4187706 116.74038,32.4187706 L111.510974,32.4187706 L111.510974,32.4187706 Z" id="path62" fill="#FFFFFF"></path>
                        <path d="M112.940178,37.8439467 C112.899896,38.1300293 112.887006,39.1339366 113.667671,42.2366153 C114.349242,44.9804621 114.895465,46.5716 115.293451,46.9687803 C115.343401,46.9986695 115.523059,47.0405628 116.197379,47.0405628 L118.111578,47.0405628 C118.648134,47.0405628 118.902716,47.016313 119.021145,46.9945608 C119.061427,46.692446 119.054176,45.6885386 118.296875,42.5972195 C117.61611,39.8574008 117.069886,38.2662629 116.673512,37.8698077 C116.621145,37.839274 116.443099,37.7973807 115.768779,37.7973807 L113.853774,37.7973807 C113.309967,37.7973807 113.056191,37.8238057 112.940178,37.8439467 L112.940178,37.8439467 Z M120.454378,53.1712373 L115.225778,53.1712373 C113.09325,53.1712373 111.457802,52.8571991 109.894861,51.2934529 C108.841891,50.2420128 107.303925,48.2619122 106.09466,43.2235236 C104.859615,38.0406838 105.102918,34.6796366 106.83746,32.9450143 C107.72044,32.0613084 109.161729,31.6672701 111.510974,31.6672701 L116.74038,31.6672701 C118.872907,31.6672701 120.508355,31.9822751 122.071296,33.5451351 C123.123461,34.5965752 124.662233,36.5785288 125.870692,41.6160312 C127.105737,46.7979042 126.86324,50.1598376 125.128698,51.8945405 C124.244911,52.7776019 122.803622,53.1712373 120.454378,53.1712373 Z M113.853774,37.0474915 L115.768779,37.0474915 C116.654176,37.0474915 116.969181,37.1044502 117.197177,37.3331713 C117.425173,37.5613284 117.939977,38.0479346 119.025979,42.4194149 C120.05478,46.6200995 119.797781,47.3338155 119.597177,47.5336947 C119.426382,47.7052153 119.168577,47.7920633 118.111578,47.7920633 L116.197379,47.7920633 C115.311175,47.7920633 114.997782,47.7341378 114.76898,47.5053362 C114.539373,47.2771791 114.025375,46.7916202 112.939373,42.4194149 C111.882374,38.2188107 112.168376,37.504128 112.368174,37.3042488 C112.539776,37.1327282 112.795969,37.0474915 113.853774,37.0474915 L113.853774,37.0474915 Z M120.454378,52.4207036 C122.996976,52.4207036 124.026583,51.9348225 124.597781,51.3626573 C125.913391,50.0487399 126.45478,47.3055376 125.141588,41.7909355 C123.941185,36.7893646 122.425777,34.9616104 121.54038,34.075407 C120.198184,32.7322449 118.82618,32.4187706 116.74038,32.4187706 L111.510974,32.4187706 C108.96757,32.4187706 107.938769,32.9040878 107.36757,33.4759307 C106.053572,34.7897675 105.509766,37.5330504 106.824569,43.0475719 C108.024972,48.048176 109.538769,49.8778638 110.424972,50.7625365 C111.768779,52.1063431 113.139977,52.4207036 115.225778,52.4207036 L120.454378,52.4207036 L120.454378,52.4207036 Z" id="path64" fill="#4C4E56"></path>
                        <path d="M133.44048,40.4770987 C133.01188,38.7046919 132.983682,38.0479346 133.240681,37.7910967 C133.468677,37.5613284 133.983481,37.504128 135.126683,37.504128 L136.497882,37.504128 C137.470289,37.504128 138.012484,37.504128 138.355686,37.8474109 C138.640883,38.1325267 138.840681,38.59013 139.29909,40.447854 L142.270288,52.4207036 L148.414095,52.4207036 L145.442091,40.447854 C144.327892,36.0186899 143.556895,34.9332519 142.641688,34.018126 C141.298687,32.6759307 139.812283,32.4187706 137.241487,32.4187706 L132.897479,32.4187706 C130.097882,32.4187706 128.526885,32.7904926 127.640682,33.6757293 C126.583683,34.7328088 126.383078,36.7893646 127.35468,40.676575 L130.268678,52.4207036 L136.41329,52.4207036 L133.44048,40.4770987" id="path66" fill="#FFFFFF"></path>
                        <path d="M149.374417,53.1712373 L141.682977,53.1712373 L141.54199,52.6010057 L138.570792,40.6284783 C138.162333,38.9711974 137.977036,38.5313183 137.82477,38.3783273 C137.701507,38.2559507 137.144005,38.2559507 136.497882,38.2559507 L135.126683,38.2559507 C134.466865,38.2559507 134.030208,38.2782669 133.825576,38.3241884 C133.817519,38.5272095 133.864246,39.0357291 134.171195,40.2996163 L137.141588,52.2394347 L137.372806,53.1712373 L136.41329,53.1712373 L130.268678,53.1712373 L129.681366,53.1712373 L129.540379,52.6010057 L126.625576,40.8572799 C125.625777,36.8570384 125.774821,34.4788712 127.10896,33.1448129 C128.158708,32.0959509 129.836049,31.6672701 132.897479,31.6672701 L137.241487,31.6672701 C139.908154,31.6672701 141.642695,31.9574614 143.172605,33.4881764 C144.150651,34.465981 144.99335,35.585981 146.169583,40.2649738 L149.143199,52.2394347 L149.374417,53.1712373 L149.374417,53.1712373 Z M148.414095,52.4207036 L145.442091,40.447854 C144.327892,36.0186899 143.556895,34.9332519 142.641688,34.018126 C141.298687,32.6759307 139.812283,32.4187706 137.241487,32.4187706 L132.897479,32.4187706 C130.097882,32.4187706 128.526885,32.7904926 127.640682,33.6757293 C126.583683,34.7328088 126.383078,36.7893646 127.35468,40.676575 L130.268678,52.4207036 L136.41329,52.4207036 L133.44048,40.4770987 C133.01188,38.7046919 132.983682,38.0479346 133.240681,37.7910967 C133.468677,37.5613284 133.983481,37.504128 135.126683,37.504128 L136.497882,37.504128 C137.470289,37.504128 138.012484,37.504128 138.355686,37.8474109 C138.640883,38.1325267 138.840681,38.59013 139.29909,40.447854 L142.270288,52.4207036 L148.414095,52.4207036 L148.414095,52.4207036 Z" id="path68" fill="#4C4E56"></path>
                        <polyline id="path70" fill="#FFFFFF" points="161.669281 47.7630602 157.86908 32.4187706 151.725273 32.4187706 155.524669 47.7630602 149.753068 47.7630602 150.925273 52.4207036 168.75488 52.4207036 167.584286 47.7630602 161.669281 47.7630602"></polyline>
                        <path d="M169.718425,53.1712373 L150.340379,53.1712373 L150.196975,52.6035032 L149.025575,47.9459404 L148.790329,47.0122043 L149.753068,47.0122043 L154.566764,47.0122043 L150.996169,32.5985088 L150.765757,31.6672701 L151.725273,31.6672701 L157.86908,31.6672701 L158.456391,31.6672701 L158.598183,32.2375017 L162.256592,47.0122043 L167.584286,47.0122043 L168.169986,47.0122043 L168.311778,47.5792939 L169.483984,52.2369373 L169.718425,53.1712373 L169.718425,53.1712373 Z M168.75488,52.4207036 L167.584286,47.7630602 L161.669281,47.7630602 L157.86908,32.4187706 L151.725273,32.4187706 L155.524669,47.7630602 L149.753068,47.7630602 L150.925273,52.4207036 L168.75488,52.4207036 L168.75488,52.4207036 Z" id="path72" fill="#4C4E56"></path>
                        <polyline id="path74" fill="#FFFFFF" points="185.003017 32.4187706 178.858404 32.4187706 180.773409 40.1620937 174.259009 40.1620937 172.344004 32.4187706 166.200197 32.4187706 171.172604 52.4207036 177.31641 52.4207036 175.429603 44.8772597 181.945615 44.8772597 183.830811 52.4207036 189.973812 52.4207036 185.003017 32.4187706"></polyline>
                        <path d="M190.93494,53.1712373 L183.245917,53.1712373 L183.103319,52.6019725 L181.359109,45.6275517 L176.391536,45.6275517 L178.045514,52.238468 L178.278344,53.1712373 L177.31641,53.1712373 L171.172604,53.1712373 L170.586098,53.1712373 L170.444306,52.6010057 L165.471899,32.5994755 L165.240681,31.6672701 L166.200197,31.6672701 L172.344004,31.6672701 L172.932121,31.6672701 L173.073107,32.2384685 L174.84632,39.4111571 L179.815504,39.4111571 L178.130106,32.5985088 L177.900499,31.6672701 L178.858404,31.6672701 L185.003017,31.6672701 L185.590328,31.6672701 L185.73212,32.2375017 L190.70211,52.2394347 L190.93494,53.1712373 Z M189.974618,52.4207036 L185.003017,32.4187706 L178.858404,32.4187706 L180.773409,40.1620937 L174.259009,40.1620937 L172.344004,32.4187706 L166.200197,32.4187706 L171.172604,52.4207036 L177.31641,52.4207036 L175.429603,44.8772597 L181.945615,44.8772597 L183.830811,52.4207036 L189.974618,52.4207036 L189.974618,52.4207036 Z" id="path76" fill="#4C4E56"></path>
                    </g>
                </g>
            </g>
        </g>
    </g>
</svg>