<?xml version="1.0" encoding="UTF-8"?>
<svg width="200px" height="200px" viewBox="0 0 200 200" version="1.1" xmlns="http://www.w3.org/2000/svg" xmlns:xlink="http://www.w3.org/1999/xlink">
    <!-- Generator: Sketch 54.1 (76490) - https://sketchapp.com -->
    <title>southeast-mo-st</title>
    <desc>Created with Sketch.</desc>
    <g id="southeast-mo-st" stroke="none" stroke-width="1" fill="none" fill-rule="evenodd">
        <g id="southeast-mo-st_BGD" transform="translate(0.000000, -0.000000)">
            <g id="southeast-mo-st" transform="translate(0.000000, 24.000000)">
                <g id="g10" transform="translate(99.934251, 76.002630) scale(-1, 1) rotate(-180.000000) translate(-99.934251, -76.002630) translate(0.000000, 0.000002)" fill-rule="nonzero">
                    <g id="g12">
                        <path d="M128.352922,55.4787626 C135.2426,56.9740946 143.930042,58.5462181 152.164099,59.1489795 C154.166466,58.010255 160.876788,55.0800775 171.476656,59.2352385 L172.049437,55.4787626 L128.352922,55.4787626 Z M193.146609,17.5768569 C193.959232,19.2205123 194.433131,21.1119521 194.433131,23.2269291 C194.433131,25.9450881 193.737799,28.3504003 192.370278,30.4178822 C192.389739,33.7678887 192.438128,41.9565538 192.438128,41.9619187 C192.438128,42.6818135 192.155682,43.1716492 191.782244,43.4808668 C190.675077,44.5101896 187.964229,46.5830363 183.63392,47.0999594 L185.370673,55.6728454 L177.789871,55.6728454 C180.523335,58.1338578 183.983164,63.1963166 183.983164,73.0614051 C183.983164,74.3421415 183.924782,75.7038771 183.799075,77.1513459 L183.796971,77.1750145 L183.794341,77.1986831 C183.779088,77.3343833 183.389345,80.5612077 180.841021,84.0915166 C178.655091,87.1189985 174.397892,90.9838242 166.423664,92.6406288 C165.834578,94.7055861 164.14569,98.8302408 159.426163,103.43195 C155.673369,107.091122 150.727149,110.36055 144.725835,113.149241 C137.319129,116.590661 128.251936,119.316762 117.777249,121.251279 L117.752002,121.256539 L117.726756,121.260221 C117.294935,121.327545 74.3184728,128.067847 47.3806168,136.026821 L47.3578423,136.033659 L47.3331744,136.03997 C36.5935034,138.911239 30.3698086,144.764756 24.8795786,151.612882 C25.4070211,145.437998 27.8498875,140.101509 30.4643253,135.016959 C32.7352523,130.600917 36.3459294,124.560681 41.3202883,119.066927 C36.5271786,118.833922 28.5807225,118.076 21.7628397,115.657065 L16.5666268,113.814067 L21.8234314,112.149899 C22.0023663,112.09362 37.5174744,107.133199 48.9226023,99.8159081 C47.0087562,99.7543696 44.72468,99.5829035 42.1694138,99.208413 C35.199105,98.1885577 24.7962124,95.3935545 14.8204073,87.874291 L10.7123206,84.7779072 L9.55660726,83.8085449 C8.48105173,83.9652839 7.37814577,84.1446396 6.24694264,84.3492418 L0,85.4790248 L4.66243249,81.1702807 C8.56878348,77.5605503 14.7721232,72.2477299 22.1392236,67.4393146 C29.6268763,62.5525297 36.6337926,59.2920432 43.0337925,57.7078224 C42.270926,57.1203142 41.4038648,56.4381314 40.458592,55.6728454 L9.41569996,55.6728454 C9.41569996,55.6728454 10.6989609,49.3375925 11.201525,46.8561198 C8.33393799,46.8470731 0.0606095974,46.8207746 0.0606095974,46.8207746 L0.523709652,44.6006038 L2.43897956,35.4034968 C2.43897956,35.4034968 2.98755022,35.4034968 3.43318335,35.4034968 C3.43318335,32.8309788 3.43318335,24.7926884 3.43318335,22.2201704 C2.98755022,22.2201704 2.43897956,22.2201704 2.43897956,22.2201704 L0.0595823785,10.7965809 L24.0990921,10.7965809 C24.0990921,8.40809972 24.0990921,0 24.0990921,0 C24.0990921,0 35.2254035,10.0349241 36.1676257,10.8838919 C36.8238255,10.8838919 37.7658373,10.8838919 39.0639306,10.8838919 C39.0639306,10.4384481 39.0639306,9.89028246 39.0639306,9.89028246 L50.4879409,7.51026937 C50.4879409,7.51026937 50.4879409,10.3164231 50.4879409,10.7513475 C52.7863235,10.7371989 57.3159749,10.7092174 57.3159749,10.7092174 C59.3562115,10.7092174 61.3627861,11.0568834 63.2631148,11.7166072 C63.1700181,11.270953 63.0711358,10.7965809 63.0711358,10.7965809 C63.0711358,10.7965809 89.5705435,10.7965809 90.4410234,10.7965809 C91.1700174,10.4189347 100.786848,5.43431939 100.786848,5.43431939 C100.786848,5.43431939 102.73241,12.1172384 103.262588,13.937567 C104.049439,13.937567 104.356605,13.937567 105.207098,13.937567 C105.663114,12.1135566 107.36147,5.32339237 107.36147,5.32339237 C107.36147,5.32339237 117.161338,10.3879024 119.581851,11.639763 C120.544376,9.81201816 123.786453,3.65281779 123.786453,3.65281779 C123.786453,3.65281779 128.132541,11.9395132 129.886124,15.2831028 C131.639181,11.9395132 135.985269,3.65281779 135.985269,3.65281779 C135.985269,3.65281779 137.779878,7.06277431 139.745427,10.7965809 L176.333986,10.8086782 C177.66469,10.4495461 179.150028,10.2726625 180.867846,10.2726625 C182.1449,10.2726625 183.430896,10.4515974 184.674815,10.7965809 L199.750159,10.7965809 L199.750159,17.5768569 L193.146609,17.5768569 L193.146609,17.5768569 Z" id="path14" fill="#FFFFFF"></path>
                        <path d="M169.958707,28.0720046 C169.958707,28.0720046 169.970278,26.4053116 169.98448,24.3887436 L163.607097,30.7638651 L169.991317,37.1008012 L170.362652,37.0077045 C170.198549,36.2366329 170.111238,35.4361595 170.111238,34.6145422 C170.111238,32.0821031 170.753447,29.9523464 172.086255,28.1352787 C171.151607,28.0993024 169.958707,28.0578034 169.958707,28.0720046 Z M93.5147906,30.1006699 L93.5147906,37.2534376 L94.8544355,37.2534376 L95.9642317,42.5819845 L100.162522,42.5819845 L93.5147906,30.1006699 Z M81.4485187,34.948007 L80.470215,34.948007 L80.470215,37.3111891 L81.4485187,37.3111891 L81.4485187,34.948007 Z M81.4485187,20.3702296 L80.470215,20.3702296 L80.470215,23.7785661 L81.4485187,23.7785661 L81.4485187,20.3702296 Z M58.6587757,24.8463373 L58.6587757,32.7773825 C59.7238644,32.2688749 61.1445087,30.9590525 61.1445087,28.8126752 C61.1445087,26.7476127 59.8117013,25.3975536 58.6587757,24.8463373 L58.6587757,24.8463373 Z M188.649568,31.8285857 C189.413276,32.004207 190.511501,32.2598283 190.511501,32.2772904 C190.511501,32.2772904 190.589344,42.0923592 190.588818,42.0654822 C189.287569,43.3010903 186.328463,45.3702553 181.609463,45.3702553 C181.536879,45.3702553 181.466399,45.3679936 181.395393,45.3669417 L183.108477,53.8230098 L114.507295,53.8230098 C114.552528,53.8803405 114.598814,53.9366193 114.643521,53.99395 C114.643521,53.99395 134.676131,59.8117013 152.606439,61.0287953 C152.606439,61.0287953 159.830634,55.7722537 172.926228,61.8571977 L173.923467,55.315186 C173.923467,55.315186 183.542402,58.739249 181.956603,76.9914511 C181.956603,76.9914511 180.671133,88.3518716 164.888359,91.0511483 C164.888359,91.0511483 162.694013,111.07429 117.442206,119.432476 C117.442206,119.432476 74.228006,126.165414 46.8566984,134.252725 C46.8566984,134.252725 33.3587894,137.843521 27.8607751,145.666269 C27.8607751,145.666269 33.2753706,128.974619 45.607941,117.315973 C45.607941,117.315973 32.542537,117.518998 22.3812223,113.914001 C22.3812223,113.914001 43.3061922,107.296776 54.9101893,97.784087 C54.9101893,97.784087 34.6414718,100.498091 15.9339904,86.396842 C15.9339904,86.396842 27.05662,85.9045343 37.3814586,83.2667961 C31.7985528,81.5368816 21.3991842,79.7296496 5.91779078,82.5288605 C13.0785533,75.9116352 30.845443,60.9735685 47.513582,58.7250478 C47.513582,58.7250478 44.8730035,56.8909913 41.1178951,53.8230098 L11.677738,53.8230098 L13.4623534,45.0135426 C9.01359609,45.0014453 2.33460612,44.9778293 2.33460612,44.9778293 L3.94354231,37.2534376 L5.28310309,37.2534376 L5.28310309,20.3702296 L3.94354231,20.3702296 L2.33460612,12.6468899 L25.9489803,12.7173698 L25.9489803,4.15988418 L35.456725,12.7342009 L40.913661,12.7342009 L40.913661,11.3946611 L48.6380001,9.78508851 L48.6380001,12.612807 L57.3270203,12.5595789 C60.4423391,12.5595789 63.3546335,13.4412094 65.8298471,14.9665217 L65.3464809,12.6468899 L90.8923054,12.6468899 L99.6397082,8.11266252 L101.873502,15.788139 L106.797104,15.788139 L106.667716,15.7228135 L108.589083,8.0399209 L120.363442,14.1266006 L123.783297,7.6296645 L129.886124,19.2663243 L135.987899,7.6296645 C135.987899,7.6296645 142.233264,19.4929121 146.819194,28.2044963 L146.819194,20.3702296 L145.479549,20.3702296 L143.870082,12.6468899 L162.552527,12.6468899 L162.12544,14.6961206 L164.088359,12.7342009 L176.58277,12.6573567 C177.860877,12.283024 179.257852,12.1225507 180.867846,12.1225507 C186.626688,12.1225507 192.58277,16.2760811 192.58277,23.2269291 C192.58277,26.7556075 191.291514,29.5889013 188.649568,31.8285857 L188.649568,31.8285857 Z" id="path16" fill="#231F20"></path>
                        <path d="M177.923467,78.2974339 C175.257326,83.4166975 160.763704,86.918078 160.763704,86.918078 L158.932277,89.5463488 C154.58356,88.7005895 151.155815,82.4094654 151.155815,82.4094654 C144.25404,78.6345805 137.01354,79.7969737 132.229845,77.2681112 C127.444047,74.7413525 123.068504,66.1811949 123.068504,66.1811949 C133.847202,69.6673224 142.292699,66.9364875 149.494276,66.3242587 C156.69638,65.7115039 158.413145,64.7263626 163.821692,66.1959221 C169.230239,67.6633777 171.273631,70.004469 171.273631,70.004469 C164.845229,67.3662048 161.693093,73.2102546 161.693093,73.2102546 C153.832475,75.4293209 130.919129,72.2235353 130.919129,72.2235353 C135.156341,74.714528 152.588556,77.549505 158.105979,77.3733051 C163.624454,77.1971052 166.040759,74.0570659 166.040759,74.0570659 C167.140035,77.9471381 169.04352,79.8658757 170.344769,80.990925 C170.846544,80.6190644 175.1211,77.3696233 175.68494,74.6682427 C176.196708,72.2219574 176.915709,66.3053238 176.65588,62.8102548 C176.65588,62.8102548 180.588556,73.1797483 177.923467,78.2974339" id="path18" fill="#BDBCBC"></path>
                        <path d="M128.036289,98.4631139 C128.036289,98.4631139 136.073106,101.762522 145.067189,99.0679791 C154.06285,96.375014 156.441811,93.7825092 156.441811,93.7825092 C156.441811,93.7825092 154.47258,90.343719 150.0497,90.5951325 C150.0497,90.5951325 145.180273,97.4243237 128.036289,98.4631139" id="path20" fill="#E51636"></path>
                        <path d="M143.662324,87.9731733 C143.749635,86.6803397 142.772909,85.56318 141.480601,85.475869 C140.488096,85.4074929 139.601837,85.9702806 139.204204,86.8197217 C139.062192,86.7776441 138.916499,86.74556 138.763442,86.7350406 C137.671528,86.6619308 136.726361,87.4855994 136.652199,88.5775126 C136.578037,89.6710037 137.402232,90.6166973 138.495197,90.690333 C139.196841,90.7387223 139.835894,90.4105171 140.225112,89.8829695 C140.507031,90.0323449 140.822087,90.1307012 141.163442,90.152792 C142.456275,90.2406289 143.574487,89.266007 143.662324,87.9731733 L143.662324,87.9731733 Z M144.189871,90.5946065 C142.598813,91.5939491 138.487308,92.5822462 135.370411,93.229189 C133.960286,91.8474665 133.137669,89.9818518 133.274421,87.9736993 C133.537406,84.0973023 137.228662,81.1892156 141.516893,81.4806028 C145.446939,81.7462175 148.482311,84.6148565 148.764756,88.0757374 C147.030108,88.744245 145.715184,89.6368156 144.189871,90.5946065 L144.189871,90.5946065 Z" id="path22" fill="#E51636"></path>
                        <path d="M140.607492,88.8468091 C140.531752,89.9392482 139.58711,90.7644948 138.495197,90.690333 C137.402232,90.6166973 136.578037,89.6710037 136.652199,88.5775126 C136.726361,87.4855994 137.670477,86.6614048 138.763442,86.7350406 C139.855355,86.8092023 140.681127,87.7554219 140.607492,88.8468091" id="path24" fill="#FFFFFF"></path>
                        <path d="M157.247596,37.9018531 L157.247596,38.4983028 C157.247596,39.4282173 157.370147,39.6102554 157.97659,39.6102554 L158.95542,39.6102554 L157.247596,37.9018531 Z M102.532542,25.5185792 L104.191976,28.9047199 L105.874554,25.5185792 L102.532542,25.5185792 Z M56.8042063,22.0712158 L56.3019052,22.0712158 L56.3019052,35.5524514 L56.8042063,35.5524514 C60.4617999,35.5524514 63.5008531,32.5774614 63.5008531,28.8126752 C63.5008531,24.8921493 60.304009,22.0712158 56.8042063,22.0712158 Z M43.3234966,33.5952654 L43.3452718,33.153556 C43.1685459,32.4355021 43.1202619,32.4118335 42.1145552,32.4118335 L36.3778032,32.4118335 L36.3778032,34.9422739 L42.1145552,34.9422739 C43.1948444,34.9422739 43.2205117,34.8454955 43.2807353,34.4715836 L43.2832073,34.4242989 L46.2814453,34.40994 L46.2814453,39.6102554 L47.5005905,39.6102554 C48.3039567,39.5188419 48.2300054,39.2751601 48.2300054,38.4983028 L48.2300054,19.1267845 C48.2300054,18.1223401 48.239052,18.0964624 47.4977503,18.0144637 L46.2814453,18.0144637 L46.2814453,23.2289804 L43.2936741,23.2226161 C43.1481909,22.7019587 43.0163303,22.6824452 42.1145552,22.6824452 L36.3778032,22.6824452 L36.3778032,25.212833 L42.1145552,25.212833 C43.1948444,25.212833 43.2205117,25.1161072 43.2807353,24.7427739 L43.3136084,24.0715313 L46.2814453,24.0715313 L46.2814453,33.5811168 L43.3234966,33.5952654 Z M28.3055877,18.1597366 L27.841472,18.0107819 C27.5376193,18.0464953 27.4687699,18.092728 26.3313603,19.6850488 L21.6722151,26.4199336 C23.2780533,27.4050749 24.5439047,28.8936219 25.2517022,30.6613536 L25.2517022,22.8051013 L28.3055877,23.4666661 L28.3055877,18.1597366 Z M16.0386058,31.6259821 L15.7115052,31.6259821 L15.7115052,36.4685855 L16.0386058,36.4685855 C17.0704006,36.4685855 18.4159364,35.6722674 18.4159364,34.0481254 C18.4159364,32.6842858 17.3436419,31.6259821 16.0386058,31.6259821 L16.0386058,31.6259821 Z M139.952133,39.6102554 L140.555947,39.6102554 C141.024586,39.5502423 141.187636,39.436212 140.879418,38.8580661 L135.997893,29.316449 L134.264296,32.7295192 L137.182903,38.2427341 C137.833527,39.5071128 137.851936,39.541406 138.487833,39.6102554 L139.117945,39.6102554 L139.117945,42.5604197 L130.506243,42.5337004 L129.886124,41.3176058 L129.266532,42.5337004 L120.662193,42.5684145 L120.662193,39.6102554 L121.283363,39.6102554 C121.919787,39.541406 121.93767,39.5071128 122.589346,38.2427341 L125.507426,32.7290985 L123.774356,29.316449 L118.885467,38.8712153 L118.878104,38.8849957 C118.597762,39.3945026 118.748715,39.5492429 119.087965,39.6102554 L119.821167,39.6102554 L119.827479,42.5708865 L107.249438,42.6214322 L108.002101,39.6102554 L109.017223,39.6102554 C109.660484,39.5445092 109.673107,39.5192101 110.255356,38.386955 L119.933199,20.0031027 C119.561338,19.8148582 118.77028,19.4125965 118.685599,19.3536353 C118.128071,19.1793815 118.00289,19.2336616 117.573699,20.0688489 L104.185139,45.121419 C104.185139,45.121419 93.195001,24.4875734 91.1579201,20.6617746 L91.1579201,38.4983028 C91.1579201,39.7548971 91.2415493,39.541406 91.8437847,39.6102554 L92.9378018,39.6102554 L93.5652837,42.6214322 L81.338065,42.6214322 L81.338065,39.6102554 L82.3568684,39.6102554 C83.1973681,39.5145289 83.0858625,39.1105842 83.0858625,38.4983028 L83.0858625,32.6296376 L78.7234694,32.6296376 L78.7234694,38.4983028 C78.7234694,39.7150286 78.8086765,39.5360937 79.4529895,39.6102554 L80.503877,39.6102554 L80.503877,42.6214322 L68.2451002,42.6214322 L68.8720561,39.6102554 L69.9224177,39.6102554 C70.5767241,39.5350417 70.6519377,39.7032995 70.6519377,38.4983028 L70.6519377,32.8084147 C68.8504914,38.8745289 63.0664021,42.7083224 57.3270203,42.7083224 C55.766468,42.7083224 48.2240093,42.6425762 46.2814453,42.625114 L46.2814453,44.9414321 L43.2704789,44.3140028 L43.2704789,43.2641146 C43.1948444,42.6056005 42.9168694,42.5337004 42.1145552,42.5337004 L28.3055877,42.5337004 L28.3055877,34.2443121 L25.8382637,34.7434048 C25.6490197,36.7589208 24.7704925,38.6314257 23.3158706,40.0866788 C21.653701,41.7488484 19.4405255,42.6651929 17.0860219,42.6651929 C15.1358313,42.6651929 5.23319382,42.6214322 5.23319382,42.6214322 L5.8600393,39.6102554 L6.91055867,39.6102554 C7.60068357,39.53136 7.63992091,39.4878097 7.63992091,38.4983028 L7.63992091,19.1267845 C7.63992091,17.9844834 7.62366845,18.0944111 6.90766584,18.0144637 L5.8600393,18.0144637 L5.23319382,15.0026558 L18.1190265,15.0026558 L17.4918076,18.0144637 L16.4443388,18.0144637 C15.7160285,18.0954105 15.7115052,17.9972119 15.7115052,19.1267845 L15.7115052,20.8920968 L19.7329121,15.0899667 L28.3055877,15.00902 L28.3055877,9.45861909 L34.5508473,15.0899667 L42.1145552,15.0899667 C42.9834572,15.0899667 43.2704789,15.0848648 43.2704789,14.3600259 L43.2704789,13.3101377 L46.2814453,12.6826558 L46.2814453,14.9985532 C48.2217476,14.9817222 55.7470072,14.915976 57.3270203,14.915976 C63.6197223,14.915976 68.9472698,19.1200521 70.6519377,24.8668501 L70.6519377,19.1267845 C70.6519377,17.9230502 70.57725,18.0879943 69.9197879,18.0144637 L68.8720561,18.0144637 L68.2451002,15.0026558 L80.503877,15.0026558 L80.503877,18.0144637 L79.4556193,18.0144637 C78.766073,18.0917287 78.7234694,18.0582244 78.7234694,19.1267845 L78.7234694,25.9976851 L83.0858625,25.9976851 L83.0858625,19.1267845 C83.0858625,17.9230502 83.0132787,18.0886255 82.3542386,18.0144637 L81.338065,18.0144637 L81.338065,15.0026558 L91.4866512,15.0026558 L98.1680449,11.4829714 L99.0322132,14.4456538 C99.0322132,14.4456538 98.1517398,14.8855749 98.0170916,14.9402232 C97.5132126,15.2942008 97.5205761,15.3630502 97.9997346,16.2939641 L98.9086103,18.1439049 L109.508479,18.1439049 C109.856145,17.4365282 110.417354,16.2919128 110.419458,16.2878102 C110.897039,15.3326492 110.908084,15.3067715 110.32005,14.9139247 L109.412752,14.4604862 L110.162785,11.4614067 L121.341746,17.3270213 L123.77909,12.6964362 L129.886124,24.3413012 L135.991581,12.6964362 L149.176065,37.7362778 L149.176065,19.1267845 C149.176065,18.0828924 148.985138,18.074845 148.442337,18.0144637 L147.395657,18.0144637 L146.768175,15.0026558 L159.654434,15.0026558 L159.026952,18.0144637 L157.979746,18.0144637 C157.196051,18.1017747 157.247596,18.0475472 157.247596,19.1267845 L157.247596,22.9076128 L165.065085,15.0899667 L175.192632,15.0026558 L174.951212,15.9722284 C176.353973,15.1411436 178.287438,14.4793685 180.867846,14.4793685 C185.467977,14.4793685 190.226425,17.7514788 190.226425,23.2269291 C190.226425,27.7664687 187.640758,29.907113 185.389607,31.26685 C185.389607,31.26685 181.854565,33.4038124 181.839312,33.4132799 C180.234578,34.3431418 180.234578,34.6954889 180.234578,35.1832733 C180.234578,35.9332009 181.266005,36.3812746 182.263243,36.3812746 C183.71755,36.3812746 184.882047,35.615936 185.304926,34.38422 L185.591054,33.5500846 C185.591054,33.5500846 188.169358,34.1360675 188.169358,34.1428525 C188.169358,34.1428525 188.223532,40.9093481 188.223532,40.9025631 L187.831159,41.200262 C186.244308,42.4042593 184.150949,43.0132271 181.609463,43.0132271 C178.787635,43.0132271 176.432343,42.1486906 174.795525,40.5121883 C173.294407,39.0111233 172.468635,36.9177111 172.468635,34.6145422 C172.468635,31.1131616 173.961863,28.6599861 177.305978,26.6629842 L180.096248,24.9804596 C181.725176,24.1031947 182.023927,23.5702295 182.023927,22.834503 C182.023927,22.3416168 181.440101,21.6790001 180.125176,21.6790001 C177.807754,21.6790001 176.022612,22.985509 175.348845,25.1733853 L175.126886,25.8965937 C175.126886,25.8965937 172.330831,25.7850355 172.330831,25.7920309 L172.380272,18.6546741 L160.271396,30.7723332 C162.178037,32.6674548 168.185663,38.6392627 168.459167,38.8950418 C169.389608,39.7649431 169.500587,39.7259162 170.50519,39.401498 L171.309923,42.6214322 L161.879286,42.5337004 L159.045887,39.7006696 L159.654434,42.6214322 L139.952133,42.5609983 L139.952133,39.6102554 L139.952133,39.6102554 Z" id="path26" fill="#FFFFFF"></path>
                        <path d="M22.1180797,51.4692426 L22.1180797,49.5611296 L20.5487963,49.5611296 L20.5487963,50.1201828 L19.5576589,50.1201828 L19.5576589,48.9367509 L20.7415116,48.9367509 C21.0991711,48.9277042 21.5121625,48.9277042 21.8423137,48.7074807 C22.3105846,48.4044169 22.3105846,47.9084275 22.3105846,47.5324643 L22.3105846,46.4963565 C22.3015379,46.0560672 22.3015379,45.4680331 21.7139245,45.1565538 C21.4114919,44.9909785 21.1086385,44.9909785 20.7873236,44.9909785 L17.887705,44.9909785 L17.887705,46.9734111 L19.5576589,46.9734111 L19.5576589,46.3399857 L20.5487963,46.3399857 L20.5487963,47.642392 L19.255016,47.642392 C18.878632,47.6522276 18.4748976,47.6522276 18.1447464,47.9916359 C17.8233789,48.3130034 17.8051278,48.6801303 17.7958707,49.0466786 L17.7958707,50.1201828 C17.8051278,50.4694793 17.8141218,50.8086772 18.1077182,51.111741 C18.4475472,51.4604063 18.8968832,51.4692426 19.264273,51.4692426 L22.1180797,51.4692426" id="path28" fill="#FFFFFF"></path>
                        <path d="M28.8439178,51.4692426 C28.3577639,51.4692426 27.7153445,51.4692426 27.4397889,50.7901631 C27.3021426,50.4694793 27.3021426,50.092885 27.3021426,49.7166588 L27.3021426,46.5510048 C27.3021426,46.129177 27.3021426,45.6332401 27.7060874,45.2937793 C28.0639572,45.0003934 28.5961334,44.9909785 28.9998152,44.9909785 L30.174253,44.9909785 C30.7340952,44.9909785 31.4864949,45.0003934 31.7157652,45.8534637 C31.7985528,46.1659423 31.7985528,46.5604196 31.7985528,46.9275991 L31.7985528,49.6067312 C31.7985528,50.138697 31.7985528,50.5703603 31.6056271,50.9091375 C31.3029841,51.4425234 30.7250485,51.4692426 30.1099269,51.4692426 L28.8439178,51.4692426 Z M30.0367645,46.3399857 L29.073188,46.3399857 L29.073188,50.1201828 L30.0367645,50.1201828 L30.0367645,46.3399857 L30.0367645,46.3399857 Z" id="path30" fill="#FFFFFF"></path>
                        <path d="M36.5791444,51.4692426 L38.7723856,51.4692426 L38.7723856,46.3399857 L39.6807354,46.3399857 L39.6807354,51.4692426 L41.8647195,51.4692426 L41.8647195,50.1201828 L41.4425236,50.1201828 L41.4425236,46.7435097 C41.4425236,46.3399857 41.4517807,45.8355807 41.2039963,45.4775005 C40.8826288,45.0003934 40.3505052,44.9909785 39.9375664,44.9909785 L38.4237203,44.9909785 C38.0748445,45.0003934 37.6896243,45.0092296 37.3685198,45.284943 C37.0194337,45.586797 37.0013403,45.9822737 37.0013403,46.5510048 L37.0013403,50.1201828 L36.5791444,50.1201828 L36.5791444,51.4692426" id="path32" fill="#FFFFFF"></path>
                        <polyline id="path34" fill="#FFFFFF" points="51.9487692 51.4692426 51.9487692 49.0746076 50.7008008 49.0746076 50.7008008 50.1201828 50.0493347 50.1201828 50.0493347 46.3399857 50.4715306 46.3399857 50.4715306 44.9909785 47.8655083 44.9909785 47.8655083 46.3399857 48.2877042 46.3399857 48.2877042 50.1201828 47.6362381 50.1201828 47.6362381 49.0746076 46.3882697 49.0746076 46.3882697 51.4692426 51.9487692 51.4692426"></polyline>
                        <polyline id="path36" fill="#FFFFFF" points="56.4907284 51.4692426 58.6656133 51.4692426 58.6656133 48.955265 59.5834305 48.955265 59.5834305 51.4692426 61.7761983 51.4692426 61.7761983 50.1201828 61.3543706 50.1201828 61.3543706 46.3399857 61.7761983 46.3399857 61.7761983 44.9909785 59.5834305 44.9909785 59.5834305 47.5971586 58.6656133 47.5971586 58.6656133 44.9909785 56.4907284 44.9909785 56.4907284 46.3399857 56.9130821 46.3399857 56.9130821 50.1201828 56.4907284 50.1201828 56.4907284 51.4692426"></polyline>
                        <polyline id="path38" fill="#FFFFFF" points="66.5477958 51.4692426 71.117421 51.4692426 71.117421 49.3497424 69.639972 49.3497424 69.639972 50.1201828 68.7042718 50.1201828 68.7042718 48.8905182 70.0255078 48.8905182 70.0255078 47.6980396 68.7042718 47.6980396 68.7042718 46.3399857 69.639972 46.3399857 69.639972 47.1753834 71.2184072 47.1753834 71.2184072 44.9909785 66.5477958 44.9909785 66.5477958 46.3399857 66.9701495 46.3399857 66.9701495 50.1201828 66.5477958 50.1201828 66.5477958 51.4692426"></polyline>
                        <path d="M76.1914511,46.3399857 L75.7143965,46.3399857 L75.7143965,44.9909785 L77.7146595,44.9909785 L77.9350408,46.5692559 L79.026954,46.5692559 L79.2568028,44.9909785 L81.2475982,44.9909785 L81.2475982,46.3399857 L80.8073616,46.3399857 L79.8984858,51.4692426 L77.0819179,51.4692426 L76.1914511,46.3399857 Z M78.8891499,47.6886247 L78.0728449,47.6886247 L78.4857311,50.4047325 L78.8891499,47.6886247 Z" id="path40" fill="#FFFFFF"></path>
                        <path d="M90.0197216,51.4692426 L90.0197216,49.5611296 L88.4507539,49.5611296 L88.4507539,50.1201828 L87.4598269,50.1201828 L87.4598269,48.9367509 L88.6437848,48.9367509 C89.0014442,48.9277042 89.4143304,48.9277042 89.7446394,48.7074807 C90.2127525,48.4044169 90.2127525,47.9084275 90.2127525,47.5324643 L90.2127525,46.4963565 C90.2032851,46.0560672 90.2032851,45.4680331 89.6157769,45.1565538 C89.3133442,44.9909785 89.0103857,44.9909785 88.6890182,44.9909785 L85.789347,44.9909785 L85.789347,46.9734111 L87.4598269,46.9734111 L87.4598269,46.3399857 L88.4507539,46.3399857 L88.4507539,47.642392 L87.1573943,47.642392 C86.7807999,47.6522276 86.3768552,47.6522276 86.0470721,47.9916359 C85.7251787,48.3130034 85.7072957,48.6801303 85.6978282,49.0466786 L85.6978282,50.1201828 C85.7072957,50.4694793 85.7162372,50.8086772 86.0097283,51.111741 C86.3495047,51.4604063 86.7986829,51.4692426 87.1663358,51.4692426 L90.0197216,51.4692426" id="path42" fill="#FFFFFF"></path>
                        <polyline id="path44" fill="#FFFFFF" points="100.133594 51.4692426 100.133594 49.0746076 98.8859936 49.0746076 98.8859936 50.1201828 98.2343171 50.1201828 98.2343171 46.3399857 98.6566708 46.3399857 98.6566708 44.9909785 96.0504907 44.9909785 96.0504907 46.3399857 96.4723184 46.3399857 96.4723184 50.1201828 95.8211679 50.1201828 95.8211679 49.0746076 94.5735677 49.0746076 94.5735677 51.4692426 100.133594 51.4692426"></polyline>
                        <path d="M110.057591,51.4692426 L111.351477,49.1023788 C111.470346,48.8541737 111.498222,48.7988942 111.60815,48.5238121 C111.727019,48.7805905 111.764363,48.8541737 111.892699,49.1023788 L113.159235,51.4692426 L115.187374,51.4692426 L115.187374,50.1201828 L114.76502,50.1201828 L114.76502,46.3399857 L115.187374,46.3399857 L115.187374,44.9909785 L113.09454,44.9909785 L113.09454,47.9916359 C113.09454,48.229795 113.09454,48.285653 113.112949,48.4869942 L111.598682,45.7074019 L110.038656,48.5143446 C110.048123,48.3214189 110.057591,48.285653 110.057591,48.0647983 L110.057591,44.9909785 L107.992634,44.9909785 L107.992634,46.3399857 L108.423403,46.3399857 L108.423403,50.1201828 L107.992634,50.1201828 L107.992634,51.4692426 L110.057591,51.4692426" id="path46" fill="#FFFFFF"></path>
                        <polyline id="path48" fill="#FFFFFF" points="119.507689 51.4692426 122.132804 51.4692426 122.132804 50.1201828 121.701509 50.1201828 121.701509 46.3399857 122.132804 46.3399857 122.132804 44.9909785 119.507689 44.9909785 119.507689 46.3399857 119.930569 46.3399857 119.930569 50.1201828 119.507689 50.1201828 119.507689 51.4692426"></polyline>
                        <path d="M130.758182,51.4692426 L130.758182,49.5611296 L129.189214,49.5611296 L129.189214,50.1201828 L128.197761,50.1201828 L128.197761,48.9367509 L129.382245,48.9367509 C129.739905,48.9277042 130.152791,48.9277042 130.4831,48.7074807 C130.950687,48.4044169 130.950687,47.9084275 130.950687,47.5324643 L130.950687,46.4963565 C130.941746,46.0560672 130.941746,45.4680331 130.353711,45.1565538 C130.051805,44.9909785 129.748846,44.9909785 129.427479,44.9909785 L126.528333,44.9909785 L126.528333,46.9734111 L128.197761,46.9734111 L128.197761,46.3399857 L129.189214,46.3399857 L129.189214,47.642392 L127.895329,47.642392 C127.51926,47.6522276 127.11479,47.6522276 126.785007,47.9916359 C126.463639,48.3130034 126.44523,48.6801303 126.435763,49.0466786 L126.435763,50.1201828 C126.44523,50.4694793 126.454172,50.8086772 126.748189,51.111741 C127.087965,51.4604063 127.537143,51.4692426 127.90427,51.4692426 L130.758182,51.4692426" id="path50" fill="#FFFFFF"></path>
                        <path d="M139.778037,51.4692426 L139.778037,49.5611296 L138.20907,49.5611296 L138.20907,50.1201828 L137.218143,50.1201828 L137.218143,48.9367509 L138.401574,48.9367509 C138.759234,48.9277042 139.17212,48.9277042 139.502955,48.7074807 C139.971068,48.4044169 139.971068,47.9084275 139.971068,47.5324643 L139.971068,46.4963565 C139.961075,46.0560672 139.961075,45.4680331 139.374618,45.1565538 C139.07166,44.9909785 138.768701,44.9909785 138.447334,44.9909785 L135.547663,44.9909785 L135.547663,46.9734111 L137.218143,46.9734111 L137.218143,46.3399857 L138.20907,46.3399857 L138.20907,47.642392 L136.915184,47.642392 C136.539116,47.6522276 136.135697,47.6522276 135.804862,47.9916359 C135.483494,48.3130034 135.465085,48.6801303 135.45667,49.0466786 L135.45667,50.1201828 C135.465085,50.4694793 135.475079,50.8086772 135.768044,51.111741 C136.10782,51.4604063 136.557525,51.4692426 136.924651,51.4692426 L139.778037,51.4692426" id="path52" fill="#FFFFFF"></path>
                        <path d="M146.044967,51.4692426 C145.558971,51.4692426 144.916762,51.4692426 144.641679,50.7901631 C144.503875,50.4694793 144.503875,50.092885 144.503875,49.7166588 L144.503875,46.5510048 C144.503875,46.129177 144.503875,45.6332401 144.907294,45.2937793 C145.264954,45.0003934 145.797235,44.9909785 146.200654,44.9909785 L147.376196,44.9909785 C147.935302,44.9909785 148.687965,45.0003934 148.917288,45.8534637 C149.000391,46.1659423 149.000391,46.5604196 149.000391,46.9275991 L149.000391,49.6067312 C149.000391,50.138697 149.000391,50.5703603 148.806834,50.9091375 C148.504401,51.4425234 147.926361,51.4692426 147.311502,51.4692426 L146.044967,51.4692426 Z M147.238392,46.3399857 L146.274816,46.3399857 L146.274816,50.1201828 L147.238392,50.1201828 L147.238392,46.3399857 L147.238392,46.3399857 Z" id="path54" fill="#FFFFFF"></path>
                        <path d="M153.321758,51.4692426 L155.515052,51.4692426 L155.515052,46.3399857 L156.423402,46.3399857 L156.423402,51.4692426 L158.606702,51.4692426 L158.606702,50.1201828 L158.1854,50.1201828 L158.1854,46.7435097 C158.1854,46.3399857 158.194342,45.8355807 157.94661,45.4775005 C157.625243,45.0003934 157.092961,44.9909785 156.680075,44.9909785 L155.165808,44.9909785 C154.817616,45.0003934 154.432606,45.0092296 154.110713,45.284943 C153.761469,45.586797 153.744112,45.9822737 153.744112,46.5510048 L153.744112,50.1201828 L153.321758,50.1201828 L153.321758,51.4692426" id="path56" fill="#FFFFFF"></path>
                        <path d="M162.919654,50.1201828 L163.333066,50.1201828 L163.333066,46.3399857 L162.919654,46.3399857 L162.919654,44.9909785 L165.112422,44.9909785 L165.112422,47.6238778 L166.103349,47.6238778 L166.103349,45.6609588 C166.113868,45.0550416 166.370016,45.0003934 167.040101,44.9909785 L168.260351,44.9909785 L168.260351,46.3399857 L167.829056,46.3399857 L167.829056,47.0375268 C167.819588,47.3309127 167.801179,47.6339765 167.580798,47.9084275 C167.388819,48.1387496 167.159496,48.1930297 166.929647,48.2488877 C167.846939,48.5517411 167.856406,49.1202092 167.856406,49.9739107 C167.856406,50.3956858 167.856406,50.8177239 167.507688,51.1394596 C167.159496,51.4604063 166.690857,51.4604063 166.29638,51.4692426 L162.919654,51.4692426 L162.919654,50.1201828 Z M166.103349,50.1201828 L166.103349,48.8362907 L165.112422,48.8362907 L165.112422,50.1201828 L166.103349,50.1201828 L166.103349,50.1201828 Z" id="path58" fill="#FFFFFF"></path>
                        <polyline id="path60" fill="#FFFFFF" points="172.499141 51.4692426 175.124256 51.4692426 175.124256 50.1201828 174.692435 50.1201828 174.692435 46.3399857 175.124256 46.3399857 175.124256 44.9909785 172.499141 44.9909785 172.499141 46.3399857 172.921495 46.3399857 172.921495 50.1201828 172.499141 50.1201828 172.499141 51.4692426"></polyline>
                        <path d="M56.8042063,21.0893354 L55.3204457,21.0893354 L55.3204457,36.5343318 L56.8042063,36.5343318 C61.0356329,36.5343318 64.4828386,33.0882306 64.4828386,28.8126752 C64.4828386,24.5371197 61.0356329,21.0893354 56.8042063,21.0893354 Z M57.3270203,41.7268629 C55.4508862,41.7268629 47.0309521,41.6389207 47.0309521,41.6389207 L47.248914,40.591715 C47.248914,40.591715 47.4235886,40.591715 47.5542394,40.591715 C48.7754886,40.461853 49.2120961,40.1999201 49.2120961,38.4983028 L49.2120961,19.1267845 C49.2120961,17.4254302 48.7754886,17.1628661 47.5542394,17.0325834 C47.4235886,17.0325834 47.248914,17.0325834 47.248914,17.0325834 L47.0309521,15.9847465 C47.0309521,15.9847465 55.4077567,15.8974355 57.3270203,15.8974355 C64.4391831,15.8974355 70.2411554,21.7009857 70.2411554,28.8126752 C70.2411554,35.9243647 64.4391831,41.7268629 57.3270203,41.7268629 L57.3270203,41.7268629 Z" id="path62" fill="#E51636"></path>
                        <path d="M100.958314,24.5371197 L104.186191,31.1248907 L107.458774,24.5371197 L100.958314,24.5371197 Z M119.151608,18.471584 C117.97291,18.079158 117.493225,18.079158 116.707952,19.6061534 L104.186191,43.0358438 L91.7080845,19.6061534 C91.1852706,18.5899272 90.77817,18.2507293 90.2295835,18.2527806 C90.1932916,18.4909397 90.1764606,18.7787504 90.1764606,19.1267845 L90.1764606,38.4983028 C90.1764606,40.1999201 90.568834,40.461853 91.7906617,40.591715 C91.9647577,40.591715 92.1399057,40.591715 92.1399057,40.591715 L92.3576571,41.6389207 L82.1049289,41.6389207 L82.1049289,40.591715 C82.1049289,40.591715 82.2795509,40.591715 82.4105173,40.591715 C83.6318191,40.461853 84.068374,40.1999201 84.068374,38.4983028 L84.068374,31.6475469 L77.7420099,31.6475469 L77.7420099,38.4983028 C77.7420099,40.1999201 78.1780388,40.461853 79.3998665,40.591715 C79.530833,40.591715 79.7054549,40.591715 79.7054549,40.591715 L79.7054549,41.6389207 L69.4522008,41.6389207 L69.6699522,40.591715 C69.6699522,40.591715 69.8451002,40.591715 69.9760666,40.591715 C71.1973684,40.461853 71.6339233,40.1999201 71.6339233,38.4983028 L71.6339233,19.1267845 C71.6339233,17.4254302 71.1973684,17.1628661 69.9760666,17.0325834 C69.8451002,17.0325834 69.6699522,17.0325834 69.6699522,17.0325834 L69.4522008,15.9847465 L79.7054549,15.9847465 L79.7054549,17.0325834 C79.7054549,17.0325834 79.530833,17.0325834 79.3998665,17.0325834 C78.1780388,17.1628661 77.7420099,17.4254302 77.7420099,19.1267845 L77.7420099,26.9795654 L84.068374,26.9795654 L84.068374,19.1267845 C84.068374,17.4254302 83.6318191,17.1628661 82.4105173,17.0325834 C82.2795509,17.0325834 82.1049289,17.0325834 82.1049289,17.0325834 L82.1049289,15.9847465 L91.7438504,15.9847465 L97.5547642,12.88831 L97.8603526,13.9340956 C97.8603526,13.9340956 97.6857306,14.0214066 97.5547642,14.0643257 C96.5512139,14.7639181 96.376066,15.2872054 97.1187352,16.726469 L98.2969075,19.1267845 L110.120181,19.1267845 L111.297828,16.726469 C112.039445,15.2430765 111.864823,14.7639181 110.818143,14.0643257 C110.730832,14.0214066 110.55621,13.9340956 110.55621,13.9340956 L110.818143,12.88831 L120.110977,17.8172251 L119.413541,18.6462586 C119.413541,18.6462586 119.238919,18.5589476 119.151608,18.471584 L119.151608,18.471584 Z" id="path64" fill="#E51636"></path>
                        <path d="M184.880995,30.4267185 L181.34753,32.5638914 C179.689147,33.523155 179.252592,34.1360675 179.252592,35.1832733 C179.252592,36.4912022 180.605387,37.3633653 182.263243,37.3633653 C184.269818,37.3633653 185.710449,36.2292693 186.234315,34.7019058 L187.19421,34.9212878 C187.19421,37.1014323 187.237339,38.7598675 187.237339,40.4187235 C185.972382,41.3779871 184.183559,42.0323987 181.609463,42.0323987 C176.068372,42.0323987 173.450094,38.4983028 173.450094,34.6145422 C173.450094,31.5176849 174.671922,29.3797231 177.813013,27.5034839 L180.561731,25.8456798 C182.263243,24.9293353 183.005387,24.1430632 183.005387,22.834503 C183.005387,21.6132539 181.784085,20.6979613 180.125176,20.6979613 C177.638917,20.6979613 175.282573,22.0492302 174.409989,24.885785 L173.319128,24.8420244 C173.319128,23.5772249 173.363309,19.8685071 173.363309,18.6024979 C175.151606,16.421354 177.769358,15.46188 180.867846,15.46188 C184.793684,15.46188 189.243914,18.2106504 189.243914,23.2269291 C189.243914,26.8922544 187.411961,28.899355 184.880995,30.4267185" id="path66" fill="#E51636"></path>
                        <path d="M16.0386058,30.6451537 L14.7298353,30.6451537 L14.7298353,37.4506762 L16.0386058,37.4506762 C17.9150028,37.4506762 19.3984479,35.9243647 19.3984479,34.0481254 C19.3984479,32.1714653 17.9150028,30.6451537 16.0386058,30.6451537 Z M27.754161,17.0325834 C26.9958179,17.119684 26.8316627,17.2943585 25.5237337,19.1267845 L20.2366859,26.7691775 C22.9824057,27.9779086 24.8956207,30.7197362 24.8956207,33.9166329 C24.8956207,38.1921884 21.4055484,41.682471 17.0860219,41.682471 C14.3807491,41.682471 6.4406573,41.6389207 6.4406573,41.6389207 L6.65846137,40.591715 C6.65846137,40.591715 6.83287294,40.591715 6.96373421,40.591715 C8.18561452,40.461853 8.62138046,40.1999201 8.62138046,38.4983028 L8.62138046,19.1267845 C8.62138046,17.4254302 8.18561452,17.1628661 6.96373421,17.0325834 C6.83287294,17.0325834 6.65846137,17.0325834 6.65846137,17.0325834 L6.4406573,15.9847465 L16.9113474,15.9847465 L16.6935959,17.0325834 C16.6935959,17.0325834 16.5189213,17.0325834 16.3880601,17.0325834 C15.166022,17.1628661 14.7298353,17.4254302 14.7298353,19.1267845 L14.7298353,24.0320836 L20.2473631,16.0724782 L28.0070473,15.9847465 L28.0070473,17.0325834 C28.0070473,17.0325834 27.8714523,16.9881916 27.754161,17.0325834 L27.754161,17.0325834 Z" id="path68" fill="#E51636"></path>
                        <path d="M26.1234444,74.6177496 C26.1234444,74.6177496 49.842839,58.2216948 71.1679141,62.8712673 C66.7492422,61.5652845 58.3973687,58.7092687 50.2389468,53.8230098 L106.278498,53.8230098 C108.846809,55.6665338 110.468899,57.0666652 110.468899,57.0666652 C110.468899,57.0666652 99.748584,53.0040749 93.8429957,55.6255081 C93.8429957,55.6255081 109.035106,60.0857316 117.288097,70.195396 C117.288097,70.195396 108.197762,71.7517405 99.7443762,69.0046005 C99.7443762,69.0046005 104.841549,79.2226147 107.074817,82.7203135 C107.074817,82.7203135 98.4136728,83.5024305 92.8489129,89.4653495 C92.8489129,89.4653495 101.522154,86.6130156 108.523863,93.8330023 C108.523863,93.8330023 96.6243237,97.0861251 88.0920425,94.6498333 C88.0920425,94.6498333 92.6616676,98.079156 103.186322,101.347532 C103.186322,101.347532 97.5105827,103.809596 95.106375,109.491122 C95.106375,109.491122 103.574488,102.538327 116.002101,105.355421 C116.002101,105.355421 111.516105,107.593949 109.803022,109.062456 C109.803022,109.062456 150.433132,100.673765 156.610121,97.2155137 C156.610121,97.2155137 141.26285,116.133067 91.4629826,116.936749 C69.3538444,117.293883 42.09278,128.066269 42.09278,128.066269 C42.09278,128.066269 58.6166981,110.630372 78.5698863,106.922811 C73.9723847,107.722811 52.7836936,111.337801 41.9185788,111.925309 C41.9185788,111.925309 65.6178813,100.371332 70.9138707,90.2164343 C70.9138707,90.2164343 46.613227,95.2252442 33.4153312,89.3322792 C33.4153312,89.3322792 57.9981577,84.4113062 63.2873094,77.3938179 C63.2873094,77.3938179 41.5616558,69.8361587 26.1234444,74.6177496" id="path70" fill="#E51636"></path>
                        <path d="M165.471659,16.0724782 L173.935564,15.9847465 L173.673631,17.0325834 C173.673631,17.0325834 173.499009,16.9881916 173.368569,17.0325834 C172.583822,17.119684 172.365019,17.2943585 170.488359,19.1267845 L158.883362,30.7755942 L166.649305,38.4983028 C168.482836,40.3314125 168.743717,40.5050351 169.484808,40.591715 C169.615775,40.6358964 169.790397,40.591715 169.790397,40.591715 L170.05233,41.6389207 L162.286386,41.5516097 L156.265085,35.5308867 L156.265085,38.4983028 C156.265085,40.1999201 156.70164,40.461853 157.922941,40.591715 C158.053908,40.591715 158.22853,40.591715 158.22853,40.591715 L158.447333,41.6389207 L140.719523,41.6389207 L140.719523,40.5779346 C141.871397,40.4176716 142.431555,39.6823659 141.75358,38.4109918 L135.994211,27.1548185 L133.158708,32.7385133 L136.299799,38.6729773 C137.01617,40.0630628 137.206045,40.4359753 138.319523,40.5769352 L138.319523,41.6315571 L131.107952,41.5516097 L129.886124,39.1530825 L128.664297,41.5516097 L121.429057,41.6311364 L121.429057,40.5796177 C122.563048,40.4413402 122.750819,40.0735296 123.472449,38.6729773 L126.614067,32.7385133 L123.778038,27.1548185 L118.018143,38.4109918 C117.345428,39.6307682 117.89191,40.4039438 119.029057,40.573832 L119.029057,41.6389207 L108.507558,41.6389207 L108.768965,40.591715 C108.768965,40.591715 108.943587,40.591715 109.074028,40.591715 C110.340563,40.461853 110.471003,40.1126091 111.21262,38.6729773 L123.778038,14.8066794 L129.886124,26.4556469 L135.994211,14.8066794 L148.560154,38.6729773 C148.984612,39.5488222 149.216038,40.0195125 149.616827,40.2839175 C150.001837,40.0158307 150.156998,39.513477 150.156998,38.4983028 L150.156998,19.1267845 C150.156998,17.4254302 149.720969,17.1628661 148.499668,17.0325834 C148.368175,17.0325834 148.193027,17.0325834 148.193027,17.0325834 L147.975276,15.9847465 L158.447333,15.9847465 L158.22853,17.0325834 C158.22853,17.0325834 158.053908,17.0325834 157.922941,17.0325834 C156.70164,17.1628661 156.265085,17.4254302 156.265085,19.1267845 L156.265085,25.2785792 L165.471659,16.0724782" id="path72" fill="#E51636"></path>
                        <path d="M42.1422738,31.4739243 L35.4234311,31.4739243 L35.4234311,35.9243647 L42.1422738,35.9243647 C43.3074545,35.9243647 43.8155413,35.7501109 44.0665867,35.2200386 L45.2864157,35.2200386 L45.3277043,43.7343842 L44.2800778,43.5155808 C44.2800778,43.5155808 44.2800778,43.340538 44.2800778,43.2094664 C44.1492165,41.988638 43.8436807,41.5516097 42.1422738,41.5516097 L29.315397,41.5516097 L29.315397,31.4739243 C27.744904,31.5176849 27.4393682,31.9095324 27.3085069,33.0882306 C27.3085069,33.2628526 27.3085069,33.435844 27.3085069,33.435844 L26.2615115,33.6546474 L26.2615115,24.0125701 L27.3085069,24.2313735 C27.3085069,24.2313735 27.3085069,24.406048 27.3085069,24.5371197 C27.4393682,25.7583163 27.744904,26.1507423 29.315397,26.1949237 L29.315397,11.6660615 L34.2016034,16.0724782 L42.1422738,16.0724782 C43.8436807,16.0724782 44.1492165,15.6355026 44.2800778,14.4142534 C44.2800778,14.2831818 44.2800778,14.1087176 44.2800778,14.1087176 L45.3277043,13.8899142 L45.2859949,22.4609593 L44.0912547,22.4609593 C43.849256,21.8860744 43.3471127,21.7009857 42.1422738,21.7009857 L35.4234311,21.7009857 L35.4234311,26.1949237 L42.1422738,26.1949237 C43.7814585,26.1949237 44.2030232,25.7098744 44.2689798,24.8604859 L45.3277043,24.8604859 L45.3277043,32.820512 L44.2546209,32.820512 C44.183089,32.2614588 43.8971192,31.4739243 42.1422738,31.4739243" id="path74" fill="#E51636"></path>
                        <path d="M26.7883228,33.0329512 C26.7605516,33.0386842 26.7578692,33.0386842 26.7289408,33.0446803 C26.7289408,32.0473891 26.7289408,25.6200914 26.7289408,24.622169 C26.760762,24.6291644 26.7636548,24.6301637 26.7938455,24.6363176 C26.8636943,25.2471789 27.0003412,25.6909395 27.2493353,26.005522 C27.2493353,27.7870342 27.2493353,30.2979085 27.2493353,31.6676915 C26.9960283,31.9846935 26.8554891,32.4260347 26.7883228,33.0329512" id="path76" fill="#F1807A"></path>
                        <path d="M66.3605506,37.3249695 C64.094147,39.7281778 60.8825757,41.2312942 57.3270203,41.2312942 C55.7680459,41.2312942 49.6003669,41.1696505 47.6390784,41.1497163 C47.6462841,41.1150023 47.6464945,41.1119516 47.6537003,41.078237 C48.2373689,41.0135427 48.6928587,40.8972508 49.0253242,40.6385789 C51.5257318,40.6631942 56.4744233,40.7106893 57.8472043,40.7106893 C61.139249,40.7106893 64.1356986,39.4224842 66.3605506,37.3249695" id="path78" fill="#F1807A"></path>
                        <path d="M64.9783021,28.8126752 C64.9783021,24.2809198 61.3107151,20.5937667 56.8042063,20.5937667 L55.3451663,20.5937667 L55.3451663,20.5697299 L55.3451663,20.0731619 L56.8562773,20.0731619 C61.363838,20.0731619 65.4979602,23.982169 65.4979602,28.5143451 C65.4979602,30.9233391 64.4607479,32.873109 62.8118327,34.3768565 C64.1556854,32.9121359 64.9783021,30.9576324 64.9783021,28.8126752" id="path80" fill="#F1807A"></path>
                        <path d="M50.2278488,18.8003151 L50.2278488,37.9776979 C50.2278488,39.2620109 49.9502946,39.8984868 49.3785129,40.2303212 C49.5993676,39.8496243 49.7074544,39.3010378 49.7074544,38.4983028 L49.7074544,19.1267845 C49.7074544,17.1408806 49.0442065,16.7026426 47.6537003,16.5454302 C47.6464945,16.5127675 47.6462841,16.5097169 47.6390784,16.4739509 C48.0859423,16.469638 48.4261921,16.4634841 49.2061,16.4550686 C49.7162381,16.7137405 50.2278488,17.6362389 50.2278488,18.8003151" id="path82" fill="#F1807A"></path>
                        <path d="M78.4310303,16.4807359 L79.2994063,16.4807359 L79.3009842,16.5630763 C78.8086765,16.6339693 78.4084136,16.7493127 78.0959875,16.9807359 C78.1875063,16.778567 78.2995378,16.615426 78.4310303,16.4807359" id="path84" fill="#F1807A"></path>
                        <path d="M85.0840215,30.6313733 L85.0840215,37.9776979 C85.0840215,39.2620109 84.8063095,39.8984868 84.2340544,40.2309523 C84.4549617,39.8506236 84.5633115,39.3010378 84.5633115,38.4983028 L84.5633115,31.1526093 L77.7662045,31.1526093 L77.7662045,30.6313733 L85.0840215,30.6313733" id="path86" fill="#F1807A"></path>
                        <path d="M85.0840215,18.6068108 L85.0840215,26.9548974 L84.5633115,26.9548974 L84.5633115,19.1267845 C84.5633115,17.1330436 83.8953299,16.6984874 82.4936206,16.5433789 L82.4930946,16.4807359 C82.4930946,16.4807359 83.2094654,16.4807359 84.1451655,16.4807359 C84.5917139,16.8404993 85.0840215,17.4699798 85.0840215,18.6068108" id="path88" fill="#F1807A"></path>
                        <path d="M112.495461,16.550164 L111.281523,19.1021691 L110.684021,19.1021691 L111.742798,16.9446413 C112.075737,16.2793947 112.249307,15.7564756 112.249307,15.3114526 C112.249307,14.6718734 111.88744,14.1927676 111.131621,13.6795263 C111.137407,13.6525966 111.138459,13.649546 111.145822,13.6219852 C111.380931,13.7473238 111.925309,14.0608543 112.687966,14.4652199 C112.78001,14.9169753 112.8284,15.8838655 112.495461,16.550164" id="path90" fill="#F1807A"></path>
                        <path d="M90.3247841,17.2392895 C91.3525289,17.2392895 92.0105171,18.0019456 92.5259674,19.0027083 L92.5222857,18.9965544 C92.5222857,18.9965544 103.031687,38.6877571 104.485993,41.418066 C104.333988,41.7016163 104.2998,41.7704132 104.186717,41.9828523 C103.375671,40.4608537 92.2109116,19.4966465 92.1462173,19.3745689 C91.7154481,18.5373302 91.1857965,17.7652593 90.2474665,17.7578431 C90.2516743,17.7241284 90.2553561,17.6894144 90.2600898,17.6567517 L90.3247841,17.2392895" id="path92" fill="#F1807A"></path>
                        <polyline id="path94" fill="#F1807A" points="104.460221 31.6855745 108.258248 24.041551 100.938853 24.041551 100.683758 23.5219455 109.10243 23.5219455 104.749504 32.2739768 104.460221 31.6855745"></polyline>
                        <path d="M72.6495708,18.6068108 L72.6495708,37.9776979 C72.6495708,39.2620109 72.3718588,39.8984868 71.8001297,40.2303212 C72.021037,39.8496243 72.1293868,39.3010378 72.1293868,38.4983028 L72.1293868,19.1267845 C72.1293868,17.1402494 71.4656129,16.7026426 70.0749489,16.5454302 C70.0686373,16.5148188 70.0681113,16.5127675 70.0612737,16.4807359 C70.334252,16.4807359 70.7808003,16.4807359 71.7096629,16.4807359 C72.1567372,16.8404993 72.6495708,17.4696117 72.6495708,18.6068108" id="path96" fill="#F1807A"></path>
                        <path d="M91.7359609,41.08397 C91.7417466,41.1119516 91.7422725,41.1140029 91.7480582,41.1439832 C90.7366184,41.1439832 83.5445081,41.1439832 82.4930946,41.1439832 L82.4936206,41.0809194 C83.0963819,41.0141213 83.563969,40.8951995 83.9005896,40.6227472 C85.4311616,40.6227472 88.3366184,40.6227472 90.3174205,40.6227472 C90.6356322,40.8809983 91.0937518,41.015594 91.7359609,41.08397" id="path98" fill="#F1807A"></path>
                        <path d="M79.3009842,41.078237 L79.3030881,41.1439832 C79.3030881,41.1439832 71.0753434,41.1439832 70.0612737,41.1439832 C70.0681113,41.1119516 70.0686373,41.1088484 70.0749489,41.078237 C70.6703467,41.0114388 71.1321481,40.8930956 71.4661389,40.6227472 C72.9903992,40.6227472 75.9232065,40.6227472 77.9097942,40.6227472 C78.2432591,40.8930956 78.7050605,41.0114388 79.3009842,41.078237" id="path100" fill="#F1807A"></path>
                        <path d="M118.13596,17.3302823 C118.711897,17.6358181 119.146348,17.8667188 119.336223,17.9675998 C119.323074,17.9844834 119.322022,17.985062 119.308347,18.0013145 L119.308347,18.0013145 C118.453646,17.7167648 117.847729,17.6388687 117.300194,18.0175669 C117.571595,17.6590134 117.841417,17.4412619 118.13596,17.3302823" id="path102" fill="#F1807A"></path>
                        <path d="M92.1456913,19.3735695 L92.1470247,19.3761029 C92.1496913,19.3803695 92.152358,19.3845029 92.1536913,19.3881029 L92.1456913,19.3735695" id="path104" fill="#F1807A"></path>
                        <path d="M169.640388,41.1065867 C169.955055,41.1065867 169.503055,41.1399201 169.640388,41.1065867 L169.640388,41.1065867" id="path106" fill="#F1807A"></path>
                        <path d="M156.955157,16.4807359 C157.369095,16.4807359 157.679943,16.4807359 157.837734,16.4807359 C157.830897,16.5215045 157.830897,16.5241152 157.824059,16.5630763 C157.332277,16.6339693 156.932014,16.7493127 156.619588,16.9807359 C156.712159,16.778567 156.823665,16.615426 156.955157,16.4807359" id="path108" fill="#F1807A"></path>
                        <path d="M181.735696,31.1421425 C181.735696,31.1421425 184.315051,29.5816955 184.316103,29.5804332 C185.02511,29.1535035 186.46206,28.6100716 186.97751,28.1383293 C186.366859,28.8083622 185.58895,29.4216429 184.624847,30.0024713 L181.090331,32.1398546 C180.567517,32.4428657 180.150423,32.7210511 179.82064,32.9957651 C180.186189,32.5406961 180.883099,31.6354496 181.735696,31.1421425" id="path110" fill="#F1807A"></path>
                        <path d="M180.301376,19.6817352 C182.25325,19.6817352 184.021034,21.0299535 184.021034,22.7728594 C184.021034,23.847363 183.584479,24.1403807 182.824453,24.7799599 C183.258904,24.2519389 183.500324,23.6328725 183.500324,22.834503 C183.500324,21.3338062 182.050226,20.2015511 180.125176,20.2015511 C178.443125,20.2015511 176.951475,20.7663374 175.819588,21.7677312 C176.994604,20.4429712 178.346873,19.6817352 180.301376,19.6817352" id="path112" fill="#F1807A"></path>
                        <path d="M174.338983,23.7307029 C174.237471,23.9379876 174.1449,24.1531092 174.063901,24.3755944 C173.953973,24.3712814 173.93872,24.3702821 173.818273,24.3655484 C173.822481,23.6824189 173.855091,19.1200521 173.857195,18.7896379 C174.071265,18.5393815 174.300061,18.3064295 174.540956,18.0892566 C174.486781,18.1490594 174.430502,18.2075998 174.377379,18.2690331 C174.375275,18.5852461 174.345295,22.7656536 174.338983,23.7307029" id="path114" fill="#F1807A"></path>
                        <path d="M181.899272,41.0168037 C184.776327,41.0168037 186.739246,40.1105578 186.739772,40.1588419 C185.436945,41.0698215 183.715446,41.5364092 181.609463,41.5364092 C175.952132,41.5364092 173.945558,37.8077571 173.945558,34.6145422 C173.945558,32.3791708 174.609332,30.7334641 176.158312,29.316449 C174.979088,30.616804 174.465742,32.4708473 174.465742,34.4385001 C174.465742,37.6315046 176.242994,41.0168037 181.899272,41.0168037" id="path116" fill="#F1807A"></path>
                        <path d="M185.904532,36.2682963 C186.153841,35.9726487 186.367911,35.6428656 186.534118,35.27779 C186.616169,35.2973035 186.621429,35.2983029 186.701376,35.3172378 C186.701902,35.3367513 186.702428,35.3589472 186.702428,35.3819321 C186.476787,35.7153969 186.209594,36.012675 185.904532,36.2682963" id="path118" fill="#F1807A"></path>
                        <path d="M27.0863899,16.4922118 C27.2754234,16.4897589 27.4215378,16.4873061 27.5118994,16.4860482 C27.5118994,16.5337212 27.5118994,16.5337212 27.5118994,16.5816457 C27.1901637,16.6457338 26.9442202,16.7583124 26.6952262,16.9860482 C26.8355549,16.7852935 26.9631551,16.6236583 27.0863899,16.4922118" id="path120" fill="#F1807A"></path>
                        <path d="M22.5199205,38.7781713 C21.1801704,40.2555677 19.2408148,41.1871127 17.0860219,41.1871127 C14.8479681,41.1871127 8.95463488,41.1571324 7.0490465,41.1470864 C7.05619969,41.1140029 7.05641008,41.1099004 7.06340548,41.078237 C7.65243899,41.0124908 8.11061124,40.8951995 8.44365528,40.6311627 C10.8754764,40.6436808 15.6443389,40.6669286 17.6064164,40.6669286 C19.4960153,40.6669286 21.2204071,39.9505052 22.5199205,38.7781713" id="path122" fill="#F1807A"></path>
                        <path d="M15.4195394,16.4807359 C15.8337406,16.4807359 16.1437997,16.4807359 16.3021692,16.4807359 C16.2953842,16.5214445 16.295016,16.5240515 16.2888096,16.5629552 C15.7971857,16.633744 15.3967123,16.7489178 15.0838129,16.9807359 C15.1758576,16.778129 15.2878366,16.6152279 15.4195394,16.4807359" id="path124" fill="#F1807A"></path>
                        <path d="M18.9955025,36.5464817 C19.5556077,35.8690852 19.893964,34.9975534 19.893964,34.0481254 C19.893964,31.8984344 18.1644703,30.1491643 16.0386058,30.1491643 L14.754661,30.1491643 L14.754661,30.1249171 L14.754661,29.6289276 L16.0386058,29.6289276 C18.6020771,29.6289276 20.4041547,31.8601964 20.4041547,33.7567907 C20.4041547,34.9728854 19.8607227,35.8306368 18.9955025,36.5464817" id="path126" fill="#F1807A"></path>
                        <path d="M14.754661,24.8658508 C16.2179615,22.7545556 20.2822875,16.8914131 20.508507,16.5649437 C20.5386977,16.5639444 21.0527805,16.5639444 21.128152,16.562682 C19.7821954,18.5046675 14.754661,25.7961335 14.754661,25.7961335 L14.754661,24.8658508" id="path128" fill="#F1807A"></path>
                        <path d="M9.63718582,18.8365018 L9.63718582,37.9776979 C9.63718582,39.2620109 9.35957899,39.8984868 8.78779728,40.2303212 C9.00886237,39.8496243 9.11715954,39.3010378 9.11715954,38.4983028 L9.11715954,19.1267845 C9.11715954,17.1408806 8.45354351,16.7026426 7.06340548,16.5454302 C7.05662047,16.5148188 7.05619969,16.5127675 7.04941468,16.4807359 C7.32228779,16.4807359 7.69972367,16.4807359 8.62879663,16.4807359 C9.11573942,16.7426689 9.63718582,17.699513 9.63718582,18.8365018" id="path130" fill="#F1807A"></path>
                        <path d="M141.107689,41.1439832 L141.107689,41.0093875 C141.476394,40.9198149 141.748846,40.7801173 141.950292,40.6227472 C143.320443,40.6227472 146.235894,40.6227472 149.240233,40.6227472 C149.273369,40.6486249 149.307557,40.6732929 149.343323,40.6969089 L149.623665,40.8830496 L149.899799,40.6905447 C149.930305,40.6689799 149.958708,40.6459424 149.986584,40.6227472 C152.412882,40.6227472 154.815512,40.6227472 156.433395,40.6227472 C156.76686,40.8930956 157.228661,41.0114388 157.824059,41.078237 C157.830897,41.1088484 157.830897,41.1119516 157.837734,41.1439832 C156.813671,41.1439832 143.806966,41.1439832 141.107689,41.1439832" id="path132" fill="#F1807A"></path>
                        <path d="M142.327939,40.2029707 C142.34214,40.1793547 142.355289,40.1557386 142.367386,40.1331219 C142.462587,39.9537663 142.541482,39.7117676 142.541482,39.40255 C142.541482,39.0727669 142.451016,38.6661923 142.190135,38.1779872 C142.190135,38.1779872 137.156078,28.3376719 136.271923,26.6099665 L136.56331,26.0365542 C136.56331,26.0365542 142.506242,37.6573824 142.506242,37.6578031 C143.292567,39.1327801 143.216827,39.6408669 142.327939,40.2029707" id="path134" fill="#F1807A"></path>
                        <path d="M112.490727,38.4257716 C112.080471,39.2231417 111.520839,39.9747525 110.939116,40.1740424 C111.145822,39.8863895 111.332542,39.5225237 111.568176,39.0647722 C111.568176,39.0647722 121.556341,20.0893618 123.777512,15.8717682 C123.80907,15.93378 124.024192,16.344089 124.073107,16.4376064 C121.266006,21.7694143 112.490727,38.4257716 112.490727,38.4257716" id="path136" fill="#F1807A"></path>
                        <path d="M130.16594,26.9890329 C131.4188,24.6001835 135.365677,17.0724519 135.995263,15.8717682 C136.023665,15.9257853 136.22669,16.3124782 136.280338,16.4139378 C134.821824,19.1958444 130.451542,27.5314129 130.451542,27.5314129 C130.451542,27.5314129 130.244836,27.1410907 130.16594,26.9890329" id="path138" fill="#F1807A"></path>
                        <path d="M127.758051,32.7484015 L124.624849,38.6678228 C124.165677,39.5586578 123.679681,39.8411561 123.190529,40.1709392 C123.419326,39.8569878 123.63024,39.4487827 123.902692,38.9197097 L123.912686,38.8997755 C123.910582,38.90493 127.17212,32.7436678 127.17212,32.7436678 L124.056802,26.6099665 L124.349241,26.0375536 L127.758051,32.7484015" id="path140" fill="#F1807A"></path>
                        <path d="M118.62406,41.1439832 C116.63642,41.1439832 110.105454,41.1439832 109.141878,41.1439832 C109.149767,41.112951 109.150819,41.1092692 109.158183,41.0809194 C109.789872,41.0124908 110.199603,40.8694796 110.517814,40.6227472 C112.197762,40.6227472 115.669162,40.6227472 117.836157,40.6227472 C118.049701,40.7883225 118.31742,40.9104 118.62406,40.9919253 L118.62406,41.1439832" id="path142" fill="#F1807A"></path>
                        <path d="M128.358708,41.0597228 C127.899537,41.064667 123.440365,41.1140029 121.814067,41.1318859 L121.814067,41.0199069 C122.231161,40.938329 122.536223,40.8074678 122.786585,40.6069155 C124.457591,40.5886117 127.641811,40.5533192 128.622219,40.5422212 C128.500194,40.7821686 128.403942,40.9693612 128.358708,41.0597228" id="path144" fill="#F1807A"></path>
                        <path d="M137.914,41.1314651 C136.250358,41.112951 131.867452,41.064667 131.413014,41.0597228 C131.239444,40.7184737 130.348978,38.9689931 130.013935,38.3115309 C130.23905,37.8691904 130.406308,37.5400385 130.406308,37.5400385 C130.406308,37.5400385 131.718077,40.1167117 131.933725,40.5397492 C132.285072,40.5427998 134.994868,40.573832 136.971463,40.5953967 C137.216039,40.7957386 137.511108,40.9282304 137.914,41.0124908 L137.914,41.1314651" id="path146" fill="#F1807A"></path>
                        <path d="M151.173172,18.6068108 L151.173172,37.9776979 C151.173172,38.8444961 151.081653,39.7096637 150.419983,40.170308 L150.315315,40.2434704 C150.603021,39.7680463 150.651936,39.1342002 150.651936,38.4983028 L150.651936,19.1267845 C150.651936,17.1402494 149.989214,16.7026426 148.59855,16.5454302 C148.591712,16.5148188 148.591186,16.5127675 148.584875,16.4807359 C148.857327,16.4807359 149.234973,16.4807359 150.164362,16.4807359 C150.61091,16.8404993 151.173172,17.4696117 151.173172,18.6068108" id="path148" fill="#F1807A"></path>
                        <path d="M162.71137,40.5407485 C162.962784,40.5427998 166.164361,40.573832 168.177774,40.5964487 C168.614328,40.9167643 168.938852,41.0235887 169.402231,41.0809194 C169.408017,41.1055874 169.409069,41.1092692 169.416432,41.136567 C168.366071,41.1244697 162.844966,41.0624053 162.493619,41.0587235 C162.268504,40.8337662 157.829319,36.394003 156.289805,34.8555415 L156.289805,34.1233391 C156.289805,34.1233391 162.438918,40.2687169 162.71137,40.5407485" id="path150" fill="#F1807A"></path>
                        <path d="M29.7935035,30.4579611 L30.303063,30.4436021 C30.303063,30.4436021 30.303063,39.6396045 30.303063,40.5354362 C31.2191971,40.5354362 42.6350022,40.5354362 42.6350022,40.5354362 C43.7300712,40.5354362 44.3970009,41.0108603 44.7918463,41.5043777 C44.7963697,42.3978951 44.7998937,42.8297688 44.8011034,43.1231547 C44.7702816,43.1174217 44.7678095,43.1163697 44.7388812,43.1106367 C44.5605249,41.5583948 43.9170535,41.0566722 42.1145552,41.0566722 C42.1145552,41.0566722 30.6985397,41.0566722 29.7828263,41.0566722 C29.7828263,40.1608931 29.7828263,30.9644174 29.7828263,30.9644174 L29.2735298,30.9789867 C28.5499007,30.9995522 28.0261926,31.1006435 27.6474944,31.3241807 C28.0029447,30.7250485 28.6505713,30.4899927 29.7935035,30.4579611" id="path152" fill="#F1807A"></path>
                        <path d="M44.9725827,25.2650618 C44.9725827,25.3463767 44.9725827,25.4343189 44.9725827,25.5342005 C44.8309385,25.6346608 44.6626319,25.7209724 44.4725827,25.7971854 C44.6102593,25.6420769 44.7106402,25.4643518 44.7785659,25.2650618 L44.9725827,25.2650618" id="path154" fill="#F1807A"></path>
                        <path d="M44.6537793,32.4313996 C44.4809982,31.7854035 43.9443513,30.9789867 42.1145552,30.9789867 L35.4203804,30.9789867 L35.4203804,30.4579611 L42.3033783,30.4579611 C43.4757123,30.4579611 44.478158,30.9927671 44.8039963,31.4860742 C44.8039963,31.9573957 44.8039963,32.228796 44.8039963,32.4313996 L44.6537793,32.4313996" id="path156" fill="#F1807A"></path>
                        <path d="M44.3926879,15.7133461 C44.6134864,15.4119654 44.7452958,15.0191186 44.8165128,14.5136617 C44.8519281,14.5072975 44.8549545,14.5062981 44.8926879,14.5005125 C44.8919796,14.6667715 44.8901766,14.9685729 44.8876654,15.3614197 C44.7508334,15.5029582 44.5878585,15.6192501 44.3926879,15.7133461" id="path158" fill="#F1807A"></path>
                        <path d="M29.7935035,26.170098 C29.7900321,26.1696772 29.7867185,26.1696772 29.7828263,26.1696772 C29.7828263,23.818645 29.7828263,14.4385006 29.7828263,12.7794343 C29.92852,12.9109267 30.105614,13.0709793 30.303063,13.2490726 C30.303063,16.7038523 30.303063,26.1844569 30.303063,26.1844569 L29.7935035,26.170098" id="path160" fill="#F1807A"></path>
                        <path d="M44.4165143,22.0722151 C44.011728,21.3644176 43.2456005,21.2056273 42.1145552,21.2056273 L35.4203804,21.2056273 L35.4203804,20.6853907 L42.3179477,20.6853907 C43.3082435,20.6853907 44.2061264,20.9562125 44.7680199,21.5785399 C44.7670206,21.8382112 44.7657582,21.9697036 44.7647589,22.0722151 L44.4165143,22.0722151" id="path162" fill="#F1807A"></path>
                        <path d="M196.418667,13.2932541 L196.981455,15.7464296 L197.919259,15.7464296 L197.919259,12.6275868 L197.311764,12.6275868 L197.311764,14.7366203 C197.311764,14.7982639 197.313342,14.8822613 197.313868,14.9911896 C197.315445,15.1010647 197.316497,15.1857458 197.316497,15.244707 L196.725307,12.6275868 L196.094144,12.6275868 L195.507687,15.244707 C195.507687,15.1857458 195.507687,15.1010647 195.508213,14.9911896 C195.511369,14.8822613 195.511369,14.7982639 195.511369,14.7366203 L195.511369,12.6275868 L194.902822,12.6275868 L194.902822,15.7464296 L195.851672,15.7464296 L196.418667,13.2932541" id="path164" fill="#231F20"></path>
                        <polyline id="path166" fill="#231F20" points="192.007359 15.7464296 194.534117 15.7464296 194.534117 15.1937406 193.601047 15.1937406 193.601047 12.6275868 192.943585 12.6275868 192.943585 15.1937406 192.007359 15.1937406 192.007359 15.7464296"></polyline>
                    </g>
                </g>
            </g>
        </g>
    </g>
</svg>