<?xml version="1.0" encoding="UTF-8"?>
<svg width="200px" height="200px" viewBox="0 0 200 200" version="1.1" xmlns="http://www.w3.org/2000/svg" xmlns:xlink="http://www.w3.org/1999/xlink">
    <!-- Generator: Sketch 54.1 (76490) - https://sketchapp.com -->
    <title>uc-davis</title>
    <desc>Created with Sketch.</desc>
    <g id="uc-davis" stroke="none" stroke-width="1" fill="none" fill-rule="evenodd">
        <g id="uc-davis_BGD">
            <g id="uc-davis" transform="translate(0.000000, 34.000000)">
                <g id="g10" transform="translate(99.999998, 65.628617) scale(-1, 1) rotate(-180.000000) translate(-99.999998, -65.628617) translate(0.000000, 0.179608)" fill-rule="nonzero">
                    <g id="g12">
                        <path d="M191.299234,90.2085213 C190.098017,93.9592062 179.713542,115.398171 178.435308,117.675187 C177.606388,119.157075 176.174729,120.214304 174.508671,120.635309 C172.907149,121.043528 134.83744,130.571077 100.099845,130.619784 C89.6280038,130.635613 73.7534228,129.847181 57.5859955,126.009434 C39.4529671,121.710804 25.3251135,114.605781 15.5955247,104.887973 C5.24496182,94.5558576 0,81.465447 0,65.9750364 C0,49.4091312 7.9787517,33.1321148 21.9019781,21.3074272 C38.3065439,7.36587501 62.2484003,0 91.1223722,0 C124.549769,0 168.709585,8.00298306 175.592081,11.1448703 C176.920848,11.7515674 177.998473,12.799056 178.649615,14.1092234 C178.655703,14.115403 178.673664,14.1193299 178.677926,14.1293147 C178.677926,14.1293147 186.438047,29.4785685 187.417042,31.3406385 C188.399691,33.2070007 190.312324,37.1881269 191.299234,40.3302882 C192.283709,43.470623 192.625566,86.0715351 191.299234,90.2085213" id="path14" fill="#AEA555"></path>
                        <path d="M105.043529,68.8062388 C105.211317,68.6359276 105.376161,68.4740268 105.543529,68.3062388 C105.376161,68.4740268 105.211317,68.6359276 105.043529,68.8062388" id="path16" fill="#CAC9C9"></path>
                        <path d="M136.972599,92.2706217 L124.048094,95.142159 L121.023437,95.7811239 L136.655096,93.8599672 L146.14855,87.7497695 L146.463923,85.6386584 L136.972599,92.2706217 Z M116.989647,104.04292 L130.358901,112.025568 C117.545507,109.813391 101.5519,104.208521 101.5519,104.208521 C69.6289176,103.743681 53.5823426,92.0118698 47.2048694,85.6487041 C40.3585987,75.6420072 41.2602729,65.8800592 41.2602729,65.8800592 C41.8547935,39.329375 57.2197855,28.3418867 69.8471824,23.7987513 C73.405782,22.6985687 76.6794501,21.8877316 79.394823,21.2953115 C82.614001,20.7494972 84.9957361,20.6240482 85.9260252,20.5957377 C80.8587499,23.8512018 79.3098915,27.9680358 79.8964972,32.3555547 C79.8599676,32.278538 79.8356144,32.234398 79.8356144,32.234398 C79.8678823,32.3555547 79.9001502,32.4767115 79.9327225,32.5981727 C80.1430726,33.9936065 80.5616418,35.4088271 81.1497697,36.8301361 C82.0840162,39.6952806 83.1637727,42.2754936 84.3044119,44.6009121 C84.1506828,44.3013688 83.9966493,43.9939106 83.8511395,43.6785377 L83.8474865,43.6745803 C85.1211546,50.4584462 93.1765578,61.9089787 93.1765578,61.9089787 L93.3911697,80.14703 C94.2362229,86.0794499 105.858445,92.0806674 105.858445,92.0806674 L104.528156,90.3175015 C104.520241,90.3135442 104.50776,90.305325 104.505629,90.3013676 C104.528156,90.3175015 104.542159,90.3296781 104.542159,90.3296781 C98.8140006,83.3336357 100.035005,79.1038032 100.035005,79.1038032 C100.819784,74.4088261 102.708369,71.0563148 105.037745,68.668187 C108.238658,66.7695569 115.291017,63.7044124 124.764076,66.1470303 C124.764076,66.1470303 134.730286,68.2700135 149.329068,69.6307441 L148.42922,69.3375934 C142.067881,66.1589025 136.762249,64.0359193 136.762249,64.0359193 L139.358596,63.0694048 L146.815521,61.4843211 C151.692842,60.0003029 151.267881,57.5616424 151.267881,57.5616424 L151.480057,53.8532711 C154.177774,53.1777764 156.666967,51.1031951 157.576861,50.2785376 L167.055399,52.7086745 L168.960118,55.8873654 L174.506541,55.6648388 L174.421609,56.2554019 C173.570468,58.7342451 172.373207,67.093149 170.905627,68.7208506 C163.501061,76.9281564 153.017043,84.4901044 153.017043,84.4901044 C150.946419,85.6103479 149.183558,87.1351576 147.822523,88.5503783 C149.264228,84.4012155 149.808215,80.8931487 149.808215,80.8931487 L149.494669,81.3038031 C149.494669,81.3038031 148.582949,83.9403328 146.427394,88.6130876 L146.378992,90.1719917 C145.292843,91.4824939 144.696496,92.4407892 144.696496,92.4407892 C139.605476,97.7421589 126.042006,103.998171 126.042006,103.998171 L115.628612,103.339115 L116.989647,104.04292 L116.989647,104.04292 Z" id="path18" fill="#C4C3C3"></path>
                        <path d="M116.997562,104.014609 L132.686146,113.424655 C132.686146,113.424655 117.019784,111.588734 105.387212,107.587212 L103.747638,107.021002 C88.13394,106.869404 76.0179585,103.789952 76.0179585,103.789952 C38.6438347,94.1269383 41.2602729,65.8800592 41.2602729,65.8800592 C42.2754936,20.5352202 86.3625549,20.583622 86.3625549,20.583622 C122.931808,16.4508367 165.238048,30.2691012 165.238048,30.2691012 L170.525414,36.6827997 C180.267271,47.6882789 184.369554,46.8815818 184.369554,46.8815818 C187.999082,45.7774722 184.780208,41.8426169 183.647788,39.3598164 C182.515673,36.8846262 172.951594,16.9297104 172.951594,16.9297104 C167.710803,14.5361336 125.326024,6.35701658 91.1223722,6.35701658 C30.5238957,6.35701658 6.36118706,39.2748849 6.36118706,65.9750364 C6.36118706,116.368642 67.7926924,124.306846 100.0898,124.262402 C134.441093,124.214 172.951594,114.470012 172.951594,114.470012 L184.33546,89.6261774 C184.33546,89.6261774 188.803953,82.2541836 181.945505,84.1747315 L165.238048,100.993605 L145.776252,105.077927 C139.305933,104.744594 143.713847,100.621306 143.713847,100.621306 C149.01126,97.4432244 151.112325,93.8520524 151.112325,93.8520524 L155.950985,89.3549445 C174.132416,76.5601199 177.048397,69.7622509 177.048397,69.7622509 L178.742461,61.4922359 L179.694973,51.7908663 L171.956769,51.7385071 L169.995734,48.7701662 L158.70715,45.9071526 L142.011564,50.4806684 C148.376556,53.9783853 144.411564,57.0158281 144.411564,57.0158281 L132.578992,61.3990852 L116.677927,56.3101965 L105.037745,58.2006074 C90.9686431,55.1308966 79.8356144,32.234398 79.8356144,32.234398 C84.6398761,51.9263305 96.6423111,60.7662085 96.6423111,60.7662085 L95.6374405,79.8316571 C96.6423111,84.9068472 104.542159,90.3296781 104.542159,90.3296781 C98.8140006,83.3336357 100.035005,79.1038032 100.035005,79.1038032 C102.898628,61.92907 120.542158,62.7662085 120.542158,62.7662085 C138.986298,68.1707746 148.42922,69.3375934 148.42922,69.3375934 C142.067881,66.1589025 136.762249,64.0359193 136.762249,64.0359193 L149.541244,59.2803638 L150.435004,52.906848 L157.49132,50.2541844 L167.055399,52.7086745 L168.960118,55.8873654 L174.506541,55.6648388 L172.806084,67.6410942 C162.542462,80.2745794 152.456922,86.7205458 152.456922,86.7205458 L148.022827,90.3397238 C148.022827,90.3397238 144.280057,95.3360707 143.343984,95.9993888 C136.996952,100.50015 126.219784,105.922981 126.219784,105.922981 L125.202737,105.615827 L116.997562,104.014609" id="path20" fill="#1D2950"></path>
                        <path d="M145.828916,89.8971058 L146.463923,85.6386584 L136.972599,92.2706217 L124.048094,95.142159 L136.655096,89.6706218 C136.655096,89.6706218 142.326633,80.7171974 146.336374,83.4429203 L149.494669,81.3038031 C149.494669,81.3038031 148.423132,84.4234378 145.828916,89.8971058" id="path22" fill="#1D2950"></path>
                        <polygon id="path24" fill="#1D2950" points="170.578078 66.3713834 171.641396 60.7482481 165.385384 71.80426"></polygon>
                        <path d="M82.6520527,56.9467261 C82.6520527,56.9467261 89.013392,64.1573804 89.4359186,73.0599677 C89.4359186,73.0599677 75.9010636,66.3007594 62.0928447,54.4316577 C58.693758,51.641399 58.8030427,53.4124796 59.2234384,54.8380504 C68.4480957,67.3841688 86.8234377,89.0477908 106.449008,93.508369 C106.449008,93.508369 103.339115,75.8280042 126.927242,74.6754928 L147.135156,75.2761016 L135.492538,82.6523571 C135.492538,82.6523571 125.548551,91.098019 108.881276,96.9132396 C107.500454,97.7159793 108.042006,98.3570752 108.252357,98.5348529 C118.083102,98.6764054 133.812173,97.2286125 140.741549,91.8258729 C140.741549,91.8258729 138.649007,95.80913 126.102584,101.638658 C123.870317,102.639571 120.08919,102.66362 116.441702,102.352204 L116.433483,102.360424 C111.698019,102.245051 113.360119,103.361337 113.540028,103.953726 L119.470621,108.155553 L100.081885,102.457532 C85.1939096,100.396953 61.0879741,94.0946704 42.3056306,74.9585978 C40.9126322,69.6773194 41.2602729,65.8800592 41.2602729,65.8800592 C41.5293749,53.8654477 44.8231343,45.0374418 49.5202423,38.5509884 C54.8158282,37.4088271 69.4143057,36.5774724 82.6520527,56.9467261" id="path26" fill="#FFFFFF"></path>
                        <path d="M163.96164,60.1135449 L168.567728,60.1135449 C167.324501,64.4806681 164.504105,72.483712 156.112629,77.8846251 L149.494669,81.3038031 L162.206997,65.2006072 L154.575643,68.3832555 L138.869403,64.9153713 C138.052356,64.565904 137.441701,64.3147625 137.097713,64.1716879 L143.487668,64.1814291 C157.752507,60.2182633 154.895278,54.4438343 154.895278,54.4438343 C154.895278,54.4438343 160.488276,53.428918 162.633481,54.0736668 C164.754638,54.7065435 168.812781,57.0703182 167.085841,57.6767109 L156.486754,57.887061 C156.486754,57.887061 161.96438,60.5826469 163.96164,60.1135449" id="path28" fill="#FFFFFF"></path>
                        <path d="M65.2210029,19.750654 C65.2210029,19.750654 33.8620996,32.0480966 33.8620996,66.1753408 C33.8620996,93.6821894 65.0529664,107.189038 65.0529664,107.189038 C65.0529664,107.189038 28.8454787,98.0980189 28.8454787,66.3774717 C28.8454787,29.0356157 65.2210029,19.750654 65.2210029,19.750654" id="path30" fill="#FFFFFF"></path>
                        <path d="M86.7893433,13.5835309 C86.7893433,13.5835309 144.5589,14.6754943 168.586297,25.6892231 L180.089189,39.45662 L170.476708,23.7944591 C170.476708,23.7944591 148.030742,11.1046877 86.7893433,13.5835309" id="path32" fill="#FFFFFF"></path>
                        <path d="M116.320241,115.414305 C90.0465731,116.2554 84.3080649,114.261793 84.5144576,114.031352 C84.5144576,114.031352 93.3019764,114.747029 108.693452,113.27884 L116.320241,115.414305" id="path34" fill="#FFFFFF"></path>
                        <path d="M138.339418,111.172296 C148.736678,110.561641 162.279752,108.289191 168.586297,104.803042 L180.703801,90.4124787 L169.720544,107.831961 C169.720544,107.831961 161.802736,111.337897 141.982949,113.687668 L138.339418,111.172296" id="path36" fill="#FFFFFF"></path>
                        <path d="M143.095278,85.8611851 C143.004258,85.693453 142.949464,85.4992368 142.949464,85.2992368 C142.949464,84.6237422 143.493452,84.0818853 144.166815,84.0818853 C144.731199,84.0818853 145.202127,84.4639248 145.341549,84.9835595 C144.773512,84.8742749 143.80091,85.4003023 143.095278,85.8611851" id="path38" fill="#FFFFFF"></path>
                        <polyline id="path40" fill="#1D2950" points="186.066358 5.47552498 184.806388 5.47552498 184.806388 14.4389646 182.404257 14.4389646 182.404257 15.5936069 188.468184 15.5936069 188.468184 14.4389646 186.066358 14.4389646 186.066358 5.47552498"></polyline>
                        <polyline id="path42" fill="#1D2950" points="191.179904 12.158021 191.151593 12.158021 189.970772 5.47552498 188.672446 5.47552498 190.735155 16.0240787 194.212781 8.05330269 197.686449 16.0240787 199.750984 5.47552498 198.450832 5.47552498 197.27001 12.158021 197.243526 12.158021 194.212781 5.2611262 191.179904 12.158021"></polyline>
                    </g>
                </g>
            </g>
        </g>
    </g>
</svg>