<?xml version="1.0" encoding="UTF-8"?>
<svg width="200px" height="200px" viewBox="0 0 200 200" version="1.1" xmlns="http://www.w3.org/2000/svg" xmlns:xlink="http://www.w3.org/1999/xlink">
    <!-- Generator: Sketch 54.1 (76490) - https://sketchapp.com -->
    <title>delaware</title>
    <desc>Created with Sketch.</desc>
    <g id="delaware" stroke="none" stroke-width="1" fill="none" fill-rule="evenodd">
        <g id="delaware_BGD" transform="translate(0.000000, 0.000000)">
            <g id="delaware" transform="translate(0.000000, 32.000000)">
                <g id="g10" transform="translate(99.999998, 68.252468) scale(-1, 1) rotate(-180.000000) translate(-99.999998, -68.252468) translate(0.000000, 0.007894)" fill-rule="nonzero">
                    <g id="g12" transform="translate(0.000000, 0.355030)">
                        <path d="M112.223666,132.779089 C112.226876,132.781842 112.230086,132.783677 112.232494,132.787346 C112.399428,132.944227 112.554725,133.127713 112.723666,133.279089 C112.553923,133.127713 112.386988,132.960741 112.223666,132.779089" id="path14" fill="#231F20"></path>
                        <path d="M5.99712017,28.9554233 C7.12433907,27.849309 15.3473369,20.0480863 24.5351079,18.5695459 C26.6151867,18.236252 29.2421689,18.122682 31.894871,18.1267057 C32.2885988,16.715187 32.96351,15.3585795 33.9758966,14.1526624 C38.3652456,8.93491102 45.8366852,6.17234699 56.8224838,5.70374739 C62.3222864,5.47183418 67.90059,5.38461525 71.5017734,5.35226811 C72.4571974,4.2398421 73.7021678,3.10727803 75.4118324,2.03787766 C80.5037455,-1.14799208 89.0769208,-0.162567649 101.25838,2.46070605 C109.909267,4.32461528 116.52978,6.77238642 121.059563,9.75345143 C129.390529,6.847416 145.46548,1.56650489 153.03826,1.29499405 C166.723467,0.798816548 174.153053,5.55656791 176.355814,9.78256386 C176.870213,10.7687571 177.115972,11.811834 177.196051,12.8488754 C180.685597,11.7380273 184.302165,10.5861536 184.302165,10.5861536 C184.328989,10.6177512 186.316761,10.2702956 186.34398,10.2678104 C188.066662,10.1191319 193.401968,9.34508852 197.054038,14.2267452 C198.640626,16.3475341 200.190528,19.5033526 199.442599,25.1494668 C199.45246,25.0831946 199.425636,25.2142006 199.442599,25.1494668 L199.442599,25.0662716 C197.699798,39.764496 186.196051,46.2508864 177.317155,51.5802748 C176.652067,51.9794859 176.028792,52.360551 175.388556,52.7499001 C175.692303,53.9865864 175.906504,55.3341209 175.906504,56.7794858 C175.906504,57.7116356 175.7854,58.6863891 175.590528,59.6777105 C176.864295,61.3554225 178.02682,63.6406296 178.764887,67.0343179 C178.744769,66.9605506 178.731751,66.8824441 178.710844,66.8094658 C178.740824,66.9155802 178.764887,67.0244559 178.790134,67.1321482 C179.735696,70.6126215 180.206307,74.3408265 180.206307,78.2031539 C180.206307,98.9092677 166.94043,123.327808 143.88757,132.319523 C135.856407,136.163705 122.192896,137.622087 112.232344,132.78264 C109.181851,131.526624 106.511634,129.850095 104.197236,127.890727 C103.882838,128.807492 103.393686,129.667058 102.700195,130.384612 C101.007493,132.137275 98.5104512,132.86903 96.1526603,132.254829 C91.6256387,131.075342 89.343982,129.104928 86.457986,126.610253 L84.9360926,125.3069 C84.5956586,125.014987 84.2489131,124.659168 83.9731734,124.305717 C80.8721873,120.333725 78.9542387,117.030766 77.7700178,113.978695 C77.0915168,113.9641 76.4078876,113.869031 75.7439823,113.64339 C69.6516748,111.573567 66.0082824,105.587769 65.7262311,97.2181435 C65.7222863,97.157394 65.7211029,97.097039 65.718736,97.0378674 C60.3266257,95.6516741 55.6362905,93.1053231 52.5053241,89.6713982 C51.3546338,88.4094652 50.7435885,86.7814574 50.7435885,85.1234693 C50.7435885,84.4090709 50.8568035,83.6903332 51.0895451,82.9921084 C51.2615372,82.4745542 51.4990125,82.0508855 51.7274149,81.6153826 C48.2153834,77.6607476 46.7881645,73.76844 46.7881645,70.2674539 C46.7881645,69.5238641 46.875344,68.805521 46.9936872,68.0998011 C43.5183421,66.6007873 39.2347919,64.9100575 33.6168828,62.7143969 C24.0720704,58.9814581 20.4041809,51.8698212 20.1635103,46.9151862 C20.1540823,46.7270205 20.1496247,46.5416162 20.1496247,46.3566063 C20.1496247,45.4094663 20.288323,44.519131 20.5179088,43.676133 C20.0867451,43.4497031 19.6545163,43.2228786 19.2269029,43.0035492 C15.3248122,41.0078885 13.2951081,40.5116361 12.5472975,40.3877702 C10.1997236,41.1234704 7.5402365,40.5719911 5.70422076,38.6934507 C4.42090719,37.3814981 3.78097426,35.6777111 3.78097426,33.9758966 C3.78097426,32.2363306 4.45021685,30.4966462 5.78465469,29.1774352 C5.79696238,29.1652853 5.86228782,29.1199598 5.84118329,29.1218139 L5.99712017,28.9554233" id="path16" fill="#231F20"></path>
                        <path d="M196.1211,25.3160546 C196.124255,25.2892301 195.616563,28.083234 195.623269,28.05566 L194.710449,30.8792497 C191.436682,40.0311627 184.27968,44.8524644 176.074552,49.7767246 C174.439443,50.7581841 172.900982,51.7029573 171.418536,52.646547 C172.142796,54.3124247 172.742008,56.2394463 172.742008,58.3534502 C172.742008,59.2895449 172.627215,60.2568032 172.360153,61.2441799 C172.27968,61.5388545 172.151869,61.8177499 171.981061,62.0702154 C171.940824,62.1305704 171.93609,62.1451661 171.902165,62.1976316 C173.050489,63.2698209 174.774749,65.2055211 175.705321,69.5483217 C175.715972,69.5901363 175.727017,69.6307675 175.735301,69.6725821 C175.730962,69.6493079 175.72465,69.6323454 175.719128,69.6094657 C176.622875,72.8658759 177.067451,76.3633117 177.067451,79.9873747 C177.067451,99.2161711 164.662323,121.93767 143.129385,130.269819 C136.003547,133.752265 123.773961,135.12189 114.877315,130.856801 C108.067058,128.162127 103.377907,123.034711 100.45483,117.534514 C100.446546,117.84694 100.420116,118.166466 100.420116,118.474159 C100.420116,122.155815 100.970412,125.400391 101.310846,126.508084 C101.392502,126.776723 101.433528,127.051673 101.433528,127.324257 C101.433528,128.029977 101.164495,128.72189 100.661536,129.246151 C99.964889,129.973961 98.9285971,130.267847 97.9534492,130.013803 C94.3207077,129.067452 92.5439819,127.531752 89.8532522,125.207097 L88.2994061,123.875342 C88.1589722,123.755026 88.0157769,123.608675 87.901773,123.463113 C83.5747514,117.921496 81.7905305,113.915579 81.138065,110.130964 C81.0209053,110.353843 80.9088737,110.581062 80.7293865,110.768834 C79.9830355,111.555027 78.8481243,111.833528 77.8216943,111.485599 C73.3053236,109.950688 70.7041402,105.388163 70.4883612,98.6398397 C70.4840219,98.557394 70.4792882,98.4749482 70.4792882,98.392108 C70.4792882,97.4244552 70.8189331,96.4678477 71.1850081,95.5285972 C64.980669,94.6946722 59.5364877,92.2130154 56.2394463,88.5972364 C55.7648901,88.0773154 55.5140026,87.4070984 55.5140026,86.7242582 C55.5140026,86.4307671 55.5605509,86.1341201 55.6564089,85.8469407 C56.1211031,84.4508855 57.0086771,83.6185383 58.0489137,83.0994062 C53.0579868,78.7877692 51.5427995,74.9562111 51.5427995,71.9167635 C51.5427995,70.160156 52.05562,68.7069016 52.6690322,67.535304 C48.6019712,65.6197222 43.3830364,63.5566059 35.8622871,60.6173555 C28.5839046,57.7715962 25.1268238,52.3925036 24.9286384,48.3218923 C24.922958,48.2039436 24.919881,48.0867838 24.919881,47.9708075 C24.919881,46.1076912 25.6811039,44.6114387 26.9650092,43.8102553 C25.2650487,42.8694269 23.5342795,41.9400384 21.8364886,41.0710049 C14.8314395,37.4867446 12.6358971,37.9985 12.6147926,38.0038649 L12.6016959,38.008362 C11.4817749,38.4256401 10.2745954,38.2820109 9.37143961,37.1719517 C8.90781043,36.6024054 8.65305698,35.940433 8.65305698,35.2958571 C8.65305698,34.6856402 8.88145934,34.08994 9.37625223,33.6008276 C9.37932915,33.5968433 9.39502935,33.5822082 9.39964474,33.5775534 C9.88043368,33.1044962 17.8131356,25.4023268 25.9661532,24.0899402 C28.781735,23.6370408 32.8618138,23.642603 36.4564882,23.7779087 C36.3307289,23.2943584 36.2633916,22.807889 36.2633916,22.3233919 C36.2633916,20.9128594 36.7930168,19.5242993 37.8163699,18.3060745 C41.4465473,13.9900588 47.9810639,11.6894672 57.7917145,11.2701772 C64.3108465,10.9945165 71.1187359,10.9250096 74.3199192,10.9080865 C74.9972368,9.73495045 76.1798798,8.34043372 78.3171578,7.00429963 C81.6903333,4.89384603 88.3270195,5.16532531 101.223272,7.94193274 C112.378695,10.3459563 118.178695,13.3538458 121.22051,15.7869424 C127.656802,13.5052857 146.228793,7.14082822 153.979878,6.86268227 C164.999601,6.46358958 171.893881,9.87735676 173.635893,13.2180667 C174.318339,14.5286387 174.247727,15.9462718 173.445755,17.0095065 C173.046544,17.5388161 171.869029,18.7005518 169.529384,18.2584611 C168.828793,18.2930962 167.401968,19.3372382 165.781061,20.8781849 C169.875341,20.383392 173.75542,19.9135695 174.022481,19.8813407 C174.50256,19.7294275 186.30611,15.9697037 186.30611,15.9697037 C186.323072,15.9325834 186.328595,15.9431949 186.405518,15.9325834 C186.417747,15.931045 191.641021,13.8244178 194.211041,17.2607096 C195.254433,18.6536879 196.537273,20.1668634 196.1211,25.3160546" id="path18" fill="#FDDF12"></path>
                        <path d="M114.760155,130.809464 C114.853905,130.872131 114.956444,130.909464 115.050194,130.969464 C115.126366,131.009464 115.186913,131.068131 115.260155,131.110798 C115.092186,131.018798 114.924217,130.918798 114.760155,130.809464" id="path20" fill="#FDDF12"></path>
                        <path d="M193.049305,25.0662716 C193.979088,15.053333 187.149108,18.6173171 187.149108,18.6173171 L174.615775,22.609388 L158.885203,24.5116759 C158.885203,24.5116759 166.120706,14.7274158 170.000785,15.5250095 C173.884808,16.3191712 169.391317,9.08516743 154.079286,9.640197 C145.738063,9.93960527 122.493488,18.2769226 120.615776,18.9534118 C118.738853,17.0327806 113.685204,13.4710845 100.637473,10.6595264 C93.7309641,9.17238636 83.3136074,7.15546333 79.7897416,9.36130154 C76.2654813,11.5644968 76.2063097,13.681262 76.2063097,13.681262 C76.2063097,13.681262 66.8149885,13.6701772 57.9096632,14.0469424 C49.0015767,14.4267846 43.0153835,16.4426031 39.9431943,20.0938457 C37.6559359,22.8174353 40.0272179,25.6974353 43.633924,27.0150684 C38.4792495,26.5534116 30.5874154,26.1624846 26.4068632,26.8340033 C18.9587766,28.0327015 11.329191,35.576291 11.329191,35.576291 C11.329191,35.576291 13.360907,33.6130169 23.1023663,38.5980661 C32.8425633,43.5842198 43.5183421,50.4098607 43.5183421,50.4098607 C43.5183421,50.4098607 34.1495455,49.6934899 30.2856797,46.5700186 C26.4214984,43.4473362 25.6330171,53.6343182 36.8736085,58.0291899 C47.4781053,62.1743574 53.2552255,64.4796828 57.9538447,67.1175526 C57.9676514,67.1447715 57.9794857,67.170807 57.992109,67.1984204 C57.3459552,67.170018 56.497829,67.0252449 56.0370795,67.4003928 C52.2733715,71.9747517 55.1842195,77.0512801 60.0852056,81.199209 C61.8094659,82.6524634 63.7917144,83.8437849 65.9605506,84.9175521 C63.5297814,85.441418 59.1246534,84.224061 58.2919118,86.7250471 C61.4654817,90.2059149 67.5167636,92.7818517 74.5589725,93.0477294 C75.1554222,94.1901357 73.1526609,97.1427984 73.2615366,98.4994058 C73.3854025,102.66193 74.646152,107.472187 78.7155799,108.854435 C78.0299783,107.128597 82.2426015,102.00907 83.8098598,101.151477 C83.3029565,108.513607 83.0110433,112.685204 90.0915165,121.753054 C93.8552245,124.933725 95.1001949,126.399602 98.6536464,127.325046 C98.0642974,125.407886 96.1948694,114.542403 99.8102539,107.497828 C101.128203,114.525441 105.860352,124.351476 115.975145,128.310845 C124.12189,132.273369 135.762916,130.836683 142.040628,127.713606 C166.700193,118.229188 178.272579,88.9195244 173.014197,70.239446 C171.306899,62.0449689 166.82327,64.7467439 169.677313,60.5171583 C170.484808,57.5388546 169.48757,54.5834306 167.840627,51.6512808 C177.047333,45.3656793 187.319127,41.3431942 191.804334,29.882445 C192.717155,27.0596048 192.80039,27.0588159 193.049305,25.0662716" id="path22" fill="#231F20"></path>
                        <path d="M121.345954,75.9648896 C113.183035,74.5301757 113.105323,68.5546334 113.174356,66.1230753 C112.785402,61.9917144 115.442206,52.2134109 120.866664,47.4915176 C108.228005,50.1755412 98.0717924,55.0706101 79.5593668,49.700196 C74.0796826,46.4982237 77.7356983,40.3932929 80.0252445,37.0275336 C85.2891497,29.9534509 96.6966445,25.6726226 108.66982,22.2118338 C94.8938832,24.0233525 84.362917,29.1290723 77.4157772,36.1778689 C76.2564084,37.2212614 75.5341204,39.4768432 73.6536471,40.130571 C72.1637063,39.9854033 68.7333316,38.9640227 67.231951,39.3756203 C66.2280062,41.1688353 73.8232723,42.9641015 69.2698208,44.8280068 C65.4173554,43.6390522 60.6059156,43.8070995 56.9976317,45.0650876 C55.5214976,47.56134 62.0903338,48.6639041 63.224456,48.9459554 C67.3487163,50.1108469 73.4138049,50.2528587 77.5234695,51.1767246 C78.1061124,51.8528587 75.1854025,53.5534503 74.4994064,53.8946732 C71.290728,54.593687 77.6615365,54.4264286 78.4106489,54.498618 C80.4946725,54.7668625 79.4212998,54.9084799 80.2149881,56.7506889 C79.4713984,57.4781051 84.0232721,56.0051268 84.3439821,56.1514779 C85.1806685,55.7629177 86.3999978,55.1321485 87.6212996,55.3037462 C87.8863883,56.6374739 86.2737651,56.9179473 85.6035482,58.3001958 C89.412621,57.1629177 93.0930943,56.3033516 96.1696228,54.5356988 C95.8520686,56.7877698 93.4228773,61.4106494 92.5637058,63.71203 C89.8749484,71.9530554 87.2347118,80.7333313 99.599603,84.7767237 C109.426822,87.9124238 116.11834,80.009071 121.345954,75.9648896" id="path24" fill="#1266AC"></path>
                        <path d="M124.877709,73.2512802 C130.694277,67.7293869 136.338458,62.0118328 142.38974,56.5380656 C136.158971,56.2477303 138.387373,49.212622 140.65404,46.1617345 C142.228793,43.6729772 145.336091,44.5928983 147.255223,44.6682435 C148.469424,42.5155808 144.059957,41.0548313 141.240233,40.1566065 C136.5783,42.2382632 129.927413,43.5952652 126.52189,46.5731744 C118.236289,53.4272176 114.673764,63.9680457 118.730964,72.2303729 C119.623271,73.6126214 123.285204,74.9222861 124.877709,73.2512802" id="path26" fill="#FFFFFF"></path>
                        <path d="M122.930963,44.3179476 C129.543192,41.0879674 144.147136,37.0717939 151.531357,33.9483226 C153.097038,35.5499399 140.648517,37.8414586 144.842994,38.860788 C153.09546,40.807494 151.616959,46.6808667 151.956604,50.2666654 C155.079286,49.4698212 158.916367,48.8165668 161.854828,50.5368824 C162.255223,50.7806693 162.437866,51.2149889 163.099799,51.1921092 C176.500587,44.267849 191.366465,33.3171589 188.673763,21.1747924 C164.396446,30.0311235 143.490726,24.4899402 125.710056,32.1782635 C124.988163,32.5896639 124.955815,33.462011 124.520312,34.0922279 C127.727807,34.9889143 131.388162,34.7001175 134.893882,35.2611826 C136.186584,36.0840228 134.066269,35.888362 133.570411,36.106074 C126.384218,36.1526224 118.817354,36.4390523 111.564889,34.4737664 C111.03195,33.9668236 111.419327,33.1652063 111.987374,32.8007881 C115.397236,32.2224844 117.211042,34.1124252 120.764494,34.0413798 C123.889543,26.6532538 131.237867,23.6339639 139.069819,19.3246149 C145.682048,16.4426031 155.673369,12.8989346 163.854039,12.421262 C162.03826,10.5305323 158.061929,11.4745165 155.243389,11.3743587 C140.874158,13.8655618 126.128202,18.1952658 112.866269,23.2319521 C110.369228,24.0808278 108.504928,25.7735299 106.184218,26.2595654 C105.424455,25.9431946 106.218932,25.3838258 105.661141,25.1909264 C93.7581831,29.3069026 82.2674536,36.5061135 82.8390512,42.7790916 C82.7629171,44.7648904 84.5779072,46.2717937 86.3345146,46.9514781 C99.6165656,50.7136082 110.078893,47.4358963 122.930963,44.3179476" id="path28" fill="#FDDF12"></path>
                        <path d="M144.429188,52.8816555 C144.130963,51.620906 144.459168,50.4082828 144.467846,49.0516753 C142.611831,50.1897423 142.331357,52.3715963 142.999207,53.9455608 C144.362127,54.6260341 144.606308,53.315975 144.429188,52.8816555" id="path30" fill="#FFFFFF"></path>
                        <path d="M166.574749,42.7120305 C163.767649,43.6575926 158.758181,43.6808668 155.944375,44.3818529 C155.550686,45.1798805 159.136485,47.0205116 160.47258,46.4173558 C163.206308,45.6185393 165.367254,44.3850088 166.574749,42.7120305" id="path32" fill="#231F20"></path>
                        <path d="M147.032738,25.0386582 C149.692304,22.7866266 151.780272,20.0950685 152.934907,17.4540824 C144.6426,20.3125044 137.188162,23.58067 131.346742,27.8192892 C135.333724,27.0378691 140.576722,25.4809067 147.032738,25.0386582" id="path34" fill="#BF2033"></path>
                        <path d="M156.417748,113.128202 C152.060746,119.995658 140.572383,128.025243 125.520312,127.897038 C119.28047,127.336486 114.689938,124.717551 111.263903,121.857591 C104.264297,115.626427 103.21696,108.93767 101.319524,102.393291 C98.8670587,101.810648 98.5211021,103.214593 98.0465459,104.040629 C96.5254414,109.564889 92.9207077,114.788557 95.4362895,122.577117 C89.3025619,117.242601 86.4887552,108.786585 86.7230748,102.678498 C86.3285974,101.078893 88.78698,98.7057175 85.5873746,98.0493072 C82.5834299,98.8729758 77.8232722,101.479682 77.3712012,104.489938 C73.4556195,100.231161 77.3526608,95.9621278 77.3309645,92.5207077 C71.5834302,91.743193 64.989742,90.3108459 61.4627204,87.1096625 C64.389742,86.9901359 67.3865861,87.5250471 70.082444,86.7992089 C70.2465466,84.5940807 66.196448,84.0840216 64.250097,82.7258362 C59.3167638,79.4765266 53.9124247,71.3372763 59.4844167,68.8682429 C59.5510833,69.1747517 62.921103,78.1562111 69.6280061,80.556211 C70.1763296,81.3057179 69.1049292,78.3664675 69.6497024,77.5179468 C66.1838248,74.333726 63.9834304,71.160945 62.6027598,67.7317537 C61.1266257,65.8958563 58.6039433,63.6982233 54.3593675,62.0788939 C45.5992099,58.7372766 41.3806696,57.1869808 38.1872574,56.2745548 C34.9918334,55.3625233 34.0116362,54.3980263 32.0420505,52.9124247 C30.0727409,51.4268232 29.3951866,48.4930954 29.3951866,48.4930954 C29.3951866,48.4930954 33.5379873,51.9609454 42.5230759,52.3439829 C46.1400383,52.499407 50.2650875,50.7589731 50.2650875,50.7589731 C50.2650875,50.7589731 46.4907286,49.2295846 42.1487169,46.2256399 C37.5644172,43.0536478 37.0389734,42.5443776 34.76994,41.0927011 C32.3972378,39.5755414 28.4986581,37.741143 26.9091906,36.9521884 C25.3215773,36.1624843 18.1370015,33.9452457 18.1370015,33.9452457 C18.1370015,33.9452457 19.9930567,31.4370801 25.7103741,30.5034312 C29.0307685,29.9625634 34.1061135,29.9593286 36.9287959,29.8409854 C39.7518728,29.7215377 47.6560146,29.525088 48.8615372,29.6166068 C50.0658765,29.70923 48.3088745,27.2788948 45.7617346,25.3742794 C42.9936873,23.3017351 43.3704131,19.6697825 48.6402355,18.4039049 C53.9124247,17.1395656 57.2895449,16.5728201 63.3132134,17.0358576 C69.3404322,17.4958576 76.9913196,17.4141613 76.9913196,17.4141613 C76.9913196,17.4141613 76.2761322,13.0531752 81.1447711,11.7574356 C86.014988,10.4592108 95.2236663,11.9837867 102.023666,13.5052857 C108.02406,14.8493093 113.988952,18.7123861 115.309662,19.6035104 C115.616171,19.5881257 115.79408,19.6221691 115.583035,19.7901376 L109.521102,20.2371593 L102.849702,21.104536 C89.9088735,23.6170014 78.6422071,29.4639046 71.8422073,36.3235099 C70.3581836,37.8473363 66.6023652,36.3945553 64.1925033,37.0062713 C63.7802745,37.3969221 63.5226809,37.7656401 63.5136079,38.0824843 C63.4650872,39.7506893 65.8094658,42.2654822 65.8094658,42.2654822 C65.8094658,42.2654822 63.1143968,42.0639043 59.3617342,42.4418135 C55.3297817,42.8477307 54.4741604,44.4035492 54.8264286,46.0990127 C55.1120302,47.4650876 55.9779079,48.030768 58.1443772,49.4575925 C58.2311623,49.1238646 57.9771189,49.7834307 58.1443772,49.4575925 C62.6351069,51.6481249 67.3088741,51.5392492 71.2504913,53.0678488 C70.8252448,53.1404326 70.482444,53.3092689 70.0571975,53.3814582 C69.7041403,54.1080854 70.2950673,55.0295844 71.2220889,55.5396436 C72.9061126,56.3633122 75.2153827,56.4378684 77.0836273,56.340827 C76.5427989,57.1885587 75.2899389,57.8919118 76.237079,58.8852056 C78.0998008,59.3463496 79.8240611,58.7416159 81.5755404,58.6216948 C80.7972366,59.4205113 80.3727791,60.2927007 81.4291893,61.0694265 C84.8390511,61.2891503 88.2702148,59.5925034 90.6599583,58.1644956 C88.3053232,64.876527 84.353844,72.013016 86.014988,78.5080848 C87.5857966,82.5076902 88.7984199,87.8840215 101.109268,89.8639031 C107.268242,90.3278084 114.579879,87.8548302 120.734908,83.1053234 C130.129385,75.0402348 137.16686,66.7392488 145.401574,58.1151859 C148.343192,56.0812609 150.681653,53.6820499 155.31045,52.4741604 C157.097037,52.2804721 159.145953,51.8213005 160.758181,52.7897423 C163.013408,54.8508862 162.319917,57.3471386 163.059562,59.5775133 C163.943586,62.3151858 159.024848,60.1088742 157.23826,61.9009846 C155.107688,62.2623259 152.64615,68.3940811 152.457984,63.9577893 C150.351081,63.2067045 150.958971,65.1700181 149.880075,65.5088741 C149.514395,65.1928978 148.564888,64.9988149 148.117945,65.3861917 C144.880075,73.1140021 138.320312,79.3648895 132.897827,85.6871773 C132.413803,86.1463489 130.721101,86.6812602 131.45759,87.310057 C146.488754,83.1964476 150.689148,72.9471382 159.164888,65.172385 C160.310055,63.8895448 162.688359,63.0181444 165.282442,64.1072962 C167.359759,65.7321483 169.375933,67.7463494 169.680469,69.8051265 C170.986978,83.9822464 169.260351,100.654435 156.417748,113.128202" id="path36" fill="#2D9EDF"></path>
                        <path d="M167.022087,58.1191307 C166.61538,57.1376712 166.716367,56.1230755 166.542402,55.0272176 C165.198418,56.1514779 165.261534,57.9404325 166.011436,59.1368822 C167.20039,59.5329374 167.22327,58.4512806 167.022087,58.1191307" id="path38" fill="#FFFFFF"></path>
                        <path d="M2.72682439,24.7971986 L3.06767645,24.7971986 C3.46539242,24.7971986 3.787136,24.929743 3.787136,25.2521098 C3.787136,25.5357785 3.57895849,25.7254826 3.12438256,25.7254826 C2.93515969,25.7254826 2.80248514,25.7065082 2.72682439,25.6875733 L2.72682439,24.7971986 Z M2.7080236,23.0551868 L1.98841415,23.0551868 L1.98841415,26.1606305 C2.27225241,26.1988554 2.66996443,26.2556995 3.18124252,26.2556995 C3.76833521,26.2556995 4.03337268,26.1606305 4.24169615,26.0094668 C4.4310847,25.8769224 4.56362908,25.6496641 4.56362908,25.3467055 C4.56362908,24.9680862 4.27944762,24.7218534 3.9199644,24.6082834 L3.9199644,24.570098 C4.22276124,24.4757785 4.37439831,24.2292302 4.46899397,23.8125438 C4.56362908,23.339171 4.63925038,23.1689146 4.696134,23.0551868 L3.93876519,23.0551868 C3.84399596,23.1689146 3.787136,23.4339639 3.69267841,23.8125438 C3.63581845,24.1349106 3.44643778,24.2863899 3.04872576,24.2863899 L2.7080236,24.2863899 L2.7080236,23.0551868 Z M3.18124252,27.145877 C1.83678496,27.145877 0.795274142,26.0284017 0.795274142,24.6646937 C0.795274142,23.2828002 1.83678496,22.1842598 3.21915179,22.1842598 C4.56362908,22.1653249 5.58615371,23.2828002 5.58615371,24.6461927 C5.58615371,26.0284017 4.56362908,27.145877 3.200351,27.145877 L3.18124252,27.145877 Z M3.21915179,27.7708869 C4.98027601,27.7708869 6.38157775,26.4067055 6.38157775,24.6646937 C6.38157775,22.9226819 4.98027601,21.5404728 3.200351,21.5404728 C1.42011831,21.5404728 0,22.9226819 0,24.6646937 C0,26.4067055 1.42011831,27.7708869 3.200351,27.7708869 L3.21915179,27.7708869 L3.21915179,27.7708869 Z" id="path40" fill="#1266AC"></path>
                    </g>
                </g>
            </g>
        </g>
    </g>
</svg>