<?xml version="1.0" encoding="UTF-8"?>
<svg width="200px" height="200px" viewBox="0 0 200 200" version="1.1" xmlns="http://www.w3.org/2000/svg" xmlns:xlink="http://www.w3.org/1999/xlink">
    <!-- Generator: Sketch 54.1 (76490) - https://sketchapp.com -->
    <title>southern-nh</title>
    <desc>Created with Sketch.</desc>
    <g id="southern-nh" stroke="none" stroke-width="1" fill="none" fill-rule="evenodd">
        <g id="southern-nh_BGD">
            <g id="southern-nh" transform="translate(0.000000, 47.000000)">
                <g id="g10" transform="translate(100.000000, 52.670151) scale(-1, 1) rotate(-180.000000) translate(-100.000000, -52.670151) translate(0.000000, 0.170151)">
                    <g id="g12" transform="translate(0.000000, 0.716418)">
                        <path d="M41.1552734,48.5025615 C40.3024089,38.8345927 44.3990885,32.5709208 53.4453125,29.7115458 C62.4915365,26.8521708 86.3157552,28.7753479 124.917969,35.4810771 L189.085938,68.0123271 C172.421224,76.3990458 154.816732,81.3886292 136.272461,82.9810771 C108.456055,85.369749 107.922852,74.5562724 90.5410156,74.5562724 C80.7428485,74.5562724 34.3057835,74.9245586 43.1015625,64.0797099 C48.6321615,57.2606995 47.9833984,52.0683167 41.1552734,48.5025615 Z" id="Path" fill="#FFFFFF"></path>
                        <path d="M176.323976,68.8973515 C173.9192,66.0105854 170.777309,63.8454909 167.560593,61.9735706 C166.325966,63.6815904 163.804175,63.8072024 163.563777,61.461093 C148.123379,53.3793419 132.672633,45.3237004 117.226664,37.2584269 C110.966763,39.928198 107.330545,42.3980089 100.108256,39.0108647 L86.3721371,43.3687551 C85.884973,43.2496706 85.3715402,43.0848944 84.8390029,42.882785 C82.883978,45.2310436 78.8604159,49.6026256 73.7515603,50.1803769 C62.6082372,48.0432227 57.8482772,37.3041185 47.2372526,34.4347056 C49.5453918,31.6421087 57.424715,28.5385864 65.5223864,27.9194421 C63.9427646,26.1352431 62.6710432,24.4639198 61.877491,23.0805168 L89.9796992,23.398288 L90.5838783,23.3423278 C81.7440776,18.7328951 72.9020479,14.1150245 64.1775108,9.30165151 C62.7565357,8.52298486 54.0749041,5.02301281 57.7145458,2.10945268 C58.4850931,1.48444971 59.5189637,1.64303279 60.3933119,1.88183876 C62.9798193,2.58613327 68.5058689,5.60945658 71.0634012,6.81623068 C78.6411921,10.4032634 86.2017889,14.0226862 93.7560176,17.6492732 C95.4618882,18.466706 97.1685548,19.2845368 98.8752214,20.1019696 C100.850943,18.6650742 104.971938,17.7972533 107.270047,17.6629647 L108.974326,19.4091935 L111.399002,19.6520592 L113.30547,21.9773129 L113.420097,22.50189 L115.712634,24.5584869 L115.88139,25.9978501 L116.592236,26.146467 L118.174723,27.9132331 C118.232037,28.5022082 118.394425,29.0090341 118.537708,29.5298699 C134.883181,37.3715414 151.214325,45.2481581 167.44915,53.3037997 C169.439996,51.653332 171.328951,53.6003967 170.646762,55.9079787 C174.39522,57.2493518 177.658105,57.4219289 181.534722,57.8153219 C182.811538,61.7186054 189.430443,67.3010132 192.747458,69.9321774 C188.105866,68.8818291 180.911438,67.1843963 176.323976,68.8973515" id="path14" fill="#FFFFFF" fill-rule="nonzero"></path>
                        <path d="M199.210343,73.0267046 L192.395617,71.4850529 L192.058901,71.408237 C188.986264,70.7123564 184.777707,69.759043 181.14308,69.759043 C179.434821,69.759043 178.000394,69.9707843 176.88119,70.3890132 L175.823279,70.784237 L175.100493,69.9163366 C172.964772,67.3516401 170.193827,65.4204163 167.800195,63.96768 C167.054324,64.5180481 166.174722,64.8330332 165.307857,64.8330332 C163.813727,64.8330332 162.636414,63.9381477 162.170742,62.5289537 C151.177708,56.776118 140.180693,51.0357798 129.182882,45.2956805 L117.162186,39.0201781 C116.699699,39.2220488 116.250743,39.4212925 115.812932,39.615999 C112.631241,41.0292527 109.88338,42.2497104 106.598206,42.2497104 C104.522982,42.2500288 102.360992,41.7465462 100.007162,40.7136308 L86.8529332,44.8865262 L86.4270625,45.02177 L85.9932317,44.9151034 C85.7846745,44.8640785 85.567361,44.8046954 85.3460675,44.7375909 C81.6127343,48.9661281 77.7767145,51.3277599 73.9303464,51.762148 L73.6893912,51.7892126 L73.4514609,51.7437599 C67.2232421,50.5494117 62.9144661,46.893372 58.7478592,43.3576109 C55.0466056,40.2167552 51.5500883,37.2499891 46.8214914,35.971422 L44.4350238,35.3261683 L46.0099491,33.4207355 C48.4430635,30.4769744 55.2953618,27.7198003 62.4092323,26.6688153 C61.6225258,25.6542083 60.9826054,24.7195218 60.4968741,23.8734322 L59.1091727,21.4567955 L61.8952422,21.4884771 L84.0732317,21.7394621 C77.4341075,18.2670642 70.334247,14.5161389 63.408874,10.6952435 C63.2503069,10.6085569 62.9829238,10.4819898 62.647083,10.3202385 C59.2344662,8.68131322 55.5683966,6.70646749 55.2589837,3.99595612 C55.1657698,3.17693126 55.3429638,1.96859697 56.719521,0.866915799 C57.3610334,0.346392827 58.1554612,0.0786691483 59.0718393,0.0786691483 C59.7559388,0.0786691483 60.3933119,0.231654522 60.812496,0.345459892 C62.8444959,0.899566147 66.3293118,2.66200192 69.1287545,4.07804965 C70.1228241,4.58022675 71.061252,5.05472624 71.7428838,5.37717798 C79.7492517,9.16600972 87.7118386,12.9816514 94.4453708,16.2142085 L97.7464652,17.7957408 L98.7717388,18.2869647 C101.278405,16.895522 105.122385,16.1943081 107.176913,16.0740294 L107.902087,16.031124 L108.409948,16.5510046 L109.709052,17.8824274 L111.558206,18.0680592 L112.213331,18.1340493 L112.630445,18.642706 L114.536913,20.9679597 L114.779699,21.2639995 L114.860893,21.6383676 L114.865669,21.6604174 L116.77532,23.3728153 L117.224276,23.774885 L117.294325,24.3728551 L117.32935,24.6741486 L117.429649,24.6949248 L117.777509,25.0842581 L119.359997,26.8510242 L119.708654,27.2394023 L119.758803,27.7587257 C119.781092,27.9751635 119.824077,28.1869048 119.880594,28.4082779 C135.090146,35.7065066 151.326563,43.5344865 167.35124,51.4782077 C167.866264,51.2269838 168.40119,51.0969937 168.936115,51.0969937 C169.974921,51.0969937 170.942085,51.5923569 171.587657,52.4558793 C172.078006,53.1128345 172.34706,53.9337698 172.376513,54.8003966 C175.002583,55.5851926 177.461488,55.8215309 180.250742,56.0901877 C180.723578,56.1355608 181.204374,56.1818891 181.695518,56.2316404 L182.725568,56.3361578 L183.04716,57.3202772 C183.858304,59.7969338 187.754025,63.9390233 193.736911,68.6849734 L199.210343,73.0267046 L199.210343,73.0267046 Z M192.747458,69.9321774 C189.430443,67.3010132 182.811538,61.7186054 181.534722,57.8153219 C177.658105,57.4219289 174.39522,57.2493518 170.646762,55.9079787 C171.151439,54.1999588 170.24716,52.6890335 168.936115,52.6890335 C168.476016,52.6890335 167.965767,52.8749838 167.44915,53.3037997 C151.214325,45.2481581 134.883181,37.3715414 118.537708,29.5298699 C118.394425,29.0090341 118.232037,28.5022082 118.174723,27.9132331 L116.592236,26.146467 L115.88139,25.9978501 L115.712634,24.5584869 L113.420097,22.50189 L113.30547,21.9773129 L111.399002,19.6520592 L108.974326,19.4091935 L107.270047,17.6629647 C104.971938,17.7972533 100.850943,18.6650742 98.8752214,20.1019696 C97.1685548,19.2845368 95.4618882,18.466706 93.7560176,17.6492732 C86.2017889,14.0226862 78.6411921,10.4032634 71.0634012,6.81623068 C68.5058689,5.60945658 62.9798193,2.58613327 60.3933119,1.88183876 C59.9735706,1.76710045 59.5180085,1.67071041 59.0718393,1.67071041 C58.5877,1.67071041 58.1156602,1.78389647 57.7145458,2.10945268 C54.0749041,5.02301281 62.7565357,8.52298486 64.1775108,9.30165151 C72.9020479,14.1150245 81.7440776,18.7328951 90.5838783,23.3423278 L89.9796992,23.398288 L61.877491,23.0805168 C62.6710432,24.4639198 63.9427646,26.1352431 65.5223864,27.9194421 C57.424715,28.5385864 49.5453918,31.6421087 47.2372526,34.4347056 C57.8482772,37.3041185 62.6082372,48.0432227 73.7515603,50.1803769 C78.8604159,49.6026256 82.883978,45.2310436 84.8390029,42.882785 C85.3715402,43.0848944 85.884973,43.2496706 86.3721371,43.3687551 L100.108256,39.0108647 C102.617311,40.1877801 104.694127,40.657989 106.598206,40.6576706 C110.173928,40.6576706 113.142286,39.000596 117.226664,37.2584269 C132.672633,45.3237004 148.123379,53.3793419 163.563777,61.461093 C163.689548,62.6906253 164.441787,63.2409934 165.307061,63.2409934 C166.093528,63.2409934 166.97313,62.7867049 167.560593,61.9735706 C170.777309,63.8454909 173.9192,66.0105854 176.323976,68.8973515 C177.733727,68.3709436 179.390244,68.1670033 181.14308,68.1670033 C185.092931,68.1670033 189.532334,69.2046152 192.747458,69.9321774 L192.747458,69.9321774 Z" id="path16" fill="#FFFFFF" fill-rule="nonzero"></path>
                        <path d="M77.3843563,52.5385858 C77.8429433,52.5619091 78.3286747,52.5721778 78.8339881,52.5684365 C92.5014902,52.5046753 111.858306,30.5432032 116.519002,48.3551033 C117.338107,51.4801181 116.124176,53.9947449 115.285171,55.0472424 C106.719997,48.2568744 106.544077,59.1072622 99.2644751,65.3411327 C90.7176097,72.6560778 72.2599783,76.444018 50.9990833,62.9057895 C45.8768546,59.6517398 27.5171336,47.3249739 5.11287549,50.0120983 L12.8964773,43.4713621 C27.0196212,30.7521584 44.3205561,37.3809344 44.7683173,37.0130936 C55.3171727,40.5991632 61.4645159,51.8305261 74.3314608,52.7291529 C75.1548638,52.787342 76.4017493,52.6934116 77.3843563,52.5385858" id="path18" fill="#FFFFFF" fill-rule="nonzero"></path>
                        <path d="M79.0920577,73.5435604 L79.0889532,73.5435604 C69.702446,73.5435604 59.6931328,70.3296301 50.1439987,64.2484362 L49.5833619,63.8908641 C29.7693127,51.2241977 16.0285767,51.2241977 11.5133927,51.2241977 C9.43251718,51.2241977 7.34297295,51.3482972 5.30255111,51.5929937 L0,52.2288544 L4.08862079,48.793551 L11.8517012,42.2702477 C17.9412533,36.7944269 25.3367556,34.0183076 33.8345862,34.0183076 C38.4154418,34.0183076 42.1187651,34.8529345 43.8986656,35.2540489 C44.0295312,35.2835812 44.1673223,35.3143872 44.2941282,35.3426459 L44.4428248,35.2210936 L45.2807949,35.5059096 C49.9185659,37.0824269 53.7307051,40.0394816 57.4169936,42.899581 C62.5544263,46.8849342 67.4067247,50.649551 74.442824,51.1411729 C74.5771126,51.1501679 74.7247743,51.154546 74.881829,51.154546 C75.5341673,51.154546 76.3976896,51.0824266 77.1371125,50.9661281 L77.3003762,50.940337 L77.4651523,50.9486952 C77.8342667,50.9676405 78.2244757,50.9769539 78.6240776,50.9769539 L78.8214906,50.9763967 C83.5096497,50.9542674 89.1534306,48.0270635 94.6117389,45.196178 C99.9641766,42.4197402 105.020495,39.7972527 109.307858,39.7972527 C113.698704,39.7972527 116.643181,42.5407353 118.059301,47.9518396 C118.956415,51.3744067 117.857908,54.37373 116.530942,56.0394812 L115.54149,57.2814314 L114.296515,56.2947648 C112.778505,55.0917399 111.539898,54.4813519 110.614923,54.4813519 C109.139898,54.4813519 107.969749,56.2369737 106.184276,59.1016901 C104.672634,61.525491 102.960395,64.2723964 100.300097,66.5503665 C95.1084553,70.9940679 87.3783063,73.5432419 79.0920577,73.5435604 Z M79.0914209,71.9515206 C87.8025849,71.9512022 94.854525,69.1156998 99.2644751,65.3411327 C104.912236,60.5043567 106.283778,52.8893121 110.614923,52.8893121 C111.866266,52.8893121 113.365171,53.5254912 115.285171,55.0472424 C116.124176,53.9947449 117.338107,51.4801181 116.519002,48.3551033 C115.174524,43.2170337 112.608952,41.3892925 109.307858,41.3892925 C101.166167,41.3892925 88.5588038,52.5226654 78.8339881,52.5684365 C78.7633811,52.5687549 78.693411,52.5689937 78.6240776,52.5689937 C78.1934309,52.5689937 77.7792617,52.5588047 77.3843563,52.5385858 C76.6022667,52.6619688 75.6523762,52.7465857 74.881829,52.7465857 C74.684416,52.7465857 74.4993414,52.7406952 74.3314608,52.7291529 C61.4645159,51.8305261 55.3171727,40.5991632 44.7683173,37.0130936 C44.7558994,37.0232827 44.7307452,37.0282976 44.6924566,37.0282976 C44.0419491,37.0282976 39.704596,35.6103474 33.8345862,35.6103474 C27.7067456,35.6103474 19.9091736,37.1560588 12.8964773,43.4713621 L5.11287549,50.0120983 C7.28824658,49.7515609 9.42193011,49.632158 11.5133927,49.632158 C30.9542679,49.632158 46.374367,59.9676801 50.9990833,62.9057895 C61.2897895,69.4583067 70.920436,71.9520778 79.0914209,71.9515206 L79.0914209,71.9515206 Z" id="path20" fill="#FFFFFF" fill-rule="nonzero"></path>
                        <path d="M45.3927153,63.6081974 C51.0447748,67.0829834 58.8152821,72.4337494 78.0659085,74.7446747 C76.6209732,75.6085155 75.932814,76.8258687 74.5787046,79.8065652 C74.4527743,80.081192 80.119401,78.1448737 88.9759182,79.1259682 C89.0953212,79.136794 87.5494505,82.281391 79.8073612,84.3391024 C65.1757198,87.7627839 64.3423666,74.323421 57.859103,73.8693713 L53.2160783,73.544436 C45.9794615,73.0392022 39.3998796,78.5522766 32.2708052,74.2661872 C38.3146657,73.7490927 45.0848944,63.4216104 45.3927153,63.6081974" id="path22" fill="#FFFFFF" fill-rule="nonzero"></path>
                        <path d="M75.3545056,86.4891521 C68.5385854,86.4891521 65.2005556,82.4692517 62.5180482,79.2388438 C60.6327547,76.9695503 59.3946254,75.5730926 57.7481379,75.4577494 L53.1047947,75.1327344 C52.8274614,75.1131524 52.5404166,75.1035205 52.2521778,75.1035205 C50.0195808,75.1035205 47.8280585,75.6694906 45.5075013,76.2689732 C43.1607551,76.8746647 40.7347253,77.501212 38.2319592,77.501212 C35.7624668,77.501212 33.5441186,76.8893115 31.4502679,75.6302469 L27.2390839,73.0985852 L32.1349246,72.6797196 C36.1610339,72.3355206 41.1816109,66.1461476 43.0718397,63.8161974 C44.1949442,62.4316004 44.5342078,62.0140084 45.382765,62.0140084 L45.8271033,62.0140084 L46.2167551,62.2459686 C46.524576,62.4353417 46.8283371,62.6237596 47.1402177,62.8171925 C52.7207947,66.2773317 60.3647348,71.0161972 78.2556,73.1641773 L82.884774,73.7197992 L78.8831025,76.1112817 C78.3140279,76.4511822 77.895799,76.8684558 77.3812518,77.7388239 C79.0183463,77.493809 81.2593015,77.2543662 83.9506447,77.2543662 C85.6676595,77.2543662 87.4173112,77.3516399 89.1510425,77.5438787 L90.4525351,77.6877991 L90.568754,79.0012319 C90.7056694,80.6280577 87.5104456,83.9387044 80.2165154,85.8778088 L80.1926348,85.8833809 L80.1703463,85.8889531 C78.4701274,86.286963 76.8501473,86.488356 75.356018,86.4891521 L75.356018,84.8971123 L75.356018,86.4891521 C75.3553812,86.4891521 75.3553812,86.4891521 75.3545056,86.4891521 Z M75.356018,84.8971123 C76.6821871,84.8963163 78.15761,84.725172 79.8073612,84.3391024 C87.5494505,82.281391 89.0953212,79.136794 88.9759182,79.1259682 C87.1586048,78.9247343 85.4766148,78.846406 83.9506447,78.846406 C78.5379483,78.846406 75.0963563,79.8336298 74.6309235,79.8336298 C74.588018,79.8336298 74.5702668,79.8248736 74.5787046,79.8065652 C75.932814,76.8258687 76.6209732,75.6085155 78.0659085,74.7446747 C58.8152821,72.4337494 51.0447748,67.0829834 45.3927153,63.6081974 C45.3899292,63.606685 45.3865063,63.6060482 45.382765,63.6060482 C44.963581,63.6060482 38.2602976,73.7537096 32.2708052,74.2661872 C34.2932529,75.48163 36.2702478,75.9091722 38.2319592,75.9091722 C42.8768945,75.9091722 47.4284565,73.5114807 52.2521778,73.5114807 C52.571541,73.5114807 52.8933718,73.5220678 53.2160783,73.544436 L57.859103,73.8693713 C63.6116203,74.2723962 64.914466,84.8979083 75.356018,84.8971123 L75.356018,84.8971123 Z" id="path24" fill="#FFFFFF" fill-rule="nonzero"></path>
                        <path d="M93.534724,90.7789032 C92.372535,90.7908435 91.1649728,90.8545251 89.9088535,90.9763161 C89.4949231,85.6318387 92.4059678,78.958008 95.0439777,78.4869234 C93.251341,77.7052319 85.3914407,76.4968737 77.8926946,77.2362966 C79.7484557,74.353829 87.7070625,73.4194609 95.2103459,70.1694709 C107.024077,64.0973516 105.213132,56.335521 112.776913,55.183123 C112.889947,55.4878394 113.408952,57.3514016 114.165171,57.8696901 C114.548057,58.1386652 115.314624,58.1038791 117.143082,57.8868045 C123.414922,56.1303071 130.232037,55.9577299 129.228255,63.1060681 L129.896116,67.3721774 L131.064673,70.3389435 C132.192634,72.4518191 131.157012,74.9499683 131.157012,74.9499683 L132.309648,76.7092518 L132.558803,78.6007543 L134.134922,78.5904856 C136.087559,81.84358 139.56139,88.9934306 140.424275,92.4720375 C141.313429,96.0692513 135.690345,100.5795 133.874624,101.486167 C133.25134,98.1540274 132.141688,91.4308435 131.082186,91.2636793 C130.173131,90.5942266 130.590245,99.2453707 131.255718,102.067261 C124.618504,102.004376 119.428455,98.9532314 113.566564,96.0390026 C105.928754,98.5162164 87.6210923,101.336515 84.0533312,99.5995995 C82.5982069,98.8911418 82.1954208,97.6708433 83.0137293,96.2618881 C84.003182,94.5599976 88.4441769,92.5556196 93.534724,90.7789032" id="path26" fill="#FFFFFF" fill-rule="nonzero"></path>
                        <path d="M132.69731,103.852734 L132.663877,103.672833 L131.239798,103.659301 C124.98547,103.600395 120.048554,101.100097 114.821092,98.4525349 C114.360992,98.219301 113.897709,97.9844752 113.429649,97.7496493 C107.348057,99.5988035 95.1259678,101.728157 88.1599978,101.728157 C85.8602964,101.728157 84.3335302,101.506863 83.3568138,101.030843 C81.9247741,100.334326 81.3675602,99.3464652 81.1518388,98.6395995 C80.9393015,97.939102 80.8493512,96.818306 81.6374109,95.4618882 C82.1850726,94.5201966 83.5024855,93.1160176 88.3192018,91.0678584 C88.1130326,88.3184058 88.6750227,85.1199979 89.8642764,82.2877591 C90.2232813,81.4320378 90.7804952,80.2881572 91.52955,79.2714806 C89.3532316,78.9141473 86.2336297,78.5979682 82.8059681,78.5979682 C81.1478587,78.5979682 79.5484955,78.6728737 78.0487941,78.8206149 L74.771421,79.1439582 L76.5541075,76.3746847 C77.998406,74.130625 81.5785054,73.0392022 86.1102466,71.6569932 C88.7243759,70.8597793 91.6863659,69.9567744 94.5289529,68.7291525 C100.220495,65.7923168 102.468455,62.542884 104.451341,59.6757 C106.372933,56.8967946 108.187858,54.2717598 112.537311,53.6094713 L113.817311,53.414526 L114.268654,54.6278195 C114.288554,54.6809937 114.318007,54.7702275 114.356216,54.8871628 C114.669052,55.8417498 114.887161,56.273909 115.014524,56.4679787 C115.036017,56.4682971 115.059898,56.4686155 115.086166,56.4686155 C115.500097,56.4686155 116.163181,56.3992822 116.835022,56.3202374 C119.334524,55.6284165 121.556216,55.2776902 123.439599,55.2776902 C126.173927,55.2776902 128.207758,56.023322 129.486166,57.4938095 C130.666663,58.8519786 131.121191,60.7325756 130.836216,63.0855308 L131.441191,66.9527545 L132.515022,69.6763366 C133.491738,71.5833614 133.201191,73.5972917 132.905071,74.7139484 L133.64139,75.8367344 L133.840395,76.1405752 L133.88736,76.5009334 L133.953429,76.9997195 L134.124574,76.9984458 L135.032832,76.9925553 L135.500096,77.7711423 C137.528355,81.1502467 141.056315,88.40756 141.970146,92.0883559 C142.483579,94.1675598 141.576912,96.576316 139.34726,99.0535299 C137.759201,100.818306 135.74925,102.329948 134.585469,102.911042 L133.24736,103.578107 L133.27124,103.679201 L133.050743,103.676813 L132.69731,103.852734 L132.69731,103.852734 Z M131.255718,102.067261 C130.614922,99.3504453 130.204176,91.2270624 130.986663,91.2270624 C131.016912,91.2270624 131.048753,91.2390027 131.082186,91.2636793 C132.141688,91.4308435 133.25134,98.1540274 133.874624,101.486167 C135.690345,100.5795 141.313429,96.0692513 140.424275,92.4720375 C139.56139,88.9934306 136.087559,81.84358 134.134922,78.5904856 L132.558803,78.6007543 L132.309648,76.7092518 L131.157012,74.9499683 C131.157012,74.9499683 132.192634,72.4518191 131.064673,70.3389435 L129.896116,67.3721774 L129.228255,63.1060681 C129.888156,58.4042174 127.165768,56.8697299 123.439599,56.8697299 C121.50129,56.8697299 119.290743,57.2857299 117.143082,57.8868045 C116.211738,57.9975309 115.556614,58.0606553 115.086166,58.0606553 C114.634027,58.0606553 114.353032,58.0018294 114.165171,57.8696901 C113.408952,57.3514016 112.889947,55.4878394 112.776913,55.183123 C105.213132,56.335521 107.024077,64.0973516 95.2103459,70.1694709 C87.7070625,73.4194609 79.7484557,74.353829 77.8926946,77.2362966 C79.5360776,77.0743065 81.1956199,77.0059284 82.8059681,77.0059284 C88.5436794,77.0059284 93.6437788,77.8765354 95.0439777,78.4869234 C92.4059678,78.958008 89.4949231,85.6318387 89.9088535,90.9763161 C91.1649728,90.8545251 92.372535,90.7908435 93.534724,90.7789032 C88.4441769,92.5556196 84.003182,94.5599976 83.0137293,96.2618881 C82.1954208,97.6708433 82.5982069,98.8911418 84.0533312,99.5995995 C84.8222864,99.9737288 86.2758187,100.136117 88.1599978,100.136117 C95.0177091,100.136117 107.575719,97.9812911 113.566564,96.0390026 C119.428455,98.9532314 124.618504,102.004376 131.255718,102.067261 L131.255718,102.067261 Z" id="path28" fill="#FFFFFF" fill-rule="nonzero"></path>
                        <path d="M135.258902,77.3955006 L133.830046,77.4375304 L134.202584,75.7732916 L133.154226,74.1952618 L136.124972,73.1791424 L143.732534,81.3277592 L141.381091,71.6694907 L149.547459,69.2067644 L139.81134,65.4918989 L137.248156,55.8221678 L133.582484,63.1809735 L131.049549,61.9900482 L130.886365,60.0487945 C128.576315,50.843939 116.560395,57.9614712 117.108057,55.1287548 C120.614524,49.6078794 117.732136,43.2055711 113.899301,40.5267254 C115.833629,40.7739691 117.778306,40.9116806 121.71144,40.497193 C133.877012,53.7515608 171.199996,74.9508439 188.611339,69.9337694 C172.514225,84.6933312 144.167161,83.9721372 144.167161,83.9721372 C143.228653,83.9984059 140.000793,84.0206944 139.016912,84.3128337 C137.962186,81.8252716 136.670245,79.6047741 135.258902,77.3955006" id="path30" fill="#FFFFFF" fill-rule="nonzero"></path>
                        <path d="M138.106265,86.2431819 L137.550643,84.9337292 C136.595419,82.680993 135.452335,80.7012915 134.398405,79.0136498 L133.877012,79.0289333 L131.828852,79.0892717 L132.276216,77.0901473 L132.500693,76.0885951 L131.828056,75.0764558 L130.684972,73.3569733 L132.638405,72.6887146 L135.609151,71.6729136 L136.585071,71.3392221 L137.288753,72.0929733 L140.748255,75.7978887 L139.834424,72.0463266 L139.477807,70.580854 L140.921788,70.1451923 L144.6193,69.030446 L139.243778,66.9795008 L138.481191,66.6881575 L138.271837,65.8995406 L136.79124,60.310287 L135.00736,63.8905457 L134.31323,65.2835805 L132.905071,64.6212919 L130.37134,63.4303666 L129.539499,63.0392024 L129.463081,62.1231427 L129.311042,60.3165756 C128.643181,57.8056901 127.119599,56.7316205 124.242783,56.7316205 C122.94129,56.7316205 121.607161,56.9530732 120.429052,57.1477001 C119.489748,57.3034812 118.677012,57.4380881 118.003579,57.4380881 C117.665271,57.4380881 116.632833,57.4380881 115.960992,56.6250334 C115.730146,56.344516 115.368753,55.7388245 115.544674,54.8265061 L115.602783,54.5301479 L115.764375,54.2755011 C118.915818,49.3131132 115.970544,43.9166556 112.987858,41.8317999 L107.687161,38.1275214 L114.10149,38.9477403 C115.00338,39.0630836 116.02149,39.1694319 117.351639,39.1694319 C118.540097,39.1694319 119.911639,39.0861682 121.545072,38.9138299 L122.341887,38.8299294 L122.884773,39.4207353 C128.336713,45.3610337 138.709648,52.7270037 149.955021,58.6436602 C162.763777,65.3834014 174.384075,69.0951625 182.676214,69.0951625 C184.730742,69.0951625 186.579896,68.8625654 188.17114,68.4038988 L194.681786,66.5276799 L189.687557,71.1072619 C174.674622,84.8724357 149.672434,85.5697491 144.812733,85.5697491 C144.478404,85.5697491 144.261091,85.566565 144.171937,85.564973 C144.042185,85.5681571 143.876613,85.5713411 143.683977,85.5753212 C141.312633,85.6238785 139.894922,85.7130327 139.469847,85.8388038 L138.106265,86.2431819 L138.106265,86.2431819 Z M139.016912,84.3128337 C140.000793,84.0206944 143.228653,83.9984059 144.167161,83.9721372 C144.167161,83.9721372 144.392434,83.9777093 144.812733,83.9777093 C149.118404,83.9777093 173.947856,83.3791024 188.611339,69.9337694 C186.825866,70.4483962 184.831836,70.6872022 182.676214,70.6872022 C163.810543,70.6872022 132.628852,52.3921181 121.71144,40.497193 C119.901291,40.6878398 118.512236,40.7614716 117.351639,40.7614716 C115.990445,40.7614716 114.943679,40.6601383 113.899301,40.5267254 C117.732136,43.2055711 120.614524,49.6078794 117.108057,55.1287548 C117.003778,55.6672623 117.353231,55.8463668 118.003579,55.8460484 C119.295519,55.8460484 121.775121,55.1395807 124.242783,55.1395807 C127.071838,55.1395807 129.88736,56.0678195 130.886365,60.0487945 L131.049549,61.9900482 L133.582484,63.1809735 L137.248156,55.8221678 L139.81134,65.4918989 L149.547459,69.2067644 L141.381091,71.6694907 L143.732534,81.3277592 L136.124972,73.1791424 L133.154226,74.1952618 L134.202584,75.7732916 L133.830046,77.4375304 L135.258902,77.3955006 C136.670245,79.6047741 137.962186,81.8252716 139.016912,84.3128337 L139.016912,84.3128337 Z" id="path32" fill="#FFFFFF" fill-rule="nonzero"></path>
                        <path d="M73.7515603,50.1803769 C79.9418885,49.4804366 84.5460675,43.202387 85.7974108,41.7139094 C72.7082967,36.3102876 71.2757793,31.2335117 69.5164958,27.8218501 C60.1704264,27.4975516 49.9254117,31.182248 47.2372526,34.4347056 C57.8482772,37.3041185 62.6082372,48.0432227 73.7515603,50.1803769" id="path34" fill="#333395" fill-rule="nonzero"></path>
                        <path d="M136.196614,94.5225847 C135.863081,93.0165151 135.59323,91.4595002 135.406962,89.9128336 C135.462683,90.1930326 135.518405,90.4819878 135.570146,90.7765151 C135.797808,92.0724355 135.996017,93.4065648 136.196614,94.5225847" id="path36" fill="#FFFFFF" fill-rule="nonzero"></path>
                        <path d="M163.563777,61.461093 C163.804175,63.8072024 166.325966,63.6815904 167.560593,61.9735706 C170.777309,63.8454909 173.9192,66.0105854 176.323976,68.8973515 C180.911438,67.1843963 188.105866,68.8818291 192.747458,69.9321774 C189.430443,67.3010132 182.811538,61.7186054 181.534722,57.8153219 C177.658105,57.4219289 174.39522,57.2493518 170.646762,55.9079787 C171.328951,53.6003967 169.439996,51.653332 167.44915,53.3037997 C143.008952,41.1775512 118.357012,29.4465266 93.7560176,17.6492732 C86.2017889,14.0226862 78.6411921,10.4032634 71.0634012,6.81623068 C68.5058689,5.60945658 62.9798193,2.58613327 60.3933119,1.88183876 C59.5189637,1.64303279 58.4850931,1.48444971 57.7145458,2.10945268 C54.0749041,5.02301281 62.7565357,8.52298486 64.1775108,9.30165151 C75.6616897,15.6370941 87.3504456,21.6349447 98.9699478,27.7204371 C120.487161,38.9900886 142.039399,50.194944 163.563777,61.461093" id="path38" fill="#333395" fill-rule="nonzero"></path>
                        <path d="M168.493528,58.7204761 L167.76119,60.1670035 C171.146662,62.0659089 174.217707,64.1433616 176.846961,67.0301277 C179.999995,66.2076799 183.352831,66.5149436 186.536115,67.012456 C184.112234,65.1850332 181.92318,61.9378293 180.057309,59.5964164 C180.49114,61.3168542 181.197209,63.5494511 182.410344,65.0684163 L168.493528,58.7204761" id="path40" fill="#FFFFFF" fill-rule="nonzero"></path>
                        <path d="M165.391439,61.4844164 C165.931936,61.5998393 166.428653,59.8224861 166.474026,59.5839189 L165.864274,59.2596204 L165.262483,58.9418493 C143.730146,47.6757003 122.170743,36.4658299 100.643978,25.1924372 C88.9369132,19.059104 77.1610727,13.0189847 65.5861476,6.63246153 C64.9191626,6.26554412 63.6831825,5.68842971 62.4947248,5.07773918 C61.5391825,4.58675411 60.6374512,4.08768945 60.0792821,3.66883971 L59.7667647,3.55254916 C59.4760582,3.44433822 59.1589239,3.40453723 58.8883567,3.48165563 L58.7437995,3.77083374 C58.8255508,4.0295402 59.0043368,4.28327153 59.2101876,4.48942476 C59.6620085,4.95988843 60.7720582,5.58239986 61.9645756,6.19869437 C63.1560581,6.80441774 64.3883765,7.38463663 65.0559984,7.7500018 C76.6309235,14.1324574 88.408356,20.1766363 100.11542,26.3081386 C121.642186,37.5855115 143.202384,48.7966555 164.732334,60.0575507 L165.335717,60.3753219 L165.309449,60.6511428 C165.260891,60.8955209 165.245767,60.9863467 165.237011,61.075899 C165.228255,61.2375706 165.262483,61.3709835 165.391439,61.4844164" id="path42" fill="#FFFFFF" fill-rule="nonzero"></path>
                        <path d="M116.592236,26.146467 L115.88139,25.9978501 L115.712634,24.5584869 L113.420097,22.50189 L113.30547,21.9773129 L111.399002,19.6520592 L108.974326,19.4091935 L107.270047,17.6629647 C104.893132,17.8022682 100.558803,18.7232632 98.6722363,20.2500293 L95.9402961,21.630885 L93.2425847,23.0942084 L89.9796992,23.398288 L61.877491,23.0805168 C65.4757397,29.3482978 78.8635204,41.5305064 86.3721371,43.3687551 L100.108256,39.0108647 C107.378306,42.420377 111.012137,39.8955612 117.348455,37.20581 C117.187659,36.1252926 115.082186,35.3416907 114.216117,34.3454718 C115.55343,32.8883574 118.647559,33.393034 118.783679,31.4505863 C118.883977,30.0332729 118.295718,29.1563774 118.174723,27.9132331 L116.592236,26.146467" id="path44" fill="#333395" fill-rule="nonzero"></path>
                        <path d="M87.1052715,39.7736109 L100.34149,35.564019 C105.438405,39.5450736 108.717211,38.3874219 114.28935,36.0609742 C112.905868,36.1874618 110.508256,36.0220489 109.412137,35.1321782 L110.985072,33.0783673 L115.727758,31.1816112 C116.473629,30.1505266 116.543679,28.9439993 115.416515,28.1707456 L114.037808,27.8821884 L113.804574,25.8868053 L112.624077,24.8271437 L111.165768,24.7605964 L111.340097,23.0958004 L110.496316,22.0649547 L108.280992,21.8404771 L107.523977,21.0659497 L107.811341,22.9166959 L109.214724,22.7957009 L110.388057,23.6878004 L110.19144,25.4723178 L112.546863,26.6585466 L112.757012,28.7558998 L115.258903,29.8659495 C113.408952,30.6852928 111.571739,31.5336112 109.659699,32.225432 C108.790445,33.7475016 107.453928,35.1333723 105.690744,35.7151832 L100.18547,33.7888947 L87.7357192,37.7954219 C81.8794009,35.3053126 76.9201175,31.2475216 71.8236798,27.6228451 C74.1915205,30.9474221 83.0981074,38.847601 87.1052715,39.7736109" id="path46" fill="#F0D62D" fill-rule="nonzero"></path>
                        <path d="M115.285171,55.0472424 C116.124176,53.9947449 117.338107,51.4801181 116.519002,48.3551033 C111.858306,30.5432032 92.5014902,52.5046753 78.8339881,52.5684365 C78.3286747,52.5721778 77.8429433,52.5619091 77.3843563,52.5385858 C76.4017493,52.6934116 75.1548638,52.787342 74.3314608,52.7291529 C61.4645159,51.8305261 55.3171727,40.5991632 44.7683173,37.0130936 C44.3205561,37.3809344 27.0196212,30.7521584 12.8964773,43.4713621 L5.11287549,50.0120983 C27.5171336,47.3249739 45.8768546,59.6517398 50.9990833,62.9057895 C72.2599783,76.444018 90.7176097,72.6560778 99.2644751,65.3411327 C106.544077,59.1072622 106.719997,48.2568744 115.285171,55.0472424" id="path48" fill="#333395" fill-rule="nonzero"></path>
                        <path d="M32.2708052,74.2661872 C39.3998796,78.5522766 45.9794615,73.0392022 53.2160783,73.544436 L57.859103,73.8693713 C64.3423666,74.323421 65.1757198,87.7627839 79.8073612,84.3391024 C87.5494505,82.281391 89.0953212,79.136794 88.9759182,79.1259682 C80.119401,78.1448737 74.4527743,80.081192 74.5787046,79.8065652 C75.932814,76.8258687 76.6209732,75.6085155 78.0659085,74.7446747 C58.8152821,72.4337494 51.0447748,67.0829834 45.3927153,63.6081974 C45.0848944,63.4216104 38.3146657,73.7490927 32.2708052,74.2661872" id="path50" fill="#982444" fill-rule="nonzero"></path>
                        <path d="M95.2103459,70.1694709 C87.7070625,73.4194609 79.7484557,74.353829 77.8926946,77.2362966 C85.3914407,76.4968737 93.251341,77.7052319 95.0439777,78.4869234 C92.4059678,78.958008 89.4949231,85.6318387 89.9088535,90.9763161 C110.003579,89.0292515 117.532335,101.936714 131.255718,102.067261 C130.590245,99.2453707 130.173131,90.5942266 131.082186,91.2636793 C132.141688,91.4308435 133.25134,98.1540274 133.874624,101.486167 C135.690345,100.5795 141.313429,96.0692513 140.424275,92.4720375 C139.56139,88.9934306 136.087559,81.84358 134.134922,78.5904856 L132.558803,78.6007543 L132.309648,76.7092518 L131.157012,74.9499683 C131.157012,74.9499683 132.192634,72.4518191 131.064673,70.3389435 L129.896116,67.3721774 L129.228255,63.1060681 C130.232037,55.9577299 123.414922,56.1303071 117.143082,57.8868045 C115.314624,58.1038791 114.548057,58.1386652 114.165171,57.8696901 C113.408952,57.3514016 112.889947,55.4878394 112.776913,55.183123 C105.213132,56.335521 107.024077,64.0973516 95.2103459,70.1694709" id="path52" fill="#333395" fill-rule="nonzero"></path>
                        <path d="M118.435818,87.9164157 C116.5795,85.8937292 113.160594,85.805371 110.58149,86.1627839 C105.912037,86.8043759 85.2959183,92.3391022 83.0137293,96.2618881 C82.1954208,97.6708433 82.5982069,98.8911418 84.0533312,99.5995995 C88.2037789,101.619898 112.313629,97.4734304 116.35343,94.8736295 C117.532335,94.1070623 118.770942,93.1701469 119.40139,91.8782067 C123.239002,90.1102465 126.427062,88.7848734 131.235818,86.2232814 C126.575121,87.0121371 122.427062,87.168157 118.435818,87.9164157" id="path54" fill="#333395" fill-rule="nonzero"></path>
                        <path d="M89.5506445,96.3940274 L117.445569,88.5357192 C115.424475,87.7810923 112.878007,87.1952217 110.382485,87.6768137 L111.980097,88.9010923 L107.594823,88.2348237 C105.214724,88.7872615 103.245371,89.4996993 102.634823,89.6780077 C94.0823857,92.1241768 84.1186049,95.8933309 84.2977093,97.619102 C85.7496496,99.4061667 98.8680572,98.018704 107.596415,95.9450722 C108.066067,95.896515 109.416117,95.4459678 110.330744,95.3289528 L114.007559,90.9373112 L112.069251,95.0017887 C112.788057,94.7940275 112.702883,94.8107439 113.400992,94.5194006 L115.808952,90.7661669 L115.330544,93.6907439 C116.990246,92.8979081 117.885768,92.1098484 118.10149,90.7255699 C121.010146,89.6206943 124.565171,88.3359182 125.408156,87.9928336 C123.716614,88.1791023 89.5506445,96.3940274 89.5506445,96.3940274" id="path56" fill="#FFFFFF" fill-rule="nonzero"></path>
                        <path d="M100.348654,75.3342867 L101.361988,75.9324956 C101.740893,74.2107842 103.297112,72.754625 104.873231,72.5432022 C103.352037,74.0885952 103.22547,74.9819683 103.515221,76.7273215 L105.021291,75.5603563 L106.422286,74.6327544 L107.854326,73.8541673 L108.744276,73.5634608 C108.260296,74.9866648 108.374127,78.5883363 111.310644,79.2932119 C114.459699,79.8216895 124.925768,80.4951224 129.134325,79.5550229 L128.698106,77.404814 L127.816912,77.1555006 L127.156216,79.2351025 L126.321987,77.0674608 C123.668853,76.9477394 117.033231,76.9387443 113.690743,77.4098289 L120.542883,73.0360977 C121.438405,73.7951026 123.185669,74.8165553 124.69731,75.0431822 C124.757012,75.0571922 126.193828,74.8979882 126.376116,74.8622469 L127.582086,69.30165 L123.942683,69.4586251 L125.834823,66.8140879 C123.998405,67.0767744 122.173927,67.0005953 120.399599,66.7176899 L119.87741,64.9741675 C121.970146,65.3349237 124.108256,65.6231625 126.29333,65.1987247 L126.302086,64.0046949 L122.873629,63.9707845 L122.480395,62.8193417 L125.260892,62.7609139 C126.136514,60.9496502 125.078604,59.9561378 123.501688,59.6607348 C122.767758,59.522705 121.693927,59.6290532 120.937708,59.7916801 C113.744077,61.3181278 109.683579,60.2223269 106.085569,71.1915604 C103.735719,70.8743465 101.324575,71.7248141 100.348654,75.3342867 L100.348654,75.3342867 Z M112.784873,73.5199186 C113.693928,72.289829 114.752634,71.4801176 115.773927,70.4182271 L115.297112,66.3640978 L117.752037,71.4946848 C115.95542,71.9875803 114.496316,72.6840977 112.784873,73.5199186 L112.784873,73.5199186 Z" id="path58" fill="#FFFFFF" fill-rule="nonzero"></path>
                        <path d="M94.3299479,80.799202 C92.7474604,82.6252716 91.7261669,87.567759 91.5765151,89.1661669 C93.9613907,89.0316396 96.1281568,89.0841769 98.1237786,89.2831818 C99.1538284,88.967162 100.182286,88.6678585 101.178107,88.3884555 C98.7343259,88.0151222 96.0063658,87.8662665 92.893132,88.0413908 C93.0077589,86.8226844 93.4591021,83.2987044 94.3299479,80.799202 Z M115.427659,95.3496494 C119.660097,97.5864652 123.79144,99.699102 129.260096,100.273032 C129.208355,99.8734303 129.16139,99.4817886 129.119997,99.0957189 C124.273828,98.4413906 120.568355,96.5683558 116.846962,94.5416892 L116.35343,94.8736295 C116.113032,95.0256693 115.800992,95.1856693 115.427659,95.3496494 L115.427659,95.3496494 Z M130.5393,89.4678585 C131.908454,88.7387042 133.841987,91.4873609 135.063081,98.6348234 C135.34726,98.3968135 135.683977,98.1046742 136.038206,97.77751 C134.554424,89.4272614 131.943479,87.0965152 130.5393,89.4678585 L130.5393,89.4678585 Z" id="path60" fill="#F0D52D" fill-rule="nonzero"></path>
                        <path d="M188.611339,69.9337694 C171.199996,74.9508439 133.877012,53.7515608 121.71144,40.497193 C117.778306,40.9116806 115.833629,40.7739691 113.899301,40.5267254 C117.732136,43.2055711 120.614524,49.6078794 117.108057,55.1287548 C116.560395,57.9614712 128.576315,50.843939 130.886365,60.0487945 L131.049549,61.9900482 L133.582484,63.1809735 L137.248156,55.8221678 L139.81134,65.4918989 L149.547459,69.2067644 L141.381091,71.6694907 L143.732534,81.3277592 L136.124972,73.1791424 L133.154226,74.1952618 L134.202584,75.7732916 L133.830046,77.4375304 L135.258902,77.3955006 C136.670245,79.6047741 137.962186,81.8252716 139.016912,84.3128337 C140.000793,84.0206944 143.228653,83.9984059 144.167161,83.9721372 C144.167161,83.9721372 172.514225,84.6933312 188.611339,69.9337694" id="path62" fill="#333395" fill-rule="nonzero"></path>
                        <path d="M92.6009927,76.2807543 C100.924177,75.9303464 105.260097,83.0805949 114.076813,81.6262666 C104.804773,81.3404955 101.959002,74.32963 92.6009927,76.2807543" id="path64" fill="#F0D62D" fill-rule="nonzero"></path>
                    </g>
                </g>
            </g>
        </g>
    </g>
</svg>