<?xml version="1.0" encoding="UTF-8"?>
<svg width="200px" height="200px" viewBox="0 0 200 200" version="1.1" xmlns="http://www.w3.org/2000/svg" xmlns:xlink="http://www.w3.org/1999/xlink">
    <!-- Generator: Sketch 54.1 (76490) - https://sketchapp.com -->
    <title>valparaiso</title>
    <desc>Created with Sketch.</desc>
    <g id="valparaiso" stroke="none" stroke-width="1" fill="none" fill-rule="evenodd">
        <g id="valparaiso_BGD" transform="translate(-0.000000, 0.000000)">
            <g id="valparaiso" transform="translate(6.000000, -1.000000)">
                <g id="g10" transform="translate(94.500000, 100.987099) scale(-1, 1) rotate(-180.000000) translate(-94.500000, -100.987099) translate(0.000000, 0.987099)" fill-rule="nonzero">
                    <g id="g12">
                        <path d="M86.4328995,189.108957 C86.6190593,190.746095 86.0430224,193.03494 85.2810839,194.373174 C81.1736906,201.629653 72.2679695,199.645385 70.0312114,193.509215 C70.0312114,193.509215 64.0999164,192.837906 62.5672607,184.625914 L64.3359082,185.334618 C64.3359082,185.334618 61.4854165,178.208119 65.688859,168.458281 C66.6082975,170.786069 68.5447729,174.064212 73.4680678,177.670918 C73.3167646,178.908313 73.3237359,180.827591 74.442244,182.247836 C75.0843793,183.059957 76.4796743,183.434683 78.0265308,180.494386 C78.4530718,181.101994 78.4530718,181.101994 78.4530718,181.101994 C78.4530718,181.101994 78.4530718,181.101994 79.8783177,181.651317 C77.357285,191.901994 71.4716908,184.891291 71.4716908,184.891291 C71.4716908,184.891291 74.5326129,189.650027 77.5511907,188.010827 C79.68183,186.852607 80.8721168,183.880589 81.3859283,182.239067 C82.3260225,182.584908 82.3260225,182.584908 82.3260225,182.584908 C82.3260225,182.584908 82.3260225,182.584908 86.1981987,181.740808 C87.6100183,185.509473 87.680506,190.537455 87.680506,190.537455 L86.4328995,189.108957" id="path14" fill="#FCD006"></path>
                        <path d="M77.9051784,199.793161 L77.9041456,199.793161 C74.2207113,199.793161 70.8848097,197.558731 69.4660188,194.188003 C68.8393753,194.040743 67.6749081,193.669112 66.4239451,192.776526 C64.7802648,191.604379 62.6447197,189.26318 61.8058386,184.767758 L61.5473837,183.383619 L62.8556665,183.907926 L63.1432976,184.023206 C62.5130394,181.329202 61.8213304,175.472852 64.9775271,168.152156 L65.720359,166.429396 L66.409486,168.174335 C67.668195,171.36144 70.1270023,174.263825 73.9261088,177.047062 L74.2919736,177.315018 L74.2369777,177.764792 C74.0934203,178.937971 74.1182072,180.584908 75.0510719,181.769435 C75.1347276,181.875173 75.3105596,182.05467 75.5377727,182.05467 C75.7236743,182.05467 76.4035063,181.916179 77.3410186,180.13436 L77.9320308,179.011214 L78.6609202,180.050286 L78.9519079,180.464986 L80.1569119,180.92946 L80.7931086,181.174464 L80.6304447,181.835972 C80.5400759,182.203735 80.4440267,182.555508 80.3422972,182.890776 C80.4708791,182.549318 80.5720922,182.246546 80.6467111,182.008248 L80.8896742,181.231975 L81.6536783,181.513084 L82.3815348,181.780782 L86.0329528,180.985166 L86.6885142,180.842291 L86.9234732,181.469757 C88.3660183,185.320176 88.4519978,190.31592 88.454838,190.526623 L88.4845306,192.63494 L87.1413913,191.097094 C86.938965,192.48407 86.4618175,193.864341 85.954461,194.755637 C84.1429528,197.956152 81.2085472,199.792645 77.9051784,199.793161 L77.9051784,199.793161 Z M77.9051784,199.019466 C80.6389652,199.018951 83.4416905,197.62269 85.2810839,194.373174 C86.0430224,193.03494 86.6190593,190.746095 86.4328995,189.108957 L87.680506,190.537455 C87.680506,190.537455 87.6100183,185.509473 86.1981987,181.740808 C82.3260225,182.584908 82.3260225,182.584908 82.3260225,182.584908 C82.3260225,182.584908 82.3260225,182.584908 81.3859283,182.239067 C80.8721168,183.880589 79.68183,186.852607 77.5511907,188.010827 C77.1076087,188.251704 76.6635104,188.354347 76.2279325,188.354347 C73.6994121,188.354347 71.4716908,184.891291 71.4716908,184.891291 C71.4716908,184.891291 73.435535,187.231201 75.5806334,187.230943 C77.148662,187.230685 78.8137726,185.980137 79.8783177,181.651317 C78.4530718,181.101994 78.4530718,181.101994 78.4530718,181.101994 C78.4530718,181.101994 78.4530718,181.101994 78.0265308,180.494386 C77.0990882,182.25712 76.2266415,182.828364 75.5377727,182.828364 C75.0776662,182.828364 74.6996662,182.573045 74.442244,182.247836 C73.3237359,180.827591 73.3167646,178.908313 73.4680678,177.670918 C68.5447729,174.064212 66.6082975,170.786069 65.688859,168.458281 C61.4854165,178.208119 64.3359082,185.334618 64.3359082,185.334618 L62.5672607,184.625914 C64.0999164,192.837906 70.0312114,193.509215 70.0312114,193.509215 C71.2664244,196.897738 74.5336457,199.019982 77.9051784,199.019466 L77.9051784,199.019466 Z" id="path16" fill="#733C19"></path>
                        <path d="M117.757325,66.4711782 L144.293234,64.5642795 L144.981845,95.4689854 L137.707152,118.622047 L127.692218,133.353446 L121.378276,136.660989 C121.378276,136.660989 120.204255,140.935909 116.724538,141.015599 L99.2497844,139.389036 L98.2503049,143.867953 L100.200981,154.57872 L98.4571205,155.537843 L98.4571205,162.823465 L92.7829895,172.752542 L85.0360553,179.202575 L82.7778668,179.586843 L80.0556988,178.582587 L66.1241787,159.958732 L66.7342975,149.477237 L69.4161868,142.2793 L71.1590146,133.16518 L73.0288752,127.878269 L85.6859364,80.8417775 L117.757325,66.4711782" id="path18" fill="#FFFFFF"></path>
                        <path d="M112.547948,67.7214683 L112.536071,67.7304948 C106.837928,68.1495792 97.9730016,69.021017 93.6221288,70.7754979 C89.3773748,72.4804624 86.0456044,74.5467422 85.0995716,76.7912295 C85.7187274,77.7604107 86.282629,78.6852334 86.7928257,79.5556395 L87.6879937,81.0989019 L88.0011863,81.6389406 L88.0011863,81.731526 C89.5165428,83.0483538 91.6027723,83.4986439 94.8903911,83.9004492 C97.0460754,84.1593789 98.9861656,84.3094756 102.225243,84.5841372 C104.541526,84.7806555 106.469223,83.807348 107.900407,82.6805911 C112.090165,78.982332 114.90012,73.2869098 115.130948,67.6167617 L112.547948,67.7214683" id="path20" fill="#FFFFFF"></path>
                        <path d="M22.9122474,81.8003848 L22.9122474,123.923659 C22.9122474,123.923659 37.7948351,124.662795 54.9367732,137.764278 C69.6792892,124.439455 87.0293339,124.009797 87.0293339,124.009797 L87.0293339,82.5072836 C87.0293339,82.5072836 73.2555719,58.4871681 55.204265,49.8367492 C35.8031057,57.9019973 22.9122474,81.8003848 22.9122474,81.8003848" id="path22" fill="#FFFFFF"></path>
                        <path d="M115.130948,67.6167617 L116.580206,67.5731769 L144.293234,66.1116682 L145.344353,65.0934864 L147.407603,63.4560913 C149.187869,71.9948402 146.069369,82.9400366 146.069369,82.9400366 C150.601754,93.4558326 147.811164,99.4148267 140.849923,115.114375 C133.882484,130.809281 128.896189,135.637908 128.896189,135.637908 C126.607792,136.440229 124.268788,137.061763 122.179976,137.521338 C122.122399,137.559507 122.059915,137.598191 122.002595,137.641002 C122.014989,137.841647 122.000013,138.04616 121.945017,138.255058 C121.653513,139.4352 120.385767,140.631589 118.617636,141.218049 C117.309612,141.658281 116.008559,141.66576 115.040837,141.326109 C113.310661,141.696966 111.671628,141.827978 110.49296,141.465116 C110.059964,141.329203 109.673186,141.148417 109.319456,140.936425 C107.288739,141.326109 105.689727,141.889358 104.38351,141.886263 C102.895006,141.882395 101.615641,141.218049 100.279731,140.624626 C99.2670836,141.457637 99.0163746,143.213665 98.8560344,143.931395 C99.186268,145.193291 99.4152885,146.250415 99.7401,147.99587 C100.562457,152.506508 100.728477,155.142485 100.728477,155.142485 C100.071883,155.4744 99.6306246,155.721208 99.0491656,155.96389 L99.0491656,163.153832 C99.0491656,163.153832 98.7979402,163.555895 98.1284361,164.281105 C97.8650754,165.592775 97.632182,166.481234 97.0285181,168.163761 C95.4217599,172.625657 91.5877969,177.299028 85.999129,178.939003 L85.294252,179.718371 L82.553752,180.301221 L79.7975021,179.356282 L79.2305021,178.468081 C73.0410105,175.773819 68.233904,170.83378 67.1406991,165.639196 C66.7735434,164.266147 66.6857565,162.91115 66.7273262,161.641775 C65.6640721,160.746611 65.0777074,160.144161 65.0777074,160.144161 L66.1357975,155.343387 L64.8809615,153.165954 C66.0015352,148.991099 66.9178754,145.965438 67.6088098,143.568791 L68.7978057,142.835328 C68.8068425,142.831718 68.8094245,142.823207 68.817945,142.823207 C68.9460106,141.998191 69.1925884,140.716695 69.521531,139.250545 L70.1321663,135.985296 C68.7216376,136.919403 67.5582032,137.744935 66.7735434,137.768146 C65.142773,137.81431 63.5597689,135.352157 62.6697648,133.684587 L68.233904,128.019855 C73.6601662,125.572144 79.2405718,124.178978 82.5927397,123.488843 C84.2346126,123.152544 85.3425348,122.979236 85.6319733,122.940294 L85.6859364,122.917856 L85.6859364,122.099804 L85.6859364,82.2635698 L84.8018708,80.7404235 L115.130948,67.6167617 Z M68.8910147,144.486908 L66.8623631,152.656605 C78.3797439,157.465631 87.3218708,157.689745 87.3218708,157.689745 C94.6608542,156.547256 99.1792967,154.139519 99.2167352,154.116308 C98.9285877,149.986586 98.4021246,146.829139 97.6776246,144.472466 C92.8586411,139.103285 87.1228011,137.058411 87.1228011,137.058411 C86.533338,137.119274 85.9508462,137.20077 85.3753257,137.29645 C76.5801128,138.733201 70.7082032,143.233265 68.8910147,144.486908 L68.8910147,144.486908 Z M67.9021213,161.151511 C69.5359901,162.466792 71.6697277,164.015212 74.2380104,165.307797 C76.8775555,166.635973 79.9805636,167.692839 83.4997848,167.947127 C83.7510102,167.616759 84.1716126,166.947771 84.6007356,165.801414 C81.7414652,165.615986 73.423658,164.536424 66.4877196,158.215083 C66.3924451,159.136811 66.8899901,160.182588 67.9021213,161.151511 Z M69.6057032,155.366598 C69.022695,155.131395 68.0296704,154.726237 67.5664655,154.517856 C66.8089164,157.153317 68.265404,158.461376 69.1590229,159.148416 C72.0818097,161.020757 76.1120022,163.127269 82.2291988,163.840873 C83.2330676,163.98349 84.2028545,164.034296 85.1424323,164.034296 C85.4001126,162.605799 85.6836126,161.232233 85.9064364,159.152543 C85.5356659,159.117727 85.1646372,159.078784 84.8018708,159.041131 C83.9286495,160.436875 81.720293,162.332942 77.5834653,161.016115 C72.1009162,159.271692 69.323236,156.76389 69.323236,156.76389 L69.6057032,155.366598 Z M88.3949363,164.489744 C88.3985511,164.246289 88.407588,164.011086 88.4112027,163.775367 C88.4148175,163.173432 88.3758298,162.21302 88.3185101,161.676076 C88.1943175,160.591614 88.0290716,160.00077 87.7228503,159.777946 C87.7187191,159.774077 87.715879,159.774077 87.7065839,159.769951 C87.6694035,159.742356 87.6265429,159.723529 87.5841986,159.708571 C87.511129,159.689487 87.4408995,159.669113 87.3593093,159.672723 C87.3079281,159.672723 87.2668749,159.692324 87.2240142,159.704445 C86.9079814,159.801157 86.7440265,160.185941 86.6324855,160.746611 C86.5650962,161.1087 86.5144896,161.533974 86.454588,162.000254 C86.4166331,162.58723 86.312838,163.335135 86.2423503,164.006701 C86.2201454,164.242936 86.1938093,164.489744 86.1625675,164.736553 C86.0430224,165.754993 85.8715798,166.851575 85.6472069,167.994064 C85.999129,167.978848 86.3541495,167.963374 86.7143339,167.931911 C86.7793995,167.924432 86.8504036,167.924432 86.9185675,167.916953 C87.101629,167.900705 87.2756536,167.877752 87.4470962,167.858926 C87.7187191,167.828236 87.9789814,167.792904 88.2366617,167.753703 C88.3259978,166.612762 88.3724732,165.509216 88.3949363,164.489744 L88.3949363,164.489744 Z M89.3964814,163.594064 C93.4284813,162.745837 96.4741697,160.877108 97.9559607,159.503542 L98.0860918,156.323658 C97.9004484,156.393033 97.7153213,156.462665 97.5322599,156.53204 C97.4294976,158.076076 97.4718418,158.318242 96.0507271,159.372014 C94.1596944,160.780912 91.8958256,161.719403 89.7308461,158.808765 C89.3688543,158.885876 89.0370715,158.955509 88.7471166,159.013278 C89.0551453,160.684716 89.2598953,162.251189 89.3964814,163.594064 Z M89.6513215,167.473626 C90.2666043,167.321982 90.8369608,167.152285 91.3745264,166.966856 C92.9624362,166.422949 94.2332804,165.731782 95.3432681,164.975882 C96.3613378,164.238294 97.5121205,163.131137 97.8247967,162.582588 C97.8358992,162.568146 97.8428705,162.559377 97.8511328,162.54545 L97.9030303,160.691163 C96.7951082,161.97369 94.2887927,164.158345 89.5444281,165.261376 C89.6118174,166.25712 89.6381535,167.021272 89.6513215,167.473626 L89.6513215,167.473626 Z M99.6401658,154.624998 C99.6401658,154.592396 99.6401658,154.564853 99.6401658,154.532814 C99.6401658,154.564853 99.6231369,154.600266 99.6231369,154.632868 C99.6401658,154.624998 99.6401658,154.624998 99.6401658,154.624998 L99.6401658,154.624998 Z M94.001678,136.614568 C94.3688337,138.138746 95.0868788,139.879042 95.3688296,140.488971 C96.103141,141.098643 96.8707599,141.77743 97.5671164,142.561183 C97.6048131,141.299545 97.8756615,140.060345 98.02335,139.45841 C97.3417107,139.072079 96.9433132,138.829913 96.0576984,138.19961 C95.6512968,137.907153 95.0835222,137.462279 94.4429362,136.957057 C94.2575509,136.795354 94.1031493,136.664342 94.001678,136.614568 L94.001678,136.614568 Z M71.0157154,141.001415 C71.8966826,140.485619 72.4030064,140.118372 73.4195269,139.659055 C75.2617604,136.324432 77.3288833,134.641905 79.2922111,133.900964 C77.1610554,132.913214 75.061658,133.349578 73.169076,134.221015 L71.0157154,140.894129 C71.1468794,140.813407 70.8850679,141.078784 71.0157154,141.001415 L71.0157154,141.001415 Z M99.53535,131.134233 C101.954395,132.69658 104.596522,134.156025 107.702887,134.850029 C107.961083,134.464729 108.274792,134.074271 108.617678,133.692582 C108.181325,133.526238 107.742649,133.330493 107.309395,133.075432 C101.884424,129.8401 97.5121205,126.599868 92.5681698,128.138746 C87.3017314,129.779236 82.1202398,127.841905 79.5393054,126.568146 C77.811453,127.012763 75.8522563,127.58246 73.8109531,128.297353 C89.1832109,133.336941 94.3078993,127.757315 99.53535,131.134233 Z M112.761993,139.844742 C112.701833,139.755767 112.654067,139.662924 112.606559,139.566728 C111.946866,138.10754 113.064858,136.139004 115.148247,134.919661 C115.386304,134.780654 115.627202,134.649126 115.885399,134.534104 C116.91612,134.066792 117.963624,133.855316 118.895972,133.870274 C120.272161,133.900964 121.397899,134.42656 121.839673,135.394452 C121.894669,135.514374 121.931849,135.637908 121.964124,135.760667 C123.152862,135.228365 124.115419,134.054671 124.780017,132.94803 C125.174026,132.179494 125.023239,131.519017 124.674673,131.0646 C124.501681,130.832492 124.273694,130.652221 124.045448,130.535909 C123.832177,130.44255 123.609612,130.365954 123.368198,130.300448 C122.110522,129.960538 120.453415,129.979107 118.638292,130.370081 C117.572714,130.597289 116.454206,130.948288 115.321755,131.426431 C115.183362,131.485748 115.040837,131.54687 114.898055,131.608765 C113.285874,132.335006 111.879477,133.229655 110.756321,134.186715 C110.367477,134.511151 110.024075,134.843581 109.710883,135.178591 C109.073911,135.857379 108.577657,136.549062 108.261624,137.216502 C107.200952,140.693485 111.8818,139.999481 112.761993,139.844742 L112.761993,139.844742 Z M112.774387,139.886715 C112.771546,139.878939 112.766899,139.86235 112.7638,139.848352 C112.698735,139.886715 112.635735,139.918338 112.571186,139.948407 C112.641415,139.918338 112.706481,139.918338 112.774387,139.886715 L112.774387,139.886715 Z M113.847194,139.497353 C113.872239,139.597418 113.922846,139.682008 113.984813,139.75912 C114.032579,139.821015 114.078022,139.879042 114.1356,139.937069 C114.754755,140.554993 116.14153,140.700706 117.577878,140.218178 C119.006997,139.740035 120.016546,138.802576 120.159845,137.941196 C120.190054,137.752414 120.19212,137.567501 120.132477,137.392646 C119.806374,136.417018 118.129645,136.092582 116.391723,136.675432 C116.136108,136.764665 115.903214,136.864987 115.670063,136.980267 C114.356358,137.628881 113.56421,138.667695 113.847194,139.497353 L113.847194,139.497353 Z M125.754968,130.331396 C134.228468,124.24139 138.713603,112.983621 140.687001,99.5765288 C142.48121,87.3740791 141.140394,78.0647305 139.748972,72.5157944 C139.437845,74.9384894 138.881173,77.007864 138.234648,78.7295918 C143.760574,96.603995 135.414624,111.432106 133.241124,114.851319 C133.369189,118.100835 132.581431,121.689746 129.83112,125.039842 C128.257153,126.954478 126.638001,128.374981 125.005939,129.40451 C125.443841,129.655445 125.706944,129.972144 125.754968,130.331396 L125.754968,130.331396 Z M134.459554,92.3063807 C134.910882,93.7310099 135.088779,95.4702749 135.234144,96.6594431 C135.60982,99.7230149 135.146357,102.246548 135.725234,102.161957 C136.487173,102.054156 137.097033,99.8857486 137.503435,96.6362323 C138.257369,90.670275 136.730911,85.2897464 136.000472,83.1530605 C135.023197,84.6380379 134.25687,85.3632474 134.25687,85.3632474 L135.745374,89.1687921 C135.34207,90.237264 134.907784,91.2874252 134.459554,92.3063807 Z M130.603644,66.7378449 C130.590476,66.7860718 130.584021,66.8314619 130.57137,66.8802046 C130.453374,67.4060589 130.317821,67.9571872 130.317821,67.9571872 C128.577833,74.734492 125.235993,78.974853 125.235993,78.974853 C125.235993,78.974853 128.415169,80.9297207 133.923021,80.7125705 C135.277005,80.660733 137.663775,73.7931639 136.043849,69.8021904 C135.647517,68.8275934 134.907784,67.4826547 134.22098,66.4711782 L133.661726,66.5186315 C132.641591,66.6001273 131.621714,66.6622807 130.603644,66.7378449 L130.603644,66.7378449 Z M119.434571,67.4176643 C119.146681,69.4517068 117.37003,79.3237891 109.472825,85.1437761 C112.23837,85.9471287 115.863194,85.3789792 118.813866,82.7509973 C125.83062,76.4905203 126.655042,68.0825257 126.655042,68.0825257 C126.655042,68.0825257 126.762968,67.4676966 126.805312,67.0444858 C126.805312,67.0292698 126.807894,67.0233381 126.807894,67.0091537 C126.632321,67.0202433 126.457005,67.0354593 126.278849,67.0465489 L121.954571,67.2974838 C121.116981,67.3421002 120.275259,67.3758848 119.434571,67.4176643 L119.434571,67.4176643 Z M99.6156491,121.311925 C94.5957886,116.322112 91.6841043,112.354865 91.6841043,112.354865 L92.4290018,97.7851684 C90.9608953,96.6362323 89.1132396,96.8902619 88.0011863,97.571113 L88.0011863,113.550739 C91.2916453,117.900706 96.1656246,120.177689 99.6156491,121.311925 L99.6156491,121.311925 Z M105.288747,126.521725 C104.526292,125.88059 103.797145,125.240745 103.09201,124.608121 C94.7677476,123.577044 89.7370428,121.215213 88.0011863,120.277753 L88.0011863,122.917856 L88.0011863,124.58491 C88.9704568,125.645387 90.4894281,126.475303 92.8121657,125.943517 C98.2787066,124.681106 101.272239,125.603607 106.662354,129.8401 C108.206112,131.045516 109.515169,131.64745 110.618702,131.870532 C111.17744,131.446032 111.773358,131.045516 112.400776,130.689358 C109.682739,129.740551 107.238907,128.17382 105.288747,126.521725 L105.288747,126.521725 Z M105.863235,103.609024 C109.299317,105.403737 121.131956,110.544162 128.177112,109.263182 C128.553304,107.541454 128.645997,106.485362 128.645997,106.485362 C128.645997,106.485362 124.614771,106.314633 119.24712,105.134233 C115.627202,104.338876 111.04421,102.64139 107.753235,102.745323 C106.667001,102.779623 106.081153,103.285362 105.863235,103.609024 L105.863235,103.609024 Z M93.526596,95.2701459 C96.7021574,93.3944529 99.3417024,96.0263032 99.3417024,96.0263032 C100.402116,95.7023832 101.307354,95.621919 102.077038,95.6758197 C103.35537,95.7689209 104.32619,96.3043174 104.872792,96.7063806 C104.927272,96.7430021 104.982784,96.786329 105.030034,96.8247558 C105.055338,96.8438403 105.077542,96.8634405 105.102588,96.8820092 C105.0951,96.7138596 105.085547,96.543131 105.077542,96.3783341 C105.04062,95.0233374 105.140542,93.7872317 105.32851,92.6883278 C104.70419,92.614311 101.430514,92.2328797 98.1163008,91.9045754 C95.0835222,91.6002556 90.2260674,91.303157 88.8312888,91.2149558 C88.8359363,91.2572511 88.8359363,91.303157 88.8359363,91.3449365 C88.797465,92.6609906 89.1292478,93.3168255 89.848842,94.143389 C90.7414281,95.1695656 93.526596,95.2701459 93.526596,95.2701459 L93.526596,95.2701459 Z M97.6148828,106.129204 L98.4571205,98.4456455 C98.0003705,98.0103135 97.3861205,97.4272058 96.4741697,97.2992883 C95.8328091,97.214182 94.7979566,97.5012226 94.2609075,97.6778828 L92.521178,110.050545 C93.3063542,108.619469 94.8085427,106.90883 97.6148828,106.129204 Z M98.2513377,110.699417 C97.4640959,110.699417 96.8253173,111.33952 96.8253173,112.119662 C96.8253173,112.906509 97.4640959,113.54326 98.2513377,113.54326 C99.0359975,113.54326 99.6755508,112.906509 99.6755508,112.119662 C99.6755508,111.33952 99.0359975,110.699417 98.2513377,110.699417 Z M104.353817,106.052609 C107.046292,107.966213 119.182571,115.129333 126.865989,113.793679 L126.880448,113.783105 C127.15646,113.720436 127.469911,113.327141 127.589972,112.96041 C127.713132,112.574078 127.745923,111.799352 127.570349,111.640229 C119.760931,112.516051 107.910477,107.272209 104.598846,105.512054 C104.571735,105.565955 104.546948,105.61934 104.518805,105.681751 C104.461227,105.801158 104.408297,105.928302 104.353817,106.052609 L104.353817,106.052609 Z M104.528874,100.243969 C104.390739,99.9466126 104.196059,99.6226925 103.899907,99.2685984 C103.528362,98.8905198 102.854469,98.3881342 101.801543,98.2839434 C101.149596,98.2179215 100.588276,98.3066384 100.139014,98.4415191 L98.5973213,105.905607 C99.1289483,105.805284 99.7031778,105.735652 100.32001,105.709088 C100.32001,105.709088 100.615645,106.102383 101.140043,106.781944 C101.54851,104.971758 102.205104,102.825787 103.234793,101.351899 C103.549018,100.904188 103.997247,100.541584 104.528874,100.243969 L104.528874,100.243969 Z M88.9164937,89.6660197 C90.4091289,89.7364259 95.2962763,89.9904555 98.0556246,90.2493852 C101.861186,90.6050267 105.489108,90.948547 105.724583,90.9715 C105.760215,90.839714 105.797137,90.7087018 105.836899,90.5838791 C106.321018,88.9949688 106.93785,87.8215323 107.373944,87.1112809 C107.382206,87.080591 107.3946,87.050159 107.402346,87.0230797 C107.176424,87.1112809 106.772862,87.1584762 106.253887,87.1816871 C104.892415,87.2466774 102.74112,87.1112809 100.888817,86.8750462 C98.5322557,86.5787212 96.3009197,86.386845 94.4617845,86.2630539 L94.472887,86.2860069 C89.8901535,85.8927122 89.1483543,88.2958069 88.9164937,89.6660197 L88.9164937,89.6660197 Z M130.330214,110.659959 C130.197243,111.246935 130.061948,111.810442 129.939562,112.308701 C130.26773,113.438553 130.588411,115.546354 130.175038,117.577044 C129.140185,122.6548 125.645493,123.659313 123.210698,123.688972 C122.323276,123.697482 121.551526,123.577044 121.034874,123.464858 C118.327165,122.99471 114.599063,120.868598 111.071579,117.055058 C111.071579,117.055058 116.798124,120.532557 123.922804,120.215342 C124.812292,118.741454 125.349341,117.53707 125.945517,116.148804 C118.076198,116.78865 106.952825,110.626174 103.59885,108.298643 C103.486018,108.765697 103.413206,109.217019 103.35537,109.660603 C105.105686,111.91128 107.412415,114.844356 109.743157,117.699288 C114.493718,123.526754 122.132468,129.301093 127.969263,124.336554 C132.546316,120.439971 131.947042,114.715922 130.330214,110.659959 L130.330214,110.659959 Z M131.168062,106.801029 C131.688845,107.916438 132.238546,109.302125 132.647013,110.876593 C134.554312,105.558476 132.904693,100.575368 131.683939,97.9922606 C130.73171,99.7763998 129.869333,101.236103 129.292521,102.193679 C130.894116,102.624885 131.881976,102.921467 131.881976,102.921467 C131.676193,104.199868 131.428066,105.519791 131.168062,106.801029 L131.168062,106.801029 Z M86.7928257,79.5556395 L87.6879937,81.0989019 L88.0011863,81.6389406 L88.0011863,81.731526 C89.5165428,83.0483538 91.6027723,83.4986439 94.8903911,83.9004492 C97.0460754,84.1593789 98.9861656,84.3094756 102.225243,84.5841372 C104.541526,84.7806555 106.469223,83.807348 107.900407,82.6805911 C112.090165,78.982332 114.90012,73.2869098 115.130948,67.6167617 L86.7928257,79.5556395 Z" id="path24" fill="#713907"></path>
                        <path d="M98.2513377,112.246806 C98.1790426,112.246806 98.1263705,112.193421 98.1263705,112.119662 C98.1263705,112.050287 98.1813664,111.995871 98.2513377,111.995871 C98.3192434,111.995871 98.3744975,112.051319 98.3744975,112.119662 C98.3744975,112.192131 98.3215672,112.246806 98.2513377,112.246806 Z M98.2513377,109.152028 C96.6107558,109.152028 95.276137,110.483298 95.276137,112.119662 C95.276137,113.757831 96.6107558,115.090648 98.2513377,115.090648 C99.8908868,115.090648 101.224731,113.757831 101.224731,112.119662 C101.224731,110.483298 99.8908868,109.152028 98.2513377,109.152028 Z M80.8124734,178.068081 L80.2829119,177.238164 L79.8493996,177.049383 C74.0151867,174.510118 69.6217114,169.906121 68.6568303,165.320692 L68.6374655,165.23997 C68.4843548,164.66692 68.3790106,164.068339 68.3209163,163.43391 C70.0758794,164.73939 71.7952113,165.811214 73.5411375,166.689615 C76.7577522,168.308442 80.0706742,169.250802 83.3879856,169.490389 L83.769084,169.517984 L83.74817,169.624496 L85.7138216,169.539905 C86.0569651,169.525205 86.4460675,169.508442 86.848338,169.473626 L86.8932642,169.468984 L86.9012683,169.469499 C86.9570388,169.466405 87.0130675,169.462794 87.0683216,169.45712 C87.1989691,169.445515 87.3254855,169.430815 87.4499363,169.416114 L87.6146658,169.397288 C87.8008257,169.376398 87.979756,169.353703 88.1553298,169.329203 L88.1581699,169.435457 L89.2689322,169.161827 L89.6854035,169.098126 L89.6885019,169.058152 L90.0223502,168.975882 C90.6662928,168.817275 91.2738297,168.638552 91.8800756,168.429654 C93.3417272,167.928816 94.6905468,167.264986 95.9926328,166.404122 C95.8767025,166.767501 95.7393419,167.170595 95.570223,167.641775 C94.2319894,171.357571 90.8999608,175.88781 85.5625184,177.454283 L85.1429487,177.577558 L84.4809323,178.309215 L82.650834,178.698384 L80.8124734,178.068081 Z M83.2069897,162.399222 C83.4682848,162.280331 83.7107315,162.149577 83.935879,162.011086 C83.9098012,162.159377 83.8837233,162.305347 83.8576454,162.44977 C83.6371455,162.436617 83.4202602,162.419596 83.2069897,162.399222 Z M91.4561166,158.453897 C93.1899075,158.041002 94.6931288,157.582975 95.935055,157.150738 C95.9198214,157.310376 95.9027804,157.437778 95.8818665,157.481621 C95.8645673,157.515148 95.7594812,157.66086 95.1274157,158.129719 C94.0809444,158.909087 93.2678829,159.242807 92.6425305,159.15048 C92.2552354,159.093742 91.8578707,158.860086 91.4561166,158.453897 L91.4561166,158.453897 Z M71.030949,156.134103 L71.078199,155.900963 C75.9684448,157.554864 80.1357398,158.390454 83.0205717,158.811601 C82.2658627,159.578848 80.7649652,160.404638 78.0538997,159.541711 C74.4693547,158.401286 72.1081457,156.910634 71.030949,156.134103 Z M70.2553261,145.421015 C72.3477523,143.946096 77.8354653,140.095935 85.6252602,138.823723 C86.0773626,138.748417 86.5013216,138.687553 86.912629,138.638552 C88.1023994,139.12959 92.487096,141.125206 96.2936902,145.252092 C96.8880591,147.305735 97.3236369,149.966727 97.5913869,153.17988 C96.0083828,153.888068 92.3603215,155.322498 87.2317601,156.137456 C86.152756,156.085618 78.4574612,155.590454 68.6891048,151.728429 L70.2553261,145.421015 Z M115.544063,138.930235 C115.709825,138.762601 115.976026,138.555509 116.356608,138.367243 C116.546641,138.273369 116.719632,138.200125 116.902436,138.136425 C117.563161,137.91489 118.101501,137.908701 118.433284,137.958733 C118.202714,138.197547 117.76662,138.523014 117.086013,138.750738 C116.412378,138.977173 115.871714,138.981557 115.544063,138.930235 Z M74.426494,135.36763 C74.4995637,135.33952 74.5716006,135.312698 74.6433793,135.286908 C74.5439735,135.392904 74.4456006,135.501222 74.347744,135.61186 L74.426494,135.36763 Z M109.713206,137.774078 C109.958493,137.293098 110.346563,136.763891 110.841268,136.236489 C111.141034,135.915922 111.437702,135.634555 111.749604,135.374336 C112.440538,134.785554 113.234235,134.236489 114.095063,133.748804 C112.148259,134.980525 110.975788,136.759507 110.87819,138.45596 C110.243284,138.443066 109.802801,138.34068 109.660534,138.21921 C109.653563,138.176141 109.643235,138.040229 109.713206,137.774078 Z M115.980932,132.828108 C116.975505,132.411602 117.981181,132.092324 118.961813,131.883427 C120.51719,131.548417 121.937272,131.516954 122.963345,131.794194 C123.110776,131.834168 123.243231,131.878527 123.36639,131.928817 C123.391694,131.945838 123.416739,131.968275 123.431972,131.988391 C123.457792,132.022692 123.48671,132.060087 123.419837,132.20451 C123.091411,132.744033 122.741038,133.204123 122.384985,133.568275 C121.5523,132.803091 120.342132,132.354865 118.930571,132.323401 C117.965173,132.309474 116.957432,132.480977 115.980932,132.828108 L115.980932,132.828108 Z M69.1347524,129.312182 C69.5390884,129.132685 69.9439409,128.958862 70.3485351,128.790712 L73.327867,129.767631 C82.3247315,132.716953 87.9593585,132.152414 92.0742395,131.740293 C95.0682886,131.439842 96.876182,131.259313 98.6938869,132.433523 L98.6941451,132.433523 C100.940973,133.884974 103.67476,135.465374 107.001108,136.275174 C106.952051,136.368533 106.905317,136.461634 106.861165,136.554478 L106.812883,136.657121 L106.779833,136.765438 C106.340641,138.204252 106.616137,139.205154 107.028735,139.860989 C106.995686,139.868984 106.963153,139.876721 106.930878,139.884458 C105.919264,140.128172 105.04501,140.338875 104.394096,140.338875 C104.391772,140.338875 104.389706,140.338875 104.387124,140.338875 C103.400297,140.336296 102.459944,139.911022 101.371387,139.418436 C101.218018,139.349062 101.063875,139.279429 100.908956,139.21057 L100.034186,138.821918 L99.7093746,139.0891 L99.8072311,138.690132 L98.7878705,138.11244 C98.1643254,137.759378 97.80285,137.541712 96.9567394,136.939519 C96.578223,136.666921 95.9977968,136.211731 95.4320878,135.765567 C95.1630468,135.531912 94.9479689,135.355251 94.6861575,135.22656 L91.7228338,133.768404 L92.4956165,136.976399 C92.6045756,137.429526 92.740387,137.895548 92.8865264,138.348417 C90.0303543,136.46834 87.794629,135.654929 87.6435839,135.601028 L87.3128339,135.482911 L86.9632355,135.519017 C86.3711905,135.580396 85.7685593,135.662408 85.121002,135.770209 C81.5963586,136.345838 78.5168464,137.397289 75.9583752,138.544162 C77.13033,136.952156 78.4303505,135.88059 79.8395882,135.348546 L83.2878053,134.047192 L79.9441578,132.497482 C77.6864858,131.450932 75.2581457,131.554865 72.5204859,132.815728 L72.2803629,132.926367 L72.3273547,132.67569 L68.8871417,134.95422 C68.127527,135.459958 67.0903508,136.150351 66.7157073,136.221015 C66.5179287,136.205284 65.7270721,135.775625 64.5951377,133.933975 L69.1347524,129.312182 Z M80.8220267,125.463827 C81.566666,125.288714 82.2650881,125.136296 82.905416,125.00451 C84.4951331,124.678785 85.5614856,124.511151 85.8380142,124.474014 L86.042506,124.446676 L86.452006,124.274658 L86.452006,125.185297 L86.8571167,125.628366 C87.3869363,126.207863 88.1122109,126.806444 89.0608256,127.20206 C85.7866331,127.38001 82.7662479,126.350223 80.8220267,125.463827 L80.8220267,125.463827 Z M89.5503666,123.923659 L89.5503666,122.729591 C90.6198174,123.185813 91.9691534,123.69774 93.5973419,124.197031 C93.2291534,124.266664 92.8516698,124.346354 92.4630838,124.435845 C91.2678912,124.709217 90.3283133,124.547257 89.5503666,123.923659 Z M87.2351167,118.104962 L87.2351167,115.080332 C88.0515347,116.076593 88.9428297,116.964278 89.8736289,117.75422 L89.8090797,118.213279 L90.0016945,117.862022 C92.1336247,119.64384 94.4664321,120.920693 96.5931984,121.826947 C92.50801,120.785039 89.897383,119.542744 88.7380797,118.916567 L87.2351167,118.104962 Z M91.5242805,115.087038 L91.6593174,114.841003 C91.9281002,115.173434 92.2394854,115.552802 92.5916657,115.97266 C92.2294157,115.69284 91.8725879,115.398063 91.5242805,115.087038 Z M128.239337,114.732686 C128.430144,114.554736 128.595907,114.349965 128.732234,114.134878 C128.853845,115.083427 128.872952,116.208379 128.656841,117.268598 C128.005411,120.465761 126.166792,122.105477 123.191849,122.141583 C122.43146,122.152157 121.779255,122.043066 121.364075,121.952802 L121.300042,121.940165 C120.916104,121.873627 120.483882,121.759378 120.011899,121.593034 C121.268542,121.751641 122.603677,121.822821 123.992001,121.761183 L124.821071,121.724304 L125.249677,121.01431 C126.186931,119.461248 126.764259,118.168147 127.369472,116.758733 L128.239337,114.732686 Z M134.801923,115.275819 C134.996861,114.958089 135.224074,114.576142 135.474267,114.133846 C135.257124,114.701222 135.032493,115.256735 134.801406,115.799868 C134.804247,115.626045 134.804247,115.45119 134.801923,115.275819 L134.801923,115.275819 Z M108.51001,113.704446 C108.16919,113.277882 107.822432,112.841519 107.469993,112.396902 C111.847202,114.713085 118.048313,117.343646 123.538608,117.701609 C123.377751,118.024755 123.206825,118.350996 123.018858,118.688327 C123.014726,118.688327 123.010595,118.688327 123.006206,118.688327 C116.855186,118.688327 111.925178,115.762473 111.874055,115.731525 L108.51001,113.704446 Z M98.3969607,107.517986 L98.8846942,107.426174 C99.1183623,107.382073 99.3566778,107.345968 99.59835,107.317599 C99.691559,107.439327 99.7969032,107.576271 99.9130918,107.726883 L101.736735,110.089746 L101.735444,110.10032 L102.132034,110.609926 C104.475428,113.62295 106.632145,116.337328 108.542542,118.677238 C110.61044,121.213923 116.074399,127.175496 122.117751,127.726367 C123.108968,127.816889 124.063521,127.759378 124.977021,127.556154 C124.713144,127.746999 124.446685,127.927012 124.178677,128.096193 L123.246071,128.684716 C121.828054,128.406186 120.135833,128.464471 118.311931,128.857508 C117.188776,129.096838 116.042382,129.455574 114.903218,129.924175 L112.912005,129.228623 C110.05351,128.230816 107.73387,126.564278 106.290809,125.341583 L106.286419,125.337972 C105.611235,124.770339 104.905067,124.154994 104.127379,123.457121 L103.765645,123.132428 L103.625702,123.115148 L100.708338,120.215084 C96.8054361,116.335523 94.1777681,113.05609 93.2774362,111.892196 L93.8798091,110.794323 C94.7478665,109.211861 96.1441943,108.143904 98.0303213,107.619855 L98.3969607,107.517986 Z M125.755485,107.916438 C122.171456,107.916438 117.629001,106.699159 113.683239,105.280719 C114.224161,105.423853 114.767923,105.57266 115.307813,105.720436 C116.572718,106.066793 117.767653,106.393808 118.914304,106.645516 C122.188497,107.365568 124.963079,107.718115 126.689382,107.886522 C126.386517,107.906638 126.074616,107.916438 125.755485,107.916438 Z M135.699931,103.711152 C135.78307,103.711152 135.86621,103.70522 135.949607,103.693099 C136.195669,103.658282 136.424431,103.585039 136.637702,103.469243 C136.093681,105.273498 135.48382,106.898772 134.882222,108.311538 C135.135771,106.619211 135.107111,105.002447 134.917595,103.522112 C135.158751,103.645903 135.427017,103.711152 135.699931,103.711152 L135.699931,103.711152 Z M100.903534,102.398966 L101.438002,99.8101845 C101.507198,99.8119898 101.576137,99.816374 101.645592,99.8233373 C101.896301,99.8483534 102.124288,99.9117963 102.328264,100.013408 C102.196325,100.158089 102.075489,100.308444 101.966272,100.463956 C101.58285,101.012763 101.228088,101.658798 100.903534,102.398966 Z M95.6531042,98.9031568 C95.9570017,98.841777 96.1754361,98.8219189 96.2704525,98.8332664 C96.466682,98.8606036 96.6515509,98.9539627 96.8291902,99.0800749 L96.1834402,104.972531 C95.6417435,105.180139 95.148846,105.418695 94.7001001,105.679688 L95.6531042,98.9031568 Z M89.5503666,98.6027055 C89.9299158,98.5181149 90.3825346,98.5021252 90.8330879,98.6550588 L90.1088461,112.825787 L90.4346904,113.269888 C90.4424363,113.280461 90.4620592,113.307025 90.4930428,113.348804 L90.4018994,113.995355 C90.1088461,113.683556 89.8240551,113.358347 89.5503666,113.018953 L89.5503666,98.6027055 Z M99.7150549,94.3295915 C99.2595959,94.0051556 98.6946615,93.6894883 98.0512353,93.4532536 C100.16535,93.6631827 102.240993,93.8924541 103.595752,94.0459035 C103.58594,94.1562839 103.577678,94.2666643 103.57019,94.3773026 C103.15217,94.2584116 102.690514,94.1689209 102.189612,94.1322994 C101.39385,94.077625 100.565297,94.1428732 99.7150549,94.3295915 Z M93.1824198,93.6972253 C92.2371616,93.6097978 91.2516248,93.3567997 91.013051,93.1228861 C90.9417887,93.0408745 90.8774977,92.9647946 90.8201781,92.8920673 C91.9523707,92.9660841 93.3505059,93.0612485 94.7251452,93.1659551 C94.2216616,93.2662775 93.70501,93.4377797 93.1824198,93.6972253 Z M136.102202,92.4131505 C136.129835,92.3850396 136.156892,92.3566708 136.183949,92.328302 C136.190858,92.4146979 136.19719,92.5013517 136.202372,92.5882633 C136.169557,92.5297204 136.136743,92.4714355 136.102202,92.4131505 Z M87.2351167,96.2256585 L87.2351167,91.1355232 L87.2650675,91.1370706 L87.2862396,91.3364258 C87.2418298,93.1337179 87.7868831,94.1330731 88.6797273,95.1589918 C88.7992724,95.2959357 88.9327601,95.42179 89.0768338,95.5375863 C88.3988093,95.6634405 87.7685511,95.9063806 87.2351167,96.2256585 L87.2351167,96.2256585 Z M91.38976,88.2444852 C91.943592,87.9012228 92.8446985,87.6995465 94.3401739,87.8277219 L97.0391041,88.0593144 L97.0181902,88.0157296 C98.2797393,88.1292048 99.5092721,88.2612486 100.695428,88.4103137 C102.102084,88.5895529 103.596526,88.7045755 104.844391,88.736039 C104.770805,88.9212099 104.697993,89.113344 104.626731,89.3129571 C103.187284,89.176529 100.707563,88.9428733 98.1999566,88.7087018 C96.2714853,88.5276574 93.4104075,88.3553814 91.38976,88.2444852 L91.38976,88.2444852 Z M105.756342,85.6487406 C106.084251,85.5324286 106.409838,85.3960004 106.732842,85.2399721 L106.196567,85.6353299 C106.192436,85.6355878 106.188821,85.6355878 106.184948,85.6358457 C106.05146,85.6420353 105.908419,85.6464195 105.756342,85.6487406 L105.756342,85.6487406 Z M87.2351167,89.5633762 L87.2351167,83.1076704 C88.3706658,84.0116033 89.7132887,84.5431313 91.4522436,84.9201784 C89.187342,85.4615066 87.8003093,86.9784633 87.3890019,89.4078637 L87.3613749,89.571629 L87.2351167,89.5633762 Z M111.894969,87.0292693 C114.698468,87.0292693 117.569616,85.9324285 119.844845,83.906123 C121.329218,82.5815582 122.552554,81.1713713 123.560812,79.7601527 L124.423964,80.2924545 C124.570103,80.3824609 128.071509,82.4928413 133.983956,82.2586698 C134.305411,82.2462907 134.614214,82.1583474 134.909074,81.99484 L134.706132,82.3030282 C133.858214,83.5914873 133.192583,84.2385537 133.186128,84.2447432 L132.443554,84.9611842 L132.813808,85.9264969 L134.084394,89.174208 C133.767587,89.9860713 133.41773,90.8278507 133.041279,91.6838146 L132.80632,92.2174058 L132.982411,92.7734342 C133.346468,93.9226282 133.523849,95.4045108 133.652947,96.4866514 L133.696325,96.846935 C133.796763,97.6675669 133.832911,98.4508035 133.846079,99.1584759 C133.592788,98.4618931 133.328911,97.8480956 133.084657,97.3317835 L131.767853,94.5454522 L130.316788,97.2644721 C129.599259,98.6086371 128.830349,99.9600233 127.965132,101.395742 L126.906009,103.153834 L128.889218,103.687941 C129.35578,103.813279 129.770443,103.927528 130.122624,104.026303 C130.066337,104.339907 130.00721,104.661764 129.944726,104.991616 L128.711579,104.939262 C128.673366,104.937715 124.735866,104.756928 119.580194,103.623208 C118.510485,103.388005 117.352731,103.071048 116.126813,102.735781 C113.223649,101.941197 110.218497,101.122112 107.704436,101.198708 C105.726649,101.260861 104.811083,102.398966 104.577157,102.746097 L104.080903,103.484201 L103.929083,103.403479 L103.466653,104.318759 C103.784235,103.471564 104.133575,102.769565 104.50512,102.237522 C104.662879,102.012634 104.926497,101.795226 105.286424,101.59355 L106.538419,100.892325 L105.933723,99.5920027 C105.891379,99.5009646 105.84671,99.4109582 105.79946,99.3219833 L106.796358,100.058798 L106.62569,96.3190176 C106.595223,95.1533181 106.672424,94.0198558 106.855743,92.9488049 L106.962637,92.3244335 L107.219801,91.3764 C107.249493,91.2665354 107.27996,91.1574445 107.31301,91.0535116 C107.756075,89.5999978 108.3081,88.5493208 108.69462,87.9203073 L108.814165,87.7253363 L108.862448,87.5422286 C108.8751,87.5043176 108.885944,87.4700172 108.894981,87.4370062 L109.113674,86.6506748 C110.016329,86.9052203 110.951776,87.0292693 111.894969,87.0292693 L111.894969,87.0292693 Z M136.561275,80.0043823 C136.652677,79.8220483 136.741755,79.6299142 136.828251,79.4284958 C137.325021,81.0715647 137.699406,82.688328 137.968447,84.273112 C137.784095,83.6159876 137.608779,83.0689857 137.466771,82.6532539 L136.561275,80.0043823 Z M89.155842,80.5428736 L113.293104,70.0985153 C112.494759,74.3948402 110.173055,78.5952269 106.907641,81.4921965 C105.422235,82.6511907 103.891387,83.1721449 102.356407,83.0421643 L101.036247,82.9310102 C98.5420672,82.7210811 96.8939976,82.5825898 95.0752599,82.3641501 C92.2934485,82.0239825 90.4951084,81.6595724 89.2970756,80.7860715 L89.155842,80.5428736 Z M116.568071,69.1215972 L116.661796,69.1182446 L117.551284,69.0713071 C116.870936,72.09671 115.102288,77.6745306 110.795567,81.969566 C113.941952,78.4141824 116.045481,73.7570581 116.568071,69.1215972 Z M123.490583,68.7582188 L124.99587,68.6787862 C124.606509,70.7785927 123.064558,76.8832992 117.781854,81.5971611 C116.340341,82.88072 114.780317,83.5484183 113.3308,83.8039953 C118.339042,78.5841373 120.154165,71.9264972 120.750341,68.9052207 C121.179981,68.8856205 121.609362,68.8655044 122.037452,68.8425515 L123.490583,68.7582188 Z M128.163427,68.5119261 L128.567247,68.4905205 C128.237013,69.636104 127.861337,70.6989022 127.470685,71.6673096 C127.910136,70.1568003 128.095263,69.0186959 128.163427,68.5119261 Z M131.82414,68.3187604 L133.503193,68.2303013 C133.948066,68.9769164 134.362214,69.7784638 134.608792,70.3845244 C135.768611,73.2422935 134.338976,78.0366196 133.477632,79.1778188 C130.846607,79.2322353 128.833189,78.7463552 127.567767,78.3102495 C128.760894,76.4123772 130.637984,72.939779 131.818202,68.3414554 C131.818718,68.3401659 131.820784,68.3321711 131.82414,68.3187604 L131.82414,68.3187604 Z M136.937984,68.0492568 L138.773247,67.9522871 L138.212443,72.3187603 C138.185849,72.5250788 138.157189,72.7306236 138.126722,72.934621 C138.119751,71.6118615 137.927652,70.3249499 137.479681,69.2211459 C137.335091,68.8660202 137.149706,68.4660202 136.937984,68.0492568 Z M140.183259,67.8780125 L144.954734,67.6263039 L146.273087,66.3491924 C146.990615,73.9234024 144.606427,82.4216614 144.579316,82.51631 L144.428271,83.0460327 L144.646447,83.5520289 C148.83982,93.2809777 146.367587,98.854414 139.760333,113.75061 L139.433197,114.487683 C133.521525,127.805026 129.044136,133.178075 128.029681,134.299932 C127.082099,134.623852 126.092948,134.928688 125.067907,135.212376 C125.488251,134.712311 125.835267,134.199094 126.108698,133.744162 L126.159046,133.653124 C126.490829,133.005541 126.616054,132.323401 126.53937,131.674013 L126.659689,131.58736 C134.734275,125.784136 139.969472,115.089875 142.219656,99.8014159 C144.043041,87.4011584 142.699902,77.9146338 141.251677,72.139779 L140.183259,67.8780125 Z M148.411988,60.6829127 L144.265865,63.9824613 L143.631476,64.5970326 L139.416156,64.8193407 L139.257107,64.1846535 L139.17371,64.8319777 L135.124669,65.0455174 L134.993763,64.8528675 L133.53082,64.9769165 C132.943423,65.0235961 132.348796,65.064344 131.754685,65.1053498 C131.332275,65.1344922 130.91064,65.1633768 130.489005,65.1945825 L129.395025,65.2758204 L129.375144,65.3488056 L128.357075,65.4024484 L128.357075,65.3609268 L126.710038,65.4648597 C126.618636,65.4707914 126.527235,65.4774968 126.435317,65.4842021 C126.351403,65.4906496 126.26723,65.4968391 126.182542,65.502255 L123.322755,65.6680835 L120.248923,65.8300435 C119.951739,65.8437121 119.654554,65.8576386 119.35737,65.8723388 L116.516173,66.0270777 L114.787546,66.0789152 L82.5886086,80.0116034 L84.1367561,82.6795595 L84.1367561,121.61676 C83.6291414,121.707025 83.0019815,121.8254 82.2813545,121.973176 C78.5829448,122.734491 73.0345556,124.156541 67.5964163,126.60941 L67.3317647,126.728817 L60.768146,133.410957 L61.3026132,134.412376 C63.0921747,137.765825 64.8982607,139.370209 66.8176951,139.314761 C67.2000844,139.303414 67.5829901,139.211602 67.9772565,139.058153 C67.7492688,140.08304 67.5501991,141.066921 67.4063836,141.874916 L66.2855516,142.566341 L66.1200475,143.14068 C65.9550598,143.71244 65.7774205,144.320306 65.5871295,144.971241 C64.9875967,147.021531 64.2414082,149.573175 63.3847115,152.76518 L63.218691,153.383104 L64.4936664,155.59587 L63.3854861,160.625399 L63.9669451,161.222949 C63.9883754,161.24487 64.4105271,161.677107 65.169109,162.343774 C65.1786623,163.654155 65.3320312,164.856476 65.6333467,165.998191 C66.805818,171.482136 71.5883958,176.69271 78.1744776,179.691807 L78.7822726,180.644225 L82.4566701,181.903799 L86.1073134,181.127268 L86.8630552,180.291936 C93.0633911,178.290131 96.9257558,173.021014 98.4860385,168.687552 C99.0680139,167.065631 99.3233705,166.13204 99.561686,165.00322 C100.08376,164.406959 100.316653,164.047965 100.363387,163.973174 L100.598346,163.597159 L100.598346,156.94803 C100.721764,156.885618 100.846215,156.821402 100.975829,156.754606 C101.116805,156.681879 101.265526,156.605283 101.42819,156.523013 L102.338592,156.062665 L102.274559,155.045257 C102.267588,154.934103 102.093305,152.266405 101.264235,147.718629 C100.960338,146.085103 100.736481,145.034684 100.446268,143.894258 C100.514174,143.563117 100.630362,143.020241 100.810325,142.557056 C101.865059,143.012762 103.039079,143.430042 104.379379,143.433652 C104.384026,143.433652 104.388932,143.433652 104.393579,143.433652 C105.413456,143.433652 106.453731,143.182975 107.657444,142.893098 C108.115485,142.782459 108.585403,142.669242 109.078817,142.56402 C109.387104,142.713601 109.704944,142.839713 110.028723,142.941582 C111.293887,143.330751 112.911489,143.32353 114.971124,142.920177 C116.220022,143.239713 117.701813,143.158991 119.112341,142.684458 C121.261571,141.97137 122.882272,140.507798 123.391952,138.833007 C125.522333,138.334748 127.54298,137.752414 129.409226,137.097869 L129.730165,136.985425 L129.974677,136.748933 C130.186915,136.54313 135.257382,131.529591 142.266132,115.741583 L142.593267,115.003995 C149.297861,99.8878118 152.133119,93.4947752 147.704013,82.8283667 C148.318779,80.4675673 150.554763,70.9611846 148.92425,63.140424 L148.411988,60.6829127 L148.411988,60.6829127 Z" id="path26" fill="#FFFFFF"></path>
                        <path d="M27.9810362,75.9551238 C26.9105526,77.5479026 25.8994543,79.1535764 24.9714436,80.7277865 L24.0718088,82.2635698 L24.0718088,122.925335 C24.1756814,122.940294 33.0587328,124.18362 41.5479826,128.019855 C49.7080315,131.701351 54.8895232,136.660989 54.8895232,136.660989 L54.8970109,136.656347 C54.9736953,136.582846 60.1329821,131.67814 68.233904,128.019855 C73.6601662,125.572144 79.2405718,124.178978 82.5927397,123.488843 C84.2346126,123.152544 85.3425348,122.979236 85.6319733,122.940294 L85.6859364,122.917856 L85.6859364,122.099804 L85.6859364,82.2635698 L84.8018708,80.7404235 C82.6492848,77.0767228 79.5780349,72.4618937 75.5400965,67.7325579 C74.6178178,66.6527385 73.6431252,65.5695664 72.6162769,64.4856206 C70.941613,62.7197921 69.1375925,60.9627322 67.1820106,59.2667941 C66.614236,58.7765298 66.039232,58.2870392 65.4487361,57.8045118 C65.3823795,57.7542216 65.3248016,57.7078 65.2633508,57.6585414 C64.7257853,57.224241 64.2042279,56.8188251 63.6989369,56.429399 C63.2651665,56.1029 62.8365599,55.7815589 62.4195722,55.4744022 C61.6772567,54.9395215 60.9313263,54.4116041 60.1593182,53.8947762 C59.3746584,53.3733062 58.5783797,52.8564784 57.7937199,52.3744668 L54.9460683,50.6104436 L53.474347,51.4679549 C52.1843962,52.2243701 50.8823102,53.0364913 49.6060438,53.8947762 C48.9293103,54.3466137 48.2347611,54.8330096 47.3514701,55.4744022 L47.1420726,55.6283674 C46.902466,55.8001276 46.683257,55.9718877 46.4537202,56.1418426 C46.0674579,56.4348148 45.6891997,56.7244344 45.318171,57.0127645 L44.2977776,57.8161172 L43.9982694,58.0734995 C43.3512284,58.6034802 42.7194211,59.1553821 42.0865809,59.7111526 C41.5363637,60.1960011 40.9938924,60.7027709 40.4506465,61.2085091 C39.9055933,61.7209527 39.3602818,62.2501596 38.8198761,62.7822035 C38.1782572,63.4223066 37.5454171,64.0706625 36.9169663,64.7386186 C33.7496672,68.1008365 30.7863435,71.8045114 28.0626263,75.8346854 L27.9810362,75.9551238 Z M68.8910147,144.486908 L66.8623631,152.656605 C78.3797439,157.465631 87.3218708,157.689745 87.3218708,157.689745 C94.6608542,156.547256 99.1792967,154.139519 99.2167352,154.116308 C98.9285877,149.986586 98.4021246,146.829139 97.6776246,144.472466 C92.8586411,139.103285 87.1228011,137.058411 87.1228011,137.058411 C86.533338,137.119274 85.9508462,137.20077 85.3753257,137.29645 C76.5801128,138.733201 70.7082032,143.233265 68.8910147,144.486908 L68.8910147,144.486908 Z M67.9021213,161.151511 C69.5359901,162.466792 71.6697277,164.015212 74.2380104,165.307797 C76.8775555,166.635973 79.9805636,167.692839 83.4997848,167.947127 C83.7510102,167.616759 84.1716126,166.947771 84.6007356,165.801414 C81.7414652,165.615986 73.423658,164.536424 66.4877196,158.215083 C66.3924451,159.136811 66.8899901,160.182588 67.9021213,161.151511 Z M82.3753381,179.038809 C83.8863053,177.758345 85.9366454,173.466147 86.5397929,169.236617 C86.5446987,169.186327 86.5524446,169.139906 86.560965,169.089615 C86.17367,169.120305 85.7863749,169.136295 85.4055348,169.1479 C85.3964979,169.182717 85.3890102,169.213406 85.3820388,169.251833 C84.5281823,173.400898 82.2563094,177.128816 80.7721947,178.533071 L82.3753381,179.038809 Z M85.0066208,178.672078 C86.3541495,176.827591 87.7657109,173.084457 88.1429363,168.888971 C87.8646003,168.927913 87.5947847,168.977688 87.3058626,169.013535 C87.2890798,169.128816 87.2790101,169.236617 87.2588708,169.352414 C86.6113134,173.412246 84.8826864,177.380008 83.391084,178.962213 L85.0066208,178.672078 Z M69.6057032,155.366598 C69.022695,155.131395 68.0296704,154.726237 67.5664655,154.517856 C66.8089164,157.153317 68.265404,158.461376 69.1590229,159.148416 C72.0818097,161.020757 76.1120022,163.127269 82.2291988,163.840873 C83.2330676,163.98349 84.2028545,164.034296 85.1424323,164.034296 C85.4001126,162.605799 85.6836126,161.232233 85.9064364,159.152543 C85.5356659,159.117727 85.1646372,159.078784 84.8018708,159.041131 C83.9286495,160.436875 81.720293,162.332942 77.5834653,161.016115 C72.1009162,159.271692 69.323236,156.76389 69.323236,156.76389 L69.6057032,155.366598 Z M88.3949363,164.489744 C88.3985511,164.246289 88.407588,164.011086 88.4112027,163.775367 C88.4148175,163.173432 88.3758298,162.21302 88.3185101,161.676076 C88.1943175,160.591614 88.0290716,160.00077 87.7228503,159.777946 C87.7187191,159.774077 87.715879,159.774077 87.7065839,159.769951 C87.6694035,159.742356 87.6265429,159.723529 87.5841986,159.708571 C87.511129,159.689487 87.4408995,159.669113 87.3593093,159.672723 C87.3079281,159.672723 87.2668749,159.692324 87.2240142,159.704445 C86.9079814,159.801157 86.7440265,160.185941 86.6324855,160.746611 C86.5650962,161.1087 86.5144896,161.533974 86.454588,162.000254 C86.4166331,162.58723 86.312838,163.335135 86.2423503,164.006701 C86.2201454,164.242936 86.1938093,164.489744 86.1625675,164.736553 C86.0430224,165.754993 85.8715798,166.851575 85.6472069,167.994064 C85.999129,167.978848 86.3541495,167.963374 86.7143339,167.931911 C86.7793995,167.924432 86.8504036,167.924432 86.9185675,167.916953 C87.101629,167.900705 87.2756536,167.877752 87.4470962,167.858926 C87.7187191,167.828236 87.9789814,167.792904 88.2366617,167.753703 C88.3259978,166.612762 88.3724732,165.509216 88.3949363,164.489744 L88.3949363,164.489744 Z M89.3964814,163.594064 C93.4284813,162.745837 96.4741697,160.877108 97.9559607,159.503542 L98.0860918,156.323658 C97.9004484,156.393033 97.7153213,156.462665 97.5322599,156.53204 C97.4294976,158.076076 97.4718418,158.318242 96.0507271,159.372014 C94.1596944,160.780912 91.8958256,161.719403 89.7308461,158.808765 C89.3688543,158.885876 89.0370715,158.955509 88.7471166,159.013278 C89.0551453,160.684716 89.2598953,162.251189 89.3964814,163.594064 Z M89.6513215,167.473626 C90.2666043,167.321982 90.8369608,167.152285 91.3745264,166.966856 C92.9624362,166.422949 94.2332804,165.731782 95.3432681,164.975882 C96.3613378,164.238294 97.5121205,163.131137 97.8247967,162.582588 C97.8358992,162.568146 97.8428705,162.559377 97.8511328,162.54545 L97.9030303,160.691163 C96.7951082,161.97369 94.2887927,164.158345 89.5444281,165.261376 C89.6118174,166.25712 89.6381535,167.021272 89.6513215,167.473626 L89.6513215,167.473626 Z M99.6401658,154.624998 C99.6401658,154.592396 99.6401658,154.564853 99.6401658,154.532814 C99.6401658,154.564853 99.6231369,154.600266 99.6231369,154.632868 C99.6401658,154.624998 99.6401658,154.624998 99.6401658,154.624998 L99.6401658,154.624998 Z M94.001678,136.614568 C94.3688337,138.138746 95.0868788,139.879042 95.3688296,140.488971 C96.103141,141.098643 96.8707599,141.77743 97.5671164,142.561183 C97.6048131,141.299545 97.8756615,140.060345 98.02335,139.45841 C97.3417107,139.072079 96.9433132,138.829913 96.0576984,138.19961 C95.6512968,137.907153 95.0835222,137.462279 94.4429362,136.957057 C94.2575509,136.795354 94.1031493,136.664342 94.001678,136.614568 L94.001678,136.614568 Z M71.0157154,141.001415 C71.8966826,140.485619 72.4030064,140.118372 73.4195269,139.659055 C75.2617604,136.324432 77.3288833,134.641905 79.2922111,133.900964 C77.1610554,132.913214 75.061658,133.349578 73.169076,134.221015 L71.0157154,140.894129 C71.1468794,140.813407 70.8850679,141.078784 71.0157154,141.001415 L71.0157154,141.001415 Z M99.53535,131.134233 C101.954395,132.69658 104.596522,134.156025 107.702887,134.850029 C107.961083,134.464729 108.274792,134.074271 108.617678,133.692582 C108.181325,133.526238 107.742649,133.330493 107.309395,133.075432 C101.884424,129.8401 97.5121205,126.599868 92.5681698,128.138746 C87.3017314,129.779236 82.1202398,127.841905 79.5393054,126.568146 C77.811453,127.012763 75.8522563,127.58246 73.8109531,128.297353 C89.1832109,133.336941 94.3078993,127.757315 99.53535,131.134233 Z M112.761993,139.844742 C112.701833,139.755767 112.654067,139.662924 112.606559,139.566728 C111.946866,138.10754 113.064858,136.139004 115.148247,134.919661 C115.386304,134.780654 115.627202,134.649126 115.885399,134.534104 C116.91612,134.066792 117.963624,133.855316 118.895972,133.870274 C120.272161,133.900964 121.397899,134.42656 121.839673,135.394452 C121.894669,135.514374 121.931849,135.637908 121.964124,135.760667 C123.152862,135.228365 124.115419,134.054671 124.780017,132.94803 C125.174026,132.179494 125.023239,131.519017 124.674673,131.0646 C124.501681,130.832492 124.273694,130.652221 124.045448,130.535909 C123.832177,130.44255 123.609612,130.365954 123.368198,130.300448 C122.110522,129.960538 120.453415,129.979107 118.638292,130.370081 C117.572714,130.597289 116.454206,130.948288 115.321755,131.426431 C115.183362,131.485748 115.040837,131.54687 114.898055,131.608765 C113.285874,132.335006 111.879477,133.229655 110.756321,134.186715 C110.367477,134.511151 110.024075,134.843581 109.710883,135.178591 C109.073911,135.857379 108.577657,136.549062 108.261624,137.216502 C107.200952,140.693485 111.8818,139.999481 112.761993,139.844742 L112.761993,139.844742 Z M112.774387,139.886715 C112.771546,139.878939 112.766899,139.86235 112.7638,139.848352 C112.698735,139.886715 112.635735,139.918338 112.571186,139.948407 C112.641415,139.918338 112.706481,139.918338 112.774387,139.886715 L112.774387,139.886715 Z M113.847194,139.497353 C113.872239,139.597418 113.922846,139.682008 113.984813,139.75912 C114.032579,139.821015 114.078022,139.879042 114.1356,139.937069 C114.754755,140.554993 116.14153,140.700706 117.577878,140.218178 C119.006997,139.740035 120.016546,138.802576 120.159845,137.941196 C120.190054,137.752414 120.19212,137.567501 120.132477,137.392646 C119.806374,136.417018 118.129645,136.092582 116.391723,136.675432 C116.136108,136.764665 115.903214,136.864987 115.670063,136.980267 C114.356358,137.628881 113.56421,138.667695 113.847194,139.497353 L113.847194,139.497353 Z M125.754968,130.331396 C134.228468,124.24139 138.713603,112.983621 140.687001,99.5765288 C142.48121,87.3740791 141.140394,78.0647305 139.748972,72.5157944 C139.437845,74.9384894 138.881173,77.007864 138.234648,78.7295918 C143.760574,96.603995 135.414624,111.432106 133.241124,114.851319 C133.369189,118.100835 132.581431,121.689746 129.83112,125.039842 C128.257153,126.954478 126.638001,128.374981 125.005939,129.40451 C125.443841,129.655445 125.706944,129.972144 125.754968,130.331396 L125.754968,130.331396 Z M134.459554,92.3063807 C134.910882,93.7310099 135.088779,95.4702749 135.234144,96.6594431 C135.60982,99.7230149 135.146357,102.246548 135.725234,102.161957 C136.487173,102.054156 137.097033,99.8857486 137.503435,96.6362323 C138.257369,90.670275 136.730911,85.2897464 136.000472,83.1530605 C135.023197,84.6380379 134.25687,85.3632474 134.25687,85.3632474 L135.745374,89.1687921 C135.34207,90.237264 134.907784,91.2874252 134.459554,92.3063807 Z M130.603644,66.7378449 C130.590476,66.7860718 130.584021,66.8314619 130.57137,66.8802046 C130.453374,67.4060589 130.317821,67.9571872 130.317821,67.9571872 C128.577833,74.734492 125.235993,78.974853 125.235993,78.974853 C125.235993,78.974853 128.415169,80.9297207 133.923021,80.7125705 C135.277005,80.660733 137.663775,73.7931639 136.043849,69.8021904 C135.647517,68.8275934 134.907784,67.4826547 134.22098,66.4711782 L133.661726,66.5186315 C132.641591,66.6001273 131.621714,66.6622807 130.603644,66.7378449 L130.603644,66.7378449 Z M119.434571,67.4176643 C119.146681,69.4517068 117.37003,79.3237891 109.472825,85.1437761 C112.23837,85.9471287 115.863194,85.3789792 118.813866,82.7509973 C125.83062,76.4905203 126.655042,68.0825257 126.655042,68.0825257 C126.655042,68.0825257 126.762968,67.4676966 126.805312,67.0444858 C126.805312,67.0292698 126.807894,67.0233381 126.807894,67.0091537 C126.632321,67.0202433 126.457005,67.0354593 126.278849,67.0465489 L121.954571,67.2974838 C121.116981,67.3421002 120.275259,67.3758848 119.434571,67.4176643 L119.434571,67.4176643 Z M99.6156491,121.311925 C94.5957886,116.322112 91.6841043,112.354865 91.6841043,112.354865 L92.4290018,97.7851684 C90.9608953,96.6362323 89.1132396,96.8902619 88.0011863,97.571113 L88.0011863,113.550739 C91.2916453,117.900706 96.1656246,120.177689 99.6156491,121.311925 L99.6156491,121.311925 Z M105.288747,126.521725 C104.526292,125.88059 103.797145,125.240745 103.09201,124.608121 C94.7677476,123.577044 89.7370428,121.215213 88.0011863,120.277753 L88.0011863,122.917856 L88.0011863,124.58491 C88.9704568,125.645387 90.4894281,126.475303 92.8121657,125.943517 C98.2787066,124.681106 101.272239,125.603607 106.662354,129.8401 C108.206112,131.045516 109.515169,131.64745 110.618702,131.870532 C111.17744,131.446032 111.773358,131.045516 112.400776,130.689358 C109.682739,129.740551 107.238907,128.17382 105.288747,126.521725 L105.288747,126.521725 Z M105.863235,103.609024 C109.299317,105.403737 121.131956,110.544162 128.177112,109.263182 C128.553304,107.541454 128.645997,106.485362 128.645997,106.485362 C128.645997,106.485362 124.614771,106.314633 119.24712,105.134233 C115.627202,104.338876 111.04421,102.64139 107.753235,102.745323 C106.667001,102.779623 106.081153,103.285362 105.863235,103.609024 L105.863235,103.609024 Z M93.526596,95.2701459 C96.7021574,93.3944529 99.3417024,96.0263032 99.3417024,96.0263032 C100.402116,95.7023832 101.307354,95.621919 102.077038,95.6758197 C103.35537,95.7689209 104.32619,96.3043174 104.872792,96.7063806 C104.927272,96.7430021 104.982784,96.786329 105.030034,96.8247558 C105.055338,96.8438403 105.077542,96.8634405 105.102588,96.8820092 C105.0951,96.7138596 105.085547,96.543131 105.077542,96.3783341 C105.04062,95.0233374 105.140542,93.7872317 105.32851,92.6883278 C104.70419,92.614311 101.430514,92.2328797 98.1163008,91.9045754 C95.0835222,91.6002556 90.2260674,91.303157 88.8312888,91.2149558 C88.8359363,91.2572511 88.8359363,91.303157 88.8359363,91.3449365 C88.797465,92.6609906 89.1292478,93.3168255 89.848842,94.143389 C90.7414281,95.1695656 93.526596,95.2701459 93.526596,95.2701459 L93.526596,95.2701459 Z M97.6148828,106.129204 L98.4571205,98.4456455 C98.0003705,98.0103135 97.3861205,97.4272058 96.4741697,97.2992883 C95.8328091,97.214182 94.7979566,97.5012226 94.2609075,97.6778828 L92.521178,110.050545 C93.3063542,108.619469 94.8085427,106.90883 97.6148828,106.129204 Z M98.2513377,110.699417 C97.4640959,110.699417 96.8253173,111.33952 96.8253173,112.119662 C96.8253173,112.906509 97.4640959,113.54326 98.2513377,113.54326 C99.0359975,113.54326 99.6755508,112.906509 99.6755508,112.119662 C99.6755508,111.33952 99.0359975,110.699417 98.2513377,110.699417 Z M104.353817,106.052609 C107.046292,107.966213 119.182571,115.129333 126.865989,113.793679 L126.880448,113.783105 C127.15646,113.720436 127.469911,113.327141 127.589972,112.96041 C127.713132,112.574078 127.745923,111.799352 127.570349,111.640229 C119.760931,112.516051 107.910477,107.272209 104.598846,105.512054 C104.571735,105.565955 104.546948,105.61934 104.518805,105.681751 C104.461227,105.801158 104.408297,105.928302 104.353817,106.052609 L104.353817,106.052609 Z M104.528874,100.243969 C104.390739,99.9466126 104.196059,99.6226925 103.899907,99.2685984 C103.528362,98.8905198 102.854469,98.3881342 101.801543,98.2839434 C101.149596,98.2179215 100.588276,98.3066384 100.139014,98.4415191 L98.5973213,105.905607 C99.1289483,105.805284 99.7031778,105.735652 100.32001,105.709088 C100.32001,105.709088 100.615645,106.102383 101.140043,106.781944 C101.54851,104.971758 102.205104,102.825787 103.234793,101.351899 C103.549018,100.904188 103.997247,100.541584 104.528874,100.243969 L104.528874,100.243969 Z M88.9164937,89.6660197 C90.4091289,89.7364259 95.2962763,89.9904555 98.0556246,90.2493852 C101.861186,90.6050267 105.489108,90.948547 105.724583,90.9715 C105.760215,90.839714 105.797137,90.7087018 105.836899,90.5838791 C106.321018,88.9949688 106.93785,87.8215323 107.373944,87.1112809 C107.382206,87.080591 107.3946,87.050159 107.402346,87.0230797 C107.176424,87.1112809 106.772862,87.1584762 106.253887,87.1816871 C104.892415,87.2466774 102.74112,87.1112809 100.888817,86.8750462 C98.5322557,86.5787212 96.3009197,86.386845 94.4617845,86.2630539 L94.472887,86.2860069 C89.8901535,85.8927122 89.1483543,88.2958069 88.9164937,89.6660197 L88.9164937,89.6660197 Z M130.330214,110.659959 C130.197243,111.246935 130.061948,111.810442 129.939562,112.308701 C130.26773,113.438553 130.588411,115.546354 130.175038,117.577044 C129.140185,122.6548 125.645493,123.659313 123.210698,123.688972 C122.323276,123.697482 121.551526,123.577044 121.034874,123.464858 C118.327165,122.99471 114.599063,120.868598 111.071579,117.055058 C111.071579,117.055058 116.798124,120.532557 123.922804,120.215342 C124.812292,118.741454 125.349341,117.53707 125.945517,116.148804 C118.076198,116.78865 106.952825,110.626174 103.59885,108.298643 C103.486018,108.765697 103.413206,109.217019 103.35537,109.660603 C105.105686,111.91128 107.412415,114.844356 109.743157,117.699288 C114.493718,123.526754 122.132468,129.301093 127.969263,124.336554 C132.546316,120.439971 131.947042,114.715922 130.330214,110.659959 L130.330214,110.659959 Z M131.168062,106.801029 C131.688845,107.916438 132.238546,109.302125 132.647013,110.876593 C134.554312,105.558476 132.904693,100.575368 131.683939,97.9922606 C130.73171,99.7763998 129.869333,101.236103 129.292521,102.193679 C130.894116,102.624885 131.881976,102.921467 131.881976,102.921467 C131.676193,104.199868 131.428066,105.519791 131.168062,106.801029 L131.168062,106.801029 Z M115.130948,67.6167617 L115.031026,66.2836863 L144.293234,64.5642795 L146.893533,62.5145052 L147.407603,63.4560913 C149.187869,71.9948402 146.069369,82.9400366 146.069369,82.9400366 C150.601754,93.4558326 147.811164,99.4148267 140.849923,115.114375 C133.882484,130.809281 128.896189,135.637908 128.896189,135.637908 C126.607792,136.440229 124.268788,137.061763 122.179976,137.521338 C122.122399,137.559507 122.059915,137.598191 122.002595,137.641002 C122.014989,137.841647 122.000013,138.04616 121.945017,138.255058 C121.653513,139.4352 120.385767,140.631589 118.617636,141.218049 C117.309612,141.658281 116.008559,141.66576 115.040837,141.326109 C113.310661,141.696966 111.671628,141.827978 110.49296,141.465116 C110.059964,141.329203 109.673186,141.148417 109.319456,140.936425 C107.288739,141.326109 105.689727,141.889358 104.38351,141.886263 C102.895006,141.882395 101.615641,141.218049 100.279731,140.624626 C99.2670836,141.457637 99.0163746,143.213665 98.8560344,143.931395 C99.186268,145.193291 99.4152885,146.250415 99.7401,147.99587 C100.562457,152.506508 100.728477,155.142485 100.728477,155.142485 C100.071883,155.4744 99.6306246,155.721208 99.0491656,155.96389 L99.0491656,163.153832 C99.0491656,163.153832 98.7979402,163.555895 98.1284361,164.281105 C97.8650754,165.592775 97.632182,166.481234 97.0285181,168.163761 C95.4217599,172.625657 91.5877969,177.299028 85.999129,178.939003 L85.294252,179.718371 L82.553752,180.301221 L79.7975021,179.356282 L79.2305021,178.468081 C73.0410105,175.773819 68.233904,170.83378 67.1406991,165.639196 C66.7735434,164.266147 66.6857565,162.91115 66.7273262,161.641775 C65.6640721,160.746611 65.0777074,160.144161 65.0777074,160.144161 L66.1357975,155.343387 L64.8809615,153.165954 C66.0015352,148.991099 66.9178754,145.965438 67.6088098,143.568791 L68.7978057,142.835328 C68.8068425,142.831718 68.8094245,142.823207 68.817945,142.823207 C68.9460106,141.998191 69.1925884,140.716695 69.521531,139.250545 L70.1321663,135.985296 C68.7216376,136.919403 67.5582032,137.744935 66.7735434,137.768146 C65.142773,137.81431 63.5597689,135.352157 62.6697648,133.684587 C58.8265067,136.14313 56.5313961,138.300448 56.4952486,138.331138 L54.8531175,139.798062 L54.4203798,139.40812 L53.6837446,138.70999 L53.2889618,138.331138 C53.2466175,138.292969 49.6336709,134.893356 43.838962,131.747772 C42.8224416,131.191228 41.7405973,130.64371 40.5923965,130.126883 C39.2523556,129.520306 37.8999212,128.983878 36.5712409,128.505735 C29.8565771,126.088972 23.8201703,125.225787 23.747049,125.217534 L23.255365,125.148159 L21.7540802,124.935651 L21.7540802,124.476593 L21.7540802,122.925335 L21.7540802,82.2563487 L21.7540802,81.6247562 L22.06624,81.0872965 L22.9663912,79.552029 C23.9290777,77.9185022 24.9694297,76.2705332 26.0530813,74.6529962 L26.1499051,74.5114101 C28.6007083,70.8843309 31.247741,67.5079287 34.0602778,64.3925193 C34.0602778,64.3925193 36.9311671,61.3776903 37.4550482,60.8611203 L42.0865809,56.6429386 C42.2309129,56.5225002 42.3700809,56.3950985 42.5131219,56.2808497 L42.7945563,56.0363622 L42.830962,56.0103145 L42.8611711,55.9829773 L43.8802735,55.1832352 C44.5484866,54.6612494 45.1485358,54.2076066 45.7627857,53.7557691 L45.9321628,53.6288832 C45.9321628,53.6288832 50.1123676,50.6831709 54.8804863,48.1121845 C59.6488633,50.6831709 64.2354697,53.9329451 64.2354697,53.9329451 C64.7518631,54.3148923 65.2723877,54.7123133 65.8032402,55.1277871 L67.7327442,56.6942603 L67.7389409,56.6983867 C69.4665351,58.1549953 71.0944654,59.6479676 72.6162769,61.1703402 L74.8109489,63.5045761 L76.0430637,64.9547373 C76.0430637,64.9547373 78.8160964,68.0440989 81.0102521,70.9116681 C83.2044078,73.7792374 85.0995716,76.7912295 85.0995716,76.7912295 C85.7187274,77.7604107 86.282629,78.6852334 86.7928257,79.5556395 L87.6879937,81.0989019 L88.0011863,81.6389406 L88.0011863,81.731526 C89.5165428,83.0483538 91.6027723,83.4986439 94.8903911,83.9004492 C97.0460754,84.1593789 98.9861656,84.3094756 102.225243,84.5841372 C104.541526,84.7806555 106.469223,83.807348 107.900407,82.6805911 C112.090165,78.982332 114.90012,73.2869098 115.130948,67.6167617 L115.130948,67.6167617 Z" id="path28" fill="#713907"></path>
                        <path d="M30.1999788,7.59479027 C33.2211385,22.2215597 36.2417819,36.8170204 39.2712039,51.3823327 C40.2061342,51.4891025 41.1454539,51.5958723 42.0839989,51.6995474 C42.0839989,53.3467427 42.0839989,54.9998697 42.0839989,56.6429386 L37.4522081,60.8611203 C33.5691877,60.393551 29.693655,59.8803338 25.8261264,59.3127 C25.8261264,56.0783996 25.8261264,52.8489993 25.8261264,49.6136674 C26.7915239,49.7583482 27.7641509,49.8973553 28.7360034,50.0312044 C28.4414009,48.5756274 28.1429255,47.1177293 27.8493559,45.6580259 C27.1625526,42.3316559 26.4747166,39.0021912 25.7879133,35.6675684 C24.8302617,31.0323654 23.8695892,26.4012888 22.9124281,21.7575236 C21.965879,26.1067692 21.0193298,30.4492578 20.0727806,34.7912306 C19.3773536,37.9099926 18.680429,41.0274651 17.9809741,44.146485 C17.6849516,45.5151504 17.3914594,46.8791736 17.0974766,48.2491284 C18.0914307,48.4154727 19.0843778,48.5756274 20.0727806,48.733719 C20.0727806,51.9664719 20.0727806,55.1987091 20.0727806,58.4296568 C14.6703242,57.5651823 9.28196534,56.6037381 3.90723925,55.5419715 C3.90723925,52.3094764 3.90723925,49.0751761 3.90723925,45.8480969 C4.81043717,46.0263045 5.71461625,46.2032226 6.62739328,46.3783354 C9.63295796,32.689103 12.6460878,18.9756539 15.6687967,5.22857498 C17.8634688,5.66679547 20.227079,6.08791732 22.8070322,6.51040603 C25.1757031,6.89181156 27.6451223,7.2554995 30.1999788,7.59479027" id="path30" fill="#FFFFFF"></path>
                        <path d="M54.8804863,48.1237899 L58.4115846,32.8740159 L51.5853799,32.3430037 L54.8804863,48.1237899 Z M71.3637646,20.9441387 C68.9762196,32.0077361 66.5533016,43.1847829 64.1654984,54.2109593 C64.1654984,54.2109593 59.6488633,50.9188898 54.8804863,48.3442928 C50.1123676,50.9188898 45.9711505,53.7980644 45.9711505,53.7980644 C43.5066628,41.9917462 41.0013801,30.0023203 38.545413,18.152701 C37.6295892,18.0490518 36.7127327,17.937614 35.8031057,17.822772 C35.8031057,14.6429655 35.8031057,11.4643711 35.8031057,8.28598303 C40.6084047,8.84097979 45.6664784,9.32714355 50.9398881,9.73665998 C51.325634,9.77101201 51.7085397,9.81433889 52.0958348,9.84969672 C52.0958348,13.0749191 52.0958348,16.3087294 52.0958348,19.5425398 C51.0942897,19.4547771 50.097134,19.3645127 49.0955889,19.2699157 C49.3932897,20.7174721 49.7578635,22.556002 50.0547897,24.0007473 C53.3630642,24.3068982 56.5466297,24.5684327 59.8567116,24.7995352 C60.1544124,23.4063695 60.5112403,21.6110633 60.8122977,20.2148802 C59.8345067,20.1482909 58.8567157,20.0799995 57.8789248,20.0054412 C57.8789248,16.7770724 57.8789248,13.5417663 57.8789248,10.3125981 C63.3242935,10.7138618 68.7717278,11.0171757 74.223035,11.2226948 C74.223035,14.4523787 74.223035,17.7144805 74.223035,20.9441387 L71.3637646,20.9441387 L71.3637646,20.9441387 Z" id="path32" fill="#FFFFFF"></path>
                        <path d="M80.006125,20.9441387 C80.006125,17.7109473 80.006125,14.5345709 80.006125,11.3041906 C90.1307928,11.6306896 100.269661,11.6121725 110.39562,11.2580526 C110.39562,14.4887424 110.39562,17.7170853 110.39562,20.9514115 C106.923133,21.0752026 103.448579,21.1556152 99.9740262,21.1989163 C97.7824525,21.2263309 95.5857148,21.2379105 93.3962067,21.2322625 C93.3962067,32.2780134 93.3962067,43.3274006 93.3962067,54.3731772 C94.3830345,54.3731772 95.3729607,54.3731772 96.3665017,54.3693088 C96.3665017,57.6030933 96.3665017,60.7179869 96.3665017,63.9507399 L80.006125,63.9507399 C80.006125,60.7179869 80.006125,57.3722745 80.006125,54.1410689 C80.9955349,54.1717588 81.9859775,54.1998697 82.9784856,54.2261753 C82.9784856,43.1809145 82.9784856,31.9883938 82.9784856,20.9441387 L80.006125,20.9441387" id="path34" fill="#FFFFFF"></path>
                        <path d="M129.462931,53.1956144 C132.980345,52.9519007 136.492853,52.6635706 139.999681,52.3306241 C139.999681,47.6667944 139.999681,42.9996121 139.999681,38.334235 C136.492853,38.6666657 132.980345,38.9547379 129.462931,39.2056728 C129.462931,43.8684709 129.462931,48.5348795 129.462931,53.1956144 Z M132.463435,19.8370079 C131.463956,19.9136552 130.462927,19.9871046 129.462931,20.0562213 C129.462931,23.2098253 129.462931,26.3546093 129.462931,29.5092191 C134.191288,29.1736937 138.916804,28.767762 143.634574,28.2800767 C145.873656,29.917214 148.71382,31.9154086 150.947222,33.5141191 L150.947222,54.7600244 C148.71382,56.8737574 145.873656,59.5935511 143.634574,61.6709204 C134.487181,62.6088959 125.309579,63.2647308 116.12862,63.6399726 C116.12862,60.406188 116.12862,57.1708561 116.12862,53.94094 C117.116481,53.8968394 118.106407,53.8553178 119.096849,53.809154 C119.096849,42.76183 119.096849,31.7160534 119.096849,20.6662019 C118.106407,20.7174721 117.116481,20.7579879 116.12862,20.7971626 C116.12862,17.5719402 116.12862,14.3321724 116.12862,11.1028237 C120.387833,10.9294388 124.636976,10.6777818 128.891025,10.3850416 C130.092415,10.3154092 131.278312,10.239355 132.463435,10.1598708 C132.463435,13.3862279 132.463435,16.6101608 132.463435,19.8370079 L132.463435,19.8370079 Z" id="path36" fill="#FFFFFF"></path>
                        <path d="M162.993131,49.5677615 C166.911525,48.9926487 170.824754,48.369051 174.731012,47.6931 C174.731012,36.6426812 174.731012,25.5973946 174.731012,14.5532169 C170.824754,15.2280847 166.911525,15.8581041 162.993131,16.42891 C162.993131,27.479303 162.993131,38.5245638 162.993131,49.5677615 Z M178.453692,4.22921975 C180.642426,5.64564783 182.832967,7.04786572 185.011631,8.43295917 C185.011631,22.2759504 185.011631,36.1194059 185.011631,49.9618298 C182.817991,52.2354597 180.612217,54.4930999 178.408766,56.7347504 C172.045766,57.8932287 165.662885,58.9147632 159.260381,59.7952274 C157.066742,58.2589283 154.876201,56.70535 152.679463,55.135782 C152.679463,41.2938739 152.679463,27.4460341 152.679463,13.6067566 C154.745037,11.6361312 156.80364,9.64407455 158.864049,7.64435829 C161.551877,7.29026416 164.149078,6.9124692 166.638869,6.51040603 C171.165832,5.77310108 175.076996,5.01299794 178.453692,4.22921975 L178.453692,4.22921975 Z" id="path38" fill="#FFFFFF"></path>
                        <path d="M119.211747,80.3584764 C118.753448,80.1268839 118.146686,80.1268839 117.512813,80.6205009 C116.832464,81.1602817 116.783149,81.7165679 116.850538,82.1568 C116.868354,82.2615066 116.948395,82.4497723 117.033083,82.5072836 C116.710337,82.4417774 116.421932,82.2867807 116.229317,82.0247562 C115.727641,81.3578316 115.97835,80.2496434 116.820329,79.6170193 C117.665665,78.9838794 118.838653,79.0468065 119.337231,79.7178575 C119.53346,79.9767872 119.5678,80.2955492 119.528038,80.6401011 C119.490083,80.5397788 119.31012,80.4087665 119.211747,80.3584764" id="path40" fill="#713907"></path>
                        <path d="M86.1499159,138.926625 C86.168506,144.412891 86.1473339,150.406959 86.168506,155.891421 C85.5330839,155.82901 84.7133094,155.732814 83.7393913,155.586585 C83.7621127,154.691163 83.7858668,153.776398 83.8060061,152.865244 C83.9175471,148.388133 84.0365758,143.761699 84.14192,139.370209 L84.1452766,139.365825 C84.1452766,139.349577 84.1452766,139.335135 84.1494077,139.319403 C84.4145758,139.256992 84.6859405,139.199481 84.9604036,139.14558 C85.3154241,139.076205 85.6673462,139.002704 86.029338,138.945709 C86.0698749,138.936683 86.1111864,138.933072 86.1499159,138.926625" id="path42" fill="#713907"></path>
                        <path d="M81.3102767,155.169564 C80.5627972,155.026431 79.7670349,154.86086 78.9224734,154.664342 C79.2457357,150.079171 79.5628013,145.17008 79.8842562,140.58233 C79.8842562,140.58233 79.8842562,140.58233 79.8876128,140.578204 C80.3980677,140.392775 80.9265963,140.210957 81.4680348,140.037134 C81.6299242,139.99097 81.7801947,139.937069 81.942084,139.890648 L81.942084,139.898127 C81.9456988,139.898127 81.9456988,139.898127 81.9506045,139.898127 C81.7690922,144.112698 81.5886127,148.550867 81.409166,152.842034 C81.3758586,153.62166 81.3441004,154.401544 81.3102767,155.169564" id="path44" fill="#713907"></path>
                        <path d="M69.6792892,151.819468 L70.830072,145.432363 C71.3728015,145.053768 72.1094367,144.54184 73.0288752,143.966212 C72.6273793,146.891292 72.2400843,149.685618 71.8385884,152.61431 C71.1316458,152.367501 70.4099859,152.101092 69.6792892,151.819468" id="path46" fill="#713907"></path>
                        <path d="M74.1897277,153.382846 C74.6067153,149.816115 74.980326,146.15783 75.3965391,142.592131 C76.0897973,142.221273 76.84683,141.854542 77.6511128,141.488327 C77.6542112,141.488327 77.6542112,141.488327 77.6578259,141.488327 C77.2865391,145.587101 76.8775555,149.963891 76.5070432,154.053897 C75.7574981,153.85351 74.9854899,153.629654 74.1897277,153.382846" id="path48" fill="#713907"></path>
                        <path d="M90.3314117,140.31489 C90.5170551,145.259055 90.6174936,150.434812 90.8026207,155.374077 C90.1196904,155.532169 89.4052601,155.682781 88.6508093,155.821788 C88.5705101,150.434812 88.4964076,144.667695 88.4148175,139.280719 C88.4576781,139.300835 88.4964076,139.319403 88.5343625,139.342614 C89.048174,139.593549 89.6513215,139.914374 90.3314117,140.31489" id="path50" fill="#713907"></path>
                        <path d="M94.8279075,154.23881 C94.2296657,154.440744 93.5676493,154.644741 92.8508952,154.849255 C92.6105141,150.441776 92.3985346,145.911021 92.1591862,141.496064 C92.7656903,141.920048 93.3985305,142.403091 94.0391165,142.939004 C94.3174526,146.659958 94.5418255,150.537972 94.8279075,154.23881" id="path52" fill="#713907"></path>
                        <path d="M97.8302189,153.089874 C97.5369074,153.21676 97.1813705,153.366856 96.7651574,153.529074 C96.4813992,150.531524 96.2084853,147.651834 95.9247271,144.663826 C96.1328337,144.872208 96.3442968,145.084974 96.5518869,145.309087 C97.130764,147.327398 97.5596287,149.936553 97.8302189,153.089874" id="path54" fill="#713907"></path>
                        <polygon id="path56" fill="#FCD006" points="53.7387405 34.3014821 56.1905765 34.4747896 54.903724 40.0085096"></polygon>
                        <path d="M34.8015606,19.7903541 C35.4855237,19.8754863 36.1650975,19.9595095 36.8495769,20.0446159 C38.9004335,29.947388 40.9611014,39.8352021 43.0166055,49.7070265 C42.3310932,49.632236 41.6479047,49.5607982 40.9680727,49.4836867 C38.9074048,39.6005148 36.8521589,29.7016111 34.8015606,19.7903541" id="path58" fill="#FCD006"></path>
                        <path d="M166.924693,45.032623 C168.220582,44.8330098 169.511565,44.6243703 170.805131,44.4118622 C170.805131,35.9956148 170.805131,27.5718884 170.805131,19.1520563 C169.511565,19.3701607 168.220582,19.5741581 166.924693,19.7781555 C166.924693,28.1949703 166.924693,36.6166335 166.924693,45.032623 L166.924693,45.032623 Z M164.746029,17.9260344 C167.4935,17.5180395 170.238906,17.0761827 172.981213,16.6101608 C172.981213,26.4858794 172.981213,36.3626039 172.981213,46.234944 C170.238906,46.6968396 167.4935,47.1386191 164.746029,47.5494508 C164.746029,37.6784001 164.746029,27.8037388 164.746029,17.9260344 L164.746029,17.9260344 Z" id="path60" fill="#FCD006"></path>
                        <path d="M133.419021,48.9624746 C134.296632,48.8974843 135.168562,48.8188253 136.043849,48.7427454 C136.043849,46.7092187 136.043849,44.6707919 136.043849,42.6339125 C135.168562,42.7063819 134.296632,42.7803987 133.419021,42.845389 C133.419021,44.8863948 133.419021,46.9253373 133.419021,48.9624746 L133.419021,48.9624746 Z M131.231062,40.8314626 C133.566968,40.6617656 135.898743,40.4688578 138.234648,40.2563497 C138.234648,43.7531904 138.234648,47.2448731 138.234648,50.7381032 C135.898743,50.9495796 133.566968,51.1383611 131.231062,51.3127002 C131.231062,47.8189543 131.231062,44.3277874 131.231062,40.8314626 L131.231062,40.8314626 Z" id="path62" fill="#FCD006"></path>
                        <path d="M124.010591,70.1377158 C124.351411,70.3700821 124.526985,70.7375869 124.621743,71.1561555 C124.537054,71.0535121 124.266206,70.9684057 124.130653,70.9446791 C123.494198,70.8595727 122.772022,71.0958074 122.230325,71.9334605 C121.646542,72.8361039 121.821858,73.5151497 122.0878,74.0056719 C122.152866,74.1245629 122.326116,74.3099917 122.453923,74.3481606 C122.039776,74.3997402 121.639313,74.3259814 121.295395,74.0985152 C120.426046,73.5076706 120.260284,72.0987732 120.989431,71.0176642 C121.731231,69.9388764 123.143308,69.5468712 124.010591,70.1377158" id="path64" fill="#713907"></path>
                        <path d="M186.759364,7.25137313 C184.191598,5.6340682 181.6197,3.99360403 179.042897,2.33065371 C175.522901,3.17990966 171.341147,4.02168913 166.36802,4.82762077 C163.758168,5.24771102 161.01741,5.64152146 158.190414,6.01183737 C155.765689,8.35953557 153.344062,10.6857509 150.920111,12.9947386 C150.920111,19.0806443 150.920111,25.1667305 150.920111,31.2567368 C148.708656,29.6735002 146.492812,28.0747898 144.275935,26.4588001 C139.929968,26.9070271 135.582452,27.296969 131.231062,27.6208891 C131.231062,25.643842 131.231062,23.6642676 131.231062,21.6936681 C132.230542,21.6156797 133.231054,21.5371239 134.231566,21.4529975 C134.231566,17.079819 134.231566,12.7076206 134.231566,8.3404769 C130.691431,8.58235955 127.063509,8.79179862 123.368198,8.96459036 C120.412878,9.10823962 117.41444,9.22782698 114.375723,9.32381666 L114.375723,9.374081 L114.375723,22.6189807 C115.414448,22.5834166 116.411862,22.5465372 117.326653,22.5072593 C117.326653,32.3834937 117.326653,42.2591866 117.326653,52.130753 C116.338792,52.1730483 115.348866,52.2163752 114.361522,52.2506757 C114.361522,56.6524809 114.361522,61.0615072 114.361522,65.4648597 C124.34444,65.0991602 134.321419,64.3999984 144.275935,63.3653111 C146.681037,61.1239185 149.086914,58.8587993 151.491759,56.5774325 C153.870525,58.2870392 156.247742,59.9713718 158.623668,61.6448727 C165.450131,60.7107657 172.254131,59.6208883 179.040832,58.3767877 C181.6197,55.753448 184.189532,53.110508 186.759364,50.4402308 C186.759364,36.0412628 186.759364,21.6495417 186.759364,7.25137313 L186.759364,7.25137313 Z M112.215132,9.38617643 C106.494526,9.54434534 100.64792,9.63197913 94.724887,9.63197913 C89.1369937,9.63197913 83.6229446,9.55543496 78.2139817,9.41428732 L78.2139817,22.7112567 C79.4584898,22.7352412 80.57958,22.6950349 81.2088053,22.7112567 C81.2088053,32.5890385 81.2088053,42.5446798 81.2088053,52.4208884 C80.2199119,52.3881354 79.2271456,52.3579613 78.2382521,52.323145 C78.2382521,55.8088961 78.2382521,61.8754337 78.2382521,65.676852 L98.1359238,65.676852 C98.1359238,61.2709205 98.1359238,57.0045118 98.1359238,52.6011592 C97.1434156,52.6086383 96.155555,52.6132804 95.1612394,52.6174068 C95.1612394,42.7427455 95.1612394,32.8649895 95.1612394,22.9931393 C99.8939852,22.9851703 106.54694,22.8652992 112.215132,22.6930233 L112.215132,9.38617643 Z M76.0546825,9.35143755 C69.1925884,9.14741434 62.5158796,8.83019965 56.113892,8.4007219 C56.113892,12.7659571 56.113892,17.2998319 56.113892,21.6624366 C56.214847,21.6701993 58.3514248,21.8241129 58.650933,21.8478911 C58.6297608,21.9615468 58.4745846,22.7071303 58.4255272,22.9630168 C56.1815396,22.7968789 53.8915929,22.6074011 51.4885561,22.389993 L51.2605684,21.2516049 C51.4764208,21.2727783 53.8229126,21.4767757 53.8229126,21.4767757 L53.8567364,21.4795868 C53.8567364,17.1221143 53.8567364,12.600335 53.8567364,8.23932926 C46.8712242,7.74107008 40.2252408,7.11646662 34.0442696,6.36394568 C34.0442696,10.1537328 34.0442696,13.9397031 34.0442696,17.7294902 C33.2392123,13.8388649 32.4323475,9.94973541 31.6290976,6.05960011 C28.6644829,5.67788509 25.8025272,5.26264332 23.0788617,4.82762077 C19.800977,4.29531904 16.8841545,3.74960661 14.2583197,3.19360405 C11.2401292,16.9407862 8.22245512,30.6581553 5.21286257,44.3435192 C4.19267571,44.146485 3.18005402,43.9455824 2.16492007,43.741585 C2.16492007,48.1402954 2.16492007,52.5482901 2.16492007,56.9516427 C8.69800183,58.2664073 15.2512668,59.4406175 21.8267109,60.467052 C21.8267109,56.0595731 21.8267109,51.6562205 21.8267109,47.2528679 C20.9693946,47.1208241 20.1106065,46.981817 19.2533159,46.8428099 C19.4000491,46.1568009 19.5468081,45.4746604 19.698602,44.787104 C20.3980569,41.6716946 21.0919605,38.5547379 21.7878781,35.4359759 C22.1676081,33.6956794 22.5412703,31.9543512 22.9235306,30.218439 C23.3057908,32.0701475 23.6895486,33.9236613 24.0718088,35.7784646 C24.7586379,39.1128295 25.4429625,42.4484838 26.1313149,45.7820749 C26.2779707,46.5072845 26.4282411,47.2386835 26.5736059,47.9662141 C25.7415153,47.8473231 24.901369,47.7232741 24.0682715,47.5953566 C24.0682715,51.9987092 24.0682715,56.4072197 24.0682715,60.8105723 C27.9549583,61.3988379 63.3914246,65.980656 63.3914246,65.980656 C63.3914246,65.980656 70.469113,33.4401023 72.781781,22.7112567 C73.4474121,22.7414823 74.7208383,22.6891032 76.0546825,22.7112567 L76.0546825,9.35143755 Z M23.8897543,45.3856855 C23.5690224,43.8156017 23.2442625,42.242939 22.9195027,40.673371 C22.5916962,42.1426166 22.2629085,43.6170202 21.9346113,45.0878132 C22.5886753,45.1876198 23.2402347,45.2889737 23.8897543,45.3856855 Z M65.4569984,68.2483542 L34.0602778,64.3925193 C22.6991318,62.9387476 11.2497083,61.0212751 0,58.6919392 C0,52.8379097 0,46.9748538 0,41.1177295 C1.15180005,41.3513852 2.30763314,41.5881356 3.45792532,41.8148281 C6.31724738,28.8085099 9.18413461,15.7772272 12.059594,2.71156666 C12.205346,2.03457377 12.353112,1.36192389 12.5084173,0.677990957 C29.9991017,4.65325585 58.2122567,7.30888441 90.3339936,7.52961941 C91.5408051,7.54088956 92.7414198,7.54452592 93.9461657,7.54452592 C94.2035878,7.54452592 94.4566206,7.54865229 94.7122353,7.54865229 C94.9053665,7.54865229 95.0995304,7.54452592 95.2916288,7.54452592 C96.7798746,7.54452592 98.2596,7.54088956 99.7279647,7.52961941 C100.472346,7.52237247 101.210014,7.50927125 101.948973,7.50171484 C102.904559,7.49013521 103.862211,7.48317196 104.80721,7.46795597 C115.990743,7.2866278 126.620185,6.80820099 136.420042,6.08587993 C136.420042,6.78303013 136.420042,7.48317196 136.420042,8.18333958 C136.420042,13.2727785 136.420042,18.3662665 136.420042,23.4561438 C135.416689,23.5411728 134.419017,23.6229523 133.419021,23.7034681 C133.419021,24.2275171 133.419021,24.7481361 133.419021,25.2701992 C137.309788,24.9612115 141.192808,24.6031715 145.068857,24.1952799 C146.290127,25.0805925 147.510623,25.9651831 148.736025,26.8440999 C148.736025,21.9719143 148.736025,17.0958345 148.736025,12.2256863 C150.752025,10.3154092 152.765185,8.37836214 154.783508,6.43788507 C155.625488,5.63143764 156.467726,4.83558982 157.31048,4.02168913 C166.032107,2.90186969 173.573258,1.56008249 179.603959,0.038382462 C179.672123,0.0273008375 179.746741,0.0152119661 179.815422,1.93622891e-14 C180.612217,0.514284965 181.404364,1.0066099 182.19961,1.51313729 C184.442823,2.94780134 186.686811,4.38045121 188.922794,5.78055434 C188.922794,20.8626429 188.922794,35.9406825 188.922794,51.0235964 C185.891565,54.1833642 182.861368,57.3139895 179.822393,60.4157303 C172.514651,61.770727 165.18393,62.940295 157.831262,63.9316554 C156.393107,62.9212105 154.958824,61.8945181 153.522217,60.8680836 L151.606914,59.5393925 L145.153804,65.676852 L128.987591,66.9390054 L112.215132,67.7325579 C112.215132,67.7325579 112.160137,52.7401663 112.160137,50.1431322 C113.152645,50.1124423 114.142571,50.0786577 115.136112,50.0394572 C115.136112,41.6183097 115.136112,33.1969044 115.136112,24.7814823 C110.335202,24.9668595 102.16276,25.1339775 97.3587517,25.1667305 C97.3587517,33.5873622 97.3587517,42.0036095 97.3587517,50.4211464 C98.3471287,50.4175358 99.3370549,50.4116042 100.329563,50.3935513 C100.329563,53.3689219 100.227575,68.2483542 100.227575,68.2483542 L76.0546825,68.2483542 C76.0546825,68.2483542 76.0430637,53.5613139 76.0430637,50.0544153 C77.0319571,50.0972263 78.0247235,50.136169 79.0102603,50.1702115 C79.0102603,41.7498378 79.0102603,33.3121849 79.0102603,24.8923011 L74.6067153,24.8923011 C72.3431047,35.3880069 67.7389409,56.6983867 67.7389409,56.6983867 L65.4569984,68.2483542 L65.4569984,68.2483542 Z" id="path66" fill="#FCD006"></path>
                        <path d="M77.9557849,69.0891021 C68.4815147,56.8211462 55.204265,49.8367492 55.204265,49.8367492 C55.204265,49.8367492 41.1865072,56.0422939 32.4078189,68.5343632 L77.9557849,69.0891021" id="path68" fill="#FFFFFF"></path>
                        <path d="M78.7585185,110.926367 L78.7585185,84.0007716 C75.0102768,77.6193404 68.4009573,68.3863297 58.7826133,61.3093473 L78.7585185,110.926367 Z M45.7818923,60.3971616 C45.8898185,60.3094762 45.9907734,60.2212751 46.0950849,60.1356529 C46.1684128,60.0781416 46.2419988,60.0177935 46.3145521,59.9618296 C46.5500275,59.7730482 46.7896341,59.5865878 47.0287242,59.3967748 C47.6055357,58.9508689 48.1859619,58.5067684 48.7826545,58.0714363 C48.8038266,58.0549309 48.8177693,58.0397149 48.8350685,58.0275936 C48.8763799,57.9974196 48.9192406,57.9656981 48.9569373,57.9344924 C49.657425,57.4297858 50.3695315,56.9281739 51.101261,56.4384254 C52.3313102,55.6123777 53.6096421,54.8095409 54.9359986,54.0407466 L54.9308347,54.0479677 C54.9359986,54.0443571 54.9383224,54.0407466 54.9434863,54.0407466 C56.2682937,54.8149567 57.5430109,55.6123777 58.7751256,56.4384254 C59.5047895,56.9281739 60.216896,57.4297858 60.9153181,57.9344924 C61.9052444,58.6548019 62.8551501,59.3890378 63.7792361,60.1377161 C72.5463056,67.294389 78.5839775,75.8272064 82.2028627,81.9783345 L82.7494651,82.9243048 L82.7494651,118.622047 C78.3379161,117.498901 73.2062564,116.642163 67.6121663,116.125851 C67.7903221,114.496709 67.8290516,112.837135 67.7327442,111.177302 C67.6973713,110.645 67.6459901,110.108572 67.5860885,109.571886 C66.9968836,104.330881 65.0777074,98.9588628 61.662023,93.0388113 C60.7105682,91.3872318 59.6488633,89.693099 58.4629658,87.9494498 L57.8249617,87.0230797 L57.7010272,86.8538985 L57.4740723,86.5258521 C56.9863387,85.8377799 56.5313961,85.1734344 56.0978838,84.5418419 C52.7085356,79.5705976 50.5874496,75.7315262 49.6150807,72.8007719 C49.3790889,72.091552 49.2711627,71.7168261 49.1149537,70.9774321 C48.993343,70.3558977 48.9156258,69.9579609 48.8288717,69.3464844 C48.7638062,68.8760782 48.6837652,68.0902626 48.6432283,67.5533187 C49.1325111,66.317213 49.5874537,65.1525451 50.0008266,64.0949049 C50.4074864,63.0640861 50.7694782,62.1343634 51.0917077,61.3093473 C51.0917077,61.3093473 51.0917077,61.3173421 51.0860274,61.3173421 C50.3721135,61.8411332 49.6842774,62.3765297 49.0080603,62.9191474 C40.6579785,69.6265618 34.7974295,77.8047692 31.2967984,83.6889728 C31.2392205,83.7926478 31.1726058,83.8950334 31.1152861,83.997161 C31.111155,84.0092822 31.1047,84.0159876 31.1000525,84.0244982 L31.1000525,86.2942596 L31.1000525,110.390455 L31.1000525,110.497225 L31.1000525,110.953705 L35.1560647,100.88923 L39.6961957,89.6056715 L40.8622121,86.7027702 L42.1002653,83.637651 L42.3236055,83.0816227 C42.3161178,83.2451301 42.299335,83.4058006 42.296753,83.5778187 C42.2933965,83.7075414 42.296753,83.8431958 42.296753,83.9780766 C42.2897817,84.2849753 42.2843596,84.5957426 42.2933965,84.9044466 C42.299335,85.1582184 42.3236055,85.4055427 42.3396137,85.6606039 C42.3860891,86.5126993 42.4586424,87.3549946 42.586708,88.1720158 C42.9125522,90.3479023 43.4880727,92.4141821 44.202503,94.3912291 C44.8242407,96.1114096 45.5500316,97.7294624 46.3305603,99.2758196 C46.6282611,99.862022 46.9288021,100.432751 47.2342488,100.996774 C47.4790193,101.440616 47.7245644,101.876464 47.9757898,102.304575 C48.239925,102.763892 48.5022529,103.215729 48.7715521,103.66344 C48.8616627,103.814053 48.9468676,103.964665 49.0356873,104.114762 C49.0498881,104.137973 49.0684783,104.164794 49.0821627,104.191874 C49.2252037,104.423724 49.3679865,104.655317 49.5107693,104.886909 L45.1679005,115.886006 C38.436454,116.364923 32.2905976,117.313988 27.1243395,118.622047 L27.1243395,82.9214679 L27.6779132,81.9783345 C28.5038845,80.5699529 29.4651509,79.0297853 30.5503517,77.417922 C30.5544828,77.4088956 30.5619705,77.4006428 30.5655853,77.3947112 C34.1630401,72.0523515 39.1940031,65.8462911 45.7818923,60.3971616 L45.7818923,60.3971616 Z" id="path70" fill="#713907"></path>
                        <path d="M26.0530813,74.6529962 L26.1499051,74.5114101 C28.6007083,70.8843309 31.247741,67.5079287 34.0602778,64.3925193 C34.0602778,64.3925193 36.9311671,61.3776903 37.4550482,60.8611203 L42.0865809,56.6429386 C42.2309129,56.5225002 42.3700809,56.3950985 42.5131219,56.2808497 L42.7945563,56.0363622 L42.830962,56.0103145 L42.8611711,55.9829773 L43.8802735,55.1832352 C44.5484866,54.6612494 45.1485358,54.2076066 45.7627857,53.7557691 L45.9321628,53.6288832 C45.9321628,53.6288832 50.1123676,50.6831709 54.8804863,48.1121845 C59.6488633,50.6831709 64.2354697,53.9329451 64.2354697,53.9329451 C64.7518631,54.3148923 65.2723877,54.7123133 65.8032402,55.1277871 L67.7327442,56.6942603 L67.7389409,56.6983867 C69.4665351,58.1549953 71.0944654,59.6479676 72.6162769,61.1703402 L74.8109489,63.5045761 C74.8109489,63.5045761 77.4104735,66.4417778 80.1310923,69.8627964 C81.9968217,72.2086378 79.4812111,72.3711136 79.4812111,72.3711136 C79.4812111,72.3711136 73.6431252,65.5695664 72.6162769,64.4856206 C70.941613,62.7197921 69.1375925,60.9627322 67.1820106,59.2667941 C66.614236,58.7765298 66.039232,58.2870392 65.4487361,57.8045118 C65.3823795,57.7542216 65.3248016,57.7078 65.2633508,57.6585414 C64.7257853,57.224241 64.2042279,56.8188251 63.6989369,56.429399 C63.2651665,56.1029 62.8365599,55.7815589 62.4195722,55.4744022 C61.6772567,54.9395215 60.9313263,54.4116041 60.1593182,53.8947762 C59.3746584,53.3733062 58.5783797,52.8564784 57.7937199,52.3744668 L54.9460683,50.6104436 L53.474347,51.4679549 C52.1843962,52.2243701 50.8823102,53.0364913 49.6060438,53.8947762 C48.9293103,54.3466137 48.2347611,54.8330096 47.3514701,55.4744022 L47.1420726,55.6283674 C46.902466,55.8001276 46.683257,55.9718877 46.4537202,56.1418426 C46.0674579,56.4348148 45.6891997,56.7244344 45.318171,57.0127645 L44.2977776,57.8161172 L43.9982694,58.0734995 C43.3512284,58.6034802 42.7194211,59.1553821 42.0865809,59.7111526 C41.5363637,60.1960011 40.9938924,60.7027709 40.4506465,61.2085091 C39.9055933,61.7209527 39.3602818,62.2501596 38.8198761,62.7822035 C38.1782572,63.4223066 37.5454171,64.0706625 36.9169663,64.7386186 C33.7496672,68.1008365 30.7863435,71.8045114 28.0626263,75.8346854 L27.9810362,75.9551238 L26.0530813,74.6529962" id="path72" fill="#713907"></path>
                        <path d="M64.528523,115.847579 C64.5210353,115.909217 64.5163877,115.970597 64.5138058,116.033008 C64.4634574,116.430429 64.3968427,116.827334 64.3284205,117.229397 C64.2708427,117.560281 64.2078427,117.892196 64.1376132,118.224626 L64.1376132,118.224626 C64.1259943,118.286522 64.1125681,118.347644 64.0988836,118.402576 C64.0635107,118.556541 64.0382074,118.710764 63.9984451,118.868856 C63.977273,118.969694 63.9597156,119.06589 63.9333795,119.167244 C63.6328386,120.377044 63.2375394,121.589423 62.7353468,122.809539 C60.2329042,128.826302 54.9460683,133.353446 54.9460683,133.353446 C56.2218183,131.079816 56.9530314,128.876077 57.2688059,126.74197 C57.8567199,122.763633 56.9953756,119.027205 55.5138429,115.546354 C55.4748552,115.464858 55.4412896,115.380268 55.4069494,115.299288 C53.8608675,111.753189 51.6690356,108.42914 49.5107693,104.886909 C49.3679865,104.655317 49.2252037,104.423724 49.0821627,104.191874 C49.0684783,104.164794 49.0498881,104.137973 49.0356873,104.114762 C48.9468676,103.964665 48.8616627,103.814053 48.7715521,103.66344 C48.5022529,103.215729 48.239925,102.763892 47.9757898,102.304575 C47.7245644,101.876464 47.4790193,101.440616 47.2342488,100.996774 C46.9288021,100.432751 46.6282611,99.862022 46.3305603,99.2758196 C45.5500316,97.7294624 44.8242407,96.1114096 44.202503,94.3912291 C43.4880727,92.4141821 42.9125522,90.3479023 42.586708,88.1720158 C42.4586424,87.3549946 42.3860891,86.5126993 42.3396137,85.6606039 C42.3236055,85.4055427 42.299335,85.1582184 42.2933965,84.9044466 C42.2807448,84.4636987 42.2843596,84.0203719 42.296753,83.5778187 C42.299335,83.4058006 42.3161178,83.2451301 42.3236055,83.0816227 C42.3396137,82.6785279 42.3507162,82.2635698 42.3902203,81.850417 C42.802044,77.2943888 44.5384169,73.5009653 46.0612611,71.3341052 C46.1753841,72.0523515 46.373421,72.8624095 46.6775767,73.7789795 C47.6246423,76.6295274 49.622052,80.5312681 53.5404454,86.2860069 C53.9848019,86.933847 54.448265,87.6064453 54.9460683,88.3074124 C55.0640642,88.4701461 55.175347,88.6313324 55.2879207,88.7945819 L55.9122404,89.7041886 C60.7503304,96.8059292 64.1967402,104.015213 64.6413549,111.362731 C64.7343058,112.852093 64.6989328,114.349707 64.528523,115.847579" id="path74" fill="#FCD006"></path>
                        <path d="M85.0066208,178.672078 C86.3541495,176.827591 87.7657109,173.084457 88.1429363,168.888971 C87.8646003,168.927913 87.5947847,168.977688 87.3058626,169.013535 C87.2890798,169.128816 87.2790101,169.236617 87.2588708,169.352414 C86.6113134,173.412246 84.8826864,177.380008 83.391084,178.962213 L85.0066208,178.672078" id="path76" fill="#FFFFFF"></path>
                        <path d="M82.3753381,179.038809 C83.8863053,177.758345 85.9366454,173.466147 86.5397929,169.236617 C86.5446987,169.186327 86.5524446,169.139906 86.560965,169.089615 C86.17367,169.120305 85.7863749,169.136295 85.4055348,169.1479 C85.3964979,169.182717 85.3890102,169.213406 85.3820388,169.251833 C84.5281823,173.400898 82.2563094,177.128816 80.7721947,178.533071 L82.3753381,179.038809" id="path78" fill="#FFFFFF"></path>
                    </g>
                </g>
            </g>
        </g>
    </g>
</svg>