<?xml version="1.0" encoding="UTF-8"?>
<svg width="200px" height="200px" viewBox="0 0 200 200" version="1.1" xmlns="http://www.w3.org/2000/svg" xmlns:xlink="http://www.w3.org/1999/xlink">
    <!-- Generator: Sketch 54.1 (76490) - https://sketchapp.com -->
    <title>western-ill</title>
    <desc>Created with Sketch.</desc>
    <defs>
        <polygon id="path-1" points="0.43670009 0.564587076 18.8503302 0.564587076 18.8503302 17.1251873 0.43670009 17.1251873"></polygon>
    </defs>
    <g id="western-ill" stroke="none" stroke-width="1" fill="none" fill-rule="evenodd">
        <g id="western-ill_BGD">
            <g id="Group-128" transform="translate(1.000000, 5.000000)">
                <path d="M10.8214722,99.97977 C12.9898916,104.312442 21.3815114,115.960832 26.8025597,119.209724 C27.5778104,122.123453 33.19206,140.103268 52.4861009,153.0336 C64.7393006,161.22841 81.8999755,164.919296 94.2224668,151.984071 C102.349148,160.113642 132.675226,167.965132 149.192712,149.819773 C145.402054,157.675341 137.645472,161.907709 137.645472,161.907709 C133.318415,162.177635 131.996169,161.736457 128.884568,163.090162 C124.618652,164.954361 124.309693,170.945731 124.309693,170.945731 L117.236244,173.658034 C112.636097,170.134323 111.383142,169.318838 105.152605,169.592025 C98.9294041,169.861135 95.5797669,179.071224 95.5797669,179.071224 L81.7670987,179.071224 C81.7670987,174.737736 78.5152849,169.050543 70.661694,167.15454 C62.808103,165.258537 56.3126274,172.841733 56.3126274,172.841733 L45.4794978,167.15454 C47.1098883,163.36335 47.7799788,156.25232 40.8785359,150.903553 C34.9202739,146.296878 27.3397734,150.088068 27.3397734,150.088068 L20.8434825,140.877979 C20.8434825,140.877979 27.066683,134.244008 23.0119019,127.335218 C19.4861824,121.378915 12.1795875,122.190322 12.1795875,122.190322 C10.5483818,117.045427 10.8214722,99.97977 10.8214722,99.97977" id="Fill-59" fill="#542988"></path>
                <path d="M109.065762,185.406196 C109.070744,185.402357 109.074547,185.399192 109.077128,185.396794 C109.076104,185.397745 109.075073,185.398714 109.074034,185.399702 L109.065762,185.406196 Z M117.829456,177.34737 C117.674622,177.723417 117.501881,178.142374 117.315564,178.593535 C116.783143,179.882775 116.248464,181.172108 115.746062,182.376108 C115.718536,182.442066 115.718536,182.442066 115.691005,182.508017 C114.476174,185.417879 113.680024,187.280441 113.381615,187.877094 C111.87239,190.898529 106.354078,191.895271 103.423609,189.267233 C102.700765,188.62044 101.438883,187.437708 99.7757935,185.855649 C99.7309453,185.812983 99.7309453,185.812983 99.6861066,185.770315 C98.7772675,184.905405 97.8096088,183.979341 96.8456671,183.053363 C96.5083568,182.729337 96.1955705,182.428434 95.9151543,182.158336 C95.6266662,181.880338 95.6266662,181.880338 95.5620491,181.817973 L94.432831,180.728102 L94.9235604,179.237419 C95.7780032,176.641888 98.4415935,172.965956 101.598871,170.989717 C106.463681,167.94468 112.064033,168.738098 117.479979,174.156394 L118.656926,175.333853 L118.024292,176.873784 C117.988713,176.96039 117.988713,176.96039 117.829456,177.34737 Z M56.9819017,172.198514 C60.4463947,168.717084 66.4572435,166.467969 71.7019474,167.853954 C76.9412351,169.23047 80.2670213,174.532176 80.728276,178.911021 L80.8752714,180.306498 L79.7606107,181.158845 C79.6862968,181.21567 79.5451206,181.323771 79.3476593,181.475205 C79.018145,181.727912 78.6508704,182.010084 78.2553058,182.314626 C77.1254246,183.184513 75.995681,184.059015 74.9421836,184.8811 C74.8666786,184.940028 74.8666786,184.940028 74.791207,184.998963 C72.6818564,186.646384 71.1643508,187.861947 70.5621382,188.396628 C67.7087375,190.914438 63.7736164,189.489603 61.3744159,186.643911 C60.68561,185.827873 59.9533045,184.266875 58.95595,181.766123 C58.7943709,181.360982 58.6284953,180.936333 58.4589104,180.494277 C57.9773329,179.238953 57.4865741,177.898507 57.0116843,176.558681 C56.8456391,176.090211 56.6933473,175.655032 56.5580284,175.264052 C56.4764311,175.028292 56.4183201,174.858757 56.3869329,174.7664 L55.8878652,173.297899 L56.9819017,172.198514 Z M12.1427459,122.147491 C21.0907208,121.02986 27.9044602,130.932484 23.0089988,139.42005 L22.718038,139.924507 L19.7962582,141.880401 L18.8261802,141.724857 C18.7777925,141.717096 18.679315,141.701494 18.5402402,141.679754 C18.3068619,141.643274 18.0423744,141.60256 17.7522421,141.558678 C16.9229423,141.433246 16.0559876,141.30781 15.1955795,141.190929 C14.7403494,141.129089 14.2984884,141.071249 13.8738749,141.018145 C12.1064413,140.797102 10.7342248,140.670976 10.0110867,140.670976 C5.97352063,140.670976 4.57098919,137.723725 5.10245408,134.035669 C5.26215646,132.889249 6.04008502,131.161726 7.41444827,128.54574 C7.54116965,128.304536 7.67187453,128.058353 7.80623119,127.807686 C8.35153391,126.790327 8.93393269,125.741369 9.51613022,124.717839 C9.71978285,124.359808 9.90901062,124.03027 10.0790848,123.736502 C10.1818044,123.559075 10.25582,123.432139 10.296386,123.363005 L10.9200044,122.300215 L12.1427459,122.147491 Z M139.55292,165.444731 C139.542219,165.744143 139.536418,165.907842 139.52705,166.175858 C139.500282,166.941634 139.473516,167.73432 139.448543,168.511533 C139.439053,168.806895 139.429988,169.094971 139.421407,169.374364 C139.3669,171.149104 139.335298,172.461842 139.335298,173.075946 C139.335298,174.942483 138.278097,176.325767 136.679039,176.998801 C135.749108,177.390204 134.757837,177.520878 133.617722,177.520878 C133.562399,177.520878 133.525009,177.521238 133.418185,177.522699 C133.385654,177.523186 133.385654,177.523186 133.351755,177.52371 C131.134271,177.557987 129.29033,177.066188 124.739562,174.9346 L123.13343,174.182285 L123.312821,172.417786 C124.255854,163.142054 131.201959,159.864797 138.045016,162.782924 L139.625475,163.456889 L139.562699,165.173903 C139.560939,165.222037 139.560939,165.222037 139.55292,165.444731 Z M28.8521343,148.817612 C31.2400102,148.317435 33.7078194,148.14217 36.0845279,148.497039 C38.8068331,148.903511 41.1696191,149.987212 42.9695591,151.894685 C43.9241441,152.906278 44.6909712,154.011431 45.2792348,155.191897 C46.795592,158.234764 47.0212691,161.40353 46.5130854,164.284952 C46.4222625,164.799922 46.3259671,165.192921 46.2494976,165.444258 L45.9299452,166.49455 L44.9404016,166.969977 C44.6088922,167.129251 44.022372,167.394394 43.2211618,167.730138 C41.8994888,168.28398 40.445498,168.836751 38.898482,169.353049 C36.4326869,170.17598 33.9639046,170.828065 31.5637822,171.243713 C27.460106,171.967941 24.3022336,170.291296 24.3022336,165.258048 C24.3022336,163.888789 24.398551,161.767311 24.5685959,159.070184 C24.6127363,158.37006 24.6612445,157.64167 24.7134135,156.891775 C24.8025671,155.610253 24.898034,154.327293 24.9935046,153.103831 C25.0269264,152.675526 25.0579714,152.285129 25.0858497,151.940286 C25.1026211,151.732831 25.1145787,151.587052 25.1211228,151.508281 L25.2576544,149.865059 L26.82191,149.343598 C27.2461136,149.202185 27.9442677,149.007778 28.8521343,148.817612 Z" id="Combined-Shape" fill="#FFFFFF" fill-rule="nonzero"></path>
                <path d="M41.8005217,148.093881 C30.0706774,136.977188 25.5862884,124.86071 24.3846906,120.994495 C20.9853265,118.579844 16.958262,113.923424 13.7211217,109.571995 C13.8295427,113.180517 14.0455694,116.886897 14.4433847,119.391251 C17.4750958,119.644052 22.4608299,120.867279 25.4395533,125.898007 C27.568028,129.525285 27.7783484,133.631252 26.0525801,137.781256 C25.5267792,139.044442 24.9007092,140.119252 24.3447461,140.947785 L28.3840385,146.674121 C29.8008478,146.233759 31.7605772,145.795844 33.9510068,145.795844 C36.4226787,145.795844 39.1886362,146.353635 41.8005217,148.093881 Z M93.7186761,176.250135 C95.2430912,173.051802 98.9098394,167.038415 105.030325,166.773383 C111.489932,166.491225 113.637972,167.44208 117.690307,170.461822 L121.759762,168.901799 C122.055678,167.460836 122.672781,165.434356 123.946116,163.646813 C123.653461,163.658229 123.363251,163.668015 123.077933,163.674539 C114.019483,163.893089 101.535583,161.197095 94.3374093,155.796953 C88.4557757,161.040522 81.1980924,163.611747 73.2018423,163.251302 C65.9343768,162.925924 58.0212766,160.129625 50.9184805,155.378609 C48.9147306,154.035505 47.0536398,152.641026 45.3237955,151.212296 C49.4331948,155.883394 49.9736692,161.399336 48.9049482,165.766258 L55.7900872,169.380488 C58.5103937,166.921801 64.3675715,162.731023 71.3236325,164.411738 C79.0068476,166.266966 83.1309204,171.30748 84.2632265,176.250135 L93.7186761,176.250135 Z M95.5797669,181.893292 L78.9465232,181.893292 L78.9465232,179.071713 C78.9465232,176.466239 77.062607,171.602685 70.0005706,169.897506 C63.9925817,168.45002 58.5087633,174.615087 58.4541453,174.677064 L56.991685,176.38469 L41.855955,168.439419 L42.8879922,166.039446 C43.4268362,164.786045 45.7811201,158.27195 39.1511372,153.134394 C34.7050624,149.697124 28.6489769,152.588019 28.5894677,152.617377 L26.4308307,153.670983 L25.0344012,151.71545 L17.2134181,140.624853 L18.7859297,138.948215 C18.970979,138.745975 23.4953126,133.731557 20.5801745,128.763622 C18.0180158,124.437473 12.5464254,124.992003 12.4909921,124.994449 L10.1913263,125.250512 L9.49107361,123.043809 C7.77101166,117.61594 8.00089671,104.72701 8.00089671,102.934592 C8.00089671,100.393562 8.49762235,94.6842448 9.49107361,85.8066406 C11.6986223,90.2167841 23.668134,114.042484 28.2519768,116.789854 L29.2334719,117.377819 L29.5277574,118.484432 C30.0502975,120.44812 35.179506,138.038134 54.056167,150.688754 C65.1289639,158.095806 80.9608706,161.814418 92.1804027,150.037997 L94.1735551,147.945462 L96.2164343,149.989884 C100.378821,154.152935 111.534768,158.289075 122.945871,158.033013 C129.917421,157.869916 148.179352,147.011301 155.518555,138.947785 L151.732861,151.045937 C147.595745,159.619947 139.345154,164.194819 138.99625,164.384827 L138.446809,164.684925 L137.820739,164.724068 C136.604467,164.799909 135.636831,164.821111 134.783321,164.840683 C132.658107,164.887981 131.778511,164.908368 130.009538,165.677371 C127.460422,166.791323 127.128638,171.048971 127.126192,171.091376 L127.032445,172.924587 L116.774028,176.856856 L115.521888,175.897845 C111.308144,172.670971 110.661694,172.171078 105.275699,172.411647 C101.763023,172.562511 98.9400016,178.110257 98.2283362,180.042141 L97.5476482,181.887584 L95.5797669,181.893292 Z" id="Fill-61" fill="#FEFEFE"></path>
                <path d="M137.813565,12.0124943 C134.569903,7.33976466 119.739871,-1.73332266 108.941795,7.30388331 C101.361295,5.51470898 92.6623461,9.84330394 92.6623461,9.84330394 C91.5781365,8.05412961 71.4110214,4.05988355 50.08959,18.5151726 C50.08959,18.5151726 43.5843319,15.975752 41.4248798,14.1816847 C39.2564604,12.3827246 35.6337328,10.9278991 32.381919,12.0124943 C29.1382571,13.0970895 24.060406,17.0913356 21.1786908,22.135111 C5.3043939,28.2634816 0.974076791,44.1426076 4.21936904,51.020409 C7.47199804,57.894133 11.0955409,60.0584304 13.9682889,57.894133 C16.8508193,55.7249426 21.9278552,49.2263418 21.9278552,49.2263418 L22.6329991,53.9300599 C18.6760414,57.894133 9.60617918,70.925585 10.3463765,85.3515166 C11.0955409,99.7766326 17.9619304,108.47949 28.7942447,117.48163 C29.1643434,126.523729 48.6002283,154.695477 72.0900791,157.94437 C82.2082824,158.3146 89.7887829,152.866344 93.7457406,147.447446 C100.956142,153.610882 114.662835,159.703371 129.492867,157.199832 C144.318008,154.695477 150.064319,145.653378 150.064319,145.653378 C163.066683,151.781749 168.477949,151.03558 176.437515,139.86425 C188.724138,139.86425 189.464335,125.099892 186.556534,116.772158 C200.262411,110.273557 194.506318,96.5228471 188.724138,94.3585496 C190.143393,87.1455838 183.096845,76.3966746 181.67759,75.3128949 C182.047689,78.1915573 179.919214,81.7756144 179.919214,81.7756144 L176.675552,77.8123567 C179.310263,71.9751143 176.093503,67.2713962 169.227113,64.3919183 C172.849841,54.6395319 167.023641,42.3844217 156.569577,40.9295963 C154.401973,37.6807036 152.232738,33.685642 152.232738,33.685642 C154.401973,27.9283172 154.401973,20.3451212 147.905682,14.551915 C145.737263,12.7578477 137.813565,12.0124943 137.813565,12.0124943" id="Fill-63" fill="#542988"></path>
                <path d="M90.250428,11.3057134 C90.2520584,11.3081598 90.2528736,11.3097908 90.254504,11.3122373 L90.250428,11.3057134 Z M72.334067,155.12956 C83.5266976,155.49082 89.7988098,148.06909 91.4683297,145.783285 L93.2642048,143.324598 L95.5785441,145.302149 C102.230537,150.990158 114.989158,156.789888 129.023559,154.417641 C142.299829,152.175057 147.479579,144.452413 147.693976,144.125404 L149.036602,142.069566 L151.266976,143.101155 C163.348985,148.794872 167.195076,147.973678 174.14054,138.227 L174.983452,137.042916 L176.43776,137.042916 C179.357789,137.042916 181.489525,136.039054 182.955246,133.97343 C185.836961,129.913129 185.589957,122.559085 183.893536,117.702055 L183.05796,115.308607 L185.348659,114.22238 C189.986305,112.023017 192.348741,108.750475 192.179995,104.756229 C192.01125,100.770954 189.44583,97.6411218 187.735551,97.0001505 L185.494579,96.1618318 L185.956795,93.8132347 C186.623624,90.4257095 184.76987,85.6861101 182.904704,82.1648454 C182.633244,82.7218217 182.416402,83.0969449 182.344665,83.2160057 L180.287927,86.679371 L173.384854,78.2448085 L174.104671,76.6505351 C174.861987,74.9730822 174.974484,73.5060245 174.447053,72.165367 C173.668542,70.1878156 171.486264,68.3986413 168.136627,66.9951914 L165.640499,65.9472931 L166.58368,63.4095034 C168.150485,59.1909989 167.624684,54.0607821 165.212521,50.0200534 C163.096275,46.4759551 159.889296,44.239895 156.180973,43.7236929 L154.926388,43.5499946 L154.22369,42.4963878 C152.009619,39.1781789 149.845276,35.1994271 149.753974,35.0322526 L149.138502,33.8987283 L149.593381,32.6909949 C150.680036,29.8058085 152.506888,22.4868297 146.08478,16.7083022 C145.217413,16.0599916 141.17812,15.1654044 137.548871,14.8220852 L136.244559,14.6981314 L135.497025,13.6216911 C134.108747,11.6213061 128.52629,7.31554475 121.915057,6.42748146 C117.613271,5.84848704 113.853591,6.87192085 110.751773,9.46842543 L109.668379,10.3744294 L108.293959,10.0498663 C101.827016,8.52246271 93.9929893,12.3324091 93.9147306,12.3715524 L91.5946849,13.515678 L90.5504198,11.7990819 C87.77468,10.7038854 70.7550338,7.91247985 51.6721285,20.8509666 L50.4444444,21.6827614 L49.0643189,21.1437257 C47.9067417,20.691947 42.0128801,18.3376415 39.6235428,16.3527507 C38.0591832,15.0544984 35.4032771,13.9780581 33.2731719,14.6891611 C30.9857341,15.4540861 26.3358604,18.7959441 23.6269667,23.5355435 L23.1296976,24.4064816 L22.1946686,24.7669261 C12.8606831,28.3705548 8.97627782,35.1341882 7.49099209,38.845461 C5.49376376,43.8378608 5.85489525,47.8753276 6.7703595,49.8161821 C8.69340507,53.8805599 10.5316703,55.6085729 11.5205022,55.8515874 C11.6688677,55.8866533 11.8751121,55.9388443 12.2721122,55.6403768 C14.3891742,54.0461034 18.3559142,49.2151696 19.7058776,47.4887876 L23.7443548,42.3210585 L25.6331621,54.917857 L24.6288416,55.9241656 C21.4283851,59.1290221 12.4530855,71.3882097 13.1631206,85.2066049 C13.8690796,98.7974797 20.3572186,106.801466 30.5960708,115.311869 L31.5612619,116.112675 L31.611804,117.366076 C31.9354365,125.26568 50.6449825,152.023377 72.334067,155.12956 L72.334067,155.12956 Z M73.1003505,160.784134 C72.7326975,160.784134 72.363414,160.77761 71.9867938,160.764562 L71.7039211,160.740098 C48.0705959,157.470818 28.0461401,130.311902 26.1206489,118.921206 C15.5011005,109.933744 8.31760007,100.682066 7.52930627,85.497733 C7.0450803,76.0601239 10.3523274,67.4119043 13.945708,61.1114664 C12.7449254,61.5730309 11.4650689,61.650502 10.171354,61.3308319 C7.02143963,60.55449 4.16173474,57.491528 1.66968289,52.2275716 C-0.231352409,48.1990752 -0.0120648895,42.4132083 2.25417788,36.7488488 C4.02967311,32.3093478 8.57764735,24.3281951 19.2469226,19.8707535 C22.5990055,14.5179092 27.8447868,10.5546516 31.4878944,9.33631685 C35.9690226,7.84071716 40.6123747,9.84191761 43.2250754,12.0102925 C44.2677101,12.8755222 47.3214315,14.3164844 49.7710932,15.3415492 C70.3197196,2.03201673 88.2385261,5.42606575 90.2487976,5.86479674 C91.3631695,6.1078113 92.2158637,6.37936784 92.8753566,6.66234118 C95.6779979,5.50679878 102.030814,3.32700708 108.219777,4.29091048 C112.327545,1.3054195 117.290454,0.111549302 122.666667,0.834884593 C130.052336,1.82732997 136.394554,6.07926932 139.27953,9.33142393 C142.091954,9.66414186 147.459199,10.5212167 149.703432,12.3780763 L149.782506,12.4457616 C155.772561,17.7880045 157.791799,25.5473453 155.310345,33.4159611 C155.967392,34.5821048 157.088286,36.5254058 158.267873,38.3700332 C163.088123,39.4309793 167.332844,42.565704 170.054781,47.1258968 C172.91204,51.9111634 173.812831,57.6358688 172.614494,62.8827 C176.148366,64.7860423 178.576017,67.2512537 179.69691,70.0997432 C179.723812,70.1706904 179.750713,70.2416376 179.7768,70.3125848 L183.38893,73.0705555 C185.439146,74.6354714 191.971305,84.5835742 191.725116,92.7759376 C195.118774,95.1090405 197.614902,99.7589366 197.81544,104.518108 C198.050216,110.064222 195.196217,114.935114 189.908046,118.166066 C191.395777,124.166406 191.260455,132.018712 187.554577,137.240263 C185.295671,140.423917 181.983533,142.266913 177.91897,142.622465 C170.108584,153.110419 163.639195,154.711216 150.90503,149.135744 C148.174941,152.216647 141.655009,158.006591 129.962664,159.982512 C115.463602,162.428967 102.159615,157.201708 94.1649955,151.366912 C90.7729681,155.068399 83.7973425,160.784134 73.1003505,160.784134 L73.1003505,160.784134 Z" id="Fill-65" fill="#FEFEFE"></path>
                <path d="M10.8214722,99.97977 C12.9898916,104.312442 21.3815114,115.960832 26.8025597,119.209724 C27.5778104,122.123453 33.19206,140.103268 52.4861009,153.0336 C64.7393006,161.22841 81.8999755,164.919296 94.2224668,151.984071 C102.349148,160.113642 132.675226,167.965132 149.192712,149.819773 C145.402054,157.675341 137.645472,161.907709 137.645472,161.907709 C133.318415,162.177635 131.996169,161.736457 128.884568,163.090162 C124.618652,164.954361 124.309693,170.945731 124.309693,170.945731 L117.236244,173.658034 C112.636097,170.134323 111.383142,169.318838 105.152605,169.592025 C98.9294041,169.861135 95.5797669,179.071224 95.5797669,179.071224 L81.7670987,179.071224 C81.7670987,174.737736 78.5152849,169.050543 70.661694,167.15454 C62.808103,165.258537 56.3126274,172.841733 56.3126274,172.841733 L45.4794978,167.15454 C47.1098883,163.36335 47.7799788,156.25232 40.8785359,150.903553 C34.9202739,146.296878 27.3397734,150.088068 27.3397734,150.088068 L20.8434825,140.877979 C20.8434825,140.877979 27.066683,134.244008 23.0119019,127.335218 C19.4861824,121.378915 12.1795875,122.190322 12.1795875,122.190322 C10.5483818,117.045427 10.8214722,99.97977 10.8214722,99.97977" id="Fill-67" fill="#542988"></path>
                <path d="M137.813565,12.0124943 C134.569903,7.33976466 119.739871,-1.73332266 108.941795,7.30388331 C101.361295,5.51470898 92.6623461,9.84330394 92.6623461,9.84330394 C91.5781365,8.05412961 71.4110214,4.05988355 50.08959,18.5151726 C50.08959,18.5151726 43.5843319,15.975752 41.4248798,14.1816847 C39.2564604,12.3827246 35.6337328,10.9278991 32.381919,12.0124943 C29.1382571,13.0970895 24.060406,17.0913356 21.1786908,22.135111 C5.3043939,28.2634816 0.974076791,44.1426076 4.21936904,51.020409 C7.47199804,57.894133 11.0955409,60.0584304 13.9682889,57.894133 C16.8508193,55.7249426 21.9278552,49.2263418 21.9278552,49.2263418 L22.6329991,53.9300599 C18.6760414,57.894133 9.60617918,70.925585 10.3463765,85.3515166 C11.0955409,99.7766326 17.9619304,108.47949 28.7942447,117.48163 C29.1643434,126.523729 48.6002283,154.695477 72.0900791,157.94437 C82.2082824,158.3146 89.7887829,152.866344 93.7457406,147.447446 C100.956142,153.610882 114.662835,159.703371 129.492867,157.199832 C144.318008,154.695477 150.064319,145.653378 150.064319,145.653378 C163.066683,151.781749 168.477949,151.03558 176.437515,139.86425 C188.724138,139.86425 189.464335,125.099892 186.556534,116.772158 C200.262411,110.273557 194.506318,96.5228471 188.724138,94.3585496 C190.143393,87.1455838 183.096845,76.3966746 181.67759,75.3128949 C182.047689,78.1915573 179.919214,81.7756144 179.919214,81.7756144 L176.675552,77.8123567 C179.310263,71.9751143 176.093503,67.2713962 169.227113,64.3919183 C172.849841,54.6395319 167.023641,42.3844217 156.569577,40.9295963 C154.401973,37.6807036 152.232738,33.685642 152.232738,33.685642 C154.401973,27.9283172 154.401973,20.3451212 147.905682,14.551915 C145.737263,12.7578477 137.813565,12.0124943 137.813565,12.0124943" id="Fill-69" fill="#542988"></path>
                <path d="M16.2029836,29.1336857 C15.8279938,32.8938876 16.9570392,34.7768427 16.9570392,34.7768427 L21.8441347,34.0233344 C22.2232005,31.0141944 27.4901769,18.222495 34.6329176,18.5992491 C41.7772887,18.9760032 39.5208282,26.1229147 35.0079074,29.885563 C30.4949865,33.6482113 23.7215293,38.1627368 21.8441347,41.1718769 C19.96674,44.1802015 16.5820494,50.5752357 12.0691286,51.7038671 C7.55620771,52.8333139 5.6747371,48.694727 6.80296731,43.0515701 C7.93119752,37.4084131 16.2029836,29.1336857 16.2029836,29.1336857" id="Fill-71" fill="#F7D21F"></path>
                <path d="M177.164262,117.354169 C180.548952,117.636327 182.242113,117.91767 182.242113,117.91767 C184.779816,125.254589 186.755034,128.922641 177.728377,135.412272 C177.728377,135.412272 177.164262,129.769115 176.318089,126.382405 C175.471917,122.997326 177.164262,117.354169 177.164262,117.354169" id="Fill-73" fill="#F7D21F"></path>
                <path d="M173.215619,117.354169 C170.677101,122.150853 171.806147,125.535932 172.369446,129.486957 C172.933562,133.437167 172.933562,137.951692 172.933562,137.951692 C170.395044,141.901902 165.03595,147.544244 152.34336,143.029718 C153.47159,141.619744 154.599821,132.872036 154.599821,132.872036 C151.779245,132.872036 146.703024,133.155009 146.703024,133.155009 C143.882449,141.336771 139.086655,151.494454 121.881145,153.187401 C104.676449,154.881163 94.2395044,141.336771 94.2395044,141.336771 C94.8036195,139.926797 93.9574468,128.075352 90.8556289,122.433011 C96.49678,122.714353 103.547404,115.661222 107.779082,112.839644 C112.00913,110.018065 130.907801,97.0388045 141.908046,95.3458574 C152.907475,93.6529103 174.343849,93.0885946 179.420885,94.4993839 C184.497921,95.9101731 192.395533,99.860383 190.703187,106.067856 C189.010842,112.274513 186.190267,116.224723 177.164425,113.686117 C168.138583,111.146697 158.266569,108.325118 150.651015,109.45375 C143.036276,110.581566 133.445504,111.146697 122.446075,120.175748 L122.727317,126.947536 C129.779571,120.739248 146.703024,108.606461 173.215619,117.354169" id="Fill-75" fill="#F7D21F"></path>
                <path d="M134.102225,68.0691038 C130.15342,70.5155591 131.096601,77.0981549 133.728051,77.8516631 C136.359501,78.6059868 141.061547,75.9736009 143.692997,75.4092852 C146.323633,74.845785 159.483329,74.4665844 160.42651,90.2674239 C156.292655,90.2674239 139.743377,92.5238712 139.743377,92.5238712 C139.180077,90.4566164 135.230456,80.6781345 130.15342,78.2308637 C129.21513,81.2375573 128.0869,86.1312834 127.332844,86.6964146 C126.578789,86.6964146 121.316703,86.510484 118.307003,83.8748361 C115.297302,81.2375573 105.707345,74.2765764 100.629494,72.2085062 C95.553273,70.1412514 91.0403522,72.5836293 86.5274313,81.2375573 C82.0145105,89.8923007 83.32779,116.22513 85.3992011,123.561234 C87.4706122,130.897338 89.1580664,139.931282 87.6556615,143.502292 C86.1532567,147.073301 83.7068558,151.401896 75.8092443,151.212703 C67.9116328,151.023511 48.7317192,148.201932 37.4502323,116.975377 C35.1929567,109.828465 34.8187821,95.1562571 70.3580337,72.2085062 L61.8963072,71.645006 C56.4442814,74.8408921 33.6946279,92.1495635 29.9316866,106.068263 C25.2288253,105.87744 3.79245129,84.2442509 26.3570555,62.4259468 C30.1159208,64.6832096 35.1929567,66.001849 35.1929567,66.001849 L37.8284829,63.7437707 C35.382082,62.4259468 30.8699764,57.1619904 29.740931,54.1512194 C28.6135159,51.1396329 28.4235754,45.1213528 30.6808511,43.6167828 C32.3723812,43.4267748 38.0184234,45.686484 41.2139888,53.022588 C43.8446238,51.8939566 45.1579033,39.1022572 43.6546833,34.5869162 C42.1522785,30.0723906 46.2902095,26.4973039 46.2902095,26.4973039 C49.8599495,30.8242679 56.0692916,35.9031092 56.4442814,39.2890033 C56.818456,42.6748975 56.818456,47.3769846 56.818456,47.3769846 L62.6503628,45.8732301 C63.7777778,42.4881514 62.4644982,32.517215 55.3168664,25.7462421 C58.8857911,21.9827784 80.5072145,3.92467612 102.322654,18.9736383 L105.707345,19.9155236 L105.89647,18.4093226 C104.95818,16.7163755 97.8089182,11.6375343 97.8089182,11.6375343 L98.3738485,11.0732186 C105.332355,10.885657 108.90291,11.4507882 110.784381,12.20185 C112.665851,12.9537272 136.922801,23.1138562 148.395044,40.9819504 L148.020054,42.2973279 L145.948643,44.3686601 C145.948643,44.3686601 145.389419,46.8151154 146.891824,47.0018615 C148.395044,47.189423 149.897448,46.0632381 151.215619,45.3097299 C152.532975,44.5554061 157.230945,44.7445987 160.240646,47.189423 C163.251162,49.6342474 166.067661,53.5860882 165.692671,58.1006138 C165.129371,60.7329997 164.194343,61.4873234 163.251162,61.4873234 C162.308796,61.4873234 160.98981,61.4824305 160.05152,59.978676 C159.113231,58.4757369 158.5483,55.0898428 158.5483,53.9612114 C158.5483,53.9612114 155.913589,54.5255271 155.538599,56.2184742 C155.164425,57.9114213 157.230945,61.8616311 157.230945,61.8616311 C154.789435,61.4873234 144.445423,62.6159548 144.445423,62.6159548 C144.256297,59.6043683 144.067172,57.1570975 140.872422,55.0898428 C139.369202,53.7720188 140.307492,55.4690434 140.497432,56.9727979 C140.686557,58.4757369 141.065623,61.4873234 140.122442,62.4259468 C139.180077,63.3645702 135.794571,62.8051474 133.728051,60.9221923 C131.660716,59.0400526 125.2704,53.7720188 116.994538,43.9910905 C108.717046,34.2101621 105.89647,31.5761452 99.8811445,31.0118295 C93.8658189,30.4475138 88.9738322,37.4084947 89.7270726,45.6840375 L92.9218228,48.6948086 C92.7375887,45.8732301 93.4867531,35.3387935 97.9996739,35.3387935 C102.51178,35.3387935 106.086411,40.6051963 106.086411,40.6051963 C103.265835,46.8126689 100.44526,58.1006138 109.096112,64.8724021 C117.747779,71.645006 128.152115,66.3671863 129.969186,66.001849 C133.728051,65.2475253 134.102225,68.0691038 134.102225,68.0691038" id="Fill-77" fill="#F7D21F"></path>
                <path d="M113.984267,10.6988294 C123.574224,12.6739343 139.932746,23.6780903 145.85677,30.4498787 C145.85677,30.4498787 147.5483,30.4498787 147.831173,29.6034051 C148.112415,28.7569316 150.086818,20.8565119 142.190022,18.3170912 L141.907964,23.3959325 C139.369446,23.1137747 137.395044,20.8565119 136.265998,18.8814069 C135.137768,16.906302 132.882123,11.5453029 128.650444,10.1345137 C121.03489,7.59509304 113.984267,10.6988294 113.984267,10.6988294" id="Fill-79" fill="#F7D21F"></path>
                <path d="M170.676938,75.8767213 C167.574305,75.5945634 163.626315,80.109089 163.343442,82.3663518 C163.061384,84.62443 165.035787,90.2667715 165.035787,90.2667715 C170.394881,90.2667715 176.318089,91.1140605 176.318089,91.1140605 C178.293307,88.5738244 179.70278,78.9812731 170.676938,75.8767213" id="Fill-81" fill="#F7D21F"></path>
                <path d="M101.291351,66.2836807 C93.9578544,63.74426 77.3164588,65.719365 64.0597538,107.478726 L63.2135812,109.171673 L58.4186028,98.7318331 C69.1367898,74.4662582 87.7525882,55.2795246 101.291351,66.2836807" id="Fill-83" fill="#542988"></path>
                <path d="M108.343116,81.8025254 C104.583435,78.6009308 102.326975,77.2879998 102.326975,77.2879998 C99.317274,74.840729 96.1217086,77.2879998 94.9934784,79.3552546 C93.8652482,81.4225093 92.9220673,85.7527352 92.1729029,90.830761 C93.8742154,91.735134 102.146001,92.5767146 109.929486,93.1459232 L109.603408,95.2930955 L91.4188473,94.9669015 L91.229722,107.571039 C91.6047118,110.771003 92.9220673,115.282266 97.4349882,112.460688 C101.947909,109.63911 113.420152,102.400048 123.009293,99.0133386 L122.820168,95.5312172 L113.974484,95.3730131 L113.711176,93.4019855 C118.994457,93.7371499 123.441347,93.9084018 124.512513,93.8382701 C125.640743,93.6523395 126.019809,90.0772528 126.019809,90.0772528 C123.384283,89.8872447 111.38787,84.3949525 108.343116,81.8025254" id="Fill-85" fill="#FEFEFE"></path>
                <path d="M131.471101,83.4948201 C130.532812,88.7636693 128.179343,96.1919232 128.179343,96.1919232 C131.374093,94.1197755 137.016059,93.5554598 137.016059,93.5554598 C137.016059,90.5487662 131.471101,83.4948201 131.471101,83.4948201" id="Fill-87" fill="#FEFEFE"></path>
                <path d="M111.537866,45.4967206 C108.748268,42.2404886 108.343116,50.0112462 108.343116,50.0112462 C109.660471,49.6336766 110.224586,50.3855538 110.224586,50.3855538 L111.352816,54.3357637 L112.101981,49.8236846 C115.866553,51.8942013 116.993968,62.0469909 115.486672,65.0577619 C115.486672,65.0577619 119.245537,65.6220776 121.127823,65.2477699 C123.763349,64.6826387 128.087144,63.1805152 128.087144,63.1805152 C126.204859,61.6767606 112.666096,46.8120981 111.537866,45.4967206" id="Fill-89" fill="#FEFEFE"></path>
                <path d="M145.01019,68.6337456 C151.589631,67.3151062 159.297302,66.754868 163.436863,69.3872539 C167.574794,72.0188243 169.272031,70.8950859 170.021195,69.9515696 C170.77036,69.0080533 169.081275,66.944876 165.508274,65.437044 C161.933643,63.9292121 150.276351,65.4321511 147.455776,66.1864748 C144.6352,66.9407986 145.01019,68.6337456 145.01019,68.6337456" id="Fill-91" fill="#FEFEFE"></path>
                <path d="M184.779653,93.6525841 C184.779653,93.6525841 183.37018,93.3704263 179.421374,92.5239527 C179.421374,92.5239527 183.088123,84.9056908 183.37018,83.4949016 C185.062525,86.8807958 184.779653,93.6525841 184.779653,93.6525841" id="Fill-93" fill="#FEFEFE"></path>
                <g id="Group-99" transform="translate(96.861498, 171.171865)">
                    <mask id="mask-2" fill="white">
                        <use xlink:href="#path-1"></use>
                    </mask>
                    <g id="Clip-98"></g>
                    <path d="M18.8503302,4.75191327 C18.8503302,4.75191327 14.9276107,14.3004284 14.2836064,15.5880794 C13.6404174,16.8757304 10.1505666,17.9554327 8.22915138,16.2323126 C6.29795386,14.5042997 0.43670009,8.84727949 0.43670009,8.84727949 C1.28287275,6.27687043 8.45822124,-5.64470637 18.8503302,4.75191327 Z" id="Fill-97" fill="#542988" mask="url(#mask-2)"></path>
                </g>
                <path d="M58.7539741,173.961965 C60.9126111,171.792775 66.0613842,168.949178 71.066683,170.271895 C76.0825793,171.589719 78.0390479,177.245924 78.2420315,179.172915 C78.2420315,179.172915 70.6264775,184.996294 68.908046,186.522067 C67.1798321,188.047024 64.5712073,186.557133 63.2848292,185.03136 C61.9976359,183.506403 58.7539741,173.961965 58.7539741,173.961965" id="Fill-100" fill="#542988"></path>
                <path d="M12.4525964,124.628215 C18.9488873,123.816807 24.9063341,131.126816 20.843401,138.170976 L19.2219777,139.256387 C19.2219777,139.256387 12.4525964,138.170976 10.0110867,138.170976 C7.57854406,138.170976 7.30545366,136.275789 7.57854406,134.380602 C7.84266732,132.484599 12.4525964,124.628215 12.4525964,124.628215" id="Fill-102" fill="#542988"></path>
                <path d="M19.7774517,131.27238 L13.382245,134.473159 L19.966577,133.344528 C19.966577,133.344528 19.7774517,132.021811 19.7774517,131.27238" id="Fill-104" fill="#F7D21F"></path>
                <path d="M12.8665525,126.806294 C16.9572022,126.898444 19.2128475,129.344899 19.2128475,129.344899 L9.24871607,134.47267 C9.24871607,134.47267 11.3633325,128.688434 12.8665525,126.806294" id="Fill-106" fill="#F7D21F"></path>
                <path d="M60.3930871,174.349728 C62.4604223,172.281658 68.2906986,171.717343 68.2906986,171.717343 L64.7168827,184.507411 C64.7168827,184.507411 61.1471427,178.674246 60.3930871,174.349728" id="Fill-108" fill="#F7D21F"></path>
                <path d="M70.9221489,172.4671 L67.3515937,182.439667 L72.99356,173.974932 C72.613679,172.091976 70.9221489,172.4671 70.9221489,172.4671" id="Fill-110" fill="#F7D21F"></path>
                <path d="M103.830113,173.974687 L107.213989,187.139878 L98.9242684,180.583378 C98.9242684,180.583378 101.572838,174.163879 103.830113,173.974687" id="Fill-112" fill="#F7D21F"></path>
                <path d="M106.461156,173.785168 C107.778511,173.41086 109.470857,174.349484 109.470857,174.349484 L108.906742,184.881474 L106.461156,173.785168 Z" id="Fill-114" fill="#F7D21F"></path>
                <path d="M137.372544,165.527566 C133.247656,163.768565 126.989402,164.447864 126.108176,173.115655 C131.651504,175.712159 132.638705,175.465883 133.925899,175.465883 C135.213092,175.465883 137.143474,175.244071 137.143474,173.520951 C137.143474,171.792938 137.372544,165.527566 137.372544,165.527566" id="Fill-116" fill="#542988"></path>
                <path d="M129.214967,168.142011 C127.522622,169.270643 127.711747,171.717913 127.711747,171.717913 L133.352898,173.974361 L129.214967,168.142011 Z" id="Fill-118" fill="#F7D21F"></path>
                <path d="M130.343034,167.767785 L133.917665,171.717995 L132.784544,166.264031 C130.718024,166.074838 130.343034,167.767785 130.343034,167.767785" id="Fill-120" fill="#F7D21F"></path>
                <path d="M27.6125377,151.715287 C27.6125377,151.715287 36.5511535,148.735504 41.1513002,153.610474 C45.7530774,158.487075 43.8577484,164.716566 43.8577484,164.716566 C43.8577484,164.716566 37.801663,167.626217 31.12929,168.781759 C29.2347762,169.116108 26.8022336,169.050869 26.8022336,165.258048 C26.8022336,161.467673 27.6125377,151.715287 27.6125377,151.715287" id="Fill-122" fill="#542988"></path>
                <path d="M39.5212358,155.352269 L31.8127497,164.755628 L41.4035216,157.610347 C41.4035216,156.856023 39.5212358,155.352269 39.5212358,155.352269" id="Fill-124" fill="#F7D21F"></path>
                <path d="M28.8027228,152.341253 C31.0599984,151.40263 38.0185049,154.408508 38.0185049,154.408508 L28.2394228,165.695637 L28.8027228,152.905569" id="Fill-126" fill="#F7D21F"></path>
            </g>
        </g>
    </g>
</svg>